<?xml version="1.0" encoding="UTF-8" standalone="no"?>
<svg
   xmlns:dc="http://purl.org/dc/elements/1.1/"
   xmlns:cc="http://creativecommons.org/ns#"
   xmlns:rdf="http://www.w3.org/1999/02/22-rdf-syntax-ns#"
   xmlns:svg="http://www.w3.org/2000/svg"
   xmlns="http://www.w3.org/2000/svg"
   xmlns:sodipodi="http://sodipodi.sourceforge.net/DTD/sodipodi-0.dtd"
   xmlns:inkscape="http://www.inkscape.org/namespaces/inkscape"
   version="1.1"
   id="svg1582"
   width="330.65326"
   height="191.82321"
   viewBox="0 0 330.65326 191.82321"
   sodipodi:docname="10-11-2.svg"
   inkscape:version="1.0.1 (c497b03c, 2020-09-10)">
  <metadata
     id="metadata1588">
    <rdf:RDF>
      <cc:Work
         rdf:about="">
        <dc:format>image/svg+xml</dc:format>
        <dc:type
           rdf:resource="http://purl.org/dc/dcmitype/StillImage" />
        <dc:title></dc:title>
      </cc:Work>
    </rdf:RDF>
  </metadata>
  <defs
     id="defs1586" />
  <sodipodi:namedview
     pagecolor="#ffffff"
     bordercolor="#666666"
     borderopacity="1"
     objecttolerance="10"
     gridtolerance="10"
     guidetolerance="10"
     inkscape:pageopacity="0"
     inkscape:pageshadow="2"
     inkscape:window-width="740"
     inkscape:window-height="480"
     id="namedview1584"
     showgrid="false"
     fit-margin-top="0"
     fit-margin-left="0"
     fit-margin-right="0"
     fit-margin-bottom="0"
     inkscape:pagecheckerboard="true"
     inkscape:zoom="0.71253542"
     inkscape:cx="175.72089"
     inkscape:cy="14.766153"
     inkscape:window-x="0"
     inkscape:window-y="25"
     inkscape:window-maximized="0"
     inkscape:current-layer="g1590" />
  <g
     inkscape:groupmode="layer"
     inkscape:label="Image"
     id="g1590"
     transform="translate(-9.3000482,-12.08236)">
    <g
       id="g1594">
      <path
         style="fill:#9f9f9f;stroke-width:0.666667"
         d="m 115.03036,202.44975 c 0.28354,-1.12971 0.17675,-1.78308 -0.29142,-1.78308 -0.40642,0 -0.73894,-0.45 -0.73894,-1 0,-0.55556 0.5926,-1 1.33334,-1 1.02442,0 1.33333,0.44444 1.33333,1.91837 0,1.0551 -0.46887,2.30749 -1.04192,2.78309 -0.91296,0.75768 -0.98653,0.64401 -0.59439,-0.91838 z m -9.54868,-2.15422 c -1.78082,-1.24733 -1.99506,-3.16545 -0.31501,-2.82024 0.67137,0.13794 1.0835,0.72475 0.97077,1.38221 -0.26294,1.53356 2.24727,1.52795 3.10624,-0.007 0.78052,-1.39474 -0.1853,-3.51724 -1.60046,-3.51724 -1.4467,0 -1.18409,-1.12355 0.35678,-1.5265 0.79774,-0.20861 1.33334,-0.90934 1.33334,-1.74442 0,-0.9513 -0.42458,-1.39574 -1.33334,-1.39574 -0.74074,0 -1.33333,0.44444 -1.33333,1 0,0.55 -0.45,1 -1,1 -1.27166,0 -1.29602,-1.59107 -0.0403,-2.63321 1.31213,-1.08898 4.41234,-0.62258 5.30154,0.79757 0.54319,0.86753 0.50024,1.53074 -0.16848,2.60152 -0.77209,1.23632 -0.74812,1.52077 0.17153,2.03543 2.44599,1.36883 0.19905,5.86535 -2.93093,5.86535 -0.57016,0 -1.70341,-0.46701 -2.51832,-1.0378 z M 125.2,199.86667 C 126.54116,198.52551 126.10949,198 123.66667,198 c -1.28333,0 -2.33333,-0.17731 -2.33333,-0.39403 0,-0.76358 5.53387,-8.27264 6.09659,-8.27264 0.31354,0 0.57007,1.65 0.57007,3.66667 0,2.81481 0.23232,3.66667 1,3.66667 0.55,0 1,0.3 1,0.66666 C 130,197.7 129.55,198 129,198 c -1.32675,0 -1.26421,0.65245 0.16667,1.73863 1.02633,0.7791 0.80983,0.88818 -1.8,0.90684 -2.30741,0.0165 -2.78889,-0.15658 -2.16667,-0.7788 z m 0.8,-4.90602 c 0,-1.85391 -0.90682,-1.66993 -2.01987,0.40981 -0.58146,1.08647 -0.47417,1.29621 0.66309,1.29621 1.01114,0 1.35678,-0.43462 1.35678,-1.70602 z m -15.33333,-16.50259 c 0,-0.4814 0.9,-1.73753 2,-2.79139 1.1,-1.05387 2,-2.22072 2,-2.59299 0,-0.37228 -0.95449,-1.66166 -2.1211,-2.86529 -2.96813,-3.06233 -1.74739,-3.66822 1.33211,-0.66117 l 2.51987,2.46059 2.26534,-2.33724 c 2.07028,-2.13599 4.00378,-3.0368 4.00378,-1.86534 0,0.25954 -1.11089,1.60954 -2.46863,3 l -2.46864,2.5281 2.59199,2.65443 c 3.38165,3.46313 2.46283,4.38194 -1.00029,1.00029 l -2.65443,-2.59198 -2.52811,2.46863 c -2.69929,2.63579 -3.47189,2.99036 -3.47189,1.59336 z m 214.46257,-26.21771 c -1.03884,-1.03884 0.6173,-1.57368 4.87293,-1.57368 3.8523,0 4.8819,-0.25096 6.4051,-1.56116 2.32024,-1.99578 2.4378,-5.12005 0.2791,-7.41787 -1.31746,-1.40239 -2.2345,-1.6623 -6.44932,-1.82791 -2.70242,-0.10618 -4.98628,-0.49306 -5.07526,-0.85973 -0.23344,-0.96195 6.73207,-1.22586 9.63578,-0.36507 6.38357,1.89234 6.99374,10.08072 0.96438,12.94184 -2.2475,1.06651 -9.76087,1.53542 -10.63271,0.66358 z M 114.2017,151.23848 c -2.121,-1.07761 -3.72572,-4.83508 -3.17589,-7.43639 1.36899,-6.47684 8.4742,-11.30411 13.07283,-8.88166 1.54385,0.81326 1.89929,0.79593 2.83334,-0.13812 0.97959,-0.97959 1.06772,-0.95959 1.0643,0.2415 -0.006,2.14664 -1.34386,6.30952 -2.02761,6.30952 -0.34943,0 -0.63533,-0.61972 -0.63533,-1.37716 0,-5.87372 -7.8429,-5.01944 -10.41412,1.13435 -1.44988,3.47005 -1.1972,7.30583 0.56246,8.53835 2.02097,1.41554 4.25332,1.3028 5.85166,-0.29554 C 122.8885,147.77817 123.0873,146 121.70602,146 c -0.52836,0 -1.14607,-0.3 -1.37268,-0.66667 -0.25581,-0.4139 0.99308,-0.66666 3.29398,-0.66666 2.03831,0 3.70602,0.3 3.70602,0.66666 0,0.36667 -0.4202,0.66667 -0.93378,0.66667 -0.52952,0 -1.18962,1.08231 -1.52476,2.5 -0.41279,1.74617 -0.98556,2.54471 -1.89956,2.64829 -0.71972,0.0816 -2.65857,0.30269 -4.30857,0.49139 -1.65,0.18871 -3.65923,0.008 -4.46497,-0.4012 z m 16.46497,-0.57181 c -1.65934,-1.65934 -1.65627,-2.17969 0.0523,-8.8715 0.9263,-3.62796 1.1473,-5.50642 0.66666,-5.66663 -1.51283,-0.50429 -0.62636,-1.46187 1.35334,-1.46187 2.19013,0 2.2262,0.20484 0.85114,4.83333 -0.27652,0.93081 0.0621,1.16667 1.67488,1.16667 4.0237,0 4.69535,5.20007 1.15632,8.95253 -2.558,2.71227 -3.85392,2.94816 -5.75461,1.04747 z m 4.05845,-2.04204 c 1.65905,-2.36523 2.17041,-5.91199 0.92147,-6.39125 -1.45846,-0.55967 -2.87653,0.90684 -3.64827,3.77289 -1.18808,4.4122 0.39934,5.9365 2.7268,2.61836 z M 176.72714,150.5 c -0.31525,-0.825 -1.65782,-4.30511 -2.9835,-7.73357 -1.32566,-3.42846 -2.4103,-6.65346 -2.4103,-7.16666 0,-1.82 1.14602,-0.89506 2.1928,1.76977 l 1.06172,2.70287 3.48309,-0.20287 c 3.31019,-0.1928 3.52126,-0.31671 4.252,-2.49596 0.72149,-2.15166 2.34372,-3.63305 2.34372,-2.14025 0,1.40186 -6.20823,16.76667 -6.77466,16.76667 -0.32542,0 -0.84961,-0.675 -1.16487,-1.5 z m 2.6955,-5.5 1.07879,-3 h -2.54358 -2.54358 l 1.0222,3 c 0.56221,1.65 1.22137,3 1.46479,3 0.24342,0 0.92804,-1.35 1.52138,-3 z m 6.67844,6.40991 c -0.49442,-0.31332 -0.79031,-1.13373 -0.65754,-1.82313 0.30745,-1.59647 2.25565,-1.65454 2.12664,-0.0634 -0.0761,0.93831 0.0978,1.02882 0.82192,0.42785 0.94653,-0.78556 2.26428,-4.72256 2.27085,-6.78457 0.005,-1.58335 -1.79111,-1.4771 -2.81766,0.16667 -0.95769,1.53351 -1.84529,1.74354 -1.84529,0.43666 0,-2.05154 2.26446,-3.035 6.67982,-2.90106 3.82182,0.11594 4.32018,0.28382 4.32018,1.45526 0,0.73112 -0.52253,1.42484 -1.16666,1.54889 -0.76161,0.14667 -1.17403,-0.19735 -1.18787,-0.99087 -0.0399,-2.29076 -1.88064,1.00801 -2.3651,4.2386 -0.56531,3.76979 0.0821,4.36439 2.14387,1.96893 0.90428,-1.05064 1.81582,-1.73858 2.02564,-1.52875 0.66264,0.66264 -0.31676,2.32105 -2.03601,3.44754 -1.29341,0.84747 -1.96069,0.92412 -3.03583,0.34872 -0.96316,-0.51547 -1.76626,-0.52974 -2.66754,-0.0474 -1.5351,0.82156 -1.47454,0.81924 -2.60942,0.10003 z m 47.33333,0 c -0.49441,-0.31332 -0.79031,-1.13373 -0.65754,-1.82313 0.30745,-1.59647 2.25565,-1.65454 2.12664,-0.0634 -0.0761,0.93831 0.0978,1.02882 0.82193,0.42785 0.94652,-0.78556 2.26428,-4.72256 2.27084,-6.78457 0.005,-1.58335 -1.79111,-1.4771 -2.81766,0.16667 -0.95769,1.53351 -1.84528,1.74354 -1.84528,0.43666 0,-2.05154 2.26446,-3.035 6.67981,-2.90106 3.82183,0.11594 4.32019,0.28382 4.32019,1.45526 0,0.73112 -0.52254,1.42484 -1.16667,1.54889 -0.76161,0.14667 -1.17403,-0.19735 -1.18787,-0.99087 -0.0399,-2.29076 -1.88064,1.00801 -2.3651,4.2386 -0.56531,3.76979 0.0821,4.36439 2.14387,1.96893 0.90428,-1.05064 1.81582,-1.73858 2.02565,-1.52875 0.66264,0.66264 -0.31677,2.32105 -2.03602,3.44754 -1.2934,0.84747 -1.96068,0.92412 -3.03582,0.34872 -0.96317,-0.51547 -1.76626,-0.52974 -2.66755,-0.0474 -1.5351,0.82156 -1.47453,0.81924 -2.60942,0.10003 z M 13.666667,150.66667 C 13.89328,150.3 14.510984,150 15.039345,150 15.567706,150 16,149.41568 16,148.70151 c 0,-1.08788 -0.543376,-1.33118 -3.349976,-1.5 L 9.3000482,147 13.317361,140.7944 c 2.209522,-3.41307 4.317011,-6.02037 4.683309,-5.79399 0.366298,0.22639 0.665997,2.79391 0.665997,5.7056 0,4.26132 0.195064,5.29399 1,5.29399 0.55,0 1,0.3 1,0.66667 0,0.36666 -0.45,0.66666 -1,0.66666 -0.555555,0 -1,0.5926 -1,1.33334 0,0.74074 0.444445,1.33333 1,1.33333 0.55,0 1,0.3 1,0.66667 0,0.36666 -1.667705,0.66666 -3.706011,0.66666 -2.300912,0 -3.549797,-0.25276 -3.293989,-0.66666 z m 2.320667,-8.16667 -0.01267,-3.5 -1.987333,3.1647 c -1.093033,1.74059 -1.987333,3.31559 -1.987333,3.5 0,0.18441 0.9,0.3353 2,0.3353 1.969863,0 1.999809,-0.0527 1.987333,-3.5 z m 7.346,7.5 c 0,-0.88889 0.444444,-1.33333 1.333333,-1.33333 C 25.555556,148.66667 26,149.11111 26,150 c 0,0.88889 -0.444444,1.33333 -1.333333,1.33333 -0.888889,0 -1.333333,-0.44444 -1.333333,-1.33333 z m 191.333336,0.66667 c 0,-0.36667 0.56317,-0.66667 1.25147,-0.66667 1.01887,0 1.51978,-1.08425 2.69494,-5.83333 0.79389,-3.20834 1.60094,-6.35834 1.79344,-7 C 220.63565,136.40291 220.39566,136 219.7116,136 c -0.57472,0 -1.04493,-0.3 -1.04493,-0.66667 0,-0.4 2.66667,-0.66666 6.66667,-0.66666 H 232 v 1.94547 c 0,1.07001 -0.18209,2.42001 -0.40466,3 -0.57716,1.50406 -1.76656,1.31091 -1.2843,-0.20856 0.59268,-1.86736 -1.3389,-3.40358 -4.27951,-3.40358 -2.44906,0 -2.56658,0.10594 -3.28572,2.96188 -0.95827,3.80567 -0.97412,3.70479 0.58188,3.70479 0.73023,0 1.70239,-0.6 2.16036,-1.33334 1.74079,-2.78744 2.31171,-1.37293 1.14357,2.83334 -0.68726,2.47468 -2.20509,3.58208 -1.82751,1.33333 0.13894,-0.82749 -0.31344,-1.22571 -1.55603,-1.36976 -1.44192,-0.16715 -1.8309,0.12776 -2.19832,1.66667 -0.24552,1.02836 -0.60238,2.39476 -0.79301,3.03642 -0.25153,0.84667 0.0315,1.16667 1.03166,1.16667 0.75805,0 1.37826,0.3 1.37826,0.66667 0,0.37037 -1.77778,0.66666 -4,0.66666 -2.22222,0 -4,-0.29629 -4,-0.66666 z m 90.66667,0 c 0,-0.36667 0.6,-0.66667 1.33333,-0.66667 1.23457,0 1.33334,-0.44445 1.33334,-6 0,-5.55555 -0.0988,-6 -1.33334,-6 -2.04542,0 -1.58564,-0.97425 0.88067,-1.86607 1.2177,-0.44033 2.4177,-0.8006 2.66667,-0.8006 0.24896,0 0.45266,3.3 0.45266,7.33334 0,6.88888 0.0808,7.33333 1.33334,7.33333 0.73333,0 1.33333,0.3 1.33333,0.66667 0,0.37037 -1.77778,0.66666 -4,0.66666 -2.22222,0 -4,-0.29629 -4,-0.66666 z M 108,146.66667 V 144 h -6 c -3.555552,0 -5.999998,-0.27161 -5.999998,-0.66667 0,-0.4 2.666666,-0.66666 6.666668,-0.66666 h 6.66667 V 146 c 0,1.83333 -0.3,3.33333 -0.66667,3.33333 -0.36667,0 -0.66667,-1.2 -0.66667,-2.66666 z m 103.33334,0 V 144 h -6 c -3.55556,0 -6,-0.27161 -6,-0.66667 0,-0.4 2.66666,-0.66666 6.66666,-0.66666 h 6.66667 V 146 c 0,1.83333 -0.3,3.33333 -0.66667,3.33333 -0.36666,0 -0.66666,-1.2 -0.66666,-2.66666 z M 116.66667,126.0619 c 0,-0.57506 45.48035,-32.728567 46.29377,-32.728567 1.04186,0 46.29071,32.260307 45.97205,32.775907 -0.20253,0.32769 -1.77019,-0.41935 -3.48369,-1.66009 -11.4563,-8.29547 -41.90468,-29.324077 -42.46894,-29.330377 -0.37774,-0.004 -10.81948,7.092337 -23.20386,15.770117 -12.38439,8.67778 -22.65033,15.77778 -22.8132,15.77778 -0.16287,0 -0.29613,-0.27215 -0.29613,-0.60477 z M 12,85.333333 c -2.3046205,-2.30462 -1.162252,-5.549193 1.39379,-3.95866 0.766317,0.476854 0.786264,0.831974 0.108184,1.926114 -0.737628,1.190226 -0.642698,1.38882 0.84199,1.761453 2.133039,0.53536 3.659036,-0.71078 3.645828,-2.9772 -0.0132,-2.264453 -0.645296,-3.205573 -2.675278,-3.983173 L 13.666667,77.470647 15.5,76.75182 c 1.517289,-0.5949 1.833334,-1.1239 1.833334,-3.068653 0,-2.062047 -0.20412,-2.349834 -1.666667,-2.349834 C 14.333334,71.333333 14,71.666667 14,73 c 0,1.22222 -0.355555,1.666667 -1.333333,1.666667 -1.704097,0 -1.770249,-2.064614 -0.114173,-3.56334 2.836153,-2.566687 8.74076,-0.202547 7.736088,3.09744 -0.245459,0.806246 -0.873756,1.953833 -1.396216,2.550193 -0.825652,0.942447 -0.814026,1.136447 0.08886,1.48292 1.780637,0.683293 2.478346,3.58822 1.374511,5.7228 C 18.781492,87.000933 14.390962,87.724293 12,85.333333 Z m 156.2017,0.571814 c -2.121,-1.077614 -3.72572,-4.83508 -3.17589,-7.436394 1.36899,-6.476833 8.4742,-11.304106 13.07283,-8.88166 1.54385,0.81326 1.89929,0.795934 2.83334,-0.138113 0.97959,-0.979593 1.06772,-0.959593 1.0643,0.241493 C 181.99028,71.83712 180.65242,76 179.96867,76 c -0.34943,0 -0.63533,-0.61972 -0.63533,-1.37716 0,-5.87372 -7.8429,-5.01944 -10.41412,1.134347 -1.44988,3.470046 -1.1972,7.305833 0.56246,8.538346 2.02097,1.415547 4.25332,1.3028 5.85166,-0.295533 1.55516,-1.55516 1.75396,-3.333333 0.37268,-3.333333 -0.52836,0 -1.14607,-0.3 -1.37268,-0.666667 -0.25581,-0.413907 0.99308,-0.666667 3.29398,-0.666667 2.03831,0 3.70602,0.3 3.70602,0.666667 0,0.366667 -0.4202,0.666667 -0.93378,0.666667 -0.52952,0 -1.18962,1.082313 -1.52476,2.5 -0.41279,1.746173 -0.98556,2.544713 -1.89956,2.648293 -0.71972,0.08156 -2.65857,0.302687 -4.30857,0.491387 -1.65,0.188706 -3.65923,0.0081 -4.46497,-0.4012 z m 16.46497,-0.571814 c -1.65934,-1.65934 -1.65627,-2.179686 0.0523,-8.871493 0.9263,-3.62796 1.1473,-5.50642 0.66666,-5.666633 -1.51283,-0.504287 -0.62636,-1.461874 1.35334,-1.461874 2.19013,0 2.2262,0.204847 0.85114,4.833334 -0.27652,0.930806 0.0621,1.166666 1.67488,1.166666 4.0237,0 4.69535,5.200074 1.15632,8.952534 -2.558,2.712273 -3.85392,2.94816 -5.75461,1.047466 z m 4.05845,-2.042033 c 1.65905,-2.365233 2.17041,-5.911993 0.92147,-6.391253 -1.45846,-0.559667 -2.87653,0.90684 -3.64827,3.772886 -1.18808,4.4122 0.39934,5.9365 2.7268,2.618367 z M 23.333334,84.666667 c 0,-0.888887 0.444444,-1.333334 1.333333,-1.333334 C 25.555556,83.333333 26,83.77778 26,84.666667 26,85.555553 25.555556,86 24.666667,86 23.777778,86 23.333334,85.555553 23.333334,84.666667 Z M 146,81.333333 v -2.666666 h -6 c -3.55555,0 -6,-0.271607 -6,-0.666667 0,-0.4 2.66667,-0.666667 6.66667,-0.666667 h 6.66667 v 3.333334 C 147.33334,82.5 147.03334,84 146.66667,84 146.3,84 146,82.8 146,81.333333 Z m 15.33334,0 v -2.666666 h -6 c -3.55556,0 -6,-0.271607 -6,-0.666667 0,-0.4 2.66666,-0.666667 6.66666,-0.666667 h 6.66667 v 3.333334 C 162.66667,82.5 162.36667,84 162,84 c -0.36666,0 -0.66666,-1.2 -0.66666,-2.666667 z M 148.10108,57.409907 c -0.49442,-0.313322 -0.79031,-1.133728 -0.65754,-1.823125 0.30745,-1.596471 2.25565,-1.654545 2.12664,-0.06339 -0.0761,0.938314 0.0978,1.028818 0.82192,0.427841 0.94653,-0.785551 2.26428,-4.722555 2.27085,-6.784563 0.005,-1.583346 -1.79111,-1.477102 -2.81766,0.166666 C 148.8876,50.866845 148,51.07688 148,49.769992 c 0,-2.051537 2.26446,-3.034995 6.67982,-2.90105 3.82182,0.115939 4.32018,0.283813 4.32018,1.455261 0,0.73111 -0.52253,1.424835 -1.16666,1.548883 -0.76161,0.146672 -1.17403,-0.197355 -1.18787,-0.99087 -0.0399,-2.290764 -1.88064,1.008008 -2.3651,4.238598 -0.56531,3.769792 0.0821,4.364392 2.14387,1.96893 0.90428,-1.050641 1.81582,-1.738579 2.02564,-1.528752 0.66264,0.662639 -0.31676,2.321053 -2.03601,3.447545 -1.29341,0.847471 -1.96069,0.924121 -3.03583,0.348722 -0.96316,-0.515472 -1.76626,-0.529736 -2.66754,-0.04738 -1.5351,0.821561 -1.47454,0.81924 -2.60942,0.100029 z m 32,0 c -0.49442,-0.313322 -0.79031,-1.133728 -0.65754,-1.823125 0.30745,-1.596471 2.25565,-1.654545 2.12664,-0.06339 -0.0761,0.938314 0.0978,1.028818 0.82192,0.427841 0.94653,-0.785551 2.26428,-4.722555 2.27085,-6.784563 0.005,-1.583346 -1.79111,-1.477102 -2.81766,0.166666 C 180.8876,50.866845 180,51.07688 180,49.769992 c 0,-2.051537 2.26446,-3.034995 6.67982,-2.90105 3.82182,0.115939 4.32018,0.283813 4.32018,1.455261 0,0.73111 -0.52253,1.424835 -1.16666,1.548883 -0.76161,0.146672 -1.17403,-0.197355 -1.18787,-0.99087 -0.0399,-2.290764 -1.88064,1.008008 -2.3651,4.238598 -0.56531,3.769792 0.0821,4.364392 2.14387,1.96893 0.90428,-1.050641 1.81582,-1.738579 2.02564,-1.528752 0.66264,0.662639 -0.31676,2.321053 -2.03601,3.447545 -1.29341,0.847471 -1.96069,0.924121 -3.03583,0.348722 -0.96316,-0.515472 -1.76626,-0.529736 -2.66754,-0.04738 -1.5351,0.821561 -1.47454,0.81924 -2.60942,0.100029 z M 10.666667,56.782876 c 0,-0.302751 0.79066,-1.277751 1.757022,-2.166667 4.700034,-4.323359 6.770146,-9.155708 4.776311,-11.149542 -1.074458,-1.074458 -2.861539,-1.011105 -3.812862,0.135169 -0.593169,0.714725 -0.584138,0.999164 0.03831,1.206647 1.255631,0.418544 0.09013,2.657713 -1.24911,2.399799 -3.2125305,-0.618676 -0.179185,-5.874949 3.390374,-5.874949 3.270783,0 5.099951,1.620028 5.099951,4.51684 0,2.04847 -0.559441,3.00771 -3.477227,5.962197 l -3.477226,3.520963 h 2.395912 c 1.730176,0 2.686653,-0.416794 3.442258,-1.5 1.032391,-1.479993 1.046814,-1.466656 1.081315,1 l 0.03497,2.5 h -5 c -2.75,0 -5,-0.247706 -5,-0.550457 z M 23.333334,56 c 0,-0.888889 0.444444,-1.333333 1.333333,-1.333333 C 25.555556,54.666667 26,55.111111 26,56 c 0,0.888889 -0.444444,1.333333 -1.333333,1.333333 -0.888889,0 -1.333333,-0.444444 -1.333333,-1.333333 z m 111.333336,0.666667 c 0,-0.380953 2,-0.666667 4.66667,-0.666667 H 144 v -2.96954 -2.96954 l -4.5,-0.197127 C 137.025,49.755373 135,49.366667 135,49 c 0,-0.366667 2.025,-0.755373 4.5,-0.863793 L 144,47.93908 V 44.96954 42 h -4.66666 c -2.66667,0 -4.66667,-0.285714 -4.66667,-0.666667 0,-0.388888 2.22222,-0.666666 5.33333,-0.666666 h 5.33334 V 49 57.333333 H 140 c -3.11111,0 -5.33333,-0.277778 -5.33333,-0.666666 z m 26,0 C 160.66667,56.3 161.22984,56 161.91814,56 c 1.01887,0 1.51978,-1.08425 2.69494,-5.833333 0.79389,-3.208334 1.60094,-6.358334 1.79344,-7 C 166.63565,42.402915 166.39565,42 165.7116,42 c -0.57472,0 -1.04493,-0.3 -1.04493,-0.666667 0,-0.4 2.66667,-0.666666 6.66667,-0.666666 H 178 v 1.945475 c 0,1.070011 -0.18209,2.420011 -0.40466,3 -0.57716,1.50406 -1.76656,1.310911 -1.2843,-0.208561 C 176.90372,43.53622 174.97214,42 172.03153,42 c -2.44906,0 -2.56658,0.10594 -3.28572,2.96188 -0.95827,3.805675 -0.97412,3.704787 0.58188,3.704787 0.73023,0 1.70239,-0.6 2.16036,-1.333334 1.74079,-2.787448 2.31171,-1.372934 1.14357,2.833334 -0.68726,2.474684 -2.20509,3.582081 -1.82751,1.333333 0.13894,-0.827484 -0.31344,-1.225711 -1.55603,-1.369759 -1.44192,-0.167155 -1.8309,0.127758 -2.19832,1.666667 -0.24552,1.028367 -0.60238,2.394759 -0.79301,3.036425 C 166.00522,55.679999 166.28822,56 167.28841,56 c 0.75805,0 1.37826,0.3 1.37826,0.666667 0,0.37037 -1.77778,0.666666 -4,0.666666 -2.22222,0 -4,-0.296296 -4,-0.666666 z m -42.2041,-26.42632 c -1.03884,-1.038842 0.6173,-1.57368 4.87293,-1.57368 3.8523,0 4.8819,-0.250954 6.4051,-1.561158 2.32024,-1.995784 2.4378,-5.120051 0.2791,-7.417872 -1.31746,-1.402382 -2.2345,-1.662294 -6.44932,-1.827906 C 120.86796,17.753545 118.5841,17.366667 118.49512,17 c -0.23344,-0.961951 6.73207,-1.225857 9.63578,-0.365076 6.38357,1.892351 6.99374,10.08073 0.96438,12.941846 -2.2475,1.066513 -9.76087,1.535414 -10.63271,0.663577 z M 85.535035,29.238479 c -2.121,-1.07761 -3.72572,-4.83508 -3.175893,-7.436394 1.368986,-6.476834 8.4742,-11.304102 13.072833,-8.88166 1.543847,0.813259 1.899287,0.795933 2.833333,-0.138111 0.979594,-0.979593 1.06772,-0.959597 1.064307,0.241495 -0.0061,2.146642 -1.343867,6.309524 -2.027613,6.309524 -0.349434,0 -0.635334,-0.619722 -0.635334,-1.37716 0,-5.873721 -7.8429,-5.01944 -10.41412,1.134348 -1.44988,3.470048 -1.1972,7.305832 0.56246,8.538343 2.020974,1.415546 4.253327,1.302804 5.85166,-0.295531 C 94.221828,25.778173 94.420635,24 93.039348,24 c -0.52836,0 -1.146066,-0.3 -1.37268,-0.666667 -0.255806,-0.413906 0.99308,-0.666666 3.293987,-0.666666 2.038307,0 3.706013,0.3 3.706013,0.666666 C 98.666668,23.7 98.246468,24 97.732895,24 c -0.52952,0 -1.189627,1.082317 -1.524767,2.5 -0.412786,1.746177 -0.98556,2.544715 -1.899553,2.648292 -0.71972,0.08156 -2.658573,0.302685 -4.308573,0.491389 -1.65,0.188703 -3.659234,0.0082 -4.464967,-0.401202 z M 102,28.666667 c -1.65934,-1.659341 -1.65627,-2.179685 0.0523,-8.871493 0.9263,-3.627957 1.1473,-5.506421 0.66667,-5.666631 -1.51284,-0.504286 -0.62636,-1.461876 1.35334,-1.461876 2.19012,0 2.2262,0.204849 0.85114,4.833333 -0.27653,0.930809 0.0621,1.166667 1.67487,1.166667 4.0237,0 4.69535,5.200073 1.15633,8.952532 -2.55801,2.712276 -3.85392,2.948161 -5.75462,1.047468 z m 4.05845,-2.042034 c 1.65905,-2.365236 2.17041,-5.91199 0.92147,-6.391255 -1.45846,-0.559663 -2.87652,0.906841 -3.64827,3.772889 -1.18808,4.412199 0.39935,5.936501 2.7268,2.618366 z M 147.39381,28.5 c -0.31525,-0.825 -1.65783,-4.305105 -2.9835,-7.733568 C 143.08464,17.337969 142,14.112969 142,13.599765 c 0,-1.819993 1.14603,-0.895054 2.1928,1.769775 l 1.06172,2.702873 3.4831,-0.202873 c 3.31018,-0.192803 3.52126,-0.316706 4.252,-2.495961 0.72148,-2.151657 2.34372,-3.633054 2.34372,-2.140248 0,1.401856 -6.20824,16.766669 -6.77466,16.766669 -0.32542,0 -0.84962,-0.675 -1.16487,-1.5 z m 2.69549,-5.5 1.0788,-3 h -2.54358 -2.54358 l 1.0222,3 c 0.56221,1.65 1.22136,3 1.46478,3 0.24343,0 0.92805,-1.35 1.52138,-3 z m 6.01178,6.409907 c -0.49442,-0.313322 -0.79031,-1.133728 -0.65754,-1.823125 0.30745,-1.596471 2.25565,-1.654545 2.12664,-0.06339 -0.0761,0.938314 0.0978,1.028818 0.82192,0.427841 0.94653,-0.785551 2.26428,-4.722555 2.27085,-6.784563 0.005,-1.583346 -1.79111,-1.477102 -2.81766,0.166666 C 156.8876,22.866845 156,23.07688 156,21.769992 c 0,-2.051537 2.26446,-3.034995 6.67982,-2.90105 3.82182,0.115939 4.32018,0.283813 4.32018,1.455261 0,0.73111 -0.52253,1.424835 -1.16666,1.548883 -0.76161,0.146672 -1.17403,-0.197355 -1.18787,-0.99087 -0.0399,-2.290764 -1.88064,1.008008 -2.3651,4.238598 -0.56531,3.769792 0.0821,4.364392 2.14387,1.96893 0.90428,-1.050641 1.81582,-1.738579 2.02564,-1.528752 0.66264,0.662639 -0.31676,2.321053 -2.03601,3.447545 -1.29341,0.847471 -1.96069,0.924121 -3.03583,0.348722 -0.96316,-0.515472 -1.76626,-0.529736 -2.66754,-0.04738 -1.5351,0.821561 -1.47454,0.81924 -2.60942,0.100028 z m 48,0 c -0.49442,-0.313322 -0.79031,-1.133728 -0.65754,-1.823125 0.30745,-1.596471 2.25565,-1.654545 2.12664,-0.06339 -0.0761,0.938314 0.0978,1.028818 0.82192,0.427841 0.94653,-0.785551 2.26428,-4.722555 2.27085,-6.784563 0.005,-1.583346 -1.79111,-1.477102 -2.81766,0.166666 C 204.8876,22.866845 204,23.07688 204,21.769992 c 0,-2.051537 2.26446,-3.034995 6.67982,-2.90105 3.82182,0.115939 4.32018,0.283813 4.32018,1.455261 0,0.73111 -0.52253,1.424835 -1.16666,1.548883 -0.76161,0.146672 -1.17403,-0.197355 -1.18787,-0.99087 -0.0399,-2.290764 -1.88064,1.008008 -2.3651,4.238598 -0.56531,3.769792 0.0821,4.364392 2.14387,1.96893 0.90428,-1.050641 1.81582,-1.738579 2.02564,-1.528752 0.66264,0.662639 -0.31676,2.321053 -2.03601,3.447545 -1.29341,0.847471 -1.96069,0.924121 -3.03583,0.348722 -0.96316,-0.515472 -1.76626,-0.529736 -2.66754,-0.04738 -1.5351,0.821561 -1.47454,0.81924 -2.60942,0.100028 z m 23.57395,-2.063326 c -1.89923,-3.008582 -2.10124,-4.373709 -0.72534,-4.901692 0.55937,-0.214651 1.41995,0.353281 2.09389,1.381854 l 1.14421,1.746281 1.63157,-3.210381 c 1.87429,-3.688004 7.58777,-9.695976 9.2207,-9.695976 0.73882,0 -0.11338,1.314442 -2.57839,3.976946 -3.3271,3.593664 -4.34903,5.476523 -6.79699,12.523054 -0.56044,1.613243 -2.33266,0.804751 -3.98965,-1.820086 z M 11.333334,28.666667 C 11.333334,28.3 11.933334,28 12.666667,28 13.901235,28 14,27.555555 14,22 c 0,-5.555555 -0.09877,-6 -1.333333,-6 -2.045421,0 -1.585639,-0.974247 0.880665,-1.866075 1.2177,-0.440325 2.4177,-0.800592 2.666667,-0.800592 0.248967,0 0.452668,3.3 0.452668,7.333334 C 16.666667,27.555555 16.747475,28 18,28 c 0.733334,0 1.333334,0.3 1.333334,0.666667 0,0.37037 -1.777778,0.666666 -4,0.666666 -2.222222,0 -4,-0.296296 -4,-0.666666 z m 12,-0.666667 c 0,-0.888889 0.444444,-1.333333 1.333333,-1.333333 C 25.555556,26.666667 26,27.111111 26,28 c 0,0.888889 -0.444444,1.333333 -1.333333,1.333333 -0.888889,0 -1.333333,-0.444444 -1.333333,-1.333333 z M 184.66667,28.666667 C 184.66667,28.3 185.22984,28 185.91814,28 c 1.01887,0 1.51978,-1.08425 2.69494,-5.833333 0.79389,-3.208334 1.60094,-6.358334 1.79344,-7 C 190.63565,14.402915 190.39565,14 189.7116,14 c -0.57472,0 -1.04493,-0.3 -1.04493,-0.666667 0,-0.4 2.66667,-0.666666 6.66667,-0.666666 H 202 v 1.945475 c 0,1.070011 -0.18209,2.420011 -0.40466,3 -0.57716,1.50406 -1.76656,1.310911 -1.2843,-0.208561 C 200.90372,15.53622 198.97214,14 196.03153,14 c -2.44906,0 -2.56658,0.10594 -3.28572,2.96188 -0.95827,3.805675 -0.97412,3.704787 0.58188,3.704787 0.73023,0 1.70239,-0.6 2.16036,-1.333334 1.74079,-2.787448 2.31171,-1.372934 1.14357,2.833334 -0.68726,2.474684 -2.20509,3.582081 -1.82751,1.333333 0.13894,-0.827484 -0.31344,-1.225711 -1.55603,-1.369759 -1.44192,-0.167155 -1.8309,0.127758 -2.19832,1.666667 -0.24552,1.028367 -0.60238,2.394759 -0.79301,3.036425 C 190.00522,27.679999 190.28822,28 191.28841,28 c 0.75805,0 1.37826,0.3 1.37826,0.666667 0,0.37037 -1.77778,0.666666 -4,0.666666 -2.22222,0 -4,-0.296296 -4,-0.666666 z m -2.66667,-4 V 22 h -6 c -3.55555,0 -6,-0.271605 -6,-0.666667 0,-0.4 2.66667,-0.666666 6.66667,-0.666666 h 6.66667 V 24 c 0,1.833333 -0.3,3.333333 -0.66667,3.333333 -0.36667,0 -0.66667,-1.2 -0.66667,-2.666666 z"
         id="path1600" />
      <path
         style="fill:#606060;stroke-width:0.666667"
         d="m 114.68787,203.63333 c -0.0117,-0.385 0.33767,-1.05887 0.7763,-1.4975 0.61889,-0.61889 0.52162,-0.99923 -0.43433,-1.69824 -0.85318,-0.62386 -0.99586,-1.04657 -0.46416,-1.37517 1.05208,-0.65023 2.10099,0.10672 2.10099,1.51617 0,1.24157 -1.94287,4.24086 -1.9788,3.05474 z m -9.99697,-3.93746 c -0.44312,-0.53394 -0.61215,-1.28394 -0.37561,-1.66667 0.7123,-1.15253 1.68471,-0.78459 1.68471,0.63747 0,0.96918 0.44445,1.33333 1.62732,1.33333 2.00086,0 2.62435,-0.90652 2.08941,-3.03789 -0.27879,-1.11078 -0.87597,-1.62878 -1.87777,-1.62878 H 106.37 l 1.48166,-1.0378 c 1.49986,-1.05054 1.9875,-3.23756 0.87517,-3.92502 -1.01844,-0.62942 -2.66556,0.34677 -2.28007,1.35133 0.22018,0.57377 -0.0582,0.94483 -0.70876,0.94483 -1.67238,0 -1.2573,-1.94386 0.59534,-2.78797 3.23725,-1.47499 6.54566,1.6423 4.21575,3.97221 -0.60122,0.60122 -0.52343,1.07246 0.33333,2.01916 1.39167,1.53778 1.40796,2.41098 0.07,3.74898 -1.31684,1.31685 -5.19288,1.3644 -6.26148,0.0768 z M 125.5,199.9466 c 1.89726,-1.10505 1.34643,-1.85623 -1.52153,-2.07493 l -2.6882,-0.205 2.85487,-4.14666 c 1.57018,-2.28066 3.07986,-4.15566 3.35486,-4.16666 0.275,-0.011 0.5,1.75798 0.5,3.9311 0,3.20238 0.22109,4.00889 1.16667,4.256 1.11111,0.29036 1.11111,0.30856 0,0.38222 C 128.525,197.9652 128,198.428 128,198.95112 c 0,0.52311 0.525,1.08831 1.16667,1.25599 0.64167,0.16769 -0.18333,0.33056 -1.83333,0.36195 -2.33956,0.0445 -2.74316,-0.0925 -1.83334,-0.62246 z m 1.15184,-5.4466 -0.0148,-2.83333 -1.33748,1.66666 c -2.78936,3.47591 -2.87536,4 -0.65632,4 1.93841,0 2.02283,-0.11907 2.00862,-2.83333 z m -15.98517,-15.63856 c 0,-0.25954 1.11089,-1.60954 2.46863,-3 l 2.46864,-2.52811 -2.59199,-2.65442 c -1.42559,-1.45994 -2.38097,-2.86545 -2.12306,-3.12336 0.25791,-0.2579 1.66341,0.69748 3.12335,2.12306 l 2.65443,2.59199 2.66667,-2.60393 c 3.16234,-3.08794 3.65189,-1.74664 0.53588,1.46826 l -2.13077,2.1984 2.13077,2.19841 c 3.0993,3.19767 2.63757,4.56705 -0.50518,1.49824 l -2.63596,-2.57395 -2.69929,2.43866 c -2.71933,2.45674 -3.36212,2.83276 -3.36212,1.96675 z m 4.238,-27.52249 c -3.70377,-1.49466 -4.76423,-7.37163 -2.05547,-11.39116 2.94126,-4.36454 8.66962,-6.61914 11.79511,-4.64238 0.62212,0.39346 1.29468,0.3552 1.84945,-0.10521 1.39043,-1.15396 1.62322,-0.25516 0.79045,3.05204 -0.86555,3.43743 -1.95087,4.09635 -1.95087,1.18442 0,-1.92574 -1.74336,-4.10333 -3.28508,-4.10333 -0.46571,0 -1.88206,0.49128 -3.14742,1.09174 -4.3249,2.0523 -6.69099,9.82518 -3.92216,12.8847 1.90093,2.1005 5.63867,1.64804 7.00038,-0.84741 0.94713,-1.7357 0.92738,-1.94055 -0.27314,-2.83333 -1.18172,-0.8788 -0.9791,-0.9606 2.33333,-0.94209 2.74943,0.0154 3.34982,0.18207 2.48051,0.68874 -0.63081,0.36765 -1.47764,1.89669 -1.88187,3.39786 -0.4995,1.855 -0.95276,2.51159 -1.41484,2.04951 -0.46208,-0.46208 -1.24745,-0.38378 -2.45147,0.24442 -1.99148,1.03905 -3.76186,1.12097 -5.86691,0.27148 z m 59.53177,-7.35317 c -3.19464,-8.31287 -3.4735,-9.31911 -2.58255,-9.31911 0.28631,0 0.96131,1.275 1.5,2.83333 0.96589,2.79413 1.02695,2.83609 4.4119,3.0325 l 3.43245,0.19916 1.15812,-3.03249 c 1.16102,-3.04011 2.8122,-4.3504 1.93119,-1.5325 -1.06582,3.409 -5.66784,14.81362 -6.18721,15.333 -0.30844,0.30843 -1.95718,-3.07282 -3.6639,-7.51389 z m 4.92059,1.62561 c 0.7203,-1.68039 1.30964,-3.33039 1.30964,-3.66666 0,-0.33627 -1.2,-0.6114 -2.66667,-0.6114 -1.46666,0 -2.66666,0.24656 -2.66666,0.54791 0,0.89593 2.1002,6.78543 2.41969,6.78543 0.16189,0 0.88369,-1.37488 1.604,-3.05528 z m 150.35994,5.70975 c 5.37504,-0.56728 7.25145,-1.49734 8.34442,-4.13599 0.59268,-1.43085 0.571,-2.32511 -0.0953,-3.93382 -1.08671,-2.62356 -4.05486,-3.918 -8.98397,-3.918 -2.60725,0 -3.5871,-0.22703 -3.26052,-0.75546 0.66188,-1.07095 9.11164,-0.26965 11.13472,1.05592 3.7195,2.43711 4.10464,6.87198 0.87707,10.09954 -2.21444,2.21444 -2.38725,2.26458 -7.5,2.17615 l -5.23333,-0.0905 z M 14,150.66667 C 14,150.3 14.45,150 15,150 c 0.555556,0 1,-0.59259 1,-1.33333 0,-1.14039 -0.444444,-1.33334 -3.071326,-1.33334 -2.64867,0 -3.0106225,-0.16054 -2.630214,-1.16666 0.711547,-1.88192 6.654806,-10.81531 7.20154,-10.82472 0.275,-0.005 0.5,2.40105 0.5,5.3462 0,4.93005 0.118986,5.40264 1.5,5.95774 l 1.5,0.60293 -1.5,0.0423 c -1.04147,0.0293 -1.5,0.44982 -1.5,1.37558 0,0.7333 0.432295,1.3333 0.960656,1.3333 0.52836,0 1.146065,0.3 1.372678,0.66667 0.253942,0.41088 -0.881966,0.66666 -2.960656,0.66666 -1.854972,0 -3.372678,-0.3 -3.372678,-0.66666 z M 16,143 c 0,-2.01667 -0.124268,-3.66667 -0.27615,-3.66667 -0.312486,0 -4.390516,6.5111 -4.390516,7.01002 0,0.17782 1.05,0.32332 2.333333,0.32332 H 16 Z m 7.791667,7.90278 c -0.915895,-0.9159 -0.440825,-2.33051 0.708333,-2.1092 0.641667,0.12357 1.166667,0.64557 1.166667,1.15999 0,1.05258 -1.176195,1.64801 -1.875,0.94921 z M 130.16418,149.5 c -0.46057,-1.3341 -0.27382,-3.36875 0.68582,-7.47187 0.92934,-3.97355 1.09697,-5.71248 0.56771,-5.8889 -1.53926,-0.51308 -0.679,-1.47256 1.32029,-1.47256 1.52153,0 1.97429,0.25286 1.70575,0.95266 -0.20106,0.52396 -0.56273,2.0036 -0.8037,3.2881 -0.40235,2.14472 -0.32209,2.3051 0.98283,1.96386 1.8311,-0.47885 4.04379,1.49018 4.04379,3.59848 0,5.45226 -6.93944,9.55777 -8.50249,5.03023 z m 4.85444,-0.43484 c 1.28066,-1.95454 1.6406,-7.1398 0.52305,-7.53512 -2.03175,-0.71871 -5.24393,6.25497 -3.89012,8.44549 0.7293,1.18004 2.27039,0.76336 3.36707,-0.91037 z m 50.68449,1.74906 c -0.74954,-0.74954 -0.33927,-2.14755 0.63023,-2.14755 0.55,0 1,0.475 1,1.05555 0,1.79981 1.62514,0.63011 2.46237,-1.77229 0.9984,-2.86489 1.09619,-6.6166 0.17246,-6.6166 -0.38417,0 -1.43417,0.79381 -2.33333,1.76402 -0.89916,0.97021 -1.63484,1.42021 -1.63484,1 0,-2.22888 4.6245,-4.4503 5.68668,-2.73164 0.29743,0.48125 0.71365,0.46531 1.33598,-0.0512 1.42689,-1.18422 3.97734,-0.53091 3.97734,1.0188 0,0.74074 -0.44444,1.33334 -1,1.33334 -0.55464,0 -0.95634,-0.53414 -0.90196,-1.19935 0.16234,-1.98585 -1.37836,-0.86211 -2.17132,1.5837 -1.60084,4.93773 -1.68088,5.95725 -0.50316,6.40919 0.76423,0.29326 1.6203,-0.19061 2.67973,-1.51464 1.70945,-2.1364 2.16704,-1.43743 0.56053,0.8562 -0.85309,1.21795 -1.64412,1.42807 -5.2969,1.407 -2.36172,-0.0136 -4.46043,-0.19118 -4.66381,-0.39455 z M 215,150.66667 C 215.22662,150.3 215.83276,150 216.34698,150 c 0.52005,0 1.22431,-1.10945 1.58696,-2.5 1.63681,-6.2761 2.73273,-10.72609 2.73273,-11.09623 0,-0.22208 -0.46771,-0.40377 -1.03935,-0.40377 -0.57164,0 -0.85393,-0.3 -0.62732,-0.66667 0.62662,-1.01389 12.30792,-0.86017 12.66484,0.16667 0.15931,0.45833 0.0306,1.88333 -0.28602,3.16667 -0.49902,2.02264 -0.58476,2.10008 -0.64391,0.58162 -0.0954,-2.44992 -1.50388,-3.36376 -4.81229,-3.12236 -2.78614,0.20328 -2.85858,0.27031 -3.64687,3.37407 l -0.80427,3.16667 h 1.84962 c 1.14856,0 2.26548,-0.56854 2.94683,-1.5 1.08107,-1.47792 1.09096,-1.46566 0.67147,0.83333 -0.51771,2.83731 -1.5539,4.95729 -1.58579,3.24442 -0.0171,-0.91999 -1.75675,-1.86834 -3.48894,-1.90199 -0.47635,-0.009 -1.85416,4.30292 -1.86095,5.82424 -0.002,0.45833 0.42858,0.83333 0.95694,0.83333 0.52836,0 1.14606,0.3 1.37268,0.66667 0.25753,0.41669 -1.1173,0.66666 -3.66667,0.66666 -2.54937,0 -3.9242,-0.24997 -3.66667,-0.66666 z m 18.03644,0.14755 c -0.74954,-0.74954 -0.33927,-2.14755 0.63023,-2.14755 0.55,0 1,0.475 1,1.05555 0,1.79981 1.62515,0.63011 2.46237,-1.77229 0.9984,-2.86489 1.09619,-6.6166 0.17246,-6.6166 -0.38417,0 -1.43417,0.79381 -2.33333,1.76402 -0.89916,0.97021 -1.63483,1.42021 -1.63483,1 0,-2.22888 4.62449,-4.4503 5.68667,-2.73164 0.29743,0.48125 0.71365,0.46531 1.33599,-0.0512 1.42688,-1.18422 3.97734,-0.53091 3.97734,1.0188 0,0.74074 -0.44445,1.33334 -1,1.33334 -0.55465,0 -0.95634,-0.53414 -0.90196,-1.19935 0.16233,-1.98585 -1.37837,-0.86211 -2.17132,1.5837 -1.60085,4.93773 -1.68089,5.95725 -0.50316,6.40919 0.76422,0.29326 1.62029,-0.19061 2.67972,-1.51464 1.70945,-2.1364 2.16704,-1.43743 0.56053,0.8562 -0.85309,1.21795 -1.64412,1.42807 -5.29689,1.407 -2.36172,-0.0136 -4.46044,-0.19118 -4.66382,-0.39455 z m 72.2969,0.16928 c 0,-0.19241 0.75,-0.63499 1.66667,-0.9835 1.6082,-0.61144 1.66666,-0.84514 1.66666,-6.66287 v -6.0292 l -1.66666,0.41831 c -0.93868,0.23559 -1.66667,0.12949 -1.66667,-0.24291 0,-0.36368 0.675,-0.80762 1.5,-0.98655 0.825,-0.17893 2.025,-0.54599 2.66667,-0.81571 1.07052,-0.44998 1.16666,0.11984 1.16666,6.91427 0,6.96021 0.08,7.40466 1.33334,7.40466 0.73333,0 1.33333,0.3 1.33333,0.66667 0,0.37037 -1.77778,0.66666 -4,0.66666 -2.2,0 -4,-0.15742 -4,-0.34983 z M 108,146.66667 V 144 h -6 c -3.555552,0 -5.999998,-0.27161 -5.999998,-0.66667 0,-0.4 2.666666,-0.66666 6.666668,-0.66666 h 6.66667 V 146 c 0,1.83333 -0.3,3.33333 -0.66667,3.33333 -0.36667,0 -0.66667,-1.2 -0.66667,-2.66666 z m 103.33334,0 V 144 h -6 c -3.55556,0 -6,-0.27161 -6,-0.66667 0,-0.4 2.66666,-0.66666 6.66666,-0.66666 h 6.66667 V 146 c 0,1.83333 -0.3,3.33333 -0.66667,3.33333 -0.36666,0 -0.66666,-1.2 -0.66666,-2.66666 z m -94.61112,-20.92084 c 0.15278,-0.1398 10.5891,-7.48438 23.19183,-16.32129 14.40381,-10.099827 23.22911,-15.885893 23.76236,-15.579167 3.50513,2.016187 45.42927,31.866157 44.98363,32.028327 -0.3129,0.11387 -10.65615,-6.86113 -22.98501,-15.5 -12.32885,-8.63887 -22.55478,-15.707033 -22.72427,-15.707033 -0.1695,0 -10.3695,7.050003 -22.66667,15.666663 C 127.98692,118.95 117.59234,126 117.18502,126 c -0.40732,0 -0.61557,-0.11437 -0.4628,-0.25417 z M 13.543582,86.0097 c -2.676562,-1.104793 -3.6008891,-4.676367 -1.210248,-4.676367 1.319172,0 1.904734,1.243194 1.063177,2.257207 -0.945365,1.1391 -0.260676,1.742793 1.976608,1.742793 1.956173,0 2.626881,-1.00118 2.626881,-3.921193 0,-2.143253 -1.075808,-3.395933 -2.966666,-3.4544 -1.286048,-0.03973 -1.277863,-0.07794 0.13875,-0.647187 2.129081,-0.85554 3.181306,-3.40456 2.178709,-5.277933 -0.483273,-0.903 -1.17314,-1.320953 -1.789779,-1.084327 -0.551868,0.211774 -1.237259,0.38504 -1.523091,0.38504 -0.285831,0 -0.370619,0.779834 -0.188418,1.73296 0.26767,1.40022 0.100523,1.688227 -0.870537,1.5 C 11.20815,74.22304 11.065256,72.934747 12.625,71.375 c 1.492128,-1.492127 4.041114,-1.779 6.085494,-0.68488 1.576598,0.843773 1.73213,4.105353 0.265697,5.571787 -0.920635,0.920633 -0.887043,1.160573 0.333333,2.380953 3.653051,3.653047 -0.843857,9.398513 -5.765942,7.36684 z m 155.361088,-0.004 c -3.70377,-1.494653 -4.76423,-7.371627 -2.05547,-11.39116 2.94126,-4.36454 8.66962,-6.61914 11.79511,-4.64238 0.62212,0.393467 1.29468,0.355207 1.84945,-0.105207 1.39043,-1.15396 1.62322,-0.25516 0.79045,3.05204 -0.86555,3.437347 -1.95087,4.096267 -1.95087,1.184334 0,-1.92574 -1.74336,-4.103327 -3.28508,-4.103327 -0.46571,0 -1.88206,0.49128 -3.14742,1.09174 -4.3249,2.0523 -6.69099,9.825173 -3.92216,12.8847 1.90093,2.1005 5.63867,1.64804 7.00038,-0.847413 0.94713,-1.7357 0.92738,-1.940547 -0.27314,-2.833334 -1.18172,-0.878793 -0.9791,-0.9606 2.33333,-0.942086 2.74943,0.01533 3.34982,0.182066 2.48051,0.68874 -0.63081,0.367653 -1.47764,1.896693 -1.88187,3.39786 -0.4995,1.855 -0.95276,2.511586 -1.41484,2.049506 -0.46208,-0.46208 -1.24745,-0.38378 -2.45147,0.24442 -1.99148,1.039054 -3.76186,1.120974 -5.86691,0.27148 z M 23.791667,85.569447 c -0.915895,-0.9159 -0.440825,-2.330507 0.708333,-2.1092 0.641667,0.123573 1.166667,0.645573 1.166667,1.159993 0,1.052573 -1.176195,1.648007 -1.875,0.949207 z m 160.372513,-1.40278 c -0.46057,-1.3341 -0.27382,-3.368754 0.68582,-7.471874 0.92934,-3.973546 1.09697,-5.712473 0.56771,-5.888893 -1.53926,-0.513087 -0.679,-1.472567 1.32029,-1.472567 1.52153,0 1.97429,0.252867 1.70575,0.95266 -0.20106,0.52396 -0.56273,2.003607 -0.8037,3.2881 -0.40235,2.144727 -0.32209,2.3051 0.98283,1.96386 1.8311,-0.478846 4.04379,1.49018 4.04379,3.59848 0,5.452267 -6.93944,9.557774 -8.50249,5.030234 z m 4.85444,-0.43484 c 1.28066,-1.95454 1.6406,-7.1398 0.52305,-7.53512 -2.03175,-0.718707 -5.24393,6.254973 -3.89012,8.445493 0.7293,1.180033 2.27039,0.76336 3.36707,-0.910373 z M 146,81.333333 v -2.666666 h -6 c -3.55555,0 -6,-0.271607 -6,-0.666667 0,-0.4 2.66667,-0.666667 6.66667,-0.666667 h 6.66667 v 3.333334 C 147.33334,82.5 147.03334,84 146.66667,84 146.3,84 146,82.8 146,81.333333 Z m 15.33334,0 v -2.666666 h -6 c -3.55556,0 -6,-0.271607 -6,-0.666667 0,-0.4 2.66666,-0.666667 6.66666,-0.666667 h 6.66667 v 3.333334 C 162.66667,82.5 162.36667,84 162,84 c -0.36666,0 -0.66666,-1.2 -0.66666,-2.666667 z M 11.333334,56.804479 c 0,-0.290869 1.5,-2.302885 3.333333,-4.471146 C 17.098618,49.457095 18,47.833395 18,46.328854 c 0,-2.438011 -1.034242,-3.662187 -3.093988,-3.662187 -1.895463,0 -2.596738,1.099416 -1.524993,2.390791 0.95413,1.149655 -0.103855,2.731872 -1.322931,1.978443 -1.250803,-0.77304 -0.795792,-3.577205 0.756916,-4.664765 2.019566,-1.414559 4.001737,-1.302715 6.09509,0.343917 2.842474,2.23589 2.383518,4.70186 -1.673465,8.991521 l -3.430038,3.626759 h 2.661495 c 2.101277,0 2.813768,-0.315734 3.384918,-1.5 l 0.723422,-1.5 0.04512,1.445476 c 0.09721,3.114214 -0.525402,3.554524 -5.026205,3.554524 -2.344104,0 -4.262007,-0.237984 -4.262007,-0.528854 z m 12.458333,0.0983 C 22.875772,55.986883 23.350842,54.572273 24.5,54.793581 c 0.641667,0.123573 1.166667,0.64557 1.166667,1.159994 0,1.052568 -1.176195,1.648008 -1.875,0.949203 z M 134.66667,56.666667 c 0,-0.380953 2,-0.666667 4.66667,-0.666667 H 144 v -3.304127 -3.304127 l -4.83333,-0.230075 -4.83333,-0.230075 4.83333,-0.132465 L 144,48.666667 V 45.333333 42 h -4.66666 c -2.66667,0 -4.66667,-0.285714 -4.66667,-0.666667 0,-0.388888 2.22222,-0.666666 5.33333,-0.666666 h 5.33334 V 49 57.333333 H 140 c -3.11111,0 -5.33333,-0.277778 -5.33333,-0.666666 z m 13.03644,0.147553 c -0.74954,-0.749539 -0.33927,-2.147553 0.63023,-2.147553 0.55,0 1,0.475 1,1.055555 0,1.799809 1.62514,0.630109 2.46237,-1.772295 0.9984,-2.864888 1.09619,-6.616594 0.17246,-6.616594 -0.38417,0 -1.43417,0.793807 -2.33333,1.764016 -0.89916,0.970208 -1.63484,1.420208 -1.63484,1 0,-2.228879 4.6245,-4.450293 5.68668,-2.731644 0.29743,0.481256 0.71365,0.465312 1.33598,-0.05117 C 156.44955,46.130314 159,46.783617 159,48.333333 c 0,0.740741 -0.44444,1.333334 -1,1.333334 -0.55464,0 -0.95634,-0.534132 -0.90196,-1.199347 0.16234,-1.985855 -1.37836,-0.862115 -2.17132,1.583697 -1.60084,4.937728 -1.68088,5.957252 -0.50316,6.409188 0.76423,0.293261 1.6203,-0.190608 2.67973,-1.51464 1.70945,-2.136394 2.16704,-1.437422 0.56053,0.856201 -0.85309,1.217953 -1.64412,1.428075 -5.2969,1.407001 -2.36172,-0.01363 -4.46043,-0.191171 -4.66381,-0.394547 z M 161,56.666667 C 161.22662,56.3 161.83276,56 162.34698,56 c 0.52005,0 1.22431,-1.109453 1.58696,-2.5 1.63681,-6.276102 2.73273,-10.726094 2.73273,-11.09623 0,-0.222073 -0.46771,-0.40377 -1.03935,-0.40377 -0.57164,0 -0.85393,-0.3 -0.62732,-0.666667 0.62662,-1.013894 12.30792,-0.86017 12.66484,0.166667 0.15931,0.458333 0.0306,1.883333 -0.28602,3.166667 -0.49902,2.022642 -0.58476,2.100088 -0.64391,0.58163 -0.0954,-2.449926 -1.50388,-3.363764 -4.81229,-3.12237 -2.78614,0.203286 -2.85858,0.270312 -3.64687,3.374073 l -0.80427,3.166667 h 1.84962 c 1.14856,0 2.26548,-0.568533 2.94683,-1.5 1.08107,-1.477923 1.09096,-1.465658 0.67147,0.833333 -0.51771,2.837313 -1.5539,4.957287 -1.58579,3.244421 -0.0171,-0.919987 -1.75675,-1.86834 -3.48894,-1.901984 -0.47635,-0.0093 -1.85416,4.302907 -1.86095,5.82423 C 166.00172,55.625 166.4323,56 166.96066,56 c 0.52836,0 1.14606,0.3 1.37268,0.666667 0.25753,0.416696 -1.1173,0.666666 -3.66667,0.666666 -2.54937,0 -3.9242,-0.24997 -3.66667,-0.666666 z m 18.70311,0.147553 c -0.74954,-0.749539 -0.33927,-2.147553 0.63023,-2.147553 0.55,0 1,0.475 1,1.055555 0,1.799809 1.62514,0.630109 2.46237,-1.772295 0.9984,-2.864888 1.09619,-6.616594 0.17246,-6.616594 -0.38417,0 -1.43417,0.793807 -2.33333,1.764016 -0.89916,0.970208 -1.63484,1.420208 -1.63484,1 0,-2.228879 4.6245,-4.450293 5.68668,-2.731644 0.29743,0.481256 0.71365,0.465312 1.33598,-0.05117 C 188.44955,46.130314 191,46.783617 191,48.333333 c 0,0.740741 -0.44444,1.333334 -1,1.333334 -0.55464,0 -0.95634,-0.534132 -0.90196,-1.199347 0.16234,-1.985855 -1.37836,-0.862115 -2.17132,1.583697 -1.60084,4.937728 -1.68088,5.957252 -0.50316,6.409188 0.76423,0.293261 1.6203,-0.190608 2.67973,-1.51464 1.70945,-2.136394 2.16704,-1.437422 0.56053,0.856201 -0.85309,1.217953 -1.64412,1.428075 -5.2969,1.407001 -2.36172,-0.01363 -4.46043,-0.191171 -4.66381,-0.394547 z M 86.238002,29.338946 c -3.703767,-1.494655 -4.764234,-7.371625 -2.055467,-11.391159 2.94126,-4.36454 8.66962,-6.619138 11.795107,-4.64238 0.62212,0.393466 1.29468,0.355206 1.849446,-0.105209 1.390434,-1.153959 1.623221,-0.255157 0.790454,3.052043 -0.865554,3.437431 -1.950874,4.096352 -1.950874,1.184418 0,-1.925736 -1.743353,-4.103326 -3.285073,-4.103326 -0.465713,0 -1.88206,0.491284 -3.147427,1.091741 -4.324893,2.052297 -6.690986,9.825172 -3.922153,12.884699 1.900927,2.100501 5.638667,1.64804 7.000373,-0.84741 0.947134,-1.735702 0.927387,-1.940547 -0.27314,-2.833333 -1.181713,-0.878795 -0.979093,-0.960603 2.333334,-0.942091 2.749433,0.01537 3.34982,0.18207 2.480506,0.68874 -0.630806,0.367656 -1.47764,1.896695 -1.881866,3.397863 -0.4995,1.854996 -0.95276,2.511583 -1.41484,2.049503 -0.46208,-0.46208 -1.247447,-0.383776 -2.451474,0.244424 -1.991473,1.039049 -3.76186,1.12097 -5.866906,0.271477 z m 36.812298,-0.01781 c 5.37504,-0.567274 7.25145,-1.497336 8.34442,-4.13599 0.59268,-1.430846 0.571,-2.325108 -0.0953,-3.933817 -1.08671,-2.62356 -4.05486,-3.917999 -8.98397,-3.917999 -2.60725,0 -3.5871,-0.227031 -3.26052,-0.755458 0.66188,-1.070953 9.11164,-0.269654 11.13472,1.055916 3.7195,2.437112 4.10464,6.871974 0.87707,10.099542 -2.21444,2.214441 -2.38725,2.264582 -7.5,2.176147 l -5.23333,-0.09052 4.71696,-0.497822 z m 22.05281,-7.33536 c -3.19465,-8.312875 -3.4735,-9.319112 -2.58255,-9.319112 0.2863,0 0.9613,1.275 1.5,2.833333 0.96589,2.794125 1.02694,2.836089 4.4119,3.032497 l 3.43244,0.199164 1.15812,-3.032497 c 1.16103,-3.040103 2.8122,-4.350391 1.9312,-1.532497 -1.06582,3.409004 -5.66784,14.813628 -6.18722,15.333001 -0.30843,0.308431 -1.95718,-3.072819 -3.66389,-7.513889 z m 4.92059,1.625618 c 0.7203,-1.680399 1.30964,-3.330399 1.30964,-3.666667 0,-0.336268 -1.2,-0.611397 -2.66667,-0.611397 -1.46667,0 -2.66667,0.246559 -2.66667,0.547908 0,0.895931 2.1002,6.785426 2.4197,6.785426 0.16189,0 0.88369,-1.374872 1.604,-3.05527 z m 77.61941,3.408538 c -0.96054,-1.639036 -1.55548,-3.289036 -1.32209,-3.666666 0.76656,-1.240336 2.11668,-0.71924 2.97109,1.146731 L 230.13158,26.33333 231.80006,23 c 1.87599,-3.74789 7.94769,-10.33857 9.5105,-10.323415 0.6368,0.0062 0.1088,0.823828 -1.39914,2.166666 -3.42238,3.047669 -5.75598,6.45129 -7.01515,10.231804 -1.94991,5.854389 -2.78159,6.1623 -5.25316,1.94488 z M 11.333334,28.983499 c 0,-0.192408 0.75,-0.634983 1.666666,-0.983499 1.608208,-0.611439 1.666667,-0.845141 1.666667,-6.662867 V 15.307931 L 13,15.726237 c -0.938683,0.235595 -1.666666,0.129492 -1.666666,-0.242914 0,-0.363671 0.675,-0.807614 1.5,-0.986541 0.825,-0.178926 2.025,-0.545996 2.666666,-0.815711 1.07052,-0.449976 1.166667,0.119842 1.166667,6.91427 C 16.666667,27.555555 16.746697,28 18,28 c 0.733334,0 1.333334,0.3 1.333334,0.666667 0,0.37037 -1.777778,0.666666 -4,0.666666 -2.2,0 -4,-0.157425 -4,-0.349834 z m 12.458333,-0.08072 C 22.875772,27.986883 23.350842,26.572273 24.5,26.793581 c 0.641667,0.123573 1.166667,0.64557 1.166667,1.159994 0,1.052568 -1.176195,1.648008 -1.875,0.949204 z M 101.49752,27.5 c -0.46058,-1.334103 -0.27382,-3.368751 0.68582,-7.471876 0.92933,-3.973545 1.09696,-5.712467 0.5677,-5.888889 -1.53926,-0.513086 -0.679,-1.472568 1.32029,-1.472568 1.52153,0 1.97429,0.252863 1.70575,0.952657 -0.20106,0.523962 -0.56272,2.003609 -0.8037,3.288104 -0.40235,2.144724 -0.32208,2.3051 0.98284,1.963855 1.83109,-0.478842 4.04378,1.490185 4.04378,3.598482 0,5.45227 -6.93944,9.557778 -8.50248,5.030235 z m 4.85443,-0.434843 c 1.28066,-1.954535 1.6406,-7.139799 0.52305,-7.535116 -2.03175,-0.718706 -5.24393,6.254974 -3.89012,8.445494 0.7293,1.180033 2.2704,0.763357 3.36707,-0.910378 z m 49.35116,1.749063 c -0.74954,-0.749539 -0.33927,-2.147553 0.63023,-2.147553 0.55,0 1,0.475 1,1.055555 0,1.799809 1.62514,0.630109 2.46237,-1.772295 0.9984,-2.864888 1.09619,-6.616594 0.17246,-6.616594 -0.38417,0 -1.43417,0.793807 -2.33333,1.764016 -0.89916,0.970208 -1.63484,1.420208 -1.63484,1 0,-2.228879 4.6245,-4.450293 5.68668,-2.731644 0.29743,0.481256 0.71365,0.465312 1.33598,-0.05117 C 164.44955,18.130314 167,18.783617 167,20.333333 c 0,0.740741 -0.44444,1.333334 -1,1.333334 -0.55464,0 -0.95634,-0.534132 -0.90196,-1.199347 0.16234,-1.985855 -1.37836,-0.862115 -2.17132,1.583697 -1.60084,4.937728 -1.68088,5.957252 -0.50316,6.409188 0.76423,0.293261 1.6203,-0.190608 2.67973,-1.51464 1.70945,-2.136394 2.16704,-1.437422 0.56053,0.856201 -0.85309,1.217953 -1.64412,1.428075 -5.2969,1.407001 -2.36172,-0.01363 -4.46043,-0.191171 -4.66381,-0.394547 z M 185,28.666667 C 185.22662,28.3 185.83276,28 186.34698,28 c 0.52005,0 1.22431,-1.109453 1.58696,-2.5 1.63681,-6.276102 2.73273,-10.726094 2.73273,-11.09623 0,-0.222073 -0.46771,-0.40377 -1.03935,-0.40377 -0.57164,0 -0.85393,-0.3 -0.62732,-0.666667 0.62662,-1.013894 12.30792,-0.86017 12.66484,0.166667 0.15931,0.458333 0.0306,1.883333 -0.28602,3.166667 -0.49902,2.022642 -0.58476,2.100088 -0.64391,0.58163 -0.0954,-2.449926 -1.50388,-3.363764 -4.81229,-3.12237 -2.78614,0.203286 -2.85858,0.270312 -3.64687,3.374073 l -0.80427,3.166667 h 1.84962 c 1.14856,0 2.26548,-0.568533 2.94683,-1.5 1.08107,-1.477923 1.09096,-1.465658 0.67147,0.833333 -0.51771,2.837313 -1.5539,4.957287 -1.58579,3.244421 -0.0171,-0.919987 -1.75675,-1.86834 -3.48894,-1.901984 -0.47635,-0.0093 -1.85416,4.302907 -1.86095,5.82423 C 190.00172,27.625 190.4323,28 190.96066,28 c 0.52836,0 1.14606,0.3 1.37268,0.666667 0.25753,0.416696 -1.1173,0.666666 -3.66667,0.666666 -2.54937,0 -3.9242,-0.24997 -3.66667,-0.666666 z m 18.70311,0.147553 c -0.74954,-0.749539 -0.33927,-2.147553 0.63023,-2.147553 0.55,0 1,0.475 1,1.055555 0,1.799809 1.62514,0.630109 2.46237,-1.772295 0.9984,-2.864888 1.09619,-6.616594 0.17246,-6.616594 -0.38417,0 -1.43417,0.793807 -2.33333,1.764016 -0.89916,0.970208 -1.63484,1.420208 -1.63484,1 0,-2.228879 4.6245,-4.450293 5.68668,-2.731644 0.29743,0.481256 0.71365,0.465312 1.33598,-0.05117 C 212.44955,18.130314 215,18.783617 215,20.333333 c 0,0.740741 -0.44444,1.333334 -1,1.333334 -0.55464,0 -0.95634,-0.534132 -0.90196,-1.199347 0.16234,-1.985855 -1.37836,-0.862115 -2.17132,1.583697 -1.60084,4.937728 -1.68088,5.957252 -0.50316,6.409188 0.76423,0.293261 1.6203,-0.190608 2.67973,-1.51464 1.70945,-2.136394 2.16704,-1.437422 0.56053,0.856201 -0.85309,1.217953 -1.64412,1.428075 -5.2969,1.407001 -2.36172,-0.01363 -4.46043,-0.191171 -4.66381,-0.394547 z M 182,24.666667 V 22 h -6 c -3.55555,0 -6,-0.271605 -6,-0.666667 0,-0.4 2.66667,-0.666666 6.66667,-0.666666 h 6.66667 V 24 c 0,1.833333 -0.3,3.333333 -0.66667,3.333333 -0.36667,0 -0.66667,-1.2 -0.66667,-2.666666 z"
         id="path1598" />
      <path
         style="fill:#0a0a0a;stroke-width:0.666667"
         d="m 109.16667,199.95 c 1.13885,-1.20718 1.05125,-3.90823 -0.1416,-4.36597 -0.84474,-0.32415 -0.83421,-0.58889 0.0789,-1.98241 0.84797,-1.29417 0.89224,-1.80295 0.22664,-2.60496 C 108.65844,190.18679 108.69276,190 109.51372,190 c 0.55566,0 1.1924,0.47453 1.41496,1.05453 0.5409,1.40956 0.55021,1.37134 -0.61915,2.54071 -0.92064,0.92063 -0.88212,1.1655 0.3822,2.42982 1.25397,1.25397 1.30445,1.55897 0.46675,2.82061 -0.51659,0.77802 -1.36358,1.54353 -1.8822,1.70112 -0.75899,0.23064 -0.78038,0.11422 -0.10961,-0.59679 z m 5.5,-0.28333 c 0,-0.55 0.26791,-1 0.59534,-1 0.32744,0 0.76802,0.45 0.97908,1 0.23375,0.60914 0.001,1 -0.59534,1 -0.53849,0 -0.97908,-0.45 -0.97908,-1 z M 125.5,200.20711 C 127.68758,199.63544 126.8231,198 124.33334,198 123.05,198 122,197.76024 122,197.4672 c 0,-0.29304 1.05,-0.41022 2.33334,-0.26039 l 2.33333,0.2724 v -2.84293 -2.84293 l -1.45651,1.26999 c -1.04336,0.90975 -0.90152,0.52629 0.5,-1.35182 l 1.95651,-2.62182 0.20443,3.93915 c 0.11244,2.16652 0.56244,4.16675 1,4.44494 0.605,0.38463 0.59595,0.50824 -0.0377,0.516 -0.45833,0.005 -0.83333,0.43521 -0.83333,0.95466 0,0.51944 0.375,1.09576 0.83333,1.2807 0.45833,0.18494 -0.36667,0.32514 -1.83333,0.31155 -1.46667,-0.0136 -2.14167,-0.1619 -1.5,-0.32959 z m -20.83333,-1.57979 c 0,-0.75497 0.2869,-1.19537 0.63755,-0.97865 0.35066,0.21672 0.46856,0.83442 0.26201,1.37268 -0.52882,1.37808 -0.89956,1.21568 -0.89956,-0.39403 z m 0.26201,-7.01518 c 0.22256,-0.57999 0.40466,-1.17999 0.40466,-1.33333 0,-0.15334 0.27191,-0.27881 0.60425,-0.27881 0.33234,0 0.44735,0.6 0.25558,1.33333 -0.19177,0.73334 -0.64578,1.33334 -1.00891,1.33334 -0.36314,0 -0.47814,-0.47454 -0.25558,-1.05453 z M 113,176 115.60394,173.33333 113,170.66667 C 111.56784,169.2 110.70083,168 111.07331,168 c 0.37248,0 1.53949,0.9 2.59336,2 1.05387,1.1 2.25387,2 2.66667,2 0.4128,0 1.6128,-0.9 2.66666,-2 1.05387,-1.1 2.22088,-2 2.59336,-2 0.37248,0 -0.49453,1.2 -1.92669,2.66667 l -2.60393,2.66666 2.60393,2.66667 c 1.43216,1.46667 2.30189,2.66667 1.93274,2.66667 -0.36915,0 -1.69059,-1.05176 -2.93652,-2.33724 l -2.26534,-2.33724 -2.39355,2.33724 C 110.68514,179.57021 109.79801,179.27913 113,176 Z m 216.66667,-24.61669 c 2.56667,-0.2206 5.3348,-0.77897 6.15139,-1.24082 3.17371,-1.79496 3.75185,-5.68472 1.27323,-8.5663 -1.38749,-1.61305 -2.20247,-1.88377 -6.83333,-2.26989 l -5.25795,-0.43841 5.11551,-0.10061 c 4.60837,-0.0906 5.31887,0.0705 7.16667,1.62531 1.73208,1.45746 2.05115,2.19363 2.05115,4.73253 0,2.5038 -0.34625,3.33005 -2.07051,4.94074 -1.93966,1.81193 -2.39252,1.92733 -7.16666,1.82635 l -5.09616,-0.1078 z m -314.890099,-0.4986 c 1.232875,-0.32652 2.099655,-2.00629 1.519581,-2.94487 -0.206162,-0.33358 -1.739232,-0.60651 -3.406822,-0.60651 -3.6362145,0 -3.6397632,0.0203 1.255613,-7.16458 L 17.666667,135 l 0.191994,5.79029 c 0.178119,5.3718 0.298571,5.81092 1.666667,6.07588 L 21,147.15176 l -1.5,0.0908 c -1.835268,0.11108 -2.058263,2.36604 -0.333333,3.37072 0.897737,0.52288 0.398295,0.66636 -2.166667,0.62246 -1.833333,-0.0314 -2.833876,-0.18934 -2.223429,-0.35102 z m 1.890096,-8.21804 c 0,-2.2 -0.229911,-4 -0.510913,-4 -0.498458,0 -4.82242,6.81819 -4.82242,7.60418 0,0.2177 1.2,0.39582 2.666666,0.39582 h 2.666667 z m 6.964099,7.94191 c -0.687014,-1.11161 0.85814,-2.38634 1.777813,-1.46667 0.769283,0.76928 0.287814,2.19142 -0.741912,2.19142 -0.323387,0 -0.789543,-0.32614 -1.035901,-0.72475 z m 89.258894,-0.99165 c -1.50442,-1.50442 -1.67685,-2.12807 -1.39612,-5.04966 0.48898,-5.0889 3.92372,-8.89864 8.72522,-9.67782 1.5457,-0.25083 3.14264,-0.0763 4.1283,0.45123 1.3312,0.71243 1.80473,0.6998 2.75504,-0.0735 1.00814,-0.82039 1.09664,-0.79785 0.72848,0.1855 -0.23048,0.61563 -0.6272,2.22881 -0.8816,3.58484 l -0.46253,2.46553 -0.86572,-2.5182 c -0.47614,-1.38502 -1.26059,-2.7686 -1.74322,-3.07464 -2.66857,-1.69217 -7.36555,0.81879 -9.23496,4.93692 -2.53436,5.58294 -1.00831,9.8307 3.52412,9.80935 2.73234,-0.0129 3.57381,-0.55373 4.45099,-2.86088 0.61703,-1.62291 0.52214,-1.9159 -0.79163,-2.44417 -1.20307,-0.48377 -0.86903,-0.60843 1.72159,-0.64248 2.80884,-0.0369 3.09227,0.0797 2.247,0.92502 -0.53201,0.53202 -1.17116,2.05404 -1.42034,3.38228 -0.33832,1.80341 -0.65978,2.24342 -1.26936,1.73751 -0.51234,-0.4252 -1.18034,-0.44723 -1.79394,-0.0591 -0.5377,0.34008 -2.26628,0.62292 -3.84128,0.62853 -2.19621,0.008 -3.26368,-0.38983 -4.58004,-1.7062 z m 17.91034,0.9164 c -1.12518,-1.12518 -0.97903,-4.08944 0.47828,-9.7 1.1513,-4.43241 1.16418,-4.83707 0.15524,-4.87845 -0.80278,-0.0329 -0.69298,-0.24145 0.4062,-0.77139 2.09362,-1.0094 2.45036,-0.3523 1.60662,2.95924 -0.49133,1.92836 -0.50642,2.93393 -0.0464,3.09308 0.38872,0.13448 0.21116,0.75561 -0.41324,1.44556 -0.65053,0.71884 -1.14051,2.51691 -1.20742,4.43086 -0.0984,2.81419 0.0558,3.2211 1.22074,3.2211 2.78407,0 4.87421,-7.51735 2.5,-8.99142 -1.06757,-0.66282 -1.05384,-0.70742 0.16159,-0.52498 0.73054,0.10966 1.70864,0.99302 2.17355,1.96303 2.03691,4.24989 -3.94549,10.84304 -7.03516,7.75337 z M 174.82891,144.5 c -3.33711,-8.62757 -3.79908,-10.0996 -3.01807,-9.61691 0.3412,0.21087 1.02578,1.61185 1.5213,3.11328 l 0.90094,2.72988 3.70073,-0.19646 c 3.69494,-0.19615 3.70237,-0.20092 4.75197,-3.05018 0.57818,-1.56954 1.21584,-2.68911 1.41701,-2.48793 0.46469,0.46469 -5.51547,16.34165 -6.15518,16.34165 -0.26157,0 -1.66499,-3.075 -3.1187,-6.83333 z m 4.77536,1.04713 c 1.43424,-4.20928 1.43252,-4.2138 -1.60427,-4.2138 -1.68713,0 -2.66788,0.30611 -2.66996,0.83334 -0.006,1.52018 2.23342,7.10312 2.72688,6.79815 0.26672,-0.16484 0.96302,-1.7028 1.54735,-3.41769 z m 6.0624,5.11954 c -0.48613,-0.78658 0.14445,-2 1.03935,-2 0.34502,0 0.62732,0.45 0.62732,1 0,1.7669 1.37363,1.06751 2.29139,-1.16667 1.71303,-4.17015 1.92873,-6.45737 0.6551,-6.94611 -0.80923,-0.31054 -1.63015,0.14294 -2.71645,1.50054 -0.85622,1.07006 -1.55824,1.62286 -1.56006,1.22844 -0.002,-0.39441 0.74372,-1.41892 1.65676,-2.27668 1.43369,-1.34688 1.89076,-1.45444 3.35179,-0.78875 1.28663,0.58623 1.99361,0.58227 2.95246,-0.0165 0.98361,-0.61427 1.49084,-0.59638 2.30753,0.0814 0.57574,0.47782 0.8824,1.13477 0.68146,1.45989 -0.59694,0.96585 -1.61998,0.67256 -1.61998,-0.46443 0,-0.58056 -0.375,-0.9334 -0.83334,-0.7841 -1.15123,0.375 -2.35433,3.02726 -2.8885,6.36776 -0.40573,2.53728 -0.31669,2.80523 0.93216,2.80523 0.75941,0 1.84775,-0.66675 2.41854,-1.48167 0.57079,-0.81492 1.0378,-1.16142 1.0378,-0.76999 0,1.00185 -2.24536,2.91833 -3.41916,2.91833 -0.53946,0 -1.34084,-0.36 -1.78084,-0.8 -0.62222,-0.62222 -0.97778,-0.62222 -1.6,0 -0.97192,0.97192 -2.96849,1.04726 -3.53333,0.13333 z m 30.29172,-0.1765 c 1.3187,-0.66826 1.91257,-1.95461 3.15022,-6.8235 1.84766,-7.26865 1.85868,-7.49034 0.39139,-7.87378 -0.64166,-0.16769 1.75834,-0.33969 5.33334,-0.38222 l 6.5,-0.0773 -0.0789,2.5 c -0.0763,2.41906 -0.0926,2.43525 -0.50368,0.5 -0.39912,-1.87902 -0.63649,-2.01219 -3.92434,-2.20162 -3.77585,-0.21753 -3.91584,-0.0878 -5.07486,4.70162 -0.4083,1.68726 -0.28629,1.83334 1.53125,1.83334 1.27781,0 2.36301,-0.52946 3.07443,-1.5 0.98698,-1.34647 1.06233,-1.36353 0.73612,-0.16667 -0.19986,0.73333 -0.57466,2.21608 -0.83286,3.29499 -0.45422,1.89789 -0.4876,1.91269 -1.02674,0.45525 -0.42319,-1.14399 -0.98996,-1.45555 -2.35581,-1.295 -1.53675,0.18065 -1.91717,0.67863 -2.61348,3.42107 -0.77293,3.0442 -0.74061,3.23962 0.62695,3.79108 1.06574,0.42974 0.39837,0.58989 -2.5581,0.61386 -3.59686,0.0291 -3.83622,-0.0506 -2.37495,-0.79108 z M 233,150.66667 c -0.48613,-0.78658 0.14445,-2 1.03935,-2 0.34503,0 0.62732,0.45 0.62732,1 0,1.7669 1.37363,1.06751 2.29139,-1.16667 1.71303,-4.17015 1.92874,-6.45737 0.6551,-6.94611 -0.80922,-0.31054 -1.63014,0.14294 -2.71644,1.50054 -0.85622,1.07006 -1.55825,1.62286 -1.56007,1.22844 -0.002,-0.39441 0.74372,-1.41892 1.65676,-2.27668 1.43369,-1.34688 1.89077,-1.45444 3.35179,-0.78875 1.28664,0.58623 1.99362,0.58227 2.95246,-0.0165 0.98361,-0.61427 1.49084,-0.59638 2.30754,0.0814 0.57573,0.47782 0.88239,1.13477 0.68145,1.45989 -0.59693,0.96585 -1.61998,0.67256 -1.61998,-0.46443 0,-0.58056 -0.375,-0.9334 -0.83333,-0.7841 -1.15124,0.375 -2.35434,3.02726 -2.8885,6.36776 -0.40574,2.53728 -0.3167,2.80523 0.93216,2.80523 0.7594,0 1.84774,-0.66675 2.41854,-1.48167 0.57078,-0.81492 1.0378,-1.16142 1.0378,-0.76999 0,1.00185 -2.24537,2.91833 -3.41916,2.91833 -0.53946,0 -1.34084,-0.36 -1.78084,-0.8 -0.62222,-0.62222 -0.97778,-0.62222 -1.6,0 -0.97193,0.97192 -2.9685,1.04726 -3.53334,0.13333 z m 74.16667,-0.0208 c 1.40848,-0.56614 1.5,-0.99066 1.5,-6.95775 0,-6.12282 -0.0547,-6.35763 -1.5,-6.43215 -1.35909,-0.0701 -1.37475,-0.10812 -0.16666,-0.40507 0.73333,-0.18025 1.69824,-0.62381 2.14424,-0.98569 0.62586,-0.5078 0.85406,1.06132 1,6.87619 0.18572,7.39981 0.2188,7.54238 1.85576,7.99657 1.11704,0.30993 0.34755,0.47041 -2.33334,0.48662 -3.02918,0.0183 -3.63594,-0.12213 -2.5,-0.57872 z M 108,146.33333 V 144 h -5.62732 c -3.166978,0 -5.814165,-0.30232 -6.054672,-0.69147 -0.286966,-0.46432 1.72582,-0.62857 6.127322,-0.5 L 109,143 l 0.205,2.83333 c 0.12129,1.67638 -0.0829,2.83334 -0.5,2.83334 -0.38775,0 -0.705,-1.05 -0.705,-2.33334 z m 103.33334,0 V 144 h -5.62732 c -3.16698,0 -5.81417,-0.30232 -6.05468,-0.69147 -0.28696,-0.46432 1.72582,-0.62857 6.12732,-0.5 l 6.55468,0.19147 0.205,2.83333 c 0.12128,1.67638 -0.0829,2.83334 -0.5,2.83334 -0.38776,0 -0.705,-1.05 -0.705,-2.33334 z M 117.66667,125.47577 C 118.99556,124.0409 162.25986,94 162.99745,94 c 0.74431,0 44.03154,30.09249 45.33589,31.51668 1.203,1.31353 -2.50324,-1.20922 -23.38088,-15.91482 C 173.61194,101.61393 163.73334,95.07458 163,95.06996 c -0.73333,-0.0046 -10.93982,6.74271 -22.6811,14.99406 -21.67766,15.23429 -23.8681,16.72459 -22.65223,15.41175 z M 12.5,85.279933 c -1.502234,-0.874973 -1.571462,-3.9466 -0.08895,-3.9466 0.792952,0 0.992684,0.444827 0.755901,1.68348 -0.211423,1.105987 0.04778,1.899447 0.755615,2.31306 0.592588,0.346267 0.777432,0.62958 0.410766,0.62958 -0.366667,0 -1.191667,-0.30578 -1.833334,-0.67952 z m 4.413017,-0.133893 c 1.387359,-1.01446 1.649389,-4.6651 0.439483,-6.122947 -0.467001,-0.5627 -1.487359,-1.04678 -2.267463,-1.075726 -1.20534,-0.04473 -1.142812,-0.153267 0.416319,-0.722674 3.115464,-1.137793 3.333248,-5.27634 0.346755,-6.589373 -1.323033,-0.581687 -1.262084,-0.615067 0.481493,-0.263727 1.097949,0.221247 2.372949,0.71488 2.833334,1.096967 1.252297,1.039313 1.009997,3.50162 -0.476996,4.847327 -1.302582,1.178826 -1.299672,1.200526 0.333333,2.485046 C 21.918015,81.081087 20.52925,86 16.986754,86 c -1.172636,0 -1.176732,-0.0474 -0.07374,-0.85396 z m 6.717749,0.129207 c -0.687014,-1.111614 0.85814,-2.38634 1.777813,-1.466667 C 26.177862,84.57786 25.696393,86 24.666667,86 24.34328,86 23.877124,85.67386 23.630766,85.275247 Z M 166.88966,84.283593 c -1.50442,-1.50442 -1.67685,-2.128066 -1.39612,-5.04966 0.48898,-5.0889 3.92372,-8.89864 8.72522,-9.677813 1.5457,-0.250833 3.14264,-0.07629 4.1283,0.451227 1.3312,0.712433 1.80473,0.6998 2.75504,-0.07352 1.00814,-0.820387 1.09664,-0.797854 0.72848,0.1855 -0.23048,0.615626 -0.6272,2.228806 -0.8816,3.58484 l -0.46253,2.465526 -0.86572,-2.5182 c -0.47614,-1.385013 -1.26059,-2.7686 -1.74322,-3.07464 -2.66857,-1.692166 -7.36555,0.818794 -9.23496,4.93692 -2.53436,5.582947 -1.00831,9.830707 3.52412,9.809354 2.73234,-0.01287 3.57381,-0.553734 4.45099,-2.86088 0.61703,-1.622914 0.52214,-1.9159 -0.79163,-2.444174 -1.20307,-0.483766 -0.86903,-0.608426 1.72159,-0.64248 2.80884,-0.03693 3.09227,0.07975 2.247,0.925027 -0.53201,0.532013 -1.17116,2.054033 -1.42034,3.382273 -0.33832,1.803414 -0.65978,2.24342 -1.26936,1.737514 -0.51234,-0.4252 -1.18034,-0.447227 -1.79394,-0.05913 -0.5377,0.34008 -2.26628,0.62292 -3.84128,0.628534 -2.19621,0.0078 -3.26368,-0.389834 -4.58004,-1.7062 z M 184.8,85.2 c -1.12518,-1.125187 -0.97903,-4.08944 0.47828,-9.7 1.1513,-4.432413 1.16418,-4.837073 0.15524,-4.878453 -0.80278,-0.03293 -0.69298,-0.241447 0.4062,-0.771394 2.09362,-1.009393 2.45036,-0.3523 1.60662,2.95924 -0.49133,1.92836 -0.50642,2.933934 -0.0464,3.09308 0.38872,0.134487 0.21116,0.755614 -0.41324,1.445567 -0.65053,0.718833 -1.14051,2.516907 -1.20742,4.43086 -0.0984,2.814187 0.0559,3.2211 1.22074,3.2211 2.78407,0 4.87421,-7.517353 2.5,-8.991427 -1.06757,-0.66282 -1.05384,-0.707413 0.16159,-0.524973 0.73054,0.109653 1.70864,0.99302 2.17355,1.963027 C 193.87207,81.69652 187.88967,88.289667 184.8,85.2 Z M 146,81 v -2.333333 h -5.62732 c -3.16698,0 -5.81416,-0.30232 -6.05467,-0.691467 -0.28697,-0.464327 1.72582,-0.628573 6.12732,-0.5 L 147,77.666667 147.205,80.5 c 0.12129,1.67638 -0.0829,2.833333 -0.5,2.833333 -0.38775,0 -0.705,-1.05 -0.705,-2.333333 z m 15.33334,0 v -2.333333 h -5.62732 c -3.16698,0 -5.81417,-0.30232 -6.05468,-0.691467 -0.28696,-0.464327 1.72582,-0.628573 6.12732,-0.5 l 6.55468,0.191467 0.205,2.833333 c 0.12128,1.67638 -0.0829,2.833333 -0.5,2.833333 -0.38776,0 -0.705,-1.05 -0.705,-2.333333 z M 12.115375,72.9574 c 0.283361,-2.411067 1.622979,-2.85402 1.582415,-0.523233 -0.01712,0.983533 -0.429204,1.920893 -0.915748,2.083026 -0.624188,0.207994 -0.820458,-0.25122 -0.666667,-1.559793 z M 11.333334,56.939661 c 0,-0.216519 1.309141,-1.941519 2.909203,-3.833333 1.600062,-1.891813 3.275571,-4.142603 3.723355,-5.001755 1.683568,-3.230228 -1.064665,-6.990596 -3.971899,-5.434691 -1.001077,0.53576 -1.235384,1.130991 -0.927728,2.356789 0.30948,1.233066 0.145551,1.639996 -0.660659,1.639996 -1.380206,0 -1.396142,-2.247559 -0.02565,-3.618047 3.773653,-3.773653 10.013619,0.38308 7.589849,5.055953 -0.445633,0.859152 -2.196142,2.82365 -3.890021,4.365552 L 13,55.273584 l 3.13354,0.02987 c 2.277149,0.02171 3.33855,-0.288973 3.88367,-1.136792 0.700556,-1.089562 0.724774,-1.085959 0.36646,0.05453 C 20.172652,54.892847 20,55.867847 20,56.387858 c 0,0.719217 -1.036992,0.945475 -4.333333,0.945475 -2.383333,0 -4.333333,-0.177152 -4.333333,-0.393672 z m 12.297432,-0.331082 c -0.687014,-1.111613 0.85814,-2.38634 1.777813,-1.466667 0.769283,0.769283 0.287814,2.191421 -0.741912,2.191421 -0.323387,0 -0.789543,-0.32614 -1.035901,-0.724754 z m 111.351274,0.08716 C 135.21853,56.313083 137.34432,56 139.70602,56 H 144 v -3.302873 -3.302874 l -4.5,-0.23322 -4.5,-0.233219 4.5,-0.130574 4.5,-0.130573 V 45.333333 42 h -4.29398 c -2.3617,0 -4.48749,-0.313083 -4.72398,-0.695741 -0.28836,-0.466577 1.29068,-0.631268 4.79398,-0.5 L 145,41 v 8 8 l -5.22398,0.195741 c -3.5033,0.131268 -5.08234,-0.03342 -4.79398,-0.5 z m 12.68463,-0.02907 c -0.48613,-0.786583 0.14445,-2 1.03935,-2 0.34502,0 0.62732,0.45 0.62732,1 0,1.766903 1.37363,1.067516 2.29139,-1.166667 1.71303,-4.170147 1.92873,-6.457375 0.6551,-6.946115 -0.80923,-0.31053 -1.63015,0.142943 -2.71645,1.50055 -0.85622,1.070061 -1.55824,1.622859 -1.56006,1.228441 -0.002,-0.394418 0.74372,-1.418925 1.65676,-2.276681 1.43369,-1.346887 1.89076,-1.454446 3.35179,-0.788757 1.28663,0.586229 1.99361,0.582268 2.95246,-0.01654 0.98361,-0.614271 1.49084,-0.596373 2.30753,0.08142 0.57574,0.477818 0.8824,1.13477 0.68146,1.45989 -0.59694,0.965855 -1.61998,0.672561 -1.61998,-0.464429 0,-0.580556 -0.375,-0.933403 -0.83334,-0.784105 -1.15123,0.375004 -2.35433,3.027258 -2.8885,6.36776 -0.40573,2.537284 -0.31669,2.805234 0.93216,2.805234 0.75941,0 1.84775,-0.666752 2.41854,-1.481671 C 157.53299,54.37008 158,54.023584 158,54.415007 c 0,1.001858 -2.24536,2.918329 -3.41916,2.918329 -0.53946,0 -1.34084,-0.36 -1.78084,-0.8 -0.62222,-0.622222 -0.97778,-0.622222 -1.6,0 -0.97192,0.971926 -2.96849,1.047268 -3.53333,0.133334 z m 14.29172,-0.176495 c 1.3187,-0.66826 1.91257,-1.95461 3.15022,-6.823505 1.84766,-7.268645 1.85868,-7.490342 0.39139,-7.873783 -0.64166,-0.167685 1.75834,-0.339683 5.33334,-0.382217 l 6.5,-0.07733 -0.0789,2.5 c -0.0763,2.41906 -0.0926,2.435248 -0.50368,0.5 -0.39912,-1.879024 -0.63649,-2.012195 -3.92434,-2.201618 -3.77585,-0.217537 -3.91584,-0.08784 -5.07486,4.701618 -0.4083,1.687257 -0.28629,1.833334 1.53125,1.833334 1.27781,0 2.36301,-0.52946 3.07443,-1.5 0.98698,-1.346467 1.06233,-1.363526 0.73612,-0.166667 -0.19986,0.733333 -0.57466,2.216081 -0.83286,3.294995 -0.45422,1.897887 -0.4876,1.912687 -1.02674,0.455242 -0.42319,-1.143993 -0.98996,-1.455552 -2.35581,-1.294994 -1.53675,0.180648 -1.91717,0.678632 -2.61348,3.421069 -0.77293,3.044201 -0.74061,3.239616 0.62695,3.791076 1.06574,0.429746 0.39837,0.589891 -2.5581,0.61386 -3.59686,0.02916 -3.83622,-0.05057 -2.37495,-0.791076 z m 17.70828,0.176495 c -0.48613,-0.786583 0.14445,-2 1.03935,-2 0.34502,0 0.62732,0.45 0.62732,1 0,1.766903 1.37363,1.067516 2.29139,-1.166667 1.71303,-4.170147 1.92873,-6.457375 0.6551,-6.946115 -0.80923,-0.31053 -1.63015,0.142943 -2.71645,1.50055 -0.85622,1.070061 -1.55824,1.622859 -1.56006,1.228441 -0.002,-0.394418 0.74372,-1.418925 1.65676,-2.276681 1.43369,-1.346887 1.89076,-1.454446 3.35179,-0.788757 1.28663,0.586229 1.99361,0.582268 2.95246,-0.01654 0.98361,-0.614271 1.49084,-0.596373 2.30753,0.08142 0.57574,0.477818 0.8824,1.13477 0.68146,1.45989 -0.59694,0.965855 -1.61998,0.672561 -1.61998,-0.464429 0,-0.580556 -0.375,-0.933403 -0.83334,-0.784105 -1.15123,0.375004 -2.35433,3.027258 -2.8885,6.36776 -0.40573,2.537284 -0.31669,2.805234 0.93216,2.805234 0.75941,0 1.84775,-0.666752 2.41854,-1.481671 C 189.53299,54.37008 190,54.023584 190,54.415007 c 0,1.001858 -2.24536,2.918329 -3.41916,2.918329 -0.53946,0 -1.34084,-0.36 -1.78084,-0.8 -0.62222,-0.622222 -0.97778,-0.622222 -1.6,0 -0.97192,0.971926 -2.96849,1.047268 -3.53333,0.133334 z M 123,29.383309 c 2.56667,-0.220604 5.3348,-0.778972 6.15139,-1.240816 3.17371,-1.79496 3.75185,-5.684729 1.27323,-8.566298 -1.38749,-1.613057 -2.20247,-1.883776 -6.83333,-2.269898 l -5.25795,-0.438407 5.11551,-0.100612 c 4.60837,-0.09064 5.31887,0.07049 7.16667,1.625318 1.73208,1.457451 2.05115,2.193621 2.05115,4.732527 0,2.503797 -0.34625,3.330048 -2.07051,4.940737 -1.93966,1.811925 -2.39252,1.927329 -7.16666,1.826345 l -5.09616,-0.107796 z m 104.75968,-2.524384 c -1.36098,-2.2532 -1.64413,-3.238171 -1.08826,-3.785615 0.55295,-0.544567 1.11589,-0.242731 2.13174,1.142995 l 1.38037,1.882971 1.93895,-3.549638 c 2.01772,-3.693827 5.91203,-8.137775 8.21086,-9.369727 0.73333,-0.392998 -0.10722,0.834521 -1.86789,2.727818 -3.13569,3.371899 -6.44601,9.30113 -6.45893,11.568815 -0.003,0.628766 -0.54667,1.432293 -1.20686,1.785615 -1.00019,0.535284 -1.5071,0.134544 -3.03998,-2.403234 z M 13.166667,28.645892 c 1.408481,-0.56614 1.5,-0.990652 1.5,-6.957743 0,-6.122821 -0.05476,-6.357639 -1.5,-6.43215 C 11.807573,15.185929 11.791917,15.147878 13,14.850927 c 0.733334,-0.180256 1.698243,-0.623815 2.144244,-0.985686 0.625863,-0.507806 0.854059,1.061313 1,6.876187 0.185718,7.399803 0.218806,7.542379 1.855756,7.996567 1.117038,0.309932 0.347556,0.470411 -2.333333,0.486628 -3.029186,0.01832 -3.635945,-0.122137 -2.5,-0.578731 z m 10.464099,-0.03731 c -0.687014,-1.111613 0.85814,-2.38634 1.777813,-1.466667 0.769283,0.769283 0.287814,2.191421 -0.741912,2.191421 -0.323387,0 -0.789543,-0.32614 -1.035901,-0.724754 z m 60.592222,-0.99165 c -1.50442,-1.504424 -1.676846,-2.128067 -1.39612,-5.049661 0.48898,-5.088905 3.92372,-8.89864 8.72522,-9.677816 1.5457,-0.250833 3.14264,-0.07629 4.128307,0.451228 1.3312,0.712436 1.804727,0.699799 2.755033,-0.07352 1.008141,-0.820382 1.096641,-0.797848 0.728487,0.1855 -0.230487,0.615629 -0.627207,2.228809 -0.8816,3.584846 l -0.462533,2.465521 -0.86572,-2.518201 c -0.47614,-1.38501 -1.260594,-2.768596 -1.74322,-3.074636 -2.668567,-1.692167 -7.365547,0.818796 -9.23496,4.93692 -2.53436,5.582949 -1.008307,9.830706 3.52412,9.809351 2.73234,-0.01287 3.573813,-0.553731 4.450986,-2.860878 0.617034,-1.622913 0.52214,-1.9159 -0.791626,-2.444175 -1.203067,-0.483763 -0.869034,-0.608422 1.721593,-0.642481 2.808833,-0.03693 3.092267,0.07976 2.246993,0.925031 -0.532006,0.532008 -1.17116,2.054031 -1.42034,3.382272 -0.33832,1.803411 -0.659773,2.243421 -1.269353,1.737514 -0.51234,-0.425203 -1.180347,-0.447228 -1.793947,-0.05915 -0.5377,0.340077 -2.266273,0.622917 -3.841273,0.628531 -2.196213,0.0078 -3.26368,-0.389832 -4.580047,-1.706196 z m 17.910352,0.916404 c -1.12519,-1.125189 -0.97904,-4.08944 0.47828,-9.7 1.15129,-4.432412 1.16417,-4.837076 0.15524,-4.878453 -0.80278,-0.03293 -0.69298,-0.241447 0.4062,-0.771393 2.09361,-1.009393 2.45036,-0.352303 1.60661,2.959238 -0.49133,1.92836 -0.50641,2.933937 -0.0464,3.093082 0.38873,0.134486 0.21117,0.755616 -0.41323,1.445568 -0.65054,0.718832 -1.14052,2.516902 -1.20742,4.43086 -0.0984,2.814188 0.0558,3.221098 1.22073,3.221098 2.78407,0 4.87421,-7.51735 2.5,-8.991427 -1.06757,-0.662819 -1.05384,-0.707412 0.16159,-0.524974 0.73054,0.109655 1.70864,0.993019 2.17356,1.963031 2.0369,4.249892 -3.9455,10.843038 -7.03516,7.75337 z M 145.49558,22.5 c -3.33712,-8.627576 -3.79908,-10.099599 -3.01807,-9.616907 0.34119,0.21087 1.02578,1.611846 1.52129,3.113279 l 0.90095,2.729879 3.70073,-0.196459 c 3.69494,-0.196151 3.70236,-0.200919 4.75196,-3.050176 0.57818,-1.569545 1.21584,-2.689117 1.41702,-2.487938 0.46468,0.464687 -5.51547,16.341655 -6.15518,16.341655 -0.26158,0 -1.665,-3.075 -3.1187,-6.833333 z m 4.77536,1.04713 c 1.43424,-4.209279 1.43252,-4.213797 -1.60427,-4.213797 -1.68713,0 -2.66788,0.306106 -2.66997,0.833334 -0.006,1.52018 2.23343,7.103128 2.72689,6.798153 0.26672,-0.164839 0.96302,-1.7028 1.54735,-3.41769 z m 5.39573,5.119537 c -0.48613,-0.786583 0.14445,-2 1.03935,-2 0.34502,0 0.62732,0.45 0.62732,1 0,1.766903 1.37363,1.067516 2.29139,-1.166667 1.71303,-4.170147 1.92873,-6.457375 0.6551,-6.946115 -0.80923,-0.31053 -1.63015,0.142943 -2.71645,1.50055 -0.85622,1.070061 -1.55824,1.622859 -1.56006,1.228441 -0.002,-0.394418 0.74372,-1.418925 1.65676,-2.276681 1.43369,-1.346887 1.89076,-1.454446 3.35179,-0.788757 1.28663,0.586229 1.99361,0.582268 2.95246,-0.01654 0.98361,-0.614271 1.49084,-0.596373 2.30753,0.08142 0.57574,0.477818 0.8824,1.13477 0.68146,1.45989 -0.59694,0.965855 -1.61998,0.672561 -1.61998,-0.464429 0,-0.580556 -0.375,-0.933403 -0.83334,-0.784105 -1.15123,0.375004 -2.35433,3.027258 -2.8885,6.36776 -0.40573,2.537284 -0.31669,2.805234 0.93216,2.805234 0.75941,0 1.84775,-0.666752 2.41854,-1.481671 0.57079,-0.814919 1.0378,-1.161415 1.0378,-0.769992 0,1.001858 -2.24536,2.918329 -3.41916,2.918329 -0.53946,0 -1.34084,-0.36 -1.78084,-0.8 -0.62222,-0.622222 -0.97778,-0.622222 -1.6,0 -0.97192,0.971926 -2.96849,1.047268 -3.53333,0.133334 z m 30.29172,-0.176495 c 1.3187,-0.66826 1.91257,-1.95461 3.15022,-6.823505 1.84766,-7.268645 1.85868,-7.490342 0.39139,-7.873783 -0.64166,-0.167685 1.75834,-0.339683 5.33334,-0.382217 l 6.5,-0.07733 -0.0789,2.5 c -0.0763,2.41906 -0.0926,2.435248 -0.50368,0.5 -0.39912,-1.879024 -0.63649,-2.012195 -3.92434,-2.201618 -3.77585,-0.217537 -3.91584,-0.08784 -5.07486,4.701618 -0.4083,1.687257 -0.28629,1.833334 1.53125,1.833334 1.27781,0 2.36301,-0.52946 3.07443,-1.5 0.98698,-1.346467 1.06233,-1.363526 0.73612,-0.166667 -0.19986,0.733333 -0.57466,2.216081 -0.83286,3.294995 -0.45422,1.897887 -0.4876,1.912687 -1.02674,0.455242 -0.42319,-1.143993 -0.98996,-1.455552 -2.35581,-1.294994 -1.53675,0.180648 -1.91717,0.678632 -2.61348,3.421069 -0.77293,3.044201 -0.74061,3.239616 0.62695,3.791076 1.06574,0.429746 0.39837,0.589891 -2.5581,0.61386 -3.59686,0.02916 -3.83622,-0.05057 -2.37495,-0.791076 z m 17.70828,0.176495 c -0.48613,-0.786583 0.14445,-2 1.03935,-2 0.34502,0 0.62732,0.45 0.62732,1 0,1.766903 1.37363,1.067516 2.29139,-1.166667 1.71303,-4.170147 1.92873,-6.457375 0.6551,-6.946115 -0.80923,-0.31053 -1.63015,0.142943 -2.71645,1.50055 -0.85622,1.070061 -1.55824,1.622859 -1.56006,1.228441 -0.002,-0.394418 0.74372,-1.418925 1.65676,-2.276681 1.43369,-1.346887 1.89076,-1.454446 3.35179,-0.788757 1.28663,0.586229 1.99361,0.582268 2.95246,-0.01654 0.98361,-0.614271 1.49084,-0.596373 2.30753,0.08142 0.57574,0.477818 0.8824,1.13477 0.68146,1.45989 -0.59694,0.965855 -1.61998,0.672561 -1.61998,-0.464429 0,-0.580556 -0.375,-0.933403 -0.83334,-0.784105 -1.15123,0.375004 -2.35433,3.027258 -2.8885,6.36776 -0.40573,2.537284 -0.31669,2.805234 0.93216,2.805234 0.75941,0 1.84775,-0.666752 2.41854,-1.481671 0.57079,-0.814919 1.0378,-1.161415 1.0378,-0.769992 0,1.001858 -2.24536,2.918329 -3.41916,2.918329 -0.53946,0 -1.34084,-0.36 -1.78084,-0.8 -0.62222,-0.622222 -0.97778,-0.622222 -1.6,0 -0.97192,0.971926 -2.96849,1.047268 -3.53333,0.133334 z M 182,24.333333 V 22 h -5.62732 c -3.16698,0 -5.81416,-0.302319 -6.05467,-0.691467 -0.28697,-0.464325 1.72582,-0.628572 6.12732,-0.5 L 183,21 l 0.205,2.833333 c 0.12129,1.676382 -0.0829,2.833334 -0.5,2.833334 -0.38775,0 -0.705,-1.05 -0.705,-2.333334 z"
         id="path1596" />
    </g>
  </g>
</svg>
