<?xml version="1.0" encoding="UTF-8" standalone="no"?>
<svg
   xmlns:dc="http://purl.org/dc/elements/1.1/"
   xmlns:cc="http://creativecommons.org/ns#"
   xmlns:rdf="http://www.w3.org/1999/02/22-rdf-syntax-ns#"
   xmlns:svg="http://www.w3.org/2000/svg"
   xmlns="http://www.w3.org/2000/svg"
   xmlns:sodipodi="http://sodipodi.sourceforge.net/DTD/sodipodi-0.dtd"
   xmlns:inkscape="http://www.inkscape.org/namespaces/inkscape"
   version="1.1"
   id="svg306"
   width="399.3027"
   height="577.2757"
   viewBox="0 0 399.3027 577.2757"
   sodipodi:docname="10-1-5.svg"
   inkscape:version="1.0.1 (c497b03c, 2020-09-10)">
  <metadata
     id="metadata312">
    <rdf:RDF>
      <cc:Work
         rdf:about="">
        <dc:format>image/svg+xml</dc:format>
        <dc:type
           rdf:resource="http://purl.org/dc/dcmitype/StillImage" />
        <dc:title></dc:title>
      </cc:Work>
    </rdf:RDF>
  </metadata>
  <defs
     id="defs310" />
  <sodipodi:namedview
     pagecolor="#ffffff"
     bordercolor="#666666"
     borderopacity="1"
     objecttolerance="10"
     gridtolerance="10"
     guidetolerance="10"
     inkscape:pageopacity="0"
     inkscape:pageshadow="2"
     inkscape:window-width="740"
     inkscape:window-height="480"
     id="namedview308"
     showgrid="false"
     fit-margin-top="0"
     fit-margin-left="0"
     fit-margin-right="0"
     fit-margin-bottom="0"
     inkscape:pagecheckerboard="true"
     inkscape:zoom="0.51673355"
     inkscape:cx="419.61009"
     inkscape:cy="286.49046"
     inkscape:window-x="0"
     inkscape:window-y="25"
     inkscape:window-maximized="0"
     inkscape:current-layer="g314" />
  <g
     inkscape:groupmode="layer"
     inkscape:label="Image"
     id="g314"
     transform="translate(-15.333334,-16.067039)">
    <path
       style="fill:#1d1d1d;stroke-width:0.666667"
       d="m 95.354535,593.12284 c -0.01167,-0.29911 0.273306,-1.09412 0.63326,-1.76669 0.497513,-0.92962 0.390846,-1.32402 -0.444814,-1.6447 -0.787186,-0.30207 -0.894846,-0.62625 -0.379213,-1.14188 0.927747,-0.92775 2.169567,-0.1594 2.169567,1.34236 0,1.14094 -1.93696,4.28397 -1.9788,3.21091 z m 63.333335,0 c -0.0117,-0.29911 0.27331,-1.09412 0.63326,-1.76669 0.49751,-0.92962 0.39085,-1.32402 -0.44481,-1.6447 -0.78719,-0.30207 -0.89485,-0.62625 -0.37922,-1.14188 0.92775,-0.92775 2.16957,-0.1594 2.16957,1.34236 0,1.14094 -1.93696,4.28397 -1.9788,3.21091 z m 62.63192,-1.09097 c 0.63459,-1.19053 0.66426,-1.70386 0.10915,-1.88889 C 220.30512,589.76837 220.50129,588 221.66667,588 c 1.38964,0 1.30733,3.58321 -0.10915,4.75171 -1.01422,0.83665 -1.03456,0.77504 -0.23773,-0.71984 z m 60.70141,1.09097 c -0.0117,-0.29911 0.27331,-1.09412 0.63326,-1.76669 0.49752,-0.92962 0.39085,-1.32402 -0.44481,-1.6447 -0.78719,-0.30207 -0.89485,-0.62625 -0.37921,-1.14188 0.92774,-0.92775 2.16956,-0.1594 2.16956,1.34236 0,1.14094 -1.93696,4.28397 -1.9788,3.21091 z M 86.595515,589.75907 c -1.89176,-0.93958 -2.40144,-3.2036 -0.985707,-4.37854 0.898413,-0.74562 0.896887,-1.00493 -0.01413,-2.39534 -0.941754,-1.4373 -0.91376,-1.66708 0.358026,-2.93887 1.71002,-1.71002 3.49422,-1.76137 4.959067,-0.14273 1.137087,1.25646 0.870487,3.42974 -0.420733,3.42974 -0.384267,0 -0.202167,0.54862 0.40466,1.21916 2.808246,3.10308 -0.492267,7.09836 -4.30116,5.20658 z m 3.869913,-1.52958 c 0.602647,-1.57047 -2.29046,-3.87129 -3.551687,-2.82457 -0.96184,0.79826 -1.222193,2.73107 -0.469293,3.48397 0.87278,0.87278 3.604967,0.42473 4.02098,-0.6594 z m -0.43766,-5.92962 c 0.706113,-0.85081 0.675373,-1.21578 -0.173927,-2.06508 -0.833593,-0.83359 -1.313106,-0.88097 -2.49804,-0.24682 -1.400273,0.74941 -1.41416,0.84256 -0.307786,2.06508 1.4027,1.54997 1.866366,1.58838 2.979753,0.24682 z m 60.596682,7.47376 c -2.00957,-0.998 -3.04921,-4.66911 -2.04998,-7.23876 0.90399,-2.32472 3.61767,-4.10866 5.39289,-3.54523 1.37394,0.43607 1.94314,2.34369 0.69931,2.34369 -0.36667,0 -0.66667,-0.45 -0.66667,-1 0,-1.38502 -1.08377,-1.24956 -2.66666,0.33334 -1.80618,1.80618 -1.68876,2.78127 0.27556,2.28826 2.75464,-0.69137 5.45167,3.09282 3.8809,5.44527 -1.07344,1.60761 -3.19046,2.20523 -4.86535,1.37343 z m 3.24293,-2.83041 C 154.11808,584.37417 152.52253,582.73642 151,584 c -1.92176,1.59492 -0.97744,5.51995 1.25152,5.20191 1.0378,-0.14807 1.46867,-0.75035 1.61586,-2.25869 z m 58.68938,3.22001 c -1.31612,-0.28356 -2.10452,-1.95201 -1.1896,-2.51747 0.35324,-0.21831 0.82224,0.0721 1.04221,0.64532 0.56981,1.48489 2.00927,1.28842 3.2195,-0.43942 1.42507,-2.03458 1.30015,-2.70565 -0.34024,-1.82773 -3.52405,1.88601 -6.44968,-4.00147 -3.14029,-6.31946 1.95821,-1.37158 2.91372,-1.30908 4.51833,0.29553 0.91772,0.91772 1.33333,2.22222 1.33333,4.18499 0,4.27804 -2.18686,6.67984 -5.44324,5.97824 z m 3.38556,-6.05545 c 0.77625,-1.45044 0.26987,-3.88371 -0.9018,-4.33332 -1.79454,-0.68863 -2.78124,1.05925 -2.47948,4.39221 0.14063,1.55326 2.54086,1.51146 3.38128,-0.0589 z m 58.31441,5.59965 c -0.54839,-1.42909 0.23781,-4.25988 1.7876,-6.43635 0.70895,-0.99563 1.28901,-1.98893 1.28901,-2.20733 0,-0.78514 -4.56318,-0.3782 -4.89182,0.43625 -0.18494,0.45833 -0.35994,-0.0237 -0.38888,-1.07133 -0.0407,-1.47378 0.18592,-1.81311 1.00189,-1.5 0.57999,0.22257 2.40594,0.40466 4.05767,0.40466 h 3.00315 l -2.05767,2.798 c -1.4345,1.95062 -2.05768,3.55392 -2.05768,5.294 0,2.64069 -1.06877,4.03982 -1.74327,2.2821 z M 104.5,589.31256 c 1.32315,-0.53184 1.5,-1.07707 1.5,-4.62441 0,-3.71898 -0.11283,-4.02326 -1.5,-4.04511 -1.48109,-0.0233 -1.47898,-0.0356 0.16667,-0.97637 0.91666,-0.52402 1.89166,-0.96339 2.16666,-0.97638 0.275,-0.013 0.5,2.35438 0.5,5.26083 0,4.47222 0.17932,5.33131 1.16667,5.58933 0.64167,0.16768 -0.33333,0.32066 -2.16667,0.33996 -2.62684,0.0277 -3.01541,-0.0927 -1.83333,-0.56785 z m 9.33334,0 c 1.32314,-0.53184 1.5,-1.07707 1.5,-4.62441 0,-3.71898 -0.11284,-4.02326 -1.5,-4.04511 -1.48109,-0.0233 -1.47898,-0.0356 0.16666,-0.97637 0.91667,-0.52402 1.89167,-0.96339 2.16667,-0.97638 0.275,-0.013 0.5,2.35438 0.5,5.26083 0,4.47222 0.17932,5.33131 1.16667,5.58933 0.64166,0.16768 -0.33334,0.32066 -2.16667,0.33996 -2.62684,0.0277 -3.01541,-0.0927 -1.83333,-0.56785 z m 54.33333,0.22789 c 0.95846,-0.25047 1.16667,-1.0695 1.16667,-4.58933 0,-3.62699 -0.17903,-4.28808 -1.16667,-4.30808 -0.88611,-0.0179 -0.76789,-0.24435 0.49163,-0.94151 0.91207,-0.50484 1.88707,-0.7765 2.16667,-0.6037 0.2796,0.17281 0.50837,2.52449 0.50837,5.22596 0,4.1173 0.1887,4.96109 1.16666,5.21666 0.64167,0.16768 -0.33333,0.30488 -2.16666,0.30488 -1.83334,0 -2.80834,-0.1372 -2.16667,-0.30488 z m 9.33333,0 c 0.95846,-0.25047 1.16667,-1.0695 1.16667,-4.58933 0,-3.62699 -0.17903,-4.28808 -1.16667,-4.30808 -0.88611,-0.0179 -0.76788,-0.24435 0.49164,-0.94151 0.91206,-0.50484 1.88706,-0.7765 2.16666,-0.6037 0.2796,0.17281 0.50837,2.52449 0.50837,5.22596 0,4.1173 0.18871,4.96109 1.16667,5.21666 0.64166,0.16768 -0.33334,0.30488 -2.16667,0.30488 -1.83333,0 -2.80833,-0.1372 -2.16667,-0.30488 z m 52.66667,0 c 0.95846,-0.25047 1.16667,-1.0695 1.16667,-4.58933 0,-3.62699 -0.17903,-4.28808 -1.16667,-4.30808 -0.88611,-0.0179 -0.76789,-0.24435 0.49163,-0.94151 0.91207,-0.50484 1.88707,-0.7765 2.16667,-0.6037 0.2796,0.17281 0.50837,2.52449 0.50837,5.22596 0,4.1173 0.1887,4.96109 1.16666,5.21666 0.64167,0.16768 -0.33333,0.30488 -2.16666,0.30488 -1.83334,0 -2.80834,-0.1372 -2.16667,-0.30488 z m 9.66667,-0.22789 c 1.32314,-0.53184 1.5,-1.07707 1.5,-4.62441 0,-3.71898 -0.11284,-4.02326 -1.5,-4.04511 -1.48109,-0.0233 -1.47898,-0.0356 0.16666,-0.97637 0.91667,-0.52402 1.89167,-0.96339 2.16667,-0.97638 0.275,-0.013 0.5,2.35438 0.5,5.26083 0,4.47222 0.17932,5.33131 1.16667,5.58933 0.64166,0.16768 -0.33334,0.32066 -2.16667,0.33996 -2.62684,0.0277 -3.01541,-0.0927 -1.83333,-0.56785 z M 291.5,589.54045 c 0.95846,-0.25047 1.16667,-1.0695 1.16667,-4.58933 0,-3.62699 -0.17903,-4.28808 -1.16667,-4.30808 -0.88611,-0.0179 -0.76788,-0.24435 0.49164,-0.94151 0.91206,-0.50484 1.88706,-0.7765 2.16666,-0.6037 0.2796,0.17281 0.50837,2.52449 0.50837,5.22596 0,4.1173 0.18871,4.96109 1.16667,5.21666 0.64166,0.16768 -0.33334,0.30488 -2.16667,0.30488 -1.83333,0 -2.80833,-0.1372 -2.16667,-0.30488 z m 9.33334,0 C 301.7918,589.28998 302,588.47095 302,584.95112 c 0,-3.62699 -0.17902,-4.28808 -1.16666,-4.30808 -0.88612,-0.0179 -0.76789,-0.24435 0.49163,-0.94151 0.91207,-0.50484 1.88707,-0.7765 2.16667,-0.6037 0.2796,0.17281 0.50836,2.52449 0.50836,5.22596 0,4.1173 0.18871,4.96109 1.16667,5.21666 0.64167,0.16768 -0.33333,0.30488 -2.16667,0.30488 -1.83333,0 -2.80833,-0.1372 -2.16666,-0.30488 z M 96.000001,568.86144 c 0,-0.25954 1.110887,-1.60954 2.468634,-3 l 2.468635,-2.52811 -2.591989,-2.65442 c -3.381646,-3.46313 -2.462833,-4.38194 1.000294,-1.0003 L 102,562.2706 l 2.66667,-2.60393 c 3.16372,-3.0893 3.6512,-1.74593 0.53364,1.47058 l -2.13304,2.20073 2.47993,2.53967 c 3.2372,3.3152 2.31017,4.23799 -1.00521,1.00061 L 102,564.39607 99.471895,566.8647 c -2.446714,2.38915 -3.471894,2.97875 -3.471894,1.99674 z m 63.333339,0 c 0,-0.25954 1.11088,-1.60954 2.46863,-3 l 2.46863,-2.52811 -2.59198,-2.65442 c -3.38165,-3.46313 -2.46284,-4.38194 1.00029,-1.0003 l 2.65443,2.59199 L 168,559.66667 c 3.16373,-3.0893 3.65121,-1.74593 0.53364,1.47058 l -2.13303,2.20073 2.47993,2.53967 c 3.2372,3.3152 2.31017,4.23799 -1.00521,1.00061 l -2.54199,-2.48219 -2.52811,2.46863 c -2.44671,2.38915 -3.47189,2.97875 -3.47189,1.99674 z m 62.66666,0 c 0,-0.25954 1.11089,-1.60954 2.46864,-3 l 2.46863,-2.52811 -2.59199,-2.65442 c -3.38164,-3.46313 -2.46283,-4.38194 1.0003,-1.0003 L 228,562.2706 l 2.66667,-2.60393 c 3.16373,-3.0893 3.65121,-1.74593 0.53364,1.47058 l -2.13303,2.20073 2.47992,2.53967 c 3.2372,3.3152 2.31018,4.23799 -1.0052,1.00061 L 228,564.39607 225.4719,566.8647 C 223.02518,569.25385 222,569.84345 222,568.86144 Z m 61.33334,0 c 0,-0.25954 1.11088,-1.60954 2.46863,-3 l 2.46863,-2.52811 -2.59198,-2.65442 c -3.38165,-3.46313 -2.46284,-4.38194 1.00029,-1.0003 l 2.65443,2.59199 L 292,559.66667 c 3.16373,-3.0893 3.65121,-1.74593 0.53364,1.47058 l -2.13303,2.20073 2.47993,2.53967 c 3.2372,3.3152 2.31017,4.23799 -1.00521,1.00061 l -2.54199,-2.48219 -2.52811,2.46863 c -2.44671,2.38915 -3.47189,2.97875 -3.47189,1.99674 z M 154.90467,540.67228 c -3.70377,-1.49465 -4.76423,-7.37163 -2.05547,-11.39116 2.94126,-4.36454 8.66962,-6.61914 11.79511,-4.64238 0.62212,0.39347 1.29468,0.35521 1.84945,-0.10521 1.39043,-1.15396 1.62322,-0.25516 0.79045,3.05204 -0.87654,3.48106 -1.95087,4.08488 -1.95087,1.09646 0,-2.49701 -2.40226,-4.27445 -4.92222,-3.64198 -3.61784,0.90802 -7.81975,8.1045 -6.64959,11.38856 1.28859,3.61644 5.07441,4.73545 7.57181,2.23806 1.73976,-1.73976 1.68701,-2.95901 -0.16667,-3.85301 -1.26102,-0.60817 -0.86272,-0.72723 2.5,-0.74734 3.52155,-0.0211 3.85625,0.0851 2.79823,0.88737 -0.66096,0.50122 -1.51,2.02764 -1.88674,3.39206 -0.46229,1.67432 -0.9044,2.26134 -1.35998,1.80576 -0.45559,-0.45559 -1.25094,-0.37454 -2.4466,0.24929 -1.99148,1.03905 -3.76186,1.12097 -5.86691,0.27148 z m 124.66667,0 c -3.70377,-1.49465 -4.76424,-7.37163 -2.05547,-11.39116 2.94126,-4.36454 8.66962,-6.61914 11.79511,-4.64238 0.62212,0.39347 1.29468,0.35521 1.84944,-0.10521 1.39044,-1.15396 1.62322,-0.25516 0.79046,3.05204 -0.87654,3.48106 -1.95088,4.08488 -1.95088,1.09646 0,-2.49701 -2.40225,-4.27445 -4.92222,-3.64198 -3.61784,0.90802 -7.81974,8.1045 -6.64958,11.38856 1.28859,3.61644 5.07441,4.73545 7.5718,2.23806 1.73976,-1.73976 1.68702,-2.95901 -0.16666,-3.85301 -1.26102,-0.60817 -0.86272,-0.72723 2.5,-0.74734 3.52154,-0.0211 3.85625,0.0851 2.79823,0.88737 -0.66097,0.50122 -1.51,2.02764 -1.88674,3.39206 -0.46229,1.67432 -0.90441,2.26134 -1.35999,1.80576 -0.45558,-0.45559 -1.25093,-0.37454 -2.4466,0.24929 -1.99147,1.03905 -3.76186,1.12097 -5.8669,0.27148 z M 16,540.31683 c 0,-0.1924 0.75,-0.63498 1.666667,-0.9835 1.608208,-0.61144 1.666667,-0.84514 1.666667,-6.66286 v -6.0292 l -1.666667,0.4183 C 16.727984,527.29517 16,527.18906 16,526.81666 c 0,-0.36367 0.675,-0.80762 1.5,-0.98655 0.825,-0.17892 2.025,-0.54599 2.666667,-0.8157 1.070519,-0.44998 1.166667,0.11984 1.166667,6.91426 0,6.96022 0.08003,7.40466 1.333333,7.40466 C 23.4,539.33333 24,539.63333 24,540 c 0,0.37037 -1.777778,0.66667 -4,0.66667 -2.2,0 -4,-0.15743 -4,-0.34984 z m 12,0 c 0,-0.1924 0.75,-0.63498 1.666667,-0.9835 1.608208,-0.61144 1.666667,-0.84514 1.666667,-6.66286 v -6.0292 l -1.666667,0.4183 C 28.727984,527.29517 28,527.18906 28,526.81666 c 0,-0.36367 0.675,-0.80762 1.5,-0.98655 0.825,-0.17892 2.025,-0.54599 2.666667,-0.8157 1.07052,-0.44998 1.166667,0.11984 1.166667,6.91426 0,6.96022 0.08003,7.40466 1.333333,7.40466 0.733334,0 1.333334,0.3 1.333334,0.66667 0,0.37037 -1.777778,0.66667 -4.000001,0.66667 -2.2,0 -4,-0.15743 -4,-0.34984 z m 12.458334,-0.0807 C 39.514657,539.29243 40.048646,538 41.382217,538 c 0.931974,0 1.312003,0.36203 1.166666,1.11142 -0.237962,1.22699 -1.376001,1.83924 -2.090549,1.12469 z M 87.666668,540 c 0.226613,-0.36667 0.832753,-0.66667 1.34698,-0.66667 0.520047,0 1.224307,-1.10945 1.58696,-2.5 1.636807,-6.2761 2.732727,-10.72609 2.732727,-11.09622 0,-0.22208 -0.467707,-0.40378 -1.039347,-0.40378 -0.57164,0 -0.853933,-0.3 -0.62732,-0.66666 0.62662,-1.0139 12.307922,-0.86018 12.664832,0.16666 0.15931,0.45834 0.0306,1.88334 -0.28601,3.16667 -0.48037,1.94705 -0.58697,2.0519 -0.64392,0.63333 -0.0979,-2.43856 -1.2735,-3.3 -4.503568,-3.3 -2.708507,0 -2.866381,0.11182 -3.529614,2.5 -0.381853,1.375 -0.69596,2.875 -0.698,3.33334 -0.006,1.40916 3.10114,0.92334 4.264207,-0.66667 1.080625,-1.47731 1.090635,-1.46471 0.661493,0.83333 -0.239646,1.28334 -0.677793,2.93334 -0.973646,3.66667 -0.510387,1.26508 -0.540087,1.25655 -0.580181,-0.16667 -0.034,-1.20737 -0.426313,-1.5 -2.010926,-1.5 -1.707027,0 -2.060934,0.33226 -2.662947,2.5 -0.90234,3.24919 -0.883787,3.5 0.258933,3.5 0.52836,0 1.146067,0.3 1.37268,0.66667 0.257534,0.41669 -1.1173,0.66667 -3.666666,0.66667 -2.549367,0 -3.9242,-0.24998 -3.666667,-0.66667 z m 18.295762,-0.73687 c -1.10447,-2.06372 -0.21638,-5.43704 1.9872,-7.5482 1.70195,-1.63057 2.25881,-1.79691 4.65837,-1.39151 1.49893,0.25325 2.72178,0.65907 2.71742,0.90185 -0.005,0.24276 -0.45079,2.0914 -0.99208,4.10806 -1.17717,4.38569 -1.19625,4.66667 -0.31684,4.66667 0.37574,0 1.0115,-0.825 1.4128,-1.83333 0.4013,-1.00834 0.86333,-1.47497 1.02674,-1.03696 0.86203,2.31064 -2.51386,4.5458 -4.24746,2.8122 -0.5219,-0.5219 -0.85013,-0.5219 -1.17268,0 -0.8052,1.30286 -4.26033,0.8406 -5.07347,-0.67878 z m 4.93083,-0.47852 c 1.41486,-1.5634 2.22904,-7.09099 1.1433,-7.76202 -1.18172,-0.73034 -3.28837,1.53219 -4.04585,4.34522 -1.11072,4.12494 0.52215,6.04712 2.90255,3.4168 z m 59.06918,0.47852 c -1.10448,-2.06372 -0.21639,-5.43704 1.98719,-7.5482 1.70195,-1.63057 2.25881,-1.79691 4.65837,-1.39151 1.49893,0.25325 2.72178,0.65907 2.71742,0.90185 -0.005,0.24276 -0.45079,2.0914 -0.99208,4.10806 -1.17717,4.38569 -1.19625,4.66667 -0.31684,4.66667 0.37574,0 1.0115,-0.825 1.4128,-1.83333 0.4013,-1.00834 0.86333,-1.47497 1.02674,-1.03696 0.86203,2.31064 -2.51386,4.5458 -4.24746,2.8122 -0.5219,-0.5219 -0.85013,-0.5219 -1.17268,0 -0.8052,1.30286 -4.26032,0.8406 -5.07346,-0.67878 z m 4.93082,-0.47852 c 1.41486,-1.5634 2.22904,-7.09099 1.1433,-7.76202 -1.18172,-0.73034 -3.28837,1.53219 -4.04584,4.34522 -1.11073,4.12494 0.52214,6.04712 2.90254,3.4168 z M 214.33334,540 c 0.22661,-0.36667 0.83275,-0.66667 1.34698,-0.66667 0.52004,0 1.2243,-1.10945 1.58696,-2.5 1.6368,-6.2761 2.73272,-10.72609 2.73272,-11.09622 0,-0.22208 -0.4677,-0.40378 -1.03934,-0.40378 -0.57164,0 -0.85394,-0.3 -0.62732,-0.66666 0.62662,-1.0139 12.30792,-0.86018 12.66483,0.16666 0.15931,0.45834 0.0306,1.88334 -0.28601,3.16667 -0.48037,1.94705 -0.58697,2.0519 -0.64392,0.63333 -0.0979,-2.43856 -1.2735,-3.3 -4.50357,-3.3 -2.70851,0 -2.86638,0.11182 -3.52961,2.5 -0.38186,1.375 -0.69596,2.875 -0.698,3.33334 -0.006,1.40916 3.10114,0.92334 4.2642,-0.66667 1.08063,-1.47731 1.09064,-1.46471 0.6615,0.83333 -0.23965,1.28334 -0.6778,2.93334 -0.97365,3.66667 -0.51039,1.26508 -0.54009,1.25655 -0.58018,-0.16667 -0.034,-1.20737 -0.42631,-1.5 -2.01093,-1.5 -1.70702,0 -2.06093,0.33226 -2.66294,2.5 -0.90234,3.24919 -0.88379,3.5 0.25893,3.5 0.52836,0 1.14607,0.3 1.37268,0.66667 0.25753,0.41669 -1.1173,0.66667 -3.66667,0.66667 -2.54936,0 -3.9242,-0.24998 -3.66666,-0.66667 z m 18.98641,-1.03574 c -0.47899,-1.25984 -0.27173,-3.19968 0.79729,-7.46196 1.04548,-4.16845 1.22884,-5.83145 0.66375,-6.01981 C 233.21672,524.96113 234.05341,524 236.07133,524 c 1.52153,0 1.97429,0.25287 1.70575,0.95266 -0.20106,0.52396 -0.55969,1.98743 -0.79695,3.25215 -0.40554,2.16171 -0.33429,2.28094 1.18902,1.98974 3.34294,-0.63904 4.86262,3.20978 2.82395,7.15213 -1.89144,3.65763 -6.52625,4.63468 -7.67335,1.61758 z m 5.27812,-1.27796 c 1.1721,-2.44551 1.33489,-6.45463 0.27713,-6.82543 -2.05533,-0.72053 -5.23926,6.26504 -3.8673,8.48491 0.76904,1.24433 2.60519,0.39561 3.59017,-1.65948 z m 56.05521,1.27796 c -0.47899,-1.25984 -0.27172,-3.19968 0.79729,-7.46196 1.04548,-4.16845 1.22884,-5.83145 0.66375,-6.01981 C 294.55006,524.96113 295.38674,524 297.40466,524 c 1.52154,0 1.9743,0.25287 1.70576,0.95266 -0.20106,0.52396 -0.5597,1.98743 -0.79696,3.25215 -0.40554,2.16171 -0.33428,2.28094 1.18902,1.98974 3.34294,-0.63904 4.86262,3.20978 2.82396,7.15213 -1.89144,3.65763 -6.52626,4.63468 -7.67336,1.61758 z m 5.27812,-1.27796 c 1.1721,-2.44551 1.33489,-6.45463 0.27714,-6.82543 -2.05534,-0.72053 -5.23926,6.26504 -3.86731,8.48491 0.76904,1.24433 2.60519,0.39561 3.59017,-1.65948 z M 107.88089,509.5 c 9.47546,-10.21815 25.90564,-26.35584 26.54193,-26.06943 1.29844,0.58446 31.80523,31.89694 31.43597,32.2662 -0.22013,0.22013 -7.48736,-6.74658 -16.14939,-15.4816 l -15.74915,-15.88184 -15.51247,15.83334 C 102.74671,516.19249 96.822708,521.42494 107.88089,509.5 Z m 120.23263,5.99713 c 0.29308,-1.1053 29.79824,-32.1638 30.55518,-32.1638 0.81643,0 30.66647,31.45905 30.6567,32.3092 -0.005,0.37994 -4.4197,-3.9592 -9.81184,-9.64253 -5.39214,-5.68333 -12.28926,-12.88333 -15.32693,-16 l -5.52304,-5.66667 -4.84693,5 c -2.66582,2.75 -9.58947,9.95 -15.3859,16 -5.79643,6.05 -10.43919,10.62371 -10.31724,10.1638 z M 29.014669,474.5 c -2.916663,-2.53425 -3.101319,-11.08002 -0.299947,-13.88139 1.66001,-1.66001 4.752419,-1.64574 6.267973,0.0289 2.714344,2.99931 2.50704,11.86719 -0.331144,14.16541 -1.956928,1.58463 -3.555069,1.4959 -5.636882,-0.31296 z m 4.961876,-1.12284 c 1.096602,-2.04902 0.859171,-10.17247 -0.34768,-11.89549 -1.23021,-1.75637 -1.843618,-1.83834 -3.247912,-0.43405 -1.308033,1.30803 -1.506076,11.56059 -0.247619,12.81905 1.201241,1.20124 3.065424,0.9638 3.843211,-0.48951 z m 96.393935,-4.39847 c -1.72372,-3.86172 -2.99825,-7.38672 -2.83228,-7.83333 0.2991,-0.80483 5.79514,10.31125 5.79514,11.72102 0,1.39937 1.10045,-0.51647 3.6679,-6.38567 1.4081,-3.21894 2.8076,-5.6052 3.10999,-5.30282 0.55039,0.55039 -5.41122,14.8194 -6.19229,14.82117 -0.22793,5.2e-4 -1.82473,-3.15865 -3.54846,-7.02037 z m 21.20086,6.36026 c -3.70377,-1.49466 -4.76424,-7.37163 -2.05547,-11.39116 2.94126,-4.36454 8.66962,-6.61914 11.79511,-4.64238 0.62212,0.39346 1.29468,0.3552 1.84944,-0.10521 1.39044,-1.15396 1.62322,-0.25516 0.79046,3.05204 C 163.07434,465.7333 162,466.33711 162,463.3487 c 0,-2.49701 -2.40225,-4.27445 -4.92222,-3.64199 -3.61784,0.90802 -7.81974,8.10451 -6.64958,11.38856 1.28859,3.61645 5.07441,4.73546 7.5718,2.23806 1.73976,-1.73976 1.68702,-2.959 -0.16666,-3.853 -1.26102,-0.60817 -0.86272,-0.72724 2.5,-0.74734 3.52154,-0.0211 3.85625,0.0851 2.79823,0.88737 -0.66097,0.50121 -1.51,2.02764 -1.88674,3.39206 -0.46229,1.67431 -0.90441,2.26133 -1.35999,1.80575 -0.45558,-0.45558 -1.25093,-0.37454 -2.4466,0.2493 -1.99147,1.03905 -3.76186,1.12097 -5.8669,0.27148 z m 103.46581,-6.36026 c -1.72373,-3.86172 -2.99825,-7.38672 -2.83228,-7.83333 0.29909,-0.80483 5.79513,10.31125 5.79513,11.72102 0,1.39937 1.10046,-0.51647 3.6679,-6.38567 1.40811,-3.21894 2.80761,-5.6052 3.11,-5.30282 0.55038,0.55039 -5.41122,14.8194 -6.1923,14.82117 -0.22792,5.2e-4 -1.82472,-3.15865 -3.54845,-7.02037 z m 21.20085,6.36026 c -3.70376,-1.49466 -4.76423,-7.37163 -2.05546,-11.39116 2.94126,-4.36454 8.66962,-6.61914 11.7951,-4.64238 0.62212,0.39346 1.29468,0.3552 1.84945,-0.10521 1.39043,-1.15396 1.62322,-0.25516 0.79045,3.05204 -0.87654,3.48106 -1.95087,4.08487 -1.95087,1.09646 0,-2.49701 -2.40225,-4.27445 -4.92222,-3.64199 -3.61784,0.90802 -7.81975,8.10451 -6.64959,11.38856 1.2886,3.61645 5.07442,4.73546 7.57181,2.23806 1.73976,-1.73976 1.68701,-2.959 -0.16667,-3.853 -1.26102,-0.60817 -0.86272,-0.72724 2.5,-0.74734 3.52155,-0.0211 3.85626,0.0851 2.79824,0.88737 -0.66097,0.50121 -1.51,2.02764 -1.88674,3.39206 -0.4623,1.67431 -0.90441,2.26133 -1.35999,1.80575 -0.45559,-0.45558 -1.25093,-0.37454 -2.4466,0.2493 -1.99147,1.03905 -3.76186,1.12097 -5.86691,0.27148 z M 16,474.9835 c 0,-0.19241 0.75,-0.63499 1.666667,-0.9835 1.608208,-0.61144 1.666667,-0.84514 1.666667,-6.66287 v -6.0292 l -1.666667,0.41831 C 16.727984,461.96183 16,461.85573 16,461.48333 c 0,-0.36368 0.675,-0.80762 1.5,-0.98655 0.825,-0.17893 2.025,-0.54599 2.666667,-0.81571 1.070519,-0.44998 1.166667,0.11984 1.166667,6.91427 0,6.96021 0.08003,7.40466 1.333333,7.40466 C 23.4,474 24,474.3 24,474.66667 c 0,0.37037 -1.777778,0.66666 -4,0.66666 -2.2,0 -4,-0.15742 -4,-0.34983 z m 24.458334,-0.0807 c -0.943677,-0.94368 -0.409688,-2.23611 0.923883,-2.23611 0.931974,0 1.312003,0.36203 1.166666,1.11142 -0.237962,1.22698 -1.376001,1.83924 -2.090549,1.12469 z m 49.875001,-0.23611 C 90.559948,474.3 91.166088,474 91.680315,474 c 0.520046,0 1.224306,-1.10945 1.58696,-2.5 1.636806,-6.2761 2.732726,-10.72609 2.732726,-11.09623 0,-0.22208 -0.467706,-0.40377 -1.039346,-0.40377 -0.57164,0 -0.853934,-0.3 -0.62732,-0.66667 0.62662,-1.01389 12.307915,-0.86017 12.664835,0.16667 0.15931,0.45833 0.0306,1.88333 -0.28602,3.16667 -0.48036,1.94704 -0.58696,2.0519 -0.64391,0.63333 -0.0979,-2.43857 -1.27351,-3.3 -4.50357,-3.3 -2.708508,0 -2.866382,0.11182 -3.529615,2.5 -0.381854,1.375 -0.69596,2.875 -0.698,3.33333 -0.006,1.40916 3.101135,0.92335 4.264205,-0.66666 1.08063,-1.47732 1.09063,-1.46471 0.66149,0.83333 -0.23964,1.28333 -0.67779,2.93333 -0.97364,3.66667 -0.51039,1.26508 -0.54009,1.25654 -0.58018,-0.16667 -0.034,-1.20737 -0.42632,-1.5 -2.010928,-1.5 -1.707027,0 -2.060934,0.33225 -2.662947,2.5 -0.90234,3.24919 -0.883787,3.5 0.258933,3.5 0.52836,0 1.146067,0.3 1.37268,0.66667 0.257533,0.41669 -1.1173,0.66666 -3.666667,0.66666 -2.549366,0 -3.9242,-0.24997 -3.666666,-0.66666 z m 18.962435,-0.73687 c -1.10448,-2.06372 -0.21639,-5.43704 1.98719,-7.54821 1.70195,-1.63056 2.25882,-1.7969 4.65837,-1.3915 1.49893,0.25324 2.72178,0.65907 2.71743,0.90184 -0.005,0.24277 -0.4508,2.0914 -0.99209,4.10807 -1.17717,4.38569 -1.19625,4.66667 -0.31683,4.66667 0.37574,0 1.0115,-0.825 1.4128,-1.83334 0.40129,-1.00833 0.86332,-1.47496 1.02673,-1.03696 0.86203,2.31065 -2.51386,4.5458 -4.24745,2.81221 -0.5219,-0.5219 -0.85014,-0.5219 -1.17268,0 -0.80521,1.30285 -4.26033,0.84059 -5.07347,-0.67878 z m 4.93083,-0.47852 c 1.41486,-1.56341 2.22904,-7.09099 1.1433,-7.76202 -1.18173,-0.73035 -3.28838,1.53219 -4.04585,4.34522 -1.11073,4.12494 0.52215,6.04711 2.90255,3.4168 z m 52.4025,0.47852 c -1.10447,-2.06372 -0.21638,-5.43704 1.9872,-7.54821 1.70194,-1.63056 2.25881,-1.7969 4.65836,-1.3915 1.49894,0.25324 2.72178,0.65907 2.71743,0.90184 -0.005,0.24277 -0.45079,2.0914 -0.99209,4.10807 -1.17716,4.38569 -1.19624,4.66667 -0.31683,4.66667 0.37574,0 1.0115,-0.825 1.4128,-1.83334 0.40129,-1.00833 0.86333,-1.47496 1.02673,-1.03696 0.86204,2.31065 -2.51386,4.5458 -4.24745,2.81221 -0.5219,-0.5219 -0.85013,-0.5219 -1.17268,0 -0.80521,1.30285 -4.26033,0.84059 -5.07347,-0.67878 z m 4.93083,-0.47852 c 1.41486,-1.56341 2.22904,-7.09099 1.1433,-7.76202 -1.18173,-0.73035 -3.28837,1.53219 -4.04585,4.34522 -1.11072,4.12494 0.52215,6.04711 2.90255,3.4168 z m 46.10674,1.21539 C 217.89328,474.3 218.49942,474 219.01365,474 c 0.52005,0 1.22431,-1.10945 1.58696,-2.5 1.63681,-6.2761 2.73273,-10.72609 2.73273,-11.09623 0,-0.22208 -0.46771,-0.40377 -1.03935,-0.40377 -0.57164,0 -0.85393,-0.3 -0.62732,-0.66667 0.62662,-1.01389 12.30792,-0.86017 12.66483,0.16667 0.15932,0.45833 0.0306,1.88333 -0.28601,3.16667 -0.48037,1.94704 -0.58697,2.0519 -0.64391,0.63333 -0.0979,-2.43857 -1.27351,-3.3 -4.50358,-3.3 -2.7085,0 -2.86638,0.11182 -3.52961,2.5 -0.38185,1.375 -0.69596,2.875 -0.698,3.33333 -0.006,1.40916 3.10114,0.92335 4.26421,-0.66666 1.08062,-1.47732 1.09063,-1.46471 0.66149,0.83333 -0.23965,1.28333 -0.67779,2.93333 -0.97365,3.66667 -0.51038,1.26508 -0.54008,1.25654 -0.58018,-0.16667 -0.034,-1.20737 -0.42631,-1.5 -2.01092,-1.5 -1.70703,0 -2.06094,0.33225 -2.66295,2.5 -0.90234,3.24919 -0.88379,3.5 0.25893,3.5 0.52836,0 1.14607,0.3 1.37268,0.66667 0.25754,0.41669 -1.1173,0.66666 -3.66666,0.66666 -2.54937,0 -3.9242,-0.24997 -3.66667,-0.66666 z m 18.98641,-1.03574 c -0.47899,-1.25984 -0.27172,-3.19968 0.79729,-7.46196 1.04548,-4.16846 1.22884,-5.83146 0.66375,-6.01982 -1.56406,-0.52136 -0.72738,-1.48248 1.29054,-1.48248 1.52154,0 1.9743,0.25286 1.70576,0.95266 -0.20106,0.52396 -0.5597,1.98742 -0.79696,3.25215 -0.40554,2.16171 -0.33428,2.28094 1.18902,1.98974 3.34294,-0.63905 4.86262,3.20978 2.82396,7.15213 -1.89144,3.65763 -6.52626,4.63468 -7.67336,1.61758 z m 5.27812,-1.27796 c 1.1721,-2.44552 1.33489,-6.45463 0.27714,-6.82544 -2.05534,-0.72052 -5.23926,6.26505 -3.86731,8.48492 0.76904,1.24433 2.60519,0.39561 3.59017,-1.65948 z m 49.38855,1.27796 c -0.47899,-1.25984 -0.27173,-3.19968 0.79729,-7.46196 1.04548,-4.16846 1.22884,-5.83146 0.66375,-6.01982 -1.56407,-0.52136 -0.72738,-1.48248 1.29054,-1.48248 1.52153,0 1.97429,0.25286 1.70575,0.95266 -0.20106,0.52396 -0.55969,1.98742 -0.79695,3.25215 -0.40554,2.16171 -0.33429,2.28094 1.18902,1.98974 3.34294,-0.63905 4.86262,3.20978 2.82395,7.15213 -1.89144,3.65763 -6.52625,4.63468 -7.67335,1.61758 z m 5.27812,-1.27796 c 1.1721,-2.44552 1.33489,-6.45463 0.27713,-6.82544 -2.05533,-0.72052 -5.23926,6.26505 -3.8673,8.48492 0.76904,1.24433 2.60519,0.39561 3.59017,-1.65948 z m 42.75667,-9.23013 c -0.0117,-0.29911 0.27331,-1.09412 0.63326,-1.76669 0.49751,-0.92962 0.39085,-1.32402 -0.44481,-1.6447 -0.78719,-0.30207 -0.89485,-0.62625 -0.37922,-1.14188 0.92775,-0.92775 2.16957,-0.1594 2.16957,1.34236 0,1.14094 -1.93696,4.28397 -1.9788,3.21091 z m -7.76447,-3.41541 c -0.5484,-1.42909 0.23781,-4.25988 1.7876,-6.43635 0.70895,-0.99563 1.289,-1.98893 1.289,-2.20733 0,-0.78514 -4.56317,-0.3782 -4.89181,0.43625 -0.18494,0.45833 -0.35994,-0.0237 -0.38889,-1.07133 -0.0407,-1.47378 0.18592,-1.81311 1.0019,-1.5 0.57998,0.22257 2.40594,0.40466 4.05767,0.40466 h 3.00315 l -2.05768,2.798 c -1.4345,1.95062 -2.05767,3.55392 -2.05767,5.294 0,2.64069 -1.06877,4.03982 -1.74327,2.2821 z m 16.83796,0.17227 c -1.26972,-0.71057 -1.50269,-2.80708 -0.26136,-2.35192 0.45834,0.16805 0.75834,0.64305 0.66667,1.05555 -0.28537,1.28416 2.41529,0.82062 3.14321,-0.5395 1.0495,-1.961 0.87741,-2.88156 -0.40456,-2.16413 -1.68334,0.94204 -3.38234,0.18761 -4.23989,-1.88269 -1.92573,-4.64912 4.4812,-7.53008 6.56673,-2.95283 2.19528,4.81812 -1.62488,10.98781 -5.4708,8.83552 z m 4.10602,-6.93648 c 0.2507,-2.56905 -1.34485,-4.2068 -2.86738,-2.94322 -1.02635,0.8518 -1.37184,4.0726 -0.52743,4.91701 0.25991,0.25991 1.08491,0.38491 1.83333,0.27778 0.97874,-0.1401 1.41712,-0.77223 1.56148,-2.25157 z M 134.36667,450.07058 C 135.55014,448.95671 195.41256,418 196.38303,418 c 0.76035,0 61.14252,30.81685 62.22809,31.75893 0.15277,0.13259 0.14212,0.37672 -0.0237,0.54251 -0.16579,0.16579 -14.23569,-6.87594 -31.26645,-15.64829 l -30.965,-15.94972 -30.73842,15.98162 c -16.90612,8.78989 -30.99622,15.98162 -31.31133,15.98162 -0.3151,0 -0.28791,-0.26824 0.0604,-0.59609 z m 201.63334,-11.87581 c 0,-0.25954 1.11088,-1.60954 2.46863,-3 l 2.46863,-2.5281 -2.59198,-2.65443 c -3.38165,-3.46313 -2.46284,-4.38194 1.00029,-1.00029 l 2.65443,2.59198 L 344.66667,429 c 3.16373,-3.0893 3.65121,-1.74593 0.53364,1.47059 l -2.13303,2.20072 2.47993,2.53968 c 3.2372,3.31519 2.31017,4.23798 -1.00521,1.0006 l -2.54199,-2.48219 -2.52811,2.46863 c -2.44671,2.38915 -3.47189,2.97875 -3.47189,1.99674 z M 17.684524,409.58929 c -1.292644,-1.29265 -1.021482,-2.50256 0.632726,-2.8232 0.938072,-0.18183 1.125212,0.0779 0.840502,1.16666 -0.263788,1.00874 -0.05731,1.39773 0.737995,1.39038 1.664587,-0.0154 2.612319,-0.81918 3.395879,-2.8801 0.971146,-2.5543 0.933891,-3.60188 -0.09163,-2.57636 -1.177342,1.17734 -4.170532,0.97327 -5.378067,-0.36667 -2.409424,-2.67361 -1.705572,-7.96786 1.207935,-9.08588 4.23163,-1.62383 6.970132,1.143 6.970132,7.04223 0,4.57097 -1.17828,7.28856 -3.648038,8.41386 -2.340915,1.06659 -3.38262,1.0039 -4.667438,-0.28092 z m 4.896554,-6.48616 c 2.171834,-2.6169 0.995118,-8.34012 -1.618068,-7.86983 -1.706814,0.30717 -2.27374,1.29345 -2.286134,3.97719 -0.01834,3.97085 2.092578,6.07551 3.904202,3.89264 z m 309.656932,6.90248 c -3.70377,-1.49465 -4.76424,-7.37162 -2.05547,-11.39116 2.94126,-4.36454 8.66962,-6.61914 11.79511,-4.64238 0.62212,0.39347 1.29468,0.35521 1.84944,-0.1052 1.39044,-1.15396 1.62322,-0.25516 0.79046,3.05204 -0.87654,3.48106 -1.95088,4.08487 -1.95088,1.09646 0,-2.49702 -2.40225,-4.27446 -4.92222,-3.64199 -3.61784,0.90802 -7.81974,8.10451 -6.64958,11.38856 1.28859,3.61645 5.07441,4.73545 7.5718,2.23806 1.73976,-1.73976 1.68702,-2.95901 -0.16666,-3.85301 -1.26102,-0.60816 -0.86272,-0.72723 2.5,-0.74734 3.52154,-0.0211 3.85625,0.0851 2.79823,0.88738 -0.66097,0.50121 -1.51,2.02764 -1.88674,3.39206 -0.46229,1.67431 -0.90441,2.26133 -1.35999,1.80575 -0.45558,-0.45559 -1.25093,-0.37454 -2.4466,0.24929 -1.99147,1.03906 -3.76186,1.12098 -5.8669,0.27148 z M 29.791667,409.56945 c -0.943677,-0.94368 -0.409688,-2.23612 0.923883,-2.23612 0.931974,0 1.312003,0.36204 1.166666,1.11142 -0.237962,1.22699 -1.376001,1.83924 -2.090549,1.1247 z m 160.541673,-0.23612 c 0.22661,-0.36666 0.83275,-0.66666 1.34698,-0.66666 0.52004,0 1.2243,-1.10946 1.58696,-2.5 1.6368,-6.2761 2.73272,-10.7261 2.73272,-11.09623 0,-0.22208 -0.4677,-0.40377 -1.03934,-0.40377 -0.57164,0 -0.85394,-0.3 -0.62732,-0.66667 0.62662,-1.01389 12.30792,-0.86017 12.66483,0.16667 0.15931,0.45833 0.0306,1.88333 -0.28601,3.16666 -0.48037,1.94705 -0.58697,2.0519 -0.64392,0.63334 -0.0979,-2.43857 -1.2735,-3.3 -4.50357,-3.3 -2.70851,0 -2.86638,0.11182 -3.52961,2.5 -0.38186,1.375 -0.69596,2.875 -0.698,3.33333 -0.006,1.40916 3.10114,0.92335 4.2642,-0.66667 1.08063,-1.47731 1.09064,-1.4647 0.6615,0.83334 -0.23965,1.28333 -0.6778,2.93333 -0.97365,3.66666 -0.51039,1.26508 -0.54009,1.25655 -0.58018,-0.16666 -0.034,-1.20738 -0.42631,-1.5 -2.01093,-1.5 -1.70702,0 -2.06093,0.33225 -2.66294,2.5 -0.90234,3.24918 -0.88379,3.5 0.25893,3.5 0.52836,0 1.14607,0.3 1.37268,0.66666 C 197.9242,409.75003 196.54937,410 194,410 c -2.54936,0 -3.9242,-0.24997 -3.66666,-0.66667 z m 18.98641,-1.03574 c -0.47899,-1.25984 -0.27173,-3.19968 0.79729,-7.46196 1.04548,-4.16845 1.22884,-5.83145 0.66375,-6.01981 -1.56407,-0.52136 -0.72738,-1.48249 1.29054,-1.48249 1.52153,0 1.97429,0.25287 1.70575,0.95266 -0.20106,0.52396 -0.55969,1.98743 -0.79695,3.25216 -0.40554,2.1617 -0.33429,2.28094 1.18902,1.98974 3.34294,-0.63905 4.86262,3.20978 2.82395,7.15212 -1.89144,3.65764 -6.52625,4.63468 -7.67335,1.61758 z m 5.27812,-1.27796 c 1.1721,-2.44551 1.33489,-6.45462 0.27713,-6.82543 -2.05533,-0.72053 -5.23926,6.26505 -3.8673,8.48491 0.76904,1.24434 2.60519,0.39562 3.59017,-1.65948 z m 132.72188,1.27796 c -0.47899,-1.25984 -0.27172,-3.19968 0.79729,-7.46196 1.04548,-4.16845 1.22884,-5.83145 0.66375,-6.01981 -1.56406,-0.52136 -0.72738,-1.48249 1.29054,-1.48249 1.52154,0 1.9743,0.25287 1.70576,0.95266 -0.20106,0.52396 -0.5597,1.98743 -0.79696,3.25216 -0.40554,2.1617 -0.33428,2.28094 1.18902,1.98974 3.34294,-0.63905 4.86262,3.20978 2.82396,7.15212 -1.89144,3.65764 -6.52626,4.63468 -7.67336,1.61758 z m 5.27812,-1.27796 c 1.1721,-2.44551 1.33489,-6.45462 0.27714,-6.82543 -2.05534,-0.72053 -5.23926,6.26505 -3.86731,8.48491 0.76904,1.24434 2.60519,0.39562 3.59017,-1.65948 z m -165.26453,-1.6863 v -2.66666 h -6 c -3.55556,0 -6,-0.27161 -6,-0.66667 0,-0.4 2.66666,-0.66667 6.66666,-0.66667 h 6.66667 v 3.33334 c 0,1.83333 -0.3,3.33333 -0.66667,3.33333 -0.36666,0 -0.66666,-1.2 -0.66666,-2.66667 z m 208.65312,-8.6348 c 0.63459,-1.19052 0.66426,-1.70385 0.10915,-1.88888 -1.12382,-0.37461 -0.92765,-2.14298 0.23773,-2.14298 1.38964,0 1.30733,3.58321 -0.10915,4.7517 -1.01422,0.83666 -1.03456,0.77505 -0.23773,-0.71984 z m -8.69534,-2.25823 c -2.00957,-0.998 -3.04921,-4.66911 -2.04998,-7.23877 0.90399,-2.32472 3.61767,-4.10866 5.39289,-3.54522 1.37394,0.43607 1.94314,2.34369 0.69931,2.34369 -0.36667,0 -0.66667,-0.45 -0.66667,-1 0,-1.38503 -1.08377,-1.24956 -2.66666,0.33333 -1.80618,1.80618 -1.68876,2.78128 0.27556,2.28826 2.75464,-0.69136 5.45167,3.09282 3.8809,5.44528 -1.07344,1.60761 -3.19046,2.20522 -4.86535,1.37343 z m 3.24293,-2.83041 c 0.2507,-2.56905 -1.34485,-4.2068 -2.86738,-2.94322 -1.92176,1.59492 -0.97744,5.51994 1.25152,5.20191 1.0378,-0.14807 1.46867,-0.75035 1.61586,-2.25869 z m 12.93262,2.25678 c -1.09837,-1.09838 -1.00324,-2.86806 0.20822,-3.87349 0.76176,-0.63221 0.82505,-1.05746 0.25889,-1.73964 -1.15533,-1.39209 -0.14573,-4.17494 1.68095,-4.63341 3.15512,-0.79188 5.68847,2.14334 3.62814,4.20368 -0.56508,0.56508 -0.48053,1.03376 0.33333,1.84762 2.38369,2.38369 0.86257,4.99524 -2.90953,4.99524 -1.32,0 -2.76,-0.36 -3.2,-0.8 z m 5.66258,-0.96308 C 409.60062,391.67523 407.76285,390 405.94391,390 c -1.45334,0 -2.19474,1.89447 -1.20711,3.0845 1.05081,1.26614 3.88191,1.14954 4.39245,-0.18091 z m -0.594,-6.70429 c 0.21924,-1.47983 -1.25651,-2.39233 -2.86858,-1.77372 -1.35138,0.51857 -1.26358,2.02159 0.16667,2.85313 1.57263,0.91433 2.45901,0.56022 2.70191,-1.07941 z m -211.86858,-1.38003 c 0,-0.29257 16.19763,-7.67971 35.99475,-16.41586 25.42246,-11.21854 36.43686,-15.77246 37.5,-15.50444 0.82788,0.20872 10.05525,4.17328 20.50525,8.81014 56.2152,24.94372 51.65368,22.85944 51.14412,23.369 -0.16688,0.16688 -7.01757,-2.67576 -15.22377,-6.31698 -8.20619,-3.64121 -24.45062,-10.84784 -36.09874,-16.01474 l -21.17838,-9.39436 -34.15495,15.08375 c -41.03692,18.12302 -38.48828,17.03813 -38.48828,16.38349 z m 195.33334,-11.95783 c 0,-0.25954 1.11088,-1.60954 2.46863,-3 l 2.46863,-2.52811 -2.59198,-2.65442 c -3.38165,-3.46313 -2.46284,-4.38194 1.00029,-1.0003 l 2.65443,2.59199 2.66666,-2.60393 c 3.16373,-3.0893 3.65121,-1.74593 0.53364,1.47058 l -2.13303,2.20073 2.47993,2.53967 c 3.2372,3.3152 2.31017,4.23799 -1.00521,1.00061 l -2.54199,-2.48219 -2.52811,2.46863 c -2.44671,2.38915 -3.47189,2.97875 -3.47189,1.99674 z M 17.636364,343.69697 c -1.995132,-1.99513 -2.04469,-2.99806 -0.260242,-5.26661 1.270828,-1.6156 1.296332,-1.86337 0.333333,-3.23825 C 16.307808,333.19098 16.39665,331.60335 18,330 c 1.59464,-1.59464 4.82974,-1.74169 6.285714,-0.28571 1.375279,1.37528 1.349588,4.71713 -0.04225,5.49604 -0.979325,0.54806 -0.945515,0.75428 0.333333,2.03313 1.40204,1.40204 1.87042,4.38953 0.912996,5.82341 -0.732098,1.09641 -3.215026,2.26646 -4.8096,2.26646 -0.774106,0 -2.143828,-0.73636 -3.043829,-1.63636 z m 6.337057,-0.66494 c 1.226847,-1.47826 0.577659,-3.16346 -1.740129,-4.51712 -1.92279,-1.12297 -2.183862,-1.13577 -3.164488,-0.15514 -1.261802,1.2618 -1.39783,3.7112 -0.268804,4.84023 1.104611,1.10461 4.200698,1.00409 5.173421,-0.16797 z M 23.2,334.53333 c 1.257579,-1.25758 0.942252,-3.74362 -0.578038,-4.55726 -1.071956,-0.57369 -1.7383,-0.50145 -3,0.32525 -2.074311,1.35914 -2.040294,1.94203 0.211372,3.62195 2.171214,1.61991 2.328346,1.64838 3.366666,0.61006 z m 363.70467,10.13895 c -3.70376,-1.49465 -4.76423,-7.37163 -2.05546,-11.39116 2.94126,-4.36454 8.66962,-6.61914 11.7951,-4.64238 0.62212,0.39347 1.29468,0.35521 1.84945,-0.10521 1.39043,-1.15396 1.62322,-0.25516 0.79045,3.05204 -0.87654,3.48106 -1.95087,4.08488 -1.95087,1.09646 0,-2.49701 -2.40225,-4.27445 -4.92222,-3.64198 -3.61784,0.90802 -7.81975,8.1045 -6.64959,11.38856 1.2886,3.61644 5.07442,4.73545 7.57181,2.23806 1.73976,-1.73976 1.68701,-2.95901 -0.16667,-3.85301 -1.26102,-0.60817 -0.86272,-0.72723 2.5,-0.74734 3.52155,-0.0211 3.85626,0.0851 2.79824,0.88737 -0.66097,0.50122 -1.51,2.02764 -1.88674,3.39206 -0.4623,1.67432 -0.90441,2.26134 -1.35999,1.80576 -0.45559,-0.45559 -1.25093,-0.37454 -2.4466,0.24929 -1.99147,1.03905 -3.76186,1.12097 -5.86691,0.27148 z M 29.791667,344.23611 C 28.84799,343.29243 29.381979,342 30.71555,342 c 0.931974,0 1.312003,0.36203 1.166666,1.11142 -0.237962,1.22699 -1.376001,1.83924 -2.090549,1.12469 z M 262.33334,344 c 0.22661,-0.36667 0.83275,-0.66667 1.34698,-0.66667 0.52004,0 1.2243,-1.10945 1.58696,-2.5 1.6368,-6.2761 2.73272,-10.72609 2.73272,-11.09622 0,-0.22208 -0.4677,-0.40378 -1.03934,-0.40378 -0.57164,0 -0.85394,-0.3 -0.62732,-0.66666 0.62662,-1.0139 12.30792,-0.86018 12.66483,0.16666 0.15931,0.45834 0.0306,1.88334 -0.28601,3.16667 -0.48037,1.94705 -0.58697,2.0519 -0.64392,0.63333 -0.0979,-2.43856 -1.2735,-3.3 -4.50357,-3.3 -2.70851,0 -2.86638,0.11182 -3.52961,2.5 -0.38186,1.375 -0.69596,2.875 -0.698,3.33334 -0.006,1.40916 3.10114,0.92334 4.2642,-0.66667 1.08063,-1.47731 1.09064,-1.46471 0.6615,0.83333 -0.23965,1.28334 -0.6778,2.93334 -0.97365,3.66667 -0.51039,1.26508 -0.54009,1.25655 -0.58018,-0.16667 -0.034,-1.20737 -0.42631,-1.5 -2.01093,-1.5 -1.70702,0 -2.06093,0.33226 -2.66294,2.5 -0.90234,3.24919 -0.88379,3.5 0.25893,3.5 0.52836,0 1.14607,0.3 1.37268,0.66667 0.25753,0.41669 -1.1173,0.66667 -3.66667,0.66667 -2.54936,0 -3.9242,-0.24998 -3.66666,-0.66667 z m 18.96243,-0.73687 c -1.10447,-2.06372 -0.21639,-5.43704 1.98719,-7.5482 1.70195,-1.63057 2.25882,-1.79691 4.65837,-1.39151 1.49893,0.25325 2.72178,0.65907 2.71743,0.90185 -0.005,0.24276 -0.4508,2.0914 -0.99209,4.10806 -1.17717,4.38569 -1.19625,4.66667 -0.31683,4.66667 0.37574,0 1.0115,-0.825 1.4128,-1.83333 0.40129,-1.00834 0.86332,-1.47497 1.02673,-1.03696 0.86203,2.31064 -2.51386,4.5458 -4.24745,2.8122 -0.5219,-0.5219 -0.85014,-0.5219 -1.17268,0 -0.80521,1.30286 -4.26033,0.8406 -5.07347,-0.67878 z m 4.93083,-0.47852 c 1.41486,-1.5634 2.22904,-7.09099 1.1433,-7.76202 -1.18173,-0.73034 -3.28838,1.53219 -4.04585,4.34522 -1.11073,4.12494 0.52215,6.04712 2.90255,3.4168 z m 115.73584,0.47852 c -1.10447,-2.06372 -0.21639,-5.43704 1.98719,-7.5482 1.70195,-1.63057 2.25882,-1.79691 4.65837,-1.39151 1.49893,0.25325 2.72178,0.65907 2.71743,0.90185 -0.005,0.24276 -0.4508,2.0914 -0.99209,4.10806 -1.17717,4.38569 -1.19625,4.66667 -0.31683,4.66667 0.37574,0 1.0115,-0.825 1.4128,-1.83333 0.40129,-1.00834 0.86332,-1.47497 1.02673,-1.03696 0.86203,2.31064 -2.51386,4.5458 -4.24745,2.8122 -0.5219,-0.5219 -0.85014,-0.5219 -1.17268,0 -0.80521,1.30286 -4.26033,0.8406 -5.07347,-0.67878 z m 4.93083,-0.47852 c 1.41486,-1.5634 2.22904,-7.09099 1.1433,-7.76202 -1.18173,-0.73034 -3.28838,1.53219 -4.04585,4.34522 -1.11073,4.12494 0.52215,6.04712 2.90255,3.4168 z M 258.66667,340 v -2.66667 h -6 c -3.55555,0 -6,-0.2716 -6,-0.66666 0,-0.4 2.66667,-0.66667 6.66667,-0.66667 H 260 v 3.33333 c 0,1.83334 -0.3,3.33334 -0.66666,3.33334 -0.36667,0 -0.66667,-1.2 -0.66667,-2.66667 z M 269.7,319.43038 c 0.34834,-0.31329 14.80096,-7.73829 32.11696,-16.5 L 333.30057,287 l 32.51639,16.26427 c 17.88401,8.94535 32.18186,16.38186 31.77301,16.52557 -0.40886,0.14371 -14.68518,-6.80021 -31.72515,-15.43094 -17.03998,-8.63073 -31.54423,-15.69223 -32.23169,-15.69223 -0.68745,0 -15.26023,7.05 -32.38394,15.66666 C 284.12548,312.95 269.87925,320 269.59092,320 c -0.28834,0 -0.23925,-0.25633 0.10908,-0.56962 z M 18.889576,278.95264 c -0.662712,-1.72701 0.902999,-6.78526 3.114635,-10.06229 L 23.954889,266 h -3.277651 c -2.418263,0 -3.455819,0.30589 -3.957172,1.16667 -0.612209,1.0511 -0.681529,1.02348 -0.699793,-0.27881 -0.04391,-3.13077 0.441375,-3.41639 5.18701,-3.05295 2.452661,0.18784 4.572977,0.44042 4.711813,0.56129 0.138837,0.12087 -0.734208,1.75731 -1.940099,3.63653 -1.624829,2.53208 -2.294347,4.46675 -2.585763,7.47196 -0.391312,4.03538 -1.625834,5.73552 -2.503658,3.44795 z m 312.681764,0.38631 c -3.70377,-1.49466 -4.76424,-7.37163 -2.05547,-11.39116 2.94126,-4.36454 8.66962,-6.61914 11.79511,-4.64238 0.62212,0.39346 1.29468,0.3552 1.84945,-0.10521 1.39043,-1.15396 1.62322,-0.25516 0.79045,3.05204 -0.87654,3.48106 -1.95087,4.08487 -1.95087,1.09646 0,-2.49701 -2.40226,-4.27445 -4.92222,-3.64199 -3.61784,0.90802 -7.81975,8.10451 -6.64959,11.38856 1.28859,3.61645 5.07441,4.73546 7.57181,2.23806 1.73976,-1.73976 1.68701,-2.959 -0.16667,-3.853 -1.26102,-0.60817 -0.86272,-0.72724 2.5,-0.74734 3.52155,-0.0211 3.85625,0.0851 2.79823,0.88737 -0.66096,0.50121 -1.51,2.02764 -1.88674,3.39206 -0.46229,1.67431 -0.9044,2.26133 -1.35998,1.80575 -0.45559,-0.45558 -1.25094,-0.37454 -2.4466,0.2493 -1.99148,1.03905 -3.76186,1.12097 -5.86691,0.27148 z M 29.125,278.90278 c -0.943676,-0.94368 -0.409688,-2.23611 0.923883,-2.23611 0.931975,0 1.312003,0.36203 1.166667,1.11142 -0.237962,1.22698 -1.376002,1.83924 -2.09055,1.12469 z m 317.52809,-1.27185 c -0.479,-1.25984 -0.27173,-3.19968 0.79728,-7.46196 1.04548,-4.16846 1.22884,-5.83146 0.66376,-6.01982 -1.56407,-0.52136 -0.72738,-1.48248 1.29054,-1.48248 1.52153,0 1.97429,0.25286 1.70575,0.95266 -0.20106,0.52396 -0.55969,1.98742 -0.79695,3.25215 -0.40554,2.16171 -0.33429,2.28094 1.18902,1.98974 3.34294,-0.63905 4.86262,3.20978 2.82395,7.15213 -1.89144,3.65763 -6.52625,4.63468 -7.67335,1.61758 z m 5.27812,-1.27796 c 1.1721,-2.44552 1.33488,-6.45463 0.27713,-6.82544 -2.05533,-0.72052 -5.23926,6.26505 -3.86731,8.48492 0.76904,1.24433 2.6052,0.39561 3.59018,-1.65948 z M 324,274.66667 V 272 h -6 c -3.55555,0 -6,-0.27161 -6,-0.66667 0,-0.4 2.66667,-0.66666 6.66667,-0.66666 h 6.66667 V 274 c 0,1.83333 -0.3,3.33333 -0.66667,3.33333 -0.36667,0 -0.66667,-1.2 -0.66667,-2.66666 z M 18.347213,250.40782 c -5.349727,-5.34973 -0.572123,-17.16554 5.931596,-14.66983 1.393305,0.53466 1.404048,3.59534 0.01262,3.59534 -0.687209,0 -0.970901,-0.48954 -0.833333,-1.43803 0.479856,-3.30844 -3.692118,-1.14569 -4.519954,2.34314 -0.418954,1.76565 -0.351364,1.85123 0.923278,1.16906 2.946545,-1.57695 6.13858,1.01303 6.13858,4.98077 0,2.283 -0.348616,3.12251 -1.756572,4.23001 -2.293842,1.80433 -3.940183,1.74557 -5.896215,-0.21046 z m 4.962665,-1.03066 C 24.858612,246.48333 23.657406,242 21.333334,242 c -1.515203,0 -2.666667,1.87113 -2.666667,4.33333 0,2.46221 1.151464,4.33334 2.666667,4.33334 0.707532,0 1.596976,-0.58028 1.976544,-1.28951 z m 306.928132,1.96179 c -3.70377,-1.49466 -4.76424,-7.37163 -2.05547,-11.39116 2.94126,-4.36454 8.66962,-6.61914 11.79511,-4.64238 0.62212,0.39346 1.29468,0.3552 1.84944,-0.10521 1.39044,-1.15396 1.62322,-0.25516 0.79046,3.05204 -0.87654,3.48106 -1.95088,4.08487 -1.95088,1.09646 0,-2.49701 -2.40225,-4.27445 -4.92222,-3.64199 -3.61784,0.90802 -7.81975,8.10451 -6.64958,11.38856 1.28859,3.61645 5.07441,4.73546 7.5718,2.23806 1.73976,-1.73976 1.68702,-2.959 -0.16666,-3.853 -1.26102,-0.60817 -0.86272,-0.72724 2.5,-0.74734 3.52154,-0.0211 3.85625,0.0851 2.79823,0.88737 -0.66097,0.50121 -1.51,2.02764 -1.88674,3.39206 -0.46229,1.67431 -0.90441,2.26133 -1.35999,1.80575 -0.45558,-0.45558 -1.25093,-0.37454 -2.4466,0.2493 -1.99147,1.03905 -3.76186,1.12097 -5.8669,0.27148 z M 29.791667,250.90278 c -0.943677,-0.94368 -0.409688,-2.23611 0.923883,-2.23611 0.931974,0 1.312003,0.36203 1.166666,1.11142 -0.237962,1.22698 -1.376001,1.83924 -2.090549,1.12469 z M 345.29577,249.9298 c -1.10447,-2.06372 -0.21638,-5.43704 1.9872,-7.54821 1.70194,-1.63056 2.25881,-1.7969 4.65836,-1.3915 1.49894,0.25324 2.72178,0.65907 2.71743,0.90184 -0.005,0.24277 -0.45079,2.0914 -0.99209,4.10807 -1.17716,4.38569 -1.19624,4.66667 -0.31683,4.66667 0.37574,0 1.0115,-0.825 1.4128,-1.83334 0.40129,-1.00833 0.86333,-1.47496 1.02673,-1.03696 0.86204,2.31065 -2.51386,4.5458 -4.24745,2.81221 -0.5219,-0.5219 -0.85013,-0.5219 -1.17268,0 -0.80521,1.30285 -4.26033,0.84059 -5.07347,-0.67878 z m 4.93083,-0.47852 c 1.41486,-1.56341 2.22904,-7.09099 1.1433,-7.76202 -1.18173,-0.73035 -3.28837,1.53219 -4.04585,4.34522 -1.11072,4.12494 0.52215,6.04711 2.90255,3.4168 z m -26.89326,-2.78461 V 244 h -6 c -3.55556,0 -6,-0.27161 -6,-0.66667 0,-0.4 2.66666,-0.66666 6.66666,-0.66666 h 6.66667 V 246 c 0,1.83333 -0.3,3.33333 -0.66667,3.33333 -0.36666,0 -0.66666,-1.2 -0.66666,-2.66666 z m 9.77778,-20.44445 c -0.73715,-0.73715 -0.52345,-30.76137 0.22222,-31.22222 0.43739,-0.27032 0.66667,5.10419 0.66667,15.62732 0,8.82164 -0.1,16.03935 -0.22222,16.03935 -0.12223,0 -0.42223,-0.2 -0.66667,-0.44445 z M 18.148338,185.62887 c -1.809507,-1.26744 -2.106102,-4.9622 -0.398338,-4.9622 0.847168,0 0.996488,0.43422 0.684956,1.99188 -0.343892,1.71946 -0.171744,2.04878 1.258657,2.40778 0.942173,0.23648 2.084711,0.0609 2.648378,-0.40685 0.999211,-0.82927 1.348012,-4.9543 0.586683,-6.93829 -0.510677,-1.3308 -2.507558,-1.36522 -3.589248,-0.0619 -1.355564,1.63335 -2.006092,0.4844 -2.006092,-3.54312 v -3.8051 h 3.992592 c 3.868168,0 3.954594,0.038 2.773257,1.21934 -0.670635,0.67063 -2.167301,1.24628 -3.325926,1.27923 -1.818701,0.0517 -2.10659,0.30105 -2.10659,1.82457 0,1.61454 0.192965,1.74216 2.268021,1.4999 5.366934,-0.62656 7.24897,7.02432 2.350965,9.55718 -2.391987,1.23694 -3.297881,1.22592 -5.137315,-0.0625 z m 298.235292,0.35894 c 5.39875,-0.56978 7.25102,-1.49629 8.36422,-4.1838 0.64165,-1.54909 0.58921,-2.31406 -0.2842,-4.14563 -1.21745,-2.553 -4.00412,-3.64845 -9.29698,-3.65466 C 313.425,174.00167 312,173.7 312,173.33333 c 0,-0.8784 6.31724,-0.84882 9.53468,0.0446 4.37704,1.21547 6.33042,6.0542 4.02181,9.96238 -1.55309,2.62917 -3.55003,3.3402 -9.08785,3.23581 l -4.80197,-0.0905 4.71696,-0.49782 z m 23.85438,0.0178 c -3.70377,-1.49466 -4.76424,-7.37163 -2.05547,-11.39116 2.94126,-4.36454 8.66962,-6.61914 11.79511,-4.64238 0.62212,0.39346 1.29468,0.3552 1.84944,-0.10521 1.39044,-1.15396 1.62322,-0.25516 0.79046,3.05204 -0.87654,3.48106 -1.95088,4.08487 -1.95088,1.09646 0,-2.49701 -2.40225,-4.27445 -4.92222,-3.64199 -3.61784,0.90802 -7.81974,8.10451 -6.64958,11.38856 1.28859,3.61645 5.07441,4.73546 7.5718,2.23806 1.73976,-1.73976 1.68702,-2.959 -0.16666,-3.853 -1.26102,-0.60817 -0.86272,-0.72724 2.5,-0.74734 3.52154,-0.0211 3.85625,0.0851 2.79823,0.88737 -0.66097,0.50121 -1.51,2.02764 -1.88674,3.39206 -0.46229,1.67431 -0.90441,2.26133 -1.35999,1.80575 -0.45558,-0.45558 -1.25093,-0.37454 -2.4466,0.2493 -1.99147,1.03905 -3.76186,1.12097 -5.8669,0.27148 z m 34.76108,-2.28038 c -0.973,-1.66028 -1.57812,-3.32767 -1.34474,-3.7053 0.76576,-1.23903 2.11642,-0.72 2.96331,1.13872 l 0.83167,1.82533 1.61962,-3.40769 c 1.72398,-3.62731 7.80863,-10.24296 9.42081,-10.24296 0.53127,0 -0.43089,1.35758 -2.13813,3.01682 -1.92746,1.87328 -3.8642,4.71622 -5.10934,7.5 -3.57104,7.98383 -3.76483,8.10412 -6.2432,3.87509 z m -345.207423,1.84422 c -0.943677,-0.94368 -0.409688,-2.23612 0.923883,-2.23612 0.931974,0 1.312003,0.36204 1.166666,1.11142 -0.237962,1.22699 -1.376001,1.83924 -2.090549,1.1247 z m 246.541673,-0.23612 c 0.22661,-0.36666 0.83275,-0.66666 1.34698,-0.66666 0.52004,0 1.2243,-1.10946 1.58696,-2.5 1.6368,-6.2761 2.73272,-10.7261 2.73272,-11.09623 0,-0.22208 -0.4677,-0.40377 -1.03934,-0.40377 -0.57164,0 -0.85394,-0.3 -0.62732,-0.66667 0.62662,-1.01389 12.30792,-0.86017 12.66483,0.16667 0.15931,0.45833 0.0306,1.88333 -0.28601,3.16666 -0.48037,1.94705 -0.58697,2.0519 -0.64392,0.63334 -0.0979,-2.43857 -1.2735,-3.3 -4.50357,-3.3 -2.70851,0 -2.86638,0.11182 -3.52961,2.5 -0.38186,1.375 -0.69596,2.875 -0.698,3.33333 -0.006,1.40916 3.10114,0.92335 4.2642,-0.66667 1.08063,-1.47731 1.09064,-1.4647 0.6615,0.83334 -0.23965,1.28333 -0.6778,2.93333 -0.97365,3.66666 -0.51039,1.26508 -0.54009,1.25655 -0.58018,-0.16666 -0.034,-1.20738 -0.42631,-1.5 -2.01093,-1.5 -1.70702,0 -2.06093,0.33225 -2.66294,2.5 -0.90234,3.24918 -0.88379,3.5 0.25893,3.5 0.52836,0 1.14607,0.3 1.37268,0.66666 C 283.9242,185.75003 282.54937,186 280,186 c -2.54936,0 -3.9242,-0.24997 -3.66666,-0.66667 z m 18.98641,-1.03574 c -0.47899,-1.25984 -0.27173,-3.19968 0.79729,-7.46196 1.04548,-4.16845 1.22884,-5.83145 0.66375,-6.01981 -1.56407,-0.52136 -0.72738,-1.48249 1.29054,-1.48249 1.52153,0 1.97429,0.25287 1.70575,0.95266 -0.20106,0.52396 -0.55969,1.98743 -0.79695,3.25216 -0.40554,2.1617 -0.33429,2.28094 1.18902,1.98974 3.34294,-0.63905 4.86262,3.20978 2.82395,7.15212 -1.89144,3.65764 -6.52625,4.63468 -7.67335,1.61758 z m 5.27812,-1.27796 c 1.1721,-2.44551 1.33489,-6.45462 0.27713,-6.82543 -2.05533,-0.72053 -5.23926,6.26505 -3.8673,8.48491 0.76904,1.24434 2.60519,0.39562 3.59017,-1.65948 z m 54.05522,1.27796 c -0.479,-1.25984 -0.27173,-3.19968 0.79728,-7.46196 1.04548,-4.16845 1.22884,-5.83145 0.66376,-6.01981 -1.56407,-0.52136 -0.72738,-1.48249 1.29054,-1.48249 1.52153,0 1.97429,0.25287 1.70575,0.95266 -0.20106,0.52396 -0.55969,1.98743 -0.79695,3.25216 -0.40554,2.1617 -0.33429,2.28094 1.18902,1.98974 3.34294,-0.63905 4.86262,3.20978 2.82395,7.15212 -1.89144,3.65764 -6.52625,4.63468 -7.67335,1.61758 z m 5.27812,-1.27796 c 1.1721,-2.44551 1.33488,-6.45462 0.27713,-6.82543 -2.05533,-0.72053 -5.23926,6.26505 -3.86731,8.48491 0.76904,1.24434 2.6052,0.39562 3.59018,-1.65948 z m -43.54758,-25.69849 c 5.39875,-0.56978 7.25102,-1.49629 8.36422,-4.18379 0.64165,-1.5491 0.58921,-2.31406 -0.2842,-4.14564 -1.21745,-2.553 -4.00412,-3.64844 -9.29698,-3.65466 C 313.425,145.33501 312,145.03333 312,144.66667 c 0,-0.8784 6.31724,-0.84883 9.53468,0.0446 4.37704,1.21546 6.33042,6.05419 4.02181,9.96237 -1.55309,2.62917 -3.55003,3.34021 -9.08785,3.23581 l -4.80197,-0.0905 4.71696,-0.49782 z m 23.85438,0.0178 c -3.70377,-1.49465 -4.76424,-7.37163 -2.05547,-11.39116 2.94126,-4.36454 8.66962,-6.61914 11.79511,-4.64238 0.62212,0.39347 1.29468,0.35521 1.84944,-0.10521 1.39044,-1.15396 1.62322,-0.25516 0.79046,3.05204 -0.87654,3.48106 -1.95088,4.08488 -1.95088,1.09646 0,-2.49701 -2.40225,-4.27445 -4.92222,-3.64198 -3.61784,0.90802 -7.81974,8.1045 -6.64958,11.38856 1.28859,3.61644 5.07441,4.73545 7.5718,2.23806 1.73976,-1.73976 1.68702,-2.95901 -0.16666,-3.85301 -1.26102,-0.60817 -0.86272,-0.72723 2.5,-0.74734 3.52154,-0.0211 3.85625,0.0851 2.79823,0.88737 -0.66097,0.50122 -1.51,2.02764 -1.88674,3.39206 -0.46229,1.67432 -0.90441,2.26134 -1.35999,1.80576 -0.45558,-0.45559 -1.25093,-0.37454 -2.4466,0.24929 -1.99147,1.03905 -3.76186,1.12097 -5.8669,0.27148 z m 37.42774,-2.28037 c -0.97299,-1.66029 -1.57812,-3.32768 -1.34473,-3.70531 0.76576,-1.23903 2.11641,-0.72 2.96331,1.13873 l 0.83167,1.82532 1.61961,-3.40769 c 1.72399,-3.62731 7.80864,-10.24295 9.42082,-10.24295 0.53127,0 -0.43089,1.35757 -2.13814,3.01682 -1.92745,1.87327 -3.86419,4.71622 -5.10934,7.5 -3.57104,7.98382 -3.76482,8.10411 -6.2432,3.87508 z m -358.332416,1.6081 c 0,-0.36667 0.45,-0.66667 1,-0.66667 0.555555,0 1,-0.59259 1,-1.33333 0,-1.1358 -0.444445,-1.33334 -3,-1.33334 -1.65,0 -3,-0.30248 -3,-0.67218 0,-0.92068 6.877224,-11.2941 7.5,-11.3128 0.275,-0.008 0.5,2.39465 0.5,5.3398 0,4.93005 0.118985,5.40264 1.5,5.95774 1.086806,0.43684 1.189465,0.61457 0.372678,0.64518 -1.91269,0.0717 -2.151527,1.49159 -0.468558,2.78558 l 1.59588,1.22704 -3.5,0.0148 c -1.925,0.008 -3.5,-0.28516 -3.5,-0.65182 z m 2,-7.66667 c 0,-2.01667 -0.105158,-3.66667 -0.233683,-3.66667 -0.271328,0 -4.432984,6.61314 -4.432984,7.0443 0,0.15897 1.05,0.28904 2.333333,0.28904 h 2.333334 z m 7.791666,7.90278 c -0.943676,-0.94368 -0.409688,-2.23611 0.923883,-2.23611 0.931975,0 1.312003,0.36203 1.166667,1.11142 -0.237962,1.22698 -1.376002,1.83924 -2.09055,1.12469 z m 244.54167,-0.23611 C 273.89328,156.3 274.49942,156 275.01365,156 c 0.52005,0 1.22431,-1.10945 1.58696,-2.5 1.63681,-6.2761 2.73273,-10.72609 2.73273,-11.09623 0,-0.22208 -0.46771,-0.40377 -1.03935,-0.40377 -0.57164,0 -0.85393,-0.3 -0.62732,-0.66667 0.62662,-1.01389 12.30792,-0.86017 12.66483,0.16667 0.15932,0.45833 0.0306,1.88333 -0.28601,3.16667 -0.48037,1.94704 -0.58697,2.0519 -0.64391,0.63333 -0.0979,-2.43857 -1.27351,-3.3 -4.50358,-3.3 -2.7085,0 -2.86638,0.11182 -3.52961,2.5 -0.38185,1.375 -0.69596,2.875 -0.698,3.33333 -0.006,1.40916 3.10114,0.92335 4.26421,-0.66666 1.08062,-1.47732 1.09063,-1.46471 0.66149,0.83333 -0.23965,1.28333 -0.67779,2.93333 -0.97365,3.66667 -0.51038,1.26508 -0.54008,1.25654 -0.58018,-0.16667 -0.034,-1.20737 -0.42631,-1.5 -2.01092,-1.5 -1.70703,0 -2.06094,0.33225 -2.66295,2.5 -0.90234,3.24919 -0.88379,3.5 0.25893,3.5 0.52836,0 1.14607,0.3 1.37268,0.66667 0.25754,0.41669 -1.1173,0.66666 -3.66666,0.66666 -2.54937,0 -3.9242,-0.24997 -3.66667,-0.66666 z m 18.96243,-0.73687 c -1.10447,-2.06372 -0.21638,-5.43704 1.9872,-7.54821 1.70194,-1.63056 2.25881,-1.7969 4.65836,-1.3915 1.49894,0.25324 2.72178,0.65907 2.71743,0.90184 -0.005,0.24277 -0.45079,2.0914 -0.99209,4.10807 -1.17716,4.38569 -1.19624,4.66667 -0.31683,4.66667 0.37574,0 1.0115,-0.825 1.4128,-1.83334 0.40129,-1.00833 0.86333,-1.47496 1.02673,-1.03696 0.86204,2.31065 -2.51386,4.5458 -4.24745,2.81221 -0.5219,-0.5219 -0.85013,-0.5219 -1.17268,0 -0.80521,1.30285 -4.26033,0.84059 -5.07347,-0.67878 z m 4.93083,-0.47852 c 1.41486,-1.56341 2.22904,-7.09099 1.1433,-7.76202 -1.18173,-0.73035 -3.28837,1.53219 -4.04585,4.34522 -1.11072,4.12494 0.52215,6.04711 2.90255,3.4168 z m 57.06918,0.47852 c -1.10448,-2.06372 -0.21639,-5.43704 1.98719,-7.54821 1.70195,-1.63056 2.25881,-1.7969 4.65837,-1.3915 1.49893,0.25324 2.72178,0.65907 2.71742,0.90184 -0.005,0.24277 -0.45079,2.0914 -0.99208,4.10807 -1.17717,4.38569 -1.19625,4.66667 -0.31684,4.66667 0.37574,0 1.0115,-0.825 1.4128,-1.83334 0.4013,-1.00833 0.86333,-1.47496 1.02674,-1.03696 0.86203,2.31065 -2.51386,4.5458 -4.24746,2.81221 -0.5219,-0.5219 -0.85013,-0.5219 -1.17268,0 -0.8052,1.30285 -4.26032,0.84059 -5.07346,-0.67878 z m 4.93082,-0.47852 c 1.41486,-1.56341 2.22904,-7.09099 1.1433,-7.76202 -1.18172,-0.73035 -3.28837,1.53219 -4.04584,4.34522 -1.11073,4.12494 0.52214,6.04711 2.90254,3.4168 z m -26.89326,-36.41193 c 0,-8.36576 0.2574,-13.78641 0.66667,-14.03935 0.43638,-0.2697 0.66667,4.43752 0.66667,13.62732 0,8.91512 -0.24333,14.03935 -0.66667,14.03935 -0.4227,0 -0.66667,-4.98689 -0.66667,-13.62732 z M 298.35616,94.961627 c -4.12132,-4.446974 -4.57716,-13.58298 -0.96215,-19.28326 2.4589,-3.877294 3.87742,-3.94774 1.61077,-0.08 -3.08167,5.25848 -3.05308,13.51294 0.0627,18.104306 2.04718,3.0167 1.61939,3.773834 -0.71132,1.258954 z m 94.31051,1.41128 c 0,-0.275227 0.61392,-1.362587 1.36428,-2.41636 2.17374,-3.05274 3.06071,-8.575314 2.10769,-13.123214 -0.44181,-2.108333 -1.40373,-4.646186 -2.13763,-5.639673 -1.57066,-2.126253 -1.66618,-2.612487 -0.41919,-2.133973 0.50333,0.193146 1.70333,1.799326 2.66667,3.569293 3.20692,5.892193 2.15528,15.055833 -2.17754,18.974347 -0.77236,0.698493 -1.40428,1.044806 -1.40428,0.76958 z M 16.969697,89.696967 c -1.892572,-1.892567 -2.065439,-2.907494 -0.591552,-3.47308 1.50468,-0.5774 2.710534,0.797666 1.732718,1.975866 C 17.175394,89.32692 17.74877,90 19.644445,90 c 1.991549,0 3.022222,-1.250447 3.022222,-3.666667 0,-2.38846 -1.021595,-3.658086 -2.966667,-3.68694 -1.357706,-0.02013 -1.357924,-0.02507 -0.03333,-0.749546 2.908739,-1.59096 3.708384,-3.759894 2.011727,-5.456547 -1.542278,-1.54228 -3.541277,-0.69024 -3.152468,1.343687 0.257694,1.348033 0.08294,1.63568 -0.880291,1.448973 -1.770819,-0.343253 -1.913713,-1.631547 -0.353968,-3.191293 1.492127,-1.492127 4.041113,-1.779 6.085494,-0.68488 1.606504,0.85978 1.722237,4.115246 0.2004,5.63708 -1.007697,1.0077 -0.982781,1.16358 0.333333,2.08542 2.109285,1.477406 1.933716,5.088433 -0.334133,6.872326 -2.330171,1.832914 -4.607269,1.745154 -6.607064,-0.254646 z m 326.067453,-5.38494 c -1.72372,-3.86172 -2.99825,-7.38672 -2.83228,-7.833334 0.2991,-0.804833 5.79514,10.311247 5.79514,11.72102 0,1.399367 1.10045,-0.516473 3.6679,-6.385666 1.4081,-3.21894 2.8076,-5.605207 3.10999,-5.30282 0.55039,0.550386 -5.41122,14.819393 -6.19229,14.821166 -0.22793,5.2e-4 -1.82473,-3.158646 -3.54846,-7.020366 z m 21.20086,6.360253 c -3.70377,-1.494653 -4.76424,-7.371627 -2.05547,-11.39116 2.94126,-4.36454 8.66962,-6.61914 11.79511,-4.64238 0.62212,0.393467 1.29468,0.355207 1.84944,-0.105207 1.39044,-1.15396 1.62322,-0.25516 0.79046,3.05204 -0.87654,3.48106 -1.95088,4.084874 -1.95088,1.09646 0,-2.497013 -2.40225,-4.274453 -4.92222,-3.641986 -3.61784,0.90802 -7.81974,8.104506 -6.64958,11.38856 1.28859,3.616446 5.07441,4.735453 7.5718,2.23806 1.73976,-1.73976 1.68702,-2.959007 -0.16666,-3.853007 -1.26102,-0.608167 -0.86272,-0.727233 2.5,-0.74734 3.52154,-0.02107 3.85625,0.08509 2.79823,0.887373 -0.66097,0.501214 -1.51,2.02764 -1.88674,3.39206 -0.46229,1.674314 -0.90441,2.261334 -1.35999,1.805754 -0.45558,-0.455587 -1.25093,-0.37454 -2.4466,0.249293 -1.99147,1.039053 -3.76186,1.120973 -5.8669,0.27148 z M 29.125,90.236113 C 28.181324,89.292433 28.715312,88 30.048883,88 c 0.931975,0 1.312003,0.362033 1.166667,1.11142 -0.237962,1.226987 -1.376002,1.83924 -2.09055,1.124693 z M 267.33334,90 c 0,-0.380953 2,-0.666667 4.66666,-0.666667 h 4.66667 V 86.029207 82.72508 L 271.83334,82.495007 267,82.264927 271.83334,82.132467 276.66667,82 V 78.666667 75.333333 H 272 c -2.66666,0 -4.66666,-0.285713 -4.66666,-0.666666 C 267.33334,74.27778 269.55556,74 272.66667,74 H 278 v 8.333333 8.333334 h -5.33333 c -3.11111,0 -5.33333,-0.27778 -5.33333,-0.666667 z m 12,-0.725493 c 0,-0.70098 0.45,-1.274507 1,-1.274507 0.55,0 1,0.475 1,1.055553 0,1.782 1.52736,0.66192 2.40335,-1.762466 1.02485,-2.836387 1.14801,-5.74632 0.26626,-6.291267 -0.36505,-0.225613 -1.41505,0.400487 -2.33333,1.39134 -1.84843,1.99448 -2.2557,1.406927 -0.63182,-0.911487 1.07735,-1.538133 3.88938,-2.011533 4.64888,-0.782633 0.29743,0.481253 0.71365,0.465313 1.33598,-0.0512 C 288.44955,79.463627 291,80.116933 291,81.666647 c 0,0.74074 -0.44444,1.333333 -1,1.333333 -0.55,0 -0.96228,-0.501273 -0.91619,-1.113947 0.16694,-2.21898 -1.7434,-0.386953 -2.44958,2.34916 -0.39247,1.520634 -0.86641,3.291267 -1.05321,3.93474 -0.6298,2.169567 1.81299,2.245127 3.52227,0.108947 1.70572,-2.131733 2.16865,-1.439713 0.56678,0.847273 -0.85623,1.222427 -1.65441,1.422847 -5.66667,1.422847 -4.15377,0 -4.67006,-0.1409 -4.67006,-1.274513 z m 23,0.725493 c 0.22661,-0.366667 0.83275,-0.666667 1.34698,-0.666667 0.52004,0 1.2243,-1.109453 1.58696,-2.5 C 306.90408,80.557233 308,76.10724 308,75.737107 c 0,-0.22208 -0.4677,-0.403774 -1.03934,-0.403774 -0.57164,0 -0.85394,-0.3 -0.62732,-0.666666 0.62662,-1.013894 12.30792,-0.860174 12.66483,0.166666 0.15931,0.458334 0.0306,1.883334 -0.28601,3.166667 -0.48037,1.947047 -0.58697,2.0519 -0.64392,0.633333 -0.0979,-2.438566 -1.2735,-3.3 -4.50357,-3.3 -2.70851,0 -2.86638,0.11182 -3.52961,2.5 -0.38186,1.375 -0.69596,2.875 -0.698,3.333334 -0.006,1.40916 3.10114,0.923346 4.2642,-0.666667 1.08063,-1.477313 1.09064,-1.464707 0.6615,0.833333 -0.23965,1.283334 -0.6778,2.933334 -0.97365,3.666667 -0.51039,1.26508 -0.54009,1.256547 -0.58018,-0.166667 -0.034,-1.207373 -0.42631,-1.5 -2.01093,-1.5 -1.70702,0 -2.06093,0.332254 -2.66294,2.5 -0.90234,3.249187 -0.88379,3.5 0.25893,3.5 0.52836,0 1.14607,0.3 1.37268,0.666667 0.25753,0.416693 -1.1173,0.666667 -3.66667,0.666667 -2.54936,0 -3.9242,-0.249974 -3.66666,-0.666667 z m 18.33333,-0.725493 c 0,-0.70098 0.45,-1.274507 1,-1.274507 0.55,0 1,0.475 1,1.055553 0,1.782 1.52737,0.66192 2.40335,-1.762466 1.02485,-2.836387 1.14801,-5.74632 0.26626,-6.291267 -0.36504,-0.225613 -1.41504,0.400487 -2.33333,1.39134 -1.84843,1.99448 -2.25569,1.406927 -0.63181,-0.911487 1.07734,-1.538133 3.88937,-2.011533 4.64887,-0.782633 0.29743,0.481253 0.71365,0.465313 1.33599,-0.0512 1.42689,-1.184213 3.97734,-0.530907 3.97734,1.018807 0,0.74074 -0.44445,1.333333 -1,1.333333 -0.55,0 -0.96229,-0.501273 -0.91619,-1.113947 0.16694,-2.21898 -1.7434,-0.386953 -2.44959,2.34916 -0.39247,1.520634 -0.86641,3.291267 -1.0532,3.93474 -0.6298,2.169567 1.81299,2.245127 3.52227,0.108947 1.70572,-2.131733 2.16864,-1.439713 0.56678,0.847273 -0.85623,1.222427 -1.65442,1.422847 -5.66667,1.422847 -4.15378,0 -4.67007,-0.1409 -4.67007,-1.274513 z m 58,0 c 0,-0.70098 0.45,-1.274507 1,-1.274507 0.55,0 1,0.475 1,1.055553 0,1.782 1.52737,0.66192 2.40336,-1.762466 1.02484,-2.836387 1.148,-5.74632 0.26626,-6.291267 -0.36505,-0.225613 -1.41505,0.400487 -2.33334,1.39134 -1.84842,1.99448 -2.25569,1.406927 -0.63181,-0.911487 1.07735,-1.538133 3.88937,-2.011533 4.64887,-0.782633 0.29744,0.481253 0.71366,0.465313 1.33599,-0.0512 1.42689,-1.184213 3.97734,-0.530907 3.97734,1.018807 0,0.74074 -0.44445,1.333333 -1,1.333333 -0.55,0 -0.96229,-0.501273 -0.91619,-1.113947 0.16694,-2.21898 -1.7434,-0.386953 -2.44958,2.34916 -0.39248,1.520634 -0.86642,3.291267 -1.05321,3.93474 -0.6298,2.169567 1.81299,2.245127 3.52227,0.108947 1.70572,-2.131733 2.16864,-1.439713 0.56678,0.847273 -0.85623,1.222427 -1.65442,1.422847 -5.66667,1.422847 -4.15377,0 -4.67007,-0.1409 -4.67007,-1.274513 z M 329.57134,62.672279 c -3.70377,-1.494654 -4.76424,-7.371625 -2.05547,-11.391159 2.94126,-4.36454 8.66962,-6.619138 11.79511,-4.64238 0.62212,0.393467 1.29468,0.355207 1.84945,-0.105209 1.39043,-1.153959 1.62322,-0.255156 0.79045,3.052043 -0.87654,3.481061 -1.95087,4.084875 -1.95087,1.096461 0,-2.497013 -2.40226,-4.274458 -4.92222,-3.641987 -3.61784,0.908021 -7.81975,8.104503 -6.64959,11.388561 1.28859,3.616442 5.07441,4.735448 7.57181,2.238058 1.73976,-1.739757 1.68701,-2.959006 -0.16667,-3.853004 -1.26102,-0.608166 -0.86272,-0.727233 2.5,-0.74734 3.52155,-0.02106 3.85625,0.08508 2.79823,0.887372 -0.66096,0.50121 -1.51,2.027637 -1.88674,3.39206 -0.46229,1.674309 -0.9044,2.26133 -1.35998,1.805749 -0.45559,-0.455581 -1.25094,-0.374539 -2.4466,0.249298 -1.99148,1.039049 -3.76186,1.12097 -5.86691,0.271477 z m 38.76108,-2.280371 c -0.97299,-1.660287 -1.57812,-3.327675 -1.34473,-3.705306 0.76576,-1.239027 2.11641,-0.720005 2.9633,1.138724 l 0.83168,1.825325 1.61961,-3.407694 C 374.12627,52.615643 380.21091,46 381.82309,46 c 0.53128,0 -0.43088,1.357571 -2.13813,3.016823 -1.92745,1.873267 -3.86419,4.716215 -5.10934,7.5 -3.57104,7.983825 -3.76483,8.104108 -6.2432,3.875085 z M 16,62.038794 c 0,-0.345329 1.5,-2.342007 3.333334,-4.437059 2.485668,-2.840513 3.333333,-4.342269 3.333333,-5.905461 C 22.666667,49.226079 21.64037,48 19.572678,48 17.708264,48 16.971146,49.093639 18,50.333333 c 0.906006,1.09167 0.352927,2.333334 -1.039344,2.333334 C 16.341818,52.666667 16,51.968483 16,50.704469 c 0,-3.781536 5.145338,-5.409784 7.883791,-2.494835 2.377148,2.530359 1.879584,4.748808 -1.980495,8.830273 l -3.430038,3.62676 h 2.661494 c 2.101278,0 2.813769,-0.315735 3.384918,-1.5 l 0.723423,-1.5 0.04512,1.445475 c 0.09721,3.114214 -0.525403,3.554525 -5.026205,3.554525 C 17.917904,62.666667 16,62.384124 16,62.038794 Z m 13.125,0.197317 C 28.181324,61.292434 28.715312,60 30.048883,60 c 0.931975,0 1.312003,0.362033 1.166667,1.111423 -0.237962,1.226986 -1.376002,1.839236 -2.09055,1.124688 z M 299.33334,62 c 0,-0.380953 2,-0.666667 4.66666,-0.666667 h 4.66667 V 58.029207 54.725079 L 303.83334,54.495005 299,54.264929 303.83334,54.132465 308.66667,54 V 50.666667 47.333333 H 304 c -2.66666,0 -4.66666,-0.285714 -4.66666,-0.666666 C 299.33334,46.277778 301.55556,46 304.66667,46 H 310 v 8.333333 8.333334 h -5.33333 c -3.11111,0 -5.33333,-0.277778 -5.33333,-0.666667 z m 12,-0.72549 c 0,-0.700981 0.45,-1.27451 1,-1.27451 0.55,0 1,0.475 1,1.055555 0,1.781995 1.52736,0.66192 2.40335,-1.762468 1.02485,-2.836389 1.14801,-5.746318 0.26626,-6.291267 -0.36505,-0.225612 -1.41505,0.40049 -2.33333,1.391337 -1.84843,1.99448 -2.2557,1.40693 -0.63182,-0.911486 1.07735,-1.538129 3.88938,-2.01153 4.64888,-0.782632 0.29743,0.481255 0.71365,0.465311 1.33598,-0.05117 C 320.44955,51.463647 323,52.11695 323,53.666667 323,54.407407 322.55556,55 322,55 c -0.55,0 -0.96228,-0.501276 -0.91619,-1.113947 0.16694,-2.218978 -1.7434,-0.386954 -2.44958,2.349162 -0.39247,1.520632 -0.86641,3.291263 -1.05321,3.934736 -0.6298,2.169572 1.81299,2.24513 3.52227,0.108948 1.70572,-2.131734 2.16865,-1.439711 0.56678,0.847273 -0.85623,1.222429 -1.65441,1.422847 -5.66667,1.422847 -4.15377,0 -4.67006,-0.140901 -4.67006,-1.274509 z m 32.66667,0 c 0,-0.700981 0.45,-1.27451 1,-1.27451 0.55,0 1,0.475 1,1.055555 0,1.781995 1.52736,0.66192 2.40335,-1.762468 1.02485,-2.836389 1.14801,-5.746318 0.26626,-6.291267 -0.36505,-0.225612 -1.41505,0.40049 -2.33333,1.391337 -1.84843,1.99448 -2.2557,1.40693 -0.63182,-0.911486 1.07735,-1.538129 3.88938,-2.01153 4.64888,-0.782632 0.29743,0.481255 0.71365,0.465311 1.33598,-0.05117 1.42689,-1.184218 3.97734,-0.530915 3.97734,1.018802 0,0.74074 -0.44444,1.333333 -1,1.333333 -0.55,0 -0.96228,-0.501276 -0.91619,-1.113947 0.16694,-2.218978 -1.7434,-0.386954 -2.44958,2.349162 -0.39247,1.520632 -0.86641,3.291263 -1.05321,3.934736 -0.6298,2.169572 1.81299,2.24513 3.52227,0.108948 1.70572,-2.131734 2.16865,-1.439711 0.56678,0.847273 -0.85623,1.222429 -1.65441,1.422847 -5.66667,1.422847 -4.15377,0 -4.67006,-0.140901 -4.67006,-1.274509 z M 296,58 v -2.666667 h -6 c -3.55555,0 -6,-0.271604 -6,-0.666666 C 284,54.266667 286.66667,54 290.66667,54 h 6.66667 v 3.333333 c 0,1.833334 -0.3,3.333334 -0.66667,3.333334 C 296.3,60.666667 296,59.466667 296,58 Z M 281.6895,38.294959 c -4.12132,-4.446974 -4.57717,-13.582977 -0.96216,-19.283259 2.4589,-3.87729 3.87742,-3.947743 1.61078,-0.08 -3.08168,5.25848 -3.05309,13.512944 0.0627,18.10431 2.04718,3.016696 1.61939,3.773834 -0.71132,1.25895 z m 100.31051,1.41128 c 0,-0.275226 0.61392,-1.362587 1.36427,-2.416357 2.17374,-3.052739 3.06071,-8.575314 2.10769,-13.123215 -0.4418,-2.108334 -1.40373,-4.646186 -2.13762,-5.639672 -1.57066,-2.126253 -1.66618,-2.612486 -0.4192,-2.133974 0.50333,0.193146 1.70333,1.799328 2.66667,3.569296 3.20693,5.892187 2.15529,15.055833 -2.17754,18.974342 -0.77235,0.698495 -1.40427,1.044806 -1.40427,0.76958 z M 254.11227,31.166667 c -0.72428,-1.925 -2.09583,-5.560718 -3.0479,-8.079373 -1.85339,-4.903067 -2.03116,-5.753961 -1.20213,-5.753961 0.29089,0 0.99232,1.275 1.55873,2.833334 1.00925,2.776692 1.09728,2.837314 4.40355,3.032497 l 3.37372,0.199163 1.15812,-3.032496 c 0.63696,-1.667874 1.41736,-3.032498 1.73422,-3.032498 0.31685,0 0.57609,0.203634 0.57609,0.45252 0,1.03632 -6.36699,16.880814 -6.78343,16.880814 -0.24976,0 -1.0467,-1.575 -1.77097,-3.5 z m 2.84189,-2 C 259.041,24.064103 259.02972,24 256.04493,24 c -1.49138,0 -2.71308,0.225 -2.71489,0.5 -0.005,0.738249 2.22713,6.833333 2.50234,6.833333 0.12962,0 0.63442,-0.975 1.12178,-2.166666 z m 72.76281,4.821136 c 5.39875,-0.569777 7.25102,-1.496282 8.36422,-4.183791 0.64165,-1.54909 0.58921,-2.314057 -0.2842,-4.145629 -1.21745,-2.553002 -4.00412,-3.648451 -9.29698,-3.654665 -1.74167,-0.002 -3.16667,-0.303718 -3.16667,-0.670385 0,-0.878399 6.31723,-0.84883 9.53468,0.04463 4.37703,1.215467 6.33042,6.05419 4.02181,9.962368 -1.5531,2.629179 -3.55004,3.340207 -9.08786,3.235816 L 325,34.485626 Z m 23.85437,0.01781 c -3.70377,-1.494655 -4.76423,-7.371625 -2.05547,-11.391159 2.94126,-4.36454 8.66962,-6.619138 11.79511,-4.64238 0.62212,0.393466 1.29468,0.355206 1.84945,-0.105209 1.39043,-1.153959 1.62322,-0.255157 0.79045,3.052043 -0.87654,3.481063 -1.95087,4.084877 -1.95087,1.096464 0,-2.497014 -2.40226,-4.274458 -4.92222,-3.641988 -3.61784,0.908022 -7.81975,8.104503 -6.64959,11.388561 1.28859,3.616443 5.07441,4.735448 7.57181,2.238058 1.73976,-1.739757 1.68701,-2.959006 -0.16667,-3.853003 -1.26102,-0.608167 -0.86272,-0.727234 2.5,-0.747341 3.52155,-0.02106 3.85625,0.08508 2.79823,0.887373 -0.66096,0.50121 -1.51,2.027636 -1.88674,3.392059 -0.46229,1.674309 -0.9044,2.26133 -1.35998,1.805749 -0.45559,-0.455581 -1.25094,-0.374538 -2.4466,0.249298 -1.99148,1.03905 -3.76186,1.12097 -5.86691,0.271478 z m 47.42775,-2.280371 c -0.973,-1.660288 -1.57812,-3.327676 -1.34474,-3.705306 0.76576,-1.239027 2.11642,-0.720005 2.96331,1.138724 l 0.83167,1.825325 1.61962,-3.407694 c 1.72398,-3.627311 7.80863,-10.242955 9.42081,-10.242955 0.53127,0 -0.43089,1.357571 -2.13813,3.016824 -1.92746,1.873266 -3.8642,4.716214 -5.10934,7.5 -3.57104,7.983824 -3.76483,8.104107 -6.2432,3.875084 z M 16,33.650166 c 0,-0.192409 0.75,-0.634983 1.666667,-0.983499 1.608208,-0.61144 1.666667,-0.845141 1.666667,-6.662868 v -6.029202 l -1.666667,0.418307 C 16.727984,20.628499 16,20.522396 16,20.14999 c 0,-0.363671 0.675,-0.807615 1.5,-0.986541 0.825,-0.178926 2.025,-0.545996 2.666667,-0.815711 1.070519,-0.449976 1.166667,0.119842 1.166667,6.914269 0,6.960215 0.08003,7.40466 1.333333,7.40466 C 23.4,32.666667 24,32.966667 24,33.333333 24,33.703704 22.222222,34 20,34 17.8,34 16,33.842575 16,33.650166 Z m 12.458334,-0.08072 c -0.943677,-0.943678 -0.409688,-2.236112 0.923882,-2.236112 0.931975,0 1.312004,0.362034 1.166667,1.111423 -0.237962,1.226986 -1.376001,1.839237 -2.090549,1.124689 z M 263.33334,32.607843 c 0,-0.70098 0.45,-1.27451 1,-1.27451 0.55,0 1,0.475 1,1.055556 0,1.781994 1.52736,0.661919 2.40335,-1.762468 1.02485,-2.83639 1.14801,-5.746319 0.26626,-6.291268 -0.36505,-0.225612 -1.41505,0.40049 -2.33333,1.391337 -1.84843,1.99448 -2.2557,1.40693 -0.63182,-0.911486 1.07735,-1.538129 3.88938,-2.011529 4.64888,-0.782632 0.29743,0.481255 0.71365,0.465311 1.33598,-0.05117 C 272.44955,22.796981 275,23.450283 275,25 c 0,0.740741 -0.44444,1.333333 -1,1.333333 -0.55,0 -0.96228,-0.501276 -0.91619,-1.113946 0.16694,-2.218979 -1.7434,-0.386955 -2.44958,2.349162 -0.39247,1.520631 -0.86641,3.291262 -1.05321,3.934735 -0.6298,2.169572 1.81299,2.24513 3.52227,0.108948 1.70572,-2.131734 2.16865,-1.439711 0.56678,0.847273 -0.85623,1.22243 -1.65441,1.422848 -5.66667,1.422848 -4.15377,0 -4.67006,-0.140902 -4.67006,-1.27451 z m 23,0.72549 c 0.22661,-0.366666 0.83275,-0.666666 1.34698,-0.666666 0.52004,0 1.2243,-1.109453 1.58696,-2.5 C 290.90408,23.890565 292,19.440573 292,19.070437 c 0,-0.222074 -0.4677,-0.40377 -1.03934,-0.40377 -0.57164,0 -0.85394,-0.3 -0.62732,-0.666667 0.62662,-1.013894 12.30792,-0.860171 12.66483,0.166667 0.15931,0.458333 0.0306,1.883333 -0.28601,3.166666 -0.48037,1.947049 -0.58697,2.051898 -0.64392,0.633334 -0.0979,-2.438565 -1.2735,-3.3 -4.50357,-3.3 -2.70851,0 -2.86638,0.111822 -3.52961,2.5 -0.38186,1.375 -0.69596,2.875 -0.698,3.333333 -0.006,1.409161 3.10114,0.923345 4.2642,-0.666667 1.08063,-1.477313 1.09064,-1.464709 0.6615,0.833334 -0.23965,1.283333 -0.6778,2.933333 -0.97365,3.666666 -0.51039,1.265079 -0.54009,1.256547 -0.58018,-0.166666 -0.034,-1.207377 -0.42631,-1.5 -2.01093,-1.5 -1.70702,0 -2.06093,0.33225 -2.66294,2.5 -0.90234,3.249184 -0.88379,3.5 0.25893,3.5 0.52836,0 1.14607,0.3 1.37268,0.666666 C 293.9242,33.75003 292.54937,34 290,34 c -2.54936,0 -3.9242,-0.24997 -3.66666,-0.666667 z M 304,32.607843 c 0,-0.70098 0.45,-1.27451 1,-1.27451 0.55,0 1,0.475 1,1.055556 0,1.781994 1.52737,0.661919 2.40336,-1.762468 1.02484,-2.83639 1.148,-5.746319 0.26626,-6.291268 -0.36505,-0.225612 -1.41505,0.40049 -2.33334,1.391337 -1.84842,1.99448 -2.25569,1.40693 -0.63181,-0.911486 1.07735,-1.538129 3.88937,-2.011529 4.64887,-0.782632 0.29744,0.481255 0.71366,0.465311 1.33599,-0.05117 1.42689,-1.184218 3.97734,-0.530916 3.97734,1.018801 0,0.740741 -0.44445,1.333333 -1,1.333333 -0.55,0 -0.96229,-0.501276 -0.91619,-1.113946 0.16694,-2.218979 -1.7434,-0.386955 -2.44958,2.349162 -0.39248,1.520631 -0.86642,3.291262 -1.05321,3.934735 -0.6298,2.169572 1.81299,2.24513 3.52227,0.108948 1.70572,-2.131734 2.16864,-1.439711 0.56678,0.847273 -0.85623,1.22243 -1.65442,1.422848 -5.66667,1.422848 -4.15377,0 -4.67007,-0.140902 -4.67007,-1.27451 z m 63.33334,0 c 0,-0.70098 0.45,-1.27451 1,-1.27451 0.55,0 1,0.475 1,1.055556 0,1.781994 1.52737,0.661919 2.40335,-1.762468 1.02485,-2.83639 1.14801,-5.746319 0.26626,-6.291268 -0.36504,-0.225612 -1.41504,0.40049 -2.33333,1.391337 -1.84843,1.99448 -2.25569,1.40693 -0.63181,-0.911486 1.07734,-1.538129 3.88937,-2.011529 4.64887,-0.782632 0.29743,0.481255 0.71365,0.465311 1.33599,-0.05117 1.42688,-1.184218 3.97734,-0.530916 3.97734,1.018801 0,0.740741 -0.44445,1.333333 -1,1.333333 -0.55,0 -0.96229,-0.501276 -0.9162,-1.113946 0.16694,-2.218979 -1.7434,-0.386955 -2.44958,2.349162 -0.39247,1.520631 -0.86641,3.291262 -1.0532,3.934735 -0.6298,2.169572 1.81298,2.24513 3.52226,0.108948 1.70572,-2.131734 2.16865,-1.439711 0.56678,0.847273 -0.85622,1.22243 -1.65441,1.422848 -5.66666,1.422848 -4.15378,0 -4.67007,-0.140902 -4.67007,-1.27451 z"
       id="path318" />
  </g>
</svg>
