<?xml version="1.0" encoding="UTF-8" standalone="no"?>
<svg
   xmlns:dc="http://purl.org/dc/elements/1.1/"
   xmlns:cc="http://creativecommons.org/ns#"
   xmlns:rdf="http://www.w3.org/1999/02/22-rdf-syntax-ns#"
   xmlns:svg="http://www.w3.org/2000/svg"
   xmlns="http://www.w3.org/2000/svg"
   xmlns:sodipodi="http://sodipodi.sourceforge.net/DTD/sodipodi-0.dtd"
   xmlns:inkscape="http://www.inkscape.org/namespaces/inkscape"
   version="1.1"
   id="svg96"
   width="208.72038"
   height="80.407593"
   viewBox="0 0 208.72038 80.407591"
   sodipodi:docname="10-1-1.svg"
   inkscape:version="1.0.1 (c497b03c, 2020-09-10)">
  <metadata
     id="metadata102">
    <rdf:RDF>
      <cc:Work
         rdf:about="">
        <dc:format>image/svg+xml</dc:format>
        <dc:type
           rdf:resource="http://purl.org/dc/dcmitype/StillImage" />
        <dc:title></dc:title>
      </cc:Work>
    </rdf:RDF>
  </metadata>
  <defs
     id="defs100" />
  <sodipodi:namedview
     pagecolor="#ffffff"
     bordercolor="#666666"
     borderopacity="1"
     objecttolerance="10"
     gridtolerance="10"
     guidetolerance="10"
     inkscape:pageopacity="0"
     inkscape:pageshadow="2"
     inkscape:window-width="1012"
     inkscape:window-height="598"
     id="namedview98"
     showgrid="false"
     fit-margin-top="0"
     fit-margin-left="0"
     fit-margin-right="0"
     fit-margin-bottom="0"
     inkscape:pagecheckerboard="true"
     inkscape:zoom="0.95559037"
     inkscape:cx="21.949215"
     inkscape:cy="110.98418"
     inkscape:window-x="0"
     inkscape:window-y="25"
     inkscape:window-maximized="0"
     inkscape:current-layer="g104" />
  <g
     inkscape:groupmode="layer"
     inkscape:label="Image"
     id="g104"
     transform="translate(-40.061877,80.30587)">
    <path
       style="fill:#1c1c1c;stroke-width:0.666667"
       d="m 145.68949,-1.41128 c -4.12132,-4.446974 -4.57716,-13.582981 -0.96215,-19.283261 2.4589,-3.877293 3.87742,-3.94774 1.61077,-0.08 -3.08167,5.25848 -3.05308,13.512941 0.0627,18.104307 2.04718,3.016701 1.6194,3.773834 -0.71132,1.258954 z M 241.33333,0 c 0,-0.275227 0.61392,-1.362587 1.36427,-2.41636 2.17374,-3.05274 3.06072,-8.575314 2.1077,-13.123214 -0.44181,-2.108333 -1.40374,-4.646187 -2.13763,-5.639673 -1.57066,-2.126254 -1.66618,-2.612487 -0.41919,-2.133974 0.50332,0.193147 1.70332,1.799327 2.66666,3.569294 3.20693,5.892193 2.15529,15.055833 -2.17754,18.974347 C 241.96525,-0.071087 241.33333,0.275227 241.33333,0 Z M 41.636361,-6.67594 c -1.892572,-1.892567 -2.065439,-2.907494 -0.591552,-3.47308 1.50468,-0.5774 2.710534,0.797666 1.732718,1.975866 -0.935469,1.127167 -0.362093,1.800247 1.533582,1.800247 1.991549,0 3.022222,-1.250447 3.022222,-3.666667 0,-2.38846 -1.021595,-3.658087 -2.966667,-3.68694 -1.357706,-0.02013 -1.357924,-0.02507 -0.03333,-0.749547 2.908739,-1.59096 3.708384,-3.759893 2.011727,-5.456546 -1.542278,-1.54228 -3.541277,-0.69024 -3.152468,1.343686 0.257694,1.348034 0.08294,1.63568 -0.880291,1.448974 -1.770819,-0.343254 -1.913713,-1.631547 -0.353968,-3.191294 1.492127,-1.492126 4.041113,-1.779 6.085494,-0.68488 1.606504,0.85978 1.722237,4.115247 0.2004,5.63708 -1.007697,1.0077 -0.982781,1.16358 0.333333,2.08542 2.109285,1.477407 1.933716,5.088434 -0.334133,6.872327 -2.330171,1.832914 -4.607269,1.745154 -6.607064,-0.254646 z m 149.415519,-5.35194 c -1.73184,-3.879874 -3.01299,-7.419721 -2.84702,-7.866334 0.2991,-0.804833 5.79514,10.311247 5.79514,11.72102 0,1.502187 1.24228,-0.653353 3.69093,-6.404307 1.41459,-3.322346 2.75129,-5.619853 3.07899,-5.292153 0.55455,0.554553 -4.58786,12.91468 -5.93262,14.259447 -0.40441,0.404407 -1.78525,-1.936613 -3.78542,-6.417673 z m 21.18612,6.327253 c -3.70377,-1.494653 -4.76424,-7.371627 -2.05547,-11.39116 2.94126,-4.36454 8.66962,-6.61914 11.79511,-4.64238 0.62212,0.393466 1.29468,0.355206 1.84944,-0.105207 1.39044,-1.15396 1.62322,-0.25516 0.79046,3.05204 -0.90425,3.5911 -1.7784,3.985027 -2.0753,0.935227 -0.14383,-1.47738 -0.73828,-2.441514 -1.9082,-3.094894 -5.2684,-2.9423 -12.54688,8.548801 -8.3513,13.184861 1.59854,1.76636 4.64677,1.793053 6.38392,0.05593 1.73976,-1.73976 1.68702,-2.959007 -0.16666,-3.853007 -1.26102,-0.608166 -0.86272,-0.727233 2.5,-0.74734 3.52154,-0.02107 3.85625,0.08509 2.79823,0.887374 -0.66097,0.501213 -1.51,2.02764 -1.88674,3.39206 -0.46229,1.674313 -0.90441,2.261333 -1.35999,1.805753 -0.45558,-0.455587 -1.25093,-0.37454 -2.4466,0.249293 -1.99147,1.039054 -3.76186,1.120974 -5.8669,0.27148 z M 53.124998,-6.136794 c -0.943677,-0.94368 -0.409688,-2.236113 0.923882,-2.236113 0.931975,0 1.312004,0.362033 1.166667,1.11142 -0.237962,1.226987 -1.376001,1.83924 -2.090549,1.124693 z m 61.541662,-0.236113 c 0,-0.380953 2,-0.666667 4.66667,-0.666667 H 124 v -3.304126 -3.304127 l -4.83334,-0.230074 -4.83333,-0.23008 4.83333,-0.13246 L 124,-14.372907 v -3.333334 -3.333333 h -4.66667 c -2.66667,0 -4.66667,-0.285713 -4.66667,-0.666667 0,-0.388886 2.22222,-0.666666 5.33334,-0.666666 h 5.33333 v 8.333333 8.333334 H 120 c -3.11112,0 -5.33334,-0.27778 -5.33334,-0.666667 z M 127.33333,-7.0984 c 0,-0.70098 0.45,-1.274507 1,-1.274507 0.55,0 1,0.475 1,1.055553 0,1.782 1.52737,0.66192 2.40336,-1.762466 1.02484,-2.836387 1.148,-5.746321 0.26626,-6.291267 -0.36505,-0.225614 -1.41505,0.400486 -2.33334,1.39134 -1.84842,1.99448 -2.25569,1.406927 -0.63181,-0.911487 1.07735,-1.538133 3.88937,-2.011533 4.64887,-0.782633 0.29744,0.481253 0.71366,0.465313 1.33599,-0.0512 1.42689,-1.184214 3.97734,-0.530907 3.97734,1.018806 0,0.74074 -0.44445,1.333334 -1,1.333334 -0.55,0 -0.96229,-0.501274 -0.91619,-1.113947 0.16694,-2.21898 -1.7434,-0.386953 -2.44958,2.34916 -0.39248,1.520634 -0.86642,3.291267 -1.05321,3.93474 -0.6298,2.169567 1.81299,2.245127 3.52227,0.108947 1.70572,-2.131733 2.16864,-1.439713 0.56678,0.847273 -0.85623,1.222427 -1.65442,1.422847 -5.66667,1.422847 -4.15377,0 -4.67007,-0.1409 -4.67007,-1.274513 z m 23,0.725493 c 0.22661,-0.366667 0.83275,-0.666667 1.34698,-0.666667 0.52005,0 1.22431,-1.109453 1.58696,-2.5 1.63681,-6.2761 2.73273,-10.726093 2.73273,-11.096227 0,-0.22208 -0.46771,-0.403773 -1.03935,-0.403773 -0.57164,0 -0.85393,-0.3 -0.62732,-0.666667 0.62662,-1.013893 12.30792,-0.860173 12.66483,0.166667 0.15932,0.458333 0.0306,1.883333 -0.28601,3.166667 -0.48037,1.947046 -0.58697,2.0519 -0.64391,0.633333 -0.0979,-2.438567 -1.27351,-3.3 -4.50358,-3.3 -2.7085,0 -2.86638,0.11182 -3.52961,2.5 -0.38185,1.375 -0.69596,2.875 -0.698,3.333333 -0.006,1.40916 3.10114,0.923347 4.26421,-0.666666 1.08062,-1.477314 1.09063,-1.464707 0.66149,0.833333 -0.23965,1.283333 -0.67779,2.933334 -0.97365,3.666667 -0.51038,1.26508 -0.54008,1.256547 -0.58018,-0.166667 -0.034,-1.207373 -0.42631,-1.5 -2.01092,-1.5 -1.70703,0 -2.06094,0.332253 -2.66295,2.5 -0.90234,3.249187 -0.88379,3.5 0.25893,3.5 0.52836,0 1.14607,0.3 1.37268,0.666667 0.25754,0.416693 -1.1173,0.666667 -3.66666,0.666667 -2.54937,0 -3.9242,-0.249974 -3.66667,-0.666667 z M 168.66666,-7.0984 c 0,-0.70098 0.45,-1.274507 1,-1.274507 0.55,0 1,0.475 1,1.055553 0,1.782 1.52737,0.66192 2.40336,-1.762466 1.02484,-2.836387 1.148,-5.746321 0.26626,-6.291267 -0.36505,-0.225614 -1.41505,0.400486 -2.33334,1.39134 -1.84842,1.99448 -2.25569,1.406927 -0.63181,-0.911487 1.07735,-1.538133 3.88937,-2.011533 4.64887,-0.782633 0.29744,0.481253 0.71366,0.465313 1.33599,-0.0512 1.42689,-1.184214 3.97734,-0.530907 3.97734,1.018806 0,0.74074 -0.44445,1.333334 -1,1.333334 -0.55,0 -0.96229,-0.501274 -0.91619,-1.113947 0.16694,-2.21898 -1.7434,-0.386953 -2.44958,2.34916 -0.39248,1.520634 -0.86642,3.291267 -1.05321,3.93474 -0.6298,2.169567 1.81299,2.245127 3.52227,0.108947 1.70572,-2.131733 2.16864,-1.439713 0.56678,0.847273 -0.85623,1.222427 -1.65442,1.422847 -5.66667,1.422847 -4.15377,0 -4.67007,-0.1409 -4.67007,-1.274513 z m 58,0 c 0,-0.70098 0.45,-1.274507 1,-1.274507 0.55,0 1,0.475 1,1.055553 0,1.782 1.52737,0.66192 2.40336,-1.762466 1.02484,-2.836387 1.148,-5.746321 0.26626,-6.291267 -0.36505,-0.225614 -1.41505,0.400486 -2.33334,1.39134 -1.84842,1.99448 -2.25569,1.406927 -0.63181,-0.911487 1.07735,-1.538133 3.88937,-2.011533 4.64887,-0.782633 0.29744,0.481253 0.71366,0.465313 1.33599,-0.0512 1.42689,-1.184214 3.97734,-0.530907 3.97734,1.018806 0,0.74074 -0.44445,1.333334 -1,1.333334 -0.55,0 -0.96229,-0.501274 -0.91619,-1.113947 0.16694,-2.21898 -1.7434,-0.386953 -2.44958,2.34916 -0.39248,1.520634 -0.86642,3.291267 -1.05321,3.93474 -0.6298,2.169567 1.81299,2.245127 3.52227,0.108947 1.70572,-2.131733 2.16864,-1.439713 0.56678,0.847273 -0.85623,1.222427 -1.65442,1.422847 -5.66667,1.422847 -4.15377,0 -4.67007,-0.1409 -4.67007,-1.274513 z m -35.762,-26.602228 c -3.70376,-1.494655 -4.76423,-7.371626 -2.05546,-11.39116 2.94126,-4.36454 8.66962,-6.619138 11.7951,-4.64238 0.62212,0.393466 1.29468,0.355206 1.84945,-0.105209 1.39043,-1.153959 1.62322,-0.255157 0.79045,3.052043 -0.90424,3.591099 -1.77839,3.985029 -2.0753,0.935223 -0.14382,-1.477379 -0.73827,-2.441511 -1.90819,-3.094887 -5.26841,-2.942305 -12.54688,8.548796 -8.3513,13.184857 1.59853,1.766362 4.64677,1.793053 6.38392,0.0559 1.73976,-1.739756 1.68701,-2.959006 -0.16667,-3.853003 -1.26102,-0.608167 -0.86272,-0.727233 2.5,-0.747341 3.52155,-0.02106 3.85626,0.08508 2.79824,0.887373 -0.66097,0.50121 -1.51,2.027637 -1.88674,3.392059 -0.4623,1.67431 -0.90441,2.261331 -1.35999,1.80575 -0.45559,-0.455581 -1.25093,-0.374539 -2.4466,0.249298 -1.99147,1.039049 -3.76186,1.12097 -5.86691,0.271477 z M 40.666664,-34.334114 c 0,-0.345329 1.5,-2.342007 3.333334,-4.437059 2.485668,-2.840513 3.333333,-4.342269 3.333333,-5.905461 0,-2.470195 -1.026297,-3.696274 -3.093989,-3.696274 -1.864414,0 -2.601532,1.093639 -1.572678,2.333333 0.906006,1.09167 0.352927,2.333334 -1.039344,2.333334 -0.618838,0 -0.960656,-0.698184 -0.960656,-1.962198 0,-3.781536 5.145338,-5.409785 7.883791,-2.494835 2.377148,2.530359 1.879584,4.748808 -1.980495,8.830273 l -3.430038,3.62676 h 2.661494 c 2.101278,0 2.813769,-0.315735 3.384918,-1.5 l 0.723423,-1.5 0.04512,1.445475 c 0.09721,3.114214 -0.525403,3.554525 -5.026205,3.554525 -2.344104,0 -4.262008,-0.282543 -4.262008,-0.627873 z m 12.458334,0.197318 c -0.943677,-0.943678 -0.409688,-2.236112 0.923882,-2.236112 0.931975,0 1.312004,0.362033 1.166667,1.111423 -0.237962,1.226986 -1.376001,1.839237 -2.090549,1.124689 z m 108.208332,-0.236112 c 0,-0.380952 2,-0.666667 4.66667,-0.666667 h 4.66666 v -3.304126 -3.304128 l -4.83333,-0.230074 -4.83333,-0.230076 4.83333,-0.132464 4.83333,-0.132465 v -3.333333 -3.333334 H 166 c -2.66667,0 -4.66667,-0.285714 -4.66667,-0.666667 0,-0.388888 2.22222,-0.666666 5.33333,-0.666666 H 172 v 8.333333 8.333334 h -5.33334 c -3.11111,0 -5.33333,-0.277778 -5.33333,-0.666667 z m 12,-0.72549 c 0,-0.700981 0.45,-1.27451 1,-1.27451 0.55,0 1,0.475 1,1.055555 0,1.781995 1.52737,0.66192 2.40335,-1.762468 1.02485,-2.836389 1.14801,-5.746318 0.26626,-6.291267 -0.36504,-0.225612 -1.41504,0.40049 -2.33333,1.391337 -1.84843,1.99448 -2.25569,1.40693 -0.63181,-0.911486 1.07734,-1.538129 3.88937,-2.01153 4.64887,-0.782632 0.29743,0.481255 0.71365,0.465311 1.33599,-0.05117 1.42688,-1.184222 3.97734,-0.530919 3.97734,1.018798 0,0.74074 -0.44445,1.333333 -1,1.333333 -0.55,0 -0.96229,-0.501276 -0.9162,-1.113947 0.16694,-2.218978 -1.7434,-0.386954 -2.44958,2.349162 -0.39247,1.520632 -0.86641,3.291263 -1.0532,3.934736 -0.6298,2.169572 1.81298,2.24513 3.52226,0.108948 1.70572,-2.131734 2.16865,-1.439711 0.56678,0.847273 -0.85622,1.22243 -1.65441,1.422848 -5.66666,1.422848 -4.15378,0 -4.67007,-0.140902 -4.67007,-1.27451 z m 32,0 c 0,-0.700981 0.45,-1.27451 1,-1.27451 0.55,0 1,0.475 1,1.055555 0,1.781995 1.52737,0.66192 2.40335,-1.762468 1.02485,-2.836389 1.14801,-5.746318 0.26626,-6.291267 -0.36504,-0.225612 -1.41504,0.40049 -2.33333,1.391337 -1.84843,1.99448 -2.25569,1.40693 -0.63181,-0.911486 1.07734,-1.538129 3.88937,-2.01153 4.64887,-0.782632 0.29743,0.481255 0.71365,0.465311 1.33599,-0.05117 1.42688,-1.184222 3.97734,-0.530919 3.97734,1.018798 0,0.74074 -0.44445,1.333333 -1,1.333333 -0.55,0 -0.96229,-0.501276 -0.9162,-1.113947 0.16694,-2.218978 -1.7434,-0.386954 -2.44958,2.349162 -0.39247,1.520632 -0.86641,3.291263 -1.0532,3.934736 -0.6298,2.169572 1.81298,2.24513 3.52226,0.108948 1.70572,-2.131734 2.16865,-1.439711 0.56678,0.847273 -0.85622,1.22243 -1.65441,1.422848 -5.66666,1.422848 -4.15378,0 -4.67007,-0.140902 -4.67007,-1.27451 z m -48,-3.27451 v -2.666667 h -6 c -3.55555,0 -6,-0.271604 -6,-0.666666 0,-0.4 2.66667,-0.666667 6.66667,-0.666667 h 6.66666 v 3.333333 c 0,1.833334 -0.3,3.333334 -0.66666,3.333334 -0.36667,0 -0.66667,-1.2 -0.66667,-2.666667 z m -14.3105,-19.705041 c -4.12132,-4.446974 -4.57717,-13.582978 -0.96216,-19.28326 2.4589,-3.87729 3.87742,-3.947743 1.61078,-0.08 -3.08168,5.25848 -3.05309,13.512944 0.0627,18.10431 2.04718,3.016696 1.61939,3.773834 -0.71132,1.25895 z m 100.3105,1.411279 c 0,-0.275226 0.61392,-1.362587 1.36427,-2.416357 2.17374,-3.052739 3.06072,-8.575314 2.1077,-13.123215 -0.44181,-2.108334 -1.40374,-4.646186 -2.13763,-5.639672 -1.57066,-2.126253 -1.66618,-2.612487 -0.41919,-2.133975 0.50332,0.193146 1.70332,1.799329 2.66666,3.569297 3.20693,5.892187 2.15529,15.055833 -2.17754,18.974342 -0.77235,0.698496 -1.40427,1.044806 -1.40427,0.76958 z M 115.4456,-65.206242 c -0.72428,-1.925 -2.09584,-5.560718 -3.0479,-8.079373 -1.8534,-4.903067 -2.03116,-5.753961 -1.20214,-5.753961 0.2909,0 0.99232,1.275 1.55874,2.833334 1.00924,2.776692 1.09728,2.837314 4.40355,3.032497 l 3.37371,0.199163 1.15812,-3.032496 c 0.63697,-1.667874 1.41737,-3.032498 1.73422,-3.032498 0.31686,0 0.5761,0.203634 0.5761,0.45252 0,1.03632 -6.36699,16.880814 -6.78343,16.880814 -0.24976,0 -1.0467,-1.575 -1.77097,-3.5 z m 2.84189,-2 c 2.08684,-5.102564 2.07556,-5.166667 -0.90923,-5.166667 -1.49138,0 -2.71308,0.225 -2.7149,0.5 -0.005,0.738249 2.22714,6.833334 2.50235,6.833334 0.12961,0 0.63441,-0.975 1.12178,-2.166667 z m 73.42947,4.821137 c 5.39875,-0.569778 7.25102,-1.496282 8.36422,-4.183792 0.64165,-1.54909 0.58921,-2.314057 -0.2842,-4.145629 -1.21745,-2.553002 -4.00412,-3.648451 -9.29698,-3.654665 -1.74167,-0.002 -3.16667,-0.303718 -3.16667,-0.670385 0,-0.878399 6.31723,-0.84883 9.53468,0.04463 4.37703,1.215467 6.33042,6.05419 4.02181,9.962368 -1.5531,2.62918 -3.55004,3.340208 -9.08786,3.235816 L 187,-61.887283 Z m 23.1877,0.01781 c -3.70376,-1.494654 -4.76423,-7.371625 -2.05546,-11.391159 2.94126,-4.36454 8.66962,-6.619139 11.7951,-4.64238 0.62212,0.393466 1.29468,0.355206 1.84945,-0.105209 1.39043,-1.15396 1.62322,-0.255157 0.79045,3.052043 -0.90424,3.591098 -1.77839,3.985028 -2.0753,0.935223 -0.14382,-1.477379 -0.73827,-2.441511 -1.90819,-3.094887 -5.26841,-2.942305 -12.54688,8.548796 -8.3513,13.184857 1.59853,1.766362 4.64677,1.793053 6.38392,0.0559 1.73976,-1.739756 1.68701,-2.959006 -0.16667,-3.853003 -1.26102,-0.608167 -0.86272,-0.727234 2.5,-0.747341 3.52155,-0.02106 3.85626,0.08508 2.79824,0.887373 -0.66097,0.50121 -1.51,2.027637 -1.88674,3.392059 -0.4623,1.67431 -0.90441,2.26133 -1.35999,1.80575 -0.45559,-0.455582 -1.25093,-0.374539 -2.4466,0.249298 -1.99147,1.039049 -3.76186,1.12097 -5.86691,0.271476 z M 40.666664,-62.722743 c 0,-0.192408 0.75,-0.634983 1.666667,-0.983499 1.608208,-0.611439 1.666667,-0.845141 1.666667,-6.662868 v -6.029202 l -1.666667,0.418307 c -0.938683,0.235595 -1.666667,0.129492 -1.666667,-0.242914 0,-0.363671 0.675,-0.807615 1.5,-0.986541 0.825,-0.178926 2.025,-0.545996 2.666667,-0.815711 1.070519,-0.449976 1.166667,0.119842 1.166667,6.914269 0,6.960215 0.08003,7.40466 1.333333,7.40466 0.733333,0 1.333333,0.3 1.333333,0.666667 0,0.37037 -1.777778,0.666666 -4,0.666666 -2.2,0 -4,-0.157425 -4,-0.349834 z m 12.458334,-0.08072 c -0.943677,-0.943677 -0.409688,-2.236111 0.923882,-2.236111 0.931975,0 1.312004,0.362033 1.166667,1.111422 -0.237962,1.226986 -1.376001,1.839237 -2.090549,1.124689 z m 71.541672,-0.961601 c 0,-0.700981 0.45,-1.27451 1,-1.27451 0.55,0 1,0.475 1,1.055555 0,1.781995 1.52736,0.661919 2.40335,-1.762468 1.02485,-2.83639 1.14801,-5.746319 0.26626,-6.291268 -0.36505,-0.225612 -1.41505,0.40049 -2.33333,1.391337 -1.84843,1.99448 -2.2557,1.40693 -0.63182,-0.911486 1.07735,-1.538129 3.88938,-2.011529 4.64888,-0.782632 0.29743,0.481255 0.71365,0.465311 1.33598,-0.05117 1.42689,-1.184218 3.97734,-0.530916 3.97734,1.018801 0,0.740741 -0.44444,1.333333 -1,1.333333 -0.55,0 -0.96228,-0.501276 -0.91619,-1.113946 0.16694,-2.218979 -1.7434,-0.386955 -2.44958,2.349162 -0.39247,1.520631 -0.86641,3.291263 -1.05321,3.934735 -0.6298,2.169572 1.81299,2.24513 3.52227,0.108948 1.70572,-2.131734 2.16865,-1.43971 0.56678,0.847274 -0.85623,1.222429 -1.65441,1.422847 -5.66667,1.422847 -4.15377,0 -4.67006,-0.140901 -4.67006,-1.274509 z m 22.99999,0.72549 c 0.22662,-0.366667 0.83276,-0.666667 1.34698,-0.666667 0.52005,0 1.22431,-1.109453 1.58696,-2.5 1.63681,-6.276102 2.73273,-10.726094 2.73273,-11.09623 0,-0.222074 -0.46771,-0.40377 -1.03935,-0.40377 -0.57164,0 -0.85393,-0.3 -0.62732,-0.666667 0.62662,-1.013894 12.30792,-0.860171 12.66484,0.166667 0.15931,0.458333 0.0306,1.883333 -0.28602,3.166666 -0.48036,1.947049 -0.58696,2.051898 -0.64391,0.633334 -0.0979,-2.438565 -1.27351,-3.3 -4.50357,-3.3 -2.70851,0 -2.86638,0.111822 -3.52962,2.5 -0.38185,1.375 -0.69596,2.875 -0.698,3.333333 -0.006,1.409161 3.10114,0.923345 4.26421,-0.666667 1.08063,-1.477313 1.09063,-1.464709 0.66149,0.833334 -0.23964,1.283333 -0.67779,2.933333 -0.97364,3.666666 -0.51039,1.265079 -0.54009,1.256547 -0.58018,-0.166666 -0.034,-1.207377 -0.42632,-1.5 -2.01093,-1.5 -1.70703,0 -2.06093,0.33225 -2.66295,2.5 -0.90234,3.249184 -0.88378,3.5 0.25894,3.5 0.52836,0 1.14606,0.3 1.37268,0.666667 0.25753,0.416696 -1.1173,0.666666 -3.66667,0.666666 -2.54937,0 -3.9242,-0.24997 -3.66667,-0.666666 z M 166,-63.765065 c 0,-0.700981 0.45,-1.27451 1,-1.27451 0.55,0 1,0.475 1,1.055555 0,1.781995 1.52736,0.661919 2.40335,-1.762468 1.02485,-2.83639 1.14801,-5.746319 0.26626,-6.291268 -0.36505,-0.225612 -1.41505,0.40049 -2.33333,1.391337 -1.84843,1.99448 -2.2557,1.40693 -0.63182,-0.911486 1.07735,-1.538129 3.88938,-2.011529 4.64888,-0.782632 0.29743,0.481255 0.71365,0.465311 1.33598,-0.05117 1.42689,-1.184218 3.97734,-0.530916 3.97734,1.018801 0,0.740741 -0.44444,1.333333 -1,1.333333 -0.55,0 -0.96228,-0.501276 -0.91619,-1.113946 0.16694,-2.218979 -1.7434,-0.386955 -2.44958,2.349162 -0.39247,1.520631 -0.86641,3.291263 -1.05321,3.934735 -0.6298,2.169572 1.81299,2.24513 3.52227,0.108948 1.70572,-2.131734 2.16865,-1.43971 0.56678,0.847274 -0.85623,1.222429 -1.65441,1.422847 -5.66667,1.422847 -4.15377,0 -4.67006,-0.140901 -4.67006,-1.274509 z m 63.33333,0 c 0,-0.700981 0.45,-1.27451 1,-1.27451 0.55,0 1,0.475 1,1.055555 0,1.781995 1.52737,0.661919 2.40335,-1.762468 1.02485,-2.83639 1.14801,-5.746319 0.26626,-6.291268 -0.36504,-0.225612 -1.41504,0.40049 -2.33333,1.391337 -1.84843,1.99448 -2.25569,1.40693 -0.63181,-0.911486 1.07734,-1.538129 3.88937,-2.011529 4.64887,-0.782632 0.29743,0.481255 0.71365,0.465311 1.33599,-0.05117 1.42688,-1.184221 3.97734,-0.530919 3.97734,1.018798 0,0.740741 -0.44445,1.333333 -1,1.333333 -0.55,0 -0.96229,-0.501276 -0.9162,-1.113946 0.16694,-2.218979 -1.7434,-0.386955 -2.44958,2.349162 -0.39247,1.520631 -0.86641,3.291263 -1.0532,3.934735 -0.6298,2.169572 1.81298,2.24513 3.52226,0.108948 1.70572,-2.131734 2.16865,-1.43971 0.56678,0.847274 -0.85622,1.222429 -1.65441,1.422847 -5.66666,1.422847 -4.15378,0 -4.67007,-0.140901 -4.67007,-1.274509 z"
       id="path108" />
  </g>
</svg>
