<?xml version="1.0" encoding="UTF-8" standalone="no"?>
<svg
   xmlns:dc="http://purl.org/dc/elements/1.1/"
   xmlns:cc="http://creativecommons.org/ns#"
   xmlns:rdf="http://www.w3.org/1999/02/22-rdf-syntax-ns#"
   xmlns:svg="http://www.w3.org/2000/svg"
   xmlns="http://www.w3.org/2000/svg"
   xmlns:sodipodi="http://sodipodi.sourceforge.net/DTD/sodipodi-0.dtd"
   xmlns:inkscape="http://www.inkscape.org/namespaces/inkscape"
   version="1.1"
   id="svg1480"
   width="204.52873"
   height="74.676216"
   viewBox="0 0 204.52873 74.676216"
   sodipodi:docname="10-11-1.svg"
   inkscape:version="1.0.1 (c497b03c, 2020-09-10)">
  <metadata
     id="metadata1486">
    <rdf:RDF>
      <cc:Work
         rdf:about="">
        <dc:format>image/svg+xml</dc:format>
        <dc:type
           rdf:resource="http://purl.org/dc/dcmitype/StillImage" />
        <dc:title></dc:title>
      </cc:Work>
    </rdf:RDF>
  </metadata>
  <defs
     id="defs1484" />
  <sodipodi:namedview
     pagecolor="#ffffff"
     bordercolor="#666666"
     borderopacity="1"
     objecttolerance="10"
     gridtolerance="10"
     guidetolerance="10"
     inkscape:pageopacity="0"
     inkscape:pageshadow="2"
     inkscape:window-width="740"
     inkscape:window-height="480"
     id="namedview1482"
     showgrid="false"
     fit-margin-top="0"
     fit-margin-left="0"
     fit-margin-right="0"
     fit-margin-bottom="0"
     inkscape:pagecheckerboard="true"
     inkscape:zoom="1.7919719"
     inkscape:cx="111.27263"
     inkscape:cy="36.129109"
     inkscape:window-x="0"
     inkscape:window-y="25"
     inkscape:window-maximized="0"
     inkscape:current-layer="g1488" />
  <g
     inkscape:groupmode="layer"
     inkscape:label="Image"
     id="g1488"
     transform="translate(-11.999999,-12.749027)">
    <g
       id="g1498">
      <path
         style="fill:#cccccc;fill-opacity:1;stroke-width:0.666667"
         d="m 13.333334,85.999998 c -2.304621,-2.30462 -1.162252,-5.549194 1.393789,-3.95866 0.766317,0.476853 0.786264,0.831973 0.108184,1.926113 -0.737627,1.190227 -0.642697,1.38882 0.841991,1.761453 2.133038,0.53536 3.659036,-0.71078 3.645827,-2.9772 -0.0132,-2.264453 -0.645296,-3.205573 -2.675278,-3.983173 L 15,78.137311 16.833334,77.418485 c 1.517288,-0.5949 1.833333,-1.1239 1.833333,-3.068654 0,-2.141173 -0.169385,-2.349833 -1.907552,-2.349833 -1.675239,0 -1.868751,0.20298 -1.588949,1.666667 0.258676,1.353173 0.05319,1.666666 -1.092448,1.666666 -1.779474,0 -1.888672,-2.027773 -0.19189,-3.56334 2.836152,-2.566686 8.740759,-0.202546 7.736087,3.09744 -0.245459,0.806247 -0.873756,1.953834 -1.396216,2.550194 -0.825651,0.942446 -0.814026,1.136446 0.08886,1.48292 1.780636,0.683293 2.478345,3.588219 1.37451,5.722799 -1.574242,3.044254 -5.964773,3.767614 -8.355734,1.376654 z m 142.201706,0.571813 c -2.121,-1.077613 -3.72572,-4.83508 -3.1759,-7.436393 1.36899,-6.476833 8.4742,-11.304106 13.07284,-8.88166 1.54384,0.81326 1.89928,0.795933 2.83333,-0.138113 0.97959,-0.979594 1.06772,-0.959594 1.06431,0.241493 -0.006,2.146647 -1.34387,6.309527 -2.02762,6.309527 -0.34943,0 -0.63533,-0.61972 -0.63533,-1.37716 0,-5.87372 -7.8429,-5.01944 -10.41412,1.134346 -1.44988,3.470047 -1.1972,7.305833 0.56246,8.538347 2.02097,1.415546 4.25333,1.3028 5.85166,-0.295534 1.55516,-1.55516 1.75397,-3.333333 0.37268,-3.333333 -0.52836,0 -1.14607,-0.3 -1.37268,-0.666667 -0.25581,-0.413906 0.99308,-0.666666 3.29399,-0.666666 2.0383,0 3.70601,0.3 3.70601,0.666666 0,0.366667 -0.4202,0.666667 -0.93377,0.666667 -0.52952,0 -1.18963,1.082313 -1.52477,2.5 -0.41279,1.746173 -0.98556,2.544713 -1.89955,2.648293 -0.71972,0.08156 -2.65858,0.302687 -4.30858,0.491387 -1.65,0.188707 -3.65923,0.0081 -4.46496,-0.4012 z M 172,85.999998 c -1.65934,-1.65934 -1.65627,-2.179687 0.0523,-8.871493 0.9263,-3.62796 1.1473,-5.50642 0.66667,-5.666634 -1.51284,-0.504286 -0.62636,-1.461873 1.35334,-1.461873 2.19012,0 2.2262,0.204847 0.85114,4.833333 -0.27653,0.930807 0.0621,1.166667 1.67487,1.166667 4.0237,0 4.69535,5.200073 1.15633,8.952533 -2.55801,2.712273 -3.85392,2.94816 -5.75462,1.047467 z m 4.05845,-2.042034 c 1.65905,-2.365233 2.17041,-5.911993 0.92147,-6.391253 -1.45846,-0.559666 -2.87652,0.90684 -3.64827,3.772887 -1.18808,4.4122 0.39935,5.9365 2.7268,2.618366 z M 24.666667,85.333331 c 0,-0.888887 0.444445,-1.333333 1.333333,-1.333333 0.888889,0 1.333334,0.444446 1.333334,1.333333 0,0.888887 -0.444445,1.333333 -1.333334,1.333333 -0.888888,0 -1.333333,-0.444446 -1.333333,-1.333333 z M 133.33334,81.999998 v -2.666667 h -6 c -3.55556,0 -6,-0.271606 -6,-0.666666 0,-0.4 2.66666,-0.666667 6.66666,-0.666667 h 6.66667 v 3.333333 c 0,1.833333 -0.3,3.333333 -0.66667,3.333333 -0.36666,0 -0.66666,-1.2 -0.66666,-2.666666 z m 16,0 v -2.666667 h -6 c -3.55556,0 -6,-0.271606 -6,-0.666666 0,-0.4 2.66666,-0.666667 6.66666,-0.666667 h 6.66667 v 3.333333 c 0,1.833333 -0.3,3.333333 -0.66667,3.333333 -0.36666,0 -0.66666,-1.2 -0.66666,-2.666666 z m -13.89893,-23.25676 c -0.49441,-0.313322 -0.79031,-1.133728 -0.65754,-1.823124 0.30745,-1.596471 2.25565,-1.654545 2.12664,-0.06339 -0.0761,0.938314 0.0978,1.028819 0.82193,0.427842 0.94652,-0.785551 2.26428,-4.722555 2.27084,-6.784563 0.005,-1.583346 -1.79111,-1.477102 -2.81766,0.166666 -0.95769,1.533512 -1.84528,1.743547 -1.84528,0.436659 0,-2.051537 2.26446,-3.034995 6.67981,-2.90105 3.82183,0.115939 4.32019,0.283813 4.32019,1.455261 0,0.73111 -0.52254,1.424835 -1.16667,1.548883 -0.76161,0.146672 -1.17403,-0.197355 -1.18787,-0.99087 -0.0399,-2.290764 -1.88064,1.008008 -2.3651,4.238598 -0.56531,3.769792 0.0821,4.364392 2.14387,1.96893 0.90428,-1.050641 1.81582,-1.738579 2.02565,-1.528752 0.66264,0.662638 -0.31677,2.321052 -2.03602,3.447544 -1.2934,0.847472 -1.96068,0.924122 -3.03582,0.348722 -0.96317,-0.515471 -1.76626,-0.529736 -2.66755,-0.04738 -1.5351,0.821562 -1.47453,0.81924 -2.60942,0.10003 z m 32,0 c -0.49441,-0.313322 -0.79031,-1.133728 -0.65754,-1.823124 0.30745,-1.596471 2.25565,-1.654545 2.12664,-0.06339 -0.0761,0.938314 0.0978,1.028819 0.82193,0.427842 0.94652,-0.785551 2.26428,-4.722555 2.27084,-6.784563 0.005,-1.583346 -1.79111,-1.477102 -2.81766,0.166666 -0.95769,1.533512 -1.84528,1.743547 -1.84528,0.436659 0,-2.051537 2.26446,-3.034995 6.67981,-2.90105 3.82183,0.115939 4.32019,0.283813 4.32019,1.455261 0,0.73111 -0.52254,1.424835 -1.16667,1.548883 -0.76161,0.146672 -1.17403,-0.197355 -1.18787,-0.99087 -0.0399,-2.290764 -1.88064,1.008008 -2.3651,4.238598 -0.56531,3.769792 0.0821,4.364392 2.14387,1.96893 0.90428,-1.050641 1.81582,-1.738579 2.02565,-1.528752 0.66264,0.662638 -0.31677,2.321052 -2.03602,3.447544 -1.2934,0.847472 -1.96068,0.924122 -3.03582,0.348722 -0.96317,-0.515471 -1.76626,-0.529736 -2.66755,-0.04738 -1.5351,0.821562 -1.47453,0.81924 -2.60942,0.10003 z M 12,58.116208 c 0,-0.302752 0.79066,-1.277752 1.757022,-2.166667 4.700034,-4.323359 6.770146,-9.155708 4.776312,-11.149542 -1.074458,-1.074458 -2.86154,-1.011105 -3.812862,0.135169 -0.59317,0.714725 -0.584139,0.999164 0.03831,1.206647 1.255631,0.418544 0.09013,2.657713 -1.249109,2.399799 -3.212531,-0.618676 -0.179186,-5.874948 3.390374,-5.874948 3.270782,0 5.09995,1.620027 5.09995,4.516839 0,2.04847 -0.55944,3.00771 -3.477226,5.962197 l -3.477227,3.520963 h 2.395912 c 1.730176,0 2.686653,-0.416795 3.442259,-1.5 1.03239,-1.479993 1.046813,-1.466656 1.081314,1 l 0.03497,2.5 h -5 c -2.75,0 -5,-0.247706 -5,-0.550457 z m 12.666667,-0.782876 c 0,-0.888889 0.444445,-1.333334 1.333333,-1.333334 0.888889,0 1.333334,0.444445 1.333334,1.333334 0,0.888888 -0.444445,1.333333 -1.333334,1.333333 -0.888888,0 -1.333333,-0.444445 -1.333333,-1.333333 z M 122,57.999998 c 0,-0.380952 2,-0.666666 4.66667,-0.666666 h 4.66667 v -2.96954 -2.96954 l -4.5,-0.197127 c -2.475,-0.10842 -4.5,-0.497126 -4.5,-0.863793 0,-0.366667 2.025,-0.755373 4.5,-0.863793 l 4.5,-0.197127 v -2.96954 -2.96954 h -4.66667 C 124,43.333332 122,43.047618 122,42.666666 c 0,-0.388889 2.22222,-0.666667 5.33334,-0.666667 h 5.33333 v 8.333333 8.333333 h -5.33333 C 124.22222,58.666665 122,58.388887 122,57.999998 Z m 26,0 c 0,-0.366666 0.56317,-0.666666 1.25148,-0.666666 1.01886,0 1.51977,-1.08425 2.69493,-5.833333 0.79389,-3.208334 1.60095,-6.358334 1.79345,-7 0.22912,-0.763752 -0.0109,-1.166667 -0.69493,-1.166667 -0.57471,0 -1.04493,-0.3 -1.04493,-0.666666 0,-0.4 2.66667,-0.666667 6.66667,-0.666667 6.47183,0 6.6664,0.04384 6.65757,1.5 -0.0137,2.260746 -0.73372,4.5 -1.44692,4.5 -0.34861,0 -0.45344,-0.568388 -0.23294,-1.263086 0.59267,-1.867361 -1.3389,-3.403581 -4.27952,-3.403581 -2.44906,0 -2.56658,0.10594 -3.28572,2.96188 -0.95827,3.805675 -0.97412,3.704787 0.58188,3.704787 0.73023,0 1.70239,-0.6 2.16036,-1.333334 1.7408,-2.787448 2.31171,-1.372934 1.14357,2.833334 -0.68725,2.474684 -2.20509,3.582081 -1.82751,1.333333 0.13894,-0.827484 -0.31344,-1.225711 -1.55602,-1.369759 -1.44192,-0.167155 -1.83091,0.127758 -2.19833,1.666667 -0.24552,1.028367 -0.60237,2.394758 -0.79301,3.036425 -0.25152,0.846666 0.0315,1.166667 1.03166,1.166667 0.75805,0 1.37826,0.3 1.37826,0.666666 0,0.370371 -1.77778,0.666667 -4,0.666667 -2.22222,0 -4,-0.296296 -4,-0.666667 z M 119.7959,30.907012 c -1.03884,-1.038841 0.6173,-1.573679 4.87294,-1.573679 3.85229,0 4.8819,-0.250954 6.4051,-1.561158 2.33167,-2.00562 2.43805,-5.11977 0.2543,-7.444269 -1.38789,-1.477337 -2.1013,-1.66124 -6.44444,-1.66124 -3.89671,0 -4.8838,-0.202115 -4.8838,-1 0,-1.330008 7.13587,-1.378951 10.26762,-0.07042 5.76483,2.4087 5.86074,9.942489 0.161,12.647192 -2.24751,1.066512 -9.76088,1.535414 -10.63272,0.663576 z M 86.868368,29.905145 c -2.121,-1.07761 -3.72572,-4.83508 -3.175893,-7.436394 1.368986,-6.476833 8.4742,-11.304102 13.072833,-8.88166 1.543847,0.813259 1.899287,0.795933 2.833333,-0.138111 0.979589,-0.979593 1.067719,-0.959596 1.064309,0.241496 -0.006,2.146642 -1.343869,6.309523 -2.027615,6.309523 -0.349434,0 -0.635334,-0.619722 -0.635334,-1.37716 0,-5.873721 -7.8429,-5.01944 -10.41412,1.134348 -1.44988,3.470048 -1.1972,7.305832 0.56246,8.538343 2.020974,1.415546 4.253327,1.302804 5.85166,-0.295531 1.55516,-1.55516 1.753967,-3.333333 0.37268,-3.333333 -0.52836,0 -1.146066,-0.3 -1.37268,-0.666667 -0.255806,-0.413906 0.99308,-0.666666 3.293987,-0.666666 2.038307,0 3.706012,0.3 3.706012,0.666666 0,0.366667 -0.420199,0.666667 -0.933772,0.666667 -0.52952,0 -1.189627,1.082317 -1.524767,2.5 -0.412786,1.746177 -0.98556,2.544715 -1.899553,2.648292 -0.71972,0.08156 -2.658573,0.302685 -4.308573,0.491389 -1.65,0.188703 -3.659234,0.0082 -4.464967,-0.401202 z m 16.464962,-0.571812 c -1.65934,-1.659341 -1.65627,-2.179685 0.0523,-8.871493 0.9263,-3.627957 1.1473,-5.50642 0.66667,-5.66663 -1.51284,-0.504287 -0.62636,-1.461877 1.35334,-1.461877 2.19012,0 2.2262,0.204849 0.85114,4.833333 -0.27653,0.930809 0.0621,1.166667 1.67487,1.166667 4.0237,0 4.69535,5.200073 1.15633,8.952532 -2.55801,2.712275 -3.85392,2.948161 -5.75462,1.047468 z m 4.05845,-2.042034 c 1.65905,-2.365236 2.17041,-5.91199 0.92147,-6.391255 -1.45846,-0.559663 -2.87652,0.906841 -3.64827,3.772889 -1.18808,4.412199 0.39935,5.936501 2.7268,2.618366 z m 41.33536,1.875367 c -0.31525,-0.825 -1.65782,-4.305105 -2.9835,-7.733568 -1.32566,-3.428462 -2.4103,-6.653462 -2.4103,-7.166666 0,-1.819994 1.14602,-0.895054 2.1928,1.769774 l 1.06172,2.702873 3.48309,-0.202873 c 3.31019,-0.192802 3.52126,-0.316706 4.252,-2.49596 0.72149,-2.151658 2.34372,-3.633055 2.34372,-2.140248 0,1.401855 -6.20823,16.766668 -6.77466,16.766668 -0.32542,0 -0.84961,-0.675 -1.16487,-1.5 z m 2.6955,-5.5 1.07879,-3 h -2.65537 c -2.26462,0 -2.58579,0.171684 -2.18253,1.166667 0.26007,0.641666 0.77151,1.991666 1.13655,3 0.36503,1.008333 0.86171,1.833333 1.10373,1.833333 0.24202,0 0.92549,-1.35 1.51883,-3 z m 6.01177,6.409907 c -0.49441,-0.313322 -0.79031,-1.133728 -0.65754,-1.823125 0.30745,-1.596471 2.25565,-1.654545 2.12664,-0.06339 -0.0761,0.938314 0.0978,1.028818 0.82193,0.427841 0.94652,-0.785551 2.26428,-4.722555 2.27084,-6.784563 0.005,-1.583346 -1.79111,-1.477102 -2.81766,0.166666 -0.95769,1.533512 -1.84528,1.743547 -1.84528,0.436659 0,-2.051537 2.26446,-3.034995 6.67981,-2.90105 3.82183,0.115939 4.32019,0.283813 4.32019,1.455261 0,0.73111 -0.52254,1.424835 -1.16667,1.548883 -0.76161,0.146672 -1.17403,-0.197355 -1.18787,-0.99087 -0.0399,-2.290764 -1.88064,1.008008 -2.3651,4.238598 -0.56531,3.769792 0.0821,4.364392 2.14387,1.96893 0.90428,-1.050641 1.81582,-1.738579 2.02565,-1.528752 0.66264,0.662639 -0.31677,2.321053 -2.03602,3.447545 -1.2934,0.847471 -1.96068,0.924121 -3.03582,0.348722 -0.96317,-0.515472 -1.76626,-0.529736 -2.66755,-0.04738 -1.5351,0.821561 -1.47453,0.81924 -2.60942,0.100029 z m 48,0 c -0.49441,-0.313322 -0.79031,-1.133728 -0.65754,-1.823125 0.30745,-1.596471 2.25565,-1.654545 2.12664,-0.06339 -0.0761,0.938314 0.0978,1.028818 0.82193,0.427841 0.94652,-0.785551 2.26428,-4.722555 2.27084,-6.784563 0.005,-1.583346 -1.79111,-1.477102 -2.81766,0.166666 -0.95769,1.533512 -1.84528,1.743547 -1.84528,0.436659 0,-2.051537 2.26446,-3.034995 6.67981,-2.90105 3.82183,0.115939 4.32019,0.283813 4.32019,1.455261 0,0.73111 -0.52254,1.424835 -1.16667,1.548883 -0.76161,0.146672 -1.17403,-0.197355 -1.18787,-0.99087 -0.0399,-2.290764 -1.88064,1.008008 -2.3651,4.238598 -0.56531,3.769792 0.0821,4.364392 2.14387,1.96893 0.90428,-1.050641 1.81582,-1.738579 2.02565,-1.528752 0.66264,0.662639 -0.31677,2.321053 -2.03602,3.447545 -1.2934,0.847471 -1.96068,0.924121 -3.03582,0.348722 -0.96317,-0.515472 -1.76626,-0.529736 -2.66755,-0.04738 -1.5351,0.821561 -1.47453,0.81924 -2.60942,0.100029 z M 12.666667,29.333333 c 0,-0.366667 0.6,-0.666667 1.333333,-0.666667 1.234568,0 1.333334,-0.444445 1.333334,-6 0,-5.555555 -0.09877,-6 -1.333334,-6 -2.04542,0 -1.585639,-0.974246 0.880666,-1.866074 C 16.098365,14.360266 17.298365,14 17.547332,14 17.7963,14 18,17.3 18,21.333333 c 0,6.888888 0.08081,7.333333 1.333334,7.333333 0.733333,0 1.333333,0.3 1.333333,0.666667 0,0.37037 -1.777778,0.666666 -4,0.666666 -2.222222,0 -4,-0.296296 -4,-0.666666 z m 12,-0.666667 c 0,-0.888889 0.444445,-1.333333 1.333333,-1.333333 0.888889,0 1.333334,0.444444 1.333334,1.333333 0,0.888889 -0.444445,1.333333 -1.333334,1.333333 -0.888888,0 -1.333333,-0.444444 -1.333333,-1.333333 z M 186,29.333333 c 0,-0.366667 0.56317,-0.666667 1.25148,-0.666667 1.01886,0 1.51977,-1.08425 2.69493,-5.833333 0.79389,-3.208334 1.60095,-6.358333 1.79345,-7 0.22912,-0.763752 -0.0109,-1.166667 -0.69493,-1.166667 -0.57471,0 -1.04493,-0.3 -1.04493,-0.666666 0,-0.4 2.66667,-0.666667 6.66667,-0.666667 6.47183,0 6.6664,0.04384 6.65757,1.5 -0.0137,2.260746 -0.73372,4.5 -1.44692,4.5 -0.34861,0 -0.45344,-0.568388 -0.23294,-1.263085 0.59267,-1.867362 -1.3389,-3.403582 -4.27952,-3.403582 -2.44906,0 -2.56658,0.10594 -3.28572,2.96188 -0.95827,3.805675 -0.97412,3.704787 0.58188,3.704787 0.73023,0 1.70239,-0.6 2.16036,-1.333334 1.7408,-2.787447 2.31171,-1.372934 1.14357,2.833334 -0.68725,2.474684 -2.20509,3.582081 -1.82751,1.333333 0.13894,-0.827484 -0.31344,-1.225711 -1.55602,-1.369759 -1.44192,-0.167155 -1.83091,0.127758 -2.19833,1.666667 -0.24552,1.028367 -0.60237,2.394759 -0.79301,3.036425 -0.25152,0.846666 0.0315,1.166667 1.03166,1.166667 0.75805,0 1.37826,0.3 1.37826,0.666667 0,0.37037 -1.77778,0.666666 -4,0.666666 -2.22222,0 -4,-0.296296 -4,-0.666666 z m -2.66666,-4 v -2.666667 h -6 c -3.55556,0 -6,-0.271605 -6,-0.666667 0,-0.4 2.66666,-0.666666 6.66666,-0.666666 h 6.66667 v 3.333333 c 0,1.833333 -0.3,3.333333 -0.66667,3.333333 -0.36666,0 -0.66666,-1.2 -0.66666,-2.666666 z"
         id="path1512" />
      <path
         style="fill:#b3b3b3;fill-opacity:1;stroke-width:0.666667"
         d="m 13.756573,85.951611 c -1.974928,-1.55348 -2.275498,-3.12766 -0.711761,-3.727727 1.557384,-0.59762 2.700502,0.809754 1.6681,2.053727 -0.69559,0.838133 -0.548736,1.07152 0.903578,1.436033 2.230698,0.559867 3.716844,-0.67204 3.716844,-3.080993 0,-2.083773 -1.506415,-3.953553 -3.214286,-3.989613 -0.809575,-0.01707 -0.667552,-0.27366 0.513553,-0.927753 3.140561,-1.739234 3.174483,-5.715287 0.04876,-5.715287 -1.592301,0 -1.788445,0.216327 -1.511195,1.666667 0.235595,1.232433 0.03236,1.666666 -0.780038,1.666666 -1.650172,0 -2.041876,-1.8765 -0.70099,-3.358166 2.608608,-2.882474 8.98329,-0.558287 7.932777,2.892266 -0.245459,0.806247 -0.873756,1.953834 -1.396216,2.550194 -0.825868,0.942693 -0.813479,1.13666 0.09487,1.485226 2.755587,1.05742 2.263387,6.313307 -0.718454,7.67192 -2.405355,1.095953 -3.856741,0.941233 -5.845542,-0.62316 z M 154.63588,85.500018 c -1.87627,-1.67644 -2.19143,-2.3992 -2.19143,-5.02562 0,-6.64626 7.92776,-12.831613 13.04412,-10.177213 1.46775,0.761473 1.85933,0.735873 2.77674,-0.18154 0.97959,-0.979594 1.06772,-0.959594 1.06431,0.241493 -0.006,2.146647 -1.34387,6.309527 -2.02762,6.309527 -0.34943,0 -0.63533,-0.893087 -0.63533,-1.984634 0,-2.759193 -2.40637,-4.33384 -5.07668,-3.322006 -3.99193,1.512633 -6.52743,5.58644 -6.39416,10.273573 0.10912,3.837706 4.7728,5.731106 7.47084,3.033066 1.55516,-1.55516 1.75397,-3.333333 0.37268,-3.333333 -0.52836,0 -1.14607,-0.3 -1.37268,-0.666667 -0.25713,-0.416053 1.04379,-0.658693 3.46065,-0.645466 3.27312,0.01793 3.70032,0.15228 2.75932,0.867853 -0.61235,0.46566 -1.37477,1.855453 -1.69426,3.088433 -0.43453,1.676887 -0.99393,2.295654 -2.21998,2.455574 -0.90148,0.117586 -2.87792,0.39632 -4.39208,0.6194 -2.40474,0.354293 -3.03025,0.1579 -4.94444,-1.55244 z m 17.39822,0.53408 c -1.69602,-1.696027 -1.695,-2.195654 0.0182,-8.905593 0.9263,-3.62796 1.1473,-5.50642 0.66667,-5.666634 -1.50353,-0.501173 -0.63215,-1.461873 1.32596,-1.461873 1.63514,0 1.97547,0.233787 1.69833,1.166667 -1.35533,4.562066 -1.32126,4.72792 1.0175,4.953246 3.76969,0.363194 4.35453,5.179913 1.06782,8.794567 -2.16899,2.385406 -4.14658,2.76752 -5.79448,1.11962 z m 3.56734,-1.0641 c 0.5665,-0.5665 1.36067,-2.25804 1.76483,-3.758974 0.59701,-2.217126 0.55324,-2.910566 -0.23337,-3.697179 -0.8465,-0.846494 -1.13599,-0.788107 -2.30296,0.464486 -2.02315,2.1716 -2.61112,8.021667 -0.80623,8.021667 0.30125,0 1.01122,-0.4635 1.57773,-1.03 z M 24.666667,85.382211 c 0,-0.95406 0.42815,-1.382213 1.382216,-1.382213 1.708429,0 1.514619,2.206553 -0.223205,2.541226 -0.8,0.154067 -1.159011,-0.204946 -1.159011,-1.159013 z M 133.33334,81.999998 v -2.666667 h -6 c -3.55556,0 -6,-0.271606 -6,-0.666666 0,-0.4 2.66666,-0.666667 6.66666,-0.666667 h 6.66667 v 3.333333 c 0,1.833333 -0.3,3.333333 -0.66667,3.333333 -0.36666,0 -0.66666,-1.2 -0.66666,-2.666666 z m 16,0 v -2.666667 h -6 c -3.55556,0 -6,-0.271606 -6,-0.666666 0,-0.4 2.66666,-0.666667 6.66666,-0.666667 h 6.66667 v 3.333333 c 0,1.833333 -0.3,3.333333 -0.66667,3.333333 -0.36666,0 -0.66666,-1.2 -0.66666,-2.666666 z m -13.5,-23.165447 c -1.41505,-0.322208 -1.55125,-2.544323 -0.18802,-3.067444 1.11394,-0.42746 1.97301,0.565753 1.35468,1.566225 -0.22661,0.366666 -0.14247,0.666666 0.18698,0.666666 1.48173,0 3.55218,-8.131156 2.27192,-8.922397 -0.72544,-0.448348 -2.79223,1.256574 -2.79223,2.30335 0,0.340476 -0.3,0.619048 -0.66667,0.619048 -1.08642,0 -0.76058,-1.70836 0.5525,-2.896675 1.37202,-1.241663 3.81344,-1.462599 4.46751,-0.404287 0.29743,0.481256 0.71365,0.465312 1.33599,-0.05117 1.42688,-1.184218 3.97734,-0.530915 3.97734,1.018801 0,0.740741 -0.44445,1.333334 -1,1.333334 -0.55,0 -0.96229,-0.501276 -0.9162,-1.113947 0.0513,-0.681777 -0.26696,-0.979346 -0.82031,-0.767005 -1.62419,0.623261 -3.15323,8.880951 -1.64445,8.880951 0.7643,0 2.48976,-1.680549 2.89683,-2.821428 0.16587,-0.464881 0.51697,-0.645932 0.78021,-0.402335 0.68481,0.633716 -0.75795,3.067245 -2.31136,3.898607 -0.92917,0.497274 -1.71146,0.494862 -2.65139,-0.0082 -0.79831,-0.427243 -1.80148,-0.483428 -2.5,-0.14002 -0.64167,0.315457 -1.69167,0.454015 -2.33333,0.307906 z m 32,0 c -1.41505,-0.322208 -1.55125,-2.544323 -0.18802,-3.067444 1.11394,-0.42746 1.97301,0.565753 1.35468,1.566225 -0.22661,0.366666 -0.14247,0.666666 0.18698,0.666666 1.48173,0 3.55218,-8.131156 2.27192,-8.922397 -0.72544,-0.448348 -2.79223,1.256574 -2.79223,2.30335 0,0.340476 -0.3,0.619048 -0.66667,0.619048 -1.08642,0 -0.76058,-1.70836 0.5525,-2.896675 1.37202,-1.241663 3.81344,-1.462599 4.46751,-0.404287 0.29743,0.481256 0.71365,0.465312 1.33599,-0.05117 1.42688,-1.184218 3.97734,-0.530915 3.97734,1.018801 0,0.740741 -0.44445,1.333334 -1,1.333334 -0.55,0 -0.96229,-0.501276 -0.9162,-1.113947 0.0513,-0.681777 -0.26696,-0.979346 -0.82031,-0.767005 -1.62419,0.623261 -3.15323,8.880951 -1.64445,8.880951 0.7643,0 2.48976,-1.680549 2.89683,-2.821428 0.16587,-0.464881 0.51697,-0.645932 0.78021,-0.402335 0.68481,0.633716 -0.75795,3.067245 -2.31136,3.898607 -0.92917,0.497274 -1.71146,0.494862 -2.65139,-0.0082 -0.79831,-0.427243 -1.80148,-0.483428 -2.5,-0.14002 -0.64167,0.315457 -1.69167,0.454015 -2.33333,0.307906 z M 12.606814,57.445169 c 0.359548,-0.671823 1.17012,-1.646823 1.801272,-2.166666 2.253582,-1.856151 4.925248,-6.17593 4.925248,-7.963567 0,-2.331537 -1.505064,-3.583703 -3.65801,-3.043347 -1.610095,0.404108 -2.382925,1.72841 -1.008657,1.72841 1.086434,0 0.758508,2.006604 -0.400617,2.451401 -1.26975,0.487249 -2.29489,-0.89776 -1.769703,-2.390945 1.22623,-3.486355 5.633069,-4.597707 8.17032,-2.060456 2.351319,2.351318 1.741183,4.981906 -2.096705,9.039907 l -3.430038,3.626759 h 2.685617 c 2.19376,0 2.776406,-0.274717 3.181338,-1.5 l 0.495721,-1.5 0.301421,1.548484 c 0.582417,2.992035 -0.101828,3.451516 -5.139887,3.451516 -4.360683,0 -4.662428,-0.09084 -4.05732,-1.221496 z m 12.059853,-0.06296 c 0,-0.954066 0.42815,-1.382216 1.382216,-1.382216 0.954066,0 1.313077,0.359011 1.159011,1.159011 -0.334674,1.737825 -2.541227,1.931634 -2.541227,0.223205 z M 122,57.999998 c 0,-0.380952 2,-0.666666 4.66667,-0.666666 h 4.66667 v -2.96954 -2.96954 l -4.5,-0.197127 c -2.475,-0.10842 -4.5,-0.497126 -4.5,-0.863793 0,-0.366667 2.025,-0.755373 4.5,-0.863793 l 4.5,-0.197127 v -2.96954 -2.96954 h -4.66667 C 124,43.333332 122,43.047618 122,42.666666 c 0,-0.388889 2.22222,-0.666667 5.33334,-0.666667 h 5.33333 v 8.333333 8.333333 h -5.33333 C 124.22222,58.666665 122,58.388887 122,57.999998 Z m 26,0 c 0,-0.366666 0.56317,-0.666666 1.25148,-0.666666 1.01886,0 1.51977,-1.08425 2.69493,-5.833333 0.79389,-3.208334 1.60095,-6.358334 1.79345,-7 0.22912,-0.763752 -0.0109,-1.166667 -0.69493,-1.166667 -0.57471,0 -1.04493,-0.3 -1.04493,-0.666666 0,-0.397815 2.56253,-0.666667 6.35426,-0.666667 7.09326,0 7.69218,0.3894 6.46617,4.204121 -0.53071,1.651305 -0.69959,1.803221 -0.75237,0.676831 -0.1043,-2.225766 -1.87454,-3.547619 -4.751,-3.547619 -2.42238,0 -2.63208,0.159735 -3.282,2.5 -0.92863,3.343817 -0.88049,4.166667 0.24375,4.166667 1.6755,0 3.05453,-0.784652 3.05453,-1.737993 0,-0.510771 0.3,-0.928674 0.66666,-0.928674 0.86376,0 0.84114,0.929665 -0.099,4.067489 -0.42111,1.405534 -1.00801,2.405732 -1.30422,2.222663 -0.29621,-0.183069 -0.36957,-0.773245 -0.16302,-1.311502 0.27975,-0.729026 -0.1448,-0.97865 -1.66445,-0.97865 -1.78945,0 -2.12525,0.307037 -2.73427,2.5 -0.93192,3.355694 -0.90588,3.5 0.63161,3.5 0.73333,0 1.33333,0.3 1.33333,0.666666 0,0.370371 -1.77778,0.666667 -4,0.666667 -2.22222,0 -4,-0.296296 -4,-0.666667 z M 120,30.421004 c 0,-0.906801 0.81213,-1.087671 4.8838,-1.087671 4.34314,0 5.05655,-0.183904 6.44444,-1.66124 2.085,-2.219388 2.0463,-5.267258 -0.0941,-7.407637 -1.34534,-1.345337 -2.55031,-1.729817 -6.44445,-2.056287 C 122.15537,17.987315 120,17.550128 120,17.236642 c 0,-0.933918 7.86061,-0.646111 10.31047,0.377506 3.84669,1.607249 5.37643,6.119694 3.27854,9.671123 -1.62857,2.756944 -3.45223,3.57191 -8.75567,3.912764 C 120.6814,31.464882 120,31.355337 120,30.421004 Z M 85.969208,28.833355 c -1.876267,-1.676442 -2.191427,-2.399205 -2.191427,-5.025622 0,-6.646261 7.92776,-12.831615 13.04412,-10.177215 1.467747,0.761477 1.859327,0.735876 2.77674,-0.181538 0.979589,-0.979593 1.067719,-0.959596 1.064309,0.241496 -0.006,2.146642 -1.343869,6.309523 -2.027615,6.309523 -0.349434,0 -0.635334,-0.893084 -0.635334,-1.984631 0,-2.759197 -2.406373,-4.333843 -5.07668,-3.322006 -3.991926,1.512628 -6.527426,5.586439 -6.39416,10.273569 0.10912,3.83771 4.7728,5.731108 7.47084,3.033068 1.55516,-1.55516 1.753967,-3.333333 0.37268,-3.333333 -0.52836,0 -1.146066,-0.3 -1.37268,-0.666667 -0.257133,-0.416054 1.043794,-0.658696 3.460654,-0.645464 3.27312,0.01792 3.700315,0.152279 2.75932,0.867851 -0.612354,0.465657 -1.374774,1.855451 -1.694267,3.088432 -0.434527,1.676886 -0.993927,2.295656 -2.219973,2.455577 -0.901487,0.117586 -2.877927,0.396315 -4.392087,0.619397 -2.40474,0.354291 -3.030247,0.157898 -4.94444,-1.552437 z m 17.398222,0.534079 c -1.69602,-1.696025 -1.695,-2.195653 0.0182,-8.905594 0.9263,-3.627957 1.1473,-5.50642 0.66667,-5.66663 -1.50353,-0.501176 -0.63215,-1.461877 1.32596,-1.461877 1.63514,0 1.97547,0.233789 1.69833,1.166667 -1.35533,4.562065 -1.32126,4.727917 1.0175,4.953245 3.76969,0.363192 4.35453,5.179916 1.06782,8.79457 -2.16899,2.385407 -4.14658,2.767519 -5.79448,1.119619 z m 3.56734,-1.064103 c 0.5665,-0.566501 1.36067,-2.258038 1.76483,-3.758972 0.59701,-2.217124 0.55324,-2.910568 -0.23337,-3.697177 -0.8465,-0.846497 -1.13599,-0.788109 -2.30296,0.464484 -2.02315,2.171599 -2.61112,8.021667 -0.80623,8.021667 0.30125,0 1.01122,-0.463501 1.57773,-1.030002 z m 41.93992,1.196668 c -0.22925,-0.641666 -1.56816,-4.166666 -2.97538,-7.833333 -2.67267,-6.963964 -2.98917,-8.333333 -1.92607,-8.333333 0.35195,0 0.99944,1.2 1.43886,2.666667 l 0.79896,2.666666 h 3.56653 c 3.53869,0 3.57487,-0.02083 4.63353,-2.666666 0.93756,-2.343175 2.23692,-3.585753 2.26568,-2.166667 0.0251,1.238397 -6.27122,16.833333 -6.79632,16.833333 -0.32394,0 -0.77655,-0.525 -1.00579,-1.166667 z m 2.68633,-6 1.09486,-2.833333 h -2.71683 c -1.91332,0 -2.61462,0.246459 -2.37125,0.833333 0.19006,0.458334 0.71543,1.967962 1.16749,3.354731 0.92522,2.838289 1.26918,2.673383 2.82573,-1.354731 z m 6.27232,6.667886 c -1.41505,-0.322208 -1.55125,-2.544323 -0.18802,-3.067444 1.11394,-0.42746 1.97301,0.565753 1.35468,1.566225 -0.22661,0.366667 -0.14247,0.666667 0.18698,0.666667 1.48173,0 3.55218,-8.131157 2.27192,-8.922398 -0.72544,-0.448348 -2.79223,1.256574 -2.79223,2.30335 0,0.340476 -0.3,0.619048 -0.66667,0.619048 -1.08642,0 -0.76058,-1.70836 0.5525,-2.896675 1.37202,-1.241663 3.81344,-1.462599 4.46751,-0.404287 0.29743,0.481256 0.71365,0.465312 1.33599,-0.05117 1.42688,-1.184218 3.97734,-0.530915 3.97734,1.018801 0,0.740741 -0.44445,1.333334 -1,1.333334 -0.55,0 -0.96229,-0.501276 -0.9162,-1.113947 0.0513,-0.681777 -0.26696,-0.979346 -0.82031,-0.767005 -1.62419,0.623261 -3.15323,8.880952 -1.64445,8.880952 0.7643,0 2.48976,-1.68055 2.89683,-2.821429 0.16587,-0.464881 0.51697,-0.645932 0.78021,-0.402335 0.68481,0.633716 -0.75795,3.067246 -2.31136,3.898607 -0.92917,0.497275 -1.71146,0.494862 -2.65139,-0.0082 -0.79831,-0.427242 -1.80148,-0.483428 -2.5,-0.14002 -0.64167,0.315457 -1.69167,0.454015 -2.33333,0.307906 z m 48,0 c -1.41505,-0.322208 -1.55125,-2.544323 -0.18802,-3.067444 1.11394,-0.42746 1.97301,0.565753 1.35468,1.566225 -0.22661,0.366667 -0.14247,0.666667 0.18698,0.666667 1.48173,0 3.55218,-8.131157 2.27192,-8.922398 -0.72544,-0.448348 -2.79223,1.256574 -2.79223,2.30335 0,0.340476 -0.3,0.619048 -0.66667,0.619048 -1.08642,0 -0.76058,-1.70836 0.5525,-2.896675 1.37202,-1.241663 3.81344,-1.462599 4.46751,-0.404287 0.29743,0.481256 0.71365,0.465312 1.33599,-0.05117 1.42688,-1.184218 3.97734,-0.530915 3.97734,1.018801 0,0.740741 -0.44445,1.333334 -1,1.333334 -0.55,0 -0.96229,-0.501276 -0.9162,-1.113947 0.0513,-0.681777 -0.26696,-0.979346 -0.82031,-0.767005 -1.62419,0.623261 -3.15323,8.880952 -1.64445,8.880952 0.7643,0 2.48976,-1.68055 2.89683,-2.821429 0.16587,-0.464881 0.51697,-0.645932 0.78021,-0.402335 0.68481,0.633716 -0.75795,3.067246 -2.31136,3.898607 -0.92917,0.497275 -1.71146,0.494862 -2.65139,-0.0082 -0.79831,-0.427242 -1.80148,-0.483428 -2.5,-0.14002 -0.64167,0.315457 -1.69167,0.454015 -2.33333,0.307906 z M 12.666667,29.333333 c 0,-0.366667 0.6,-0.666667 1.333333,-0.666667 1.238835,0 1.333334,-0.444445 1.333334,-6.27092 0,-5.9427 -0.06979,-6.25267 -1.333334,-5.922246 -2.225302,0.58193 -1.489468,-0.815856 0.880666,-1.672908 C 16.098365,14.360266 17.298365,14 17.547332,14 17.7963,14 18,17.3 18,21.333333 c 0,6.888888 0.08081,7.333333 1.333334,7.333333 0.733333,0 1.333333,0.3 1.333333,0.666667 0,0.37037 -1.777778,0.666666 -4,0.666666 -2.222222,0 -4,-0.296296 -4,-0.666666 z m 12,-0.617784 c 0,-0.954066 0.42815,-1.382216 1.382216,-1.382216 0.954066,0 1.313077,0.35901 1.159011,1.15901 -0.334674,1.737825 -2.541227,1.931634 -2.541227,0.223206 z M 186,29.333333 c 0,-0.366667 0.56317,-0.666667 1.25148,-0.666667 1.01886,0 1.51977,-1.08425 2.69493,-5.833333 0.79389,-3.208334 1.60095,-6.358333 1.79345,-7 0.22912,-0.763752 -0.0109,-1.166667 -0.69493,-1.166667 -0.57471,0 -1.04493,-0.3 -1.04493,-0.666666 0,-0.397815 2.56253,-0.666667 6.35426,-0.666667 7.09326,0 7.69218,0.3894 6.46617,4.204121 -0.53071,1.651305 -0.69959,1.803221 -0.75237,0.676832 -0.1043,-2.225766 -1.87454,-3.54762 -4.751,-3.54762 -2.42238,0 -2.63208,0.159736 -3.282,2.5 -0.92863,3.343817 -0.88049,4.166667 0.24375,4.166667 1.6755,0 3.05453,-0.784652 3.05453,-1.737993 0,-0.510771 0.3,-0.928674 0.66666,-0.928674 0.86376,0 0.84114,0.929665 -0.099,4.067489 -0.42111,1.405534 -1.00801,2.405732 -1.30422,2.222663 -0.29621,-0.183069 -0.36957,-0.773245 -0.16302,-1.311502 0.27975,-0.729026 -0.1448,-0.97865 -1.66445,-0.97865 -1.78945,0 -2.12525,0.307037 -2.73427,2.5 -0.93192,3.355694 -0.90588,3.5 0.63161,3.5 0.73333,0 1.33333,0.3 1.33333,0.666667 0,0.37037 -1.77778,0.666666 -4,0.666666 -2.22222,0 -4,-0.296296 -4,-0.666666 z m -2.66666,-4 v -2.666667 h -6 c -3.55556,0 -6,-0.271605 -6,-0.666667 0,-0.4 2.66666,-0.666666 6.66666,-0.666666 h 6.66667 v 3.333333 c 0,1.833333 -0.3,3.333333 -0.66667,3.333333 -0.36666,0 -0.66666,-1.2 -0.66666,-2.666666 z"
         id="path1510" />
      <path
         style="fill:#999999;fill-opacity:1;stroke-width:0.666667"
         d="m 13.636364,85.696964 c -1.892573,-1.892566 -2.06544,-2.907493 -0.591552,-3.47308 1.557384,-0.59762 2.700502,0.809754 1.6681,2.053727 -0.69559,0.838133 -0.548736,1.07152 0.903578,1.436033 2.301371,0.577607 3.716844,-0.69002 3.716844,-3.328606 0,-2.434713 -1.007692,-3.706807 -2.966667,-3.745067 -1.180422,-0.02307 -1.116826,-0.162233 0.466667,-1.021286 1.008333,-0.547034 1.833333,-1.260487 1.833333,-1.585454 0,-0.324966 0.167253,-1.026706 0.371673,-1.559413 0.509889,-1.328753 -1.404601,-3.09422 -2.92441,-2.69678 -0.904006,0.236407 -1.158654,0.7655 -0.934009,1.940653 0.22578,1.181094 0.01335,1.61564 -0.789793,1.61564 -1.847674,0 -2.10608,-2.077893 -0.427444,-3.437173 1.690776,-1.369107 4.127013,-1.585187 6.081144,-0.539373 1.534284,0.821126 1.721027,3.798233 0.355396,5.665846 -0.821811,1.123894 -0.781738,1.384194 0.333334,2.16522 1.955562,1.369727 1.68941,5.05012 -0.48913,6.76376 -2.330171,1.832913 -4.60727,1.745153 -6.607064,-0.254647 z m 141.070566,-0.1346 c -5.63431,-5.037306 0.15086,-15.562366 8.55395,-15.562366 1.46324,0 2.85485,0.314567 3.09246,0.69904 0.29448,0.476467 0.73666,0.446213 1.38879,-0.095 1.47553,-1.22458 1.72262,-0.383027 0.87541,2.981533 -0.87654,3.48106 -1.95087,4.084874 -1.95087,1.09646 0,-2.497013 -2.40225,-4.274453 -4.92222,-3.641986 -3.61784,0.90802 -7.81975,8.104506 -6.64959,11.388559 1.2886,3.616447 5.07442,4.735454 7.57181,2.23806 1.55516,-1.55516 1.75397,-3.333333 0.37268,-3.333333 -0.52836,0 -1.14607,-0.3 -1.37268,-0.666667 -0.25713,-0.416053 1.04379,-0.658693 3.46065,-0.645466 3.27312,0.01793 3.70032,0.15228 2.75932,0.867853 -0.61235,0.46566 -1.37477,1.855453 -1.69426,3.088433 -0.43453,1.676887 -0.99393,2.295654 -2.21998,2.455574 -0.90148,0.117586 -2.87792,0.39632 -4.39208,0.6194 -2.38985,0.352093 -3.03273,0.155526 -4.87339,-1.490094 z M 24.666667,85.382211 c 0,-0.95406 0.42815,-1.382213 1.382216,-1.382213 1.708429,0 1.514619,2.206553 -0.223205,2.541226 -0.8,0.154067 -1.159011,-0.204946 -1.159011,-1.159013 z m 146.668413,-0.37764 c -0.49827,-1.31054 -0.30435,-3.17104 0.78196,-7.502273 1.04548,-4.168453 1.22884,-5.831453 0.66375,-6.019813 -1.56407,-0.52136 -0.72738,-1.482487 1.29054,-1.482487 1.52153,0 1.97429,0.252867 1.70575,0.95266 -0.20106,0.52396 -0.55969,1.987427 -0.79695,3.252153 -0.40554,2.161707 -0.33429,2.28094 1.18902,1.98974 3.66871,-0.70132 5.00614,3.858407 2.30941,7.873527 -1.20305,1.791193 -2.04039,2.308566 -4.00118,2.472233 -2.14996,0.179453 -2.56784,-0.0248 -3.1423,-1.53574 z m 5.42648,-2.06382 c 1.32903,-3.004486 1.27296,-6.274086 -0.10759,-6.274086 -1.36938,0 -3.19769,2.63264 -3.63792,5.238353 -0.8502,5.03228 1.66945,5.729026 3.74551,1.035733 z m -43.42822,-0.940753 v -2.666667 h -6 c -3.55556,0 -6,-0.271606 -6,-0.666666 0,-0.4 2.66666,-0.666667 6.66666,-0.666667 h 6.66667 v 3.333333 c 0,1.833333 -0.3,3.333333 -0.66667,3.333333 -0.36666,0 -0.66666,-1.2 -0.66666,-2.666666 z m 16,0 v -2.666667 h -6 c -3.55556,0 -6,-0.271606 -6,-0.666666 0,-0.4 2.66666,-0.666667 6.66666,-0.666667 h 6.66667 v 3.333333 c 0,1.833333 -0.3,3.333333 -0.66667,3.333333 -0.36666,0 -0.66666,-1.2 -0.66666,-2.666666 z M 12.666667,58.001919 c 0,-0.365611 0.996997,-1.790611 2.215549,-3.166666 3.369054,-3.804522 4.451118,-5.631881 4.451118,-7.516925 0,-2.114449 -1.12249,-3.318329 -3.093989,-3.318329 -1.864415,0 -2.601533,1.093639 -1.572678,2.333333 0.906005,1.091669 0.352927,2.333333 -1.039345,2.333333 -1.583011,0 -1.458131,-2.975702 0.202839,-4.833333 1.506708,-1.685103 4.965664,-1.49142 6.720297,0.376301 2.377148,2.530358 1.879584,4.748808 -1.980496,8.830273 l -3.430038,3.626759 h 2.661495 c 2.101277,0 2.813769,-0.315735 3.384918,-1.5 l 0.723423,-1.5 0.04512,1.445476 c 0.09721,3.114213 -0.525403,3.554524 -5.026206,3.554524 -2.388684,0 -4.262007,-0.292183 -4.262007,-0.664746 z m 12,-0.619705 c 0,-0.954066 0.42815,-1.382216 1.382216,-1.382216 0.954066,0 1.313077,0.359011 1.159011,1.159011 -0.334674,1.737825 -2.541227,1.931634 -2.541227,0.223205 z M 122,57.999998 c 0,-0.380952 2,-0.666666 4.66667,-0.666666 h 4.66667 v -2.96954 -2.96954 l -4.5,-0.197127 c -2.475,-0.10842 -4.5,-0.497126 -4.5,-0.863793 0,-0.366667 2.025,-0.755373 4.5,-0.863793 l 4.5,-0.197127 v -2.96954 -2.96954 h -4.66667 C 124,43.333332 122,43.047618 122,42.666666 c 0,-0.388889 2.22222,-0.666667 5.33334,-0.666667 h 5.33333 v 8.333333 8.333333 h -5.33333 C 124.22222,58.666665 122,58.388887 122,57.999998 Z m 12.66667,-0.72549 c 0,-0.851638 0.46605,-1.27451 1.40466,-1.27451 1.00763,0 1.29015,0.298395 0.99955,1.055707 -0.25657,0.668593 -0.0994,0.956447 0.42867,0.785013 1.26502,-0.410696 2.9639,-7.64394 2.0176,-8.590239 -0.56257,-0.562565 -1.19263,-0.283326 -2.46953,1.09448 -1.88446,2.033367 -2.31793,1.480204 -0.67648,-0.86329 1.07734,-1.538128 3.88937,-2.011529 4.64887,-0.782632 0.29743,0.481256 0.71365,0.465312 1.33599,-0.05117 1.42688,-1.184218 3.97734,-0.530915 3.97734,1.018801 0,0.740741 -0.44445,1.333334 -1,1.333334 -0.55,0 -0.96229,-0.501276 -0.9162,-1.113947 0.0515,-0.685091 -0.26649,-0.979524 -0.82609,-0.764785 -1.09758,0.42118 -2.57667,5.513761 -2.3367,8.045398 0.13491,1.423283 1.87082,0.916995 3.05558,-0.891176 0.62147,-0.94848 1.29661,-1.557842 1.50031,-1.354138 0.20371,0.203703 -0.10984,1.103261 -0.69676,1.999018 -0.96424,1.471615 -1.51932,1.628649 -5.75697,1.628649 -4.17325,0 -4.68984,-0.14039 -4.68984,-1.27451 z m 13.66667,0.72549 c 0.22661,-0.366666 0.83275,-0.666666 1.34698,-0.666666 0.52004,0 1.2243,-1.109453 1.58696,-2.5 C 152.90408,48.55723 154,44.107238 154,43.737102 c 0,-0.222073 -0.45,-0.40377 -1,-0.40377 -0.55,0 -1,-0.3 -1,-0.666666 0,-0.397815 2.56253,-0.666667 6.35426,-0.666667 7.06696,0 7.50721,0.280477 6.41266,4.085366 -0.5701,1.981794 -0.65378,2.046676 -0.70679,0.547967 -0.0862,-2.436141 -1.26296,-3.3 -4.49546,-3.3 -2.70851,0 -2.86638,0.111823 -3.52961,2.5 -0.38186,1.375 -0.69596,2.875 -0.698,3.333333 -0.006,1.361841 2.50147,0.948198 4.0414,-0.666666 l 1.4304,-1.5 -0.49092,2.333333 c -0.27,1.283333 -0.73298,2.933333 -1.02883,3.666667 -0.51039,1.265078 -0.54009,1.256546 -0.58018,-0.166667 -0.034,-1.207377 -0.42631,-1.5 -2.01093,-1.5 -1.70702,0 -2.06093,0.332251 -2.66294,2.5 -0.90234,3.249184 -0.88379,3.5 0.25893,3.5 0.52836,0 1.14607,0.3 1.37268,0.666666 0.25753,0.416697 -1.1173,0.666667 -3.66667,0.666667 -2.54936,0 -3.9242,-0.24997 -3.66666,-0.666667 z m 18.33333,-0.72549 c 0,-0.851638 0.46605,-1.27451 1.40466,-1.27451 1.00763,0 1.29015,0.298395 0.99955,1.055707 -0.25657,0.668593 -0.0994,0.956447 0.42867,0.785013 1.26502,-0.410696 2.9639,-7.64394 2.0176,-8.590239 -0.56257,-0.562565 -1.19263,-0.283326 -2.46953,1.09448 -1.88446,2.033367 -2.31793,1.480204 -0.67648,-0.86329 1.07734,-1.538128 3.88937,-2.011529 4.64887,-0.782632 0.29743,0.481256 0.71365,0.465312 1.33599,-0.05117 1.42688,-1.184218 3.97734,-0.530915 3.97734,1.018801 0,0.740741 -0.44445,1.333334 -1,1.333334 -0.55,0 -0.96229,-0.501276 -0.9162,-1.113947 0.0515,-0.685091 -0.26649,-0.979524 -0.82609,-0.764785 -1.09758,0.42118 -2.57667,5.513761 -2.3367,8.045398 0.13491,1.423283 1.87082,0.916995 3.05558,-0.891176 0.62147,-0.94848 1.29661,-1.557842 1.50031,-1.354138 0.20371,0.203703 -0.10984,1.103261 -0.69676,1.999018 -0.96424,1.471615 -1.51932,1.628649 -5.75697,1.628649 -4.17325,0 -4.68984,-0.14039 -4.68984,-1.27451 z M 120.51813,30.980634 c -1.07714,-1.117521 0.46505,-1.647301 4.79529,-1.647301 4.28252,0 4.67594,-0.128215 6.29399,-2.05115 1.90687,-2.266184 2.06809,-3.135144 1.01182,-5.453412 -1.08985,-2.391962 -3.15427,-3.330714 -8.10332,-3.684817 C 122.03216,17.966243 120,17.561153 120,17.243755 c 0,-0.806078 6.47691,-0.714911 9.53468,0.134207 2.76282,0.767212 5.12512,3.769503 5.1295,6.519176 0.003,1.942947 -1.72204,4.943432 -3.46979,6.034921 -1.53245,0.957028 -9.96611,1.785346 -10.67626,1.048575 z M 86.040261,28.895697 c -5.634313,-5.037301 0.15086,-15.562364 8.553954,-15.562364 1.46324,0 2.854846,0.314567 3.09246,0.699039 0.294473,0.476466 0.73666,0.446218 1.388786,-0.095 1.475529,-1.224581 1.722619,-0.383026 0.875414,2.981535 -0.87654,3.48106 -1.950874,4.084874 -1.950874,1.096461 0,-2.497013 -2.402253,-4.274458 -4.92222,-3.641987 -3.61784,0.908021 -7.819746,8.104502 -6.649586,11.38856 1.288593,3.616443 5.074413,4.735448 7.571806,2.238058 1.55516,-1.55516 1.753967,-3.333333 0.37268,-3.333333 -0.52836,0 -1.146066,-0.3 -1.37268,-0.666667 -0.257133,-0.416054 1.043794,-0.658696 3.460654,-0.645464 3.27312,0.01792 3.700315,0.152279 2.75932,0.867851 -0.612354,0.465657 -1.374774,1.855451 -1.694267,3.088432 -0.434527,1.676886 -0.993927,2.295656 -2.219973,2.455577 -0.901487,0.117586 -2.877927,0.396315 -4.392087,0.619397 -2.389847,0.352097 -3.032727,0.155529 -4.873387,-1.490095 z m 60.689219,-5.305635 c -1.50839,-3.892133 -2.92211,-7.792132 -3.14161,-8.666666 -0.67183,-2.676779 0.80797,-1.76404 1.74547,1.076604 l 0.88008,2.666666 h 3.56536 c 3.5373,0 3.57375,-0.02098 4.63234,-2.666666 0.58684,-1.466667 1.33442,-2.666667 1.66127,-2.666667 0.32685,0 0.59428,0.18354 0.59428,0.407867 0,1.05578 -6.29832,16.925466 -6.71733,16.925466 -0.26253,0 -1.71146,-3.184472 -3.21986,-7.076604 z m 4.83432,0.07583 1.02194,-2.999223 h -2.69753 c -1.87915,0 -2.60334,0.252818 -2.38708,0.833333 0.17074,0.458334 0.70733,1.942362 1.19241,3.29784 0.48509,1.355478 1.0994,2.330129 1.36515,2.165889 0.26575,-0.164239 0.94305,-1.648267 1.50511,-3.297839 z M 12.666667,29.333333 c 0,-0.366667 0.6,-0.666667 1.333333,-0.666667 1.238835,0 1.333334,-0.444445 1.333334,-6.27092 0,-5.9427 -0.06979,-6.25267 -1.333334,-5.922246 -0.733333,0.191771 -1.333333,0.04866 -1.333333,-0.318028 0,-0.366686 0.675,-0.813097 1.5,-0.992024 0.825,-0.178926 2.025,-0.545996 2.666667,-0.81571 C 17.903853,13.897762 18,14.46758 18,21.262007 c 0,6.960214 0.08003,7.404659 1.333334,7.404659 0.733333,0 1.333333,0.3 1.333333,0.666667 0,0.37037 -1.777778,0.666666 -4,0.666666 -2.222222,0 -4,-0.296296 -4,-0.666666 z m 12,-0.617784 c 0,-0.954066 0.42815,-1.382216 1.382216,-1.382216 0.954066,0 1.313077,0.35901 1.159011,1.15901 -0.334674,1.737825 -2.541227,1.931634 -2.541227,0.223206 z m 78.001743,-0.377642 c -0.49827,-1.310538 -0.30435,-3.171044 0.78196,-7.502274 1.04548,-4.168455 1.22884,-5.831453 0.66375,-6.019816 -1.56407,-0.521355 -0.72738,-1.482484 1.29054,-1.482484 1.52153,0 1.97429,0.252863 1.70575,0.952657 -0.20106,0.523962 -0.55969,1.987433 -0.79695,3.252158 -0.40554,2.161702 -0.33429,2.280937 1.18902,1.989739 3.66871,-0.70132 5.00614,3.858404 2.30941,7.873524 -1.20305,1.791196 -2.04039,2.30857 -4.00118,2.472235 -2.14996,0.179455 -2.56784,-0.02477 -3.1423,-1.535739 z m 5.42648,-2.063818 c 1.32903,-3.004489 1.27296,-6.27409 -0.10759,-6.27409 -1.36938,0 -3.19769,2.63264 -3.63792,5.238357 -0.8502,5.032273 1.66945,5.729021 3.74551,1.035733 z m 48.57178,2.333754 c 0,-0.851638 0.46605,-1.27451 1.40466,-1.27451 1.00763,0 1.29015,0.298394 0.99955,1.055706 -0.25657,0.668594 -0.0994,0.956447 0.42867,0.785013 1.26502,-0.410696 2.9639,-7.64394 2.0176,-8.590239 -0.56257,-0.562565 -1.19263,-0.283326 -2.46953,1.09448 -1.88446,2.033367 -2.31793,1.480204 -0.67648,-0.86329 1.07734,-1.538128 3.88937,-2.011529 4.64887,-0.782632 0.29743,0.481256 0.71365,0.465312 1.33599,-0.05117 1.42688,-1.184218 3.97734,-0.530915 3.97734,1.018801 0,0.740741 -0.44445,1.333334 -1,1.333334 -0.55,0 -0.96229,-0.501276 -0.9162,-1.113947 0.0515,-0.685091 -0.26649,-0.979524 -0.82609,-0.764785 -1.09758,0.42118 -2.57667,5.513761 -2.3367,8.045398 0.13491,1.423284 1.87082,0.916995 3.05558,-0.891176 0.62147,-0.94848 1.29661,-1.557842 1.50031,-1.354138 0.20371,0.203703 -0.10984,1.103262 -0.69676,1.999018 -0.96424,1.471616 -1.51932,1.628649 -5.75697,1.628649 -4.17325,0 -4.68984,-0.14039 -4.68984,-1.274509 z m 29.66667,0.72549 c 0.22661,-0.366667 0.83275,-0.666667 1.34698,-0.666667 0.52004,0 1.2243,-1.109453 1.58696,-2.5 C 190.90408,19.890564 192,15.440572 192,15.070436 c 0,-0.222073 -0.45,-0.40377 -1,-0.40377 -0.55,0 -1,-0.3 -1,-0.666666 0,-0.397815 2.56253,-0.666667 6.35426,-0.666667 7.06696,0 7.50721,0.280477 6.41266,4.085367 -0.5701,1.981793 -0.65378,2.046675 -0.70679,0.547966 -0.0862,-2.43614 -1.26296,-3.3 -4.49546,-3.3 -2.70851,0 -2.86638,0.111823 -3.52961,2.5 -0.38186,1.375 -0.69596,2.875 -0.698,3.333333 -0.006,1.361841 2.50147,0.948198 4.0414,-0.666666 l 1.4304,-1.5 -0.49092,2.333333 c -0.27,1.283333 -0.73298,2.933333 -1.02883,3.666667 -0.51039,1.265078 -0.54009,1.256546 -0.58018,-0.166667 -0.034,-1.207377 -0.42631,-1.5 -2.01093,-1.5 -1.70702,0 -2.06093,0.332251 -2.66294,2.5 -0.90234,3.249184 -0.88379,3.5 0.25893,3.5 0.52836,0 1.14607,0.3 1.37268,0.666667 0.25753,0.416696 -1.1173,0.666666 -3.66667,0.666666 -2.54936,0 -3.9242,-0.24997 -3.66666,-0.666666 z m 18.33333,-0.72549 c 0,-0.851638 0.46605,-1.27451 1.40466,-1.27451 1.00763,0 1.29015,0.298394 0.99955,1.055706 -0.25657,0.668594 -0.0994,0.956447 0.42867,0.785013 1.26502,-0.410696 2.9639,-7.64394 2.0176,-8.590239 -0.56257,-0.562565 -1.19263,-0.283326 -2.46953,1.09448 -1.88446,2.033367 -2.31793,1.480204 -0.67648,-0.86329 1.07734,-1.538128 3.88937,-2.011529 4.64887,-0.782632 0.29743,0.481256 0.71365,0.465312 1.33599,-0.05117 1.42688,-1.184218 3.97734,-0.530915 3.97734,1.018801 0,0.740741 -0.44445,1.333334 -1,1.333334 -0.55,0 -0.96229,-0.501276 -0.9162,-1.113947 0.0515,-0.685091 -0.26649,-0.979524 -0.82609,-0.764785 -1.09758,0.42118 -2.57667,5.513761 -2.3367,8.045398 0.13491,1.423284 1.87082,0.916995 3.05558,-0.891176 0.62147,-0.94848 1.29661,-1.557842 1.50031,-1.354138 0.20371,0.203703 -0.10984,1.103262 -0.69676,1.999018 -0.96424,1.471616 -1.51932,1.628649 -5.75697,1.628649 -4.17325,0 -4.68984,-0.14039 -4.68984,-1.274509 z m -21.33333,-3.27451 v -2.666667 h -6 c -3.55556,0 -6,-0.271605 -6,-0.666667 0,-0.4 2.66666,-0.666666 6.66666,-0.666666 h 6.66667 v 3.333333 c 0,1.833333 -0.3,3.333333 -0.66667,3.333333 -0.36666,0 -0.66666,-1.2 -0.66666,-2.666666 z"
         id="path1508" />
      <path
         style="fill:#7f7f7f;fill-opacity:1;stroke-width:0.666667"
         d="m 14.876915,86.676364 c -2.676562,-1.104793 -3.600889,-4.676366 -1.210248,-4.676366 1.319173,0 1.904735,1.243193 1.063177,2.257206 -0.945365,1.1391 -0.260676,1.742794 1.976608,1.742794 1.956174,0 2.626882,-1.00118 2.626882,-3.921194 0,-2.143253 -1.075808,-3.395933 -2.966667,-3.454399 -1.286047,-0.03973 -1.277863,-0.07794 0.138751,-0.647187 2.12908,-0.85554 3.181306,-3.40456 2.178708,-5.277933 -0.483272,-0.903 -1.17314,-1.320954 -1.789779,-1.084327 -0.551868,0.211773 -1.237259,0.38504 -1.523091,0.38504 -0.285831,0 -0.370619,0.779833 -0.188418,1.73296 0.26767,1.40022 0.100524,1.688227 -0.870536,1.5 -1.770819,-0.343253 -1.913713,-1.631547 -0.353968,-3.191293 1.492127,-1.492127 4.041113,-1.779 6.085494,-0.68488 1.576597,0.843773 1.732129,4.105353 0.265696,5.571786 -0.920635,0.920634 -0.887043,1.160574 0.333334,2.380954 3.65305,3.653046 -0.843858,9.398513 -5.765943,7.366839 z m 141.361085,-0.004 c -3.70376,-1.494653 -4.76423,-7.371626 -2.05546,-11.391159 2.94126,-4.36454 8.66962,-6.61914 11.7951,-4.64238 0.62212,0.393466 1.29468,0.355206 1.84945,-0.105207 1.39043,-1.15396 1.62322,-0.25516 0.79045,3.05204 -0.86555,3.437347 -1.95087,4.096267 -1.95087,1.184333 0,-1.92574 -1.74335,-4.103326 -3.28507,-4.103326 -0.46572,0 -1.88206,0.49128 -3.14743,1.09174 -4.32489,2.0523 -6.69099,9.825173 -3.92215,12.884699 1.90092,2.1005 5.63866,1.64804 7.00037,-0.847413 0.94713,-1.7357 0.92739,-1.940547 -0.27314,-2.833333 -1.18171,-0.878793 -0.97909,-0.9606 2.33333,-0.942087 2.74944,0.01533 3.34982,0.182067 2.48051,0.68874 -0.63081,0.367653 -1.47764,1.896693 -1.88187,3.39786 -0.4995,1.855 -0.95276,2.511587 -1.41484,2.049507 -0.46208,-0.46208 -1.24744,-0.38378 -2.45147,0.24442 -1.99147,1.039053 -3.76186,1.120973 -5.86691,0.27148 z M 25.125,86.236111 c -0.915894,-0.9159 -0.440825,-2.330507 0.708334,-2.1092 C 26.475,84.250484 27,84.772484 27,85.286904 c 0,1.052574 -1.176195,1.648007 -1.875,0.949207 z m 146.37252,-1.40278 c -0.46058,-1.3341 -0.27382,-3.368753 0.68582,-7.471873 0.92933,-3.973547 1.09696,-5.712473 0.5677,-5.888893 -1.53926,-0.513087 -0.679,-1.472567 1.32029,-1.472567 1.52153,0 1.97429,0.252867 1.70575,0.95266 -0.20106,0.52396 -0.56272,2.003607 -0.8037,3.2881 -0.40235,2.144727 -0.32208,2.3051 0.98284,1.96386 1.83109,-0.478847 4.04378,1.49018 4.04378,3.59848 0,5.452266 -6.93944,9.557773 -8.50248,5.030233 z m 4.85443,-0.43484 c 1.28066,-1.95454 1.6406,-7.1398 0.52305,-7.53512 -2.03175,-0.718706 -5.24393,6.254973 -3.89012,8.445493 0.7293,1.180034 2.2704,0.76336 3.36707,-0.910373 z m -43.01861,-2.398493 v -2.666667 h -6 c -3.55556,0 -6,-0.271606 -6,-0.666666 0,-0.4 2.66666,-0.666667 6.66666,-0.666667 h 6.66667 v 3.333333 c 0,1.833333 -0.3,3.333333 -0.66667,3.333333 -0.36666,0 -0.66666,-1.2 -0.66666,-2.666666 z m 16,0 v -2.666667 h -6 c -3.55556,0 -6,-0.271606 -6,-0.666666 0,-0.4 2.66666,-0.666667 6.66666,-0.666667 h 6.66667 v 3.333333 c 0,1.833333 -0.3,3.333333 -0.66667,3.333333 -0.36666,0 -0.66666,-1.2 -0.66666,-2.666666 z M 12.666667,58.137811 c 0,-0.290869 1.5,-2.302885 3.333333,-4.471146 2.431951,-2.876238 3.333334,-4.499938 3.333334,-6.004479 0,-2.438011 -1.034242,-3.662187 -3.093989,-3.662187 -1.895463,0 -2.596738,1.099416 -1.524993,2.390791 0.95413,1.149655 -0.103855,2.731872 -1.32293,1.978443 -1.250804,-0.77304 -0.795793,-3.577205 0.756916,-4.664765 2.019566,-1.414559 4.001736,-1.302714 6.09509,0.343917 2.842473,2.23589 2.383517,4.70186 -1.673466,8.991521 l -3.430038,3.626759 h 2.661495 c 2.101277,0 2.813769,-0.315735 3.384918,-1.5 l 0.723423,-1.5 0.04512,1.445476 c 0.09721,3.114213 -0.525403,3.554524 -5.026206,3.554524 -2.344104,0 -4.262007,-0.237984 -4.262007,-0.528854 z M 25.125,58.23611 C 24.209106,57.320214 24.684175,55.905604 25.833334,56.126912 26.475,56.250486 27,56.772483 27,57.286906 c 0,1.052569 -1.176195,1.648008 -1.875,0.949204 z M 122,57.999998 c 0,-0.380952 2,-0.666666 4.66667,-0.666666 h 4.66667 V 54.029205 50.725078 L 126.5,50.495003 121.66667,50.264928 126.5,50.132463 l 4.83334,-0.132464 v -3.333334 -3.333333 h -4.66667 C 124,43.333332 122,43.047618 122,42.666666 c 0,-0.388889 2.22222,-0.666667 5.33334,-0.666667 h 5.33333 v 8.333333 8.333333 h -5.33333 C 124.22222,58.666665 122,58.388887 122,57.999998 Z m 13.03644,0.147554 c -0.74954,-0.74954 -0.33927,-2.147554 0.63023,-2.147554 0.55,0 1,0.475 1,1.055556 0,1.799809 1.62515,0.630108 2.46237,-1.772295 0.9984,-2.864888 1.09619,-6.616594 0.17246,-6.616594 -0.38417,0 -1.43417,0.793807 -2.33333,1.764016 -0.89916,0.970208 -1.63483,1.420208 -1.63483,1 0,-2.228879 4.62449,-4.450293 5.68667,-2.731644 0.29743,0.481256 0.71365,0.465312 1.33599,-0.05117 1.42688,-1.184218 3.97734,-0.530915 3.97734,1.018801 0,0.740741 -0.44445,1.333334 -1,1.333334 -0.55465,0 -0.95634,-0.534132 -0.90196,-1.199347 0.16233,-1.985855 -1.37837,-0.862115 -2.17132,1.583697 -1.60085,4.937728 -1.68089,5.957252 -0.50316,6.409187 0.76422,0.293262 1.62029,-0.190608 2.67972,-1.514639 1.70945,-2.136394 2.16704,-1.437422 0.56053,0.856201 -0.85309,1.217953 -1.64412,1.428074 -5.29689,1.407001 -2.36172,-0.01363 -4.46044,-0.191171 -4.66382,-0.394547 z m 13.2969,-0.147554 c 0.22661,-0.366666 0.83275,-0.666666 1.34698,-0.666666 0.52004,0 1.2243,-1.109453 1.58696,-2.5 C 152.90408,48.55723 154,44.107238 154,43.737102 c 0,-0.222073 -0.4677,-0.40377 -1.03934,-0.40377 -0.57164,0 -0.85394,-0.3 -0.62732,-0.666666 0.62662,-1.013894 12.30792,-0.860171 12.66483,0.166666 0.15931,0.458333 0.0306,1.883333 -0.28601,3.166667 -0.49902,2.022642 -0.58476,2.100088 -0.64392,0.58163 -0.0954,-2.449926 -1.50388,-3.363764 -4.81229,-3.12237 -2.78613,0.203286 -2.85857,0.270312 -3.64687,3.374073 l -0.80426,3.166667 h 1.84961 c 1.14857,0 2.26548,-0.568533 2.94683,-1.5 1.08108,-1.477923 1.09096,-1.465658 0.67148,0.833333 -0.51772,2.837313 -1.55391,4.957287 -1.5858,3.244421 -0.0171,-0.919987 -1.75675,-1.86834 -3.48894,-1.901984 -0.47634,-0.0093 -1.85416,4.302907 -1.86094,5.824229 -0.002,0.458334 0.42857,0.833334 0.95693,0.833334 0.52836,0 1.14607,0.3 1.37268,0.666666 0.25753,0.416697 -1.1173,0.666667 -3.66667,0.666667 -2.54936,0 -3.9242,-0.24997 -3.66666,-0.666667 z m 18.7031,0.147554 c -0.74954,-0.74954 -0.33927,-2.147554 0.63023,-2.147554 0.55,0 1,0.475 1,1.055556 0,1.799809 1.62515,0.630108 2.46237,-1.772295 0.9984,-2.864888 1.09619,-6.616594 0.17246,-6.616594 -0.38417,0 -1.43417,0.793807 -2.33333,1.764016 -0.89916,0.970208 -1.63483,1.420208 -1.63483,1 0,-2.228879 4.62449,-4.450293 5.68667,-2.731644 0.29743,0.481256 0.71365,0.465312 1.33599,-0.05117 1.42688,-1.184218 3.97734,-0.530915 3.97734,1.018801 0,0.740741 -0.44445,1.333334 -1,1.333334 -0.55465,0 -0.95634,-0.534132 -0.90196,-1.199347 0.16233,-1.985855 -1.37837,-0.862115 -2.17132,1.583697 -1.60085,4.937728 -1.68089,5.957252 -0.50316,6.409187 0.76422,0.293262 1.62029,-0.190608 2.67972,-1.514639 1.70945,-2.136394 2.16704,-1.437422 0.56053,0.856201 -0.85309,1.217953 -1.64412,1.428074 -5.29689,1.407001 -2.36172,-0.01363 -4.46044,-0.191171 -4.66382,-0.394547 z M 87.571335,30.005612 c -3.703767,-1.494655 -4.764234,-7.371625 -2.055467,-11.391159 2.94126,-4.36454 8.66962,-6.619138 11.795107,-4.64238 0.62212,0.393467 1.29468,0.355207 1.849446,-0.105209 1.390429,-1.153959 1.623219,-0.255156 0.790454,3.052043 -0.865554,3.437431 -1.950874,4.096352 -1.950874,1.184418 C 98.000001,16.17759 96.256648,14 94.714928,14 c -0.465713,0 -1.88206,0.491283 -3.147427,1.09174 -4.324893,2.052297 -6.690986,9.825172 -3.922153,12.884699 1.900927,2.100501 5.638667,1.64804 7.000373,-0.84741 0.947134,-1.735702 0.927387,-1.940547 -0.27314,-2.833333 -1.181713,-0.878795 -0.979093,-0.960603 2.333334,-0.942091 2.749433,0.01537 3.349815,0.18207 2.480506,0.68874 -0.630806,0.367656 -1.47764,1.896695 -1.881866,3.397863 -0.4995,1.854996 -0.95276,2.511583 -1.41484,2.049503 -0.46208,-0.46208 -1.247447,-0.383776 -2.451474,0.244424 -1.991473,1.039049 -3.76186,1.120969 -5.866906,0.271477 z m 36.812295,-0.01781 c 5.37505,-0.567274 7.25145,-1.497336 8.34442,-4.13599 0.59268,-1.430846 0.571,-2.325108 -0.0953,-3.933817 C 131.54599,19.294438 128.57784,18 123.64874,18 c -2.60726,0 -3.58711,-0.227032 -3.26053,-0.755459 0.66189,-1.070953 9.11165,-0.269653 11.13472,1.055916 3.71951,2.437112 4.10464,6.871974 0.87707,10.099542 -2.21444,2.214441 -2.38724,2.264582 -7.5,2.176147 l -5.23333,-0.09052 4.71696,-0.497822 z m 22.05281,-7.33536 c -3.19464,-8.312875 -3.4735,-9.319112 -2.58255,-9.319112 0.28631,0 0.96131,1.275 1.5,2.833333 0.96589,2.794125 1.02695,2.836089 4.4119,3.032497 l 3.43245,0.199164 1.15812,-3.032497 c 1.16102,-3.040102 2.8122,-4.35039 1.93119,-1.532497 -1.06582,3.409005 -5.66784,14.813628 -6.18721,15.333001 -0.30844,0.308431 -1.95718,-3.072819 -3.6639,-7.513889 z m 4.92059,1.625618 c 0.7203,-1.680399 1.30964,-3.330399 1.30964,-3.666667 0,-0.336268 -1.2,-0.611397 -2.66667,-0.611397 -1.46666,0 -2.66666,0.246559 -2.66666,0.547908 0,0.895931 2.1002,6.785426 2.41969,6.785426 0.16189,0 0.88369,-1.374872 1.604,-3.05527 z M 12.666667,29.650165 c 0,-0.192408 0.75,-0.634983 1.666667,-0.983499 C 15.941542,28.055227 16,27.821525 16,22.003799 v -6.029202 l -1.666666,0.418307 c -0.938684,0.235594 -1.666667,0.129492 -1.666667,-0.242914 0,-0.363672 0.675,-0.807615 1.5,-0.986542 0.825,-0.178926 2.025,-0.545996 2.666667,-0.81571 C 17.903853,13.897762 18,14.46758 18,21.262007 c 0,6.960214 0.08003,7.404659 1.333334,7.404659 0.733333,0 1.333333,0.3 1.333333,0.666667 0,0.37037 -1.777778,0.666666 -4,0.666666 -2.2,0 -4,-0.157425 -4,-0.349834 z M 25.125,29.569444 C 24.209106,28.653549 24.684175,27.238939 25.833334,27.460247 26.475,27.58382 27,28.105817 27,28.620241 c 0,1.052568 -1.176195,1.648008 -1.875,0.949203 z m 77.70585,-1.402778 c -0.46058,-1.334103 -0.27382,-3.368751 0.68582,-7.471876 0.92933,-3.973544 1.09696,-5.712467 0.5677,-5.888889 -1.53926,-0.513085 -0.679,-1.472568 1.32029,-1.472568 1.52153,0 1.97429,0.252863 1.70575,0.952657 -0.20106,0.523962 -0.56272,2.003609 -0.8037,3.288104 -0.40235,2.144724 -0.32208,2.3051 0.98284,1.963855 1.83109,-0.478842 4.04378,1.490185 4.04378,3.598482 0,5.45227 -6.93944,9.557777 -8.50248,5.030235 z m 4.85443,-0.434843 c 1.28066,-1.954535 1.6406,-7.139799 0.52305,-7.535116 -2.03175,-0.718706 -5.24393,6.254974 -3.89012,8.445494 0.7293,1.180033 2.2704,0.763357 3.36707,-0.910378 z m 49.35116,1.749063 c -0.74954,-0.749539 -0.33927,-2.147553 0.63023,-2.147553 0.55,0 1,0.475 1,1.055555 0,1.799809 1.62515,0.630109 2.46237,-1.772295 0.9984,-2.864888 1.09619,-6.616594 0.17246,-6.616594 -0.38417,0 -1.43417,0.793807 -2.33333,1.764016 -0.89916,0.970208 -1.63483,1.420208 -1.63483,1 0,-2.228879 4.62449,-4.450293 5.68667,-2.731644 0.29743,0.481256 0.71365,0.465312 1.33599,-0.05117 1.42688,-1.184218 3.97734,-0.530915 3.97734,1.018801 0,0.740741 -0.44445,1.333334 -1,1.333334 -0.55465,0 -0.95634,-0.534132 -0.90196,-1.199347 0.16233,-1.985855 -1.37837,-0.862115 -2.17132,1.583697 -1.60085,4.937728 -1.68089,5.957252 -0.50316,6.409188 0.76422,0.293261 1.62029,-0.190608 2.67972,-1.51464 1.70945,-2.136394 2.16704,-1.437422 0.56053,0.856201 -0.85309,1.217953 -1.64412,1.428075 -5.29689,1.407001 -2.36172,-0.01363 -4.46044,-0.191171 -4.66382,-0.394547 z m 29.2969,-0.147553 c 0.22661,-0.366667 0.83275,-0.666667 1.34698,-0.666667 0.52004,0 1.2243,-1.109453 1.58696,-2.5 C 190.90408,19.890564 192,15.440572 192,15.070436 c 0,-0.222073 -0.4677,-0.40377 -1.03934,-0.40377 -0.57164,0 -0.85394,-0.3 -0.62732,-0.666666 0.62662,-1.013894 12.30792,-0.860171 12.66483,0.166666 0.15931,0.458334 0.0306,1.883334 -0.28601,3.166667 -0.49902,2.022642 -0.58476,2.100088 -0.64392,0.58163 -0.0954,-2.449925 -1.50388,-3.363763 -4.81229,-3.122369 -2.78613,0.203286 -2.85857,0.270311 -3.64687,3.374072 l -0.80426,3.166667 h 1.84961 c 1.14857,0 2.26548,-0.568533 2.94683,-1.5 1.08108,-1.477923 1.09096,-1.465657 0.67148,0.833333 -0.51772,2.837313 -1.55391,4.957287 -1.5858,3.244421 -0.0171,-0.919987 -1.75675,-1.86834 -3.48894,-1.901984 -0.47634,-0.0093 -1.85416,4.302907 -1.86094,5.82423 -0.002,0.458333 0.42857,0.833333 0.95693,0.833333 0.52836,0 1.14607,0.3 1.37268,0.666667 0.25753,0.416696 -1.1173,0.666666 -3.66667,0.666666 -2.54936,0 -3.9242,-0.24997 -3.66666,-0.666666 z m 18.7031,0.147553 c -0.74954,-0.749539 -0.33927,-2.147553 0.63023,-2.147553 0.55,0 1,0.475 1,1.055555 0,1.799809 1.62515,0.630109 2.46237,-1.772295 0.9984,-2.864888 1.09619,-6.616594 0.17246,-6.616594 -0.38417,0 -1.43417,0.793807 -2.33333,1.764016 -0.89916,0.970208 -1.63483,1.420208 -1.63483,1 0,-2.228879 4.62449,-4.450293 5.68667,-2.731644 0.29743,0.481256 0.71365,0.465312 1.33599,-0.05117 1.42688,-1.184218 3.97734,-0.530915 3.97734,1.018801 0,0.740741 -0.44445,1.333334 -1,1.333334 -0.55465,0 -0.95634,-0.534132 -0.90196,-1.199347 0.16233,-1.985855 -1.37837,-0.862115 -2.17132,1.583697 -1.60085,4.937728 -1.68089,5.957252 -0.50316,6.409188 0.76422,0.293261 1.62029,-0.190608 2.67972,-1.51464 1.70945,-2.136394 2.16704,-1.437422 0.56053,0.856201 -0.85309,1.217953 -1.64412,1.428075 -5.29689,1.407001 -2.36172,-0.01363 -4.46044,-0.191171 -4.66382,-0.394547 z m -21.7031,-4.147553 v -2.666667 h -6 c -3.55556,0 -6,-0.271605 -6,-0.666667 0,-0.4 2.66666,-0.666666 6.66666,-0.666666 h 6.66667 v 3.333333 c 0,1.833333 -0.3,3.333333 -0.66667,3.333333 -0.36666,0 -0.66666,-1.2 -0.66666,-2.666666 z"
         id="path1506" />
      <path
         style="fill:#666666;fill-opacity:1;stroke-width:0.666667"
         d="m 14.876915,86.676364 c -2.994634,-1.23608 -3.542766,-5.58618 -0.559643,-4.441446 0.823776,0.316113 0.917216,0.7041 0.4016,1.667533 -0.838669,1.567067 -0.336001,2.097547 1.98758,2.097547 1.956174,0 2.626882,-1.00118 2.626882,-3.921194 0,-2.154399 -1.087197,-3.408453 -2.966667,-3.421966 -1.227716,-0.0088 -1.198341,-0.09499 0.288929,-0.847507 2.27581,-1.15148 3.292113,-4.14734 1.884455,-5.555 -1.478476,-1.478473 -3.89164,-0.637966 -3.69174,1.28584 0.09211,0.8864 -0.219295,1.459827 -0.792755,1.459827 -1.529224,0 -1.577788,-1.477767 -0.09722,-2.958333 1.636939,-1.63694 3.856384,-1.763927 5.893329,-0.3372 1.879014,1.316113 1.891605,3.439913 0.03213,5.419233 -0.797248,0.848633 -1.118676,1.542967 -0.714285,1.542967 1.344516,0 2.830495,2.070713 2.830495,3.944293 0,3.144526 -3.925814,5.385133 -7.123085,4.065406 z m 141.361085,-0.004 c -2.19311,-0.885026 -3.57133,-3.350506 -3.57133,-6.388693 0,-6.652673 8.11607,-12.409113 13.46195,-9.548086 1.05034,0.562126 1.5029,0.527393 1.91992,-0.14736 1.03718,-1.678207 1.34201,-0.07245 0.569,2.997433 -0.86996,3.45494 -1.58654,3.969427 -1.80764,1.297847 -0.32212,-3.892034 -3.54742,-5.260167 -7.01328,-2.974954 -4.63215,3.054214 -6.45222,10.00736 -3.41466,13.044913 1.43233,1.43234 5.15146,1.33384 6.51472,-0.17254 1.44542,-1.597173 1.41114,-3.935966 -0.0633,-4.321286 -0.64166,-0.167687 0.48334,-0.33056 2.5,-0.361947 2.74996,-0.0428 3.37993,0.11006 2.51976,0.611407 -0.63081,0.367653 -1.47764,1.896693 -1.88187,3.39786 -0.4995,1.855 -0.95276,2.511586 -1.41484,2.049506 -0.46208,-0.46208 -1.24745,-0.38378 -2.45147,0.24442 -1.99148,1.039054 -3.76186,1.120974 -5.86691,0.27148 z M 24.9641,85.941911 c -0.687014,-1.111613 0.858139,-2.38634 1.777812,-1.466667 0.769283,0.76928 0.287814,2.19142 -0.741912,2.19142 -0.323387,0 -0.789542,-0.32614 -1.0359,-0.724753 z m 147.16924,-0.07525 c -1.10828,-1.10828 -0.99976,-4.464066 0.31342,-9.691853 0.82085,-3.267833 0.90844,-4.50086 0.33333,-4.69256 -1.51742,-0.505806 -0.75355,-1.482253 1.15957,-1.482253 h 1.93966 l -0.87132,3.303 -0.87131,3.302993 1.86979,-0.373953 c 2.4544,-0.49088 4.32689,2.06582 3.67771,5.02152 -0.89646,4.081553 -5.35718,6.80678 -7.55085,4.613106 z m 4.24466,-1.507933 c 1.39975,-2.136293 2.02355,-6.69854 1.0022,-7.329766 -1.57316,-0.972274 -3.943,1.489906 -4.40605,4.577726 -0.24457,1.63092 -0.2461,3.286607 -0.003,3.679307 0.74809,1.21044 2.27967,0.793626 3.40724,-0.927267 z m -43.04466,-2.319387 v -2.706013 h -6 c -3.55556,0 -6,-0.271606 -6,-0.666666 0,-0.4 2.66666,-0.666667 6.66666,-0.666667 h 6.66667 v 2.960653 c 0,1.62836 -0.3,3.146067 -0.66667,3.37268 -0.40262,0.248833 -0.66666,-0.659747 -0.66666,-2.293987 z m 16,0 v -2.706013 h -6 c -3.55556,0 -6,-0.271606 -6,-0.666666 0,-0.4 2.66666,-0.666667 6.66666,-0.666667 h 6.66667 v 2.960653 c 0,1.62836 -0.3,3.146067 -0.66667,3.37268 -0.40262,0.248833 -0.66666,-0.659747 -0.66666,-2.293987 z M 12.683596,58.166665 c 0.0093,-0.275 1.509311,-2.294585 3.333333,-4.487966 3.227562,-3.881133 3.931615,-5.966438 2.911745,-8.624176 -0.455793,-1.187778 -3.933851,-1.45817 -4.613389,-0.358654 -0.236539,0.382728 -0.100545,1.092924 0.302209,1.578214 0.540388,0.651127 0.495679,1.078706 -0.170612,1.631679 C 12.386785,49.615491 11.975876,46.024123 14,43.999999 c 1.713748,-1.713748 4.026018,-1.695828 6.243428,0.04839 2.88615,2.270246 2.412226,4.898098 -1.576761,8.74297 -1.833333,1.767099 -3.333333,3.361947 -3.333333,3.544108 0,0.182161 1.167903,0.331202 2.59534,0.331202 1.792453,0 2.72538,-0.338876 3.015693,-1.095419 0.64403,-1.678315 1.177623,-0.622748 0.682473,1.350086 -0.415361,1.654931 -0.658758,1.745333 -4.699112,1.745333 -2.343584,0 -4.253443,-0.225 -4.244132,-0.5 z M 24.9641,57.94191 c -0.687014,-1.111612 0.858139,-2.38634 1.777812,-1.466666 0.769283,0.769282 0.287814,2.191421 -0.741912,2.191421 -0.323387,0 -0.789542,-0.32614 -1.0359,-0.724755 z M 122,57.999998 c 0,-0.380952 2,-0.666666 4.66667,-0.666666 h 4.66667 V 54.029205 50.725078 L 126.5,50.495003 121.66667,50.264928 126.5,50.132463 l 4.83334,-0.132464 v -3.333334 -3.333333 h -4.66667 C 124,43.333332 122,43.047618 122,42.666666 c 0,-0.388889 2.22222,-0.666667 5.33334,-0.666667 h 5.33333 v 8.333333 8.333333 h -5.33333 C 124.22222,58.666665 122,58.388887 122,57.999998 Z m 13.03644,0.147554 c -0.74954,-0.74954 -0.33927,-2.147554 0.63023,-2.147554 0.55,0 1,0.45 1,1 0,1.162206 1.04999,1.331147 1.7033,0.27406 0.78689,-1.273222 2.092,-6.90935 1.80017,-7.774059 -0.46685,-1.383286 -1.97753,-0.942437 -3.42674,1 -0.7523,1.008333 -1.37733,1.458333 -1.38894,1 -0.0567,-2.238879 4.5769,-4.562432 5.64666,-2.831531 0.27616,0.446849 0.82724,0.446849 1.66218,0 0.68698,-0.367658 1.72818,-0.668469 2.3138,-0.668469 1.40494,0 2.13084,1.981926 0.98521,2.689961 -1.17255,0.724679 -2.15053,0.09548 -1.69535,-1.090729 0.19683,-0.512911 0.052,-0.932566 -0.3219,-0.932566 -0.76757,0 -2.22881,3.25059 -2.92219,6.50055 -0.61507,2.882885 1.25125,3.796379 3.09764,1.516181 1.52263,-1.880367 2.23553,-1.488378 0.86131,0.473594 -0.83534,1.192601 -1.64929,1.406064 -5.28156,1.385109 -2.36172,-0.01363 -4.46044,-0.191171 -4.66382,-0.394547 z m 14.25528,-0.324048 c 1.3187,-0.66826 1.91258,-1.95461 3.15022,-6.823505 1.84766,-7.268645 1.85868,-7.490342 0.3914,-7.873783 -0.64167,-0.167685 1.88947,-0.339682 5.62475,-0.382216 l 6.79142,-0.07733 -0.38578,2.499999 C 164.39514,48.203287 164,48.825189 164,46.526073 c 0,-2.37843 -1.438,-3.308035 -4.74405,-3.066814 -2.78613,0.203286 -2.85857,0.270312 -3.64687,3.374073 l -0.80426,3.166667 h 1.90747 c 1.25127,0 2.16346,-0.478326 2.65161,-1.390431 1.1823,-2.209169 1.37025,-1.112824 0.36081,2.104779 -0.50942,1.623775 -0.95587,2.459415 -0.99213,1.856978 -0.066,-1.097276 -1.3755,-1.90466 -3.0891,-1.90466 -0.82714,0 -2.29719,3.731708 -2.30642,5.854816 -0.002,0.470149 0.67128,1.126133 1.49628,1.457743 1.13108,0.454641 0.43425,0.610902 -2.83334,0.635356 -3.86087,0.02889 -4.15615,-0.05735 -2.70828,-0.791076 z m 17.74472,0.324048 c -0.74954,-0.74954 -0.33927,-2.147554 0.63023,-2.147554 0.55,0 1,0.45 1,1 0,1.162206 1.04999,1.331147 1.7033,0.27406 0.78689,-1.273222 2.092,-6.90935 1.80017,-7.774059 -0.46685,-1.383286 -1.97753,-0.942437 -3.42674,1 -0.7523,1.008333 -1.37733,1.458333 -1.38894,1 -0.0567,-2.238879 4.5769,-4.562432 5.64666,-2.831531 0.27616,0.446849 0.82724,0.446849 1.66218,0 0.68698,-0.367658 1.72818,-0.668469 2.3138,-0.668469 1.40494,0 2.13084,1.981926 0.98521,2.689961 -1.17255,0.724679 -2.15053,0.09548 -1.69535,-1.090729 0.19683,-0.512911 0.052,-0.932566 -0.3219,-0.932566 -0.76757,0 -2.22881,3.25059 -2.92219,6.50055 -0.61507,2.882885 1.25125,3.796379 3.09764,1.516181 1.52263,-1.880367 2.23553,-1.488378 0.86131,0.473594 -0.83534,1.192601 -1.64929,1.406064 -5.28156,1.385109 -2.36172,-0.01363 -4.46044,-0.191171 -4.66382,-0.394547 z M 87.571335,30.005612 c -2.193114,-0.885029 -3.571334,-3.350508 -3.571334,-6.388695 0,-6.65267 8.116067,-12.409113 13.461947,-9.548087 1.050347,0.562129 1.5029,0.527394 1.91992,-0.14736 1.037182,-1.678206 1.342012,-0.07244 0.569007,2.997437 -0.86996,3.454942 -1.58654,3.969426 -1.807647,1.297843 -0.322113,-3.892029 -3.547413,-5.260164 -7.013273,-2.97495 -4.632154,3.054214 -6.452227,10.007357 -3.414667,13.044915 1.432333,1.432336 5.151467,1.333835 6.51472,-0.172543 1.44542,-1.597172 1.41114,-3.935967 -0.06333,-4.321289 -0.641667,-0.167685 0.483333,-0.33056 2.5,-0.361944 2.74996,-0.04279 3.379922,0.110062 2.519753,0.611406 -0.630807,0.367656 -1.47764,1.896695 -1.881867,3.397863 -0.4995,1.854996 -0.95276,2.511583 -1.41484,2.049503 -0.46208,-0.46208 -1.247446,-0.383776 -2.451473,0.244424 -1.991473,1.039049 -3.76186,1.120969 -5.866907,0.271477 z M 124,30.018295 c 5.92518,-0.627709 7.18834,-1.137442 8.34065,-3.365768 1.38879,-2.685622 1.24247,-4.18831 -0.60156,-6.178051 -1.59732,-1.723537 -3.47291,-2.279416 -9.07242,-2.688844 -1.96801,-0.143898 -1.34813,-0.259422 1.80197,-0.335828 5.77134,-0.139983 7.78293,0.662252 9.21201,3.673816 1.40597,2.962862 0.78604,5.698499 -1.78081,7.858358 -1.78976,1.50599 -2.54475,1.674648 -7.11766,1.590038 l -5.11551,-0.09465 z m 22.36798,-7.697386 c -1.74074,-4.627036 -2.9932,-8.584579 -2.78324,-8.794541 0.20997,-0.209962 0.98541,1.026524 1.72321,2.747747 l 1.34146,3.129496 3.45623,-0.201806 c 3.41933,-0.199652 3.46628,-0.232051 4.39752,-3.035139 0.51771,-1.558333 1.21629,-2.833333 1.5524,-2.833333 0.33611,0 0.61111,0.136671 0.61111,0.303714 0,0.720347 -6.12397,16.080114 -6.60376,16.563136 -0.29147,0.293435 -1.95419,-3.252239 -3.69493,-7.879274 z m 5.14221,1.756281 c 0.63607,-1.790878 1.15648,-3.440878 1.15648,-3.666667 0,-0.225788 -1.2,-0.410524 -2.66667,-0.410524 -1.6498,0 -2.66666,0.30927 -2.66666,0.811045 0,1.212666 2.1172,6.522289 2.60076,6.522289 0.23078,0 0.94003,-1.465264 1.57609,-3.256143 z M 14.166667,29.225145 C 15.991486,28.558665 16,28.526063 16,22.205505 v -6.350049 l -1.666666,0.418306 c -0.916667,0.230069 -1.666667,0.185998 -1.666667,-0.09793 0,-0.632651 4.514169,-2.106104 4.991135,-1.629137 C 17.846011,14.7349 18,17.998556 18,21.79926 c 0,6.543222 0.0797,6.942405 1.5,7.513298 1.120594,0.450423 0.403937,0.600302 -2.833333,0.592552 -3.680804,-0.0088 -4.057263,-0.111203 -2.5,-0.679965 z m 10.797433,0.0501 c -0.687014,-1.111612 0.858139,-2.38634 1.777812,-1.466666 0.769283,0.769282 0.287814,2.19142 -0.741912,2.19142 -0.323387,0 -0.789542,-0.32614 -1.0359,-0.724754 z m 78.50257,-0.07525 c -1.10828,-1.10828 -0.99976,-4.464066 0.31342,-9.69185 0.82085,-3.267834 0.90844,-4.500863 0.33333,-4.692565 -1.51742,-0.505808 -0.75355,-1.482251 1.15957,-1.482251 h 1.93966 l -0.87132,3.302998 -0.87131,3.302998 1.86979,-0.373959 c 2.4544,-0.490879 4.32689,2.065821 3.67771,5.021526 -0.89646,4.081549 -5.35718,6.806774 -7.55085,4.613103 z m 4.24466,-1.507934 c 1.39975,-2.136292 2.02355,-6.698539 1.0022,-7.329766 -1.57316,-0.97227 -3.943,1.489906 -4.40605,4.57773 -0.24457,1.630918 -0.2461,3.286604 -0.003,3.679304 0.74809,1.21044 2.27967,0.793626 3.40724,-0.927268 z m 49.32511,1.788821 c -0.74954,-0.749539 -0.33927,-2.147553 0.63023,-2.147553 0.55,0 1,0.45 1,1 0,1.162205 1.04999,1.331146 1.7033,0.27406 0.78689,-1.273222 2.092,-6.909351 1.80017,-7.77406 -0.46685,-1.383286 -1.97753,-0.942437 -3.42674,1 -0.7523,1.008333 -1.37733,1.458333 -1.38894,1 -0.0567,-2.238879 4.5769,-4.562431 5.64666,-2.831531 0.27616,0.446849 0.82724,0.446849 1.66218,0 0.68698,-0.367658 1.72818,-0.668469 2.3138,-0.668469 1.40494,0 2.13084,1.981926 0.98521,2.689961 -1.17255,0.724679 -2.15053,0.09548 -1.69535,-1.090729 0.19683,-0.512911 0.052,-0.932566 -0.3219,-0.932566 -0.76757,0 -2.22881,3.25059 -2.92219,6.50055 -0.61507,2.882886 1.25125,3.796379 3.09764,1.516181 1.52263,-1.880367 2.23553,-1.488378 0.86131,0.473594 -0.83534,1.192601 -1.64929,1.406064 -5.28156,1.385109 -2.36172,-0.01363 -4.46044,-0.191171 -4.66382,-0.394547 z m 30.25528,-0.324048 c 1.3187,-0.66826 1.91258,-1.95461 3.15022,-6.823505 1.84766,-7.268645 1.85868,-7.490341 0.3914,-7.873783 -0.64167,-0.167685 1.88947,-0.339682 5.62475,-0.382216 L 203.24951,14 202.86373,16.5 C 202.39514,19.536621 202,20.158523 202,17.859407 c 0,-2.37843 -1.438,-3.308035 -4.74405,-3.066813 -2.78613,0.203286 -2.85857,0.270311 -3.64687,3.374072 l -0.80426,3.166667 h 1.90747 c 1.25127,0 2.16346,-0.478326 2.65161,-1.390431 1.1823,-2.209168 1.37025,-1.112824 0.36081,2.104779 -0.50942,1.623775 -0.95587,2.459415 -0.99213,1.856978 -0.066,-1.097276 -1.3755,-1.90466 -3.0891,-1.90466 -0.82714,0 -2.29719,3.731708 -2.30642,5.854816 -0.002,0.47015 0.67128,1.126134 1.49628,1.457743 1.13108,0.454641 0.43425,0.610902 -2.83334,0.635356 -3.86087,0.02889 -4.15615,-0.05736 -2.70828,-0.791076 z m 17.74472,0.324048 c -0.74954,-0.749539 -0.33927,-2.147553 0.63023,-2.147553 0.55,0 1,0.45 1,1 0,1.162205 1.04999,1.331146 1.7033,0.27406 0.78689,-1.273222 2.092,-6.909351 1.80017,-7.77406 -0.46685,-1.383286 -1.97753,-0.942437 -3.42674,1 -0.7523,1.008333 -1.37733,1.458333 -1.38894,1 -0.0567,-2.238879 4.5769,-4.562431 5.64666,-2.831531 0.27616,0.446849 0.82724,0.446849 1.66218,0 0.68698,-0.367658 1.72818,-0.668469 2.3138,-0.668469 1.40494,0 2.13084,1.981926 0.98521,2.689961 -1.17255,0.724679 -2.15053,0.09548 -1.69535,-1.090729 0.19683,-0.512911 0.052,-0.932566 -0.3219,-0.932566 -0.76757,0 -2.22881,3.25059 -2.92219,6.50055 -0.61507,2.882886 1.25125,3.796379 3.09764,1.516181 1.52263,-1.880367 2.23553,-1.488378 0.86131,0.473594 -0.83534,1.192601 -1.64929,1.406064 -5.28156,1.385109 -2.36172,-0.01363 -4.46044,-0.191171 -4.66382,-0.394547 z m -21.7031,-4.108209 v -2.706011 h -6 c -3.55556,0 -6,-0.271605 -6,-0.666667 0,-0.4 2.66666,-0.666666 6.66666,-0.666666 h 6.66667 v 2.960655 c 0,1.628361 -0.3,3.146065 -0.66667,3.372678 -0.40262,0.248833 -0.66666,-0.659744 -0.66666,-2.293989 z"
         id="path1504" />
      <path
         style="fill:#4c4c4c;fill-opacity:1;stroke-width:0.666667"
         d="m 15.666667,86.796111 c -2.024541,-0.414407 -3,-1.4585 -3,-3.211073 0,-1.01528 0.387397,-1.58504 1.077718,-1.58504 0.798779,0 0.992683,0.444833 0.749173,1.718673 -0.251165,1.31388 0.0053,1.84488 1.088949,2.254553 2.308311,0.87266 3.750827,-0.35674 3.750827,-3.19668 0,-2.808099 -0.933982,-4.105093 -2.966667,-4.119706 -1.227716,-0.0088 -1.198341,-0.09499 0.288929,-0.847507 2.27581,-1.15148 3.292113,-4.14734 1.884455,-5.555 -1.445241,-1.44524 -3.894518,-0.640906 -3.69174,1.212347 0.08343,0.762493 -0.246392,1.527107 -0.732936,1.699153 -0.629629,0.22264 -0.821798,-0.233066 -0.666667,-1.580913 0.158768,-1.37944 0.728155,-2.072113 2.096674,-2.55064 4.064372,-1.421173 7.552632,3.16206 4.505449,5.91972 -1.345135,1.217327 -1.345027,1.218227 0.301777,2.5136 3.865353,3.040486 0.451179,8.380033 -4.685941,7.328513 z M 156.21916,86.369478 c -2.80061,-1.228827 -3.77948,-3.227347 -3.36816,-6.876587 0.38152,-3.384833 1.94709,-5.818306 5.14222,-7.992893 2.41862,-1.6461 6.56798,-2.005473 7.89009,-0.68336 0.64441,0.644407 1.09787,0.641013 2.15007,-0.01613 1.24005,-0.77442 1.30135,-0.703214 0.87518,1.016693 -1.33342,5.381333 -1.23615,5.27674 -2.13068,2.291087 -0.6109,-2.039034 -1.26068,-2.870754 -2.4823,-3.17736 -6.51426,-1.634974 -12.8504,10.894426 -7.36244,14.558839 1.36526,0.911614 4.85068,0.521307 5.8622,-0.65646 1.8494,-2.15334 1.96663,-3.50392 0.36023,-4.15 -1.19213,-0.47946 -0.83712,-0.607239 1.78109,-0.641073 3.0632,-0.0396 3.20491,0.03153 2.24086,1.124407 -0.56602,0.641666 -1.24286,2.17132 -1.5041,3.399226 -0.33875,1.592267 -0.68052,2.027007 -1.19166,1.51586 -0.41268,-0.41268 -1.02036,-0.47328 -1.43256,-0.142873 -1.4179,1.136567 -4.74328,1.346213 -6.83004,0.4306 z M 24.9641,85.941911 c -0.687014,-1.111613 0.858139,-2.38634 1.777812,-1.466667 0.769283,0.76928 0.287814,2.19142 -0.741912,2.19142 -0.323387,0 -0.789542,-0.32614 -1.0359,-0.724753 z m 147.16924,-0.07525 c -1.09996,-1.099953 -1.01616,-3.349006 0.3409,-9.150186 0.89007,-3.804913 0.96821,-5.01344 0.33772,-5.223607 -1.19141,-0.397133 -0.29054,-1.492873 1.22739,-1.492873 1.44707,0 1.62694,1.181187 0.68176,4.476847 -0.59883,2.088013 -0.57102,2.126466 1.27147,1.757973 2.47055,-0.494113 4.3428,2.053887 3.69072,5.0228 -0.86776,3.950886 -5.42566,6.733353 -7.54996,4.609046 z m 4.24466,-1.507933 c 1.65571,-2.526933 2.05802,-6.899926 0.68332,-7.427453 -1.7124,-0.657107 -3.61989,1.559373 -4.10058,4.764833 -0.66579,4.439813 1.26637,5.945293 3.41726,2.66262 z m -43.04466,-2.692067 v -2.333333 h -6 c -3.69534,0 -6,-0.265346 -6,-0.690806 0,-0.442447 2.33691,-0.622207 6.5,-0.5 l 6.5,0.190806 0.205,2.833333 c 0.12128,1.67638 -0.0829,2.833334 -0.5,2.833334 -0.38776,0 -0.705,-1.05 -0.705,-2.333334 z m 16,0 v -2.333333 h -6 c -3.69534,0 -6,-0.265346 -6,-0.690806 0,-0.442447 2.33691,-0.622207 6.5,-0.5 l 6.5,0.190806 0.205,2.833333 c 0.12128,1.67638 -0.0829,2.833334 -0.5,2.833334 -0.38776,0 -0.705,-1.05 -0.705,-2.333334 z M 12.666667,58.23854 c 0,-0.235468 1.344778,-2.002203 2.988396,-3.926077 3.5785,-4.18868 4.534969,-6.39251 3.712839,-8.554874 -1.198354,-3.15191 -5.788213,-2.664364 -4.986558,0.529684 0.45184,1.800271 -0.84601,3.014845 -1.473692,1.379134 -0.702227,-1.829974 0.843396,-4.172456 3.076742,-4.66298 3.938519,-0.865044 7.101996,2.94718 5.339486,6.434478 -0.434223,0.859152 -2.184732,2.825567 -3.890022,4.369813 l -3.100524,2.807718 3.13354,0.02561 c 2.299714,0.0188 3.314358,-0.284832 3.81306,-1.141053 0.766494,-1.31599 0.90014,-0.57321 0.299876,1.666667 -0.36364,1.356917 -0.807922,1.500001 -4.657564,1.500001 -2.340568,0 -4.255579,-0.192656 -4.255579,-0.428125 z M 24.9641,57.94191 c -0.687014,-1.111612 0.858139,-2.38634 1.777812,-1.466666 0.769283,0.769282 0.287814,2.191421 -0.741912,2.191421 -0.323387,0 -0.789542,-0.32614 -1.0359,-0.724755 z M 122,58.028041 c 0,-0.415672 1.87442,-0.694709 4.66667,-0.694709 h 4.66667 v -3.302873 -3.302874 l -4.5,-0.23322 -4.5,-0.233219 4.5,-0.130574 4.5,-0.130573 v -3.333334 -3.333333 h -4.66667 c -2.79225,0 -4.66667,-0.279037 -4.66667,-0.694709 0,-0.438824 1.90306,-0.622991 5.16667,-0.5 l 5.16667,0.194709 v 8 8 l -5.16667,0.194709 C 123.90306,58.651032 122,58.466868 122,58.028041 Z m 13,-0.02804 c -0.48613,-0.786582 0.14445,-2 1.03935,-2 0.34503,0 0.62732,0.45 0.62732,1 0,3.235876 3.03275,-1.301871 3.34169,-4.999999 0.32858,-3.933214 -0.99568,-4.541607 -3.26496,-1.5 -0.7523,1.008333 -1.37733,1.514902 -1.38894,1.125707 -0.0345,-1.154998 2.60374,-3.625707 3.87152,-3.625707 0.64571,0 1.49866,0.32463 1.89542,0.721401 0.51743,0.517425 1.10532,0.48164 2.0792,-0.126557 1.10238,-0.688448 1.55472,-0.684534 2.4046,0.0208 1.16056,0.963189 0.82981,2.051022 -0.62362,2.051022 -0.56142,0 -0.78525,-0.402572 -0.556,-1 0.46442,-1.210234 -0.67084,-1.329906 -1.58106,-0.166666 -0.91896,1.1744 -2.29377,7.106429 -1.82338,7.86753 0.67256,1.088238 2.19367,0.693745 3.2744,-0.849201 0.57078,-0.81492 1.0378,-1.136348 1.0378,-0.714286 0,2.149949 -3.60768,3.654946 -5.12476,2.137868 -0.5219,-0.521895 -0.85013,-0.521895 -1.17268,0 -0.56214,0.90957 -3.48366,0.95162 -4.0359,0.05809 z m 14.29172,-0.176494 c 1.3187,-0.66826 1.91258,-1.95461 3.15022,-6.823505 1.84766,-7.268645 1.85868,-7.490342 0.3914,-7.873783 -0.64167,-0.167685 1.84126,-0.339682 5.51762,-0.382216 l 6.68428,-0.07733 -0.32759,2.833333 c -0.24748,2.140434 -0.38374,2.396918 -0.55719,1.048786 -0.32345,-2.513934 -1.61446,-3.32885 -4.89451,-3.089526 -2.78613,0.203286 -2.85857,0.270312 -3.64687,3.374073 l -0.80426,3.166667 h 1.90747 c 1.25127,0 2.16346,-0.478326 2.65161,-1.390431 1.11945,-2.091722 1.32376,-1.250815 0.49213,2.025546 -0.64554,2.543242 -0.81247,2.736393 -1.27781,1.478487 -0.3516,-0.950492 -1.10096,-1.446936 -2.18406,-1.446936 -2.0099,0 -2.1451,0.203386 -2.72902,4.104988 -0.40192,2.685492 -0.2981,3.147907 0.76842,3.422665 0.67821,0.174723 -0.56689,0.348056 -2.76689,0.385185 -3.58535,0.06051 -3.83155,-0.01786 -2.37495,-0.755999 z M 167,57.999998 c -0.48613,-0.786582 0.14445,-2 1.03935,-2 0.34503,0 0.62732,0.45 0.62732,1 0,3.235876 3.03275,-1.301871 3.34169,-4.999999 0.32858,-3.933214 -0.99568,-4.541607 -3.26496,-1.5 -0.7523,1.008333 -1.37733,1.514902 -1.38894,1.125707 -0.0345,-1.154998 2.60374,-3.625707 3.87152,-3.625707 0.64571,0 1.49866,0.32463 1.89542,0.721401 0.51743,0.517425 1.10532,0.48164 2.0792,-0.126557 1.10238,-0.688448 1.55472,-0.684534 2.4046,0.0208 1.16056,0.963189 0.82981,2.051022 -0.62362,2.051022 -0.56142,0 -0.78525,-0.402572 -0.556,-1 0.46442,-1.210234 -0.67084,-1.329906 -1.58106,-0.166666 -0.91896,1.1744 -2.29377,7.106429 -1.82338,7.86753 0.67256,1.088238 2.19367,0.693745 3.2744,-0.849201 0.57078,-0.81492 1.0378,-1.136348 1.0378,-0.714286 0,2.149949 -3.60768,3.654946 -5.12476,2.137868 -0.5219,-0.521895 -0.85013,-0.521895 -1.17268,0 C 170.47376,58.85148 167.55224,58.89353 167,58 Z M 87.552495,29.702814 c -2.800614,-1.228829 -3.779487,-3.227347 -3.368167,-6.876589 0.38152,-3.384833 1.947093,-5.818303 5.142227,-7.992892 2.41862,-1.646099 6.567973,-2.005474 7.890086,-0.683361 0.644407,0.644409 1.097867,0.641012 2.150074,-0.01611 1.240045,-0.77442 1.301345,-0.703211 0.875175,1.016693 -1.333422,5.381335 -1.236149,5.276736 -2.130675,2.291088 -0.610907,-2.039036 -1.260687,-2.870757 -2.482307,-3.177364 -6.514253,-1.634973 -12.8504,10.894431 -7.36244,14.55884 1.365267,0.911612 4.85068,0.521311 5.862207,-0.656458 1.849393,-2.153338 1.966626,-3.50392 0.360226,-4.15 -1.192133,-0.479462 -0.83712,-0.607242 1.781094,-0.641076 3.063193,-0.03959 3.204906,0.03152 2.24086,1.124409 -0.56602,0.641667 -1.242867,2.171317 -1.5041,3.399225 -0.338754,1.592266 -0.68052,2.027011 -1.191667,1.515862 -0.41268,-0.412678 -1.02036,-0.473283 -1.43256,-0.142873 -1.4179,1.136563 -4.743273,1.346212 -6.830033,0.430601 z M 124.419,30.031977 c 5.29129,-0.488958 8.01342,-1.866527 8.64269,-4.373744 1.15585,-4.605248 -1.69185,-7.132802 -8.69456,-7.717105 l -4.70046,-0.392204 5.15615,-0.107796 c 4.78688,-0.100075 5.30664,0.02667 7.25758,1.769829 1.75003,1.563654 2.10142,2.364462 2.10142,4.789042 0,2.42458 -0.35139,3.225388 -2.10142,4.789042 -1.94817,1.740688 -2.47748,1.870495 -7.25758,1.779858 l -5.15615,-0.09777 z M 14.166667,29.225145 C 15.991486,28.558665 16,28.526063 16,22.205505 v -6.350049 l -1.666666,0.418306 c -0.961098,0.24122 -1.666667,0.130702 -1.666667,-0.261061 0,-0.373653 0.732295,-0.679368 1.627322,-0.679368 0.895027,0 1.870027,-0.375 2.166667,-0.833333 0.301679,-0.46612 0.68623,2.390488 0.872678,6.482619 0.318135,6.982388 0.409324,7.354293 2,8.156839 1.503822,0.758726 1.243272,0.836703 -2.666667,0.798082 -3.701682,-0.03657 -4.066096,-0.140407 -2.5,-0.712395 z m 10.797433,0.0501 c -0.687014,-1.111612 0.858139,-2.38634 1.777812,-1.466666 0.769283,0.769282 0.287814,2.19142 -0.741912,2.19142 -0.323387,0 -0.789542,-0.32614 -1.0359,-0.724754 z m 78.50257,-0.07525 c -1.09996,-1.099951 -1.01616,-3.349008 0.3409,-9.150185 0.89007,-3.804915 0.96821,-5.013444 0.33772,-5.223606 -1.19141,-0.397138 -0.29054,-1.492875 1.22739,-1.492875 1.44707,0 1.62694,1.181187 0.68176,4.476847 -0.59883,2.088012 -0.57102,2.126469 1.27147,1.757971 2.47055,-0.494111 4.3428,2.053886 3.69072,5.022804 -0.86776,3.950882 -5.42566,6.733352 -7.54996,4.609044 z m 4.24466,-1.507934 c 1.65571,-2.526932 2.05802,-6.899928 0.68332,-7.42745 -1.7124,-0.657111 -3.61989,1.559372 -4.10058,4.764829 -0.66579,4.439813 1.26637,5.945292 3.41726,2.662621 z m 40.91749,0.474601 c -0.36932,-1.008333 -1.74265,-4.627585 -3.05182,-8.042783 -2.4499,-6.390961 -2.66254,-9.433549 -0.26905,-3.849768 l 1.34146,3.129496 3.4499,-0.201806 c 3.39545,-0.198621 3.46615,-0.246521 4.47973,-3.035139 0.56641,-1.558333 1.29994,-2.833333 1.63006,-2.833333 0.33012,0 0.39244,0.525 0.13848,1.166667 -0.25395,0.641666 -1.67196,4.391666 -3.15112,8.333333 -1.47916,3.941666 -2.9609,7.166666 -3.29275,7.166666 -0.33185,0 -0.90555,-0.825 -1.27489,-1.833333 z m 2.3816,-2.627763 c 2.17404,-5.203215 2.11718,-5.538904 -0.93814,-5.538904 -1.571,0 -2.73894,0.317197 -2.73894,0.743858 0,0.805982 2.2053,7.256142 2.48086,7.256142 0.0924,0 0.63065,-1.107493 1.19622,-2.461096 z M 157,29.333333 c -0.48613,-0.786583 0.14445,-2 1.03935,-2 0.34503,0 0.62732,0.45 0.62732,1 0,3.235875 3.03275,-1.301872 3.34169,-5 0.32858,-3.933214 -0.99568,-4.541607 -3.26496,-1.5 -0.7523,1.008333 -1.37733,1.514902 -1.38894,1.125707 -0.0345,-1.154998 2.60374,-3.625707 3.87152,-3.625707 0.64571,0 1.49866,0.32463 1.89542,0.721401 0.51743,0.517425 1.10532,0.48164 2.0792,-0.126557 1.10238,-0.688448 1.55472,-0.684534 2.4046,0.0208 1.16056,0.963189 0.82981,2.051022 -0.62362,2.051022 -0.56142,0 -0.78525,-0.402572 -0.556,-1 0.46442,-1.210234 -0.67084,-1.329906 -1.58106,-0.166666 -0.91896,1.1744 -2.29377,7.106429 -1.82338,7.86753 0.67256,1.088238 2.19367,0.693746 3.2744,-0.849201 0.57078,-0.814919 1.0378,-1.136348 1.0378,-0.714286 0,2.149949 -3.60768,3.654946 -5.12476,2.137869 -0.5219,-0.521896 -0.85013,-0.521896 -1.17268,0 -0.56214,0.90957 -3.48366,0.951619 -4.0359,0.05809 z m 30.29172,-0.176495 c 1.3187,-0.66826 1.91258,-1.95461 3.15022,-6.823505 1.84766,-7.268645 1.85868,-7.490341 0.3914,-7.873783 -0.64167,-0.167685 1.84126,-0.339682 5.51762,-0.382216 L 203.03524,14 l -0.32759,2.833333 c -0.24748,2.140434 -0.38374,2.396918 -0.55719,1.048787 -0.32345,-2.513935 -1.61446,-3.328851 -4.89451,-3.089526 -2.78613,0.203286 -2.85857,0.270311 -3.64687,3.374072 l -0.80426,3.166667 h 1.90747 c 1.25127,0 2.16346,-0.478326 2.65161,-1.390431 1.11945,-2.091722 1.32376,-1.250815 0.49213,2.025546 -0.64554,2.543242 -0.81247,2.736393 -1.27781,1.478487 -0.3516,-0.950492 -1.10096,-1.446936 -2.18406,-1.446936 -2.0099,0 -2.1451,0.203386 -2.72902,4.104988 -0.40192,2.685492 -0.2981,3.147907 0.76842,3.422666 0.67821,0.174722 -0.56689,0.348056 -2.76689,0.385184 -3.58535,0.06051 -3.83155,-0.01786 -2.37495,-0.755999 z M 205,29.333333 c -0.48613,-0.786583 0.14445,-2 1.03935,-2 0.34503,0 0.62732,0.45 0.62732,1 0,3.235875 3.03275,-1.301872 3.34169,-5 0.32858,-3.933214 -0.99568,-4.541607 -3.26496,-1.5 -0.7523,1.008333 -1.37733,1.514902 -1.38894,1.125707 -0.0345,-1.154998 2.60374,-3.625707 3.87152,-3.625707 0.64571,0 1.49866,0.32463 1.89542,0.721401 0.51743,0.517425 1.10532,0.48164 2.0792,-0.126557 1.10238,-0.688448 1.55472,-0.684534 2.4046,0.0208 1.16056,0.963189 0.82981,2.051022 -0.62362,2.051022 -0.56142,0 -0.78525,-0.402572 -0.556,-1 0.46442,-1.210234 -0.67084,-1.329906 -1.58106,-0.166666 -0.91896,1.1744 -2.29377,7.106429 -1.82338,7.86753 0.67256,1.088238 2.19367,0.693746 3.2744,-0.849201 0.57078,-0.814919 1.0378,-1.136348 1.0378,-0.714286 0,2.149949 -3.60768,3.654946 -5.12476,2.137869 -0.5219,-0.521896 -0.85013,-0.521896 -1.17268,0 -0.56214,0.90957 -3.48366,0.951619 -4.0359,0.05809 z m -21.66666,-4.333334 v -2.333333 h -6 c -3.69534,0 -6,-0.265346 -6,-0.690808 0,-0.442445 2.33691,-0.622207 6.5,-0.5 l 6.5,0.190808 0.205,2.833333 c 0.12128,1.676382 -0.0829,2.833334 -0.5,2.833334 -0.38776,0 -0.705,-1.05 -0.705,-2.333334 z"
         id="path1502" />
      <path
         style="fill:#333333;fill-opacity:1;stroke-width:0.666667"
         d="m 13.833334,85.946598 c -1.502235,-0.874974 -1.571463,-3.9466 -0.08895,-3.9466 0.792953,0 0.992685,0.444826 0.755901,1.68348 -0.211423,1.105986 0.04778,1.899446 0.755615,2.31306 0.592588,0.346266 0.777433,0.62958 0.410766,0.62958 -0.366667,0 -1.191667,-0.30578 -1.833332,-0.67952 z m 4.483691,-0.185567 c 1.44508,-1.056673 1.661405,-4.513787 0.379123,-6.058846 -0.472674,-0.569534 -1.497674,-1.059207 -2.277778,-1.088154 -1.20534,-0.04473 -1.142812,-0.153266 0.416319,-0.722673 3.115464,-1.137793 3.333249,-5.27634 0.346755,-6.589373 -1.323032,-0.581687 -1.262084,-0.615067 0.481494,-0.263727 1.097948,0.221247 2.372948,0.71488 2.833333,1.096967 1.252297,1.039313 1.009997,3.50162 -0.476996,4.847326 -1.302582,1.178827 -1.299671,1.200527 0.333333,2.485047 C 21.258674,80.180311 22,81.424911 22,82.233378 c 0,2.1068 -1.83596,4.433286 -3.498556,4.433286 -1.362318,0 -1.370176,-0.0386 -0.184419,-0.905633 z m 6.647075,0.18088 c -0.687014,-1.111613 0.858139,-2.38634 1.777812,-1.466667 0.769283,0.76928 0.287814,2.19142 -0.741912,2.19142 -0.323387,0 -0.789542,-0.32614 -1.0359,-0.724753 z m 129.25889,-0.991653 c -1.49445,-1.494447 -1.67595,-2.13738 -1.40359,-4.971893 0.53394,-5.556867 5.12419,-9.978367 10.35919,-9.978367 1.03845,0 2.25557,0.367487 2.70472,0.81664 0.64441,0.644407 1.11472,0.630487 2.22999,-0.066 1.21973,-0.761733 1.3598,-0.7431 1.02245,0.13602 -0.21499,0.560267 -0.60618,2.164973 -0.86929,3.566013 l -0.4784,2.54734 -0.74606,-2.657186 c -2.39857,-8.542775 -14.27514,-0.0033 -12.09214,8.694753 0.26841,1.069433 1.23522,2.063133 2.57338,2.644953 l 2.14343,0.93196 -1.86363,0.02607 c -1.139,0.01593 -2.53104,-0.6413 -3.58005,-1.690314 z m 7.22513,0.958846 c 1.06578,-0.390246 2.06045,-1.452613 2.47592,-2.644426 0.61593,-1.76686 0.52756,-2.059307 -0.78146,-2.586147 -1.17787,-0.474067 -0.82682,-0.602553 1.73838,-0.636273 2.80883,-0.03693 3.09226,0.07975 2.24699,0.925026 -0.53201,0.532014 -1.17116,2.054034 -1.42034,3.382274 -0.33832,1.803413 -0.65977,2.24342 -1.26935,1.737513 -0.51234,-0.4252 -1.18035,-0.447227 -1.79395,-0.05913 -0.5377,0.34008 -1.42764,0.599233 -1.97764,0.5759 -0.55,-0.02333 -0.19835,-0.33596 0.78145,-0.69472 z m 10.68522,-0.04244 c -1.12519,-1.125186 -0.97904,-4.08944 0.47828,-9.699999 1.15129,-4.432414 1.16417,-4.837074 0.15524,-4.878454 -0.80278,-0.03293 -0.69298,-0.241446 0.4062,-0.771393 2.09361,-1.009393 2.45036,-0.3523 1.60661,2.95924 -0.49133,1.92836 -0.50641,2.933933 -0.0464,3.09308 0.381,0.131813 0.16687,0.804567 -0.48553,1.52546 -0.74694,0.82536 -1.18164,2.42054 -1.20742,4.43086 -0.0348,2.710193 0.14264,3.141206 1.29303,3.141206 2.78407,0 4.87421,-7.517353 2.5,-8.991426 -1.06757,-0.66282 -1.05384,-0.707413 0.16159,-0.524973 0.73054,0.109653 1.70864,0.99302 2.17356,1.963026 2.0369,4.249893 -3.9455,10.84304 -7.03516,7.753373 z m -38.8,-4.2 v -2.333333 h -5.62732 c -3.16698,0 -5.81417,-0.30232 -6.05468,-0.691466 -0.28696,-0.464327 1.72582,-0.628574 6.12732,-0.5 l 6.55468,0.191466 0.205,2.833333 c 0.12128,1.67638 -0.0829,2.833334 -0.5,2.833334 -0.38776,0 -0.705,-1.05 -0.705,-2.333334 z m 16,0 v -2.333333 h -5.62732 c -3.16698,0 -5.81417,-0.30232 -6.05468,-0.691466 -0.28696,-0.464327 1.72582,-0.628574 6.12732,-0.5 l 6.55468,0.191466 0.205,2.833333 c 0.12128,1.67638 -0.0829,2.833334 -0.5,2.833334 -0.38776,0 -0.705,-1.05 -0.705,-2.333334 z M 13.448708,73.624065 c 0.283361,-2.411067 1.62298,-2.85402 1.582415,-0.523234 -0.01712,0.983534 -0.429204,1.920894 -0.915748,2.083027 -0.624187,0.207993 -0.820457,-0.25122 -0.666667,-1.559793 z M 12.666667,58.272993 c 0,-0.216519 1.309141,-1.941519 2.909203,-3.833333 1.600062,-1.891813 3.275572,-4.142603 3.723355,-5.001755 1.683568,-3.230228 -1.064665,-6.990595 -3.971899,-5.434691 -1.001076,0.53576 -1.235384,1.130991 -0.927728,2.356789 0.30948,1.233066 0.145552,1.639996 -0.660659,1.639996 -0.589749,0 -1.067678,-0.525 -1.062063,-1.166667 0.03541,-4.04704 6.10577,-5.311006 8.434896,-1.75631 1.544092,2.356582 0.619846,4.682273 -3.316278,8.344793 l -3.46216,3.221503 3.13354,0.01167 c 2.263149,0.0084 3.3419,-0.312387 3.88367,-1.154993 0.700555,-1.089563 0.724774,-1.085959 0.36646,0.05453 -0.211019,0.671655 -0.38367,1.646655 -0.38367,2.166666 0,0.719217 -1.036993,0.945475 -4.333334,0.945475 -2.383333,0 -4.333333,-0.177152 -4.333333,-0.393673 z M 24.9641,57.94191 c -0.687014,-1.111612 0.858139,-2.38634 1.777812,-1.466666 0.769283,0.769282 0.287814,2.191421 -0.741912,2.191421 -0.323387,0 -0.789542,-0.32614 -1.0359,-0.724755 z m 97.35127,0.08716 c 0.23649,-0.382658 2.36229,-0.695741 4.72398,-0.695741 h 4.29399 v -3.302873 -3.302874 l -4.5,-0.23322 -4.5,-0.233219 4.5,-0.130574 4.5,-0.130573 v -3.333334 -3.333333 h -4.29399 c -2.36169,0 -4.48749,-0.313083 -4.72398,-0.695741 -0.28836,-0.466577 1.29069,-0.631267 4.79399,-0.5 l 5.22398,0.195741 v 8 8 l -5.22398,0.195741 c -3.5033,0.131267 -5.08235,-0.03342 -4.79399,-0.5 z M 135,57.999998 c -0.48613,-0.786582 0.14445,-2 1.03935,-2 0.34503,0 0.62732,0.45 0.62732,1 0,1.766904 1.37363,1.067517 2.29139,-1.166666 1.71303,-4.170147 1.92874,-6.457375 0.6551,-6.946115 -0.80922,-0.31053 -1.63014,0.142943 -2.71644,1.50055 -0.85622,1.070061 -1.55825,1.622859 -1.56007,1.228441 -0.002,-0.394418 0.74372,-1.418925 1.65676,-2.276681 1.43369,-1.346887 1.89077,-1.454446 3.35179,-0.788757 1.28664,0.586229 1.99362,0.582268 2.95246,-0.01654 0.98361,-0.614271 1.49084,-0.596373 2.30754,0.08142 0.57573,0.477818 0.88239,1.13477 0.68145,1.45989 -0.59693,0.965855 -1.61998,0.672561 -1.61998,-0.464429 0,-0.580556 -0.375,-0.933403 -0.83333,-0.784105 -1.15124,0.375004 -2.35434,3.027258 -2.8885,6.36776 -0.40574,2.537283 -0.3167,2.805233 0.93216,2.805233 0.7594,0 1.84774,-0.666752 2.41854,-1.48167 0.57078,-0.81492 1.0378,-1.161415 1.0378,-0.769992 0,1.001858 -2.24537,2.918329 -3.41916,2.918329 -0.53946,0 -1.34084,-0.36 -1.78084,-0.8 -0.62222,-0.622222 -0.97778,-0.622222 -1.6,0 -0.97193,0.971925 -2.9685,1.047267 -3.53334,0.133332 z m 14.84907,-0.5 c 0.82897,-0.727108 1.86151,-3.355367 2.74052,-6.975874 1.70361,-7.016823 1.70359,-7.01641 0.24375,-7.397908 -0.64167,-0.167685 1.75833,-0.339682 5.33333,-0.382216 l 6.5,-0.07733 -0.0789,2.499999 c -0.0763,2.41906 -0.0926,2.435248 -0.50369,0.5 -0.39911,-1.879024 -0.63649,-2.012195 -3.92433,-2.201618 -3.77586,-0.217537 -3.91585,-0.08784 -5.07486,4.701618 -0.4083,1.687257 -0.2863,1.833334 1.53124,1.833334 1.2718,0 2.37358,-0.534029 3.09474,-1.5 0.98022,-1.31299 1.06222,-1.333768 0.65778,-0.166667 -0.25413,0.733333 -0.63938,2.212513 -0.85611,3.287066 -0.37852,1.876679 -0.41592,1.894633 -0.94839,0.455243 -0.42023,-1.135994 -0.9894,-1.447344 -2.35288,-1.287066 -1.53674,0.180648 -1.91717,0.678632 -2.61348,3.421069 -0.77292,3.044201 -0.74061,3.239616 0.62696,3.791076 1.09688,0.44231 0.58676,0.591541 -2.13196,0.623688 -3.46451,0.04097 -3.53316,0.0065 -2.24375,-1.12441 z m 17.15093,0.5 c -0.48613,-0.786582 0.14445,-2 1.03935,-2 0.34503,0 0.62732,0.45 0.62732,1 0,1.766904 1.37363,1.067517 2.29139,-1.166666 1.71303,-4.170147 1.92874,-6.457375 0.6551,-6.946115 -0.80922,-0.31053 -1.63014,0.142943 -2.71644,1.50055 -0.85622,1.070061 -1.55825,1.622859 -1.56007,1.228441 -0.002,-0.394418 0.74372,-1.418925 1.65676,-2.276681 1.43369,-1.346887 1.89077,-1.454446 3.35179,-0.788757 1.28664,0.586229 1.99362,0.582268 2.95246,-0.01654 0.98361,-0.614271 1.49084,-0.596373 2.30754,0.08142 0.57573,0.477818 0.88239,1.13477 0.68145,1.45989 -0.59693,0.965855 -1.61998,0.672561 -1.61998,-0.464429 0,-0.580556 -0.375,-0.933403 -0.83333,-0.784105 -1.15124,0.375004 -2.35434,3.027258 -2.8885,6.36776 -0.40574,2.537283 -0.3167,2.805233 0.93216,2.805233 0.7594,0 1.84774,-0.666752 2.41854,-1.48167 0.57078,-0.81492 1.0378,-1.161415 1.0378,-0.769992 0,1.001858 -2.24537,2.918329 -3.41916,2.918329 -0.53946,0 -1.34084,-0.36 -1.78084,-0.8 -0.62222,-0.622222 -0.97778,-0.622222 -1.6,0 -0.97193,0.971925 -2.9685,1.047267 -3.53334,0.133332 z M 124.33334,30.049975 c 2.56666,-0.220604 5.33479,-0.778972 6.15138,-1.240816 3.17371,-1.79496 3.75186,-5.684729 1.27324,-8.566298 -1.3875,-1.613057 -2.20248,-1.883776 -6.83334,-2.269897 l -5.25795,-0.438408 5.11551,-0.100612 c 4.60838,-0.09064 5.31887,0.07049 7.16667,1.625318 1.73209,1.457451 2.05115,2.193621 2.05115,4.732527 0,2.503797 -0.34625,3.330048 -2.0705,4.940737 -1.93967,1.811925 -2.39252,1.927329 -7.16667,1.826345 l -5.09616,-0.107796 z M 14.5,29.312558 c 1.408481,-0.56614 1.5,-0.990652 1.5,-6.957743 0,-6.122821 -0.05476,-6.357639 -1.5,-6.432149 -1.359094,-0.07007 -1.37475,-0.108122 -0.166666,-0.405073 0.733333,-0.180256 1.698242,-0.623815 2.144243,-0.985685 0.625863,-0.507807 0.854059,1.061312 1,6.876186 0.185719,7.399803 0.218806,7.542379 1.855757,7.996567 1.117037,0.309932 0.347556,0.470411 -2.333334,0.486628 -3.029186,0.01832 -3.635944,-0.122137 -2.5,-0.578731 z m 10.4641,-0.03731 c -0.687014,-1.111613 0.858139,-2.38634 1.777812,-1.466667 0.769283,0.769283 0.287814,2.191421 -0.741912,2.191421 -0.323387,0 -0.789542,-0.32614 -1.0359,-0.724754 z m 60.592221,-0.99165 c -1.494446,-1.49445 -1.675946,-2.137383 -1.403586,-4.971895 0.53394,-5.556865 5.124186,-9.978367 10.359186,-9.978367 1.038447,0 2.255567,0.367488 2.70472,0.816639 0.644407,0.644409 1.11472,0.630487 2.229994,-0.06601 1.219725,-0.761731 1.359795,-0.743097 1.022445,0.136018 -0.21499,0.560269 -0.606179,2.164975 -0.869292,3.566013 l -0.478393,2.547343 -0.746067,-2.657189 c -2.398567,-8.5427722 -14.27514,-0.003 -12.092133,8.694757 0.268406,1.06943 1.23522,2.063132 2.573373,2.644954 l 2.143433,0.931955 -1.863633,0.02609 c -1.138993,0.01595 -2.531033,-0.6413 -3.580047,-1.690309 z m 7.225134,0.958843 c 1.065773,-0.390244 2.060446,-1.452615 2.47592,-2.644427 0.615926,-1.766856 0.52756,-2.059302 -0.78146,-2.586146 -1.177874,-0.474063 -0.826827,-0.60255 1.738373,-0.636275 2.808833,-0.03693 3.092267,0.07976 2.246993,0.925031 -0.532006,0.532008 -1.17116,2.054031 -1.42034,3.382272 -0.33832,1.803411 -0.659773,2.243421 -1.269353,1.737514 -0.51234,-0.425203 -1.180347,-0.447228 -1.793947,-0.05915 -0.5377,0.340077 -1.42764,0.599233 -1.97764,0.5759 -0.55,-0.02333 -0.198346,-0.335957 0.781454,-0.694722 z m 10.685215,-0.04244 c -1.12519,-1.125189 -0.97904,-4.08944 0.47828,-9.7 1.15129,-4.432411 1.16417,-4.837075 0.15524,-4.878453 -0.80278,-0.03293 -0.69298,-0.241447 0.4062,-0.771392 2.09361,-1.009394 2.45036,-0.352304 1.60661,2.959237 -0.49133,1.92836 -0.50641,2.933937 -0.0464,3.093082 0.381,0.131812 0.16687,0.804564 -0.48553,1.525462 -0.74694,0.825358 -1.18164,2.42054 -1.20742,4.43086 -0.0348,2.710193 0.14264,3.141204 1.29303,3.141204 2.78407,0 4.87421,-7.51735 2.5,-8.991427 -1.06757,-0.662819 -1.05384,-0.707412 0.16159,-0.524974 0.73054,0.109655 1.70864,0.993019 2.17356,1.963031 2.0369,4.249892 -3.9455,10.843038 -7.03516,7.75337 z m 43.36224,-6.033333 c -3.33711,-8.627576 -3.79908,-10.099598 -3.01807,-9.616906 0.3412,0.21087 1.02136,1.598438 1.51147,3.083486 l 0.89111,2.700087 h 3.61358 c 3.59684,0 3.61846,-0.01237 4.6611,-2.666667 C 155.06422,15.2 155.75538,14 156.024,14 c 0.26863,0 -0.90188,3.599886 -2.60112,7.999747 -1.69925,4.399862 -3.28334,7.999862 -3.5202,8 -0.23686,1.39e-4 -1.62006,-3.074748 -3.07377,-6.833081 z m 4.77536,1.04713 c 0.58432,-1.71489 1.0624,-3.36454 1.0624,-3.665889 0,-0.301349 -1.33783,-0.547908 -2.97295,-0.547908 h -2.97296 l 1.42662,3.964976 c 0.78464,2.180738 1.64439,3.830388 1.91055,3.66589 0.26617,-0.164498 0.96201,-1.702179 1.54634,-3.417069 z M 157,29.333333 c -0.48613,-0.786583 0.14445,-2 1.03935,-2 0.34503,0 0.62732,0.45 0.62732,1 0,1.766903 1.37363,1.067516 2.29139,-1.166667 1.71303,-4.170147 1.92874,-6.457375 0.6551,-6.946115 -0.80922,-0.31053 -1.63014,0.142943 -2.71644,1.50055 -0.85622,1.070061 -1.55825,1.622859 -1.56007,1.228441 -0.002,-0.394418 0.74372,-1.418925 1.65676,-2.276681 1.43369,-1.346887 1.89077,-1.454446 3.35179,-0.788757 1.28664,0.586229 1.99362,0.582268 2.95246,-0.01654 0.98361,-0.614271 1.49084,-0.596373 2.30754,0.08142 0.57573,0.477818 0.88239,1.13477 0.68145,1.45989 -0.59693,0.965855 -1.61998,0.672561 -1.61998,-0.464429 0,-0.580556 -0.375,-0.933403 -0.83333,-0.784105 -1.15124,0.375004 -2.35434,3.027258 -2.8885,6.36776 -0.40574,2.537284 -0.3167,2.805234 0.93216,2.805234 0.7594,0 1.84774,-0.666752 2.41854,-1.481671 0.57078,-0.814919 1.0378,-1.161415 1.0378,-0.769992 0,1.001858 -2.24537,2.918329 -3.41916,2.918329 -0.53946,0 -1.34084,-0.36 -1.78084,-0.8 -0.62222,-0.622222 -0.97778,-0.622222 -1.6,0 -0.97193,0.971926 -2.9685,1.047268 -3.53334,0.133334 z m 30.84907,-0.5 c 0.82897,-0.727109 1.86151,-3.355368 2.74052,-6.975875 1.70361,-7.016822 1.70359,-7.01641 0.24375,-7.397908 -0.64167,-0.167685 1.75833,-0.339682 5.33333,-0.382216 l 6.5,-0.07733 -0.0789,2.5 c -0.0763,2.419059 -0.0926,2.435247 -0.50369,0.5 -0.39911,-1.879025 -0.63649,-2.012196 -3.92433,-2.201618 -3.77586,-0.217538 -3.91585,-0.08784 -5.07486,4.701617 -0.4083,1.687257 -0.2863,1.833334 1.53124,1.833334 1.2718,0 2.37358,-0.534029 3.09474,-1.5 0.98022,-1.31299 1.06222,-1.333768 0.65778,-0.166667 -0.25413,0.733333 -0.63938,2.212513 -0.85611,3.287066 -0.37852,1.876679 -0.41592,1.894633 -0.94839,0.455243 -0.42023,-1.135994 -0.9894,-1.447344 -2.35288,-1.287066 -1.53674,0.180648 -1.91717,0.678632 -2.61348,3.421069 -0.77292,3.044201 -0.74061,3.239616 0.62696,3.791076 1.09688,0.44231 0.58676,0.591541 -2.13196,0.623688 -3.46451,0.04097 -3.53316,0.0065 -2.24375,-1.124409 z m 17.15093,0.5 c -0.48613,-0.786583 0.14445,-2 1.03935,-2 0.34503,0 0.62732,0.45 0.62732,1 0,1.766903 1.37363,1.067516 2.29139,-1.166667 1.71303,-4.170147 1.92874,-6.457375 0.6551,-6.946115 -0.80922,-0.31053 -1.63014,0.142943 -2.71644,1.50055 -0.85622,1.070061 -1.55825,1.622859 -1.56007,1.228441 -0.002,-0.394418 0.74372,-1.418925 1.65676,-2.276681 1.43369,-1.346887 1.89077,-1.454446 3.35179,-0.788757 1.28664,0.586229 1.99362,0.582268 2.95246,-0.01654 0.98361,-0.614271 1.49084,-0.596373 2.30754,0.08142 0.57573,0.477818 0.88239,1.13477 0.68145,1.45989 -0.59693,0.965855 -1.61998,0.672561 -1.61998,-0.464429 0,-0.580556 -0.375,-0.933403 -0.83333,-0.784105 -1.15124,0.375004 -2.35434,3.027258 -2.8885,6.36776 -0.40574,2.537284 -0.3167,2.805234 0.93216,2.805234 0.7594,0 1.84774,-0.666752 2.41854,-1.481671 0.57078,-0.814919 1.0378,-1.161415 1.0378,-0.769992 0,1.001858 -2.24537,2.918329 -3.41916,2.918329 -0.53946,0 -1.34084,-0.36 -1.78084,-0.8 -0.62222,-0.622222 -0.97778,-0.622222 -1.6,0 -0.97193,0.971926 -2.9685,1.047268 -3.53334,0.133334 z m -21.66666,-4.333334 v -2.333333 h -5.62732 c -3.16698,0 -5.81417,-0.302319 -6.05468,-0.691467 -0.28696,-0.464325 1.72582,-0.628572 6.12732,-0.5 l 6.55468,0.191467 0.205,2.833333 c 0.12128,1.676382 -0.0829,2.833334 -0.5,2.833334 -0.38776,0 -0.705,-1.05 -0.705,-2.333334 z"
         id="path1500" />
    </g>
  </g>
</svg>
