<?xml version="1.0" encoding="UTF-8" standalone="no"?>
<svg
   xmlns:dc="http://purl.org/dc/elements/1.1/"
   xmlns:cc="http://creativecommons.org/ns#"
   xmlns:rdf="http://www.w3.org/1999/02/22-rdf-syntax-ns#"
   xmlns:svg="http://www.w3.org/2000/svg"
   xmlns="http://www.w3.org/2000/svg"
   xmlns:sodipodi="http://sodipodi.sourceforge.net/DTD/sodipodi-0.dtd"
   xmlns:inkscape="http://www.inkscape.org/namespaces/inkscape"
   version="1.1"
   id="svg2542"
   width="176"
   height="86"
   viewBox="0 0 176 86"
   sodipodi:docname="10-12-8.svg"
   inkscape:version="1.0.1 (c497b03c, 2020-09-10)">
  <metadata
     id="metadata2548">
    <rdf:RDF>
      <cc:Work
         rdf:about="">
        <dc:format>image/svg+xml</dc:format>
        <dc:type
           rdf:resource="http://purl.org/dc/dcmitype/StillImage" />
        <dc:title></dc:title>
      </cc:Work>
    </rdf:RDF>
  </metadata>
  <defs
     id="defs2546" />
  <sodipodi:namedview
     pagecolor="#ffffff"
     bordercolor="#666666"
     borderopacity="1"
     objecttolerance="10"
     gridtolerance="10"
     guidetolerance="10"
     inkscape:pageopacity="0"
     inkscape:pageshadow="2"
     inkscape:window-width="740"
     inkscape:window-height="480"
     id="namedview2544"
     showgrid="false"
     fit-margin-top="0"
     fit-margin-left="0"
     fit-margin-right="0"
     fit-margin-bottom="0"
     inkscape:pagecheckerboard="true"
     inkscape:zoom="1.7101268"
     inkscape:cx="99.73822"
     inkscape:cy="29.474269"
     inkscape:window-x="0"
     inkscape:window-y="25"
     inkscape:window-maximized="0"
     inkscape:current-layer="g2550" />
  <g
     inkscape:groupmode="layer"
     inkscape:label="Image"
     id="g2550"
     transform="translate(-9.0000002,-4.6666667)">
    <g
       id="g2554">
      <path
         style="fill:#d0d0d0;stroke-width:0.666667"
         d="M 81.333335,62.333333 V 34 H 45.333334 C 21.777778,34 9.3333335,33.769547 9.3333335,33.333333 c 0,-0.436214 12.4444445,-0.666666 36.0000005,-0.666666 h 36.000001 v -14 c 0,-8.888889 0.243386,-14.0000003 0.666666,-14.0000003 0.42328,0 0.666667,5.1111113 0.666667,14.0000003 v 14 h 51.000002 c 33.55555,0 51,0.228032 51,0.666666 0,0.438635 -17.44445,0.666667 -51,0.666667 H 82.666668 v 28.333333 c 0,18.444447 -0.23268,28.333334 -0.666667,28.333334 -0.433986,0 -0.666666,-9.888887 -0.666666,-28.333334 z M 36.666667,85.5019 c 0,-0.310547 1.212842,-1.748947 2.695204,-3.196433 3.090945,-3.018227 3.453898,-5.80894 0.804432,-6.185214 -1.222138,-0.173566 -1.46939,0.07368 -1.333333,1.333334 0.192626,1.78338 -1.686691,2.21116 -2.023805,0.460666 -0.545178,-2.830886 4.62325,-4.383073 6.754177,-2.028426 1.650695,1.824 1.350316,3.333846 -1.163341,5.847506 C 40.192593,83.94074 40.175164,84 41.733334,84 c 0.88,0 1.6,-0.3 1.6,-0.666667 0,-0.366666 0.320865,-0.666666 0.713034,-0.666666 0.392169,0 0.617169,0.675 0.5,1.5 -0.188718,1.328786 -0.650571,1.52282 -4.046367,1.699933 -2.108334,0.109967 -3.833334,-0.05413 -3.833334,-0.3647 z M 25.103326,82.114173 c -1.548905,-1.71152 -1.37208,-4.851526 0.42323,-7.515586 1.388772,-2.0608 1.84006,-2.273847 5,-2.360494 3.909148,-0.10718 4.139751,0.33566 2.760751,5.301647 -0.750915,2.70416 -0.362866,5.176893 0.412247,2.626927 0.250775,-0.825 0.720966,-1.5 1.044867,-1.5 1.109295,0 0.589782,2.459226 -0.781713,3.700413 -1.080291,0.977653 -1.622494,1.083107 -2.559651,0.497847 -0.729706,-0.455714 -1.552282,-0.512607 -2.129374,-0.147287 -1.479279,0.93644 -2.972279,0.720393 -4.170357,-0.603467 z m 5.58521,-4.195386 c 0.825604,-3.06606 0.499612,-4.585454 -0.983825,-4.585454 -1.929773,0 -4.07989,6.735934 -2.617055,8.198767 0.933916,0.933913 2.91052,-1.049513 3.60088,-3.613313 z M 98.000002,82 c 0,-0.366667 0.6,-0.666667 1.333333,-0.666667 1.234565,0 1.333335,-0.444446 1.333335,-6 0,-5.555553 -0.0988,-6 -1.333335,-6 -2.04542,0 -1.58564,-0.974246 0.880665,-1.866073 1.2177,-0.440327 2.4177,-0.800593 2.66667,-0.800593 0.24897,0 0.45267,3.3 0.45267,7.333333 0,6.888887 0.0808,7.333333 1.33333,7.333333 0.73333,0 1.33333,0.3 1.33333,0.666667 0,0.370373 -1.77778,0.666667 -4,0.666667 -2.222218,0 -3.999998,-0.296294 -3.999998,-0.666667 z m 49.457118,-4.5 c 0.16693,-0.879073 1.00068,-1.216753 3.38221,-1.36986 C 153.64958,75.949473 154,76.07881 154,77.296807 c 0,1.202026 -0.41438,1.36986 -3.38221,1.36986 -2.86111,0 -3.34809,-0.179754 -3.16067,-1.166667 z M 37.666667,57.333333 c 0.226613,-0.366666 0.844318,-0.666666 1.372678,-0.666666 0.72969,0 0.960656,-0.9617 0.960656,-4 0,-3.676768 -0.118519,-4 -1.466667,-4 -1.88323,0 -0.839529,-1.081038 1.633333,-1.691764 l 1.833334,-0.45278 v 5.072272 c 0,4.064242 0.198733,5.072272 1,5.072272 0.55,0 1,0.3 1,0.666666 C 44.000001,57.7 42.482295,58 40.627323,58 38.548633,58 37.412725,57.744221 37.666667,57.333333 Z M 25.103326,53.447506 c -1.548905,-1.71152 -1.37208,-4.851524 0.42323,-7.515584 1.388772,-2.060799 1.84006,-2.273851 5,-2.360493 3.909148,-0.107185 4.139751,0.335656 2.760751,5.301644 -0.750915,2.704162 -0.362866,5.176894 0.412247,2.626927 0.250775,-0.825 0.720966,-1.5 1.044867,-1.5 1.109295,0 0.589782,2.45923 -0.781713,3.700416 -1.080291,0.977651 -1.622494,1.083107 -2.559651,0.497841 -0.729706,-0.455708 -1.552282,-0.512604 -2.129374,-0.147282 -1.479279,0.936437 -2.972279,0.720394 -4.170357,-0.603469 z m 5.58521,-4.195387 c 0.825604,-3.066058 0.499612,-4.585452 -0.983825,-4.585452 -1.929773,0 -4.07989,6.735932 -2.617055,8.198766 0.933916,0.933916 2.91052,-1.049512 3.60088,-3.613314 z m 67.995092,4.098172 c -1.756686,-1.756681 -2.2311,-3.938626 -1.887933,-8.682938 0.18706,-2.58602 0.710393,-4.419926 1.515033,-5.309037 1.317007,-1.455275 4.306332,-1.788569 6.329652,-0.705722 3.24631,1.737376 3.63646,11.36767 0.59289,14.634567 -1.63549,1.755486 -4.82653,1.786244 -6.549642,0.06313 z m 5.251152,-2.11644 c 0.90682,-2.601282 0.94938,-7.908353 0.0817,-10.190451 -0.77928,-2.049684 -2.9962,-2.283177 -3.99304,-0.420561 -0.379572,0.709228 -0.690125,3.27895 -0.690125,5.710494 0,2.431544 0.310553,5.001266 0.690125,5.710494 1.07751,2.013354 3.07102,1.600528 3.91132,-0.809976 z m 46.08218,2.11644 c -1.75668,-1.756681 -2.2311,-3.938626 -1.88793,-8.682938 0.18706,-2.58602 0.71039,-4.419926 1.51503,-5.309037 1.31701,-1.455275 4.30633,-1.788569 6.32965,-0.705722 3.24631,1.737376 3.63647,11.36767 0.59289,14.634567 -1.63548,1.755486 -4.82652,1.786244 -6.54964,0.06313 z m 5.25116,-2.11644 c 0.90681,-2.601282 0.94937,-7.908353 0.0817,-10.190451 -0.77929,-2.049684 -2.9962,-2.283177 -3.99305,-0.420561 -0.37957,0.709228 -0.69012,3.27895 -0.69012,5.710494 0,2.431544 0.31055,5.001266 0.69012,5.710494 1.07751,2.013354 3.07103,1.600528 3.91133,-0.809976 z M 57.86466,29.546482 c -1.39748,-0.36785 -2.245362,-2.765779 -1.309028,-3.702113 1.202982,-1.202982 2.927856,-0.03437 2.400717,1.6265 -0.449113,1.41503 -0.403318,1.433879 1.084162,0.44623 2.027747,-1.346374 2.403709,-2.583766 0.785037,-2.583766 -0.70706,0 -1.820743,-0.591366 -2.474851,-1.314147 -1.185399,-1.309852 -0.99143,-3.584464 0.641204,-7.519186 0.294197,-0.709027 0.188126,-1.166667 -0.270408,-1.166667 -0.414971,0 -1.046506,0.768052 -1.403411,1.706783 -0.707704,1.861403 -2.183715,1.639699 -1.518808,-0.228133 C 56.509855,14.815842 57.450752,14 59.042286,14 c 2.244716,0 2.572945,1.045943 1.600414,5.099909 -0.595155,2.480883 -0.650888,3.825236 -0.178182,4.297942 1.14507,1.145069 2.698443,-1.063825 3.608792,-5.131693 0.756252,-3.379291 2.01889,-5.062847 3.034991,-4.046747 0.499707,0.499706 -1.689718,9.576609 -2.879055,11.935971 -0.745103,1.478108 -4.219726,4.080745 -5.029472,3.767284 -0.109875,-0.04253 -0.710677,-0.211817 -1.335114,-0.376184 z M 110.33334,28 c 0.22661,-0.366667 0.84432,-0.666667 1.37268,-0.666667 0.72968,0 0.96065,-0.9617 0.96065,-4 0,-3.676768 -0.11852,-4 -1.46667,-4 -1.88323,0 -0.83952,-1.081038 1.63334,-1.691763 l 1.83333,-0.452781 v 5.072272 c 0,4.064242 0.19873,5.072272 1,5.072272 0.55,0 1,0.3 1,0.666667 0,0.366667 -1.51771,0.666667 -3.37268,0.666667 -2.07869,0 -3.21459,-0.255779 -2.96065,-0.666667 z m 50.33333,0.241221 c 0,-0.233996 1.21904,-1.747946 2.70897,-3.364334 3.00416,-3.25913 3.34594,-5.726653 0.84259,-6.083164 -1.06847,-0.152164 -1.50569,0.183918 -1.66667,1.281114 -0.30436,2.074471 -1.88489,2.449616 -1.88489,0.447385 0,-2.067415 1.17435,-3.188889 3.33925,-3.188889 2.82523,0 4.34921,1.671077 4.07307,4.46621 -0.0435,0.439748 -1.05399,1.71336 -2.24565,2.830248 -1.908,1.788264 -2.0035,2.031074 -0.8,2.033791 0.75166,0.0017 1.72666,-0.356915 2.16666,-0.796915 0.62222,-0.622222 0.8,-0.4 0.8,1 0,1.737374 -0.12757,1.8 -3.66666,1.8 -2.01667,0 -3.66667,-0.191451 -3.66667,-0.425446 z M 35.546192,24.5 c -0.292874,-0.458333 -0.535579,-2.183333 -0.539345,-3.833333 -0.0065,-2.871224 -0.09636,-3.008707 -2.092162,-3.202838 -1.804991,-0.175572 -2.145318,0.04847 -2.531659,1.666666 -0.245488,1.028228 -0.602312,2.394505 -0.792942,3.036172 -0.226471,0.762307 0.01556,1.166666 0.698325,1.166666 0.574709,0 1.044925,0.3 1.044925,0.666667 0,0.366667 -1.65,0.666667 -3.666667,0.666667 C 25.65,24.666667 24,24.366667 24,24 c 0,-0.366667 0.563164,-0.666667 1.251476,-0.666667 1.018862,0 1.519773,-1.08425 2.694928,-5.833333 0.793899,-3.208333 1.600951,-6.358333 1.793449,-7 C 29.968977,9.736248 29.728981,9.3333333 29.044926,9.3333333 28.470216,9.3333333 28,9.0333333 28,8.6666667 28,8.2825667 30.081143,8 32.910095,8 c 3.957946,0 5.250722,0.267938 6.666666,1.38172 2.231872,1.75559 2.214605,2.929739 -0.07676,5.2198 -1.64445,1.643513 -1.809806,2.222053 -1.604967,5.615385 0.233347,3.865611 0.86642,4.686599 2.021838,2.621982 0.357385,-0.638612 0.869689,-0.941215 1.138454,-0.67245 0.268764,0.268764 0.878123,0.165438 1.354132,-0.229614 1.125798,-0.93433 2.461374,-0.09712 1.954063,1.224906 -0.314576,0.819776 -0.204233,0.869334 0.547151,0.24574 0.83738,-0.694964 2.422662,-5.517136 2.422662,-7.369349 0,-1.349985 -1.898194,-0.692184 -3.256609,1.128547 -1.254363,1.681266 -1.369569,1.717485 -1.388938,0.436658 -0.0384,-2.539238 1.929753,-3.544508 6.658694,-3.40105 3.821826,0.11594 4.320187,0.283814 4.320187,1.455262 0,0.731109 -0.522536,1.424834 -1.166667,1.548882 -0.761605,0.146672 -1.174028,-0.197354 -1.187869,-0.99087 -0.03996,-2.290764 -1.880638,1.008008 -2.365096,4.238598 -0.560325,3.73652 0.07991,4.366941 2.077702,2.045853 1.752488,-2.036087 2.308596,-2.264819 2.308596,-0.949543 0,1.166948 -2.818836,3.782876 -4.0763,3.782876 -0.544702,0 -1.337652,-0.347285 -1.762112,-0.771745 -0.58455,-0.58455 -1.013401,-0.57119 -1.768009,0.05508 -1.102038,0.914611 -3.726912,0.375878 -3.726912,-0.764917 0,-0.398787 -0.548622,-0.228571 -1.219161,0.378258 -1.437103,1.300561 -4.475962,1.457299 -5.234648,0.269992 z m -0.0023,-9.266469 c 2.888693,-1.520506 3.462371,-4.808364 0.956142,-5.480007 -3.091159,-0.8283987 -3.653698,-0.504978 -4.420857,2.541689 -0.410195,1.629034 -0.74581,3.129034 -0.74581,3.333334 0,0.652151 2.702777,0.398584 4.210494,-0.395016 z m 62.226167,8.880642 c -1.548907,-1.71152 -1.37208,-4.851524 0.423226,-7.515584 1.388774,-2.060799 1.840055,-2.273852 4.999995,-2.360494 3.90915,-0.107184 4.13976,0.335657 2.76076,5.301645 -0.75092,2.704162 -0.36287,5.176893 0.41224,2.626927 0.25078,-0.825 0.72097,-1.5 1.04487,-1.5 1.10929,0 0.58978,2.45923 -0.78171,3.700416 -1.0803,0.97765 -1.6225,1.083106 -2.55966,0.497841 -0.7297,-0.455708 -1.55228,-0.512604 -2.12937,-0.147283 -1.47927,0.936438 -2.972271,0.720394 -4.170351,-0.603468 z m 5.585201,-4.195387 c 0.82558,-3.066058 0.49959,-4.585453 -0.98385,-4.585453 -1.92977,0 -4.079889,6.735932 -2.617055,8.198767 0.933915,0.933916 2.910515,-1.049513 3.600875,-3.613314 z m 45.74813,4.195387 c -1.54891,-1.71152 -1.37208,-4.851524 0.42323,-7.515584 1.38877,-2.060799 1.84006,-2.273852 5,-2.360494 3.90914,-0.107184 4.13975,0.335657 2.76075,5.301645 -0.75091,2.704162 -0.36287,5.176893 0.41225,2.626927 0.25077,-0.825 0.72096,-1.5 1.04486,-1.5 1.1093,0 0.58978,2.45923 -0.78171,3.700416 -1.08029,0.97765 -1.62249,1.083106 -2.55965,0.497841 -0.7297,-0.455708 -1.55228,-0.512604 -2.12938,-0.147283 -1.47927,0.936438 -2.97227,0.720394 -4.17035,-0.603468 z m 5.58521,-4.195387 c 0.82557,-3.066058 0.49958,-4.585453 -0.98386,-4.585453 -1.92977,0 -4.07989,6.735932 -2.61705,8.198767 0.93392,0.933916 2.91052,-1.049513 3.60088,-3.613314 z"
         id="path2568" />
      <path
         style="fill:#aeaeae;stroke-width:0.666667"
         d="M 81.333335,62.333333 V 34 H 45.333334 C 21.777778,34 9.3333335,33.769547 9.3333335,33.333333 c 0,-0.436214 12.4444445,-0.666666 36.0000005,-0.666666 h 36.000001 v -14 c 0,-8.888889 0.243386,-14.0000003 0.666666,-14.0000003 0.42328,0 0.666667,5.1111113 0.666667,14.0000003 v 14 h 51.000002 c 33.55555,0 51,0.228032 51,0.666666 0,0.438635 -17.44445,0.666667 -51,0.666667 H 82.666668 v 28.333333 c 0,18.444447 -0.23268,28.333334 -0.666667,28.333334 -0.433986,0 -0.666666,-9.888887 -0.666666,-28.333334 z M 38.785881,83.5 c 3.284475,-3.43592 4.197489,-5.315113 3.178752,-6.542613 -1.059026,-1.276054 -3.564816,-1.28104 -3.075586,-0.006 0.200768,0.523186 -0.06359,1.30698 -0.587452,1.741746 -1.516978,1.25898 -2.054152,-1.12478 -0.612457,-2.71784 1.426008,-1.57572 3.487699,-1.677266 5.495859,-0.2707 2.145332,1.502654 1.825918,3.467054 -0.981941,6.038954 C 39.748253,83.991933 39.745671,84 41.480833,84 c 0.957765,0 1.875318,-0.375 2.039009,-0.833333 0.503577,-1.410014 1.29696,-0.02327 0.829437,1.44976 C 43.97327,85.801127 43.37012,86 40.153111,86 H 36.39607 Z M 25.333334,82 c -2.34954,-2.34954 -1.178408,-7.46064 2.10979,-9.20764 1.762357,-0.936327 6.039963,-0.676433 6.394953,0.388533 0.128724,0.386174 -0.20368,2.378367 -0.738676,4.427087 -0.534996,2.048727 -0.710018,3.887313 -0.388938,4.085753 0.32108,0.19844 0.7751,-0.401473 1.008932,-1.333133 0.233832,-0.931667 0.692627,-1.693933 1.019544,-1.693933 0.991932,0 0.667197,1.76238 -0.616941,3.348226 -1.031338,1.273647 -1.427589,1.3802 -2.666667,0.717067 C 30.427316,82.18178 29.621375,82.15572 28.710495,82.64321 26.990269,83.563847 26.87528,83.541947 25.333334,82 Z m 3.347991,-0.674513 c 1.203404,-0.64404 2.640394,-4.34762 2.648291,-6.825487 0.0043,-1.361167 -2.156581,-1.587773 -3.178674,-0.333333 C 26.698785,75.948933 25.881326,82 27.092711,82 c 0.180553,0 0.895429,-0.303533 1.588614,-0.674513 z M 98.000002,82 c 0,-0.366667 0.6,-0.666667 1.333333,-0.666667 1.234565,0 1.333335,-0.444446 1.333335,-6 0,-5.555553 -0.0988,-6 -1.333335,-6 -2.04542,0 -1.58564,-0.974246 0.880665,-1.866073 1.2177,-0.440327 2.4177,-0.800593 2.66667,-0.800593 0.24897,0 0.45267,3.3 0.45267,7.333333 0,6.888887 0.0808,7.333333 1.33333,7.333333 0.73333,0 1.33333,0.3 1.33333,0.666667 0,0.370373 -1.77778,0.666667 -4,0.666667 -2.222218,0 -3.999998,-0.296294 -3.999998,-0.666667 z m 49.333338,-4.333333 c 0,-0.755554 0.81481,-1 3.33333,-1 2.51852,0 3.33333,0.244446 3.33333,1 0,0.755553 -0.81481,1 -3.33333,1 -2.51852,0 -3.33333,-0.244447 -3.33333,-1 z M 38.500001,57.312559 c 1.323145,-0.53184 1.5,-1.077072 1.5,-4.62441 0,-3.719975 -0.112462,-4.023002 -1.5,-4.041755 -1.166745,-0.01577 -1.27783,-0.145965 -0.5,-0.586025 0.55,-0.311164 1.675,-0.772257 2.5,-1.024652 1.463231,-0.447652 1.5,-0.336049 1.5,4.552898 0,4.069832 0.219274,5.139514 1.166666,5.691319 0.891611,0.519315 0.302204,0.674338 -2.5,0.657536 -2.861334,-0.01715 -3.337212,-0.154409 -2.166666,-0.624911 z M 25.333334,53.333333 c -2.34954,-2.34954 -1.178408,-7.460642 2.10979,-9.20764 1.762357,-0.936327 6.039963,-0.676435 6.394953,0.388535 0.128724,0.386174 -0.20368,2.378363 -0.738676,4.427088 -0.534996,2.048725 -0.710018,3.887313 -0.388938,4.085751 0.32108,0.198438 0.7751,-0.401472 1.008932,-1.333135 C 33.953227,50.762269 34.412022,50 34.738939,50 c 0.991932,0 0.667197,1.762381 -0.616941,3.348225 -1.031338,1.273648 -1.427589,1.3802 -2.666667,0.717066 -1.028015,-0.550177 -1.833956,-0.576235 -2.744836,-0.08875 -1.720226,0.920637 -1.835215,0.898736 -3.377161,-0.643211 z m 3.347991,-0.674511 c 1.203404,-0.644043 2.640394,-4.347623 2.648291,-6.825489 0.0043,-1.361165 -2.156581,-1.587771 -3.178674,-0.333333 -1.452157,1.782265 -2.269616,7.833333 -1.058231,7.833333 0.180553,0 0.895429,-0.30353 1.588614,-0.674511 z m 70.515363,1.20388 C 95.762242,51.256 95.877295,40.516283 99.359628,38.652594 c 2.091552,-1.119361 4.343642,-0.721053 6.021532,1.064974 1.3819,1.470967 1.61394,2.37292 1.6162,6.282077 0.002,3.595911 -0.29428,4.964424 -1.3966,6.449099 -1.5714,2.11645 -4.59805,2.784706 -6.404072,1.413958 z m 4.819812,-2.239435 c 0.85874,-2.258648 0.83291,-9.369466 -0.0399,-11.000428 -0.77781,-1.453308 -2.64199,-1.690747 -3.84323,-0.489506 -0.992072,0.99207 -1.076145,10.105018 -0.10988,11.910494 0.99684,1.862616 3.21376,1.629124 3.99304,-0.42056 z m 46.51352,2.239435 c -3.43444,-2.606702 -3.31939,-13.346419 0.16294,-15.210108 2.09155,-1.119361 4.34364,-0.721053 6.02153,1.064974 1.3819,1.470967 1.61395,2.37292 1.61621,6.282077 0.002,3.595911 -0.29429,4.964424 -1.39661,6.449099 -1.5714,2.11645 -4.59805,2.784706 -6.40407,1.413958 z m 4.81982,-2.239435 c 0.85874,-2.258648 0.8329,-9.369466 -0.0399,-11.000428 -0.7778,-1.453308 -2.64199,-1.690747 -3.84323,-0.489506 -0.99207,0.99207 -1.07614,10.105018 -0.10988,11.910494 0.99685,1.862616 3.21376,1.629124 3.99305,-0.42056 z M 56.666668,28.333333 c -0.662124,-0.79781 -0.662124,-1.202189 0,-2 C 57.934759,24.805377 58.85891,25.140791 58.5035,27 c -0.175232,0.916667 -0.190482,1.666667 -0.03389,1.666667 0.918915,0 2.941927,-1.567111 3.592669,-2.783033 0.652819,-1.219805 0.60136,-1.358457 -0.36635,-0.987111 -1.338521,0.513638 -3.384765,-0.45739 -3.92376,-1.86199 -0.211584,-0.551378 0.04987,-2.434712 0.581018,-4.185186 1.327866,-4.376209 1.197573,-4.839765 -0.707183,-2.516014 -1.076762,1.313621 -1.640516,1.643342 -1.642691,0.960754 -0.0059,-1.864039 1.650027,-3.433139 3.367374,-3.190734 1.767925,0.249546 1.819101,0.62333 0.921415,6.72998 C 59.912348,23.416653 60.011744,24 60.831667,24 c 1.505275,0 2.272549,-1.258035 3.393921,-5.564725 1.133605,-4.353676 1.506467,-4.969885 2.441464,-4.034885 1.04392,1.043915 -2.241934,12.309757 -4.007246,13.73922 -1.795542,1.453944 -4.864907,1.553159 -5.993138,0.193723 z m 54.500002,-0.354108 c 1.32315,-0.531839 1.5,-1.077072 1.5,-4.624409 0,-3.719975 -0.11246,-4.023003 -1.5,-4.041755 -1.16675,-0.01577 -1.27783,-0.145966 -0.5,-0.586025 0.55,-0.311164 1.675,-0.772257 2.5,-1.024653 1.46323,-0.447651 1.5,-0.336048 1.5,4.552898 0,4.069832 0.21927,5.139515 1.16667,5.69132 0.89161,0.519315 0.3022,0.674338 -2.5,0.657536 -2.86134,-0.01715 -3.33722,-0.15441 -2.16667,-0.624912 z m 49.5,0.156074 c 0,-0.292253 1.21284,-1.715677 2.69521,-3.163164 3.1997,-3.124428 3.5044,-5.972135 0.639,-5.972135 -1.1376,0 -1.66606,0.367561 -1.66666,1.159215 -4.9e-4,0.637569 -0.30088,1.162569 -0.66755,1.166667 C 161.3,21.329949 161,20.665558 161,19.849388 c 0,-1.972958 2.92744,-3.066888 5.30648,-1.982929 2.43274,1.108432 2.25272,3.826456 -0.43726,6.601803 l -2.13077,2.198405 h 1.74189 c 0.95804,0 1.8932,-0.375 2.07814,-0.833334 0.18494,-0.458333 0.35994,-0.0083 0.38889,1 0.0512,1.784158 -0.0457,1.833334 -3.61403,1.833334 -2.01667,0 -3.66667,-0.239116 -3.66667,-0.531368 z M 35.731243,24.302671 c -0.765579,-0.765579 -0.925985,-1.79437 -0.62367,-4 l 0.406993,-2.969338 h -2.392613 c -2.196925,0 -2.449398,0.204472 -3.086898,2.5 -0.906238,3.263204 -0.886057,3.5 0.298279,3.5 0.55,0 1,0.3 1,0.666667 0,0.366667 -1.65,0.666667 -3.666667,0.666667 C 25.65,24.666667 24,24.366667 24,24 c 0,-0.366667 0.588437,-0.666667 1.307638,-0.666667 1.357307,0 1.314908,0.105608 3.651999,-9.09623 1.270464,-5.0022023 1.269654,-4.9037697 0.04036,-4.9037697 C 28.45,9.3333333 28,9.001568 28,8.5960767 28,8.098024 29.751595,7.938364 33.39864,8.1039853 c 4.700179,0.213446 5.562693,0.4477627 6.666667,1.8111127 1.670882,2.063453 1.6121,2.510059 -0.62479,4.74695 -1.730018,1.730018 -1.866266,2.212993 -1.584114,5.615385 0.299104,3.606796 1.115104,4.774522 1.902514,2.722567 0.41984,-1.094089 1.574417,-1.373455 1.574417,-0.380953 0,1.057981 -2.034059,2.714286 -3.333333,2.714286 -0.680953,0 -1.701894,-0.463798 -2.268758,-1.030662 z m 1.433238,-10.081535 c 1.161811,-1.588872 1.044102,-3.998444 -0.219005,-4.4831433 -2.773671,-1.0643574 -4.202218,-0.4547774 -4.910421,2.0953403 -1.139938,4.10472 -1.009278,4.391033 1.796092,3.935784 1.373797,-0.222936 2.873797,-0.919528 3.333334,-1.547981 z m 5.963208,10.605911 c -0.797265,-0.180634 -1.135988,-0.762142 -1,-1.71677 C 42.389313,21.273696 44.376473,21.16885 44.217792,23 c -0.109093,1.258911 -0.04723,1.249503 1.108386,-0.168549 1.302547,-1.598356 2.389701,-6.339802 1.706938,-7.444536 -0.592575,-0.958806 -2.248541,-0.141981 -2.719329,1.341339 C 44.091787,17.427714 43.630367,18 43.288409,18 c -1.04803,0 -0.691112,-1.730571 0.597419,-2.896675 1.407295,-1.273585 4.78084,-1.487622 4.78084,-0.303325 0,0.622222 0.177778,0.622222 0.8,0 1.141968,-1.141969 3.836016,-0.988925 4.309444,0.244811 0.220513,0.574647 0.0409,1.399647 -0.399136,1.833334 -0.617142,0.608234 -1.006348,0.509188 -1.702271,-0.433195 -0.867807,-1.175142 -0.92998,-1.169813 -1.630855,0.139784 C 48.956492,18.616481 48.340295,24 49.195099,24 c 0.840266,0 2.560377,-1.624524 2.987442,-2.821429 0.165873,-0.46488 0.516965,-0.645932 0.780204,-0.402335 0.684817,0.633716 -0.757943,3.067246 -2.311356,3.898607 -0.929166,0.497275 -1.711451,0.494862 -2.651388,-0.0082 -0.798311,-0.427243 -1.801478,-0.483428 -2.5,-0.14002 -0.641667,0.315456 -1.709207,0.450636 -2.372312,0.3004 z M 98.000002,24 c -2.34954,-2.34954 -1.178407,-7.460642 2.109798,-9.20764 1.76235,-0.936327 6.03996,-0.676435 6.39494,0.388535 0.12873,0.386174 -0.20368,2.378363 -0.73867,4.427088 -0.53499,2.048724 -0.71002,3.887312 -0.38894,4.08575 0.32108,0.198439 0.7751,-0.401472 1.00893,-1.333134 0.23384,-0.931663 0.69263,-1.693932 1.01955,-1.693932 0.99193,0 0.66719,1.762381 -0.61694,3.348224 -1.03134,1.273649 -1.42759,1.380201 -2.66667,0.717067 -1.02802,-0.550177 -1.83396,-0.576235 -2.74484,-0.08875 C 99.656935,25.563847 99.541948,25.541947 98.000002,24 Z M 101.348,23.325489 c 1.2034,-0.644043 2.64039,-4.347624 2.64828,-6.825489 0.005,-1.361165 -2.15658,-1.587771 -3.17867,-0.333333 C 99.365455,17.948932 98.547995,24 99.759382,24 99.939935,24 100.65481,23.69647 101.348,23.325489 Z M 149.33334,24 c -2.34954,-2.34954 -1.17841,-7.460642 2.10979,-9.20764 1.76235,-0.936327 6.03996,-0.676435 6.39495,0.388535 0.12872,0.386174 -0.20368,2.378363 -0.73868,4.427088 -0.53499,2.048724 -0.71002,3.887312 -0.38894,4.08575 0.32108,0.198439 0.7751,-0.401472 1.00894,-1.333134 0.23383,-0.931663 0.69262,-1.693932 1.01954,-1.693932 0.99194,0 0.6672,1.762381 -0.61694,3.348224 -1.03134,1.273649 -1.42759,1.380201 -2.66666,0.717067 -1.02802,-0.550177 -1.83396,-0.576235 -2.74484,-0.08875 -1.72023,0.920636 -1.83522,0.898736 -3.37716,-0.643211 z m 3.34799,-0.674511 c 1.2034,-0.644043 2.64039,-4.347624 2.64829,-6.825489 0.005,-1.361165 -2.15658,-1.587771 -3.17868,-0.333333 C 150.69879,17.948932 149.88133,24 151.09272,24 c 0.18055,0 0.89542,-0.30353 1.58861,-0.674511 z"
         id="path2566" />
      <path
         style="fill:#868686;stroke-width:0.666667"
         d="M 81.333335,62.333333 V 34 H 45.293989 C 21.437522,34 9.3939262,33.774637 9.6666668,33.333333 9.9330322,32.902345 22.67359,32.666667 45.706012,32.666667 h 35.627323 v -14 c 0,-8.888889 0.243386,-14.0000003 0.666666,-14.0000003 0.42328,0 0.666667,5.1111113 0.666667,14.0000003 v 14 h 51.000002 c 33.55555,0 51,0.228032 51,0.666666 0,0.438635 -17.44445,0.666667 -51,0.666667 H 82.666668 v 28.333333 c 0,18.444447 -0.23268,28.333334 -0.666667,28.333334 -0.433986,0 -0.666666,-9.888887 -0.666666,-28.333334 z M 39.575439,82.695227 c 3.173736,-3.39298 3.381615,-3.82944 2.686569,-5.6407 -0.615015,-1.602707 -3.595341,-1.371594 -3.595341,0.278806 0,0.74074 -0.444444,1.333334 -1,1.333334 -0.55,0 -1,-0.3 -1,-0.666667 0,-1.157473 2.611035,-3.333333 4,-3.333333 1.582332,0 4,2.23674 4,3.700653 0,0.568693 -1.125,2.06726 -2.5,3.330153 l -2.5,2.296154 1.777778,0.0033 c 0.977778,0.002 1.911706,-0.371813 2.075397,-0.830147 0.499738,-1.399266 1.119957,-0.20792 0.709295,1.362447 C 43.891103,85.82176 43.398542,86 40.164352,86 H 36.484211 Z M 24.629098,81.263133 c -1.10447,-2.06372 -0.216386,-5.43704 1.987194,-7.548206 1.701946,-1.630567 2.258814,-1.796907 4.658365,-1.391507 1.498939,0.253247 2.721783,0.659073 2.717431,0.901847 -0.0043,0.242766 -0.44539,2.08536 -0.980085,4.094646 -1.077675,4.049714 -0.284379,6.298167 1.042689,2.955314 0.423997,-1.06804 0.904602,-1.583527 1.068009,-1.14552 0.54365,1.457226 -1.110289,3.53696 -2.812823,3.53696 -0.903766,0 -1.643211,-0.36 -1.643211,-0.8 0,-0.62222 -0.177778,-0.62222 -0.8,0 -1.321579,1.32158 -4.396937,0.9672 -5.237569,-0.603534 z m 4.930832,-0.47852 c 1.41486,-1.563406 2.229039,-7.090993 1.143296,-7.76202 -1.181723,-0.730346 -3.288373,1.532187 -4.045843,4.34522 -1.110732,4.12494 0.522141,6.047114 2.902547,3.4168 z M 98.000002,82 c 0,-0.366667 0.6,-0.666667 1.333333,-0.666667 1.238835,0 1.333335,-0.444446 1.333335,-6.27092 0,-5.9427 -0.0698,-6.252673 -1.333335,-5.922246 -0.733333,0.191773 -1.333333,0.04867 -1.333333,-0.318027 0,-0.366687 0.675,-0.8131 1.5,-0.992027 0.824998,-0.178926 2.024998,-0.545993 2.666668,-0.815706 1.07052,-0.449978 1.16667,0.11984 1.16667,6.914266 0,6.960214 0.08,7.40466 1.33333,7.40466 0.73333,0 1.33333,0.3 1.33333,0.666667 0,0.370373 -1.77778,0.666667 -4,0.666667 -2.222218,0 -3.999998,-0.296294 -3.999998,-0.666667 z m 49.333338,-4.666667 c 0,-0.366666 1.5,-0.666666 3.33333,-0.666666 1.83333,0 3.33333,0.3 3.33333,0.666666 C 154,77.7 152.5,78 150.66667,78 c -1.83333,0 -3.33333,-0.3 -3.33333,-0.666667 z M 38.833334,57.540449 c 0.958461,-0.250472 1.166667,-1.069492 1.166667,-4.589332 0,-3.98978 -0.103166,-4.286518 -1.5,-4.31452 -1.318145,-0.02643 -1.257527,-0.136414 0.5,-0.907238 1.1,-0.482442 2.225,-0.751206 2.5,-0.597252 0.275,0.153954 0.5,2.490213 0.5,5.191688 0,4.117289 0.188709,4.961088 1.166666,5.216654 0.641667,0.167686 -0.333333,0.304882 -2.166666,0.304882 -1.833334,0 -2.808334,-0.137196 -2.166667,-0.304882 z M 98.705662,53.04151 c -2.689274,-2.862605 -2.690354,-11.056815 -0.002,-13.745361 1.658438,-1.658445 4.756438,-1.664172 6.252038,-0.01156 2.77885,3.070596 2.76732,11.052799 -0.02,13.840107 -1.99089,1.990888 -4.31086,1.959911 -6.230252,-0.08319 z m 5.270888,-0.997683 c 1.0966,-2.049019 0.85917,-10.172468 -0.34768,-11.89549 -1.23021,-1.75637 -1.84362,-1.838346 -3.24791,-0.434051 -1.308038,1.308032 -1.506085,11.560591 -0.24762,12.819047 1.20124,1.201242 3.06542,0.963802 3.84321,-0.489506 z M 150.039,53.04151 c -2.68928,-2.862605 -2.69036,-11.056815 -0.002,-13.745361 1.65844,-1.658445 4.75644,-1.664172 6.25203,-0.01156 2.77885,3.070596 2.76733,11.052799 -0.02,13.840107 -1.99089,1.990888 -4.31085,1.959911 -6.23025,-0.08319 z m 5.27088,-0.997683 c 1.0966,-2.049019 0.85917,-10.172468 -0.34768,-11.89549 -1.23021,-1.75637 -1.84362,-1.838346 -3.24791,-0.434051 -1.30803,1.308032 -1.50608,11.560591 -0.24762,12.819047 1.20124,1.201242 3.06543,0.963802 3.84321,-0.489506 z M 24.629098,52.596469 c -1.10447,-2.063722 -0.216386,-5.437042 1.987194,-7.548207 1.701946,-1.630567 2.258814,-1.79691 4.658365,-1.391509 1.498939,0.253244 2.721783,0.659075 2.717431,0.901846 -0.0043,0.24277 -0.44539,2.085363 -0.980085,4.09465 -1.077675,4.049712 -0.284379,6.298165 1.042689,2.95531 0.423997,-1.06804 0.904602,-1.583524 1.068009,-1.145518 C 35.666351,51.920269 34.012412,54 32.309878,54 c -0.903766,0 -1.643211,-0.36 -1.643211,-0.8 0,-0.622222 -0.177778,-0.622222 -0.8,0 -1.321579,1.321579 -4.396937,0.967203 -5.237569,-0.603531 z m 4.930832,-0.478526 c 1.41486,-1.563402 2.229039,-7.090989 1.143296,-7.762015 -1.181723,-0.730345 -3.288373,1.532187 -4.045843,4.345217 -1.110732,4.124944 0.522141,6.047118 2.902547,3.416798 z m 27.347822,-23.78461 c -0.529234,-1.37916 0.255709,-3.183676 1.145619,-2.633682 0.4012,0.247955 0.581405,1.01697 0.400455,1.708922 -0.493949,1.888864 1.220198,1.54845 2.896608,-0.57524 L 62.797641,25 60.565488,24.666667 c -2.169067,-0.323913 -2.229546,-0.418122 -2.139874,-3.333334 0.05075,-1.65 0.294908,-3.9 0.542564,-5 l 0.450284,-2 -1.705919,2 c -1.172681,1.374838 -1.706954,1.66762 -1.709231,0.936659 -0.0047,-1.494985 2.32753,-3.434217 3.78042,-3.143452 1.296174,0.259403 1.350598,0.977403 0.50837,6.706793 C 59.91235,23.416653 60.011747,24 60.83167,24 c 1.505274,0 2.272548,-1.258035 3.39392,-5.564725 1.127556,-4.33044 1.507962,-4.968762 2.418057,-4.057497 0.990054,0.991325 -1.883333,11.326478 -3.691392,13.277407 -1.771403,1.911375 -5.414429,2.320096 -6.044503,0.678148 z M 111.5,28.207116 c 0.95846,-0.250472 1.16667,-1.069493 1.16667,-4.589332 0,-3.98978 -0.10317,-4.286519 -1.5,-4.31452 -1.31815,-0.02643 -1.25753,-0.136414 0.5,-0.907238 1.1,-0.482443 2.225,-0.751206 2.5,-0.597253 0.275,0.153954 0.5,2.490214 0.5,5.191689 0,4.117289 0.18871,4.961087 1.16667,5.216654 0.64166,0.167685 -0.33334,0.304882 -2.16667,0.304882 -1.83333,0 -2.80833,-0.137197 -2.16667,-0.304882 z m 49.16667,-0.07182 c 0,-0.292253 1.21284,-1.715677 2.69521,-3.163164 3.3019,-3.22422 3.47532,-5.838149 0.41062,-6.188954 -1.65159,-0.189051 -1.83794,-0.03963 -1.45508,1.166666 0.31692,0.998523 0.14834,1.383486 -0.60582,1.383486 -1.34504,0 -1.34358,-1.606116 0.003,-2.95238 2.21642,-2.216728 6.2854,-0.424153 6.2854,2.769149 0,0.758144 -1.06044,2.309522 -2.35653,3.447506 l -2.35653,2.069062 h 1.96764 c 1.08221,0 2.11896,-0.375 2.3039,-0.833334 0.18494,-0.458333 0.35994,-0.0083 0.38889,1 0.0512,1.784158 -0.0457,1.833334 -3.61403,1.833334 -2.01667,0 -3.66667,-0.239116 -3.66667,-0.531368 z M 36.133334,24.533333 c -0.44,-0.44 -0.8,-2.207903 -0.8,-3.928674 0,-3.206624 -0.614498,-3.937992 -3.308715,-3.937992 -0.869676,0 -1.412492,0.845214 -1.973394,3.072756 -0.68556,2.722608 -0.637602,3.176003 0.420856,3.978798 1.051158,0.797257 0.729612,0.908587 -2.678092,0.927244 C 25.377126,24.658696 24.076198,24.416054 24.333334,24 c 0.226612,-0.366667 0.832754,-0.666667 1.346982,-0.666667 0.520042,0 1.224304,-1.109452 1.586958,-2.5 1.636804,-6.276102 2.732727,-10.726094 2.732727,-11.0962297 0,-0.2220733 -0.45,-0.40377 -1,-0.40377 C 28.45,9.3333333 28,8.994788 28,8.58101 28,7.535918 38.268591,8.1730333 39.629599,9.3025687 c 0.570387,0.47338 1.037068,1.7379103 1.037068,2.8100683 0,1.467713 -0.49313,2.229982 -1.995784,3.085036 -2.107272,1.1991 -2.429592,1.794074 -1.337549,2.468994 0.366667,0.226612 0.666667,1.744317 0.666667,3.372678 0,3.246446 0.293907,3.504648 2.114172,1.85733 1.485693,-1.344533 1.641718,-0.08114 0.171542,1.389039 -1.24768,1.24768 -3.045132,1.354868 -4.152381,0.247619 z m 0.384996,-9.571136 c 1.759914,-1.232692 2.035799,-4.606906 0.427146,-5.2242043 -2.773671,-1.0643574 -4.202218,-0.4547774 -4.910421,2.0953403 -0.381857,1.375 -0.695958,2.875 -0.698003,3.333334 -0.0053,1.175562 3.403034,1.04106 5.181278,-0.20447 z m 5.481671,8.312313 C 42.000001,22.422872 42.466055,22 43.40466,22 c 1.007633,0 1.290154,0.298395 0.999547,1.055707 -0.256564,0.668593 -0.09938,0.956446 0.428674,0.785012 1.265018,-0.410696 2.963899,-7.64394 2.0176,-8.590239 -0.562565,-0.562565 -1.192628,-0.283325 -2.469536,1.09448 -1.884461,2.033367 -2.317922,1.480204 -0.676475,-0.863289 1.077347,-1.538129 3.889371,-2.01153 4.648872,-0.782632 0.297431,0.481255 0.713654,0.465311 1.335983,-0.05117 1.426892,-1.184218 3.977343,-0.530915 3.977343,1.018802 0,0.74074 -0.444445,1.333333 -1,1.333333 -0.55,0 -0.962288,-0.501276 -0.916194,-1.113947 0.05154,-0.68509 -0.266496,-0.979524 -0.826096,-0.764785 -1.097578,0.421181 -2.576663,5.513761 -2.336699,8.045399 0.134908,1.423283 1.870825,0.916994 3.055584,-0.891176 0.621468,-0.94848 1.296609,-1.557843 1.500312,-1.354139 0.203704,0.203703 -0.109839,1.103262 -0.696761,1.999019 -0.964239,1.471615 -1.519325,1.628648 -5.756973,1.628648 -4.173244,0 -4.68984,-0.14039 -4.68984,-1.274509 z m 55.295767,-0.01137 c -1.104473,-2.063722 -0.216386,-5.437042 1.987194,-7.548207 1.701948,-1.630567 2.258818,-1.79691 4.658368,-1.391509 1.49893,0.253244 2.72178,0.659075 2.71743,0.901846 -0.005,0.24277 -0.44539,2.085363 -0.98009,4.09465 -1.07767,4.049712 -0.28438,6.298165 1.04269,2.95531 0.424,-1.06804 0.9046,-1.583524 1.06801,-1.145518 0.54365,1.457226 -1.11029,3.536958 -2.81282,3.536958 -0.90377,0 -1.64321,-0.36 -1.64321,-0.8 0,-0.622222 -0.17778,-0.622222 -0.8,0 -1.32158,1.321579 -4.396945,0.967202 -5.237572,-0.603532 z m 4.930832,-0.478526 c 1.41486,-1.563402 2.22904,-7.090989 1.1433,-7.762015 -1.18173,-0.730345 -3.28838,1.532187 -4.045852,4.345217 -1.110726,4.124944 0.522147,6.047118 2.902552,3.416798 z m 46.4025,0.478526 c -1.10447,-2.063722 -0.21638,-5.437042 1.9872,-7.548207 1.70194,-1.630567 2.25881,-1.79691 4.65836,-1.391509 1.49894,0.253244 2.72178,0.659075 2.71743,0.901846 -0.005,0.24277 -0.44539,2.085363 -0.98009,4.09465 -1.07767,4.049712 -0.28438,6.298165 1.0427,2.95531 0.42399,-1.06804 0.9046,-1.583524 1.068,-1.145518 0.54366,1.457226 -1.11028,3.536958 -2.81282,3.536958 -0.90376,0 -1.64321,-0.36 -1.64321,-0.8 0,-0.622222 -0.17778,-0.622222 -0.8,0 -1.32158,1.321579 -4.39694,0.967202 -5.23757,-0.603532 z m 4.93083,-0.478526 c 1.41486,-1.563402 2.22904,-7.090989 1.1433,-7.762015 -1.18173,-0.730345 -3.28837,1.532187 -4.04585,4.345217 -1.11072,4.124944 0.52215,6.047118 2.90255,3.416798 z"
         id="path2564" />
      <path
         style="fill:#6e6e6e;stroke-width:0.666667"
         d="M 81.333335,62.339075 V 34.011483 L 45.166667,33.833213 9.0000002,33.654942 45.166667,33.494137 81.333335,33.333333 V 19 c 0,-9.1111113 0.242893,-14.3333333 0.666666,-14.3333333 0.423767,0 0.666667,5.2208426 0.666667,14.3291943 V 33.325056 L 133.83334,33.500061 185,33.675067 133.83334,33.837533 82.666668,34 v 28.333333 c 0,18.444447 -0.23268,28.333334 -0.666667,28.333334 -0.433986,0 -0.666666,-9.886974 -0.666666,-28.327592 z M 39.575439,82.695227 c 3.263779,-3.48924 3.863272,-5.56846 1.907346,-6.61524 -1.515352,-0.810994 -3.563852,0.266373 -3.050436,1.604313 0.41469,1.080667 -0.782125,1.36778 -1.41732,0.340013 -0.570901,-0.923733 2.07612,-3.357646 3.651638,-3.357646 1.397511,0 4,2.178433 4,3.348226 0,0.37486 -1.238208,2.02486 -2.751573,3.666667 l -2.751573,2.985107 h 2.029351 c 1.116143,0 2.180667,-0.375 2.365608,-0.833334 C 43.743422,83.375 43.918422,83.675 43.947369,84.5 43.995943,85.884373 43.710332,86 40.242106,86 H 36.484211 Z M 24.567764,81.04916 c -0.97379,-2.137233 -0.292668,-4.58988 1.981487,-7.1351 1.701429,-1.904233 2.085692,-2.03662 4.652675,-1.602927 1.538941,0.26 2.794514,0.67136 2.790162,0.914134 -0.0043,0.242766 -0.450791,2.0914 -0.992087,4.108066 C 31.822833,81.71902 31.803757,82 32.683168,82 c 0.375742,0 0.984135,-0.791607 1.351985,-1.759127 0.36785,-0.96752 0.818819,-1.609126 1.002152,-1.425793 0.183334,0.183333 0.03237,1.12494 -0.335485,2.09246 -0.694517,1.82672 -2.536355,2.324593 -3.826574,1.034373 -0.521895,-0.5219 -0.850129,-0.5219 -1.172678,0 -0.246358,0.398614 -1.33665,0.724754 -2.422872,0.724754 -1.443657,0 -2.173207,-0.435134 -2.711932,-1.617507 z m 4.992166,-0.264547 c 1.41486,-1.563406 2.229039,-7.090993 1.143296,-7.76202 -1.203836,-0.744013 -3.293664,1.55184 -4.083882,4.486487 -1.130169,4.197127 0.481689,5.99258 2.940586,3.275533 z m 68.440072,1.53222 c 0,-0.192406 0.75,-0.634986 1.666666,-0.9835 1.608212,-0.61144 1.666672,-0.84514 1.666672,-6.662866 v -6.0292 l -1.666672,0.418306 c -0.93868,0.235594 -1.666666,0.129487 -1.666666,-0.242913 0,-0.363673 0.675,-0.80762 1.5,-0.986547 0.824998,-0.178926 2.024998,-0.545993 2.666668,-0.815706 1.07052,-0.449978 1.16667,0.11984 1.16667,6.914266 0,6.002694 0.18188,7.40466 0.96065,7.40466 0.52836,0 1.14607,0.3 1.37268,0.666667 0.25737,0.416427 -1.10419,0.666667 -3.62732,0.666667 -2.221642,0 -4.039348,-0.157427 -4.039348,-0.349834 z m 49.333338,-4.9835 c 0,-0.366666 1.5,-0.666666 3.33333,-0.666666 1.83333,0 3.33333,0.3 3.33333,0.666666 C 154,77.7 152.5,78 150.66667,78 c -1.83333,0 -3.33333,-0.3 -3.33333,-0.666667 z M 38.833334,57.540449 c 1.696391,-0.443313 1.73224,-8.667097 0.0392,-8.993146 -0.853132,-0.164299 -0.69092,-0.416033 0.666667,-1.034591 l 1.794133,-0.81746 v 5.00719 c 0,4.569553 0.131103,5.059887 1.5,5.610117 1.182077,0.475136 0.793505,0.595492 -1.833333,0.567849 -1.833334,-0.01929 -2.808334,-0.172273 -2.166667,-0.339959 z m 60.699354,-3.87585 c -2.01406,-1.410702 -3.104706,-5.217407 -2.633853,-9.192996 0.695747,-5.874498 4.706995,-8.259716 8.131465,-4.83524 1.44996,1.449949 1.63637,2.21287 1.63637,6.69697 0,4.4841 -0.18641,5.247022 -1.63637,6.69697 -1.87894,1.878945 -3.46016,2.061381 -5.497612,0.634296 z m 4.485832,-1.699204 c 1.12508,-2.102216 0.80144,-10.69103 -0.45518,-12.079568 -1.34851,-1.490095 -1.83748,-1.516452 -3.18238,-0.171541 -1.497885,1.497881 -1.486512,11.36243 0.015,13.021594 1.20326,1.32959 2.66501,1.018688 3.62254,-0.770485 z m 46.8475,1.699204 c -2.01406,-1.410702 -3.1047,-5.217407 -2.63385,-9.192996 0.69575,-5.874498 4.70699,-8.259716 8.13147,-4.83524 1.44995,1.449949 1.63636,2.21287 1.63636,6.69697 0,4.4841 -0.18641,5.247022 -1.63636,6.69697 -1.87894,1.878945 -3.46016,2.061381 -5.49762,0.634296 z m 4.48584,-1.699204 c 1.12507,-2.102216 0.80143,-10.69103 -0.45518,-12.079568 -1.34852,-1.490095 -1.83748,-1.516452 -3.18239,-0.171541 -1.49788,1.497881 -1.48651,11.36243 0.015,13.021594 1.20326,1.32959 2.66501,1.018688 3.62255,-0.770485 z m -130.784096,0.4171 c -0.97379,-2.137238 -0.292668,-4.589883 1.981487,-7.135104 1.701429,-1.90423 2.085692,-2.036614 4.652675,-1.602926 1.538941,0.260003 2.794514,0.671363 2.790162,0.914134 -0.0044,0.24277 -0.450791,2.091401 -0.992087,4.108068 -1.177168,4.385684 -1.196244,4.666666 -0.316833,4.666666 0.375742,0 0.984135,-0.791606 1.351985,-1.759125 0.36785,-0.967519 0.818819,-1.609126 1.002152,-1.425793 0.183334,0.183334 0.03237,1.12494 -0.335485,2.09246 -0.694517,1.826717 -2.536355,2.324589 -3.826574,1.03437 -0.521895,-0.521895 -0.850129,-0.521895 -1.172678,0 C 29.45621,53.67386 28.365918,54 27.279696,54 25.836039,54 25.106489,53.564867 24.567764,52.382495 Z m 4.992166,-0.264552 c 1.41486,-1.563402 2.229039,-7.090989 1.143296,-7.762015 -1.203836,-0.744012 -3.293664,1.551837 -4.083882,4.486485 -1.130169,4.197125 0.481689,5.99258 2.940586,3.27553 z M 57.111112,28.888889 C 56.23928,28.017057 56.681465,26 57.744422,26 c 0.749534,0 0.971569,0.406054 0.72908,1.333333 -0.471904,1.804564 1.100524,1.734812 2.833862,-0.125707 1.851284,-1.98712 1.719634,-2.421739 -0.807363,-2.665387 -2.060133,-0.198634 -2.163762,-0.340024 -2.107586,-2.875572 0.03249,-1.466667 0.278536,-3.716667 0.54676,-5 l 0.48768,-2.333334 -1.710115,2 c -1.176519,1.375952 -1.71115,1.668212 -1.713428,0.936659 C 55.99918,15.943074 58.081458,14 59.50757,14 c 1.612373,0 1.96056,2.116981 0.860839,5.23392 C 59.316492,22.215373 59.57394,24 61.055958,24 c 1.200537,0 2.694774,-2.421673 3.29081,-5.333333 0.615528,-3.006874 1.565501,-4.799578 2.30211,-4.344328 0.97559,0.602946 -2.302428,11.556282 -3.998881,13.362073 -1.463,1.557292 -4.521067,2.222294 -5.538885,1.204477 z M 111.5,28.207116 c 1.6964,-0.443313 1.73224,-8.667097 0.0392,-8.993147 -0.85312,-0.164298 -0.69092,-0.416032 0.66667,-1.03459 L 114,17.361919 v 5.00719 c 0,4.569552 0.1311,5.059887 1.5,5.610116 1.18208,0.475137 0.79351,0.595492 -1.83333,0.56785 -1.83333,-0.01929 -2.80833,-0.172274 -2.16667,-0.339959 z m 49.16667,-0.03698 c 0,-0.311414 1.21284,-1.750516 2.69521,-3.198003 3.3019,-3.22422 3.47532,-5.838149 0.41062,-6.188954 -1.65159,-0.189051 -1.83794,-0.03963 -1.45508,1.166666 0.32262,1.016474 0.14894,1.383486 -0.65471,1.383486 -1.65084,0 -0.93582,-2.128911 1.09852,-3.270759 1.56996,-0.881193 1.93277,-0.864677 3.49529,0.15912 2.37984,1.559335 2.19076,3.532369 -0.58985,6.15482 -1.28333,1.210339 -2.33333,2.370762 -2.33333,2.578718 0,0.922253 3.33879,0.261535 3.98484,-0.788565 0.62101,-1.009408 0.69287,-0.942012 0.53312,0.5 -0.16756,1.512578 -0.50822,1.685296 -3.68463,1.868173 -1.925,0.110828 -3.5,-0.05329 -3.5,-0.364702 z M 36.471814,24.597493 c -0.912177,-0.530803 -1.158116,-1.404998 -1.039568,-3.695164 0.166353,-3.21367 -0.594039,-4.207102 -3.234243,-4.225454 -1.132658,-0.0079 -1.627504,0.56175 -2.162948,2.489792 -0.91939,3.310563 -0.896187,3.538722 0.464946,4.571969 1.013707,0.769513 0.664086,0.888406 -2.666667,0.906829 -4.099319,0.02267 -4.749786,-0.330032 -2.315505,-1.255544 1.253728,-0.476666 1.777593,-1.662789 3.010733,-6.816832 1.765067,-7.3772897 1.756859,-7.2397557 0.432094,-7.2397557 -0.57164,0 -0.853935,-0.3 -0.627322,-0.6666666 0.560509,-0.9069234 6.794459,-0.7751754 9.666667,0.2042946 1.930388,0.6582947 2.36888,1.1627817 2.539178,2.9213327 0.166866,1.723119 -0.148734,2.347671 -1.666667,3.298227 -1.029881,0.64493 -1.990261,1.256148 -2.134179,1.358262 -0.143916,0.102114 0.105362,0.627904 0.553952,1.168423 0.448591,0.540519 0.72525,2.031677 0.614798,3.313686 -0.255125,2.961233 0.394648,3.606021 2.08883,2.072807 0.735582,-0.665692 1.337421,-0.910349 1.337421,-0.543682 0,0.81742 -2.207762,2.880926 -3.052494,2.853044 -0.337795,-0.01115 -1.151857,-0.333155 -1.809026,-0.715568 z m -0.390381,-9.307741 c 1.721057,-0.921082 2.602426,-3.289829 1.796188,-4.827396 -0.468179,-0.8928593 -1.25647,-1.1514733 -3.048137,-1 -2.276757,0.192484 -2.463185,0.3876133 -3.220657,3.370977 L 30.804814,16 h 1.974755 c 1.086114,0 2.571953,-0.319611 3.301864,-0.710248 z m 6.288343,8.857801 C 41.620237,23.398014 42.030501,22 43.000001,22 c 0.55,0 1,0.475 1,1.055555 0,1.79981 1.625146,0.630109 2.462372,-1.772294 0.998399,-2.864888 1.096188,-6.616594 0.172462,-6.616594 -0.384175,0 -1.434175,0.793806 -2.333334,1.764015 -0.899158,0.970208 -1.634834,1.420208 -1.634834,1 0,-2.228879 4.62449,-4.450293 5.686675,-2.731643 0.297431,0.481255 0.713654,0.465311 1.335983,-0.05117 1.426892,-1.184218 3.977343,-0.530915 3.977343,1.018802 0,0.74074 -0.444445,1.333333 -1,1.333333 -0.55,0 -0.958334,-0.525 -0.907408,-1.166667 0.05093,-0.641666 -0.189382,-1.166666 -0.534018,-1.166666 -0.741012,0 -2.208347,3.431945 -2.789936,6.525371 -0.585951,3.116632 1.235492,3.710294 3.334649,1.086861 1.709449,-2.136394 2.167042,-1.437423 0.560526,0.8562 -0.853088,1.217954 -1.644123,1.428075 -5.296892,1.407002 -2.361721,-0.01363 -4.460436,-0.191172 -4.663813,-0.394548 z m 54.864659,-1.098392 c -0.973793,-2.137237 -0.292673,-4.589882 1.981487,-7.135103 1.701428,-1.90423 2.085688,-2.036615 4.652678,-1.602926 1.53894,0.260003 2.79451,0.671363 2.79016,0.914133 -0.004,0.242771 -0.4508,2.091402 -0.99209,4.108068 C 104.4895,23.719017 104.47042,24 105.34984,24 c 0.37574,0 0.98413,-0.791607 1.35198,-1.759125 0.36785,-0.96752 0.81882,-1.609126 1.00216,-1.425793 0.18333,0.183333 0.0323,1.12494 -0.33549,2.092459 -0.69452,1.826718 -2.53635,2.32459 -3.82657,1.034371 -0.5219,-0.521895 -0.85014,-0.521895 -1.17268,0 -0.24636,0.398615 -1.33665,0.724755 -2.422878,0.724755 -1.443654,0 -2.173207,-0.435134 -2.711927,-1.617506 z M 102.2266,22.78461 c 1.41486,-1.563403 2.22904,-7.090989 1.1433,-7.762015 -1.20384,-0.744012 -3.29367,1.551837 -4.083892,4.486484 -1.130166,4.197126 0.481694,5.992581 2.940592,3.275531 z m 46.34117,0.264551 c -0.97379,-2.137237 -0.29267,-4.589882 1.98149,-7.135103 1.70142,-1.90423 2.08568,-2.036615 4.65267,-1.602926 1.53894,0.260003 2.79451,0.671363 2.79016,0.914133 -0.004,0.242771 -0.45079,2.091402 -0.99209,4.108068 C 155.82284,23.719017 155.80376,24 156.68317,24 c 0.37574,0 0.98413,-0.791607 1.35199,-1.759125 0.36784,-0.96752 0.81882,-1.609126 1.00215,-1.425793 0.18333,0.183333 0.0323,1.12494 -0.33549,2.092459 -0.69452,1.826718 -2.53635,2.32459 -3.82657,1.034371 -0.5219,-0.521895 -0.85013,-0.521895 -1.17268,0 -0.24636,0.398615 -1.33665,0.724755 -2.42287,0.724755 -1.44366,0 -2.17321,-0.435134 -2.71193,-1.617506 z m 4.99216,-0.264551 c 1.41486,-1.563403 2.22904,-7.090989 1.1433,-7.762015 -1.20384,-0.744012 -3.29367,1.551837 -4.08389,4.486484 -1.13016,4.197126 0.4817,5.992581 2.94059,3.275531 z"
         id="path2562" />
      <path
         style="fill:#545454;stroke-width:0.666667"
         d="m 81.334208,76.5 c 0.02613,-7.791667 0.0366,-20.539061 0.02333,-28.327542 L 81.333335,34.011583 45.500001,33.833211 9.6666668,33.654838 45.500001,33.494085 81.333335,33.333333 V 19 c 0,-9.1111113 0.242893,-14.3333333 0.666666,-14.3333333 0.423767,0 0.666667,5.2208426 0.666667,14.3291943 V 33.325056 L 133.83334,33.500061 185,33.675067 133.83334,33.837533 82.666668,34 v 28.333333 c 0,19.08286 -0.225273,28.333334 -0.689987,28.333334 -0.45538,0 -0.673833,-4.81686 -0.642473,-14.166667 z m -44.000874,9.074553 c 0,-0.233993 1.2,-1.727293 2.666667,-3.31844 2.873415,-3.117286 3.36584,-5.168346 1.482784,-6.176126 -1.515352,-0.810994 -3.563852,0.266373 -3.050436,1.604313 0.207334,0.5403 0.04487,0.982367 -0.361022,0.982367 -0.405896,0 -0.737993,-0.607427 -0.737993,-1.349834 0,-3.021613 6.07222,-2.995333 6.863285,0.02973 0.280609,1.073053 -0.322968,2.210246 -2.32711,4.38448 l -2.705988,2.93562 h 2.029351 c 1.116143,0 2.180667,-0.375 2.365608,-0.833334 C 43.743422,83.375 43.918422,83.675 43.947369,84.5 43.995179,85.862573 43.694607,86 40.666667,86 38.833334,86 37.333334,85.808547 37.333334,85.574553 Z M 25.589854,82.15646 c -2.342515,-1.543213 -1.146724,-7.10562 1.966,-9.14516 1.18529,-0.776627 2.357636,-0.96288 4.055684,-0.644327 2.746436,0.51524 2.679361,0.2932 1.381247,4.572314 -0.546032,1.79994 -0.992784,3.67494 -0.992784,4.166666 0,1.54198 1.335884,0.974134 2.035152,-0.86508 0.36785,-0.96752 0.818819,-1.609126 1.002152,-1.425793 0.183334,0.183333 0.03237,1.12494 -0.335485,2.09246 -0.694517,1.82672 -2.536355,2.324593 -3.826574,1.034373 -0.521895,-0.5219 -0.850129,-0.5219 -1.172678,0 -0.507973,0.821914 -2.993904,0.9516 -4.112714,0.214547 z m 3.907229,-1.323127 c 0.570386,-0.641666 1.361842,-2.360993 1.758791,-3.820726 0.582589,-2.1424 0.535103,-2.84068 -0.246322,-3.6221 -0.846285,-0.846287 -1.13909,-0.81326 -2.327889,0.262586 -1.581511,1.431247 -3.044851,5.7722 -2.459783,7.29686 0.531458,1.38496 1.986484,1.333147 3.275203,-0.11662 z m 70.002919,1.05848 c 1.824818,-0.66648 1.833338,-0.69908 1.833338,-7.01964 V 68.52212 l -1.666672,0.418307 c -0.916666,0.230073 -1.666666,0.186 -1.666666,-0.09793 0,-0.632646 4.514168,-2.1061 4.991138,-1.629133 0.18821,0.188207 0.3422,3.45186 0.3422,7.252567 0,6.54322 0.0797,6.942406 1.5,7.5133 1.12059,0.45042 0.40394,0.6003 -2.83334,0.592553 -3.680805,-0.0088 -4.057258,-0.111207 -2.499998,-0.679967 z m 47.833338,-4.55848 c 0,-0.366666 1.5,-0.666666 3.33333,-0.666666 1.83333,0 3.33333,0.3 3.33333,0.666666 C 154,77.7 152.5,78 150.66667,78 c -1.83333,0 -3.33333,-0.3 -3.33333,-0.666667 z M 38.833334,57.540449 c 0.968835,-0.253182 1.166667,-1.084369 1.166667,-4.901742 0,-4.070073 -0.133697,-4.555782 -1.166667,-4.238404 -0.641667,0.197151 -0.416667,-0.0896 0.5,-0.637217 l 1.666667,-0.995674 0.333333,5.052095 c 0.281119,4.260722 0.54219,5.133134 1.666667,5.569438 0.902575,0.350204 0.256438,0.507495 -2,0.486864 -1.833334,-0.01676 -2.808334,-0.167674 -2.166667,-0.33536 z m 60.253614,-4.392894 c -1.024686,-1.024689 -1.81802,-2.78853 -2.10002,-4.66903 -1.147733,-7.653632 3.252452,-12.864245 7.772552,-9.204094 1.43201,1.159572 1.57386,1.78831 1.57386,6.976191 0,6.193028 -0.51845,7.298569 -3.79979,8.102693 -1.39126,0.340942 -2.17359,0.06725 -3.446602,-1.20576 z m 4.541922,-0.629226 c 1.46033,-2.084914 1.45323,-11.340992 -0.01,-12.804043 -2.19954,-2.199539 -3.874522,-0.960779 -4.592868,3.396722 C 98.192068,48.170785 99.789302,54 102.00982,54 c 0.31968,0 1.04826,-0.666752 1.61905,-1.481671 z m 46.79141,0.629226 c -1.02468,-1.024689 -1.81802,-2.78853 -2.10002,-4.66903 -1.14773,-7.653632 3.25246,-12.864245 7.77256,-9.204094 1.432,1.159572 1.57385,1.78831 1.57385,6.976191 0,6.193028 -0.51845,7.298569 -3.79979,8.102693 -1.39126,0.340942 -2.17358,0.06725 -3.4466,-1.20576 z m 4.54192,-0.629226 c 1.46033,-2.084914 1.45324,-11.340992 -0.01,-12.804043 -2.19954,-2.199539 -3.87452,-0.960779 -4.59286,3.396722 C 149.5254,48.170785 151.12264,54 153.34315,54 c 0.31969,0 1.04826,-0.666752 1.61905,-1.481671 z M 25.589854,53.489791 c -2.342515,-1.543209 -1.146724,-7.10562 1.966,-9.145154 1.18529,-0.776632 2.357636,-0.962883 4.055684,-0.644328 2.746436,0.515235 2.679361,0.293198 1.381247,4.572312 -0.546032,1.799941 -0.992784,3.674941 -0.992784,4.166666 0,1.541977 1.335884,0.974134 2.035152,-0.865079 0.36785,-0.967519 0.818819,-1.609126 1.002152,-1.425793 0.183334,0.183334 0.03237,1.12494 -0.335485,2.09246 -0.694517,1.826717 -2.536355,2.324589 -3.826574,1.03437 -0.521895,-0.521895 -0.850129,-0.521895 -1.172678,0 -0.507973,0.821916 -2.993904,0.951599 -4.112714,0.214546 z m 3.907229,-1.323124 c 0.570386,-0.641667 1.361842,-2.360993 1.758791,-3.820725 0.582589,-2.142404 0.535103,-2.84068 -0.246322,-3.622105 -0.846285,-0.846286 -1.13909,-0.813256 -2.327889,0.262592 -1.581511,1.431247 -3.044851,5.772195 -2.459783,7.296858 0.531458,1.384957 1.986484,1.333148 3.275203,-0.11662 z M 57.111112,28.888889 C 56.254492,28.032269 56.676916,26 57.711593,26 c 0.741541,0 0.922058,0.387119 0.621741,1.333333 -0.300316,0.946214 -0.1198,1.333334 0.621742,1.333334 1.136655,0 3.711592,-2.283215 3.711592,-3.291095 0,-0.343435 -0.975,-0.718435 -2.166667,-0.833333 -2.060133,-0.198634 -2.163762,-0.340024 -2.107586,-2.875572 0.03249,-1.466667 0.280635,-3.716667 0.551425,-5 l 0.492344,-2.333334 -1.718092,1.87051 c -1.892076,2.059928 -2.314703,1.611281 -0.680288,-0.722172 1.169583,-1.669815 2.45482,-1.896308 3.514588,-0.619364 0.515862,0.621576 0.42633,1.849273 -0.320708,4.397662 -0.770948,2.629952 -0.843254,3.72846 -0.282338,4.289376 1.232652,1.232652 2.954155,-0.349042 3.929652,-3.610513 0.483448,-1.616357 1.209403,-3.688832 1.613233,-4.605499 1.313384,-2.981292 1.404237,0.315016 0.149773,5.433974 -1.348077,5.500951 -3.586878,8.566026 -6.256821,8.566026 -1.006295,0 -2.029627,-0.2 -2.274071,-0.444444 z M 111.5,28.207116 c 0.96884,-0.253183 1.16667,-1.084369 1.16667,-4.901742 0,-4.070073 -0.1337,-4.555783 -1.16667,-4.238404 -0.64166,0.197151 -0.41666,-0.0896 0.5,-0.637217 L 113.66667,17.434079 114,22.486174 c 0.28112,4.260722 0.5422,5.133133 1.66667,5.569437 0.90257,0.350205 0.25644,0.507496 -2,0.486864 -1.83333,-0.01676 -2.80833,-0.167674 -2.16667,-0.335359 z m 51.25452,-2.002619 c 3.60387,-3.777513 4.13626,-5.113362 2.72997,-6.850049 -1.43101,-1.767216 -3.74661,-1.230554 -3.12609,0.724502 0.27934,0.880145 0.0718,1.254383 -0.69569,1.254383 -1.65084,0 -0.93582,-2.128911 1.09852,-3.270759 1.56996,-0.881193 1.93277,-0.864677 3.49529,0.15912 2.49381,1.634009 2.18754,3.573175 -1.03411,6.547379 l -2.77759,2.56426 h 2.0778 c 1.26098,0 2.35996,-0.458637 2.79556,-1.166666 0.62101,-1.009408 0.69287,-0.942012 0.53312,0.5 -0.16886,1.524278 -0.49788,1.684137 -3.8513,1.871164 l -3.66666,0.204498 z M 36.357303,24.433299 c -0.977343,-0.71465 -1.145375,-1.426877 -0.815794,-3.457848 0.498048,-3.06911 -0.343538,-4.308784 -2.925136,-4.308784 -1.6127,0 -1.987968,0.363446 -2.581318,2.5 -0.980478,3.53053 -0.873461,4.690687 0.464946,5.040449 0.641666,0.167685 -0.633334,0.33526 -2.833334,0.372389 -3.585353,0.06051 -3.831545,-0.01786 -2.374949,-0.756 1.318702,-0.66826 1.912574,-1.95461 3.150224,-6.823505 1.824546,-7.177726 1.857627,-7.6666667 0.518714,-7.6666667 -0.604573,0 -0.844035,-0.3160186 -0.572446,-0.7554586 0.568305,-0.9195354 8.862587,-0.3590814 10.911154,0.7372786 2.091967,1.1195867 1.831341,4.3638087 -0.46603,5.8010377 -1.008333,0.630811 -1.951083,1.230478 -2.095001,1.332592 -0.143916,0.102114 0.115088,0.639624 0.575566,1.194465 0.53697,0.647011 0.679166,1.851362 0.396492,3.358149 -0.527969,2.814312 1.072009,3.977984 2.63377,1.915553 0.520723,-0.687656 0.95631,-0.892295 0.967971,-0.454753 0.01972,0.739782 -2.454533,2.871136 -3.333049,2.871136 -0.215,0 -0.944801,-0.405015 -1.62178,-0.900034 z M 37.581457,13.80931 c 1.888489,-2.539131 0.878011,-4.1426433 -2.61055,-4.1426433 -2.48877,0 -2.570198,0.077433 -3.367299,3.2020643 l -0.816854,3.202065 2.706643,-0.202065 c 2.051354,-0.153144 3.041089,-0.651738 4.08806,-2.059421 z m 4.788319,10.338243 C 41.620237,23.398014 42.030501,22 43.000001,22 c 0.55,0 1,0.45 1,1 0,1.162205 1.049984,1.331147 1.703299,0.27406 0.786895,-1.273222 2.092001,-6.909351 1.800167,-7.77406 -0.466849,-1.383285 -1.977524,-0.942437 -3.426742,1 -0.7523,1.008333 -1.377322,1.458333 -1.388938,1 -0.05616,-2.215887 4.574196,-4.566815 5.63001,-2.858473 0.249482,0.40367 0.989839,0.371176 1.996831,-0.08764 0.880191,-0.401042 2.069478,-0.549144 2.64286,-0.329116 1.141,0.437842 1.449456,2.441896 0.375846,2.441896 -1.280322,0 -1.665234,-0.300168 -1.470775,-1.146965 0.412739,-1.797329 -1.306817,-0.748624 -2.153955,1.313631 -1.711536,4.166534 -1.928538,6.45745 -0.657856,6.945056 0.771828,0.296178 1.571735,-0.06831 2.403094,-1.094992 1.52263,-1.880367 2.235524,-1.488378 0.861305,0.473594 -0.835331,1.192602 -1.649285,1.406064 -5.281558,1.38511 -2.361721,-0.01363 -4.460436,-0.191172 -4.663813,-0.394548 z m 55.886746,0.0089 c -2.342514,-1.543209 -1.14672,-7.10562 1.965998,-9.145155 1.1853,-0.776632 2.35764,-0.962882 4.05569,-0.644327 2.74643,0.515235 2.67936,0.293197 1.38125,4.572311 -0.54604,1.799942 -0.99279,3.674942 -0.99279,4.166667 0,1.541977 1.33589,0.974134 2.03515,-0.865079 0.36785,-0.96752 0.81882,-1.609126 1.00216,-1.425793 0.18333,0.183333 0.0323,1.12494 -0.33549,2.092459 -0.69452,1.826718 -2.53635,2.32459 -3.82657,1.034371 -0.5219,-0.521895 -0.85014,-0.521895 -1.17268,0 -0.50798,0.821916 -2.993905,0.951599 -4.112718,0.214546 z m 3.907228,-1.323127 c 0.57039,-0.641666 1.36185,-2.360992 1.75879,-3.820724 0.58259,-2.142404 0.5351,-2.84068 -0.24632,-3.622106 -0.84628,-0.846285 -1.13909,-0.813256 -2.32789,0.262593 -1.581508,1.431247 -3.044848,5.772195 -2.459782,7.296857 0.53146,1.384958 1.986492,1.333149 3.275202,-0.11662 z m 47.42611,1.323125 c -2.34252,-1.543209 -1.14672,-7.10562 1.966,-9.145155 1.18529,-0.776632 2.35763,-0.962882 4.05568,-0.644327 2.74644,0.515235 2.67936,0.293197 1.38125,4.572311 C 156.44676,20.739229 156,22.614229 156,23.105954 c 0,1.541977 1.33589,0.974134 2.03516,-0.865079 0.36784,-0.96752 0.81882,-1.609126 1.00215,-1.425793 0.18333,0.183333 0.0323,1.12494 -0.33549,2.092459 -0.69452,1.826718 -2.53635,2.32459 -3.82657,1.034371 -0.5219,-0.521895 -0.85013,-0.521895 -1.17268,0 -0.50797,0.821916 -2.9939,0.951599 -4.11271,0.214546 z m 3.90722,-1.323125 c 0.57039,-0.641666 1.36185,-2.360992 1.7588,-3.820724 0.58258,-2.142404 0.5351,-2.84068 -0.24632,-3.622106 -0.84629,-0.846285 -1.1391,-0.813256 -2.3279,0.262593 -1.5815,1.431247 -3.04484,5.772195 -2.45978,7.296857 0.53146,1.384958 1.98649,1.333149 3.2752,-0.11662 z"
         id="path2560" />
      <path
         style="fill:#323232;stroke-width:0.666667"
         d="m 82.283175,76.666667 c 0,-7.883334 0.09644,-11.108334 0.2143,-7.166667 0.117866,3.941667 0.117866,10.391667 0,14.333333 -0.11786,3.941667 -0.2143,0.716667 -0.2143,-7.166666 z m -44.949841,8.801966 c 0,-0.292253 1.2,-1.70314 2.666667,-3.1353 2.723826,-2.659746 3.317356,-4.698726 1.833333,-6.29812 -0.681815,-0.73482 -0.611294,-0.819673 0.387858,-0.466666 0.671656,0.2373 1.346656,0.431453 1.5,0.431453 0.153345,0 0.278809,0.86892 0.278809,1.93094 0,1.372113 -0.675279,2.52384 -2.333334,3.979633 -1.283333,1.12678 -2.333333,2.24068 -2.333333,2.475327 0,0.234653 1.05,0.30406 2.333333,0.15424 1.609128,-0.18786 2.333334,-0.0033 2.333334,0.593727 C 44.000001,85.72878 42.956212,86 40.666667,86 38.833334,86 37.333334,85.760887 37.333334,85.468633 Z m -11.855022,-3.6353 c -1.702732,-2.071606 -1.169854,-5.577686 1.20934,-7.95688 1.537157,-1.53716 2.375063,-1.910126 3.5,-1.557906 0.813459,0.2547 2.018664,0.45476 2.678235,0.44458 0.817905,-0.0126 1.092465,0.340073 0.863479,1.109186 -2.029347,6.81616 -1.995232,9.7994 0.0815,7.12664 0.905264,-1.16508 0.982091,-1.179026 0.61216,-0.111093 -0.232662,0.671653 -0.423022,1.346653 -0.423022,1.5 0,0.590407 -2.436059,0.242747 -3.124755,-0.445947 -0.521895,-0.5219 -0.850129,-0.5219 -1.172678,0 -0.610436,0.987707 -3.381727,0.916474 -4.224256,-0.10858 z m 4.018771,-1 c 1.564862,-1.76042 2.625221,-6.216013 1.734676,-7.289053 -1.005133,-1.211113 -1.634586,-1.10506 -3.160152,0.53244 -1.377471,1.478547 -2.48529,6.047913 -1.753394,7.232147 0.642051,1.03886 2.015313,0.833433 3.17887,-0.475534 z m 69.836252,1.23826 c 1.615485,-0.447973 1.672565,-0.66344 1.858475,-7.016073 l 0.1918,-6.5539 -1.691802,0.323407 c -0.930493,0.17788 -1.691806,0.06501 -1.691806,-0.250807 0,-0.31582 0.732293,-0.57422 1.62732,-0.57422 0.895028,0 1.870028,-0.375 2.166668,-0.833333 0.30168,-0.46612 0.68623,2.390486 0.87268,6.48262 0.31813,6.982386 0.40933,7.354293 2,8.15684 1.50205,0.757826 1.23865,0.835293 -2.66667,0.78426 -2.852332,-0.03727 -3.763718,-0.21458 -2.666665,-0.518794 z M 37.453633,77.218887 c 0.117169,-0.79628 0.663034,-1.58378 1.213034,-1.75 0.774891,-0.234187 0.824137,-0.1151 0.218764,0.52902 -0.42968,0.45718 -0.622584,1.24468 -0.428674,1.75 0.193909,0.505313 -4e-4,0.91876 -0.431798,0.91876 -0.431398,0 -0.688494,-0.6515 -0.571326,-1.44778 z m 109.879707,0.114446 c 0,-0.366666 1.5,-0.666666 3.33333,-0.666666 1.83333,0 3.33333,0.3 3.33333,0.666666 C 154,77.7 152.5,78 150.66667,78 c -1.83333,0 -3.33333,-0.3 -3.33333,-0.666667 z M 82.152681,48.172408 82.000001,34.011483 45.833334,33.833213 c -19.891667,-0.09805 3.283334,-0.177523 51.500001,-0.176609 48.216665,9.33e-4 64.647625,0.08041 36.513245,0.176665 l -51.153419,0.175002 -0.1939,14.162531 -0.1939,14.162531 z m -43.319347,9.368041 c 0.979015,-0.255843 1.166667,-1.101238 1.166667,-5.255998 0,-2.856301 0.282066,-4.951118 0.666666,-4.951118 0.381244,0 0.666667,2.007161 0.666667,4.68815 0,4.238695 0.143805,4.745952 1.5,5.291076 1.182077,0.475136 0.793505,0.595492 -1.833333,0.567849 -1.833334,-0.01929 -2.808334,-0.172273 -2.166667,-0.339959 z m 61.376916,-3.545102 c -0.801028,-0.322742 -1.813528,-1.254074 -2.250002,-2.069624 -1.1964,-2.235495 -1.007153,-9.579436 0.298187,-11.57164 2.081165,-3.176263 6.444125,-2.766626 7.773485,0.729851 C 107.71469,45.509964 106.08078,54 103.54622,54 c -0.99758,0 -0.99618,-0.09947 0.0171,-1.219161 1.54008,-1.701776 1.58203,-11.540229 0.0557,-13.066553 -2.34044,-2.340445 -4.146495,-0.753515 -4.727735,4.154135 -0.522587,4.412421 0.1749,7.830776 1.931765,9.467546 1.57153,1.4641 1.52056,1.518942 -0.61283,0.65938 z m 51.33333,0 c -0.80102,-0.322742 -1.81352,-1.254074 -2.25,-2.069624 -1.1964,-2.235495 -1.00715,-9.579436 0.29819,-11.57164 2.08117,-3.176263 6.44412,-2.766626 7.77348,0.729851 C 159.04802,45.509964 157.41412,54 154.87956,54 c -0.99759,0 -0.99619,-0.09947 0.0171,-1.219161 1.54009,-1.701776 1.58203,-11.540229 0.0557,-13.066553 -2.34044,-2.340445 -4.14649,-0.753515 -4.72773,4.154135 -0.52259,4.412421 0.1749,7.830776 1.93177,9.467546 1.57152,1.4641 1.52055,1.518942 -0.61284,0.65938 z M 25.478312,53.166667 c -1.702732,-2.071606 -1.169854,-5.577688 1.20934,-7.956882 1.537157,-1.537158 2.375063,-1.910122 3.5,-1.557902 0.813459,0.254695 2.018664,0.454756 2.678235,0.44458 0.817905,-0.01262 1.092465,0.340067 0.863479,1.109184 -2.029347,6.816163 -1.995232,9.799403 0.0815,7.126638 0.905264,-1.165081 0.982091,-1.179023 0.61216,-0.111094 -0.232662,0.671656 -0.423022,1.346656 -0.423022,1.5 0,0.59041 -2.436059,0.24275 -3.124755,-0.445946 -0.521895,-0.521895 -0.850129,-0.521895 -1.172678,0 -0.610436,0.987706 -3.381727,0.916474 -4.224256,-0.108578 z m 4.018771,-1 c 1.564862,-1.760422 2.625221,-6.216016 1.734676,-7.289057 -1.005133,-1.211111 -1.634586,-1.105056 -3.160152,0.532446 -1.377471,1.478542 -2.48529,6.047912 -1.753394,7.232145 0.642051,1.03886 2.015313,0.83343 3.17887,-0.475534 z m 52.786092,-33.5 c 0,-7.883334 0.09644,-11.1083337 0.2143,-7.166667 0.117866,3.941667 0.117866,10.391667 0,14.333333 -0.11786,3.941667 -0.2143,0.716667 -0.2143,-7.166666 z M 57.111112,28.888889 C 56.254492,28.032269 56.676916,26 57.711593,26 c 0.741541,0 0.922058,0.387119 0.621741,1.333333 -0.604399,1.904294 1.937966,1.789858 3.295531,-0.148337 1.402483,-2.002326 1.308499,-2.516487 -0.462197,-2.528538 -3.378725,-0.023 -3.697974,-1.261662 -2.102212,-8.156458 0.557038,-2.406789 -0.710767,-2.406789 -2.016472,0 -0.54703,1.008333 -1.006611,1.525085 -1.021291,1.148337 C 55.982841,16.522959 58.008684,14 58.956174,14 c 1.974305,0 2.364249,1.657045 1.226898,5.213633 -1.179784,3.689276 -0.649355,5.363772 1.444552,4.560265 1.182931,-0.453933 1.996585,-2.132047 3.041977,-6.273898 0.393319,-1.558333 1.003562,-2.833333 1.356096,-2.833333 0.897504,0 0.799911,0.963792 -0.675064,6.666666 -0.909897,3.518048 -1.806701,5.444586 -3.025751,6.5 -1.670103,1.445922 -4.292488,1.976838 -5.21377,1.055556 z M 111.5,28.207116 c 0.97902,-0.255843 1.16667,-1.101239 1.16667,-5.255999 0,-2.8563 0.28207,-4.951117 0.66667,-4.951117 0.38124,0 0.66666,2.007161 0.66666,4.688149 0,4.238696 0.14381,4.745952 1.5,5.291076 1.18208,0.475137 0.79351,0.595492 -1.83333,0.56785 -1.83333,-0.01929 -2.80833,-0.172274 -2.16667,-0.339959 z m 51.28588,-2.040449 c 2.14962,-2.24873 3.88079,-4.819774 3.88079,-5.763536 0,-0.193155 -0.675,-0.981408 -1.5,-1.751673 -1.36878,-1.277966 -1.38336,-1.358665 -0.16667,-0.92248 3.89803,1.397448 3.94944,3.557185 0.16696,7.014704 l -2.83303,2.589651 h 2.13324 c 1.32835,0 2.38963,-0.440194 2.81277,-1.166666 0.74181,-1.273618 0.96548,-0.248586 0.3154,1.445475 -0.29574,0.770694 -1.31906,1.054525 -3.80196,1.054525 h -3.39731 z M 36.744289,24.567609 c -1.438636,-0.534628 -1.551101,-0.867364 -1.188164,-3.515277 0.46667,-3.404727 -0.460995,-4.600853 -3.309436,-4.267171 -1.574978,0.184502 -1.947638,0.662672 -2.639142,3.386344 -0.706329,2.782069 -0.670274,3.250282 0.293626,3.81306 0.813516,0.474976 0.257422,0.64682 -2.141695,0.661829 C 24.611643,24.666087 24.557,24.633297 25.849067,23.5 26.67804,22.772891 27.710571,20.144632 28.58959,16.524125 30.293196,9.5073027 30.293183,9.5077153 28.833334,9.1262173 28.191667,8.958532 30.120239,8.7865347 33.119048,8.7440007 c 5.807715,-0.082374 7.547619,0.679188 7.547619,3.3036183 0,1.544718 -2.256642,3.952381 -3.704469,3.952381 -0.935375,0 -0.936648,0.144419 -0.0129,1.463257 0.695541,0.993024 0.898851,2.25156 0.632653,3.91627 -0.489966,3.064078 0.530184,3.81115 2.460578,1.801922 1.390624,-1.447415 1.422864,-1.45156 0.724928,-0.09322 -0.932772,1.815395 -2.031649,2.219467 -4.023171,1.479375 z M 37.581457,13.80931 c 1.807726,-2.430542 0.875091,-4.06398 -2.483481,-4.3496233 -2.583159,-0.2196954 -2.915106,0.1719466 -4.022957,4.7464163 -0.44747,1.847663 -0.416157,1.870006 2.335736,1.666666 2.140532,-0.158166 3.110585,-0.6381 4.170702,-2.063459 z M 42.333334,24 c -0.486135,-0.786583 0.144445,-2 1.039345,-2 0.345027,0 0.627322,0.45 0.627322,1 0,1.766903 1.373634,1.067517 2.291396,-1.166667 1.713022,-4.170147 1.928733,-6.457375 0.655096,-6.946115 -0.809227,-0.310529 -1.630149,0.142943 -2.716446,1.50055 -0.856216,1.070061 -1.558247,1.622859 -1.560068,1.228441 -0.0018,-0.394418 0.743721,-1.418924 1.656761,-2.276681 1.433695,-1.346887 1.890765,-1.454446 3.351796,-0.788757 1.286632,0.58623 1.993612,0.582268 2.95246,-0.01654 0.983604,-0.61427 1.490841,-0.596373 2.30753,0.08142 1.160568,0.963183 0.829812,2.051017 -0.623613,2.051017 -0.561423,0 -0.785251,-0.402572 -0.555996,-1 0.46441,-1.210234 -0.670841,-1.329906 -1.581067,-0.166667 -0.918958,1.1744 -2.293767,7.106429 -1.82338,7.867531 0.672568,1.088238 2.193673,0.693745 3.274395,-0.849202 0.570791,-0.814919 1.037803,-1.136348 1.037803,-0.714286 0,2.056632 -4.00118,3.812082 -5.001115,2.194154 -0.276168,-0.446848 -0.82724,-0.446848 -1.662184,0 -1.594792,0.853507 -3.143183,0.854268 -3.670035,0.0018 z m 55.811648,-0.166667 c -1.702734,-2.071606 -1.169854,-5.577688 1.20934,-7.956882 1.537158,-1.537157 2.375058,-1.910122 3.499998,-1.557902 0.81346,0.254696 2.01866,0.454757 2.67824,0.444581 0.8179,-0.01262 1.09246,0.340067 0.86348,1.109184 -2.02935,6.816163 -1.99524,9.799403 0.0815,7.126638 0.90527,-1.165081 0.98209,-1.179023 0.61216,-0.111094 -0.23266,0.671656 -0.42302,1.346656 -0.42302,1.5 0,0.590409 -2.43606,0.24275 -3.12475,-0.445946 -0.5219,-0.521895 -0.85014,-0.521895 -1.17268,0 -0.61044,0.987705 -3.381732,0.916473 -4.224258,-0.108579 z m 4.018768,-1 c 1.56487,-1.760421 2.62522,-6.216016 1.73468,-7.289056 -1.00513,-1.211112 -1.63459,-1.105056 -3.16015,0.532446 -1.377478,1.478542 -2.485298,6.047912 -1.753398,7.232145 0.642053,1.038859 2.015318,0.83343 3.178868,-0.475535 z m 47.31457,1 c -1.70274,-2.071606 -1.16986,-5.577688 1.20934,-7.956882 1.53715,-1.537157 2.37506,-1.910122 3.5,-1.557902 0.81345,0.254696 2.01866,0.454757 2.67823,0.444581 0.81791,-0.01262 1.09247,0.340067 0.86348,1.109184 -2.02935,6.816163 -1.99523,9.799403 0.0815,7.126638 0.90527,-1.165081 0.9821,-1.179023 0.61216,-0.111094 -0.23266,0.671656 -0.42302,1.346656 -0.42302,1.5 0,0.590409 -2.43606,0.24275 -3.12475,-0.445946 -0.5219,-0.521895 -0.85013,-0.521895 -1.17268,0 -0.61043,0.987705 -3.38173,0.916473 -4.22425,-0.108579 z m 4.01876,-1 c 1.56487,-1.760421 2.62522,-6.216016 1.73468,-7.289056 -1.00513,-1.211112 -1.63458,-1.105056 -3.16015,0.532446 -1.37747,1.478542 -2.48529,6.047912 -1.75339,7.232145 0.64205,1.038859 2.01531,0.83343 3.17886,-0.475535 z m 7.16959,-2.362814 c 0,-1.162518 1.85101,-2.841732 2.46055,-2.232186 0.23559,0.235584 0.0652,0.428334 -0.37866,0.428334 -0.44386,0 -0.71886,0.493876 -0.61112,1.097504 0.10774,0.603627 -0.1791,1.228627 -0.63744,1.388889 -0.45833,0.160261 -0.83333,-0.146882 -0.83333,-0.682541 z"
         id="path2558" />
      <path
         style="fill:#060606;stroke-width:0.666667"
         d="m 37.333334,85.468633 c 0,-0.292253 1.2,-1.70314 2.666667,-3.1353 2.695779,-2.63236 3.329488,-4.73718 1.866666,-6.2 -0.444444,-0.444446 -0.503704,-0.8 -0.133333,-0.8 1.145748,0 2.266667,1.535447 2.266667,3.104914 0,0.920826 -0.9056,2.227486 -2.333314,3.366666 -2.949905,2.353734 -2.94991,3.079607 -2e-5,2.735227 1.609128,-0.18786 2.333334,-0.0033 2.333334,0.593727 C 44.000001,85.72878 42.956212,86 40.666667,86 38.833334,86 37.333334,85.760887 37.333334,85.468633 Z M 25.466667,81.866667 c -0.44,-0.44 -0.8,-1.908274 -0.8,-3.262827 0,-2.7969 2.983011,-6.634193 5.100807,-6.56158 1.007555,0.03453 0.953327,0.154307 -0.297093,0.65614 C 27.794687,73.370907 26,76.97454 26,79.66674 c 0,1.149787 0.491154,1.90698 1.5,2.312487 1.415123,0.568806 1.422668,0.605313 0.133334,0.64518 -0.751667,0.02325 -1.726667,-0.31774 -2.166667,-0.75774 z m 5.526613,0.12246 c -0.230309,-0.372647 -0.677541,-0.5176 -0.993849,-0.322107 -0.316308,0.195487 -0.124357,-0.548113 0.426558,-1.652447 0.550915,-1.10434 1.055442,-3.054546 1.121171,-4.333806 0.06573,-1.279254 0.494507,-2.471347 0.952841,-2.649087 1.035887,-0.40172 1.046744,0.60872 0.05281,4.914707 -0.853868,3.69916 -0.316171,5.122046 1.168371,3.091813 0.520017,-0.711173 0.945489,-0.9957 0.945489,-0.632287 0,1.731994 -2.828112,2.950894 -3.673387,1.583214 z m 68.840055,-0.0099 c 1.408485,-0.56614 1.500005,-0.990654 1.500005,-6.957747 0,-5.604013 -0.13784,-6.355973 -1.16667,-6.36464 -0.854755,-0.0072 -0.721075,-0.23588 0.5,-0.85532 l 1.66667,-0.845493 0.33333,7.327113 c 0.32417,7.1258 0.37913,7.3398 2,7.788867 1.11571,0.309113 0.34437,0.469753 -2.33333,0.485946 -3.029192,0.01833 -3.635952,-0.122133 -2.500005,-0.578726 z M 37.333334,77.62732 c 0,-0.57164 0.3,-0.853933 0.666667,-0.62732 0.366666,0.226613 0.666666,0.69432 0.666666,1.039347 0,0.345026 -0.3,0.62732 -0.666666,0.62732 -0.366667,0 -0.666667,-0.467707 -0.666667,-1.039347 z M 148,77.333333 c 0,-0.366666 1.35,-0.666666 3,-0.666666 1.65,0 3,0.3 3,0.666666 C 154,77.7 152.65,78 151,78 c -1.65,0 -3,-0.3 -3,-0.666667 z M 39.241547,57.284859 c 1.484112,-0.59428 1.559702,-0.899231 1.311541,-5.291076 -0.144837,-2.563247 -0.02853,-4.66045 0.258453,-4.66045 0.286986,0 0.521793,2.228003 0.521793,4.951118 0,4.15476 0.187651,5.000155 1.166667,5.255998 0.641666,0.167686 -0.183334,0.320667 -1.833334,0.339959 -2.533065,0.02962 -2.754878,-0.06307 -1.42512,-0.595549 z M 25.466667,53.2 c -0.44,-0.44 -0.8,-1.908273 -0.8,-3.26283 0,-2.7969 2.983011,-6.634189 5.100807,-6.561579 1.007555,0.03455 0.953327,0.154308 -0.297093,0.656141 C 27.794687,44.704239 26,48.307875 26,51.000071 c 0,1.149789 0.491154,1.906981 1.5,2.312488 1.415123,0.56881 1.422668,0.605317 0.133334,0.645184 C 26.881667,53.980984 25.906667,53.64 25.466667,53.2 Z m 5.526613,0.122459 c -0.230309,-0.372648 -0.677541,-0.517596 -0.993849,-0.322107 -0.316308,0.195489 -0.124357,-0.548112 0.426558,-1.652447 0.550915,-1.104335 1.055442,-3.054547 1.121171,-4.333804 0.06573,-1.279257 0.494507,-2.471346 0.952841,-2.649088 1.035887,-0.401717 1.046744,0.608722 0.05281,4.914708 -0.853868,3.699158 -0.316171,5.122043 1.168371,3.091811 0.520017,-0.711171 0.945489,-0.995699 0.945489,-0.632285 0,1.731992 -2.828112,2.950895 -3.673387,1.583212 z m 67.282282,-0.983732 c -0.836074,-1.276016 -1.02904,-2.838823 -0.832094,-6.739018 0.219387,-4.344405 0.48132,-5.259858 1.813667,-6.338727 0.856485,-0.69354 2.049015,-1.241966 2.650055,-1.218725 0.74475,0.0288 0.61197,0.235435 -0.41688,0.648772 -0.83033,0.333582 -1.805335,1.384096 -2.166668,2.334475 -0.96956,2.550129 -0.790487,9.036141 0.3076,11.141163 1.193398,2.287741 0.119846,2.423995 -1.35568,0.17206 z m 4.961518,1.068202 c 2.01128,-1.274434 2.45372,-11.577656 0.5972,-13.906929 -0.45478,-0.570579 -0.41754,-0.833333 0.11811,-0.833333 1.19233,0 2.71428,4.262501 2.71428,7.601854 0,4.532761 -1.51131,7.711062 -3.66667,7.711062 -0.36666,0 -0.25998,-0.257694 0.23708,-0.572654 z m 46.37182,-1.068202 c -0.83608,-1.276016 -1.02904,-2.838823 -0.8321,-6.739018 0.21939,-4.344405 0.48132,-5.259858 1.81367,-6.338727 0.85649,-0.69354 2.04901,-1.241966 2.65005,-1.218725 0.74475,0.0288 0.61197,0.235435 -0.41688,0.648772 -0.83033,0.333582 -1.80533,1.384096 -2.16666,2.334475 -0.96956,2.550129 -0.79049,9.036141 0.3076,11.141163 1.1934,2.287741 0.11984,2.423995 -1.35568,0.17206 z m 4.96152,1.068202 c 2.01127,-1.274434 2.45372,-11.577656 0.59719,-13.906929 -0.45477,-0.570579 -0.41753,-0.833333 0.11811,-0.833333 1.19234,0 2.71428,4.262501 2.71428,7.601854 0,4.532761 -1.5113,7.711062 -3.66666,7.711062 -0.36667,0 -0.25998,-0.257694 0.23708,-0.572654 z M 53.500001,33.500083 c 24.108334,-0.09698 63.558339,-0.09698 87.666669,0 24.10833,0.09698 4.38333,0.176336 -43.833335,0.176336 -48.216667,0 -67.941668,-0.07935 -43.833334,-0.176336 z m 5.5,-4.649156 c 0.733333,-0.180256 1.690031,-0.616999 2.125994,-0.97054 0.715185,-0.579974 2.810146,-6.661172 3.920521,-11.380387 0.425265,-1.807417 1.620152,-2.578417 1.620152,-1.045399 0,0.433363 -0.634262,3.138539 -1.409471,6.011502 -1.491466,5.527448 -3.407144,7.941992 -6.180435,7.789896 -1.345908,-0.07381 -1.349402,-0.09225 -0.07676,-0.405072 z m -2.333333,-1.435964 c 0,-0.8133 0.425214,-1.414963 1,-1.414963 0.55,0 1,0.263267 1,0.585037 0,0.32177 -0.45,0.958504 -1,1.414963 -0.835468,0.693377 -1,0.59712 -1,-0.585037 z m 55.241552,0.536562 c 1.48411,-0.59428 1.5597,-0.89923 1.31154,-5.291076 C 113.07492,20.097203 113.19122,18 113.47821,18 113.7652,18 114,20.228003 114,22.951117 c 0,4.15476 0.18766,5.000156 1.16667,5.255999 0.64167,0.167685 -0.18333,0.320667 -1.83333,0.339959 -2.53307,0.02962 -2.75488,-0.06307 -1.42512,-0.59555 z m 51.66722,-2.589631 c 3.28116,-3.507817 3.4904,-4.037015 2.40111,-6.072388 C 165.49664,18.392785 165.50099,18 165.99084,18 c 0.38743,0 1.05068,0.759957 1.47388,1.688792 0.70324,1.54344 0.51792,1.945094 -2.1531,4.666667 l -2.92256,2.977874 h 2.47214 c 1.35968,0 2.47214,0.3 2.47214,0.666667 0,0.366667 -1.54106,0.666667 -3.42456,0.666667 h -3.42456 z M 25.639238,24.062244 c 0.998282,-0.390405 1.724117,-2.177715 3.081269,-7.587373 1.588216,-6.330688 1.661384,-7.1070697 0.694096,-7.3651003 -0.594698,-0.1586394 1.026979,-0.323236 3.603727,-0.36577 5.036463,-0.083135 7.648337,1.0019986 7.648337,3.1775923 0,1.346502 -2.651204,4.078407 -3.95793,4.078407 -0.680108,0 -0.698077,0.20956 -0.08165,0.952303 0.434688,0.523767 0.846421,2.48158 0.914963,4.350696 0.09929,2.707686 -0.07862,3.35751 -0.875379,3.197243 -0.717008,-0.144227 -1,-1.080095 -1,-3.307057 0,-3.649912 -0.812996,-4.71142 -3.379077,-4.41197 -1.623138,0.189412 -1.982941,0.644568 -2.680043,3.39029 -0.706329,2.782069 -0.670274,3.250282 0.293626,3.81306 0.805365,0.470217 0.208597,0.634457 -2.234506,0.614972 -2.257103,-0.018 -2.911697,-0.191476 -2.027429,-0.537293 z m 11.668126,-9.521285 c 2.589629,-2.779641 1.330867,-5.2076257 -2.699836,-5.2076257 -2.291937,0 -2.489506,0.1618674 -2.905757,2.3806757 -0.24564,1.309372 -0.611124,2.809372 -0.812186,3.333334 -0.641362,1.671362 4.788011,1.242967 6.417779,-0.506384 z M 42.333334,24 c -0.502998,-0.813867 0.155703,-2 1.110671,-2 0.384256,0 0.525966,0.45 0.314912,1 -0.467934,1.219413 1.137961,1.349136 2.063234,0.166667 0.918959,-1.1744 2.293768,-7.10643 1.823381,-7.867531 -0.583618,-0.944314 -1.708846,-0.768455 -3.259704,0.509452 -1.221211,1.006278 -1.211007,0.952442 0.08591,-0.45322 1.304804,-1.414209 1.672453,-1.50369 3.241283,-0.788883 1.32937,0.605701 1.99762,0.61697 2.686438,0.0453 0.504292,-0.418526 1.370715,-0.586808 1.925384,-0.373961 1.116132,0.428303 1.397679,2.428843 0.341824,2.428843 C 52.3,16.666667 52,16.191667 52,15.611111 52,15.030555 51.625,14.677708 51.166667,14.827006 50.015431,15.20201 48.812332,17.854265 48.278164,21.194766 47.872437,23.73205 47.961475,24 49.210326,24 c 0.759405,0 1.847748,-0.666752 2.418539,-1.481671 0.570791,-0.814919 1.037803,-1.161415 1.037803,-0.769992 0,1.001858 -2.245368,2.91833 -3.419161,2.91833 -0.539461,0 -1.340839,-0.36 -1.78084,-0.8 -0.622222,-0.622222 -0.977778,-0.622222 -1.6,0 C 44.894742,24.838592 42.898176,24.913934 42.333334,24 Z m 16.466667,-0.133333 c -1.044655,-1.044655 -1.009643,-2.438175 0.143366,-5.70615 0.719582,-2.039512 0.759119,-2.869894 0.166667,-3.500484 -0.599663,-0.638266 -0.548765,-0.755253 0.2233,-0.513248 1.072579,0.336202 1.17499,2.430641 0.326454,6.676374 -0.444974,2.226468 -0.329896,2.556948 1.087969,3.124409 1.438453,0.575701 1.458766,0.638505 0.218911,0.676841 -0.751667,0.02324 -1.726667,-0.317742 -2.166667,-0.757742 z m 39.333334,0 c -0.44,-0.44 -0.8,-1.908274 -0.8,-3.26283 0,-2.7969 2.983015,-6.634189 5.100805,-6.56158 1.00756,0.03455 0.95333,0.154309 -0.29709,0.656142 -1.67569,0.672507 -3.470382,4.276142 -3.470382,6.968338 0,1.14979 0.491154,1.906982 1.500002,2.312488 1.41512,0.56881 1.42267,0.605318 0.13333,0.645184 -0.751665,0.02324 -1.726665,-0.317742 -2.166665,-0.757742 z m 5.526615,0.122458 c -0.23031,-0.372647 -0.67754,-0.517595 -0.99385,-0.322106 -0.31631,0.195489 -0.12436,-0.548112 0.42656,-1.652448 0.55092,-1.104334 1.05544,-3.054546 1.12117,-4.333803 0.0657,-1.279257 0.49451,-2.471347 0.95284,-2.649089 1.03589,-0.401716 1.04675,0.608723 0.0528,4.914708 -0.85387,3.699158 -0.31617,5.122044 1.16837,3.091812 0.52002,-0.711171 0.9455,-0.9957 0.9455,-0.632286 0,1.731993 -2.82812,2.950896 -3.67339,1.583212 z m 45.80672,-0.122458 c -0.44,-0.44 -0.8,-1.908274 -0.8,-3.26283 0,-2.7969 2.98301,-6.634189 5.10081,-6.56158 1.00755,0.03455 0.95332,0.154309 -0.2971,0.656142 C 151.79469,15.370906 150,18.974541 150,21.666737 c 0,1.14979 0.49116,1.906982 1.5,2.312488 1.41512,0.56881 1.42267,0.605318 0.13334,0.645184 -0.75167,0.02324 -1.72667,-0.317742 -2.16667,-0.757742 z m 5.52661,0.122458 c -0.2303,-0.372647 -0.67754,-0.517595 -0.99384,-0.322106 -0.31632,0.195489 -0.12436,-0.548112 0.42655,-1.652448 0.55092,-1.104334 1.05545,-3.054546 1.12117,-4.333803 0.0657,-1.279257 0.49451,-2.471347 0.95284,-2.649089 1.03589,-0.401716 1.04675,0.608723 0.0528,4.914708 -0.85386,3.699158 -0.31616,5.122044 1.16838,3.091812 0.52002,-0.711171 0.94549,-0.9957 0.94549,-0.632286 0,1.731993 -2.82811,2.950896 -3.67339,1.583212 z m 5.67339,-3.322458 C 160.66667,20.3 160.96667,20 161.33334,20 161.7,20 162,20.3 162,20.666667 c 0,0.366666 -0.3,0.666666 -0.66666,0.666666 -0.36667,0 -0.66667,-0.3 -0.66667,-0.666666 z M 56.000001,17.571864 c 0,-0.357697 0.46655,-1.232697 1.036777,-1.944444 0.977586,-1.220204 0.991461,-1.198932 0.243031,0.37258 -0.971875,2.040688 -1.279808,2.418893 -1.279808,1.571864 z"
         id="path2556" />
    </g>
  </g>
</svg>
