<?xml version="1.0" encoding="UTF-8" standalone="no"?>
<svg
   xmlns:dc="http://purl.org/dc/elements/1.1/"
   xmlns:cc="http://creativecommons.org/ns#"
   xmlns:rdf="http://www.w3.org/1999/02/22-rdf-syntax-ns#"
   xmlns:svg="http://www.w3.org/2000/svg"
   xmlns="http://www.w3.org/2000/svg"
   xmlns:sodipodi="http://sodipodi.sourceforge.net/DTD/sodipodi-0.dtd"
   xmlns:inkscape="http://www.inkscape.org/namespaces/inkscape"
   version="1.1"
   id="svg60"
   width="237.30269"
   height="169.87355"
   viewBox="0 0 237.30269 169.87355"
   sodipodi:docname="10-1-2.svg"
   inkscape:version="1.0.1 (c497b03c, 2020-09-10)">
  <metadata
     id="metadata66">
    <rdf:RDF>
      <cc:Work
         rdf:about="">
        <dc:format>image/svg+xml</dc:format>
        <dc:type
           rdf:resource="http://purl.org/dc/dcmitype/StillImage" />
        <dc:title></dc:title>
      </cc:Work>
    </rdf:RDF>
  </metadata>
  <defs
     id="defs64" />
  <sodipodi:namedview
     pagecolor="#ffffff"
     bordercolor="#666666"
     borderopacity="1"
     objecttolerance="10"
     gridtolerance="10"
     guidetolerance="10"
     inkscape:pageopacity="0"
     inkscape:pageshadow="2"
     inkscape:window-width="738"
     inkscape:window-height="480"
     id="namedview62"
     showgrid="false"
     fit-margin-top="0"
     fit-margin-left="0"
     fit-margin-right="0"
     fit-margin-bottom="0"
     inkscape:pagecheckerboard="true"
     inkscape:zoom="0.6834672"
     inkscape:cx="-43.542567"
     inkscape:cy="51.240114"
     inkscape:window-x="0"
     inkscape:window-y="25"
     inkscape:window-maximized="0"
     inkscape:current-layer="g68" />
  <g
     inkscape:groupmode="layer"
     inkscape:label="Image"
     id="g68"
     transform="translate(-16.666667,-10.067039)">
    <path
       style="fill:#1c1c1c;stroke-width:0.666667"
       d="M 20.148337,178.9622 C 18.338831,177.69477 18.042235,174 19.75,174 c 0.847168,0 0.996487,0.43423 0.684955,1.99189 -0.343891,1.71946 -0.171743,2.04877 1.258658,2.40778 0.942172,0.23647 2.084711,0.0609 2.648378,-0.40685 0.99921,-0.82927 1.348012,-4.9543 0.586683,-6.93829 -0.510677,-1.33081 -2.507558,-1.36523 -3.589249,-0.0619 -1.355563,1.63336 -2.006092,0.4844 -2.006092,-3.54311 v -3.8051 h 3.992593 c 3.868168,0 3.954593,0.038 2.773257,1.21933 -0.670635,0.67064 -2.167302,1.24629 -3.325926,1.27924 -1.818701,0.0517 -2.10659,0.30105 -2.10659,1.82457 0,1.61454 0.192965,1.74215 2.26802,1.4999 5.366935,-0.62656 7.24897,7.02431 2.350966,9.55717 -2.391988,1.23694 -3.297881,1.22593 -5.137316,-0.0625 z m 149.568623,0.35894 c 5.39875,-0.56978 7.25102,-1.49628 8.36422,-4.18379 0.64165,-1.54909 0.58921,-2.31406 -0.2842,-4.14563 -1.21745,-2.553 -4.00412,-3.64845 -9.29698,-3.65466 -1.74167,-0.002 -3.16667,-0.30372 -3.16667,-0.67039 0,-0.8784 6.31724,-0.84883 9.53468,0.0446 4.37704,1.21547 6.33042,6.05419 4.02181,9.96237 -1.55309,2.62918 -3.55003,3.34021 -9.08785,3.23582 L 165,179.81894 l 4.71696,-0.49782 z m 23.18771,0.0178 c -3.70377,-1.49465 -4.76424,-7.37162 -2.05547,-11.39116 2.94126,-4.36454 8.66962,-6.61914 11.79511,-4.64238 0.62212,0.39347 1.29468,0.35521 1.84944,-0.1052 1.39044,-1.15396 1.62322,-0.25516 0.79046,3.05204 -0.90425,3.5911 -1.7784,3.98502 -2.0753,0.93522 -0.14383,-1.47738 -0.73828,-2.44151 -1.9082,-3.09489 -5.2684,-2.9423 -12.54688,8.5488 -8.3513,13.18486 1.59854,1.76636 4.64677,1.79305 6.38392,0.0559 1.73976,-1.73976 1.68702,-2.95901 -0.16666,-3.85301 -1.26102,-0.60817 -0.86272,-0.72723 2.5,-0.74734 3.52154,-0.0211 3.85625,0.0851 2.79823,0.88737 -0.66097,0.50122 -1.51,2.02764 -1.88674,3.39206 -0.46229,1.67432 -0.90441,2.26134 -1.35999,1.80576 -0.45558,-0.45559 -1.25093,-0.37454 -2.4466,0.24929 -1.99147,1.03905 -3.76186,1.12097 -5.8669,0.27148 z M 31.125,178.90278 c -0.943677,-0.94368 -0.409688,-2.23611 0.923883,-2.23611 0.931974,0 1.312003,0.36203 1.166666,1.11142 -0.237962,1.22699 -1.376001,1.83924 -2.090549,1.12469 z M 129,178.66667 C 129.22661,178.3 129.83275,178 130.34698,178 c 0.52005,0 1.22431,-1.10945 1.58696,-2.5 1.63681,-6.2761 2.73273,-10.72609 2.73273,-11.09622 0,-0.22208 -0.46771,-0.40378 -1.03935,-0.40378 -0.57164,0 -0.85393,-0.3 -0.62732,-0.66666 0.62662,-1.0139 12.30792,-0.86018 12.66483,0.16666 0.15932,0.45834 0.0306,1.88334 -0.28601,3.16667 -0.48037,1.94705 -0.58697,2.0519 -0.64391,0.63333 -0.0979,-2.43856 -1.27351,-3.3 -4.50358,-3.3 -2.7085,0 -2.86638,0.11182 -3.52961,2.5 -0.38185,1.375 -0.69596,2.875 -0.698,3.33334 -0.006,1.40916 3.10114,0.92334 4.26421,-0.66667 1.08062,-1.47731 1.09063,-1.46471 0.66149,0.83333 -0.23965,1.28334 -0.67779,2.93334 -0.97365,3.66667 -0.51038,1.26508 -0.54008,1.25655 -0.58018,-0.16667 -0.034,-1.20737 -0.42631,-1.5 -2.01092,-1.5 -1.70703,0 -2.06094,0.33226 -2.66295,2.5 -0.90234,3.24919 -0.88379,3.5 0.25893,3.5 0.52836,0 1.14607,0.3 1.37268,0.66667 0.25754,0.41669 -1.1173,0.66667 -3.66666,0.66667 -2.54937,0 -3.9242,-0.24998 -3.66667,-0.66667 z m 18.98641,-1.03574 c -0.47899,-1.25984 -0.27172,-3.19968 0.79729,-7.46196 1.04548,-4.16845 1.22884,-5.83145 0.66375,-6.01981 -1.56406,-0.52136 -0.72738,-1.48249 1.29054,-1.48249 1.52154,0 1.9743,0.25287 1.70576,0.95266 -0.20106,0.52396 -0.5597,1.98743 -0.79696,3.25215 -0.40554,2.16171 -0.33428,2.28094 1.18902,1.98974 3.34294,-0.63904 4.86262,3.20978 2.82396,7.15213 -1.89144,3.65763 -6.52626,4.63468 -7.67336,1.61758 z m 5.27812,-1.27796 c 1.1721,-2.44551 1.33489,-6.45463 0.27714,-6.82543 -2.05534,-0.72053 -5.23926,6.26504 -3.86731,8.48491 0.76904,1.24433 2.60519,0.39561 3.59017,-1.65948 z m 54.72188,1.27796 c -0.47899,-1.25984 -0.27172,-3.19968 0.79729,-7.46196 1.04548,-4.16845 1.22884,-5.83145 0.66375,-6.01981 -1.56406,-0.52136 -0.72738,-1.48249 1.29054,-1.48249 1.52154,0 1.9743,0.25287 1.70576,0.95266 -0.20106,0.52396 -0.5597,1.98743 -0.79696,3.25215 -0.40554,2.16171 -0.33428,2.28094 1.18902,1.98974 3.34294,-0.63904 4.86262,3.20978 2.82396,7.15213 -1.89144,3.65763 -6.52626,4.63468 -7.67336,1.61758 z m 5.27812,-1.27796 c 1.1721,-2.44551 1.33489,-6.45463 0.27714,-6.82543 -2.05534,-0.72053 -5.23926,6.26504 -3.86731,8.48491 0.76904,1.24433 2.60519,0.39561 3.59017,-1.65948 z m -43.54757,-25.03183 c 5.39875,-0.56978 7.25102,-1.49628 8.36422,-4.18379 0.64165,-1.54909 0.58921,-2.31406 -0.2842,-4.14563 -1.21745,-2.553 -4.00412,-3.64845 -9.29698,-3.65466 -1.74167,-0.002 -3.16667,-0.30372 -3.16667,-0.67039 0,-0.8784 6.31724,-0.84883 9.53468,0.0446 4.37704,1.21547 6.33042,6.05419 4.02181,9.96237 -1.55309,2.62918 -3.55003,3.34021 -9.08785,3.23582 L 165,151.81894 l 4.71696,-0.49782 z m 23.18771,0.0178 c -3.70377,-1.49465 -4.76424,-7.37162 -2.05547,-11.39116 2.94126,-4.36454 8.66962,-6.61914 11.79511,-4.64238 0.62212,0.39347 1.29468,0.35521 1.84944,-0.1052 1.39044,-1.15396 1.62322,-0.25516 0.79046,3.05204 -0.90425,3.5911 -1.7784,3.98502 -2.0753,0.93522 -0.14383,-1.47738 -0.73828,-2.44151 -1.9082,-3.09489 -5.2684,-2.9423 -12.54688,8.5488 -8.3513,13.18486 1.59854,1.76636 4.64677,1.79305 6.38392,0.0559 1.73976,-1.73976 1.68702,-2.959 -0.16666,-3.853 -1.26102,-0.60817 -0.86272,-0.72724 2.5,-0.74734 3.52154,-0.0211 3.85625,0.0851 2.79823,0.88737 -0.66097,0.50121 -1.51,2.02764 -1.88674,3.39206 -0.46229,1.67431 -0.90441,2.26133 -1.35999,1.80575 -0.45558,-0.45558 -1.25093,-0.37454 -2.4466,0.2493 -1.99147,1.03905 -3.76186,1.12097 -5.8669,0.27148 z M 20.666667,150.66667 c 0,-0.36667 0.45,-0.66667 1,-0.66667 0.555555,0 1,-0.59259 1,-1.33333 0,-1.1358 -0.444445,-1.33333 -3,-1.33333 -1.65,0 -3,-0.30249 -3,-0.67219 0,-0.92067 6.877224,-11.2941 7.5,-11.3128 0.275,-0.008 0.5,2.39465 0.5,5.3398 0,4.89053 0.125794,5.40135 1.45084,5.89152 l 1.45084,0.5367 -1.45084,0.37941 C 24.512357,147.91553 24.104337,150 25.627322,150 c 0.528361,0 1.146065,0.3 1.372678,0.66667 0.253943,0.41089 -0.881966,0.66667 -2.960655,0.66667 -1.854973,0 -3.372678,-0.3 -3.372678,-0.66667 z m 2,-7.66667 c 0,-2.01666 -0.105158,-3.66666 -0.233683,-3.66666 -0.271328,0 -4.432984,6.61314 -4.432984,7.0443 0,0.15896 1.05,0.28903 2.333333,0.28903 h 2.333334 z m 7.791666,7.90278 c -0.943676,-0.94368 -0.409688,-2.23611 0.923883,-2.23611 0.931975,0 1.312003,0.36203 1.166667,1.11142 -0.237962,1.22699 -1.376002,1.83924 -2.09055,1.12469 z m 95.874997,-0.23611 C 126.55995,150.3 127.16609,150 127.68031,150 c 0.52005,0 1.22431,-1.10945 1.58696,-2.5 C 130.90408,141.2239 132,136.77391 132,136.40378 132,136.1817 131.53229,136 130.96065,136 c -0.57164,0 -0.85393,-0.3 -0.62732,-0.66666 0.62662,-1.0139 12.30792,-0.86018 12.66484,0.16666 0.15931,0.45834 0.0306,1.88334 -0.28602,3.16667 -0.48036,1.94705 -0.58696,2.0519 -0.64391,0.63333 -0.0979,-2.43856 -1.27351,-3.3 -4.50357,-3.3 -2.70851,0 -2.86638,0.11182 -3.52962,2.5 -0.38185,1.375 -0.69596,2.875 -0.698,3.33334 -0.006,1.40916 3.10114,0.92334 4.26421,-0.66667 1.08063,-1.47731 1.09063,-1.46471 0.66149,0.83333 -0.23964,1.28334 -0.67779,2.93334 -0.97364,3.66667 -0.51039,1.26508 -0.54009,1.25655 -0.58018,-0.16667 -0.034,-1.20737 -0.42632,-1.5 -2.01093,-1.5 -1.70703,0 -2.06093,0.33226 -2.66295,2.5 -0.90234,3.24919 -0.88378,3.5 0.25894,3.5 0.52836,0 1.14606,0.3 1.37268,0.66667 0.25753,0.41669 -1.1173,0.66667 -3.66667,0.66667 -2.54937,0 -3.9242,-0.24998 -3.66667,-0.66667 z m 18.9011,-0.95084 c -0.97379,-2.13723 -0.29267,-4.58988 1.98149,-7.1351 1.70143,-1.90423 2.08569,-2.03662 4.65267,-1.60293 1.53894,0.26 2.79452,0.67136 2.79016,0.91414 -0.005,0.24276 -0.45079,2.0914 -0.99208,4.10806 -1.17717,4.38569 -1.19625,4.66667 -0.31684,4.66667 0.37574,0 1.0115,-0.825 1.4128,-1.83333 0.4013,-1.00834 0.86333,-1.47497 1.02674,-1.03696 0.86203,2.31064 -2.51386,4.5458 -4.24746,2.8122 -0.5219,-0.5219 -0.85013,-0.5219 -1.17268,0 -0.24636,0.39862 -1.33664,0.72476 -2.42287,0.72476 -1.44365,0 -2.17321,-0.43514 -2.71193,-1.61751 z m 4.99216,-0.26455 c 1.41486,-1.5634 2.22904,-7.09099 1.1433,-7.76202 -1.18172,-0.73034 -3.28837,1.53219 -4.04584,4.34522 -1.11073,4.12494 0.52214,6.04712 2.90254,3.4168 z m 57.67451,0.26455 c -0.97379,-2.13723 -0.29267,-4.58988 1.98149,-7.1351 1.70142,-1.90423 2.08568,-2.03662 4.65267,-1.60293 1.53894,0.26 2.79451,0.67136 2.79016,0.91414 -0.005,0.24276 -0.45079,2.0914 -0.99209,4.10806 -1.17716,4.38569 -1.19624,4.66667 -0.31683,4.66667 0.37574,0 1.0115,-0.825 1.4128,-1.83333 0.40129,-1.00834 0.86333,-1.47497 1.02673,-1.03696 0.86204,2.31064 -2.51386,4.5458 -4.24745,2.8122 -0.5219,-0.5219 -0.85013,-0.5219 -1.17268,0 -0.24636,0.39862 -1.33665,0.72476 -2.42287,0.72476 -1.44366,0 -2.17321,-0.43514 -2.71193,-1.61751 z m 4.99216,-0.26455 c 1.41486,-1.5634 2.22904,-7.09099 1.1433,-7.76202 -1.18173,-0.73034 -3.28837,1.53219 -4.04585,4.34522 -1.11072,4.12494 0.52215,6.04712 2.90255,3.4168 z M 172,112.33334 c 0,-8.66667 0.2439,-13.666672 0.66667,-13.666672 0.42276,0 0.66666,5.000002 0.66666,13.666672 C 173.33333,121 173.08943,126 172.66667,126 172.2439,126 172,121 172,112.33334 Z M 137.02283,88.961628 c -4.12132,-4.446973 -4.57717,-13.58298 -0.96216,-19.28326 2.4589,-3.87729 3.87742,-3.947743 1.61078,-0.08 -3.08168,5.25848 -3.05309,13.51294 0.0627,18.104307 2.04718,3.0167 1.61939,3.773833 -0.71132,1.258953 z M 232,90.372908 c 0,-0.275226 0.61392,-1.362586 1.36427,-2.41636 2.17374,-3.05274 3.06072,-8.575313 2.1077,-13.123213 -0.44181,-2.108334 -1.40374,-4.646187 -2.13763,-5.639674 -1.57066,-2.126253 -1.66618,-2.612485 -0.41919,-2.133973 0.50332,0.193146 1.70332,1.799327 2.66666,3.569293 3.20693,5.892194 2.15529,15.055834 -2.17754,18.974347 C 232.63192,90.301822 232,90.648135 232,90.372908 Z M 18.969697,83.696968 c -1.892572,-1.892567 -2.06544,-2.907493 -0.591552,-3.47308 1.50468,-0.5774 2.710534,0.797667 1.732718,1.975867 -0.935469,1.127166 -0.362093,1.800246 1.533582,1.800246 1.991548,0 3.022222,-1.250446 3.022222,-3.666666 0,-2.38846 -1.021595,-3.658087 -2.966667,-3.68694 -1.357707,-0.02013 -1.357925,-0.02507 -0.03333,-0.749547 2.908738,-1.59096 3.708384,-3.759893 2.011727,-5.456547 -1.542279,-1.54228 -3.541277,-0.69024 -3.152468,1.343687 0.257694,1.348033 0.08294,1.63568 -0.880291,1.448973 -1.770819,-0.343253 -1.913713,-1.631546 -0.353968,-3.191293 1.492127,-1.492127 4.041113,-1.779 6.085494,-0.68488 1.606504,0.85978 1.722236,4.115247 0.2004,5.63708 -1.007698,1.0077 -0.982782,1.16358 0.333333,2.08542 2.109285,1.477407 1.933716,5.088433 -0.334133,6.872327 -2.330171,1.832913 -4.60727,1.745153 -6.607064,-0.254647 z m 163.415513,-5.35194 c -1.73183,-3.879873 -3.01298,-7.41972 -2.84701,-7.866333 0.29909,-0.804834 5.79513,10.311246 5.79513,11.72102 0,1.502186 1.24228,-0.653354 3.69094,-6.404307 1.41459,-3.322347 2.75128,-5.619853 3.07898,-5.292153 0.55456,0.554553 -4.58785,12.91468 -5.93262,14.259446 -0.4044,0.404407 -1.78524,-1.936613 -3.78542,-6.417673 z m 21.18612,6.327253 c -3.70376,-1.494653 -4.76423,-7.371626 -2.05546,-11.39116 2.94126,-4.36454 8.66962,-6.619138 11.7951,-4.64238 0.62212,0.393467 1.29468,0.355207 1.84945,-0.105206 1.39043,-1.153961 1.62322,-0.25516 0.79045,3.05204 -0.90424,3.5911 -1.77839,3.985026 -2.0753,0.935226 -0.14382,-1.47738 -0.73827,-2.441513 -1.90819,-3.094893 -5.26841,-2.942302 -12.54688,8.5488 -8.3513,13.18486 1.59853,1.76636 4.64677,1.793053 6.38392,0.05587 1.73976,-1.73976 1.68701,-2.959007 -0.16667,-3.853007 -1.26102,-0.608167 -0.86272,-0.727233 2.5,-0.74734 3.52155,-0.02107 3.85626,0.08509 2.79824,0.887373 -0.66097,0.501214 -1.51,2.02764 -1.88674,3.39206 -0.4623,1.674314 -0.90441,2.261334 -1.35999,1.805754 -0.45559,-0.455587 -1.25093,-0.37454 -2.4466,0.249293 -1.99147,1.039053 -3.76186,1.120973 -5.86691,0.27148 z M 30.458333,84.236115 c -0.943676,-0.94368 -0.409688,-2.236114 0.923883,-2.236114 0.931975,0 1.312003,0.362034 1.166667,1.11142 -0.237962,1.226987 -1.376002,1.83924 -2.09055,1.124694 z M 106,84.000001 c 0,-0.380953 2,-0.666666 4.66667,-0.666666 h 4.66666 V 80.029208 76.725081 L 110.5,76.495008 l -4.83333,-0.23008 4.83333,-0.13246 4.83333,-0.132467 v -3.333333 -3.333333 h -4.66666 C 108,69.333335 106,69.047621 106,68.666668 c 0,-0.388887 2.22222,-0.666667 5.33333,-0.666667 h 5.33334 v 8.333334 8.333333 h -5.33334 c -3.11111,0 -5.33333,-0.27778 -5.33333,-0.666667 z m 12.66667,-0.725493 c 0,-0.70098 0.45,-1.274507 1,-1.274507 0.55,0 1,0.475 1,1.055554 0,1.782 1.52736,0.66192 2.40335,-1.762467 1.02485,-2.836387 1.14801,-5.74632 0.26626,-6.291267 -0.36505,-0.225613 -1.41505,0.400487 -2.33333,1.39134 -1.84843,1.99448 -2.2557,1.406927 -0.63182,-0.911486 1.07735,-1.538134 3.88938,-2.011534 4.64888,-0.782634 0.29743,0.481254 0.71365,0.465314 1.33598,-0.0512 1.42689,-1.184213 3.97734,-0.530906 3.97734,1.018807 0,0.74074 -0.44444,1.333333 -1,1.333333 -0.55,0 -0.96228,-0.501273 -0.91619,-1.113946 0.16694,-2.21898 -1.7434,-0.386954 -2.44958,2.34916 -0.39247,1.520633 -0.86641,3.291266 -1.05321,3.93474 -0.6298,2.169566 1.81299,2.245126 3.52227,0.108946 1.70572,-2.131733 2.16865,-1.439713 0.56678,0.847274 -0.85623,1.222426 -1.65441,1.422846 -5.66667,1.422846 -4.15377,0 -4.67006,-0.1409 -4.67006,-1.274513 z m 23,0.725493 c 0.22661,-0.366666 0.83275,-0.666666 1.34698,-0.666666 0.52004,0 1.2243,-1.109454 1.58696,-2.5 1.6368,-6.2761 2.73272,-10.726094 2.73272,-11.096227 0,-0.22208 -0.4677,-0.403773 -1.03934,-0.403773 -0.57164,0 -0.85394,-0.3 -0.62732,-0.666667 0.62662,-1.013894 12.30792,-0.860174 12.66483,0.166667 0.15931,0.458333 0.0306,1.883333 -0.28601,3.166666 -0.48037,1.947047 -0.58697,2.0519 -0.64392,0.633334 -0.0979,-2.438567 -1.2735,-3.3 -4.50357,-3.3 -2.70851,0 -2.86638,0.11182 -3.52961,2.5 -0.38186,1.375 -0.69596,2.875 -0.698,3.333333 -0.006,1.40916 3.10114,0.923347 4.2642,-0.666667 1.08063,-1.477313 1.09064,-1.464706 0.6615,0.833334 -0.23965,1.283333 -0.6778,2.933333 -0.97365,3.666666 -0.51039,1.26508 -0.54009,1.256547 -0.58018,-0.166666 -0.034,-1.207374 -0.42631,-1.5 -2.01093,-1.5 -1.70702,0 -2.06093,0.332253 -2.66294,2.5 -0.90234,3.249186 -0.88379,3.5 0.25893,3.5 0.52836,0 1.14607,0.3 1.37268,0.666666 0.25753,0.416694 -1.1173,0.666667 -3.66667,0.666667 -2.54936,0 -3.9242,-0.249973 -3.66666,-0.666667 z m 17.66666,-0.725493 c 0,-0.70098 0.45,-1.274507 1,-1.274507 0.55,0 1,0.475 1,1.055554 0,1.782 1.52737,0.66192 2.40336,-1.762467 1.02484,-2.836387 1.148,-5.74632 0.26626,-6.291267 -0.36505,-0.225613 -1.41505,0.400487 -2.33334,1.39134 -1.84842,1.99448 -2.25569,1.406927 -0.63181,-0.911486 1.07735,-1.538134 3.88937,-2.011534 4.64887,-0.782634 0.29744,0.481254 0.71366,0.465314 1.33599,-0.0512 C 168.44955,73.463628 171,74.116935 171,75.666648 c 0,0.74074 -0.44445,1.333333 -1,1.333333 -0.55,0 -0.96229,-0.501273 -0.91619,-1.113946 0.16694,-2.21898 -1.7434,-0.386954 -2.44958,2.34916 -0.39248,1.520633 -0.86642,3.291266 -1.05321,3.93474 -0.6298,2.169566 1.81299,2.245126 3.52227,0.108946 1.70572,-2.131733 2.16864,-1.439713 0.56678,0.847274 -0.85623,1.222426 -1.65442,1.422846 -5.66667,1.422846 -4.15377,0 -4.67007,-0.1409 -4.67007,-1.274513 z m 58.66667,0 c 0,-0.70098 0.45,-1.274507 1,-1.274507 0.55,0 1,0.475 1,1.055554 0,1.782 1.52737,0.66192 2.40335,-1.762467 1.02485,-2.836387 1.14801,-5.74632 0.26626,-6.291267 -0.36504,-0.225613 -1.41504,0.400487 -2.33333,1.39134 -1.84843,1.99448 -2.25569,1.406927 -0.63181,-0.911486 1.07734,-1.538134 3.88937,-2.011534 4.64887,-0.782634 0.29743,0.481254 0.71365,0.465314 1.33599,-0.0512 1.42688,-1.184213 3.97734,-0.530906 3.97734,1.018807 0,0.74074 -0.44445,1.333333 -1,1.333333 -0.55,0 -0.96229,-0.501273 -0.9162,-1.113946 0.16694,-2.21898 -1.7434,-0.386954 -2.44958,2.34916 -0.39247,1.520633 -0.86641,3.291266 -1.0532,3.93474 -0.6298,2.169566 1.81298,2.245126 3.52226,0.108946 1.70572,-2.131733 2.16865,-1.439713 0.56678,0.847274 -0.85622,1.222426 -1.65441,1.422846 -5.66666,1.422846 -4.15378,0 -4.67007,-0.1409 -4.67007,-1.274513 z M 182.238,56.005614 c -3.70377,-1.494655 -4.76423,-7.371626 -2.05547,-11.39116 2.94126,-4.36454 8.66962,-6.619138 11.79511,-4.64238 0.62212,0.393467 1.29468,0.355207 1.84945,-0.105209 1.39043,-1.153959 1.62322,-0.255156 0.79045,3.052043 -0.90425,3.591099 -1.77839,3.985029 -2.0753,0.935223 -0.14383,-1.477378 -0.73827,-2.441511 -1.90819,-3.094887 -5.26841,-2.942305 -12.54688,8.548796 -8.3513,13.184858 1.59853,1.766361 4.64676,1.793052 6.38392,0.0559 1.73976,-1.739757 1.68701,-2.959006 -0.16667,-3.853004 -1.26102,-0.608166 -0.86272,-0.727233 2.5,-0.74734 3.52155,-0.02106 3.85625,0.08508 2.79823,0.887372 -0.66096,0.50121 -1.51,2.027637 -1.88674,3.39206 -0.46229,1.674309 -0.9044,2.26133 -1.35998,1.805749 -0.45559,-0.455581 -1.25094,-0.374539 -2.4466,0.249298 -1.99148,1.039049 -3.76186,1.12097 -5.86691,0.271477 z M 18,55.372128 c 0,-0.345329 1.5,-2.342006 3.333333,-4.437059 2.485669,-2.840513 3.333334,-4.342269 3.333334,-5.905461 0,-2.470195 -1.026298,-3.696274 -3.093989,-3.696274 -1.864415,0 -2.601533,1.093639 -1.572678,2.333333 0.906005,1.09167 0.352927,2.333334 -1.039345,2.333334 C 18.341818,46.000001 18,45.301817 18,44.037803 c 0,-3.781536 5.145338,-5.409784 7.883791,-2.494835 2.377148,2.530359 1.879584,4.748808 -1.980496,8.830274 l -3.430038,3.626759 h 2.661495 c 2.101277,0 2.813769,-0.315735 3.384918,-1.5 l 0.723423,-1.5 0.04512,1.445475 c 0.09721,3.114214 -0.525403,3.554525 -5.026206,3.554525 C 19.917903,56.000001 18,55.717458 18,55.372128 Z m 12.458333,0.197318 c -0.943676,-0.943678 -0.409688,-2.236112 0.923883,-2.236112 0.931975,0 1.312003,0.362034 1.166667,1.111423 -0.237962,1.226986 -1.376002,1.839237 -2.09055,1.124689 z M 152,55.333334 c 0,-0.380952 2,-0.666666 4.66667,-0.666666 h 4.66666 V 51.362541 48.058413 L 156.5,47.828339 151.66667,47.598263 156.5,47.465799 l 4.83333,-0.132465 v -3.333333 -3.333334 h -4.66666 C 154,40.666667 152,40.380953 152,40.000001 c 0,-0.388889 2.22222,-0.666667 5.33333,-0.666667 h 5.33334 v 8.333333 8.333334 h -5.33334 C 154.22222,56.000001 152,55.722223 152,55.333334 Z m 12.66667,-0.72549 c 0,-0.70098 0.45,-1.27451 1,-1.27451 0.55,0 1,0.475 1,1.055556 0,1.781994 1.52736,0.661919 2.40335,-1.762468 1.02485,-2.83639 1.14801,-5.746319 0.26626,-6.291268 -0.36505,-0.225612 -1.41505,0.40049 -2.33333,1.391337 -1.84843,1.99448 -2.2557,1.40693 -0.63182,-0.911486 1.07735,-1.538129 3.88938,-2.01153 4.64888,-0.782632 0.29743,0.481255 0.71365,0.465311 1.33598,-0.05117 1.42689,-1.184218 3.97734,-0.530915 3.97734,1.018802 0,0.74074 -0.44444,1.333333 -1,1.333333 -0.55,0 -0.96228,-0.501276 -0.91619,-1.113947 0.16694,-2.218978 -1.7434,-0.386954 -2.44958,2.349163 -0.39247,1.520631 -0.86641,3.291262 -1.05321,3.934735 -0.6298,2.169572 1.81299,2.24513 3.52227,0.108948 1.70572,-2.131734 2.16865,-1.439711 0.56678,0.847273 -0.85623,1.22243 -1.65441,1.422848 -5.66667,1.422848 -4.15377,0 -4.67006,-0.140902 -4.67006,-1.27451 z m 32,0 c 0,-0.70098 0.45,-1.27451 1,-1.27451 0.55,0 1,0.475 1,1.055556 0,1.781994 1.52736,0.661919 2.40335,-1.762468 1.02485,-2.83639 1.14801,-5.746319 0.26626,-6.291268 -0.36505,-0.225612 -1.41505,0.40049 -2.33333,1.391337 -1.84843,1.99448 -2.2557,1.40693 -0.63182,-0.911486 1.07735,-1.538129 3.88938,-2.01153 4.64888,-0.782632 0.29743,0.481255 0.71365,0.465311 1.33598,-0.05117 1.42689,-1.184218 3.97734,-0.530915 3.97734,1.018802 0,0.74074 -0.44444,1.333333 -1,1.333333 -0.55,0 -0.96228,-0.501276 -0.91619,-1.113947 0.16694,-2.218978 -1.7434,-0.386954 -2.44958,2.349163 -0.39247,1.520631 -0.86641,3.291262 -1.05321,3.934735 -0.6298,2.169572 1.81299,2.24513 3.52227,0.108948 1.70572,-2.131734 2.16865,-1.439711 0.56678,0.847273 -0.85623,1.22243 -1.65441,1.422848 -5.66667,1.422848 -4.15377,0 -4.67006,-0.140902 -4.67006,-1.27451 z m -48,-3.27451 v -2.666666 h -6 c -3.55556,0 -6,-0.271605 -6,-0.666667 0,-0.4 2.66666,-0.666667 6.66666,-0.666667 H 150 v 3.333334 c 0,1.833333 -0.3,3.333333 -0.66667,3.333333 -0.36666,0 -0.66666,-1.2 -0.66666,-2.666667 z M 120.35616,32.29496 c -4.12132,-4.446974 -4.57717,-13.582978 -0.96215,-19.28326 2.4589,-3.8772898 3.87742,-3.9477425 1.61077,-0.08 -3.08167,5.258481 -3.05309,13.512944 0.0627,18.10431 2.04718,3.016696 1.6194,3.773834 -0.71132,1.258951 z m 100.31051,1.411279 c 0,-0.275226 0.61392,-1.362586 1.36427,-2.416356 2.17374,-3.05274 3.06071,-8.575315 2.10769,-13.123216 -0.4418,-2.108333 -1.40373,-4.646185 -2.13762,-5.639671 -1.57066,-2.126254 -1.66618,-2.6124872 -0.4192,-2.133975 0.50333,0.193146 1.70333,1.799329 2.66667,3.569296 3.20693,5.892187 2.15529,15.055833 -2.17754,18.974342 -0.77235,0.698496 -1.40427,1.044806 -1.40427,0.76958 z M 92.778933,25.166667 c -0.72428,-1.925 -2.095833,-5.560718 -3.0479,-8.079373 -1.853393,-4.903066 -2.03116,-5.75396 -1.202133,-5.75396 0.290893,0 0.99232,1.275 1.558733,2.833333 1.009247,2.776692 1.09728,2.837315 4.403554,3.032497 l 3.373713,0.199164 1.15812,-3.032497 c 0.636967,-1.667873 1.41737,-3.032497 1.73422,-3.032497 0.31685,0 0.57609,0.203634 0.57609,0.452519 0,1.03632 -6.366983,16.880814 -6.783423,16.880814 -0.24976,0 -1.0467,-1.575 -1.770974,-3.5 z m 2.841894,-2 C 97.707667,18.064104 97.696387,18 94.711593,18 c -1.49138,0 -2.71308,0.225 -2.714893,0.5 -0.0047,0.73825 2.227133,6.833334 2.502347,6.833334 0.129613,0 0.634413,-0.975 1.12178,-2.166667 z m 73.429463,4.821137 c 5.39876,-0.569778 7.25102,-1.496282 8.36422,-4.183792 0.64166,-1.54909 0.58922,-2.314057 -0.2842,-4.145629 -1.21744,-2.553002 -4.00412,-3.648451 -9.29698,-3.654665 -1.74166,-0.002 -3.16666,-0.303718 -3.16666,-0.670384 0,-0.8784 6.31723,-0.84883 9.53468,0.04463 4.37703,1.215467 6.33042,6.05419 4.0218,9.962368 -1.55309,2.62918 -3.55003,3.340208 -9.08785,3.235816 l -4.80197,-0.09052 z m 23.18771,0.01781 c -3.70377,-1.494654 -4.76423,-7.371625 -2.05547,-11.391159 2.94126,-4.36454 8.66962,-6.6191382 11.79511,-4.64238 0.62212,0.393467 1.29468,0.355207 1.84945,-0.105209 1.39043,-1.153959 1.62322,-0.255156 0.79045,3.052043 -0.90425,3.591099 -1.77839,3.985029 -2.0753,0.935223 -0.14383,-1.477378 -0.73827,-2.441511 -1.90819,-3.094887 -5.26841,-2.9423048 -12.54688,8.548796 -8.3513,13.184857 1.59853,1.766362 4.64676,1.793053 6.38392,0.0559 1.73976,-1.739756 1.68701,-2.959006 -0.16667,-3.853003 -1.26102,-0.608167 -0.86272,-0.727233 2.5,-0.747341 3.52155,-0.02106 3.85625,0.08508 2.79823,0.887373 -0.66096,0.50121 -1.51,2.027637 -1.88674,3.392059 -0.46229,1.67431 -0.9044,2.26133 -1.35998,1.80575 -0.45559,-0.455582 -1.25094,-0.374539 -2.4466,0.249298 -1.99148,1.039049 -3.76186,1.12097 -5.86691,0.271476 z m 48.09441,-2.280371 c -0.97299,-1.660287 -1.57812,-3.327675 -1.34473,-3.705306 0.76576,-1.239027 2.11641,-0.720005 2.96331,1.138724 l 0.83167,1.825325 1.61961,-3.407694 c 1.72399,-3.627311 7.80864,-10.242954 9.42082,-10.242954 0.53127,0 -0.43089,1.35757 -2.13814,3.016823 -1.92745,1.873267 -3.86419,4.716215 -5.10934,7.5 -3.57104,7.983825 -3.76482,8.104108 -6.2432,3.875085 z M 18,27.650166 c 0,-0.192408 0.75,-0.634983 1.666667,-0.983499 1.608208,-0.611439 1.666666,-0.845141 1.666666,-6.662867 v -6.029202 l -1.666666,0.418306 C 18.727983,14.628499 18,14.522396 18,14.14999 c 0,-0.363671 0.675,-0.807614 1.5,-0.986541 0.825,-0.178926 2.025,-0.545996 2.666667,-0.815711 1.070519,-0.449976 1.166666,0.119842 1.166666,6.91427 0,6.960214 0.08003,7.404659 1.333334,7.404659 C 25.4,26.666667 26,26.966667 26,27.333334 26,27.703704 24.222222,28 22,28 19.8,28 18,27.842575 18,27.650166 Z m 12.458333,-0.08072 c -0.943676,-0.943677 -0.409688,-2.236111 0.923883,-2.236111 0.931975,0 1.312003,0.362033 1.166667,1.111422 -0.237962,1.226986 -1.376002,1.839237 -2.09055,1.124689 z M 102,26.607844 c 0,-0.700981 0.45,-1.27451 1,-1.27451 0.55,0 1,0.475 1,1.055555 0,1.781995 1.52737,0.661919 2.40335,-1.762468 1.02485,-2.836389 1.14801,-5.746319 0.26626,-6.291267 -0.36504,-0.225612 -1.41504,0.40049 -2.33333,1.391336 -1.84843,1.99448 -2.25569,1.40693 -0.63181,-0.911486 1.07734,-1.538128 3.88937,-2.011529 4.64887,-0.782632 0.29743,0.481256 0.71365,0.465312 1.33599,-0.05117 1.42688,-1.184218 3.97734,-0.530915 3.97734,1.018801 0,0.740741 -0.44445,1.333334 -1,1.333334 -0.55,0 -0.96229,-0.501276 -0.9162,-1.113947 0.16694,-2.218979 -1.7434,-0.386955 -2.44958,2.349162 -0.39247,1.520631 -0.86641,3.291263 -1.0532,3.934735 -0.6298,2.169572 1.81298,2.24513 3.52226,0.108948 1.70572,-2.131734 2.16865,-1.43971 0.56678,0.847274 -0.85622,1.222429 -1.65441,1.422847 -5.66666,1.422847 -4.15378,0 -4.67007,-0.140901 -4.67007,-1.274509 z m 23,0.72549 c 0.22661,-0.366667 0.83275,-0.666667 1.34698,-0.666667 0.52005,0 1.22431,-1.109453 1.58696,-2.5 1.63681,-6.276102 2.73273,-10.726094 2.73273,-11.09623 0,-0.222073 -0.46771,-0.40377 -1.03935,-0.40377 -0.57164,0 -0.85393,-0.3 -0.62732,-0.666667 0.62662,-1.013894 12.30792,-0.86017 12.66483,0.166667 0.15932,0.458333 0.0306,1.883333 -0.28601,3.166667 -0.48037,1.947048 -0.58697,2.051897 -0.64391,0.633333 -0.0979,-2.438565 -1.27351,-3.3 -4.50358,-3.3 -2.7085,0 -2.86638,0.111823 -3.52961,2.5 -0.38185,1.375 -0.69596,2.875 -0.698,3.333333 -0.006,1.409162 3.10114,0.923346 4.26421,-0.666666 1.08062,-1.477314 1.09063,-1.46471 0.66149,0.833333 -0.23965,1.283333 -0.67779,2.933333 -0.97365,3.666667 -0.51038,1.265078 -0.54008,1.256546 -0.58018,-0.166667 -0.034,-1.207377 -0.42631,-1.5 -2.01092,-1.5 -1.70703,0 -2.06094,0.332251 -2.66295,2.5 -0.90234,3.249184 -0.88379,3.5 0.25893,3.5 0.52836,0 1.14607,0.3 1.37268,0.666667 C 132.59087,27.75003 131.21603,28 128.66667,28 126.1173,28 124.74247,27.75003 125,27.333334 Z m 18.33333,-0.72549 c 0,-0.700981 0.45,-1.27451 1,-1.27451 0.55,0 1,0.475 1,1.055555 0,1.781995 1.52737,0.661919 2.40336,-1.762468 1.02484,-2.836389 1.148,-5.746319 0.26626,-6.291267 -0.36505,-0.225612 -1.41505,0.40049 -2.33334,1.391336 -1.84842,1.99448 -2.25569,1.40693 -0.63181,-0.911486 1.07735,-1.538128 3.88937,-2.011529 4.64887,-0.782632 0.29744,0.481256 0.71366,0.465312 1.33599,-0.05117 C 152.44955,16.796981 155,17.450284 155,19 c 0,0.740741 -0.44445,1.333334 -1,1.333334 -0.55,0 -0.96229,-0.501276 -0.91619,-1.113947 0.16694,-2.218979 -1.7434,-0.386955 -2.44958,2.349162 -0.39248,1.520631 -0.86642,3.291263 -1.05321,3.934735 -0.6298,2.169572 1.81299,2.24513 3.52227,0.108948 1.70572,-2.131734 2.16864,-1.43971 0.56678,0.847274 -0.85623,1.222429 -1.65442,1.422847 -5.66667,1.422847 -4.15377,0 -4.67007,-0.140901 -4.67007,-1.274509 z m 63.33334,0 c 0,-0.700981 0.45,-1.27451 1,-1.27451 0.55,0 1,0.475 1,1.055555 0,1.781995 1.52736,0.661919 2.40335,-1.762468 1.02485,-2.836389 1.14801,-5.746319 0.26626,-6.291267 -0.36505,-0.225612 -1.41505,0.40049 -2.33333,1.391336 -1.84843,1.99448 -2.2557,1.40693 -0.63182,-0.911486 1.07735,-1.538128 3.88938,-2.011529 4.64888,-0.782632 0.29743,0.481256 0.71365,0.465312 1.33598,-0.05117 1.42689,-1.184218 3.97734,-0.530915 3.97734,1.018801 0,0.740741 -0.44444,1.333334 -1,1.333334 -0.55,0 -0.96228,-0.501276 -0.91619,-1.113947 0.16694,-2.218979 -1.7434,-0.386955 -2.44958,2.349162 -0.39247,1.520631 -0.86641,3.291263 -1.05321,3.934735 -0.6298,2.169572 1.81299,2.24513 3.52227,0.108948 1.70572,-2.131734 2.16865,-1.43971 0.56678,0.847274 -0.85623,1.222429 -1.65441,1.422847 -5.66667,1.422847 -4.15377,0 -4.67006,-0.140901 -4.67006,-1.274509 z"
       id="path72" />
  </g>
</svg>
