<?xml version="1.0" encoding="UTF-8" standalone="no"?>
<svg
   xmlns:dc="http://purl.org/dc/elements/1.1/"
   xmlns:cc="http://creativecommons.org/ns#"
   xmlns:rdf="http://www.w3.org/1999/02/22-rdf-syntax-ns#"
   xmlns:svg="http://www.w3.org/2000/svg"
   xmlns="http://www.w3.org/2000/svg"
   xmlns:sodipodi="http://sodipodi.sourceforge.net/DTD/sodipodi-0.dtd"
   xmlns:inkscape="http://www.inkscape.org/namespaces/inkscape"
   version="1.1"
   id="svg388"
   width="285.30267"
   height="417.3627"
   viewBox="0 0 285.30268 417.3627"
   sodipodi:docname="10-1-6.svg"
   inkscape:version="1.0.1 (c497b03c, 2020-09-10)">
  <metadata
     id="metadata394">
    <rdf:RDF>
      <cc:Work
         rdf:about="">
        <dc:format>image/svg+xml</dc:format>
        <dc:type
           rdf:resource="http://purl.org/dc/dcmitype/StillImage" />
        <dc:title></dc:title>
      </cc:Work>
    </rdf:RDF>
  </metadata>
  <defs
     id="defs392" />
  <sodipodi:namedview
     pagecolor="#ffffff"
     bordercolor="#666666"
     borderopacity="1"
     objecttolerance="10"
     gridtolerance="10"
     guidetolerance="10"
     inkscape:pageopacity="0"
     inkscape:pageshadow="2"
     inkscape:window-width="740"
     inkscape:window-height="480"
     id="namedview390"
     showgrid="false"
     fit-margin-top="0"
     fit-margin-left="0"
     fit-margin-right="0"
     fit-margin-bottom="0"
     inkscape:pagecheckerboard="true"
     inkscape:zoom="1.4888393"
     inkscape:cx="252.13293"
     inkscape:cy="271.14641"
     inkscape:window-x="0"
     inkscape:window-y="25"
     inkscape:window-maximized="0"
     inkscape:current-layer="g396" />
  <g
     inkscape:groupmode="layer"
     inkscape:label="Image"
     id="g396"
     transform="translate(-12.666666,-14.646694)">
    <path
       style="fill:#1c1c1c;stroke-width:0.666667"
       d="m 187.35453,431.78951 c -0.0117,-0.29911 0.27331,-1.09412 0.63326,-1.7667 0.49751,-0.92962 0.39085,-1.32402 -0.44481,-1.64469 -0.78719,-0.30207 -0.89485,-0.62625 -0.37922,-1.14189 0.92775,-0.92774 2.16957,-0.1594 2.16957,1.34236 0,1.14095 -1.93696,4.28398 -1.9788,3.21092 z m -7.18787,-3.5824 C 182.39204,427.62557 181.48024,426 178.92867,426 c -1.78827,0 -2.31277,-0.23946 -2.04618,-0.93417 0.64031,-1.66862 5.22534,-7.7325 5.84671,-7.7325 0.33227,0 0.60413,1.775 0.60413,3.94445 0,2.53177 0.29845,4.06487 0.83333,4.2807 0.66667,0.26901 0.66667,0.34678 0,0.38889 -0.45833,0.0289 -0.83333,0.47763 -0.83333,0.99708 0,0.51944 0.375,1.09576 0.83333,1.2807 0.45834,0.18494 -0.51666,0.32514 -2.16666,0.31155 -1.65,-0.0136 -2.475,-0.1619 -1.83334,-0.32959 z m 1.1427,-5.37378 -0.024,-2.5 -1.63938,2 c -2.06228,2.51593 -2.05894,3 0.0207,3 1.48575,0 1.66407,-0.27138 1.6427,-2.5 z m 14.1573,5.03334 c -1.09837,-1.09838 -1.00324,-2.86806 0.20822,-3.87349 0.76176,-0.63221 0.82505,-1.05746 0.25889,-1.73964 -1.15533,-1.39209 -0.14573,-4.17494 1.68095,-4.63341 3.15512,-0.79188 5.68847,2.14334 3.62814,4.20368 -0.56508,0.56508 -0.48053,1.03376 0.33333,1.84762 2.38369,2.38369 0.86257,4.99524 -2.90953,4.99524 -1.32,0 -2.76,-0.36 -3.2,-0.8 z m 5.66258,-0.96308 C 201.60061,425.67523 199.76284,424 197.9439,424 c -1.45334,0 -2.19474,1.89447 -1.20711,3.0845 1.05081,1.26614 3.88191,1.14954 4.39245,-0.18091 z m -0.594,-6.70429 c 0.21924,-1.47983 -1.25651,-2.39233 -2.86858,-1.77372 -1.35138,0.51857 -1.26358,2.02159 0.16667,2.85313 1.57263,0.91433 2.45901,0.56022 2.70191,-1.07941 z M 106,403.58999 v -8.41 l -1.7062,1.11794 c -0.93841,0.61487 -2.21341,1.00928 -2.83334,0.87647 -0.84091,-0.18015 -0.59284,-0.52534 0.9769,-1.35933 1.15722,-0.61482 2.50545,-2.02473 2.99607,-3.13313 1.09057,-2.46378 1.62416,-2.53799 2.18489,-0.30387 0.23625,0.94128 1.31687,2.21628 2.40139,2.83334 1.08452,0.61706 1.97375,1.34692 1.97607,1.62192 0.007,0.83496 -1.61164,0.56127 -3.18078,-0.5378 l -1.48167,-1.0378 v 8.37114 c 0,5.13631 -0.25762,8.37113 -0.66667,8.37113 C 106.25745,412 106,408.75222 106,403.58999 Z m 78,3.27145 c 0,-0.25954 1.11088,-1.60954 2.46863,-3 l 2.46863,-2.52811 -2.59198,-2.65442 c -3.38165,-3.46313 -2.46284,-4.38194 1.00029,-1.0003 L 190,400.2706 l 2.66666,-2.60393 c 3.16234,-3.08794 3.6519,-1.74664 0.53589,1.46826 l -2.13077,2.1984 2.13077,2.19841 c 3.11601,3.21489 2.62645,4.5562 -0.53589,1.46826 L 190,402.39607 187.47189,404.8647 C 185.02518,407.25385 184,407.84345 184,406.86144 Z M 15.636363,377.69697 c -1.995131,-1.99513 -2.044689,-2.99806 -0.260242,-5.26661 1.270828,-1.6156 1.296333,-1.86337 0.333333,-3.23825 C 14.307807,367.19098 14.39665,365.60335 16,364 c 1.594639,-1.59464 4.829739,-1.74169 6.285714,-0.28571 1.334497,1.33449 1.346174,3.89192 0.02381,5.21428 -0.920635,0.92064 -0.887043,1.16058 0.333333,2.38096 1.346281,1.34628 1.787872,4.34815 0.846934,5.75734 -0.732097,1.09641 -3.215026,2.26646 -4.8096,2.26646 -0.774105,0 -2.143828,-0.73636 -3.043828,-1.63636 z m 6.337057,-0.66494 c 1.250524,-1.50679 0.564485,-3.17115 -1.900546,-4.61081 -2.195912,-1.28248 -2.280336,-1.28449 -3.164488,-0.0753 -1.122372,1.53493 -1.17272,3.78979 -0.108386,4.85412 1.10461,1.10461 4.200698,1.00409 5.17342,-0.16797 z M 21.2,368.53333 c 1.257578,-1.25758 0.942251,-3.74362 -0.578039,-4.55726 -1.071956,-0.57369 -1.738299,-0.50145 -3,0.32525 -2.074311,1.35914 -2.040294,1.94203 0.211372,3.62195 2.171215,1.61991 2.328347,1.64838 3.366667,0.61006 z m 83.70466,10.13895 c -3.70376,-1.49465 -4.76423,-7.37163 -2.05546,-11.39116 2.94126,-4.36454 8.66962,-6.61914 11.7951,-4.64238 0.62212,0.39347 1.29468,0.35521 1.84945,-0.10521 1.39043,-1.15396 1.62322,-0.25516 0.79045,3.05204 -0.90424,3.5911 -1.77839,3.98503 -2.0753,0.93523 -0.14382,-1.47738 -0.73827,-2.44151 -1.90819,-3.09489 -5.26841,-2.9423 -12.54688,8.5488 -8.3513,13.18486 1.59853,1.76636 4.64677,1.79305 6.38392,0.0559 1.73976,-1.73976 1.68701,-2.959 -0.16667,-3.853 -1.26102,-0.60817 -0.86272,-0.72724 2.5,-0.74734 3.52155,-0.0211 3.85626,0.0851 2.79824,0.88737 -0.66097,0.50121 -1.51,2.02764 -1.88674,3.39206 -0.4623,1.67431 -0.90441,2.26133 -1.35999,1.80575 -0.45559,-0.45558 -1.25093,-0.37454 -2.4466,0.2493 -1.99147,1.03905 -3.76186,1.12097 -5.86691,0.27148 z M 27.124999,378.23611 C 26.181323,377.29243 26.715311,376 28.048882,376 c 0.931975,0 1.312003,0.36203 1.166667,1.11142 -0.237962,1.22699 -1.376002,1.83924 -2.09055,1.12469 z m 92.861411,-1.27185 c -0.47899,-1.25984 -0.27173,-3.19968 0.79729,-7.46196 1.04548,-4.16845 1.22884,-5.83145 0.66375,-6.01981 C 119.88338,362.96113 120.72007,362 122.73799,362 c 1.52153,0 1.97429,0.25287 1.70575,0.95266 -0.20106,0.52396 -0.55969,1.98743 -0.79695,3.25215 -0.40554,2.16171 -0.33429,2.28094 1.18902,1.98974 3.34294,-0.63904 4.86262,3.20978 2.82395,7.15213 -1.89144,3.65763 -6.52625,4.63468 -7.67335,1.61758 z m 5.27812,-1.27796 c 1.1721,-2.44551 1.33489,-6.45463 0.27713,-6.82543 -2.05533,-0.72053 -5.23926,6.26504 -3.8673,8.48491 0.76904,1.24433 2.60519,0.39561 3.59017,-1.65948 z M 177.66666,378 c 0.22662,-0.36667 0.83276,-0.66667 1.34698,-0.66667 0.52005,0 1.22431,-1.10945 1.58696,-2.5 1.63681,-6.2761 2.73273,-10.72609 2.73273,-11.09622 0,-0.22208 -0.46771,-0.40378 -1.03935,-0.40378 -0.57164,0 -0.85393,-0.3 -0.62732,-0.66666 0.62662,-1.0139 12.30792,-0.86018 12.66484,0.16666 0.15931,0.45834 0.0306,1.88334 -0.28602,3.16667 -0.48036,1.94705 -0.58696,2.0519 -0.64391,0.63333 -0.0979,-2.43856 -1.27351,-3.3 -4.50357,-3.3 -2.70851,0 -2.86638,0.11182 -3.52962,2.5 -0.38185,1.375 -0.69596,2.875 -0.698,3.33334 -0.006,1.40916 3.10114,0.92334 4.26421,-0.66667 1.08063,-1.47731 1.09063,-1.46471 0.66149,0.83333 -0.23964,1.28334 -0.67779,2.93334 -0.97364,3.66667 -0.51039,1.26508 -0.54009,1.25655 -0.58018,-0.16667 -0.034,-1.20737 -0.42632,-1.5 -2.01093,-1.5 -1.70703,0 -2.06093,0.33226 -2.66295,2.5 -0.90234,3.24919 -0.88378,3.5 0.25894,3.5 0.52836,0 1.14606,0.3 1.37268,0.66667 0.25753,0.41669 -1.1173,0.66667 -3.66667,0.66667 -2.54937,0 -3.9242,-0.24998 -3.66667,-0.66667 z m 18.98642,-1.03574 c -0.479,-1.25984 -0.27173,-3.19968 0.79728,-7.46196 1.04548,-4.16845 1.22884,-5.83145 0.66376,-6.01981 C 196.55005,362.96113 197.38674,362 199.40466,362 c 1.52153,0 1.97429,0.25287 1.70575,0.95266 -0.20106,0.52396 -0.55969,1.98743 -0.79695,3.25215 -0.40554,2.16171 -0.33429,2.28094 1.18902,1.98974 3.34294,-0.63904 4.86262,3.20978 2.82395,7.15213 -1.89144,3.65763 -6.52625,4.63468 -7.67335,1.61758 z m 5.27812,-1.27796 c 1.1721,-2.44551 1.33488,-6.45463 0.27713,-6.82543 -2.05533,-0.72053 -5.23926,6.26504 -3.86731,8.48491 0.76904,1.24433 2.6052,0.39561 3.59018,-1.65948 z m 4.63656,1.36286 c -0.97379,-2.13723 -0.29267,-4.58988 1.98149,-7.1351 1.70143,-1.90423 2.08569,-2.03662 4.65267,-1.60293 1.53894,0.26 2.79452,0.67136 2.79016,0.91414 -0.005,0.24276 -0.45079,2.0914 -0.99208,4.10806 -1.17717,4.38569 -1.19625,4.66667 -0.31684,4.66667 0.37574,0 1.0115,-0.825 1.4128,-1.83333 0.4013,-1.00834 0.86333,-1.47497 1.02674,-1.03696 0.86203,2.31064 -2.51386,4.5458 -4.24746,2.8122 -0.5219,-0.5219 -0.85013,-0.5219 -1.17268,0 -0.24636,0.39862 -1.33664,0.72476 -2.42287,0.72476 -1.44365,0 -2.17321,-0.43514 -2.71193,-1.61751 z m 4.99216,-0.26455 c 1.41486,-1.5634 2.22904,-7.09099 1.1433,-7.76202 -1.18172,-0.73034 -3.28837,1.53219 -4.04584,4.34522 -1.11073,4.12494 0.52214,6.04712 2.90254,3.4168 z M 97.333331,374 v -2.66667 h -6 c -3.555553,0 -5.999999,-0.2716 -5.999999,-0.66666 0,-0.4 2.666666,-0.66667 6.666666,-0.66667 h 6.666667 v 3.33333 c 0,1.83334 -0.3,3.33334 -0.666667,3.33334 -0.366667,0 -0.666667,-1.2 -0.666667,-2.66667 z m 77.333329,0 v -2.66667 h -6 c -3.55555,0 -6,-0.2716 -6,-0.66666 0,-0.4 2.66667,-0.66667 6.66667,-0.66667 H 176 v 3.33333 c 0,1.83334 -0.3,3.33334 -0.66667,3.33334 -0.36667,0 -0.66667,-1.2 -0.66667,-2.66667 z m 83.31979,-8.6348 c 0.63459,-1.19053 0.66426,-1.70385 0.10914,-1.88889 -1.12382,-0.3746 -0.92764,-2.14298 0.23774,-2.14298 1.38964,0 1.30733,3.58322 -0.10915,4.75171 -1.01422,0.83665 -1.03457,0.77505 -0.23773,-0.71984 z m -8.65312,-2.00435 c -1.07434,-0.26784 -1.74584,-0.96528 -1.88944,-1.96244 -0.1528,-1.06111 0.0565,-1.44954 0.66667,-1.23684 0.48919,0.17055 0.79631,0.82564 0.68248,1.45576 -0.16228,0.89838 0.19748,1.0993 1.66667,0.93084 1.58253,-0.18146 1.87362,-0.52089 1.87362,-2.18478 0,-1.54684 -0.35796,-2.05852 -1.66667,-2.38238 -1.62573,-0.4023 -1.63133,-0.42414 -0.22825,-0.88877 1.87776,-0.62182 2.52818,-2.41136 1.31672,-3.62282 -1.07267,-1.07267 -2.4218,-0.56949 -2.4218,0.90326 0,1.07199 -1.04796,1.29509 -1.63345,0.34773 -0.58945,-0.95375 1.55367,-2.72041 3.30011,-2.72041 1.54404,0 3.66667,1.54373 3.66667,2.66667 0,0.31428 -0.50418,1.07561 -1.1204,1.69183 -1.04943,1.04943 -1.04943,1.16012 0,1.74741 0.61622,0.34486 1.1204,1.32537 1.1204,2.17892 0,2.42806 -2.39401,3.80881 -5.33333,3.07602 z m 18.25672,-0.32008 c -0.54839,-1.4291 0.23782,-4.25988 1.7876,-6.43636 0.70896,-0.99563 1.28901,-1.98892 1.28901,-2.20732 0,-0.78515 -4.56317,-0.37821 -4.89181,0.43624 -0.18494,0.45834 -0.35994,-0.0237 -0.38889,-1.07132 -0.0407,-1.47379 0.18592,-1.81312 1.00189,-1.5 0.57999,0.22256 2.40594,0.40466 4.05768,0.40466 h 3.00314 l -2.05767,2.798 c -1.4345,1.95062 -2.05767,3.55392 -2.05767,5.29399 0,2.64069 -1.06878,4.03982 -1.74328,2.28211 z m -160.90221,-9.50142 c 0.027,-0.68732 40.29223,-31.81476 41.44919,-32.0427 0.47463,-0.0935 9.27439,6.35649 19.55503,14.33333 23.96338,18.59342 22.56556,17.46795 22.1774,17.85612 -0.18376,0.18375 -9.60229,-6.83805 -20.93008,-15.60401 l -20.596,-15.93809 -2.33836,1.8161 C 130.807,335.76369 108.15266,353.19101 107.5,353.58089 c -0.45834,0.27379 -0.82381,0.2551 -0.81216,-0.0415 z m 147.31215,-12.01124 c 0,-0.25954 1.11089,-1.60954 2.46864,-3 L 258.93726,336 l -2.59199,-2.65443 c -3.38164,-3.46312 -2.46283,-4.38194 1.0003,-1.00029 l 2.65442,2.59199 2.66667,-2.60394 c 3.16234,-3.08794 3.65189,-1.74663 0.53589,1.46826 L 261.07177,336 l 2.13078,2.19841 c 3.116,3.21489 2.62645,4.5562 -0.53589,1.46826 l -2.66667,-2.60394 -2.5281,2.46864 c -2.44672,2.38914 -3.4719,2.97874 -3.4719,1.99674 z M 16.889576,312.95264 c -0.662713,-1.72701 0.902998,-6.78526 3.114634,-10.06229 L 21.954888,300 h -3.277651 c -2.418263,0 -3.455819,0.30589 -3.957171,1.16667 -0.61221,1.0511 -0.68153,1.02348 -0.699794,-0.27881 -0.04391,-3.13077 0.441376,-3.41639 5.18701,-3.05295 2.452662,0.18784 4.572977,0.44042 4.711813,0.56129 0.138837,0.12087 -0.734207,1.75731 -1.940099,3.63653 -1.624828,2.53208 -2.294346,4.46675 -2.585762,7.47196 -0.391313,4.03538 -1.625834,5.73552 -2.503658,3.44795 z m 128.681754,0.38631 c -3.70377,-1.49466 -4.76423,-7.37163 -2.05547,-11.39116 2.94126,-4.36454 8.66962,-6.61914 11.79511,-4.64238 0.62212,0.39346 1.29468,0.3552 1.84945,-0.10521 1.39043,-1.15396 1.62322,-0.25516 0.79045,3.05204 -0.90425,3.5911 -1.77839,3.98503 -2.0753,0.93523 -0.14383,-1.47738 -0.73827,-2.44152 -1.90819,-3.0949 -5.26841,-2.9423 -12.54688,8.5488 -8.3513,13.18486 1.59853,1.76636 4.64676,1.79306 6.38392,0.0559 1.73976,-1.73976 1.68701,-2.95901 -0.16667,-3.85301 -1.26102,-0.60816 -0.86272,-0.72723 2.5,-0.74734 3.52155,-0.0211 3.85625,0.0851 2.79823,0.88738 -0.66096,0.50121 -1.51,2.02764 -1.88674,3.39206 -0.46229,1.67431 -0.9044,2.26133 -1.35998,1.80575 -0.45559,-0.45559 -1.25094,-0.37454 -2.4466,0.24929 -1.99148,1.03906 -3.76186,1.12098 -5.86691,0.27148 z M 26.458333,312.90278 c -0.943677,-0.94368 -0.409688,-2.23611 0.923882,-2.23611 0.931975,0 1.312004,0.36203 1.166667,1.11142 -0.237962,1.22698 -1.376001,1.83924 -2.090549,1.12469 z M 159.9011,311.71583 c -0.9738,-2.13724 -0.29268,-4.58988 1.98148,-7.1351 1.70143,-1.90424 2.08569,-2.03662 4.65268,-1.60293 1.53894,0.26 2.79451,0.67136 2.79016,0.91413 -0.005,0.24277 -0.4508,2.0914 -0.99209,4.10807 -1.17717,4.38569 -1.19625,4.66667 -0.31683,4.66667 0.37574,0 1.0115,-0.825 1.4128,-1.83334 0.40129,-1.00833 0.86332,-1.47496 1.02673,-1.03696 0.86203,2.31065 -2.51386,4.5458 -4.24745,2.81221 -0.5219,-0.5219 -0.85014,-0.5219 -1.17268,0 -0.24636,0.39861 -1.33665,0.72475 -2.42288,0.72475 -1.44365,0 -2.1732,-0.43513 -2.71192,-1.6175 z m 4.99216,-0.26455 c 1.41486,-1.56341 2.22904,-7.09099 1.1433,-7.76202 -1.18173,-0.73035 -3.28838,1.53219 -4.04585,4.34522 -1.11073,4.12494 0.52215,6.04711 2.90255,3.4168 z m 82.10673,1.21539 C 247.22661,312.3 247.83275,312 248.34697,312 c 0.52005,0 1.22431,-1.10945 1.58696,-2.5 1.63681,-6.2761 2.73273,-10.72609 2.73273,-11.09623 0,-0.22208 -0.46771,-0.40377 -1.03935,-0.40377 -0.57164,0 -0.85393,-0.3 -0.62732,-0.66667 0.62662,-1.01389 12.30792,-0.86017 12.66484,0.16667 0.15931,0.45833 0.0306,1.88333 -0.28602,3.16667 -0.48036,1.94704 -0.58696,2.0519 -0.64391,0.63333 -0.0979,-2.43857 -1.27351,-3.3 -4.50357,-3.3 -2.70851,0 -2.86638,0.11182 -3.52962,2.5 -0.38185,1.375 -0.69596,2.875 -0.698,3.33333 -0.006,1.40916 3.10114,0.92335 4.26421,-0.66666 1.08063,-1.47732 1.09063,-1.46471 0.66149,0.83333 -0.23964,1.28333 -0.67779,2.93333 -0.97364,3.66667 -0.51039,1.26508 -0.54009,1.25654 -0.58018,-0.16667 -0.034,-1.20737 -0.42632,-1.5 -2.01093,-1.5 -1.70703,0 -2.06093,0.33225 -2.66295,2.5 -0.90234,3.24919 -0.88378,3.5 0.25894,3.5 0.52836,0 1.14606,0.3 1.37268,0.66667 0.25753,0.41669 -1.1173,0.66666 -3.66667,0.66666 -2.54937,0 -3.9242,-0.24997 -3.66667,-0.66666 z m 18.23444,-0.95084 c -0.9738,-2.13724 -0.29268,-4.58988 1.98148,-7.1351 1.70143,-1.90424 2.08569,-2.03662 4.65268,-1.60293 1.53894,0.26 2.79451,0.67136 2.79016,0.91413 -0.005,0.24277 -0.4508,2.0914 -0.99209,4.10807 -1.17717,4.38569 -1.19625,4.66667 -0.31683,4.66667 0.37574,0 1.0115,-0.825 1.4128,-1.83334 0.40129,-1.00833 0.86332,-1.47496 1.02673,-1.03696 0.86203,2.31065 -2.51386,4.5458 -4.24745,2.81221 -0.5219,-0.5219 -0.85014,-0.5219 -1.17268,0 -0.24636,0.39861 -1.33665,0.72475 -2.42288,0.72475 -1.44365,0 -2.1732,-0.43513 -2.71192,-1.6175 z m 4.99216,-0.26455 c 1.41486,-1.56341 2.22904,-7.09099 1.1433,-7.76202 -1.18173,-0.73035 -3.28838,1.53219 -4.04585,4.34522 -1.11073,4.12494 0.52215,6.04711 2.90255,3.4168 z m 7.6745,0.26455 c -0.97379,-2.13724 -0.29267,-4.58988 1.98149,-7.1351 1.70143,-1.90424 2.08569,-2.03662 4.65267,-1.60293 1.53894,0.26 2.79452,0.67136 2.79016,0.91413 -0.005,0.24277 -0.45079,2.0914 -0.99208,4.10807 -1.17717,4.38569 -1.19625,4.66667 -0.31684,4.66667 0.37574,0 1.0115,-0.825 1.4128,-1.83334 0.4013,-1.00833 0.86333,-1.47496 1.02674,-1.03696 0.86203,2.31065 -2.51386,4.5458 -4.24746,2.81221 -0.5219,-0.5219 -0.85013,-0.5219 -1.17268,0 -0.24636,0.39861 -1.33664,0.72475 -2.42287,0.72475 -1.44365,0 -2.17321,-0.43513 -2.71193,-1.6175 z m 4.99216,-0.26455 c 1.41486,-1.56341 2.22904,-7.09099 1.1433,-7.76202 -1.18172,-0.73035 -3.28837,1.53219 -4.04584,4.34522 -1.11073,4.12494 0.52214,6.04711 2.90254,3.4168 z M 138,308.66667 V 306 h -6 c -3.55556,0 -6,-0.27161 -6,-0.66667 0,-0.4 2.66666,-0.66666 6.66666,-0.66666 h 6.66667 V 308 c 0,1.83333 -0.3,3.33333 -0.66667,3.33333 -0.36666,0 -0.66666,-1.2 -0.66666,-2.66666 z m 105.33333,0 V 306 h -6 c -3.55555,0 -6,-0.27161 -6,-0.66667 0,-0.4 2.66667,-0.66666 6.66666,-0.66666 h 6.66667 V 308 c 0,1.83333 -0.3,3.33333 -0.66667,3.33333 -0.36666,0 -0.66666,-1.2 -0.66666,-2.66666 z m -94.31501,-20.89183 c 0.72326,-0.49051 13.4369,-7.72749 28.25254,-16.08219 26.30518,-14.83378 26.97811,-15.16674 28.66666,-14.184 0.95103,0.5535 13.27914,7.521 27.39581,15.48334 23.82991,13.44096 29.16199,16.63956 25.66666,15.39688 -0.73333,-0.26072 -13.29344,-7.23703 -27.91136,-15.50291 -24.43775,-13.81862 -26.71354,-14.96713 -28.2607,-14.2622 -0.92547,0.42167 -13.34104,7.35383 -27.59017,15.40479 -14.24913,8.05096 -26.27357,14.63812 -26.72097,14.63812 -0.44741,0 -0.22171,-0.40133 0.50153,-0.89183 z M 16.356431,247.08371 c -1.980331,-1.98034 -2.792571,-6.74217 -1.709703,-10.0233 1.252348,-3.79465 4.58236,-5.82604 7.63208,-4.65575 1.393305,0.53466 1.404048,3.59534 0.01262,3.59534 -0.687209,0 -0.970901,-0.48955 -0.833333,-1.43803 0.479857,-3.30844 -3.692117,-1.1457 -4.519954,2.34314 -0.418954,1.76564 -0.351363,1.85122 0.923278,1.16906 2.946545,-1.57695 6.13858,1.01303 6.13858,4.98077 0,2.283 -0.348616,3.12251 -1.756572,4.23001 -2.291094,1.80217 -3.939943,1.74581 -5.886996,-0.20124 z m 4.953446,-1.03988 c 1.548735,-2.89384 0.347529,-7.37716 -1.976544,-7.37716 -1.515203,0 -2.666667,1.87112 -2.666667,4.33333 0,2.46221 1.151464,4.33333 2.666667,4.33333 0.707532,0 1.596977,-0.58028 1.976544,-1.2895 z M 136.238,248.00561 c -3.70377,-1.49465 -4.76424,-7.37162 -2.05547,-11.39116 2.94126,-4.36454 8.66962,-6.61914 11.79511,-4.64238 0.62212,0.39347 1.29468,0.35521 1.84944,-0.1052 1.39044,-1.15396 1.62322,-0.25516 0.79046,3.05204 -0.90425,3.5911 -1.7784,3.98502 -2.0753,0.93522 -0.14383,-1.47738 -0.73828,-2.44151 -1.9082,-3.09489 -5.2684,-2.9423 -12.54688,8.5488 -8.3513,13.18486 1.59854,1.76636 4.64677,1.79305 6.38392,0.0559 1.73976,-1.73976 1.68702,-2.95901 -0.16666,-3.85301 -1.26102,-0.60817 -0.86272,-0.72723 2.5,-0.74734 3.52154,-0.0211 3.85625,0.0851 2.79823,0.88737 -0.66097,0.50122 -1.51,2.02764 -1.88674,3.39206 -0.46229,1.67432 -0.90441,2.26134 -1.35999,1.80576 -0.45558,-0.45559 -1.25093,-0.37454 -2.4466,0.24929 -1.99147,1.03905 -3.76186,1.12097 -5.8669,0.27148 z m 36.81229,-0.0178 c 5.39875,-0.56978 7.25102,-1.49628 8.36422,-4.18379 0.64165,-1.54909 0.58921,-2.31406 -0.2842,-4.14563 -1.21745,-2.553 -4.00412,-3.64845 -9.29698,-3.65466 -1.74167,-0.002 -3.16667,-0.30373 -3.16667,-0.6704 0,-0.8784 6.31724,-0.84882 9.53468,0.0446 4.37704,1.21547 6.33042,6.0542 4.02181,9.96238 -1.55309,2.62917 -3.55003,3.3402 -9.08785,3.23581 l -4.80197,-0.0905 4.71696,-0.49782 z m 87.28212,-2.26256 c -0.973,-1.66029 -1.57812,-3.32768 -1.34474,-3.70531 0.76576,-1.23903 2.11642,-0.72 2.96331,1.13873 l 0.83167,1.82532 1.61962,-3.40769 c 1.72398,-3.62732 7.80863,-10.24297 9.42081,-10.24297 0.53127,0 -0.43089,1.35758 -2.13813,3.01682 -1.92746,1.87328 -3.8642,4.71622 -5.10934,7.5 -3.57104,7.98383 -3.76483,8.10412 -6.2432,3.87509 z m -233.207411,1.8442 c -0.943676,-0.94368 -0.409688,-2.23612 0.923883,-2.23612 0.931975,0 1.312003,0.36204 1.166667,1.11142 -0.237962,1.22699 -1.376002,1.83924 -2.09055,1.1247 z m 124.194741,-1.27186 c -0.47899,-1.25984 -0.27172,-3.19968 0.79729,-7.46196 1.04548,-4.16845 1.22884,-5.83145 0.66375,-6.01981 -1.56406,-0.52136 -0.72738,-1.48249 1.29054,-1.48249 1.52154,0 1.9743,0.25287 1.70576,0.95266 -0.20106,0.52396 -0.5597,1.98743 -0.79696,3.25216 -0.40554,2.1617 -0.33428,2.28094 1.18902,1.98974 3.34294,-0.63905 4.86262,3.20978 2.82396,7.15212 -1.89144,3.65764 -6.52626,4.63468 -7.67336,1.61758 z m 5.27812,-1.27796 c 1.1721,-2.44551 1.33489,-6.45462 0.27714,-6.82543 -2.05534,-0.72053 -5.23926,6.26505 -3.86731,8.48491 0.76904,1.24434 2.60519,0.39562 3.59017,-1.65948 z m 51.73547,2.3137 c 0.22661,-0.36666 0.83275,-0.66666 1.34698,-0.66666 0.52005,0 1.22431,-1.10946 1.58696,-2.5 1.63681,-6.2761 2.73273,-10.7261 2.73273,-11.09623 0,-0.22208 -0.46771,-0.40377 -1.03935,-0.40377 -0.57164,0 -0.85393,-0.3 -0.62732,-0.66667 0.62662,-1.01389 12.30792,-0.86017 12.66483,0.16667 0.15932,0.45833 0.0306,1.88333 -0.28601,3.16666 -0.48037,1.94705 -0.58697,2.0519 -0.64391,0.63334 -0.0979,-2.43857 -1.27351,-3.3 -4.50358,-3.3 -2.7085,0 -2.86638,0.11182 -3.52961,2.5 -0.38185,1.375 -0.69596,2.875 -0.698,3.33333 -0.006,1.40916 3.10114,0.92335 4.26421,-0.66667 1.08062,-1.47731 1.09063,-1.4647 0.66149,0.83334 -0.23965,1.28333 -0.67779,2.93333 -0.97365,3.66666 -0.51038,1.26508 -0.54008,1.25655 -0.58018,-0.16666 -0.034,-1.20738 -0.42631,-1.5 -2.01092,-1.5 -1.70703,0 -2.06094,0.33225 -2.66295,2.5 -0.90234,3.24918 -0.88379,3.5 0.25893,3.5 0.52836,0 1.14607,0.3 1.37268,0.66666 C 215.9242,247.75003 214.54936,248 212,248 c -2.54937,0 -3.9242,-0.24997 -3.66667,-0.66667 z m 18.98641,-1.03574 c -0.47899,-1.25984 -0.27172,-3.19968 0.79729,-7.46196 1.04548,-4.16845 1.22884,-5.83145 0.66375,-6.01981 -1.56406,-0.52136 -0.72738,-1.48249 1.29054,-1.48249 1.52154,0 1.9743,0.25287 1.70576,0.95266 -0.20106,0.52396 -0.5597,1.98743 -0.79696,3.25216 -0.40554,2.1617 -0.33428,2.28094 1.18902,1.98974 3.34294,-0.63905 4.86262,3.20978 2.82396,7.15212 -1.89144,3.65764 -6.52626,4.63468 -7.67336,1.61758 z m 5.27812,-1.27796 c 1.1721,-2.44551 1.33489,-6.45462 0.27714,-6.82543 -2.05534,-0.72053 -5.23926,6.26505 -3.86731,8.48491 0.76904,1.24434 2.60519,0.39562 3.59017,-1.65948 z m 4.63657,1.36286 c -0.9738,-2.13723 -0.29268,-4.58988 1.98148,-7.1351 1.70143,-1.90423 2.08569,-2.03662 4.65268,-1.60292 1.53894,0.26 2.79451,0.67136 2.79016,0.91413 -0.005,0.24277 -0.4508,2.0914 -0.99209,4.10807 -1.17717,4.38568 -1.19625,4.66666 -0.31683,4.66666 0.37574,0 1.0115,-0.825 1.4128,-1.83333 0.40129,-1.00833 0.86332,-1.47497 1.02673,-1.03696 0.86203,2.31065 -2.51386,4.5458 -4.24745,2.81221 -0.5219,-0.5219 -0.85014,-0.5219 -1.17268,0 -0.24636,0.39861 -1.33665,0.72475 -2.42288,0.72475 -1.44365,0 -2.1732,-0.43513 -2.71192,-1.61751 z m 4.99216,-0.26454 c 1.41486,-1.56341 2.22904,-7.091 1.1433,-7.76202 -1.18173,-0.73035 -3.28838,1.53218 -4.04585,4.34522 -1.11073,4.12494 0.52215,6.04711 2.90255,3.4168 z m -36.89326,-2.78462 v -2.66666 h -6 c -3.55555,0 -6,-0.27161 -6,-0.66667 0,-0.4 2.66667,-0.66667 6.66667,-0.66667 h 6.66666 v 3.33334 c 0,1.83333 -0.3,3.33333 -0.66666,3.33333 -0.36667,0 -0.66667,-1.2 -0.66667,-2.66667 z M 16.148337,219.62887 c -1.809507,-1.26744 -2.106102,-4.9622 -0.398337,-4.9622 0.847168,0 0.996487,0.43422 0.684955,1.99188 -0.343891,1.71946 -0.171743,2.04878 1.258657,2.40778 0.942173,0.23648 2.084712,0.0609 2.648378,-0.40685 0.999211,-0.82927 1.348012,-4.9543 0.586684,-6.93829 -0.510678,-1.3308 -2.507558,-1.36522 -3.589249,-0.0619 -1.355563,1.63335 -2.006092,0.4844 -2.006092,-3.54312 v -3.8051 h 3.992593 c 3.868168,0 3.954593,0.038 2.773256,1.21934 -0.670634,0.67063 -2.167301,1.24628 -3.325926,1.27923 -1.8187,0.0517 -2.10659,0.30105 -2.10659,1.82457 0,1.61454 0.192966,1.74216 2.268021,1.4999 5.366934,-0.62656 7.24897,7.02432 2.350965,9.55718 -2.391987,1.23694 -3.29788,1.22592 -5.137315,-0.0625 z M 134.238,220.00561 c -3.70377,-1.49465 -4.76424,-7.37162 -2.05547,-11.39116 2.94126,-4.36454 8.66962,-6.61914 11.79511,-4.64238 0.62212,0.39347 1.29468,0.35521 1.84944,-0.1052 1.39044,-1.15396 1.62322,-0.25516 0.79046,3.05204 -0.90425,3.5911 -1.7784,3.98502 -2.0753,0.93522 -0.14383,-1.47738 -0.73828,-2.44151 -1.9082,-3.09489 -5.2684,-2.9423 -12.54688,8.5488 -8.3513,13.18486 1.59854,1.76636 4.64677,1.79305 6.38392,0.0559 1.73976,-1.73976 1.68702,-2.95901 -0.16666,-3.85301 -1.26102,-0.60817 -0.86272,-0.72723 2.5,-0.74734 3.52154,-0.0211 3.85625,0.0851 2.79823,0.88737 -0.66097,0.50122 -1.51,2.02764 -1.88674,3.39206 -0.46229,1.67432 -0.90441,2.26134 -1.35999,1.80576 -0.45558,-0.45559 -1.25093,-0.37454 -2.4466,0.24929 -1.99147,1.03905 -3.76186,1.12097 -5.8669,0.27148 z m 38.81229,-0.0178 c 5.39875,-0.56978 7.25102,-1.49628 8.36422,-4.18379 0.64165,-1.54909 0.58921,-2.31406 -0.2842,-4.14563 -1.21745,-2.553 -4.00412,-3.64845 -9.29698,-3.65466 -1.74167,-0.002 -3.16667,-0.30373 -3.16667,-0.6704 0,-0.8784 6.31724,-0.84882 9.53468,0.0446 4.37704,1.21547 6.33042,6.0542 4.02181,9.96238 -1.55309,2.62917 -3.55003,3.3402 -9.08785,3.23581 l -4.80197,-0.0905 4.71696,-0.49782 z m 89.28212,-2.26256 c -0.973,-1.66029 -1.57812,-3.32768 -1.34474,-3.70531 0.76576,-1.23903 2.11642,-0.72 2.96331,1.13873 l 0.83167,1.82532 1.61962,-3.40769 c 1.72398,-3.62732 7.80863,-10.24297 9.42081,-10.24297 0.53127,0 -0.43089,1.35758 -2.13813,3.01682 -1.92746,1.87328 -3.8642,4.71622 -5.10934,7.5 -3.57104,7.98383 -3.76483,8.10412 -6.2432,3.87509 z m -235.207411,1.8442 c -0.943676,-0.94368 -0.409688,-2.23612 0.923883,-2.23612 0.931975,0 1.312003,0.36204 1.166667,1.11142 -0.237962,1.22699 -1.376002,1.83924 -2.09055,1.1247 z m 122.109431,-1.18696 c -0.97379,-2.13723 -0.29267,-4.58988 1.98149,-7.1351 1.70142,-1.90423 2.08568,-2.03662 4.65267,-1.60292 1.53894,0.26 2.79451,0.67136 2.79016,0.91413 -0.005,0.24277 -0.45079,2.0914 -0.99209,4.10807 -1.17716,4.38568 -1.19624,4.66666 -0.31683,4.66666 0.37574,0 1.0115,-0.825 1.4128,-1.83333 0.40129,-1.00833 0.86333,-1.47497 1.02673,-1.03696 0.86204,2.31065 -2.51386,4.5458 -4.24745,2.81221 -0.5219,-0.5219 -0.85013,-0.5219 -1.17268,0 -0.24636,0.39861 -1.33665,0.72475 -2.42287,0.72475 -1.44366,0 -2.17321,-0.43513 -2.71193,-1.61751 z m 4.99216,-0.26454 c 1.41486,-1.56341 2.22904,-7.091 1.1433,-7.76202 -1.18173,-0.73035 -3.28837,1.53218 -4.04585,4.34522 -1.11072,4.12494 0.52215,6.04711 2.90255,3.4168 z m 54.10674,1.21538 c 0.22661,-0.36666 0.83275,-0.66666 1.34698,-0.66666 0.52005,0 1.22431,-1.10946 1.58696,-2.5 1.63681,-6.2761 2.73273,-10.7261 2.73273,-11.09623 0,-0.22208 -0.46771,-0.40377 -1.03935,-0.40377 -0.57164,0 -0.85393,-0.3 -0.62732,-0.66667 0.62662,-1.01389 12.30792,-0.86017 12.66483,0.16667 0.15932,0.45833 0.0306,1.88333 -0.28601,3.16666 -0.48037,1.94705 -0.58697,2.0519 -0.64391,0.63334 -0.0979,-2.43857 -1.27351,-3.3 -4.50358,-3.3 -2.7085,0 -2.86638,0.11182 -3.52961,2.5 -0.38185,1.375 -0.69596,2.875 -0.698,3.33333 -0.006,1.40916 3.10114,0.92335 4.26421,-0.66667 1.08062,-1.47731 1.09063,-1.4647 0.66149,0.83334 -0.23965,1.28333 -0.67779,2.93333 -0.97365,3.66666 -0.51038,1.26508 -0.54008,1.25655 -0.58018,-0.16666 -0.034,-1.20738 -0.42631,-1.5 -2.01092,-1.5 -1.70703,0 -2.06094,0.33225 -2.66295,2.5 -0.90234,3.24918 -0.88379,3.5 0.25893,3.5 0.52836,0 1.14607,0.3 1.37268,0.66666 C 215.9242,219.75003 214.54936,220 212,220 c -2.54937,0 -3.9242,-0.24997 -3.66667,-0.66667 z m 18.9011,-0.95084 c -0.97379,-2.13723 -0.29267,-4.58988 1.98149,-7.1351 1.70142,-1.90423 2.08568,-2.03662 4.65267,-1.60292 1.53894,0.26 2.79451,0.67136 2.79016,0.91413 -0.005,0.24277 -0.4508,2.0914 -0.99209,4.10807 -1.17716,4.38568 -1.19624,4.66666 -0.31683,4.66666 0.37574,0 1.0115,-0.825 1.4128,-1.83333 0.40129,-1.00833 0.86332,-1.47497 1.02673,-1.03696 0.86203,2.31065 -2.51386,4.5458 -4.24745,2.81221 -0.5219,-0.5219 -0.85013,-0.5219 -1.17268,0 -0.24636,0.39861 -1.33665,0.72475 -2.42287,0.72475 -1.44366,0 -2.17321,-0.43513 -2.71193,-1.61751 z m 4.99216,-0.26454 c 1.41486,-1.56341 2.22904,-7.091 1.1433,-7.76202 -1.18173,-0.73035 -3.28837,1.53218 -4.04585,4.34522 -1.11072,4.12494 0.52215,6.04711 2.90255,3.4168 z m 7.6745,0.26454 c -0.97379,-2.13723 -0.29267,-4.58988 1.98149,-7.1351 1.70143,-1.90423 2.08569,-2.03662 4.65267,-1.60292 1.53894,0.26 2.79452,0.67136 2.79016,0.91413 -0.005,0.24277 -0.45079,2.0914 -0.99208,4.10807 -1.17717,4.38568 -1.19625,4.66666 -0.31684,4.66666 0.37574,0 1.0115,-0.825 1.4128,-1.83333 0.4013,-1.00833 0.86333,-1.47497 1.02674,-1.03696 0.86203,2.31065 -2.51386,4.5458 -4.24746,2.81221 -0.5219,-0.5219 -0.85013,-0.5219 -1.17268,0 -0.24636,0.39861 -1.33664,0.72475 -2.42287,0.72475 -1.44365,0 -2.17321,-0.43513 -2.71193,-1.61751 z m 4.99216,-0.26454 c 1.41486,-1.56341 2.22904,-7.091 1.1433,-7.76202 -1.18172,-0.73035 -3.28837,1.53218 -4.04584,4.34522 -1.11073,4.12494 0.52214,6.04711 2.90254,3.4168 z m -39.55992,-2.78462 v -2.66666 h -6 c -3.55555,0 -6,-0.27161 -6,-0.66667 0,-0.4 2.66667,-0.66667 6.66667,-0.66667 h 6.66666 v 3.33334 c 0,1.83333 -0.3,3.33333 -0.66666,3.33333 -0.36667,0 -0.66667,-1.2 -0.66667,-2.66667 z m -2,-36.66666 c 0,-10.22222 0.24074,-16 0.66667,-16 0.42592,0 0.66666,5.77778 0.66666,16 0,10.22222 -0.24074,16 -0.66666,16 -0.42593,0 -0.66667,-5.77778 -0.66667,-16 z M 16.666666,154 c 0,-0.36667 0.45,-0.66667 1,-0.66667 0.555556,0 1,-0.59259 1,-1.33333 0,-1.1358 -0.444444,-1.33333 -3,-1.33333 -1.65,0 -3,-0.30249 -3,-0.67219 0,-0.92067 6.877224,-11.2941 7.5,-11.3128 0.275,-0.008 0.5,2.39465 0.5,5.3398 0,4.89053 0.125795,5.40135 1.450841,5.89152 l 1.45084,0.5367 -1.45084,0.37941 c -1.60515,0.41975 -2.013171,2.50422 -0.490185,2.50422 0.52836,0 1.146065,0.3 1.372678,0.66667 0.253942,0.41089 -0.881966,0.66667 -2.960656,0.66667 -1.854972,0 -3.372678,-0.3 -3.372678,-0.66667 z m 2,-7.66667 c 0,-2.01666 -0.105157,-3.66666 -0.233682,-3.66666 C 18.161656,142.66667 14,149.27981 14,149.71097 14,149.86993 15.05,150 16.333333,150 h 2.333333 z m 7.791667,7.90278 C 25.514656,153.29243 26.048645,152 27.382215,152 c 0.931975,0 1.312004,0.36203 1.166667,1.11142 -0.237962,1.22699 -1.376001,1.83924 -2.090549,1.12469 z M 184.33333,154 c 0.22661,-0.36667 0.83275,-0.66667 1.34698,-0.66667 0.52005,0 1.22431,-1.10945 1.58696,-2.5 1.63681,-6.2761 2.73273,-10.72609 2.73273,-11.09622 0,-0.22208 -0.46771,-0.40378 -1.03935,-0.40378 -0.57164,0 -0.85393,-0.3 -0.62732,-0.66666 0.62662,-1.0139 12.30792,-0.86018 12.66483,0.16666 0.15932,0.45834 0.0306,1.88334 -0.28601,3.16667 -0.48037,1.94705 -0.58697,2.0519 -0.64391,0.63333 -0.0979,-2.43856 -1.27351,-3.3 -4.50358,-3.3 -2.7085,0 -2.86638,0.11182 -3.52961,2.5 -0.38185,1.375 -0.69596,2.875 -0.698,3.33334 -0.006,1.40916 3.10114,0.92334 4.26421,-0.66667 1.08062,-1.47731 1.09063,-1.46471 0.66149,0.83333 -0.23965,1.28334 -0.67779,2.93334 -0.97365,3.66667 -0.51038,1.26508 -0.54008,1.25655 -0.58018,-0.16667 -0.034,-1.20737 -0.42631,-1.5 -2.01092,-1.5 -1.70703,0 -2.06094,0.33226 -2.66295,2.5 -0.90234,3.24919 -0.88379,3.5 0.25893,3.5 0.52836,0 1.14607,0.3 1.37268,0.66667 0.25754,0.41669 -1.1173,0.66667 -3.66666,0.66667 -2.54937,0 -3.9242,-0.24998 -3.66667,-0.66667 z m 18.98641,-1.03574 c -0.47899,-1.25984 -0.27172,-3.19968 0.79729,-7.46196 1.04548,-4.16845 1.22884,-5.83145 0.66375,-6.01981 C 203.21672,138.96113 204.0534,138 206.07132,138 c 1.52154,0 1.9743,0.25287 1.70576,0.95266 -0.20106,0.52396 -0.5597,1.98743 -0.79696,3.25215 -0.40554,2.16171 -0.33428,2.28094 1.18902,1.98974 3.34294,-0.63904 4.86262,3.20978 2.82396,7.15213 -1.89144,3.65763 -6.52626,4.63468 -7.67336,1.61758 z m 5.27812,-1.27796 c 1.1721,-2.44551 1.33489,-6.45463 0.27714,-6.82543 -2.05534,-0.72053 -5.23926,6.26504 -3.86731,8.48491 0.76904,1.24433 2.60519,0.39561 3.59017,-1.65948 z m 4.63657,1.36286 c -0.97379,-2.13723 -0.29267,-4.58988 1.98149,-7.1351 1.70142,-1.90423 2.08568,-2.03662 4.65267,-1.60293 1.53894,0.26 2.79451,0.67136 2.79016,0.91414 -0.005,0.24276 -0.45079,2.0914 -0.99209,4.10806 -1.17716,4.38569 -1.19624,4.66667 -0.31683,4.66667 0.37574,0 1.0115,-0.825 1.4128,-1.83333 0.40129,-1.00834 0.86333,-1.47497 1.02673,-1.03696 0.86204,2.31064 -2.51386,4.5458 -4.24745,2.8122 -0.5219,-0.5219 -0.85013,-0.5219 -1.17268,0 -0.24636,0.39862 -1.33665,0.72476 -2.42287,0.72476 -1.44366,0 -2.17321,-0.43514 -2.71193,-1.61751 z m 4.99216,-0.26455 c 1.41486,-1.5634 2.22904,-7.09099 1.1433,-7.76202 -1.18173,-0.73034 -3.28837,1.53219 -4.04585,4.34522 -1.11072,4.12494 0.52215,6.04712 2.90255,3.4168 z M 14.969696,125.0303 c -1.892572,-1.89257 -2.065439,-2.90749 -0.591552,-3.47308 1.50468,-0.5774 2.710534,0.79767 1.732718,1.97587 -0.935468,1.12716 -0.362092,1.80024 1.533582,1.80024 1.991549,0 3.022222,-1.25044 3.022222,-3.66666 0,-2.38846 -1.021594,-3.65809 -2.966666,-3.68694 -1.357707,-0.0201 -1.357925,-0.0251 -0.03333,-0.74955 2.908739,-1.59096 3.708384,-3.75989 2.011728,-5.45655 -1.542279,-1.54228 -3.541278,-0.69024 -3.152468,1.34369 0.257694,1.34803 0.08294,1.63568 -0.880292,1.44897 -1.770818,-0.34325 -1.913712,-1.63154 -0.353968,-3.19129 1.492128,-1.49213 4.041114,-1.779 6.085494,-0.68488 1.606504,0.85978 1.722237,4.11525 0.2004,5.63708 -1.007697,1.0077 -0.982781,1.16358 0.333334,2.08542 2.109284,1.47741 1.933715,5.08843 -0.334134,6.87233 -2.33017,1.83291 -4.607269,1.74515 -6.607064,-0.25465 z m 11.488637,0.53915 c -0.943677,-0.94368 -0.409688,-2.23612 0.923882,-2.23612 0.931975,0 1.312004,0.36204 1.166667,1.11142 -0.237962,1.22699 -1.376001,1.83924 -2.090549,1.1247 z M 183,125.33333 c 0.22661,-0.36666 0.83275,-0.66666 1.34698,-0.66666 0.52004,0 1.2243,-1.10946 1.58696,-2.5 1.6368,-6.2761 2.73272,-10.7261 2.73272,-11.09623 0,-0.22208 -0.4677,-0.40377 -1.03934,-0.40377 -0.57164,0 -0.85394,-0.3 -0.62732,-0.66667 0.62662,-1.01389 12.30792,-0.86017 12.66483,0.16667 0.15931,0.45833 0.0306,1.88333 -0.28601,3.16666 -0.48037,1.94705 -0.58697,2.0519 -0.64392,0.63334 -0.0979,-2.43857 -1.2735,-3.3 -4.50357,-3.3 -2.70851,0 -2.86638,0.11182 -3.52961,2.5 -0.38186,1.375 -0.69596,2.875 -0.698,3.33333 -0.006,1.40916 3.10114,0.92335 4.2642,-0.66667 1.08063,-1.47731 1.09064,-1.4647 0.6615,0.83334 -0.23965,1.28333 -0.6778,2.93333 -0.97365,3.66666 -0.51039,1.26508 -0.54009,1.25655 -0.58018,-0.16666 -0.034,-1.20738 -0.42631,-1.5 -2.01093,-1.5 -1.70702,0 -2.06093,0.33225 -2.66294,2.5 -0.90234,3.24918 -0.88379,3.5 0.25893,3.5 0.52836,0 1.14607,0.3 1.37268,0.66666 0.25753,0.4167 -1.1173,0.66667 -3.66667,0.66667 -2.54936,0 -3.9242,-0.24997 -3.66666,-0.66667 z m 18.9011,-0.95084 c -0.9738,-2.13723 -0.29268,-4.58988 1.98148,-7.1351 1.70143,-1.90423 2.08569,-2.03662 4.65268,-1.60292 1.53894,0.26 2.79451,0.67136 2.79016,0.91413 -0.005,0.24277 -0.4508,2.0914 -0.99209,4.10807 -1.17717,4.38568 -1.19625,4.66666 -0.31683,4.66666 0.37574,0 1.0115,-0.825 1.4128,-1.83333 0.40129,-1.00833 0.86332,-1.47497 1.02673,-1.03696 0.86203,2.31065 -2.51386,4.5458 -4.24745,2.81221 -0.5219,-0.5219 -0.85014,-0.5219 -1.17268,0 -0.24636,0.39861 -1.33665,0.72475 -2.42288,0.72475 -1.44365,0 -2.1732,-0.43513 -2.71192,-1.61751 z m 4.99216,-0.26454 c 1.41486,-1.56341 2.22904,-7.091 1.1433,-7.76202 -1.18173,-0.73035 -3.28838,1.53218 -4.04585,4.34522 -1.11073,4.12494 0.52215,6.04711 2.90255,3.4168 z m 7.6745,0.26454 c -0.97379,-2.13723 -0.29267,-4.58988 1.98149,-7.1351 1.70143,-1.90423 2.08569,-2.03662 4.65267,-1.60292 1.53894,0.26 2.79452,0.67136 2.79016,0.91413 -0.005,0.24277 -0.45079,2.0914 -0.99208,4.10807 -1.17717,4.38568 -1.19625,4.66666 -0.31684,4.66666 0.37574,0 1.0115,-0.825 1.4128,-1.83333 0.4013,-1.00833 0.86333,-1.47497 1.02674,-1.03696 0.86203,2.31065 -2.51386,4.5458 -4.24746,2.81221 -0.5219,-0.5219 -0.85013,-0.5219 -1.17268,0 -0.24636,0.39861 -1.33664,0.72475 -2.42287,0.72475 -1.44365,0 -2.17321,-0.43513 -2.71193,-1.61751 z m 4.99216,-0.26454 c 1.41486,-1.56341 2.22904,-7.091 1.1433,-7.76202 -1.18172,-0.73035 -3.28837,1.53218 -4.04584,4.34522 -1.11073,4.12494 0.52214,6.04711 2.90254,3.4168 z M 203.77778,100.88889 C 203.0431,100.15421 203.25556,74.126753 204,73.666667 c 0.43638,-0.2697 0.66666,4.43752 0.66666,13.62732 0,7.72164 -0.1,14.039343 -0.22222,14.039343 -0.12222,0 -0.42222,-0.2 -0.66666,-0.44444 z M 138.35616,64.294959 C 134.23484,59.847985 133.77899,50.711982 137.394,45.0117 c 2.4589,-3.87729 3.87742,-3.947743 1.61078,-0.08 -3.08168,5.25848 -3.05309,13.512944 0.0627,18.10431 2.04718,3.016696 1.61939,3.773831 -0.71132,1.258949 z m 126.97717,1.41128 c 0,-0.275226 0.61392,-1.362587 1.36427,-2.416357 2.17374,-3.052739 3.06071,-8.575314 2.10769,-13.123215 -0.4418,-2.108334 -1.40373,-4.646186 -2.13762,-5.639672 -1.57066,-2.126253 -1.66618,-2.612486 -0.4192,-2.133974 0.50333,0.193146 1.70333,1.799328 2.66667,3.569296 3.20693,5.892187 2.15529,15.055833 -2.17754,18.974342 -0.77235,0.698495 -1.40427,1.044806 -1.40427,0.76958 z M 122.24108,63.666667 c -0.52923,-1.37916 0.25571,-3.183677 1.14562,-2.633682 0.4012,0.247954 0.5814,1.016969 0.40046,1.708921 -0.49396,1.888864 1.2202,1.54845 2.8966,-0.575239 L 128.13097,60.333333 125.89882,60 c -2.16907,-0.323913 -2.22955,-0.418121 -2.13988,-3.333333 0.0507,-1.65 0.29491,-3.9 0.54257,-5 l 0.45028,-2 -1.70592,2 c -1.17268,1.374837 -1.70695,1.667619 -1.70923,0.936658 -0.004,-1.326918 2.07815,-3.269992 3.50426,-3.269992 1.59572,0 1.91477,1.96228 0.87736,5.396153 -0.56203,1.860329 -0.69582,3.430765 -0.34077,4 1.03425,1.658173 2.88411,-0.273361 3.95584,-4.130491 1.14689,-4.127654 1.85224,-5.435671 2.66149,-4.935526 0.96623,0.597161 -2.32739,11.561633 -4.0115,13.354276 -1.74931,1.86206 -5.1301,2.244118 -5.74224,0.648922 z m 40,0 c -0.52923,-1.37916 0.25571,-3.183677 1.14562,-2.633682 0.4012,0.247954 0.5814,1.016969 0.40046,1.708921 -0.49396,1.888864 1.2202,1.54845 2.8966,-0.575239 L 168.13097,60.333333 165.89882,60 c -2.16907,-0.323913 -2.22955,-0.418121 -2.13988,-3.333333 0.0507,-1.65 0.29491,-3.9 0.54257,-5 l 0.45028,-2 -1.70592,2 c -1.17268,1.374837 -1.70695,1.667619 -1.70923,0.936658 -0.004,-1.326918 2.07815,-3.269992 3.50426,-3.269992 1.59572,0 1.91477,1.96228 0.87736,5.396153 -0.56203,1.860329 -0.69582,3.430765 -0.34077,4 1.03425,1.658173 2.88411,-0.273361 3.95584,-4.130491 1.14689,-4.127654 1.85224,-5.435671 2.66149,-4.935526 0.96623,0.597161 -2.32739,11.561633 -4.0115,13.354276 -1.74931,1.86206 -5.1301,2.244118 -5.74224,0.648922 z m 78,0 c -0.52923,-1.37916 0.25571,-3.183677 1.14562,-2.633682 0.40119,0.247954 0.5814,1.016969 0.40045,1.708921 -0.49395,1.888864 1.2202,1.54845 2.89661,-0.575239 L 246.13097,60.333333 243.89881,60 c -2.16906,-0.323913 -2.22954,-0.418121 -2.13987,-3.333333 0.0507,-1.65 0.29491,-3.9 0.54257,-5 l 0.45028,-2 -1.70592,2 c -1.17268,1.374837 -1.70696,1.667619 -1.70923,0.936658 -0.004,-1.326918 2.07815,-3.269992 3.50425,-3.269992 1.59573,0 1.91478,1.96228 0.87736,5.396153 -0.56202,1.860329 -0.69581,3.430765 -0.34076,4 1.03425,1.658173 2.88411,-0.273361 3.95584,-4.130491 1.14689,-4.127654 1.85224,-5.435671 2.66149,-4.935526 0.96623,0.597161 -2.32739,11.561633 -4.0115,13.354276 -1.74931,1.86206 -5.13011,2.244118 -5.74224,0.648922 z m -128.12882,-6.5 c -0.72428,-1.925 -2.09583,-5.560718 -3.0479,-8.079373 -1.85339,-4.903067 -2.03116,-5.753961 -1.20213,-5.753961 0.29089,0 0.99232,1.275 1.55873,2.833334 1.00925,2.776692 1.09728,2.837314 4.40356,3.032497 l 3.37371,0.199163 1.15812,-3.032496 c 0.63697,-1.667874 1.41737,-3.032498 1.73422,-3.032498 0.31685,0 0.57609,0.203634 0.57609,0.45252 0,1.03632 -6.36698,16.880814 -6.78342,16.880814 -0.24976,0 -1.0467,-1.575 -1.77098,-3.5 z m 2.8419,-2 C 117.041,50.064103 117.02972,50 114.04492,50 c -1.49138,0 -2.71308,0.225 -2.71489,0.5 -0.005,0.738249 2.22713,6.833333 2.50235,6.833333 0.12961,0 0.63441,-0.975 1.12178,-2.166666 z m 31.9505,4.838946 c -3.70376,-1.494655 -4.76423,-7.371626 -2.05546,-11.39116 2.94126,-4.36454 8.66962,-6.619138 11.7951,-4.64238 0.62212,0.393467 1.29468,0.355207 1.84945,-0.105208 1.39043,-1.15396 1.62322,-0.255157 0.79045,3.052042 -0.90424,3.591099 -1.77839,3.985029 -2.0753,0.935224 -0.14382,-1.477379 -0.73827,-2.441512 -1.90819,-3.094888 -5.26841,-2.942304 -12.54688,8.548796 -8.3513,13.184858 1.59853,1.766361 4.64677,1.793052 6.38392,0.0559 1.73976,-1.739757 1.68701,-2.959006 -0.16667,-3.853004 -1.26102,-0.608166 -0.86272,-0.727233 2.5,-0.74734 3.52155,-0.02106 3.85626,0.08508 2.79824,0.887372 -0.66097,0.50121 -1.51,2.027637 -1.88674,3.39206 -0.4623,1.674309 -0.90441,2.26133 -1.35999,1.805749 -0.45559,-0.455581 -1.25093,-0.374539 -2.4466,0.249298 -1.99147,1.039049 -3.76186,1.12097 -5.86691,0.271477 z m 38.8123,-0.01781 c 5.39875,-0.569777 7.25102,-1.496282 8.36422,-4.183791 0.64165,-1.54909 0.58921,-2.314058 -0.2842,-4.14563 -1.21745,-2.553004 -4.00412,-3.648453 -9.29698,-3.654667 -1.74167,-0.002 -3.16667,-0.303718 -3.16667,-0.670385 0,-0.878399 6.31723,-0.84883 9.53468,0.04463 4.37703,1.215467 6.33042,6.05419 4.02181,9.962368 -1.5531,2.629179 -3.55004,3.340207 -9.08786,3.235816 L 181,60.485626 Z m 98.61545,-2.262562 c -0.973,-1.660287 -1.57812,-3.327675 -1.34474,-3.705306 0.76576,-1.239027 2.11642,-0.720005 2.96331,1.138724 l 0.83167,1.825325 1.61962,-3.407694 c 1.72398,-3.627316 7.80863,-10.24296 9.42081,-10.24296 0.53127,0 -0.43089,1.357571 -2.13813,3.016824 -1.92746,1.873266 -3.8642,4.716214 -5.10934,7.5 -3.57104,7.983824 -3.76483,8.104107 -6.2432,3.875084 z M 14,59.372127 c 0,-0.345329 1.5,-2.342006 3.333333,-4.437059 2.485669,-2.840513 3.333333,-4.342269 3.333333,-5.905461 0,-2.470194 -1.026297,-3.696274 -3.093988,-3.696274 -1.864415,0 -2.601533,1.09364 -1.572678,2.333334 C 16.906005,48.758336 16.352926,50 14.960655,50 14.341818,50 14,49.301817 14,48.037803 c 0,-3.781536 5.145338,-5.409785 7.88379,-2.494836 2.377148,2.530359 1.879584,4.748808 -1.980495,8.830274 L 16.473257,58 h 2.661495 c 2.101277,0 2.813768,-0.315735 3.384918,-1.5 l 0.723422,-1.5 0.04512,1.445475 C 23.385422,59.559689 22.76281,60 18.262007,60 15.917903,60 14,59.717457 14,59.372127 Z m 12.458333,0.197318 c -0.943677,-0.943678 -0.409688,-2.236112 0.923882,-2.236112 0.931975,0 1.312004,0.362034 1.166667,1.111423 -0.237962,1.226986 -1.376001,1.839237 -2.090549,1.124689 z M 221,59.333333 c 0.22661,-0.366666 0.83275,-0.666666 1.34698,-0.666666 0.52004,0 1.2243,-1.109453 1.58696,-2.5 1.6368,-6.276102 2.73272,-10.726094 2.73272,-11.09623 0,-0.222074 -0.4677,-0.40377 -1.03934,-0.40377 -0.57164,0 -0.85394,-0.3 -0.62732,-0.666667 0.62662,-1.013894 12.30791,-0.860171 12.66483,0.166667 0.15931,0.458333 0.0306,1.883333 -0.28602,3.166666 -0.48036,1.947049 -0.58696,2.051898 -0.64391,0.633334 -0.0979,-2.438565 -1.2735,-3.3 -4.50357,-3.3 -2.70851,0 -2.86638,0.111822 -3.52961,2.5 -0.38186,1.375 -0.69596,2.875 -0.698,3.333333 -0.006,1.409161 3.10114,0.923345 4.2642,-0.666667 1.08063,-1.477313 1.09064,-1.464709 0.6615,0.833334 -0.23965,1.283333 -0.6778,2.933333 -0.97365,3.666666 -0.51039,1.265079 -0.54009,1.256547 -0.58018,-0.166666 -0.034,-1.207377 -0.42631,-1.5 -2.01093,-1.5 -1.70702,0 -2.06093,0.33225 -2.66294,2.5 -0.90234,3.249184 -0.88379,3.5 0.25893,3.5 0.52836,0 1.14607,0.3 1.37268,0.666666 C 228.59086,59.75003 227.21603,60 224.66666,60 222.1173,60 220.74246,59.75003 221,59.333333 Z m 31.56776,-0.950838 c -0.97379,-2.137238 -0.29267,-4.589883 1.98149,-7.135104 1.70142,-1.90423 2.08568,-2.036614 4.65267,-1.602926 1.53894,0.260003 2.79451,0.671363 2.79016,0.914134 -0.004,0.24277 -0.45079,2.091401 -0.99209,4.108068 -1.17716,4.385684 -1.19624,4.666666 -0.31683,4.666666 0.37574,0 1.0115,-0.825 1.4128,-1.833333 0.40129,-1.008333 0.86333,-1.474965 1.02673,-1.036959 0.86204,2.310643 -2.51386,4.545796 -4.24745,2.812204 -0.5219,-0.521895 -0.85013,-0.521895 -1.17268,0 C 257.4562,59.67386 256.36591,60 255.27969,60 c -1.44366,0 -2.17321,-0.435133 -2.71193,-1.617505 z m 4.99216,-0.264552 c 1.41486,-1.563402 2.22904,-7.090989 1.1433,-7.762015 -1.18173,-0.730345 -3.28837,1.532187 -4.04585,4.345217 -1.11072,4.124944 0.52215,6.047118 2.90255,3.416798 z M 218,55.333333 v -2.666666 h -6 c -3.55556,0 -6,-0.271605 -6,-0.666667 0,-0.4 2.66666,-0.666667 6.66666,-0.666667 h 6.66667 v 3.333334 C 219.33333,56.5 219.03333,58 218.66666,58 218.3,58 218,56.8 218,55.333333 Z M 159.4456,28.5 c -0.72428,-1.925 -2.09584,-5.560718 -3.0479,-8.079373 -1.8534,-4.903066 -2.03116,-5.75396 -1.20214,-5.75396 0.2909,0 0.99232,1.275 1.55874,2.833333 1.00924,2.776692 1.09728,2.837315 4.40355,3.032497 l 3.37371,0.199164 1.15812,-3.032497 c 0.63697,-1.667873 1.41737,-3.032497 1.73422,-3.032497 0.31686,0 0.5761,0.203634 0.5761,0.452519 C 168,16.155506 161.63301,32 161.21657,32 c -0.24976,0 -1.0467,-1.575 -1.77097,-3.5 z m 2.84189,-2 c 2.08684,-5.102563 2.07556,-5.166667 -0.90923,-5.166667 -1.49138,0 -2.71308,0.225 -2.7149,0.5 -0.005,0.73825 2.22714,6.833334 2.50235,6.833334 0.12961,0 0.63441,-0.975 1.12178,-2.166667 z m 74.71158,2.558575 c -0.97299,-1.660288 -1.57811,-3.327676 -1.34473,-3.705306 0.76576,-1.239027 2.11641,-0.720005 2.96331,1.138724 l 0.83167,1.825325 1.61961,-3.407694 c 1.72399,-3.627314 7.80864,-10.242957 9.42082,-10.242957 0.53127,0 -0.43089,1.35757 -2.13814,3.016823 -1.92745,1.873267 -3.86419,4.716215 -5.10934,7.5 -3.57104,7.983825 -3.76482,8.104107 -6.2432,3.875085 z M 14,30.983499 C 14,30.791091 14.75,30.348516 15.666666,30 c 1.608208,-0.611439 1.666667,-0.845141 1.666667,-6.662867 v -6.029202 l -1.666667,0.418306 C 14.727983,17.961832 14,17.855729 14,17.483323 c 0,-0.363671 0.675,-0.807614 1.5,-0.986541 0.825,-0.178926 2.025,-0.545996 2.666666,-0.815711 1.07052,-0.449976 1.166667,0.119842 1.166667,6.91427 C 19.333333,29.555555 19.413363,30 20.666666,30 21.4,30 22,30.3 22,30.666667 c 0,0.37037 -1.777778,0.666666 -4,0.666666 -2.2,0 -4,-0.157425 -4,-0.349834 z m 12.458333,-0.08072 c -0.943677,-0.943677 -0.409688,-2.236111 0.923882,-2.236111 0.931975,0 1.312004,0.362033 1.166667,1.111422 -0.237962,1.226986 -1.376001,1.839237 -2.090549,1.124689 z M 168,29.941177 c 0,-0.700981 0.45,-1.27451 1,-1.27451 0.55,0 1,0.475 1,1.055555 0,1.781995 1.52736,0.661919 2.40335,-1.762468 1.02485,-2.836389 1.14801,-5.746319 0.26626,-6.291267 -0.36505,-0.225612 -1.41505,0.40049 -2.33333,1.391336 -1.84843,1.99448 -2.2557,1.40693 -0.63182,-0.911486 1.07735,-1.538128 3.88938,-2.011529 4.64888,-0.782632 0.29743,0.481256 0.71365,0.465312 1.33598,-0.05117 1.42689,-1.184218 3.97734,-0.530915 3.97734,1.018801 0,0.740741 -0.44444,1.333334 -1,1.333334 -0.55,0 -0.96228,-0.501276 -0.91619,-1.113947 0.16694,-2.218979 -1.7434,-0.386955 -2.44958,2.349162 -0.39247,1.520631 -0.86641,3.291263 -1.05321,3.934735 -0.6298,2.169572 1.81299,2.24513 3.52227,0.108948 1.70572,-2.131734 2.16865,-1.43971 0.56678,0.847274 -0.85623,1.222429 -1.65441,1.422847 -5.66667,1.422847 -4.15377,0 -4.67006,-0.140901 -4.67006,-1.274509 z m 14.33333,0.72549 C 182.55994,30.3 183.16608,30 183.68031,30 c 0.52005,0 1.22431,-1.109453 1.58696,-2.5 C 186.90408,21.223898 188,16.773906 188,16.40377 188,16.181697 187.53229,16 186.96065,16 c -0.57164,0 -0.85393,-0.3 -0.62732,-0.666667 0.62662,-1.013894 12.30792,-0.86017 12.66483,0.166667 0.15932,0.458333 0.0306,1.883333 -0.28601,3.166667 -0.48037,1.947048 -0.58697,2.051897 -0.64391,0.633333 -0.0979,-2.438565 -1.27351,-3.3 -4.50358,-3.3 -2.7085,0 -2.86638,0.111823 -3.52961,2.5 -0.38185,1.375 -0.69596,2.875 -0.698,3.333333 -0.006,1.409162 3.10114,0.923346 4.26421,-0.666666 1.08062,-1.477314 1.09063,-1.46471 0.66149,0.833333 -0.23965,1.283333 -0.67779,2.933333 -0.97365,3.666667 -0.51038,1.265078 -0.54008,1.256546 -0.58018,-0.166667 -0.034,-1.207377 -0.42631,-1.5 -2.01092,-1.5 -1.70703,0 -2.06094,0.332251 -2.66295,2.5 -0.90234,3.249184 -0.88379,3.5 0.25893,3.5 0.52836,0 1.14607,0.3 1.37268,0.666667 0.25754,0.416696 -1.1173,0.666666 -3.66666,0.666666 -2.54937,0 -3.9242,-0.24997 -3.66667,-0.666666 z M 200,29.941177 c 0,-0.700981 0.45,-1.27451 1,-1.27451 0.55,0 1,0.475 1,1.055555 0,1.781995 1.52736,0.661919 2.40335,-1.762468 1.02485,-2.836389 1.14801,-5.746319 0.26626,-6.291267 -0.36505,-0.225612 -1.41505,0.40049 -2.33333,1.391336 -1.84843,1.99448 -2.2557,1.40693 -0.63182,-0.911486 1.07735,-1.538128 3.88938,-2.011529 4.64888,-0.782632 0.29743,0.481256 0.71365,0.465312 1.33598,-0.05117 1.42689,-1.184218 3.97734,-0.530915 3.97734,1.018801 0,0.740741 -0.44444,1.333334 -1,1.333334 -0.55,0 -0.96228,-0.501276 -0.91619,-1.113947 0.16694,-2.218979 -1.7434,-0.386955 -2.44958,2.349162 -0.39247,1.520631 -0.86641,3.291263 -1.05321,3.934735 -0.6298,2.169572 1.81299,2.24513 3.52227,0.108948 1.70572,-2.131734 2.16865,-1.43971 0.56678,0.847274 -0.85623,1.222429 -1.65441,1.422847 -5.66667,1.422847 -4.15377,0 -4.67006,-0.140901 -4.67006,-1.274509 z m 14.56776,-0.225349 c -0.97379,-2.137237 -0.29267,-4.589883 1.98149,-7.135103 1.70143,-1.90423 2.08569,-2.036615 4.65267,-1.602926 1.53894,0.260002 2.79452,0.671362 2.79016,0.914133 C 223.98773,22.134703 223.54129,23.983333 223,26 c -1.17717,4.385684 -1.19625,4.666667 -0.31684,4.666667 0.37574,0 1.0115,-0.825 1.4128,-1.833334 0.4013,-1.008333 0.86333,-1.474964 1.02674,-1.036959 0.86203,2.310643 -2.51386,4.545797 -4.24746,2.812205 -0.5219,-0.521896 -0.85013,-0.521896 -1.17268,0 -0.24636,0.398614 -1.33664,0.724754 -2.42287,0.724754 -1.44365,0 -2.17321,-0.435133 -2.71193,-1.617505 z m 4.99216,-0.264551 c 1.41486,-1.563403 2.22904,-7.09099 1.1433,-7.762016 -1.18172,-0.730344 -3.28837,1.532188 -4.04584,4.345217 -1.11073,4.124944 0.52214,6.047118 2.90254,3.416799 z"
       id="path400" />
  </g>
</svg>
