<?xml version="1.0" encoding="UTF-8" standalone="no"?>
<svg
   xmlns:dc="http://purl.org/dc/elements/1.1/"
   xmlns:cc="http://creativecommons.org/ns#"
   xmlns:rdf="http://www.w3.org/1999/02/22-rdf-syntax-ns#"
   xmlns:svg="http://www.w3.org/2000/svg"
   xmlns="http://www.w3.org/2000/svg"
   xmlns:sodipodi="http://sodipodi.sourceforge.net/DTD/sodipodi-0.dtd"
   xmlns:inkscape="http://www.inkscape.org/namespaces/inkscape"
   version="1.1"
   id="svg224"
   width="254.636"
   height="446.55731"
   viewBox="0 0 254.636 446.55731"
   sodipodi:docname="10-1-4.svg"
   inkscape:version="1.0.1 (c497b03c, 2020-09-10)">
  <metadata
     id="metadata230">
    <rdf:RDF>
      <cc:Work
         rdf:about="">
        <dc:format>image/svg+xml</dc:format>
        <dc:type
           rdf:resource="http://purl.org/dc/dcmitype/StillImage" />
        <dc:title></dc:title>
      </cc:Work>
    </rdf:RDF>
  </metadata>
  <defs
     id="defs228" />
  <sodipodi:namedview
     pagecolor="#ffffff"
     bordercolor="#666666"
     borderopacity="1"
     objecttolerance="10"
     gridtolerance="10"
     guidetolerance="10"
     inkscape:pageopacity="0"
     inkscape:pageshadow="2"
     inkscape:window-width="740"
     inkscape:window-height="480"
     id="namedview226"
     showgrid="false"
     fit-margin-top="0"
     fit-margin-left="0"
     fit-margin-right="0"
     fit-margin-bottom="0"
     inkscape:pagecheckerboard="true"
     inkscape:zoom="1.3973463"
     inkscape:cx="40.755611"
     inkscape:cy="214.01193"
     inkscape:window-x="0"
     inkscape:window-y="25"
     inkscape:window-maximized="0"
     inkscape:current-layer="g232" />
  <g
     inkscape:groupmode="layer"
     inkscape:label="Image"
     id="g232"
     transform="translate(-231.45728,-24.654745)">
    <path
       style="fill:#1c1c1c;stroke-width:0.666667"
       d="m 392.11039,469.95292 c 0.63459,-1.19053 0.66426,-1.70386 0.10915,-1.88889 -1.12382,-0.37461 -0.92765,-2.14298 0.23773,-2.14298 1.38964,0 1.30733,3.58321 -0.10915,4.75171 -1.01422,0.83665 -1.03456,0.77504 -0.23773,-0.71984 z m -8.14775,-2.41538 c -0.55109,-0.5511 0.54935,-4.03416 2.11054,-6.68018 l 1.33912,-2.26964 h -2.17752 c -1.19763,0 -2.53751,0.36 -2.97751,0.8 -0.55721,0.5572 -0.8,0.57375 -0.8,0.0545 0,-2.23422 0.74953,-2.65092 4.19924,-2.33455 1.90709,0.17489 3.59361,0.43063 3.74783,0.5683 0.15423,0.13767 -0.35079,0.92413 -1.12226,1.74768 -1.65732,1.76923 -2.82481,4.61027 -2.82481,6.8741 0,1.53915 -0.65332,2.08106 -1.49463,1.23976 z m 15.93908,-0.0609 c -0.77808,-0.77806 -0.47748,-2.34544 0.38888,-2.02777 0.45834,0.16805 0.75834,0.64305 0.66667,1.05555 -0.28537,1.28416 2.41529,0.82062 3.14321,-0.5395 1.0495,-1.961 0.87741,-2.88156 -0.40456,-2.16413 -1.68334,0.94204 -3.38234,0.18761 -4.23989,-1.88269 -0.9933,-2.39804 0.0133,-4.47397 2.46807,-5.09008 3.93672,-0.98806 6.40476,5.62435 3.48478,9.3365 -1.31988,1.67796 -4.40603,2.41326 -5.50716,1.31212 z m 4.75626,-6.61233 c 0.2507,-2.56905 -1.34485,-4.2068 -2.86738,-2.94322 -1.02635,0.8518 -1.37184,4.0726 -0.52743,4.91701 0.25991,0.25991 1.08491,0.38491 1.83333,0.27778 0.97874,-0.1401 1.41712,-0.77223 1.56148,-2.25157 z m -16.53404,-14.74849 c 0,-0.25954 1.11088,-1.60954 2.46863,-3 l 2.46863,-2.5281 -2.59198,-2.65443 c -3.38165,-3.46313 -2.46284,-4.38194 1.00029,-1.00029 l 2.65443,2.59198 2.66666,-2.60393 c 3.16234,-3.08794 3.6519,-1.74663 0.53589,1.46826 l -2.13077,2.19841 2.13077,2.1984 c 3.11601,3.2149 2.62645,4.5562 -0.53589,1.46826 l -2.66666,-2.60393 -2.52811,2.46863 c -2.44671,2.38915 -3.47189,2.97875 -3.47189,1.99674 z M 233.80847,418.177 c -1.29265,-1.29264 -1.02149,-2.50256 0.63272,-2.8232 0.93807,-0.18182 1.12521,0.0779 0.8405,1.16667 -0.26378,1.00873 -0.0573,1.39773 0.738,1.39037 1.66459,-0.0154 2.61232,-0.81917 3.39588,-2.88009 0.97114,-2.55431 0.93389,-3.60188 -0.0916,-2.57637 -1.17734,1.17734 -4.17053,0.97328 -5.37807,-0.36666 -2.40942,-2.67362 -1.70557,-7.96786 1.20794,-9.08588 4.23163,-1.62383 6.97013,1.143 6.97013,7.04222 0,4.57098 -1.17828,7.28857 -3.64804,8.41386 -2.34092,1.0666 -3.38262,1.0039 -4.66744,-0.28092 z m 4.89655,-6.48616 c 2.17183,-2.6169 0.99512,-8.34011 -1.61807,-7.86982 -1.70681,0.30717 -2.27374,1.29345 -2.28613,3.97719 -0.0183,3.97085 2.09258,6.07551 3.9042,3.89263 z m 145.65692,6.90249 c -3.70377,-1.49465 -4.76424,-7.37163 -2.05547,-11.39116 2.94126,-4.36454 8.66962,-6.61914 11.79511,-4.64238 0.62212,0.39347 1.29468,0.35521 1.84944,-0.10521 1.39044,-1.15396 1.62322,-0.25516 0.79046,3.05204 -0.90425,3.5911 -1.7784,3.98503 -2.0753,0.93523 -0.14383,-1.47738 -0.73828,-2.44151 -1.9082,-3.09489 -5.2684,-2.9423 -12.54688,8.5488 -8.3513,13.18486 1.59854,1.76636 4.64677,1.79305 6.38392,0.0559 1.73976,-1.73976 1.68702,-2.959 -0.16666,-3.853 -1.26102,-0.60817 -0.86272,-0.72724 2.5,-0.74734 3.52154,-0.0211 3.85625,0.0851 2.79823,0.88737 -0.66097,0.50121 -1.51,2.02764 -1.88674,3.39206 -0.46229,1.67431 -0.90441,2.26133 -1.35999,1.80575 -0.45558,-0.45558 -1.25093,-0.37454 -2.4466,0.2493 -1.99147,1.03905 -3.76186,1.12097 -5.8669,0.27148 z m -138.44633,-0.43617 c -0.94368,-0.94368 -0.40969,-2.23611 0.92388,-2.23611 0.93198,0 1.312,0.36203 1.16667,1.11142 -0.23796,1.22699 -1.376,1.83924 -2.09055,1.12469 z m 73.20833,-0.23611 c 0.22661,-0.36667 0.83275,-0.66667 1.34698,-0.66667 0.52004,0 1.2243,-1.10945 1.58696,-2.5 1.6368,-6.2761 2.73272,-10.72609 2.73272,-11.09622 0,-0.22208 -0.4677,-0.40378 -1.03934,-0.40378 -0.57164,0 -0.85394,-0.3 -0.62732,-0.66666 0.62662,-1.0139 12.30792,-0.86018 12.66483,0.16666 0.15931,0.45834 0.0306,1.88334 -0.28601,3.16667 -0.48037,1.94705 -0.58697,2.0519 -0.64392,0.63333 -0.0979,-2.43856 -1.2735,-3.3 -4.50357,-3.3 -2.70851,0 -2.86638,0.11182 -3.52961,2.5 -0.38186,1.375 -0.69596,2.875 -0.698,3.33334 -0.006,1.40916 3.10114,0.92334 4.2642,-0.66667 1.08063,-1.47731 1.09064,-1.46471 0.6615,0.83333 -0.23965,1.28334 -0.6778,2.93334 -0.97365,3.66667 -0.51039,1.26508 -0.54009,1.25655 -0.58018,-0.16667 -0.034,-1.20737 -0.42631,-1.5 -2.01093,-1.5 -1.70702,0 -2.06093,0.33226 -2.66294,2.5 -0.90234,3.24919 -0.88379,3.5 0.25893,3.5 0.52836,0 1.14607,0.3 1.37268,0.66667 0.25753,0.41669 -1.1173,0.66667 -3.66667,0.66667 -2.54936,0 -3.9242,-0.24998 -3.66666,-0.66667 z m 18.98641,-1.03574 c -0.47899,-1.25984 -0.27173,-3.19968 0.79729,-7.46196 1.04548,-4.16845 1.22884,-5.83145 0.66375,-6.01981 -1.56407,-0.52136 -0.72738,-1.48249 1.29054,-1.48249 1.52153,0 1.97429,0.25287 1.70575,0.95266 -0.20106,0.52396 -0.55969,1.98743 -0.79695,3.25215 -0.40554,2.16171 -0.33429,2.28094 1.18902,1.98974 3.34294,-0.63904 4.86262,3.20978 2.82395,7.15213 -1.89144,3.65763 -6.52625,4.63468 -7.67335,1.61758 z m 5.27812,-1.27796 c 1.1721,-2.44551 1.33489,-6.45463 0.27713,-6.82543 -2.05533,-0.72053 -5.23926,6.26504 -3.8673,8.48491 0.76904,1.24433 2.60519,0.39561 3.59017,-1.65948 z m 56.05521,1.27796 c -0.47899,-1.25984 -0.27172,-3.19968 0.79729,-7.46196 1.04548,-4.16845 1.22884,-5.83145 0.66375,-6.01981 -1.56406,-0.52136 -0.72738,-1.48249 1.29054,-1.48249 1.52154,0 1.9743,0.25287 1.70576,0.95266 -0.20106,0.52396 -0.5597,1.98743 -0.79696,3.25215 -0.40554,2.16171 -0.33428,2.28094 1.18902,1.98974 3.34294,-0.63904 4.86262,3.20978 2.82396,7.15213 -1.89144,3.65763 -6.52626,4.63468 -7.67336,1.61758 z m 5.27812,-1.27796 c 1.1721,-2.44551 1.33489,-6.45463 0.27714,-6.82543 -2.05534,-0.72053 -5.23926,6.26504 -3.86731,8.48491 0.76904,1.24433 2.60519,0.39561 3.59017,-1.65948 z m -88.59786,-1.6863 v -2.66667 h -6 c -3.55555,0 -6,-0.2716 -6,-0.66666 0,-0.4 2.66667,-0.66667 6.66667,-0.66667 h 6.66666 v 3.33333 c 0,1.83334 -0.3,3.33334 -0.66667,3.33334 -0.36666,0 -0.66666,-1.2 -0.66666,-2.66667 z m 131.98645,-9.30147 c 0.63459,-1.19052 0.66426,-1.70385 0.10914,-1.88888 -1.12382,-0.37461 -0.92764,-2.14298 0.23774,-2.14298 1.38964,0 1.30733,3.58321 -0.10915,4.7517 -1.01422,0.83666 -1.03457,0.77505 -0.23773,-0.71984 z m -8.36006,-2.21098 c -1.88722,-1.03176 -2.27148,-1.84632 -2.28286,-4.83921 -0.0122,-3.20473 1.31782,-5.33514 3.70468,-5.93421 1.69675,-0.42585 3.61845,0.47743 3.61845,1.70083 0,1.01831 -1.89246,0.63121 -2.11779,-0.43319 -0.19168,-0.9055 -0.3816,-0.90131 -1.71554,0.0378 -1.90868,1.34374 -2.00379,2.98734 -0.14475,2.50119 1.83761,-0.48055 3.97808,1.58254 3.97808,3.83426 0,2.71827 -2.71339,4.40464 -5.04027,3.13252 z m 3.30228,-1.54208 c 0.96523,-2.51535 -0.52974,-5.31253 -2.44626,-4.5771 -1.14747,0.44033 -1.66221,4.22961 -0.70464,5.18718 0.82409,0.82409 2.74314,0.45252 3.1509,-0.61008 z m 12.53799,0.9212 c -1.09837,-1.09838 -1.00325,-2.86806 0.20822,-3.87349 0.76176,-0.63221 0.82505,-1.05746 0.25889,-1.73964 -1.15533,-1.39209 -0.14574,-4.17494 1.68095,-4.63341 3.15511,-0.79188 5.68847,2.14334 3.62813,4.20368 -0.56508,0.56508 -0.48052,1.03376 0.33334,1.84762 2.38368,2.38369 0.86256,4.99524 -2.90953,4.99524 -1.32,0 -2.76,-0.36 -3.2,-0.8 z m 5.66257,-0.96308 c 0.47138,-1.22836 -1.3664,-2.90359 -3.18533,-2.90359 -1.45335,0 -2.19475,1.89447 -1.20711,3.0845 1.0508,1.26614 3.8819,1.14954 4.39244,-0.18091 z m -0.59399,-6.70429 c 0.21923,-1.47983 -1.25651,-2.39233 -2.86858,-1.77372 -1.35138,0.51857 -1.26359,2.02159 0.16667,2.85313 1.57262,0.91433 2.459,0.56022 2.70191,-1.07941 z m -76.86858,-9.62767 c -5.5,-5.15549 -13.1863,-12.34065 -17.08068,-15.96701 l -7.08069,-6.59339 -16.76014,15.66105 c -9.21807,8.61358 -17.12105,15.66105 -17.56217,15.66105 -0.54018,0 -0.48332,-0.2982 0.17416,-0.91337 22.58829,-21.13477 33.66764,-31.10997 34.37774,-30.95171 1.95416,0.43553 35.90736,32.80145 34.09845,32.50438 -0.0917,-0.0151 -4.66667,-4.2455 -10.16667,-9.401 z m 60.33333,-3.71019 c 0,-0.25954 1.11089,-1.60954 2.46864,-3 l 2.46863,-2.52811 -2.59199,-2.65442 c -3.38164,-3.46313 -2.46283,-4.38194 1.0003,-1.0003 l 2.65442,2.59199 2.66667,-2.60393 c 3.16234,-3.08794 3.65189,-1.74664 0.53589,1.46826 l -2.13078,2.1984 2.13078,2.19841 c 3.116,3.21489 2.62645,4.5562 -0.53589,1.46826 l -2.66667,-2.60393 -2.5281,2.46863 c -2.44672,2.38915 -3.4719,2.97875 -3.4719,1.99674 z M 233.76031,352.28468 c -1.99514,-1.99513 -2.04469,-2.99805 -0.26025,-5.26661 1.27083,-1.6156 1.29634,-1.86337 0.33334,-3.23824 -1.40165,-2.00114 -1.31281,-3.58876 0.29054,-5.19212 1.59464,-1.59464 4.82974,-1.74168 6.28572,-0.28571 1.33449,1.33449 1.34617,3.89192 0.0238,5.21429 -0.92064,0.92063 -0.88705,1.16057 0.33333,2.38095 1.34628,1.34628 1.78787,4.34815 0.84693,5.75734 -0.73209,1.09641 -3.21502,2.26647 -4.8096,2.26647 -0.7741,0 -2.14383,-0.73637 -3.04382,-1.63637 z m 6.33705,-0.66494 c 1.25053,-1.50679 0.56449,-3.17115 -1.90054,-4.61081 -2.19592,-1.28248 -2.28034,-1.28448 -3.16449,-0.0753 -1.12237,1.53494 -1.17272,3.78979 -0.10839,4.85412 1.10461,1.10462 4.2007,1.00409 5.17342,-0.16797 z m -0.77342,-8.49869 c 1.25758,-1.25758 0.94225,-3.74363 -0.57804,-4.55726 -1.07195,-0.5737 -1.7383,-0.50146 -3,0.32524 -2.07431,1.35914 -2.04029,1.94203 0.21138,3.62196 2.17121,1.6199 2.32834,1.64838 3.36666,0.61006 z m 199.70466,10.13894 c -3.70376,-1.49465 -4.76423,-7.37162 -2.05546,-11.39116 2.94125,-4.36454 8.66961,-6.61914 11.7951,-4.64238 0.62212,0.39347 1.29468,0.35521 1.84945,-0.1052 1.39043,-1.15396 1.62322,-0.25516 0.79045,3.05204 -0.90425,3.5911 -1.77839,3.98502 -2.0753,0.93522 -0.14383,-1.47738 -0.73827,-2.44151 -1.90819,-3.09489 -5.26841,-2.9423 -12.54688,8.5488 -8.3513,13.18486 1.59853,1.76636 4.64676,1.79305 6.38392,0.0559 1.73976,-1.73976 1.68701,-2.95901 -0.16667,-3.85301 -1.26102,-0.60817 -0.86272,-0.72723 2.5,-0.74734 3.52155,-0.0211 3.85625,0.0851 2.79823,0.88737 -0.66096,0.50122 -1.51,2.02764 -1.88674,3.39206 -0.46229,1.67432 -0.9044,2.26134 -1.35998,1.80576 -0.45559,-0.45559 -1.25094,-0.37454 -2.4466,0.24929 -1.99148,1.03905 -3.76186,1.12097 -5.86691,0.27148 z m -193.11299,-0.43616 c -0.94368,-0.94368 -0.40969,-2.23612 0.92388,-2.23612 0.93198,0 1.312,0.36204 1.16667,1.11142 -0.23796,1.22699 -1.376,1.83924 -2.09055,1.1247 z m 106.54166,-0.23612 c 0.22661,-0.36666 0.83275,-0.66666 1.34698,-0.66666 0.52005,0 1.22431,-1.10946 1.58696,-2.5 1.63681,-6.2761 2.73273,-10.7261 2.73273,-11.09623 0,-0.22208 -0.46771,-0.40377 -1.03935,-0.40377 -0.57164,0 -0.85393,-0.3 -0.62732,-0.66667 0.62662,-1.01389 12.30792,-0.86017 12.66483,0.16667 0.15932,0.45833 0.0306,1.88333 -0.28601,3.16666 -0.48037,1.94705 -0.58697,2.0519 -0.64391,0.63334 -0.0979,-2.43857 -1.27351,-3.3 -4.50358,-3.3 -2.7085,0 -2.86638,0.11182 -3.52961,2.5 -0.38185,1.375 -0.69596,2.875 -0.698,3.33333 -0.006,1.40916 3.10114,0.92335 4.26421,-0.66667 1.08062,-1.47731 1.09063,-1.4647 0.66149,0.83334 -0.23965,1.28333 -0.67779,2.93333 -0.97365,3.66666 -0.51038,1.26508 -0.54008,1.25655 -0.58018,-0.16666 -0.034,-1.20738 -0.42631,-1.5 -2.01092,-1.5 -1.70703,0 -2.06094,0.33225 -2.66295,2.5 -0.90234,3.24918 -0.88379,3.5 0.25893,3.5 0.52836,0 1.14607,0.3 1.37268,0.66666 0.25754,0.4167 -1.1173,0.66667 -3.66666,0.66667 -2.54937,0 -3.9242,-0.24997 -3.66667,-0.66667 z m 18.9011,-0.95084 c -0.97379,-2.13723 -0.29267,-4.58988 1.98149,-7.1351 1.70142,-1.90423 2.08568,-2.03662 4.65267,-1.60292 1.53894,0.26 2.79451,0.67136 2.79016,0.91413 -0.005,0.24277 -0.45079,2.0914 -0.99209,4.10807 -1.17716,4.38568 -1.19624,4.66666 -0.31683,4.66666 0.37574,0 1.0115,-0.825 1.4128,-1.83333 0.40129,-1.00833 0.86333,-1.47497 1.02673,-1.03696 0.86204,2.31065 -2.51386,4.5458 -4.24745,2.81221 -0.5219,-0.5219 -0.85013,-0.5219 -1.17268,0 -0.24636,0.39861 -1.33665,0.72475 -2.42287,0.72475 -1.44366,0 -2.17321,-0.43513 -2.71193,-1.61751 z m 4.99216,-0.26454 c 1.41486,-1.56341 2.22904,-7.091 1.1433,-7.76202 -1.18173,-0.73035 -3.28837,1.53218 -4.04585,4.34522 -1.11072,4.12494 0.52215,6.04711 2.90255,3.4168 z m 77.6745,0.26454 c -0.97379,-2.13723 -0.29267,-4.58988 1.98149,-7.1351 1.70143,-1.90423 2.08569,-2.03662 4.65267,-1.60292 1.53894,0.26 2.79452,0.67136 2.79016,0.91413 -0.005,0.24277 -0.45079,2.0914 -0.99208,4.10807 -1.17717,4.38568 -1.19625,4.66666 -0.31684,4.66666 0.37574,0 1.0115,-0.825 1.4128,-1.83333 0.4013,-1.00833 0.86333,-1.47497 1.02674,-1.03696 0.86203,2.31065 -2.51386,4.5458 -4.24746,2.81221 -0.5219,-0.5219 -0.85013,-0.5219 -1.17268,0 -0.24636,0.39861 -1.33664,0.72475 -2.42287,0.72475 -1.44365,0 -2.17321,-0.43513 -2.71193,-1.61751 z m 4.99216,-0.26454 c 1.41486,-1.56341 2.22904,-7.091 1.1433,-7.76202 -1.18172,-0.73035 -3.28837,1.53218 -4.04584,4.34522 -1.11073,4.12494 0.52214,6.04711 2.90254,3.4168 z m -109.55992,-2.78462 v -2.66666 h -6 c -3.55555,0 -6,-0.27161 -6,-0.66667 0,-0.4 2.66667,-0.66667 6.66667,-0.66667 h 6.66666 v 3.33334 c 0,1.83333 -0.3,3.33333 -0.66666,3.33333 -0.36667,0 -0.66667,-1.2 -0.66667,-2.66667 z m 11.01852,-21.23198 c 0.72315,-0.67758 10.86716,-8.05542 22.54225,-16.39519 13.10578,-9.36175 21.65055,-15.04925 22.33333,-14.86533 0.8021,0.21606 42.65625,29.77651 44.71701,31.58241 0.15277,0.13389 0.0916,0.42959 -0.13593,0.65713 -0.22753,0.22754 -1.55253,-0.46926 -2.94444,-1.54844 -1.39191,-1.07918 -11.4288,-8.31826 -22.30421,-16.08682 l -19.77348,-14.12468 -22.33392,16.00645 c -20.35921,14.59121 -25.75392,18.19761 -22.10061,14.77447 z M 235.01352,287.54035 c -0.66271,-1.727 0.903,-6.78526 3.11463,-10.06228 l 1.95068,-2.89036 h -3.27765 c -2.41826,0 -3.45582,0.3059 -3.95717,1.16667 -0.61221,1.0511 -0.68153,1.02348 -0.6998,-0.27881 -0.0439,-3.13076 0.44138,-3.41639 5.18701,-3.05294 2.45267,0.18783 4.57298,0.44041 4.71182,0.56128 0.13883,0.12088 -0.73421,1.75732 -1.9401,3.63654 -1.62483,2.53207 -2.29435,4.46674 -2.58576,7.47195 -0.39132,4.03538 -1.62584,5.73552 -2.50366,3.44795 z m 168.01508,0.38631 c -3.70376,-1.49465 -4.76423,-7.37163 -2.05546,-11.39116 2.94126,-4.36454 8.66962,-6.61914 11.7951,-4.64238 0.62212,0.39347 1.29468,0.35521 1.84945,-0.10521 1.39043,-1.15396 1.62322,-0.25516 0.79045,3.05204 -0.90424,3.5911 -1.77839,3.98503 -2.0753,0.93523 -0.14382,-1.47738 -0.73827,-2.44151 -1.90819,-3.09489 -5.26841,-2.9423 -12.54688,8.5488 -8.3513,13.18486 1.59853,1.76636 4.64677,1.79305 6.38392,0.0559 1.73976,-1.73976 1.68701,-2.959 -0.16667,-3.853 -1.26102,-0.60817 -0.86272,-0.72724 2.5,-0.74734 3.52155,-0.0211 3.85626,0.0851 2.79824,0.88737 -0.66097,0.50121 -1.51,2.02764 -1.88674,3.39206 -0.4623,1.67431 -0.90441,2.26133 -1.35999,1.80575 -0.45559,-0.45558 -1.25093,-0.37454 -2.4466,0.2493 -1.99147,1.03905 -3.76186,1.12097 -5.86691,0.27148 z m -157.77966,-0.43617 c -0.94367,-0.94368 -0.40969,-2.23611 0.92388,-2.23611 0.93198,0 1.31201,0.36203 1.16667,1.11142 -0.23796,1.22699 -1.376,1.83924 -2.09055,1.12469 z m 172.86141,-1.27185 c -0.47899,-1.25984 -0.27173,-3.19968 0.79729,-7.46196 1.04548,-4.16845 1.22884,-5.83145 0.66375,-6.01981 -1.56407,-0.52136 -0.72738,-1.48249 1.29054,-1.48249 1.52153,0 1.97429,0.25287 1.70575,0.95266 -0.20106,0.52396 -0.55969,1.98743 -0.79695,3.25215 -0.40554,2.16171 -0.33429,2.28094 1.18902,1.98974 3.34294,-0.63904 4.86262,3.20978 2.82395,7.15213 -1.89144,3.65763 -6.52625,4.63468 -7.67335,1.61758 z m 5.27812,-1.27796 c 1.1721,-2.44551 1.33489,-6.45463 0.27713,-6.82543 -2.05533,-0.72053 -5.23926,6.26504 -3.8673,8.48491 0.76904,1.24433 2.60519,0.39561 3.59017,-1.65948 z m -27.9312,-1.6863 v -2.66667 h -6 c -3.55555,0 -6,-0.2716 -6,-0.66666 0,-0.4 2.66667,-0.66667 6.66667,-0.66667 h 6.66666 v 3.33333 c 0,1.83334 -0.3,3.33334 -0.66666,3.33334 -0.36667,0 -0.66667,-1.2 -0.66667,-2.66667 z m -160.9769,-24.91629 c -1.98033,-1.98034 -2.79257,-6.74217 -1.7097,-10.0233 1.25235,-3.79465 4.58236,-5.82604 7.63208,-4.65575 1.39331,0.53466 1.40405,3.59534 0.0126,3.59534 -0.68721,0 -0.9709,-0.48955 -0.83333,-1.43803 0.47985,-3.30844 -3.69212,-1.1457 -4.51996,2.34314 -0.41895,1.76564 -0.35136,1.85122 0.92328,1.16906 2.94655,-1.57695 6.13858,1.01303 6.13858,4.98077 0,2.283 -0.34861,3.12251 -1.75657,4.23001 -2.29109,1.80217 -3.93994,1.74581 -5.887,-0.20124 z m 4.95345,-1.03988 c 1.54873,-2.89384 0.34753,-7.37716 -1.97654,-7.37716 -1.51521,0 -2.66667,1.87112 -2.66667,4.33333 0,2.46221 1.15146,4.33333 2.66667,4.33333 0.70753,0 1.59697,-0.58028 1.97654,-1.2895 z m 162.26145,1.96178 c -3.70377,-1.49465 -4.76423,-7.37162 -2.05547,-11.39116 2.94126,-4.36454 8.66962,-6.61914 11.79511,-4.64238 0.62212,0.39347 1.29468,0.35521 1.84945,-0.1052 1.39043,-1.15396 1.62322,-0.25516 0.79045,3.05204 -0.90425,3.5911 -1.77839,3.98502 -2.0753,0.93522 -0.14383,-1.47738 -0.73827,-2.44151 -1.90819,-3.09489 -5.26841,-2.9423 -12.54688,8.5488 -8.3513,13.18486 1.59853,1.76636 4.64676,1.79305 6.38392,0.0559 1.73976,-1.73976 1.68701,-2.95901 -0.16667,-3.85301 -1.26102,-0.60817 -0.86272,-0.72723 2.5,-0.74734 3.52155,-0.0211 3.85625,0.0851 2.79823,0.88737 -0.66096,0.50122 -1.51,2.02764 -1.88674,3.39206 -0.46229,1.67432 -0.9044,2.26134 -1.35998,1.80576 -0.45559,-0.45559 -1.25094,-0.37454 -2.4466,0.24929 -1.99148,1.03905 -3.76186,1.12097 -5.86691,0.27148 z m -155.77966,-0.43616 c -0.94368,-0.94368 -0.40969,-2.23612 0.92388,-2.23612 0.93198,0 1.312,0.36204 1.16667,1.11142 -0.23796,1.22699 -1.376,1.83924 -2.09055,1.1247 z m 170.77609,-1.18696 c -0.97379,-2.13723 -0.29267,-4.58988 1.98149,-7.1351 1.70143,-1.90423 2.08569,-2.03662 4.65267,-1.60292 1.53894,0.26 2.79452,0.67136 2.79016,0.91413 -0.005,0.24277 -0.45079,2.0914 -0.99208,4.10807 -1.17717,4.38568 -1.19625,4.66666 -0.31684,4.66666 0.37574,0 1.0115,-0.825 1.4128,-1.83333 0.4013,-1.00833 0.86333,-1.47497 1.02674,-1.03696 0.86203,2.31065 -2.51386,4.5458 -4.24746,2.81221 -0.5219,-0.5219 -0.85013,-0.5219 -1.17268,0 -0.24636,0.39861 -1.33664,0.72475 -2.42287,0.72475 -1.44365,0 -2.17321,-0.43513 -2.71193,-1.61751 z m 4.99216,-0.26454 c 1.41486,-1.56341 2.22904,-7.091 1.1433,-7.76202 -1.18172,-0.73035 -3.28837,1.53218 -4.04584,4.34522 -1.11073,4.12494 0.52214,6.04711 2.90254,3.4168 z m -26.89326,-2.78462 v -2.66666 h -6 c -3.55555,0 -6,-0.27161 -6,-0.66667 0,-0.4 2.66667,-0.66667 6.66667,-0.66667 h 6.66667 v 3.33334 c 0,1.83333 -0.3,3.33333 -0.66667,3.33333 -0.36667,0 -0.66667,-1.2 -0.66667,-2.66667 z m 9.33334,-35.29398 c 0,-9.47687 0.25356,-15.45071 0.66666,-15.70602 0.43724,-0.27022 0.66667,4.99308 0.66667,15.29399 0,10.02623 -0.24109,15.70601 -0.66667,15.70601 -0.42507,0 -0.66666,-5.54244 -0.66666,-15.29398 z M 234.27228,194.21658 c -1.80951,-1.26743 -2.1061,-4.9622 -0.39834,-4.9622 0.84717,0 0.99649,0.43423 0.68496,1.99189 -0.34389,1.71946 -0.17175,2.04877 1.25865,2.40778 0.94218,0.23647 2.08472,0.0609 2.64838,-0.40686 0.99921,-0.82926 1.34801,-4.9543 0.58669,-6.93828 -0.51068,-1.33081 -2.50756,-1.36523 -3.58925,-0.0619 -1.35557,1.63335 -2.00609,0.4844 -2.00609,-3.54311 v -3.8051 h 3.99259 c 3.86817,0 3.95459,0.038 2.77325,1.21933 -0.67063,0.67063 -2.1673,1.24629 -3.32592,1.27923 -1.8187,0.0517 -2.10659,0.30106 -2.10659,1.82458 0,1.61454 0.19296,1.74215 2.26802,1.4999 5.36693,-0.62656 7.24897,7.02431 2.35096,9.55717 -2.39198,1.23694 -3.29788,1.22593 -5.13731,-0.0625 z m 153.56862,0.35894 c 5.39875,-0.56978 7.25102,-1.49629 8.36422,-4.18379 0.64165,-1.5491 0.58921,-2.31406 -0.2842,-4.14564 -1.21745,-2.553 -4.00412,-3.64844 -9.29698,-3.65466 -1.74167,-0.002 -3.16667,-0.30372 -3.16667,-0.67038 0,-0.8784 6.31723,-0.84883 9.53468,0.0446 4.37703,1.21546 6.33042,6.05419 4.02181,9.96237 -1.5531,2.62917 -3.55004,3.34021 -9.08786,3.23581 l -4.80196,-0.0905 4.71696,-0.49782 z m 23.85437,0.0178 c -3.70377,-1.49465 -4.76423,-7.37163 -2.05547,-11.39116 2.94126,-4.36454 8.66962,-6.61914 11.79511,-4.64238 0.62212,0.39347 1.29468,0.35521 1.84945,-0.10521 1.39043,-1.15396 1.62322,-0.25516 0.79045,3.05204 -0.90425,3.5911 -1.77839,3.98503 -2.0753,0.93523 -0.14383,-1.47738 -0.73827,-2.44151 -1.90819,-3.09489 -5.26841,-2.9423 -12.54688,8.5488 -8.3513,13.18486 1.59853,1.76636 4.64676,1.79305 6.38392,0.0559 1.73976,-1.73976 1.68701,-2.959 -0.16667,-3.853 -1.26102,-0.60817 -0.86272,-0.72724 2.5,-0.74734 3.52155,-0.0211 3.85625,0.0851 2.79823,0.88737 -0.66096,0.50121 -1.51,2.02764 -1.88674,3.39206 -0.46229,1.67431 -0.9044,2.26133 -1.35998,1.80575 -0.45559,-0.45558 -1.25094,-0.37454 -2.4466,0.2493 -1.99148,1.03905 -3.76186,1.12097 -5.86691,0.27148 z m 34.76108,-2.28037 c -0.973,-1.66029 -1.57812,-3.32768 -1.34474,-3.70531 0.76576,-1.23903 2.11642,-0.72 2.96331,1.13873 l 0.83167,1.82532 1.61962,-3.40769 c 1.72398,-3.62731 7.80863,-10.24295 9.42081,-10.24295 0.53127,0 -0.43089,1.35757 -2.13813,3.01682 -1.92746,1.87327 -3.8642,4.71622 -5.10934,7.5 -3.57104,7.98382 -3.76483,8.10411 -6.2432,3.87508 z m -200.54074,1.84421 c -0.94368,-0.94368 -0.40969,-2.23611 0.92388,-2.23611 0.93198,0 1.312,0.36203 1.16667,1.11142 -0.23796,1.22698 -1.376,1.83924 -2.09055,1.12469 z m 101.20833,-0.23611 c 0.22661,-0.36667 0.83275,-0.66667 1.34698,-0.66667 0.52004,0 1.2243,-1.10945 1.58696,-2.5 1.6368,-6.2761 2.73272,-10.72609 2.73272,-11.09623 0,-0.22208 -0.4677,-0.40377 -1.03934,-0.40377 -0.57164,0 -0.85394,-0.3 -0.62732,-0.66667 0.62662,-1.01389 12.30792,-0.86017 12.66483,0.16667 0.15931,0.45833 0.0306,1.88333 -0.28601,3.16667 -0.48037,1.94704 -0.58697,2.0519 -0.64392,0.63333 -0.0979,-2.43857 -1.2735,-3.3 -4.50357,-3.3 -2.70851,0 -2.86638,0.11182 -3.52961,2.5 -0.38186,1.375 -0.69596,2.875 -0.698,3.33333 -0.006,1.40916 3.10114,0.92335 4.2642,-0.66666 1.08063,-1.47732 1.09064,-1.46471 0.6615,0.83333 -0.23965,1.28333 -0.6778,2.93333 -0.97365,3.66667 -0.51039,1.26508 -0.54009,1.25654 -0.58018,-0.16667 -0.034,-1.20737 -0.42631,-1.5 -2.01093,-1.5 -1.70702,0 -2.06093,0.33225 -2.66294,2.5 -0.90234,3.24919 -0.88379,3.5 0.25893,3.5 0.52836,0 1.14607,0.3 1.37268,0.66667 0.25753,0.41669 -1.1173,0.66666 -3.66667,0.66666 -2.54936,0 -3.9242,-0.24997 -3.66666,-0.66666 z m 18.98641,-1.03574 c -0.47899,-1.25984 -0.27173,-3.19968 0.79729,-7.46196 1.04548,-4.16846 1.22884,-5.83146 0.66375,-6.01982 -1.56407,-0.52136 -0.72738,-1.48248 1.29054,-1.48248 1.52153,0 1.97429,0.25286 1.70575,0.95266 -0.20106,0.52396 -0.55969,1.98742 -0.79695,3.25215 -0.40554,2.16171 -0.33429,2.28094 1.18902,1.98974 3.34294,-0.63905 4.86262,3.20978 2.82395,7.15213 -1.89144,3.65763 -6.52625,4.63468 -7.67335,1.61758 z m 5.27812,-1.27796 c 1.1721,-2.44552 1.33489,-6.45463 0.27713,-6.82544 -2.05533,-0.72052 -5.23926,6.26505 -3.8673,8.48492 0.76904,1.24433 2.60519,0.39561 3.59017,-1.65948 z m 54.72188,1.27796 c -0.47899,-1.25984 -0.27173,-3.19968 0.79729,-7.46196 1.04548,-4.16846 1.22884,-5.83146 0.66375,-6.01982 -1.56407,-0.52136 -0.72738,-1.48248 1.29054,-1.48248 1.52153,0 1.97429,0.25286 1.70575,0.95266 -0.20106,0.52396 -0.55969,1.98742 -0.79695,3.25215 -0.40554,2.16171 -0.33429,2.28094 1.18902,1.98974 3.34294,-0.63905 4.86262,3.20978 2.82395,7.15213 -1.89144,3.65763 -6.52625,4.63468 -7.67335,1.61758 z m 5.27812,-1.27796 c 1.1721,-2.44552 1.33489,-6.45463 0.27713,-6.82544 -2.05533,-0.72052 -5.23926,6.26505 -3.8673,8.48492 0.76904,1.24433 2.60519,0.39561 3.59017,-1.65948 z m -43.54757,-25.6985 c 5.39875,-0.56978 7.25102,-1.49628 8.36422,-4.18379 0.64165,-1.54909 0.58921,-2.31406 -0.2842,-4.14563 -1.21745,-2.553 -4.00412,-3.64845 -9.29698,-3.65466 -1.74167,-0.002 -3.16667,-0.30372 -3.16667,-0.67039 0,-0.8784 6.31723,-0.84883 9.53468,0.0446 4.37703,1.21547 6.33042,6.05419 4.02181,9.96237 -1.5531,2.62918 -3.55004,3.34021 -9.08786,3.23582 l -4.80196,-0.0905 z m 23.85437,0.0178 c -3.70377,-1.49465 -4.76423,-7.37162 -2.05547,-11.39116 2.94126,-4.36454 8.66962,-6.61914 11.79511,-4.64238 0.62212,0.39347 1.29468,0.35521 1.84945,-0.1052 1.39043,-1.15396 1.62322,-0.25516 0.79045,3.05204 -0.90425,3.5911 -1.77839,3.98502 -2.0753,0.93522 -0.14383,-1.47738 -0.73827,-2.44151 -1.90819,-3.09489 -5.26841,-2.9423 -12.54688,8.5488 -8.3513,13.18486 1.59853,1.76636 4.64676,1.79305 6.38392,0.0559 1.73976,-1.73976 1.68701,-2.959 -0.16667,-3.853 -1.26102,-0.60817 -0.86272,-0.72724 2.5,-0.74734 3.52155,-0.0211 3.85625,0.0851 2.79823,0.88737 -0.66096,0.50121 -1.51,2.02764 -1.88674,3.39206 -0.46229,1.67431 -0.9044,2.26133 -1.35998,1.80575 -0.45559,-0.45558 -1.25094,-0.37454 -2.4466,0.2493 -1.99148,1.03905 -3.76186,1.12097 -5.86691,0.27148 z m 37.42774,-2.28037 c -0.97299,-1.66029 -1.57812,-3.32767 -1.34473,-3.70531 0.76576,-1.23902 2.11641,-0.72 2.96331,1.13873 l 0.83167,1.82533 1.61961,-3.4077 c 1.72399,-3.6273 7.80864,-10.24295 9.42082,-10.24295 0.53127,0 -0.43089,1.35757 -2.13814,3.01682 -1.92745,1.87327 -3.86419,4.71622 -5.10934,7.5 -3.57104,7.98383 -3.76482,8.10411 -6.2432,3.87509 z m -213.66573,1.6081 c 0,-0.36667 0.45,-0.66667 1,-0.66667 0.55555,0 1,-0.59259 1,-1.33333 0,-1.1358 -0.44445,-1.33333 -3,-1.33333 -1.65,0 -3,-0.30249 -3,-0.67219 0,-0.92067 6.87722,-11.2941 7.5,-11.3128 0.275,-0.008 0.5,2.39465 0.5,5.3398 0,4.89053 0.12579,5.40135 1.45084,5.89152 l 1.45084,0.5367 -1.45084,0.37941 c -1.60515,0.41975 -2.01317,2.50422 -0.49019,2.50422 0.52836,0 1.14607,0.3 1.37268,0.66667 0.25394,0.41089 -0.88197,0.66667 -2.96066,0.66667 -1.85497,0 -3.37267,-0.3 -3.37267,-0.66667 z m 2,-7.66667 c 0,-2.01666 -0.10516,-3.66666 -0.23369,-3.66666 -0.27133,0 -4.43298,6.61314 -4.43298,7.0443 0,0.15896 1.05,0.28903 2.33333,0.28903 h 2.33334 z m 7.79166,7.90278 c -0.94367,-0.94368 -0.40969,-2.23611 0.92388,-2.23611 0.93198,0 1.31201,0.36203 1.16667,1.11142 -0.23796,1.22699 -1.376,1.83924 -2.09055,1.12469 z m 99.875,-0.23611 c 0.22661,-0.36667 0.83275,-0.66667 1.34698,-0.66667 0.52004,0 1.2243,-1.10945 1.58696,-2.5 1.6368,-6.2761 2.73272,-10.72609 2.73272,-11.09622 0,-0.22208 -0.4677,-0.40378 -1.03934,-0.40378 -0.57164,0 -0.85394,-0.3 -0.62732,-0.66666 0.62662,-1.0139 12.30792,-0.86018 12.66483,0.16666 0.15931,0.45834 0.0306,1.88334 -0.28601,3.16667 -0.48037,1.94705 -0.58697,2.0519 -0.64392,0.63333 -0.0979,-2.43856 -1.2735,-3.3 -4.50357,-3.3 -2.70851,0 -2.86638,0.11182 -3.52961,2.5 -0.38186,1.375 -0.69596,2.875 -0.698,3.33334 -0.006,1.40916 3.10114,0.92334 4.2642,-0.66667 1.08063,-1.47731 1.09064,-1.46471 0.6615,0.83333 -0.23965,1.28334 -0.6778,2.93334 -0.97365,3.66667 -0.51039,1.26508 -0.54009,1.25655 -0.58018,-0.16667 -0.034,-1.20737 -0.42631,-1.5 -2.01093,-1.5 -1.70702,0 -2.06093,0.33226 -2.66294,2.5 -0.90234,3.24919 -0.88379,3.5 0.25893,3.5 0.52836,0 1.14607,0.3 1.37268,0.66667 0.25753,0.41669 -1.1173,0.66667 -3.66667,0.66667 -2.54936,0 -3.9242,-0.24998 -3.66666,-0.66667 z m 18.9011,-0.95084 c -0.9738,-2.13723 -0.29268,-4.58988 1.98148,-7.1351 1.70143,-1.90423 2.08569,-2.03662 4.65268,-1.60293 1.53894,0.26 2.79451,0.67136 2.79016,0.91414 -0.005,0.24276 -0.4508,2.0914 -0.99209,4.10806 -1.17717,4.38569 -1.19625,4.66667 -0.31683,4.66667 0.37574,0 1.0115,-0.825 1.4128,-1.83333 0.40129,-1.00834 0.86332,-1.47497 1.02673,-1.03696 0.86203,2.31064 -2.51386,4.5458 -4.24745,2.8122 -0.5219,-0.5219 -0.85014,-0.5219 -1.17268,0 -0.24636,0.39862 -1.33665,0.72476 -2.42288,0.72476 -1.44365,0 -2.1732,-0.43514 -2.71192,-1.61751 z m 4.99216,-0.26455 c 1.41486,-1.5634 2.22904,-7.09099 1.1433,-7.76202 -1.18173,-0.73034 -3.28838,1.53219 -4.04585,4.34522 -1.11073,4.12494 0.52215,6.04712 2.90255,3.4168 z m 57.00784,0.26455 c -0.9738,-2.13723 -0.29268,-4.58988 1.98148,-7.1351 1.70143,-1.90423 2.08569,-2.03662 4.65268,-1.60293 1.53894,0.26 2.79451,0.67136 2.79016,0.91414 -0.005,0.24276 -0.4508,2.0914 -0.99209,4.10806 -1.17717,4.38569 -1.19625,4.66667 -0.31683,4.66667 0.37574,0 1.0115,-0.825 1.4128,-1.83333 0.40129,-1.00834 0.86332,-1.47497 1.02673,-1.03696 0.86203,2.31064 -2.51386,4.5458 -4.24745,2.8122 -0.5219,-0.5219 -0.85014,-0.5219 -1.17268,0 -0.24636,0.39862 -1.33665,0.72476 -2.42288,0.72476 -1.44365,0 -2.1732,-0.43514 -2.71192,-1.61751 z m 4.99216,-0.26455 c 1.41486,-1.5634 2.22904,-7.09099 1.1433,-7.76202 -1.18173,-0.73034 -3.28838,1.53219 -4.04585,4.34522 -1.11073,4.12494 0.52215,6.04712 2.90255,3.4168 z m -26.44882,-23.22906 c -0.74216,-0.74216 -0.52593,-27.55555 0.22222,-27.55555 0.42328,0 0.66667,5.11111 0.66667,14 0,7.7 -0.1,14 -0.22222,14 -0.12223,0 -0.42223,-0.2 -0.66667,-0.44445 z m -35.42162,-37.2606 c -4.12132,-4.446969 -4.57716,-13.582976 -0.96215,-19.283256 2.4589,-3.877294 3.87742,-3.94774 1.61077,-0.08 -3.08167,5.25848 -3.05308,13.51294 0.0627,18.104306 2.04718,3.0167 1.61939,3.77383 -0.71132,1.25895 z m 94.97717,1.41128 c 0,-0.27522 0.61392,-1.36258 1.36428,-2.41636 2.17374,-3.052736 3.06071,-8.575309 2.10769,-13.12321 -0.44181,-2.108333 -1.40373,-4.646186 -2.13763,-5.639673 -1.57066,-2.126253 -1.66618,-2.612487 -0.41919,-2.133973 0.50333,0.193146 1.70333,1.799326 2.66667,3.569293 3.20692,5.892193 2.15528,15.055833 -2.17754,18.974343 -0.77236,0.6985 -1.40428,1.04481 -1.40428,0.76958 z M 233.09364,98.284674 c -1.89257,-1.892567 -2.06544,-2.907493 -0.59155,-3.47308 1.50468,-0.5774 2.71053,0.797667 1.73271,1.975867 -0.93546,1.127166 -0.36209,1.800246 1.53359,1.800246 1.99155,0 3.02222,-1.250446 3.02222,-3.666666 0,-2.38846 -1.0216,-3.658087 -2.96667,-3.686941 -1.3577,-0.02013 -1.35792,-0.02507 -0.0333,-0.749546 2.90874,-1.59096 3.70839,-3.759894 2.01173,-5.456547 -1.54228,-1.54228 -3.54128,-0.69024 -3.15247,1.343687 0.2577,1.348033 0.0829,1.63568 -0.88029,1.448973 -1.77082,-0.343253 -1.91371,-1.631547 -0.35397,-3.191293 1.49213,-1.492127 4.04112,-1.779 6.0855,-0.68488 1.6065,0.85978 1.72223,4.115246 0.2004,5.63708 -1.0077,1.0077 -0.98278,1.16358 0.33333,2.08542 2.10928,1.477407 1.93372,5.088433 -0.33413,6.872327 -2.33017,1.832909 -4.60727,1.745149 -6.60707,-0.254647 z m 181.41551,-5.35194 c -1.73183,-3.879874 -3.01299,-7.41972 -2.84701,-7.866334 0.29909,-0.804833 5.79513,10.311247 5.79513,11.721021 0,1.502186 1.24228,-0.653354 3.69093,-6.404307 1.4146,-3.322347 2.75129,-5.619854 3.07899,-5.292154 0.55455,0.554554 -4.58785,12.914681 -5.93262,14.259447 -0.40441,0.404407 -1.78525,-1.936613 -3.78542,-6.417673 z m 21.18612,6.327253 c -3.70377,-1.494653 -4.76423,-7.371627 -2.05547,-11.39116 2.94126,-4.36454 8.66962,-6.61914 11.79511,-4.64238 0.62212,0.393467 1.29468,0.355207 1.84944,-0.105207 1.39044,-1.15396 1.62322,-0.25516 0.79046,3.05204 -0.90425,3.5911 -1.7784,3.985027 -2.0753,0.935227 -0.14383,-1.47738 -0.73828,-2.441513 -1.9082,-3.094893 -5.2684,-2.9423 -12.54687,8.5488 -8.35129,13.18486 1.59853,1.76636 4.64676,1.793053 6.38391,0.05593 1.73976,-1.73976 1.68702,-2.959006 -0.16666,-3.853006 -1.26102,-0.608167 -0.86272,-0.727234 2.5,-0.74734 3.52154,-0.02107 3.85625,0.08509 2.79823,0.887373 -0.66097,0.501213 -1.51,2.02764 -1.88674,3.39206 -0.46229,1.674313 -0.90441,2.261333 -1.35999,1.805753 -0.45558,-0.455586 -1.25093,-0.37454 -2.4466,0.249294 -1.99147,1.039052 -3.76186,1.120972 -5.8669,0.27148 z M 245.24894,98.823821 c -0.94367,-0.94368 -0.40969,-2.236114 0.92388,-2.236114 0.93198,0 1.31201,0.362034 1.16667,1.11142 -0.23796,1.226987 -1.376,1.83924 -2.09055,1.124694 z m 92.875,-0.236114 c 0,-0.380953 2,-0.666666 4.66666,-0.666666 h 4.66667 v -3.304127 -3.304127 l -4.83333,-0.230073 -4.83334,-0.23008 4.83334,-0.13246 4.83333,-0.132467 V 87.254374 83.92104 h -4.66667 c -2.66666,0 -4.66666,-0.285713 -4.66666,-0.666666 0,-0.388887 2.22222,-0.666667 5.33333,-0.666667 h 5.33333 v 8.333333 8.333334 h -5.33333 c -3.11111,0 -5.33333,-0.27778 -5.33333,-0.666667 z m 12.66666,-0.725493 c 0,-0.70098 0.45,-1.274507 1,-1.274507 0.55,0 1,0.475 1,1.055554 0,1.782 1.52737,0.66192 2.40336,-1.762467 1.02484,-2.836387 1.148,-5.74632 0.26626,-6.291267 -0.36505,-0.225613 -1.41505,0.400487 -2.33334,1.39134 -1.84842,1.99448 -2.25569,1.406927 -0.63181,-0.911487 1.07735,-1.538133 3.88937,-2.011533 4.64887,-0.782633 0.29744,0.481253 0.71366,0.465313 1.33599,-0.0512 1.42689,-1.184213 3.97734,-0.530907 3.97734,1.018807 0,0.74074 -0.44445,1.333333 -1,1.333333 -0.55,0 -0.96229,-0.501273 -0.91619,-1.113947 0.16694,-2.21898 -1.7434,-0.386953 -2.44958,2.349161 -0.39248,1.520633 -0.86642,3.291266 -1.05321,3.93474 -0.6298,2.169566 1.81299,2.245126 3.52227,0.108946 1.70572,-2.131733 2.16864,-1.439713 0.56678,0.847274 -0.85623,1.222426 -1.65442,1.422846 -5.66667,1.422846 -4.15377,0 -4.67007,-0.1409 -4.67007,-1.274513 z m 23,0.725493 c 0.22662,-0.366666 0.83276,-0.666666 1.34698,-0.666666 0.52005,0 1.22431,-1.109454 1.58696,-2.5 1.63681,-6.276101 2.73273,-10.726094 2.73273,-11.096227 0,-0.22208 -0.46771,-0.403774 -1.03935,-0.403774 -0.57164,0 -0.85393,-0.3 -0.62732,-0.666666 0.62662,-1.013894 12.30792,-0.860174 12.66484,0.166666 0.15931,0.458334 0.0306,1.883334 -0.28602,3.166667 -0.48036,1.947047 -0.58696,2.0519 -0.64391,0.633333 -0.0979,-2.438566 -1.27351,-3.3 -4.50357,-3.3 -2.70851,0 -2.86638,0.11182 -3.52962,2.5 -0.38185,1.375 -0.69596,2.875 -0.698,3.333334 -0.006,1.40916 3.10114,0.923346 4.26421,-0.666667 1.08063,-1.477313 1.09063,-1.464707 0.66149,0.833333 -0.23964,1.283334 -0.67779,2.933334 -0.97364,3.666667 -0.51039,1.26508 -0.54009,1.256547 -0.58018,-0.166666 -0.034,-1.207374 -0.42632,-1.500001 -2.01093,-1.500001 -1.70703,0 -2.06093,0.332254 -2.66295,2.500001 -0.90234,3.249186 -0.88378,3.5 0.25894,3.5 0.52836,0 1.14606,0.3 1.37268,0.666666 0.25753,0.416694 -1.1173,0.666667 -3.66667,0.666667 -2.54937,0 -3.9242,-0.249973 -3.66667,-0.666667 z m 18.33334,-0.725493 c 0,-0.70098 0.45,-1.274507 1,-1.274507 0.55,0 1,0.475 1,1.055554 0,1.782 1.52736,0.66192 2.40335,-1.762467 1.02485,-2.836387 1.14801,-5.74632 0.26626,-6.291267 -0.36505,-0.225613 -1.41505,0.400487 -2.33333,1.39134 -1.84843,1.99448 -2.2557,1.406927 -0.63182,-0.911487 1.07735,-1.538133 3.88938,-2.011533 4.64888,-0.782633 0.29743,0.481253 0.71365,0.465313 1.33598,-0.0512 1.42689,-1.184213 3.97734,-0.530907 3.97734,1.018807 0,0.74074 -0.44444,1.333333 -1,1.333333 -0.55,0 -0.96228,-0.501273 -0.91619,-1.113947 0.16694,-2.21898 -1.7434,-0.386953 -2.44958,2.349161 -0.39247,1.520633 -0.86641,3.291266 -1.05321,3.93474 -0.6298,2.169566 1.81299,2.245126 3.52227,0.108946 1.70572,-2.131733 2.16865,-1.439713 0.56678,0.847274 -0.85623,1.222426 -1.65441,1.422846 -5.66667,1.422846 -4.15377,0 -4.67006,-0.1409 -4.67006,-1.274513 z m 57.99999,0 c 0,-0.70098 0.45,-1.274507 1,-1.274507 0.55,0 1,0.475 1,1.055554 0,1.782 1.52737,0.66192 2.40336,-1.762467 1.02484,-2.836387 1.148,-5.74632 0.26626,-6.291267 -0.36505,-0.225613 -1.41505,0.400487 -2.33334,1.39134 -1.84842,1.99448 -2.25569,1.406927 -0.63181,-0.911487 1.07735,-1.538133 3.88937,-2.011533 4.64887,-0.782633 0.29744,0.481253 0.71366,0.465313 1.33599,-0.0512 1.42689,-1.184213 3.97734,-0.530907 3.97734,1.018807 0,0.74074 -0.44445,1.333333 -1,1.333333 -0.55,0 -0.96229,-0.501273 -0.91619,-1.113947 0.16694,-2.21898 -1.7434,-0.386953 -2.44958,2.349161 -0.39248,1.520633 -0.86642,3.291266 -1.05321,3.93474 -0.6298,2.169566 1.81299,2.245126 3.52227,0.108946 1.70572,-2.131733 2.16864,-1.439713 0.56678,0.847274 -0.85623,1.222426 -1.65442,1.422846 -5.66667,1.422846 -4.15377,0 -4.67007,-0.1409 -4.67007,-1.274513 z M 401.0286,71.259986 c -3.70376,-1.494654 -4.76423,-7.371625 -2.05546,-11.391159 2.94126,-4.36454 8.66962,-6.619138 11.7951,-4.64238 0.62212,0.393466 1.29468,0.355206 1.84945,-0.105209 1.39043,-1.153959 1.62322,-0.255157 0.79045,3.052043 -0.90424,3.591098 -1.77839,3.985028 -2.0753,0.935223 -0.14382,-1.477379 -0.73827,-2.441511 -1.90819,-3.094887 -5.26841,-2.942305 -12.54688,8.548796 -8.3513,13.184857 1.59853,1.766362 4.64677,1.793053 6.38392,0.0559 1.73976,-1.739757 1.68701,-2.959006 -0.16667,-3.853003 -1.26102,-0.608167 -0.86272,-0.727234 2.5,-0.747341 3.52155,-0.02106 3.85626,0.08508 2.79824,0.887373 -0.66097,0.50121 -1.51,2.027636 -1.88674,3.392059 -0.4623,1.67431 -0.90441,2.26133 -1.35999,1.80575 -0.45559,-0.455582 -1.25093,-0.374539 -2.4466,0.249298 -1.99147,1.039049 -3.76186,1.12097 -5.86691,0.271476 z m 38.76108,-2.280371 c -0.97299,-1.660288 -1.57812,-3.327676 -1.34473,-3.705306 0.76576,-1.239027 2.11641,-0.720005 2.9633,1.138724 l 0.83168,1.825325 1.61961,-3.407694 c 1.72399,-3.627314 7.80863,-10.242957 9.42081,-10.242957 0.53128,0 -0.43088,1.35757 -2.13813,3.016823 -1.92745,1.873267 -3.86419,4.716215 -5.10934,7.5 -3.57104,7.983825 -3.76483,8.104108 -6.2432,3.875085 z m -207.66574,1.646886 c 0,-0.345329 1.5,-2.342007 3.33334,-4.43706 2.48566,-2.840512 3.33333,-4.342268 3.33333,-5.90546 0,-2.470195 -1.0263,-3.696274 -3.09399,-3.696274 -1.86441,0 -2.60153,1.093639 -1.57268,2.333333 0.90601,1.091669 0.35293,2.333333 -1.03934,2.333333 -0.61884,0 -0.96066,-0.698183 -0.96066,-1.962197 0,-3.781536 5.14534,-5.409785 7.88379,-2.494835 2.37715,2.530358 1.87959,4.748808 -1.98049,8.830273 l -3.43004,3.62676 h 2.66149 c 2.10128,0 2.81377,-0.315735 3.38492,-1.500001 l 0.72342,-1.5 0.0451,1.445476 c 0.0972,3.114214 -0.5254,3.554525 -5.0262,3.554525 -2.3441,0 -4.26201,-0.282543 -4.26201,-0.627873 z m 13.125,0.197317 c -0.94367,-0.943677 -0.40969,-2.236111 0.92388,-2.236111 0.93198,0 1.31201,0.362033 1.16667,1.111423 -0.23796,1.226986 -1.376,1.839236 -2.09055,1.124688 z M 370.7906,70.587707 c 0,-0.380953 2,-0.666667 4.66667,-0.666667 h 4.66667 v -3.304127 -3.304127 l -4.83334,-0.230075 -4.83333,-0.230075 4.83333,-0.132465 4.83334,-0.132464 V 59.254373 55.92104 h -4.66667 c -2.66667,0 -4.66667,-0.285714 -4.66667,-0.666667 0,-0.388888 2.22222,-0.666666 5.33334,-0.666666 h 5.33333 v 8.333333 8.333334 h -5.33333 c -3.11112,0 -5.33334,-0.277778 -5.33334,-0.666667 z m 12,-0.72549 c 0,-0.700981 0.45,-1.27451 1,-1.27451 0.55,0 1,0.475 1,1.055555 0,1.781995 1.52737,0.66192 2.40336,-1.762468 1.02484,-2.836389 1.148,-5.746319 0.26626,-6.291267 -0.36505,-0.225612 -1.41505,0.40049 -2.33334,1.391336 -1.84842,1.99448 -2.25569,1.40693 -0.63181,-0.911486 1.07735,-1.538128 3.88937,-2.011529 4.64887,-0.782632 0.29744,0.481256 0.71366,0.465312 1.33599,-0.05117 1.42689,-1.184218 3.97734,-0.530915 3.97734,1.018801 0,0.740741 -0.44445,1.333334 -1,1.333334 -0.55,0 -0.96229,-0.501276 -0.91619,-1.113947 0.16694,-2.218979 -1.7434,-0.386955 -2.44958,2.349162 -0.39248,1.520631 -0.86642,3.291263 -1.05321,3.934736 -0.6298,2.169572 1.81299,2.24513 3.52227,0.108948 1.70572,-2.131735 2.16864,-1.439711 0.56678,0.847273 -0.85623,1.222429 -1.65442,1.422847 -5.66667,1.422847 -4.15377,0 -4.67007,-0.140901 -4.67007,-1.274509 z m 32.66667,0 c 0,-0.700981 0.45,-1.27451 1,-1.27451 0.55,0 1,0.475 1,1.055555 0,1.781995 1.52737,0.66192 2.40335,-1.762468 1.02485,-2.836389 1.14801,-5.746319 0.26626,-6.291267 -0.36504,-0.225612 -1.41504,0.40049 -2.33333,1.391336 -1.84843,1.99448 -2.25569,1.40693 -0.63181,-0.911486 1.07734,-1.538128 3.88937,-2.011529 4.64887,-0.782632 0.29743,0.481256 0.71365,0.465312 1.33599,-0.05117 1.42688,-1.184221 3.97734,-0.530918 3.97734,1.018798 0,0.740741 -0.44445,1.333334 -1,1.333334 -0.55,0 -0.96229,-0.501276 -0.9162,-1.113947 0.16694,-2.218979 -1.7434,-0.386955 -2.44958,2.349162 -0.39247,1.520631 -0.86641,3.291263 -1.0532,3.934736 -0.6298,2.169572 1.81298,2.24513 3.52226,0.108948 1.70572,-2.131735 2.16865,-1.439711 0.56678,0.847273 -0.85622,1.222429 -1.65441,1.422847 -5.66666,1.422847 -4.15378,0 -4.67007,-0.140901 -4.67007,-1.274509 z M 366.7906,66.587707 V 63.92104 h -6 c -3.55555,0 -6,-0.271605 -6,-0.666667 0,-0.4 2.66667,-0.666666 6.66667,-0.666666 h 6.66667 v 3.333333 c 0,1.833333 -0.3,3.333334 -0.66667,3.333334 -0.36667,0 -0.66667,-1.200001 -0.66667,-2.666667 z M 353.14676,46.882666 c -4.12132,-4.446974 -4.57716,-13.582978 -0.96215,-19.28326 2.4589,-3.87729 3.87742,-3.947742 1.61077,-0.08 -3.08167,5.258481 -3.05308,13.512944 0.0627,18.10431 2.04718,3.016696 1.61939,3.773834 -0.71132,1.258951 z m 100.31051,1.411279 c 0,-0.275226 0.61392,-1.362586 1.36427,-2.416356 2.17374,-3.05274 3.06071,-8.575315 2.10769,-13.123216 -0.4418,-2.108333 -1.40373,-4.646185 -2.13762,-5.639671 -1.57066,-2.126254 -1.66618,-2.612487 -0.4192,-2.133975 0.50333,0.193146 1.70333,1.799329 2.66667,3.569296 3.20693,5.892187 2.15529,15.055833 -2.17754,18.974342 -0.77235,0.698496 -1.40427,1.044806 -1.40427,0.76958 z M 325.56954,39.754373 c -0.72428,-1.925 -2.09584,-5.560718 -3.0479,-8.079373 -1.8534,-4.903066 -2.03116,-5.75396 -1.20214,-5.75396 0.2909,0 0.99232,1.275 1.55874,2.833333 1.00924,2.776692 1.09728,2.837315 4.40355,3.032497 l 3.37371,0.199164 1.15812,-3.032497 c 0.63697,-1.667873 1.41737,-3.032497 1.73422,-3.032497 0.31686,0 0.5761,0.203634 0.5761,0.452519 0,1.03632 -6.36699,16.880814 -6.78343,16.880814 -0.24976,0 -1.0467,-1.575 -1.77097,-3.5 z m 2.84189,-2 c 2.08684,-5.102563 2.07556,-5.166667 -0.90923,-5.166667 -1.49138,0 -2.71308,0.225 -2.7149,0.5 -0.005,0.73825 2.22714,6.833334 2.50235,6.833334 0.12961,0 0.63441,-0.975 1.12178,-2.166667 z m 72.7628,4.821137 c 5.39875,-0.569778 7.25102,-1.496282 8.36422,-4.183792 0.64165,-1.54909 0.58921,-2.314057 -0.2842,-4.145629 -1.21745,-2.553002 -4.00412,-3.648451 -9.29698,-3.654665 -1.74167,-0.002 -3.16667,-0.303718 -3.16667,-0.670384 0,-0.8784 6.31724,-0.84883 9.53468,0.04463 4.37704,1.215467 6.33042,6.05419 4.02181,9.962368 -1.55309,2.62918 -3.55003,3.340208 -9.08785,3.235816 l -4.80197,-0.09052 z m 23.85437,0.01781 c -3.70376,-1.494654 -4.76423,-7.371625 -2.05546,-11.391159 2.94126,-4.36454 8.66962,-6.619138 11.7951,-4.64238 0.62212,0.393467 1.29468,0.355207 1.84945,-0.105209 1.39043,-1.153959 1.62322,-0.255156 0.79045,3.052043 -0.90424,3.591099 -1.77839,3.985029 -2.0753,0.935223 -0.14382,-1.477378 -0.73827,-2.441511 -1.90819,-3.094887 -5.26841,-2.942305 -12.54688,8.548796 -8.3513,13.184857 1.59853,1.766362 4.64677,1.793053 6.38392,0.0559 1.73976,-1.739756 1.68701,-2.959006 -0.16667,-3.853003 -1.26102,-0.608167 -0.86272,-0.727233 2.5,-0.747341 3.52155,-0.02106 3.85625,0.08508 2.79824,0.887373 -0.66097,0.50121 -1.51,2.027637 -1.88674,3.392059 -0.4623,1.67431 -0.90441,2.26133 -1.35999,1.80575 -0.45559,-0.455582 -1.25093,-0.374539 -2.4466,0.249298 -1.99147,1.039049 -3.76186,1.12097 -5.86691,0.271476 z m 47.42775,-2.280371 c -0.973,-1.660287 -1.57812,-3.327675 -1.34474,-3.705306 0.76576,-1.239027 2.11642,-0.720005 2.96331,1.138724 l 0.83167,1.825325 1.61962,-3.407694 c 1.72398,-3.627311 7.80863,-10.242954 9.42081,-10.242954 0.53127,0 -0.43089,1.35757 -2.13813,3.016823 -1.92746,1.873267 -3.8642,4.716215 -5.10934,7.5 -3.57104,7.983825 -3.76483,8.104108 -6.2432,3.875085 z m -240.33241,1.924923 c 0,-0.192408 0.75,-0.634983 1.66667,-0.983499 1.60821,-0.611439 1.66667,-0.845141 1.66667,-6.662867 v -6.029202 l -1.66667,0.418306 c -0.93868,0.235595 -1.66667,0.129492 -1.66667,-0.242914 0,-0.363671 0.675,-0.807614 1.5,-0.986541 0.825,-0.178926 2.025,-0.545996 2.66667,-0.815711 1.07052,-0.449976 1.16667,0.119842 1.16667,6.91427 0,6.960214 0.08,7.404659 1.33333,7.404659 0.73333,0 1.33333,0.3 1.33333,0.666667 0,0.37037 -1.77778,0.666666 -4,0.666666 -2.2,0 -4,-0.157425 -4,-0.349834 z m 12.45834,-0.08072 c -0.94368,-0.943677 -0.40969,-2.236111 0.92388,-2.236111 0.93197,0 1.312,0.362033 1.16666,1.111422 -0.23796,1.226986 -1.376,1.839237 -2.09054,1.124689 z m 89.54166,-0.961602 c 0,-0.700981 0.45,-1.27451 1,-1.27451 0.55,0 1,0.475 1,1.055555 0,1.781995 1.52736,0.661919 2.40335,-1.762468 1.02485,-2.836389 1.14801,-5.746319 0.26626,-6.291267 -0.36505,-0.225612 -1.41505,0.40049 -2.33333,1.391336 -1.84843,1.99448 -2.2557,1.40693 -0.63182,-0.911486 1.07735,-1.538128 3.88938,-2.011529 4.64888,-0.782632 0.29743,0.481256 0.71365,0.465312 1.33598,-0.05117 1.42689,-1.184218 3.97734,-0.530915 3.97734,1.018801 0,0.740741 -0.44444,1.333334 -1,1.333334 -0.55,0 -0.96228,-0.501276 -0.91619,-1.113947 0.16694,-2.218979 -1.7434,-0.386955 -2.44958,2.349162 -0.39247,1.520631 -0.86641,3.291263 -1.05321,3.934735 -0.6298,2.169572 1.81299,2.24513 3.52227,0.108948 1.70572,-2.131734 2.16865,-1.43971 0.56678,0.847274 -0.85623,1.222429 -1.65441,1.422847 -5.66667,1.422847 -4.15377,0 -4.67006,-0.140901 -4.67006,-1.274509 z m 23,0.72549 c 0.22661,-0.366667 0.83275,-0.666667 1.34698,-0.666667 0.52004,0 1.2243,-1.109453 1.58696,-2.5 1.6368,-6.276102 2.73272,-10.726094 2.73272,-11.09623 0,-0.222073 -0.4677,-0.40377 -1.03934,-0.40377 -0.57164,0 -0.85394,-0.3 -0.62732,-0.666667 0.62662,-1.013894 12.30792,-0.86017 12.66483,0.166667 0.15931,0.458333 0.0306,1.883333 -0.28601,3.166667 -0.48037,1.947048 -0.58697,2.051897 -0.64392,0.633333 -0.0979,-2.438565 -1.2735,-3.3 -4.50357,-3.3 -2.70851,0 -2.86638,0.111823 -3.52961,2.5 -0.38186,1.375 -0.69596,2.875 -0.698,3.333333 -0.006,1.409162 3.10114,0.923346 4.2642,-0.666666 1.08063,-1.477314 1.09064,-1.46471 0.6615,0.833333 -0.23965,1.283333 -0.6778,2.933333 -0.97365,3.666667 -0.51039,1.265078 -0.54009,1.256546 -0.58018,-0.166667 -0.034,-1.207377 -0.42631,-1.5 -2.01093,-1.5 -1.70702,0 -2.06093,0.332251 -2.66294,2.5 -0.90234,3.249184 -0.88379,3.5 0.25893,3.5 0.52836,0 1.14607,0.3 1.37268,0.666667 0.25753,0.416696 -1.1173,0.666666 -3.66667,0.666666 -2.54936,0 -3.9242,-0.24997 -3.66666,-0.666666 z m 18.33333,-0.72549 c 0,-0.700981 0.45,-1.27451 1,-1.27451 0.55,0 1,0.475 1,1.055555 0,1.781995 1.52737,0.661919 2.40335,-1.762468 1.02485,-2.836389 1.14801,-5.746319 0.26626,-6.291267 -0.36504,-0.225612 -1.41504,0.40049 -2.33333,1.391336 -1.84843,1.99448 -2.25569,1.40693 -0.63181,-0.911486 1.07734,-1.538128 3.88937,-2.011529 4.64887,-0.782632 0.29743,0.481256 0.71365,0.465312 1.33599,-0.05117 1.42688,-1.184221 3.97734,-0.530918 3.97734,1.018798 0,0.740741 -0.44445,1.333334 -1,1.333334 -0.55,0 -0.96229,-0.501276 -0.9162,-1.113947 0.16694,-2.218979 -1.7434,-0.386955 -2.44958,2.349162 -0.39247,1.520631 -0.86641,3.291263 -1.0532,3.934735 -0.6298,2.169572 1.81298,2.24513 3.52226,0.108948 1.70572,-2.131734 2.16865,-1.43971 0.56678,0.847274 -0.85622,1.222429 -1.65441,1.422847 -5.66666,1.422847 -4.15378,0 -4.67007,-0.140901 -4.67007,-1.274509 z m 63.33333,0 c 0,-0.700981 0.45,-1.27451 1,-1.27451 0.55,0 1,0.475 1,1.055555 0,1.781995 1.52737,0.661919 2.40335,-1.762468 1.02485,-2.836389 1.14801,-5.746319 0.26626,-6.291267 -0.36504,-0.225612 -1.41504,0.40049 -2.33333,1.391336 -1.84843,1.99448 -2.25569,1.40693 -0.63181,-0.911486 1.07734,-1.538128 3.88937,-2.011529 4.64887,-0.782632 0.29743,0.481256 0.71365,0.465312 1.33599,-0.05117 1.42688,-1.184218 3.97734,-0.530915 3.97734,1.018801 0,0.740741 -0.44445,1.333334 -1,1.333334 -0.55,0 -0.96229,-0.501276 -0.9162,-1.113947 0.16694,-2.218979 -1.7434,-0.386955 -2.44958,2.349162 -0.39247,1.520631 -0.86641,3.291263 -1.0532,3.934735 -0.6298,2.169572 1.81298,2.24513 3.52226,0.108948 1.70572,-2.131734 2.16865,-1.43971 0.56678,0.847274 -0.85622,1.222429 -1.65441,1.422847 -5.66666,1.422847 -4.15378,0 -4.67007,-0.140901 -4.67007,-1.274509 z"
       id="path236" />
  </g>
</svg>
