<?xml version="1.0" encoding="UTF-8" standalone="no"?>
<svg
   xmlns:dc="http://purl.org/dc/elements/1.1/"
   xmlns:cc="http://creativecommons.org/ns#"
   xmlns:rdf="http://www.w3.org/1999/02/22-rdf-syntax-ns#"
   xmlns:svg="http://www.w3.org/2000/svg"
   xmlns="http://www.w3.org/2000/svg"
   xmlns:sodipodi="http://sodipodi.sourceforge.net/DTD/sodipodi-0.dtd"
   xmlns:inkscape="http://www.inkscape.org/namespaces/inkscape"
   version="1.1"
   id="svg142"
   width="237.30269"
   height="263.91275"
   viewBox="0 0 237.30269 263.91275"
   sodipodi:docname="10-1-3.svg"
   inkscape:version="1.0.1 (c497b03c, 2020-09-10)">
  <metadata
     id="metadata148">
    <rdf:RDF>
      <cc:Work
         rdf:about="">
        <dc:format>image/svg+xml</dc:format>
        <dc:type
           rdf:resource="http://purl.org/dc/dcmitype/StillImage" />
        <dc:title></dc:title>
      </cc:Work>
    </rdf:RDF>
  </metadata>
  <defs
     id="defs146" />
  <sodipodi:namedview
     pagecolor="#ffffff"
     bordercolor="#666666"
     borderopacity="1"
     objecttolerance="10"
     gridtolerance="10"
     guidetolerance="10"
     inkscape:pageopacity="0"
     inkscape:pageshadow="2"
     inkscape:window-width="1011"
     inkscape:window-height="576"
     id="namedview144"
     showgrid="false"
     fit-margin-top="0"
     fit-margin-left="0"
     fit-margin-right="0"
     fit-margin-bottom="0"
     inkscape:pagecheckerboard="true"
     inkscape:zoom="0.91593902"
     inkscape:cx="87.94917"
     inkscape:cy="133.73983"
     inkscape:window-x="0"
     inkscape:window-y="25"
     inkscape:window-maximized="0"
     inkscape:current-layer="g150" />
  <g
     inkscape:groupmode="layer"
     inkscape:label="Image"
     id="g150"
     transform="translate(44.347228,50.647293)">
    <path
       style="fill:#1c1c1c;stroke-width:0.666667"
       d="m -40.124319,212.2383 c -0.662713,-1.727 0.902999,-6.78526 3.114635,-10.06228 l 1.950678,-2.89036 h -3.277652 c -2.418262,0 -3.455818,0.3059 -3.957171,1.16667 -0.612209,1.0511 -0.681529,1.02348 -0.699793,-0.27881 -0.04391,-3.13076 0.441375,-3.41639 5.18701,-3.05294 2.452661,0.18783 4.572977,0.44041 4.711813,0.56128 0.138837,0.12088 -0.734208,1.75732 -1.940099,3.63654 -1.624829,2.53207 -2.294347,4.46674 -2.585763,7.47195 -0.391313,4.03538 -1.625834,5.73552 -2.503658,3.44795 z m 150.015099,0.38631 c -3.70377,-1.49465 -4.76424,-7.37163 -2.05547,-11.39116 2.94126,-4.36454 8.66962,-6.61914 11.79511,-4.64238 0.62212,0.39347 1.29468,0.35521 1.84944,-0.10521 1.39044,-1.15396 1.62322,-0.25516 0.79046,3.05204 -0.90425,3.5911 -1.7784,3.98503 -2.0753,0.93523 -0.14383,-1.47738 -0.73828,-2.44151 -1.9082,-3.09489 -5.2684,-2.9423 -12.54688,8.5488 -8.3513,13.18486 1.59854,1.76636 4.64677,1.79305 6.38392,0.0559 1.73976,-1.73976 1.68702,-2.959 -0.16666,-3.853 -1.26102,-0.60817 -0.86272,-0.72724 2.5,-0.74734 3.52154,-0.0211 3.85625,0.0851 2.79823,0.88737 -0.66097,0.50121 -1.51,2.02764 -1.88674,3.39206 -0.46229,1.67431 -0.90441,2.26133 -1.35999,1.80575 -0.45558,-0.45558 -1.25093,-0.37454 -2.4466,0.2493 -1.99147,1.03905 -3.76186,1.12097 -5.8669,0.27148 z m -140.446341,-0.43617 c -0.943677,-0.94368 -0.409688,-2.23611 0.923882,-2.23611 0.931975,0 1.312004,0.36203 1.166667,1.11142 -0.237962,1.22699 -1.376001,1.83924 -2.090549,1.12469 z m 155.528081,-1.27185 c -0.47899,-1.25984 -0.27172,-3.19968 0.79729,-7.46196 1.04548,-4.16845 1.22884,-5.83145 0.66375,-6.01981 -1.56406,-0.52136 -0.72738,-1.48249 1.29054,-1.48249 1.52154,0 1.9743,0.25287 1.70576,0.95266 -0.20106,0.52396 -0.5597,1.98743 -0.79696,3.25215 -0.40554,2.16171 -0.33428,2.28094 1.18902,1.98974 3.34294,-0.63904 4.86262,3.20978 2.82396,7.15213 -1.89144,3.65763 -6.52626,4.63468 -7.67336,1.61758 z m 5.27812,-1.27796 c 1.1721,-2.44551 1.33489,-6.45463 0.27714,-6.82543 -2.05534,-0.72053 -5.23926,6.26504 -3.86731,8.48491 0.76904,1.24433 2.60519,0.39561 3.59017,-1.65948 z m -27.9312,-1.6863 v -2.66667 h -6.000002 c -3.55555,0 -6,-0.2716 -6,-0.66666 0,-0.4 2.66667,-0.66667 6.66667,-0.66667 h 6.666672 v 3.33333 c 0,1.83334 -0.3,3.33334 -0.66667,3.33334 -0.36667,0 -0.66667,-1.2 -0.66667,-2.66667 z M -40.657464,183.03604 c -1.98033,-1.98034 -2.792571,-6.74217 -1.709703,-10.0233 1.252349,-3.79465 4.582361,-5.82604 7.632081,-4.65575 1.393305,0.53466 1.404048,3.59534 0.01262,3.59534 -0.687209,0 -0.970901,-0.48955 -0.833333,-1.43803 0.479856,-3.30844 -3.692118,-1.1457 -4.519955,2.34314 -0.418954,1.76564 -0.351363,1.85122 0.923278,1.16906 2.946546,-1.57695 6.138581,1.01303 6.138581,4.98077 0,2.283 -0.348616,3.12251 -1.756572,4.23001 -2.291095,1.80217 -3.939944,1.74581 -5.886997,-0.20124 z m 4.953447,-1.03988 c 1.548734,-2.89384 0.347528,-7.37716 -1.976545,-7.37716 -1.515202,0 -2.666666,1.87112 -2.666666,4.33333 0,2.46221 1.151464,4.33333 2.666666,4.33333 0.707532,0 1.596977,-0.58028 1.976545,-1.2895 z m 144.261457,1.96178 c -3.70376,-1.49465 -4.76423,-7.37162 -2.05546,-11.39116 2.94126,-4.36454 8.66962,-6.61914 11.7951,-4.64238 0.62212,0.39347 1.29468,0.35521 1.84945,-0.1052 1.39043,-1.15396 1.62322,-0.25516 0.79045,3.05204 -0.90424,3.5911 -1.77839,3.98502 -2.0753,0.93522 -0.14382,-1.47738 -0.73827,-2.44151 -1.90819,-3.09489 -5.26841,-2.9423 -12.54688,8.5488 -8.3513,13.18486 1.59853,1.76636 4.64677,1.79305 6.38392,0.0559 1.73976,-1.73976 1.68701,-2.95901 -0.16667,-3.85301 -1.26102,-0.60817 -0.86272,-0.72723 2.5,-0.74734 3.52155,-0.0211 3.85626,0.0851 2.79824,0.88737 -0.66097,0.50122 -1.51,2.02764 -1.88674,3.39206 -0.4623,1.67432 -0.90441,2.26134 -1.35999,1.80576 -0.45559,-0.45559 -1.25093,-0.37454 -2.4466,0.24929 -1.99147,1.03905 -3.76186,1.12097 -5.86691,0.27148 z m -138.446335,-0.43616 c -0.943676,-0.94368 -0.409688,-2.23612 0.923883,-2.23612 0.931975,0 1.312003,0.36204 1.166667,1.11142 -0.237962,1.22699 -1.376002,1.83924 -2.09055,1.1247 z m 153.442775,-1.18696 c -0.9738,-2.13723 -0.29268,-4.58988 1.98148,-7.1351 1.70143,-1.90423 2.08569,-2.03662 4.65268,-1.60292 1.53894,0.26 2.79451,0.67136 2.79016,0.91413 -0.005,0.24277 -0.4508,2.0914 -0.99209,4.10807 -1.17717,4.38568 -1.19625,4.66666 -0.31683,4.66666 0.37574,0 1.0115,-0.825 1.4128,-1.83333 0.40129,-1.00833 0.86332,-1.47497 1.02673,-1.03696 0.86203,2.31065 -2.51386,4.5458 -4.24745,2.81221 -0.5219,-0.5219 -0.85014,-0.5219 -1.17268,0 -0.24636,0.39861 -1.33665,0.72475 -2.42288,0.72475 -1.44365,0 -2.1732,-0.43513 -2.71192,-1.61751 z m 4.99216,-0.26454 c 1.41486,-1.56341 2.22904,-7.091 1.1433,-7.76202 -1.18173,-0.73035 -3.28838,1.53218 -4.04585,4.34522 -1.11073,4.12494 0.52215,6.04711 2.90255,3.4168 z m -27.55993,-2.78462 V 176.619 h -6.000002 c -3.55555,0 -6,-0.27161 -6,-0.66667 0,-0.4 2.66667,-0.66667 6.66667,-0.66667 h 6.666662 v 3.33334 c 0,1.83333 -0.3,3.33333 -0.66666,3.33333 -0.36667,0 -0.66667,-1.2 -0.66667,-2.66667 z m 10,-35.66666 c 0,-10 0.24113,-15.66667 0.66667,-15.66667 0.42553,0 0.66666,5.66667 0.66666,15.66667 0,10 -0.24113,15.66666 -0.66666,15.66666 -0.42554,0 -0.66667,-5.66666 -0.66667,-15.66666 z M -40.865558,118.24786 c -1.809506,-1.26743 -2.106102,-4.9622 -0.398337,-4.9622 0.847168,0 0.996487,0.43423 0.684955,1.99189 -0.343891,1.71946 -0.171743,2.04877 1.258658,2.40778 0.942172,0.23647 2.084711,0.0609 2.648378,-0.40685 0.999211,-0.82927 1.348012,-4.9543 0.586683,-6.93829 -0.510677,-1.33081 -2.507558,-1.36523 -3.589249,-0.0619 -1.355563,1.63339 -2.006092,0.48443 -2.006092,-3.54308 v -3.8051 h 3.992593 c 3.868168,0 3.954594,0.038 2.773257,1.21933 -0.670635,0.67064 -2.167302,1.24629 -3.325926,1.27924 -1.818701,0.0517 -2.10659,0.30105 -2.10659,1.82457 0,1.61454 0.192965,1.74215 2.26802,1.4999 5.366935,-0.62656 7.248971,7.02431 2.350966,9.55717 -2.391988,1.23694 -3.297881,1.22593 -5.137316,-0.0625 z m 149.568628,0.35894 c 5.39875,-0.56978 7.25102,-1.49628 8.36422,-4.18379 0.64165,-1.54909 0.58921,-2.31406 -0.2842,-4.14563 -1.21745,-2.553 -4.00412,-3.64845 -9.29698,-3.65466 -1.74167,-0.002 -3.16667,-0.30372 -3.16667,-0.67039 0,-0.8784 6.31724,-0.84883 9.53468,0.0446 4.37704,1.21547 6.33042,6.05419 4.02181,9.96237 -1.55309,2.62918 -3.55003,3.34021 -9.08785,3.23582 l -4.80197,-0.0905 z m 23.18771,0.0178 c -3.70377,-1.49465 -4.76424,-7.37162 -2.05547,-11.39116 2.94126,-4.36454 8.66962,-6.61914 11.79511,-4.64238 0.62212,0.39347 1.29468,0.35521 1.84945,-0.1052 1.39043,-1.15396 1.62322,-0.25516 0.79045,3.05204 -0.90425,3.5911 -1.77839,3.98502 -2.0753,0.93522 -0.14383,-1.47738 -0.73827,-2.44151 -1.9082,-3.09489 -5.2684,-2.9423 -12.54688,8.5488 -8.3513,13.18486 1.59854,1.76636 4.64677,1.79305 6.38392,0.0559 1.73976,-1.73976 1.68702,-2.95901 -0.16666,-3.85301 -1.26102,-0.60817 -0.86272,-0.72723 2.5,-0.74734 3.52155,-0.0211 3.85625,0.0851 2.79823,0.88737 -0.66096,0.50122 -1.51,2.02764 -1.88674,3.39206 -0.46229,1.67432 -0.9044,2.26134 -1.35999,1.80576 -0.45558,-0.45559 -1.25093,-0.37454 -2.4466,0.24929 -1.99147,1.03905 -3.76186,1.12097 -5.8669,0.27148 z m -161.779675,-0.43616 c -0.943676,-0.94368 -0.409688,-2.23611 0.923883,-2.23611 0.931975,0 1.312003,0.36203 1.166667,1.11142 -0.237962,1.22699 -1.376002,1.83924 -2.09055,1.12469 z m 97.875003,-0.23611 c 0.22661,-0.36667 0.83275,-0.66667 1.34698,-0.66667 0.52005,0 1.22431,-1.10945 1.58696,-2.5 1.63681,-6.2761 2.73273,-10.72609 2.73273,-11.09622 0,-0.22208 -0.46771,-0.40378 -1.03935,-0.40378 -0.57164,0 -0.85393,-0.3 -0.62732,-0.66666 0.62662,-1.0139 12.30792,-0.86018 12.66483,0.16666 0.15932,0.45834 0.0306,1.88334 -0.28601,3.16667 -0.48037,1.94705 -0.58697,2.0519 -0.64391,0.63333 -0.0979,-2.43856 -1.27351,-3.3 -4.50358,-3.3 -2.7085,0 -2.86638,0.11182 -3.52961,2.5 -0.38185,1.375 -0.69596,2.875 -0.698,3.33334 -0.006,1.40916 3.10114,0.92334 4.26421,-0.66667 1.08062,-1.47731 1.09063,-1.46471 0.66149,0.83333 -0.23965,1.28334 -0.67779,2.93334 -0.97365,3.66667 -0.51038,1.26508 -0.54008,1.25655 -0.58018,-0.16667 -0.034,-1.20737 -0.42631,-1.5 -2.01092,-1.5 -1.70703,0 -2.06094,0.33226 -2.66295,2.5 -0.90234,3.24919 -0.88379,3.5 0.25893,3.5 0.52836,0 1.14607,0.3 1.37268,0.66667 0.25754,0.41669 -1.1173,0.66667 -3.66666,0.66667 -2.54937,0 -3.9242,-0.24998 -3.66667,-0.66667 z m 18.98641,-1.03574 c -0.47899,-1.25984 -0.27172,-3.19968 0.79729,-7.46196 1.04548,-4.16845 1.22884,-5.83145 0.66375,-6.01981 -1.56406,-0.52136 -0.72738,-1.48249 1.29054,-1.48249 1.52154,0 1.9743,0.25287 1.70576,0.95266 -0.20106,0.52396 -0.5597,1.98743 -0.79696,3.25215 -0.40554,2.16171 -0.33428,2.28094 1.18902,1.98974 3.34294,-0.63904 4.86262,3.20978 2.82396,7.15213 -1.89144,3.65763 -6.52626,4.63468 -7.67336,1.61758 z m 5.27812,-1.27796 c 1.1721,-2.44551 1.33489,-6.45463 0.27714,-6.82543 -2.05534,-0.72053 -5.23926,6.26504 -3.86731,8.48491 0.76904,1.24433 2.60519,0.39561 3.59017,-1.65948 z m 54.721892,1.27796 c -0.479,-1.25984 -0.27173,-3.19968 0.79728,-7.46196 1.04548,-4.16845 1.22884,-5.83145 0.66376,-6.01981 -1.56407,-0.52136 -0.72738,-1.48249 1.29054,-1.48249 1.52153,0 1.97429,0.25287 1.70575,0.95266 -0.20106,0.52396 -0.55969,1.98743 -0.79695,3.25215 -0.40554,2.16171 -0.33429,2.28094 1.18902,1.98974 3.34294,-0.63904 4.86262,3.20978 2.82395,7.15213 -1.89144,3.65763 -6.52625,4.63468 -7.67335,1.61758 z m 5.27812,-1.27796 c 1.1721,-2.44551 1.33488,-6.45463 0.27713,-6.82543 -2.05533,-0.72053 -5.23926,6.26504 -3.86731,8.48491 0.76904,1.24433 2.6052,0.39561 3.59018,-1.65948 z M 108.70307,90.606805 c 5.39875,-0.56978 7.25102,-1.49628 8.36422,-4.18379 0.64165,-1.54909 0.58921,-2.31406 -0.2842,-4.14563 -1.21745,-2.553 -4.00412,-3.64845 -9.29698,-3.65466 -1.74167,-0.002 -3.16667,-0.30372 -3.16667,-0.67039 0,-0.8784 6.31724,-0.84883 9.53468,0.0446 4.37704,1.21547 6.33042,6.05419 4.02181,9.96237 -1.55309,2.62918 -3.55003,3.34021 -9.08785,3.23582 l -4.80197,-0.0905 z m 23.18771,0.0178 c -3.70377,-1.49465 -4.76424,-7.37162 -2.05547,-11.39116 2.94126,-4.36454 8.66962,-6.61914 11.79511,-4.64238 0.62212,0.39347 1.29468,0.35521 1.84945,-0.1052 1.39043,-1.15396 1.62322,-0.25516 0.79045,3.05204 -0.90425,3.5911 -1.77839,3.98502 -2.0753,0.93522 -0.14383,-1.47738 -0.73827,-2.44151 -1.9082,-3.09489 -5.2684,-2.9423 -12.54688,8.5488 -8.3513,13.18486 1.59854,1.76636 4.64677,1.79305 6.38392,0.0559 1.73976,-1.73976 1.68702,-2.959 -0.16666,-3.853 -1.26102,-0.60817 -0.86272,-0.72724 2.5,-0.74734 3.52155,-0.0211 3.85625,0.0851 2.79823,0.88737 -0.66096,0.50121 -1.51,2.02764 -1.88674,3.39206 -0.46229,1.67431 -0.9044,2.26133 -1.35999,1.80575 -0.45558,-0.45558 -1.25093,-0.37454 -2.4466,0.2493 -1.99147,1.03905 -3.76186,1.12097 -5.8669,0.27148 z m -172.238008,-0.67227 c 0,-0.36667 0.45,-0.66667 1,-0.66667 0.555555,0 1,-0.59259 1,-1.33333 0,-1.1358 -0.444445,-1.33333 -3,-1.33333 -1.65,0 -3,-0.30249 -3,-0.67219 0,-0.92067 6.877224,-11.2941 7.5,-11.3128 0.275,-0.008 0.5,2.39465 0.5,5.3398 0,4.89053 0.125794,5.40135 1.450841,5.89152 l 1.45084,0.5367 -1.45084,0.37941 c -1.605151,0.41975 -2.013171,2.50422 -0.490186,2.50422 0.528361,0 1.146066,0.3 1.372678,0.66667 0.253943,0.41089 -0.881966,0.66667 -2.960655,0.66667 -1.854973,0 -3.372678,-0.3 -3.372678,-0.66667 z m 2,-7.66667 c 0,-2.01666 -0.105158,-3.66666 -0.233683,-3.66666 -0.271328,0 -4.432984,6.61314 -4.432984,7.0443 0,0.15896 1.05,0.28903 2.333333,0.28903 h 2.333334 z m 7.791667,7.90278 c -0.943677,-0.94368 -0.409688,-2.23611 0.923882,-2.23611 0.931975,0 1.312004,0.36203 1.166667,1.11142 -0.237962,1.22699 -1.376001,1.83924 -2.090549,1.12469 z m 95.874999,-0.23611 c 0.22662,-0.36667 0.83276,-0.66667 1.34698,-0.66667 0.52005,0 1.22431,-1.10945 1.58696,-2.5 1.63681,-6.2761 2.73273,-10.72609 2.73273,-11.09622 0,-0.22208 -0.46771,-0.40378 -1.03935,-0.40378 -0.57164,0 -0.85393,-0.3 -0.62732,-0.66666 0.62662,-1.0139 12.30792,-0.86018 12.66484,0.16666 0.15931,0.45834 0.0306,1.88334 -0.28602,3.16667 -0.48036,1.94705 -0.58696,2.0519 -0.64391,0.63333 -0.0979,-2.43856 -1.27351,-3.3 -4.50357,-3.3 -2.70851,0 -2.86638,0.11182 -3.52962,2.5 -0.38185,1.375 -0.69596,2.875 -0.698,3.33334 -0.006,1.40916 3.10114,0.92334 4.26421,-0.66667 1.08063,-1.47731 1.09063,-1.46471 0.66149,0.83333 -0.23964,1.28334 -0.67779,2.93334 -0.97364,3.66667 -0.51039,1.26508 -0.54009,1.25655 -0.58018,-0.16667 -0.034,-1.20737 -0.42632,-1.5 -2.01093,-1.5 -1.70703,0 -2.06093,0.33226 -2.66295,2.5 -0.90234,3.24919 -0.88378,3.5 0.25894,3.5 0.52836,0 1.14606,0.3 1.37268,0.66667 0.25753,0.41669 -1.1173,0.66667 -3.66667,0.66667 -2.54937,0 -3.9242,-0.24998 -3.66667,-0.66667 z m 18.9011,-0.95084 c -0.97379,-2.13723 -0.29267,-4.58988 1.98149,-7.1351 1.70143,-1.90423 2.08569,-2.03662 4.65267,-1.60293 1.53894,0.26 2.79452,0.67136 2.79016,0.91414 -0.005,0.24276 -0.45079,2.0914 -0.99208,4.10806 -1.17717,4.38569 -1.19625,4.66667 -0.31684,4.66667 0.37574,0 1.0115,-0.825 1.4128,-1.83333 0.4013,-1.00834 0.86333,-1.47497 1.02674,-1.03696 0.86203,2.31064 -2.51386,4.5458 -4.24746,2.8122 -0.5219,-0.5219 -0.85013,-0.5219 -1.17268,0 -0.24636,0.39862 -1.33664,0.72476 -2.42287,0.72476 -1.44365,0 -2.17321,-0.43514 -2.71193,-1.61751 z m 4.99216,-0.26455 c 1.41486,-1.5634 2.22904,-7.09099 1.1433,-7.76202 -1.18172,-0.73034 -3.28837,1.53219 -4.04584,4.34522 -1.11073,4.12494 0.52214,6.04712 2.90254,3.4168 z m 57.674512,0.26455 c -0.97379,-2.13723 -0.29267,-4.58988 1.98149,-7.1351 1.70143,-1.90423 2.08569,-2.03662 4.65267,-1.60293 1.53894,0.26 2.79452,0.67136 2.79016,0.91414 -0.005,0.24276 -0.45079,2.0914 -0.99208,4.10806 -1.17717,4.38569 -1.19625,4.66667 -0.31684,4.66667 0.37574,0 1.0115,-0.825 1.4128,-1.83333 0.4013,-1.00834 0.86333,-1.47497 1.02674,-1.03696 0.86203,2.31064 -2.51386,4.5458 -4.24746,2.8122 -0.5219,-0.5219 -0.85013,-0.5219 -1.17268,0 -0.24636,0.39862 -1.33664,0.72476 -2.42287,0.72476 -1.44365,0 -2.17321,-0.43514 -2.71193,-1.61751 z m 4.99216,-0.26455 c 1.41486,-1.5634 2.22904,-7.09099 1.1433,-7.76202 -1.18172,-0.73034 -3.28837,1.53219 -4.04584,4.34522 -1.11073,4.12494 0.52214,6.04712 2.90254,3.4168 z m -40.89326,-37.11794 c 0,-8.66667 0.2439,-13.66667 0.66667,-13.66667 0.42276,0 0.66666,5 0.66666,13.66667 0,8.66666 -0.2439,13.66666 -0.66666,13.66666 -0.42277,0 -0.66667,-5 -0.66667,-13.66666 z M 76.008938,28.247295 c -4.12132,-4.446973 -4.57717,-13.58298 -0.96216,-19.2832603 2.4589,-3.87729 3.87742,-3.947743 1.61078,-0.08 -3.08168,5.2584803 -3.05309,13.5129403 0.0627,18.1043073 2.04718,3.0167 1.61939,3.773833 -0.71132,1.258953 z m 94.977172,1.41128 c 0,-0.275227 0.61392,-1.362587 1.36428,-2.41636 2.17374,-3.05274 3.06071,-8.575313 2.10769,-13.123213 -0.44181,-2.108334 -1.40373,-4.6461873 -2.13763,-5.6396743 -1.57066,-2.126251 -1.66618,-2.612484 -0.41919,-2.133972 0.50333,0.193146 1.70333,1.799326 2.66667,3.569292 3.20692,5.8921943 2.15528,15.0558343 -2.17754,18.9743473 -0.77236,0.698493 -1.40428,1.044807 -1.40428,0.76958 z m -213.030308,-6.67594 c -1.892572,-1.892567 -2.06544,-2.907493 -0.591552,-3.47308 1.50468,-0.5774 2.710534,0.797667 1.732718,1.975867 -0.935469,1.127166 -0.362093,1.800246 1.533582,1.800246 1.991548,0 3.022222,-1.250446 3.022222,-3.666666 0,-2.38846 -1.021595,-3.658087 -2.966667,-3.68694 -1.357707,-0.02013 -1.357925,-0.02507 -0.03333,-0.749547 2.908738,-1.59096 3.708384,-3.759893 2.011727,-5.4565473 -1.542279,-1.54228 -3.541277,-0.69024 -3.152468,1.3436873 0.257694,1.348033 0.08294,1.63568 -0.880291,1.448973 -1.770819,-0.343253 -1.913713,-1.631546 -0.353968,-3.1912933 1.492127,-1.492127 4.041113,-1.779 6.085494,-0.68488 1.606504,0.85978 1.722237,4.1152473 0.2004,5.6370803 -1.007698,1.0077 -0.982782,1.16358 0.333333,2.08542 2.109285,1.477407 1.933716,5.088433 -0.334133,6.872327 -2.330174,1.832913 -4.607273,1.745153 -6.607067,-0.254647 z m 163.415518,-5.35194 c -1.73183,-3.879873 -3.01298,-7.41972 -2.84701,-7.8663333 0.29909,-0.804834 5.79513,10.3112463 5.79513,11.7210203 0,1.502186 1.24228,-0.653354 3.69094,-6.404307 1.41459,-3.322347 2.75128,-5.6198533 3.07898,-5.2921533 0.55456,0.5545533 -4.58785,12.9146803 -5.93262,14.2594463 -0.4044,0.404407 -1.78524,-1.936613 -3.78542,-6.417673 z m 21.18613,6.327253 c -3.70377,-1.494653 -4.76424,-7.371626 -2.05547,-11.39116 2.94126,-4.3645403 8.66962,-6.6191383 11.79511,-4.6423803 0.62212,0.393467 1.29468,0.355207 1.84944,-0.105206 1.39044,-1.15396 1.62322,-0.25516 0.79046,3.0520403 -0.90425,3.5911 -1.7784,3.985026 -2.0753,0.935226 -0.14383,-1.47738 -0.73828,-2.4415133 -1.9082,-3.0948933 -5.2684,-2.942301 -12.54688,8.5488003 -8.3513,13.1848603 1.59854,1.76636 4.64677,1.793053 6.38392,0.05587 1.73976,-1.73976 1.68702,-2.959007 -0.16666,-3.853007 -1.26102,-0.608167 -0.86272,-0.727233 2.5,-0.74734 3.52154,-0.02107 3.85625,0.08509 2.79823,0.887373 -0.66097,0.501214 -1.51,2.02764 -1.88674,3.39206 -0.46229,1.674314 -0.90441,2.261334 -1.35999,1.805754 -0.45558,-0.455587 -1.25093,-0.37454 -2.4466,0.249293 -1.99147,1.039053 -3.76186,1.120973 -5.8669,0.27148 z M -30.555561,23.521782 c -0.943677,-0.94368 -0.409688,-2.236114 0.923882,-2.236114 0.931975,0 1.312004,0.362034 1.166667,1.11142 -0.237962,1.226987 -1.376001,1.83924 -2.090549,1.124694 z m 75.541669,-0.236114 c 0,-0.380953 2,-0.666666 4.66667,-0.666666 h 4.66666 v -3.304127 -3.304127 l -4.83333,-0.230073 -4.83333,-0.23008 4.83333,-0.13246 4.83333,-0.132467 V 11.952335 8.6190017 h -4.66666 c -2.66667,0 -4.66667,-0.285714 -4.66667,-0.666667 0,-0.388887 2.22222,-0.666667 5.33333,-0.666667 h 5.33334 v 8.3333343 8.333333 h -5.33334 c -3.11111,0 -5.33333,-0.27778 -5.33333,-0.666667 z m 12.66667,-0.725493 c 0,-0.70098 0.45,-1.274507 1,-1.274507 0.55,0 1,0.475 1,1.055554 0,1.782 1.52736,0.66192 2.40335,-1.762467 1.02485,-2.836387 1.14801,-5.74632 0.26626,-6.291267 -0.36505,-0.225613 -1.41505,0.400487 -2.33333,1.39134 -1.84843,1.99448 -2.2557,1.406927 -0.63182,-0.911486 1.07735,-1.538134 3.88938,-2.011534 4.64888,-0.782634 0.29743,0.481254 0.71365,0.465314 1.33598,-0.0512 1.42689,-1.184213 3.97734,-0.530906 3.97734,1.018807 0,0.74074 -0.44444,1.333333 -1,1.333333 -0.55,0 -0.96228,-0.501273 -0.91619,-1.113946 0.16694,-2.21898 -1.7434,-0.386954 -2.44958,2.34916 -0.39247,1.520633 -0.86641,3.291266 -1.05321,3.93474 -0.6298,2.169566 1.81299,2.245126 3.52227,0.108946 1.70572,-2.131733 2.16865,-1.439713 0.56678,0.847274 -0.85623,1.222426 -1.65441,1.422846 -5.66667,1.422846 -4.15377,0 -4.67006,-0.1409 -4.67006,-1.274513 z m 23,0.725493 c 0.22661,-0.366666 0.83275,-0.666666 1.34698,-0.666666 0.52004,0 1.2243,-1.109454 1.58696,-2.5 1.6368,-6.2761 2.73272,-10.7260943 2.73272,-11.0962273 0,-0.22208 -0.4677,-0.403773 -1.03934,-0.403773 -0.57164,0 -0.85394,-0.3 -0.62732,-0.666667 0.62662,-1.013893 12.30792,-0.860173 12.66483,0.166667 0.15931,0.458333 0.0306,1.8833333 -0.28601,3.1666663 -0.48037,1.947047 -0.58697,2.0519 -0.64392,0.633334 -0.0979,-2.4385673 -1.2735,-3.3000003 -4.50357,-3.3000003 -2.70851,0 -2.86638,0.11182 -3.52961,2.5000003 -0.38186,1.375 -0.69596,2.875 -0.698,3.333333 -0.006,1.40916 3.10114,0.923347 4.2642,-0.666667 1.08063,-1.477313 1.09064,-1.464706 0.6615,0.833334 -0.23965,1.283333 -0.6778,2.933333 -0.97365,3.666666 -0.51039,1.26508 -0.54009,1.256547 -0.58018,-0.166666 -0.034,-1.207374 -0.42631,-1.5 -2.01093,-1.5 -1.70702,0 -2.06093,0.332253 -2.66294,2.5 -0.90234,3.249186 -0.88379,3.5 0.25893,3.5 0.52836,0 1.14607,0.3 1.37268,0.666666 0.25753,0.416694 -1.1173,0.666667 -3.66667,0.666667 -2.54936,0 -3.9242,-0.249973 -3.66666,-0.666667 z m 17.66666,-0.725493 c 0,-0.70098 0.45,-1.274507 1,-1.274507 0.55,0 1.000002,0.475 1.000002,1.055554 0,1.782 1.52737,0.66192 2.40336,-1.762467 1.02484,-2.836387 1.148,-5.74632 0.26626,-6.291267 -0.36505,-0.225613 -1.41505,0.400487 -2.33334,1.39134 -1.848422,1.99448 -2.255692,1.406927 -0.63181,-0.911486 1.07735,-1.538134 3.88937,-2.011534 4.64887,-0.782634 0.29744,0.481254 0.71366,0.465314 1.33599,-0.0512 1.42689,-1.184213 3.97734,-0.530906 3.97734,1.018807 0,0.74074 -0.44445,1.333333 -1,1.333333 -0.55,0 -0.96229,-0.501273 -0.91619,-1.113946 0.16694,-2.21898 -1.7434,-0.386954 -2.44958,2.34916 -0.39248,1.520633 -0.86642,3.291266 -1.05321,3.93474 -0.6298,2.169566 1.81299,2.245126 3.52227,0.108946 1.70572,-2.131733 2.16864,-1.439713 0.56678,0.847274 -0.85623,1.222426 -1.65442,1.422846 -5.66667,1.422846 -4.153772,0 -4.670072,-0.1409 -4.670072,-1.274513 z m 58.666672,0 c 0,-0.70098 0.45,-1.274507 1,-1.274507 0.55,0 1,0.475 1,1.055554 0,1.782 1.52737,0.66192 2.40336,-1.762467 1.02484,-2.836387 1.148,-5.74632 0.26626,-6.291267 -0.36505,-0.225613 -1.41505,0.400487 -2.33334,1.39134 -1.84842,1.99448 -2.25569,1.406927 -0.63181,-0.911486 1.07735,-1.538134 3.88937,-2.011534 4.64887,-0.782634 0.29744,0.481254 0.71366,0.465314 1.33599,-0.0512 1.42689,-1.184213 3.97734,-0.530906 3.97734,1.018807 0,0.74074 -0.44445,1.333333 -1,1.333333 -0.55,0 -0.96229,-0.501273 -0.91619,-1.113946 0.16694,-2.21898 -1.7434,-0.386954 -2.44958,2.34916 -0.39248,1.520633 -0.86642,3.291266 -1.05321,3.93474 -0.6298,2.169566 1.81299,2.245126 3.52227,0.108946 1.70572,-2.131733 2.16864,-1.439713 0.56678,0.847274 -0.85623,1.222426 -1.65442,1.422846 -5.66667,1.422846 -4.15377,0 -4.67007,-0.1409 -4.67007,-1.274513 z m -49.762,-27.2688943 c -3.70377,-1.494655 -4.76423,-7.3716247 -2.05547,-11.3911587 2.94126,-4.36454 8.66962,-6.619138 11.79511,-4.64238 0.62212,0.393466 1.29468,0.355206 1.84945,-0.105209 1.39043,-1.153959 1.62322,-0.255157 0.79045,3.052043 -0.90425,3.591098 -1.77839,3.985028 -2.0753,0.935223 -0.14383,-1.477379 -0.73827,-2.441511 -1.90819,-3.094887 -5.26841,-2.942305 -12.54688,8.548796 -8.3513,13.1848567 1.59853,1.766361 4.64676,1.793053 6.38392,0.0559 1.73976,-1.739757 1.68701,-2.959006 -0.16667,-3.8530027 -1.26102,-0.608167 -0.86272,-0.727234 2.5,-0.747341 3.52155,-0.02106 3.85625,0.08508 2.79823,0.887373 -0.66096,0.5012097 -1.51,2.0276357 -1.88674,3.3920587 -0.46229,1.674309 -0.9044,2.26133 -1.35998,1.805749 -0.45559,-0.455581 -1.25094,-0.374538 -2.4466,0.249298 -1.99148,1.03905 -3.76186,1.12097 -5.86691,0.271477 z m 38.76108,-2.280371 c -0.97299,-1.660288 -1.57812,-3.3276757 -1.34473,-3.7053057 0.76576,-1.239027 2.11641,-0.720005 2.96331,1.1387237 l 0.83167,1.825325 1.61961,-3.4076937 c 1.72399,-3.627314 7.80864,-10.242957 9.42082,-10.242957 0.53127,0 -0.43089,1.35757 -2.13814,3.016823 -1.92745,1.873267 -3.86419,4.716215 -5.10934,7.5 -3.57104,7.9838247 -3.76482,8.1041067 -6.2432,3.8750847 z m -188.999085,1.646886 c 0,-0.34533 1.5,-2.342007 3.333333,-4.43706 2.485669,-2.8405117 3.333334,-4.3422677 3.333334,-5.9054597 0,-2.470195 -1.026298,-3.696274 -3.093989,-3.696274 -1.864415,0 -2.601533,1.093639 -1.572678,2.333333 0.906005,1.091669 0.352927,2.333333 -1.039345,2.333333 -0.618837,0 -0.960655,-0.698183 -0.960655,-1.962197 0,-3.781536 5.145338,-5.409785 7.883791,-2.494835 2.377148,2.530358 1.879584,4.748808 -1.980496,8.830273 l -3.430038,3.6267587 h 2.661495 c 2.101278,0 2.813769,-0.315734 3.384918,-1.5 l 0.723423,-1.5 0.04512,1.445476 c 0.09721,3.114214 -0.525403,3.554524 -5.026206,3.554524 -2.344104,0 -4.262007,-0.282542 -4.262007,-0.627872 z m 12.458334,0.197317 c -0.943677,-0.943677 -0.409688,-2.236111 0.923882,-2.236111 0.931975,0 1.312004,0.362033 1.166667,1.111422 -0.237962,1.226986 -1.376001,1.839237 -2.090549,1.124689 z m 108.208339,-0.236111 c 0,-0.380953 2,-0.666667 4.66666,-0.666667 h 4.66667 v -3.304127 -3.3041267 l -4.83333,-0.230075 -4.83334,-0.230075 4.83334,-0.132465 4.83333,-0.132464 v -3.333334 -3.333333 h -4.66667 c -2.66666,0 -4.66666,-0.285714 -4.66666,-0.666667 0,-0.388888 2.22222,-0.666666 5.33333,-0.666666 h 5.33333 v 8.333333 8.3333327 h -5.33333 c -3.11111,0 -5.33333,-0.277778 -5.33333,-0.666666 z m 12,-0.72549 c 0,-0.700981 0.45,-1.27451 1,-1.27451 0.55,0 1,0.475 1,1.055555 0,1.781995 1.52736,0.661919 2.40335,-1.762468 1.02485,-2.8363887 1.14801,-5.7463187 0.26626,-6.2912667 -0.36505,-0.225612 -1.41505,0.40049 -2.33333,1.391336 -1.84843,1.99448 -2.2557,1.40693 -0.63182,-0.911486 1.07735,-1.538128 3.88938,-2.011529 4.64888,-0.782632 0.29743,0.481256 0.71365,0.465312 1.33598,-0.05117 1.42689,-1.184221 3.977342,-0.530918 3.977342,1.018798 0,0.740741 -0.44444,1.333334 -1,1.333334 -0.550002,0 -0.962282,-0.501276 -0.916192,-1.113947 0.16694,-2.218979 -1.7434,-0.386955 -2.44958,2.349162 -0.39247,1.5206307 -0.86641,3.2912627 -1.05321,3.9347347 -0.6298,2.169572 1.81299,2.24513 3.52227,0.108948 1.705722,-2.131734 2.168652,-1.43971 0.56678,0.847274 -0.85623,1.222429 -1.65441,1.422847 -5.66667,1.422847 -4.15377,0 -4.67006,-0.140901 -4.67006,-1.274509 z m 32.000002,0 c 0,-0.700981 0.45,-1.27451 1,-1.27451 0.55,0 1,0.475 1,1.055555 0,1.781995 1.52736,0.661919 2.40335,-1.762468 1.02485,-2.8363887 1.14801,-5.7463187 0.26626,-6.2912667 -0.36505,-0.225612 -1.41505,0.40049 -2.33333,1.391336 -1.84843,1.99448 -2.2557,1.40693 -0.63182,-0.911486 1.07735,-1.538128 3.88938,-2.011529 4.64888,-0.782632 0.29743,0.481256 0.71365,0.465312 1.33598,-0.05117 1.42689,-1.184221 3.97734,-0.530918 3.97734,1.018798 0,0.740741 -0.44444,1.333334 -1,1.333334 -0.55,0 -0.96228,-0.501276 -0.91619,-1.113947 0.16694,-2.218979 -1.7434,-0.386955 -2.44958,2.349162 -0.39247,1.5206307 -0.86641,3.2912627 -1.05321,3.9347347 -0.6298,2.169572 1.81299,2.24513 3.52227,0.108948 1.70572,-2.131734 2.16865,-1.43971 0.56678,0.847274 -0.85623,1.222429 -1.65441,1.422847 -5.66667,1.422847 -4.15377,0 -4.67006,-0.140901 -4.67006,-1.274509 z m -48.000002,-3.27451 v -2.6666667 h -6 c -3.55556,0 -6,-0.271605 -6,-0.666667 0,-0.4 2.66666,-0.666666 6.66666,-0.666666 h 6.66667 v 3.333333 c 0,1.8333327 -0.3,3.3333327 -0.66667,3.3333327 -0.36666,0 -0.66666,-1.2 -0.66666,-2.666666 z M 59.342268,-28.419372 c -4.12132,-4.446974 -4.57717,-13.582978 -0.96215,-19.28326 2.4589,-3.87729 3.87742,-3.947743 1.61077,-0.08 -3.08167,5.258481 -3.05309,13.512944 0.0627,18.10431 2.04718,3.016696 1.6194,3.773834 -0.71132,1.258951 z m 100.310512,1.411279 c 0,-0.275226 0.61392,-1.362587 1.36427,-2.416357 2.17374,-3.052739 3.06072,-8.575314 2.1077,-13.123215 -0.44181,-2.108333 -1.40374,-4.646185 -2.13763,-5.639671 -1.57066,-2.126254 -1.66618,-2.612487 -0.41919,-2.133975 0.50332,0.193146 1.70332,1.799329 2.66666,3.569296 3.20693,5.892187 2.15529,15.055833 -2.17754,18.974342 -0.77235,0.698495 -1.40427,1.044806 -1.40427,0.76958 z M 31.76504,-35.547665 c -0.72428,-1.925 -2.095833,-5.560718 -3.0479,-8.079373 -1.853393,-4.903066 -2.03116,-5.75396 -1.202133,-5.75396 0.290893,0 0.99232,1.275 1.558733,2.833333 1.009247,2.776692 1.09728,2.837315 4.403554,3.032497 l 3.373713,0.199164 1.15812,-3.032497 c 0.636967,-1.667873 1.417367,-3.032497 1.73422,-3.032497 0.316853,0 0.576093,0.203634 0.576093,0.452519 0,1.03632 -6.366986,16.880814 -6.783426,16.880814 -0.24976,0 -1.0467,-1.575 -1.770974,-3.5 z m 2.841894,-2 c 2.08684,-5.102563 2.07556,-5.166667 -0.909234,-5.166667 -1.49138,0 -2.71308,0.225 -2.714893,0.5 -0.0047,0.73825 2.227133,6.833334 2.502347,6.833334 0.129613,0 0.634413,-0.975 1.12178,-2.166667 z m 73.429466,4.821137 c 5.39876,-0.569778 7.25102,-1.496282 8.36422,-4.183792 0.64166,-1.54909 0.58922,-2.314057 -0.2842,-4.145629 -1.21744,-2.553002 -4.00412,-3.648451 -9.29698,-3.654665 -1.74166,-0.002 -3.16666,-0.303718 -3.16666,-0.670384 0,-0.8784 6.31723,-0.84883 9.53468,0.04463 4.37703,1.215467 6.33042,6.05419 4.0218,9.962368 -1.55309,2.62918 -3.55003,3.340208 -9.08785,3.235816 l -4.80197,-0.09052 z m 23.18771,0.01781 c -3.70377,-1.494654 -4.76423,-7.371625 -2.05547,-11.391159 2.94126,-4.36454 8.66962,-6.619138 11.79511,-4.64238 0.62212,0.393467 1.29468,0.355207 1.84945,-0.105209 1.39043,-1.153959 1.62322,-0.255156 0.79045,3.052043 -0.90424,3.591099 -1.77839,3.985029 -2.0753,0.935223 -0.14382,-1.477378 -0.73827,-2.441511 -1.90819,-3.094887 -5.26841,-2.942305 -12.54688,8.548796 -8.3513,13.184857 1.59853,1.766362 4.64676,1.793053 6.38392,0.0559 1.73976,-1.739756 1.68701,-2.959006 -0.16667,-3.853003 -1.26102,-0.608167 -0.86272,-0.727233 2.5,-0.747341 3.52155,-0.02106 3.85626,0.08508 2.79824,0.887373 -0.66097,0.50121 -1.51,2.027637 -1.88674,3.392059 -0.4623,1.67431 -0.90441,2.26133 -1.35999,1.80575 -0.45559,-0.455582 -1.25094,-0.374539 -2.4466,0.249298 -1.99148,1.039049 -3.76186,1.12097 -5.86691,0.271476 z m 48.09442,-2.280371 c -0.973,-1.660287 -1.57812,-3.327675 -1.34474,-3.705306 0.76576,-1.239027 2.11642,-0.720005 2.96331,1.138724 l 0.83167,1.825325 1.61962,-3.407694 c 1.72398,-3.627311 7.80863,-10.242954 9.42081,-10.242954 0.53127,0 -0.43089,1.35757 -2.13813,3.016823 -1.92746,1.873267 -3.8642,4.716215 -5.10934,7.5 -3.57104,7.983825 -3.76483,8.104107 -6.2432,3.875085 z m -222.332425,1.924923 c 0,-0.192408 0.75,-0.634983 1.666667,-0.983499 1.608208,-0.611439 1.666666,-0.845141 1.666666,-6.662867 v -6.029202 l -1.666666,0.418306 c -0.938684,0.235595 -1.666667,0.129492 -1.666667,-0.242914 0,-0.363671 0.675,-0.807614 1.5,-0.986541 0.825,-0.178926 2.025,-0.545996 2.666667,-0.815711 1.070519,-0.449976 1.166666,0.119842 1.166666,6.91427 0,6.960214 0.08003,7.404659 1.333334,7.404659 0.733333,0 1.333333,0.3 1.333333,0.666667 0,0.37037 -1.777778,0.666666 -4,0.666666 -2.2,0 -4,-0.157425 -4,-0.349834 z m 12.458334,-0.08072 c -0.943677,-0.943677 -0.409688,-2.236111 0.923882,-2.236111 0.931975,0 1.312004,0.362033 1.166667,1.111422 -0.237962,1.226986 -1.376001,1.839237 -2.090549,1.124689 z m 71.541668,-0.961601 c 0,-0.700981 0.45,-1.27451 1,-1.27451 0.55,0 1,0.475 1,1.055555 0,1.781995 1.527371,0.661919 2.403351,-1.762468 1.02485,-2.836389 1.14801,-5.746319 0.26626,-6.291267 -0.36504,-0.225612 -1.415044,0.40049 -2.333331,1.391336 -1.848427,1.99448 -2.255693,1.40693 -0.631813,-0.911486 1.077347,-1.538128 3.889374,-2.011529 4.648874,-0.782632 0.29743,0.481256 0.71365,0.465312 1.33599,-0.05117 1.42688,-1.184218 3.97734,-0.530915 3.97734,1.018801 0,0.740741 -0.44445,1.333334 -1,1.333334 -0.55,0 -0.96229,-0.501276 -0.9162,-1.113947 0.16694,-2.218979 -1.7434,-0.386955 -2.44958,2.349162 -0.39247,1.520631 -0.86641,3.291263 -1.0532,3.934735 -0.6298,2.169572 1.81298,2.24513 3.52226,0.108948 1.70572,-2.131734 2.16865,-1.43971 0.56678,0.847274 -0.85622,1.222429 -1.65441,1.422847 -5.66666,1.422847 -4.153778,0 -4.670071,-0.140901 -4.670071,-1.274509 z m 23.000001,0.72549 c 0.22661,-0.366668 0.83275,-0.666668 1.34698,-0.666668 0.52005,0 1.22431,-1.109453 1.58696,-2.5 1.63681,-6.276102 2.73273,-10.726094 2.73273,-11.09623 0,-0.222073 -0.46771,-0.40377 -1.03935,-0.40377 -0.57164,0 -0.85393,-0.3 -0.62732,-0.666667 0.62662,-1.013894 12.30792,-0.86017 12.66483,0.166667 0.15932,0.458333 0.0306,1.883333 -0.28601,3.166667 -0.48037,1.947048 -0.58697,2.051897 -0.64391,0.633333 -0.0979,-2.438565 -1.27351,-3.3 -4.50358,-3.3 -2.7085,0 -2.86638,0.111823 -3.52961,2.5 -0.38185,1.375 -0.69596,2.875 -0.698,3.333333 -0.006,1.409162 3.10114,0.923346 4.26421,-0.666666 1.08062,-1.477314 1.09063,-1.46471 0.66149,0.833333 -0.23965,1.283333 -0.67779,2.933333 -0.97365,3.666667 -0.51038,1.265078 -0.54008,1.256546 -0.58018,-0.166667 -0.034,-1.207377 -0.42631,-1.5 -2.01092,-1.5 -1.70703,0 -2.06094,0.332251 -2.66295,2.5 -0.90234,3.249184 -0.88379,3.5 0.25893,3.5 0.52836,0 1.14607,0.3 1.37268,0.666667 0.25754,0.416696 -1.1173,0.666666 -3.66666,0.666666 -2.54937,0 -3.9242,-0.24997 -3.66667,-0.666665 z m 18.33333,-0.725491 c 0,-0.700981 0.45,-1.27451 1,-1.27451 0.55,0 1,0.475 1,1.055555 0,1.781995 1.52737,0.661919 2.40336,-1.762468 1.02484,-2.836389 1.148,-5.746319 0.26626,-6.291267 -0.36505,-0.225612 -1.41505,0.40049 -2.33334,1.391336 -1.84842,1.99448 -2.25569,1.40693 -0.63181,-0.911486 1.07735,-1.538128 3.88937,-2.011529 4.64887,-0.782632 0.29744,0.481256 0.71366,0.465312 1.33599,-0.05117 1.42689,-1.184218 3.97734,-0.530915 3.97734,1.018801 0,0.740741 -0.44445,1.333334 -1,1.333334 -0.55,0 -0.96229,-0.501276 -0.91619,-1.113947 0.16694,-2.218979 -1.7434,-0.386955 -2.44958,2.349162 -0.39248,1.520631 -0.86642,3.291263 -1.05321,3.934735 -0.6298,2.169572 1.81299,2.24513 3.52227,0.108948 1.70572,-2.131734 2.16864,-1.43971 0.56678,0.847274 -0.85623,1.222429 -1.65442,1.422847 -5.66667,1.422847 -4.15377,0 -4.67007,-0.140901 -4.67007,-1.274509 z m 63.333342,0 c 0,-0.700981 0.45,-1.27451 1,-1.27451 0.55,0 1,0.475 1,1.055555 0,1.781995 1.52737,0.661919 2.40335,-1.762468 1.02485,-2.836389 1.14801,-5.746319 0.26626,-6.291267 -0.36504,-0.225612 -1.41504,0.40049 -2.33333,1.391336 -1.84843,1.99448 -2.25569,1.40693 -0.63181,-0.911486 1.07734,-1.538128 3.88937,-2.011529 4.64887,-0.782632 0.29743,0.481256 0.71365,0.465312 1.33599,-0.05117 1.42688,-1.184218 3.97734,-0.530915 3.97734,1.018801 0,0.740741 -0.44445,1.333334 -1,1.333334 -0.55,0 -0.96229,-0.501276 -0.9162,-1.113947 0.16694,-2.218979 -1.7434,-0.386955 -2.44958,2.349162 -0.39247,1.520631 -0.86641,3.291263 -1.0532,3.934735 -0.6298,2.169572 1.81298,2.24513 3.52226,0.108948 1.70572,-2.131734 2.16865,-1.43971 0.56678,0.847274 -0.85622,1.222429 -1.65441,1.422847 -5.66666,1.422847 -4.15378,0 -4.67007,-0.140901 -4.67007,-1.274509 z"
       id="path154" />
  </g>
</svg>
