<?xml version="1.0" encoding="UTF-8" standalone="no"?>
<svg
   xmlns:dc="http://purl.org/dc/elements/1.1/"
   xmlns:cc="http://creativecommons.org/ns#"
   xmlns:rdf="http://www.w3.org/1999/02/22-rdf-syntax-ns#"
   xmlns:svg="http://www.w3.org/2000/svg"
   xmlns="http://www.w3.org/2000/svg"
   xmlns:sodipodi="http://sodipodi.sourceforge.net/DTD/sodipodi-0.dtd"
   xmlns:inkscape="http://www.inkscape.org/namespaces/inkscape"
   version="1.1"
   id="svg552"
   width="313.33917"
   height="100"
   viewBox="0 0 313.33917 100"
   sodipodi:docname="10-3-1.svg"
   inkscape:version="1.0.1 (c497b03c, 2020-09-10)">
  <metadata
     id="metadata558">
    <rdf:RDF>
      <cc:Work
         rdf:about="">
        <dc:format>image/svg+xml</dc:format>
        <dc:type
           rdf:resource="http://purl.org/dc/dcmitype/StillImage" />
        <dc:title></dc:title>
      </cc:Work>
    </rdf:RDF>
  </metadata>
  <defs
     id="defs556" />
  <sodipodi:namedview
     pagecolor="#ffffff"
     bordercolor="#666666"
     borderopacity="1"
     objecttolerance="10"
     gridtolerance="10"
     guidetolerance="10"
     inkscape:pageopacity="0"
     inkscape:pageshadow="2"
     inkscape:window-width="746"
     inkscape:window-height="480"
     id="namedview554"
     showgrid="false"
     fit-margin-top="0"
     fit-margin-left="0"
     fit-margin-right="0"
     fit-margin-bottom="0"
     inkscape:pagecheckerboard="true"
     inkscape:zoom="0.69790098"
     inkscape:cx="113.89003"
     inkscape:cy="23.951394"
     inkscape:window-x="0"
     inkscape:window-y="25"
     inkscape:window-maximized="0"
     inkscape:current-layer="g560" />
  <g
     inkscape:groupmode="layer"
     inkscape:label="Image"
     id="g560"
     transform="translate(-17.994189,-19.333333)">
    <path
       style="fill:#1d1d1d;stroke-width:0.666667"
       d="M 36.666667,102.33333 V 85.333331 H 78.333335 120 v 16.999999 17 H 78.333335 36.666667 Z m 82.000003,0.33333 V 86.666665 H 78.000001 37.333334 v 15.555555 c 0,8.55556 0.2,15.75556 0.444445,16 0.244444,0.24444 18.544444,0.44444 40.666669,0.44444 h 40.222222 z m -63.798162,7.20204 c -1.634103,-0.78952 -2.857655,-3.66953 -2.889574,-6.80152 L 51.957867,101 l -1.645599,1.8705 c -0.905081,1.02878 -1.6456,2.32878 -1.6456,2.8889 0,1.50094 -1.632185,0.70267 -1.871446,-0.91529 -0.139539,-0.94361 0.550726,-1.96104 2.166667,-3.19357 1.517453,-1.15742 2.371445,-2.366322 2.371445,-3.356989 0,-1.937693 -1.085187,-2.662753 -2.378647,-1.58928 -0.542799,0.450487 -1.200175,0.605793 -1.460836,0.345133 -0.721174,-0.721173 2.659714,-3.07214 4.145487,-2.88264 0.750895,0.09577 1.464144,0.841374 1.678061,1.75418 l 0.372058,1.587614 2.084843,-1.75428 c 2.49291,-2.097647 3.559034,-2.22374 3.559034,-0.420947 0,0.833253 -0.444444,1.333333 -1.184996,1.333333 -0.651747,0 -1.888063,0.492447 -2.747368,1.094327 -1.427973,1.000193 -1.524703,1.414827 -1.124481,4.820089 0.449518,3.8247 1.831031,6.75225 3.186387,6.75225 0.421009,0 1.277026,-0.46295 1.902261,-1.02878 1.017682,-0.92099 1.177745,-0.92205 1.527668,-0.0102 0.757157,1.97312 -3.108171,2.98324 -6.024297,1.57432 z m 25.79816,-3.55882 c 0,-0.19624 0.4845,-1.09624 1.076674,-2 l 1.076673,-1.64322 h -7.076674 c -4.27334,0 -7.076673,-0.26409 -7.076673,-0.66666 0,-0.40854 3.195013,-0.66667 8.251707,-0.66667 6.092953,0 8.4461,-0.23424 8.994787,-0.89537 1.293226,-1.558236 -2.11594,-2.427976 -10.111194,-2.579549 l -7.468633,-0.141587 7.166666,-0.2143 c 3.941667,-0.117866 7.166667,-0.364706 7.166667,-0.54854 0,-0.183826 -0.4845,-1.073673 -1.076673,-1.97744 -1.494407,-2.28076 0.01227,-2.07428 1.650327,0.226167 0.732113,1.028153 2.40254,2.446373 3.712066,3.1516 1.30952,0.705227 2.380947,1.45844 2.380947,1.673809 0,0.21538 -1.030587,0.88304 -2.290193,1.48371 -1.2596,0.60066 -2.96602,2.00623 -3.792034,3.12347 -1.349706,1.82558 -2.58444,2.62562 -2.58444,1.67458 z m 20.062342,-0.86007 c -0.49707,-0.92879 -0.43199,-2.30426 0.22973,-4.85525 1.1737,-4.524729 3.53271,-6.586569 7.54126,-6.591249 1.55834,-0.002 2.83009,0.07169 2.82612,0.163353 -0.004,0.09167 -0.45397,1.639347 -1,3.439287 -1.42586,4.700209 -1.34104,5.960669 0.34055,5.060709 2.35059,-1.258 1.48653,0.5145 -1.11137,2.27982 -2.49586,1.69598 -3.5553,1.70691 -3.5553,0.0367 0,-0.7264 -0.51661,-0.63336 -2.28872,0.41221 -2.26009,1.33349 -2.2974,1.33417 -2.98227,0.0545 z m 4.61899,-2.79099 c 0.69318,-0.37098 1.57178,-1.79598 1.95245,-3.166669 0.94309,-3.395847 0.91865,-3.492153 -0.88623,-3.492153 -1.61446,0 -2.51044,1.422806 -3.46353,5.500002 -0.46445,1.98685 0.22625,2.32073 2.39731,1.15882 z m 142.71434,6.12432 c -0.49707,-0.92878 -0.43199,-2.30426 0.22973,-4.85524 1.1737,-4.524736 3.53271,-6.586576 7.54127,-6.591256 1.55833,-0.002 2.83008,0.07169 2.82612,0.163354 -0.004,0.09167 -0.45398,1.639346 -1,3.439282 -1.42586,4.70022 -1.34104,5.96068 0.34054,5.06072 2.35059,-1.258 1.48654,0.5145 -1.11136,2.27981 -2.49587,1.69599 -3.5553,1.70691 -3.5553,0.0367 0,-0.72641 -0.51662,-0.63336 -2.28872,0.4122 -2.2601,1.33349 -2.2974,1.33417 -2.98228,0.0545 z m 4.61899,-2.79099 c 0.69318,-0.37098 1.57179,-1.79598 1.95245,-3.16667 0.9431,-3.395842 0.91866,-3.492149 -0.88623,-3.492149 -1.61445,0 -2.51044,1.422809 -3.46353,5.499999 -0.46445,1.98685 0.22626,2.32073 2.39731,1.15882 z M 19.333334,108.66666 C 19.333334,108.3 20.083334,108 21,108 c 2.335342,0 2.050846,-1.47476 -0.514428,-2.66667 -4.05912,-1.886 -2.982264,-6.524159 1.952265,-8.408679 2.775234,-1.059867 3.983818,-2.924653 1.895497,-2.924653 -0.55,0 -1,-0.3 -1,-0.666667 0,-0.370373 1.777778,-0.666667 4,-0.666667 2.222222,0 4,0.296294 4,0.666667 0,0.366667 -0.75,0.666667 -1.666667,0.666667 -1.94104,0 -2.310316,1.813586 -0.5,2.455586 2.026716,0.718754 3.5,2.36508 3.5,3.911096 0,1.86565 -2.524992,4.35442 -5.399826,5.32237 C 24.736898,106.54088 23.901943,108 25.944445,108 c 0.763889,0 1.388889,0.3 1.388889,0.66666 0,0.37038 -1.777778,0.66667 -4,0.66667 -2.222222,0 -4,-0.29629 -4,-0.66667 z m 4.619966,-7.05172 c 0.457677,-2.045116 0.68111,-3.869422 0.496518,-4.054016 -0.708522,-0.70852 -2.971289,1.145734 -3.779645,3.097276 -0.735352,1.7753 -0.69019,2.21469 0.345225,3.35881 0.655189,0.72397 1.397017,1.31632 1.648508,1.31632 0.25149,0 0.831718,-1.67327 1.289394,-3.71839 z m 5.138075,1.33916 c 1.28067,-1.95454 0.952465,-5.204542 -0.554431,-5.490169 -0.838159,-0.158873 -1.321556,0.527887 -1.873014,2.660969 -0.40881,1.5813 -0.88776,3.37524 -1.064332,3.98651 -0.479907,1.66139 2.23434,0.76179 3.491777,-1.15731 z m 151.668075,1.71256 c -0.82665,-2.56666 -1.78571,-4.666662 -2.13123,-4.666662 -0.34552,0 -0.62822,-0.3 -0.62822,-0.666667 0,-0.366667 1.05,-0.666667 2.33334,-0.666667 1.28333,0 2.33333,0.3 2.33333,0.666667 0,0.366667 -0.32021,0.666667 -0.71159,0.666667 -0.70746,0 -0.4849,1.188182 0.87412,4.666662 0.64164,1.64231 0.665,1.62778 1.59832,-0.99383 0.83478,-2.34486 0.82606,-2.74904 -0.0735,-3.40683 -1.58526,-1.159169 -1.22398,-1.599336 1.31267,-1.599336 2.10808,0 3.19153,0.88674 1.76487,1.444446 -0.31266,0.12222 -0.0641,1.71533 0.55242,3.54025 l 1.1209,3.31802 1.06974,-3.13952 c 0.62778,-1.84242 0.81269,-3.29838 0.44757,-3.52403 -1.27393,-0.787332 -0.5579,-1.639166 1.37783,-1.639166 1.1,0 2,0.3 2,0.666667 0,0.366667 -0.27377,0.666667 -0.60838,0.666667 -0.33461,0 -1.41084,2.100002 -2.39162,4.666662 -0.98078,2.56667 -2.03374,4.66667 -2.33991,4.66667 -0.30618,0 -0.91619,-1.125 -1.35559,-2.5 -1.20363,-3.76653 -1.69516,-3.86688 -2.62762,-0.53648 -0.46758,1.67007 -1.20212,3.03648 -1.6323,3.03648 -0.43017,0 -1.45848,-2.1 -2.28513,-4.66667 z m 13.90722,4 c 0,-0.36666 0.45,-0.66666 1,-0.66666 0.82243,0 1,-1.18751 1,-6.68759 0,-5.329532 -0.20307,-6.765519 -1,-7.071326 -1.69371,-0.64994 -1.10536,-1.675106 0.83333,-1.452033 1.67925,0.19322 1.85043,0.477393 2.03668,3.381113 0.19026,2.96646 0.30498,3.144654 1.78521,2.773134 0.87004,-0.21836 2.20353,-0.19972 2.96333,0.0414 1.19406,0.37898 1.38145,0.9778 1.38145,4.414452 0,2.91923 0.26579,4.07799 1,4.35973 1.89284,0.72636 0.99508,1.57442 -1.66667,1.57442 -1.46666,0 -2.66666,-0.3 -2.66666,-0.66666 0,-0.36667 0.31431,-0.66667 0.69848,-0.66667 0.96125,0 0.52412,-8.154086 -0.45444,-8.476846 -1.57196,-0.518493 -2.91071,1.869106 -2.91071,5.191136 0,1.80714 0.3,3.28571 0.66667,3.28571 0.36666,0 0.66666,0.3 0.66666,0.66667 0,0.36666 -1.2,0.66666 -2.66666,0.66666 -1.46667,0 -2.66667,-0.3 -2.66667,-0.66666 z m 14.78287,-0.8763 c -3.20542,-3.41201 -0.87516,-9.123696 3.7223,-9.123696 2.2162,0 4.1615,1.939136 4.1615,4.148336 0,0.99366 -0.59932,1.185 -3.7116,1.185 -3.54086,0 -3.69044,0.069 -3.25174,1.5 1.042,3.39889 3.20446,4.1452 5.30037,1.82924 0.66569,-0.73558 1.36035,-1.18742 1.54368,-1.00408 0.18333,0.18333 -0.21132,0.93517 -0.87701,1.67075 -1.67728,1.85337 -5.04774,1.75278 -6.8875,-0.20555 z m 5.8838,-5.16752 c 0,-1.33407 -1.37852,-3.289509 -2.31899,-3.289509 -1.10904,0 -3.11147,2.636829 -2.61387,3.441979 0.50592,0.81858 4.93286,0.68175 4.93286,-0.15247 z M 218,108.66666 C 218,108.3 218.3,108 218.66667,108 c 0.37037,0 0.66667,-1.77778 0.66667,-4 0,-2.22222 -0.2963,-4.000002 -0.66667,-4.000002 -0.36667,0 -0.66667,-0.3 -0.66667,-0.666667 0,-0.366667 0.75,-0.666667 1.66667,-0.666667 0.91667,0 1.66667,0.30254 1.66667,0.672314 0,0.41442 0.47758,0.37406 1.24502,-0.105214 1.50163,-0.93778 3.42164,-0.332513 3.42164,1.078646 0,1.22259 -1.75978,1.37303 -2.19444,0.18759 -0.60468,-1.649136 -1.83726,0.5706 -2.24947,4.05105 -0.34008,2.87147 -0.23208,3.44895 0.64504,3.44895 0.57943,0 1.23893,0.3 1.46554,0.66666 0.25167,0.40721 -0.77085,0.66667 -2.62732,0.66667 -1.67164,0 -3.03935,-0.3 -3.03935,-0.66667 z m 10.78288,-0.8763 c -3.20542,-3.41201 -0.87516,-9.123696 3.72229,-9.123696 2.21621,0 4.1615,1.939136 4.1615,4.148336 0,0.99366 -0.59931,1.185 -3.71159,1.185 -3.54087,0 -3.69044,0.069 -3.25174,1.5 1.04199,3.39889 3.20446,4.1452 5.30036,1.82924 0.6657,-0.73558 1.36035,-1.18742 1.54368,-1.00408 0.18334,0.18333 -0.21132,0.93517 -0.87701,1.67075 -1.67727,1.85337 -5.04774,1.75278 -6.88749,-0.20555 z m 5.88379,-5.16752 c 0,-1.33407 -1.37852,-3.289509 -2.31899,-3.289509 -1.10904,0 -3.11147,2.636829 -2.61386,3.441979 0.50591,0.81858 4.93285,0.68175 4.93285,-0.15247 z m 32.66667,6.04382 c 0,-0.36666 0.45,-0.66666 1,-0.66666 0.76836,0 1,-0.85418 1,-3.68759 0,-2.66287 -0.27789,-3.79423 -1,-4.07133 -1.69372,-0.649936 -1.10536,-1.675102 0.83333,-1.452029 1.77525,0.204267 1.83958,0.353507 2.03046,4.710949 0.10842,2.475 0.48342,4.5 0.83334,4.5 0.34991,0 0.6362,0.3 0.6362,0.66666 0,0.36667 -1.2,0.66667 -2.66667,0.66667 -1.46666,0 -2.66666,-0.3 -2.66666,-0.66667 z m 6.68779,-1.60808 0.0211,-2.05858 1.36782,1.83333 c 1.53946,2.06339 3.32632,2.35591 4.64981,0.76119 0.75601,-0.91093 0.699,-1.21165 -0.37912,-2 -0.69792,-0.51032 -1.7651,-0.92786 -2.37152,-0.92786 -1.32404,0 -3.30924,-2.05114 -3.30924,-3.41916 0,-1.708469 1.5098,-2.580836 4.46666,-2.580836 2.68642,0 2.86574,0.115274 2.85184,1.833336 l -0.0148,1.83333 -1.20127,-1.56173 c -0.81005,-1.053109 -1.72797,-1.487349 -2.81851,-1.333336 -2.28512,0.32272 -2.00988,2.101476 0.44812,2.896016 2.8734,0.92883 4.26796,2.23552 4.26796,3.99905 0,2.19275 -1.42231,3.03262 -4.91214,2.90062 -2.98582,-0.11294 -3.08716,-0.18483 -3.06674,-2.17537 z m 17.31221,1.60808 c 0,-0.36666 0.45,-0.66666 1,-0.66666 0.76837,0 1,-0.85418 1,-3.68759 0,-2.66287 -0.27789,-3.79423 -1,-4.07133 -1.57707,-0.605176 -1.16666,-1.574416 0.66667,-1.574416 0.91666,0 1.66666,0.293567 1.66666,0.652374 0,0.40214 0.62044,0.369686 1.61751,-0.08461 0.88963,-0.405347 2.38963,-0.5432 3.33333,-0.30634 1.60532,0.402907 1.71583,0.688793 1.71583,4.438872 0,2.94786 0.26455,4.10973 1,4.39195 1.89284,0.72635 0.99508,1.57442 -1.66667,1.57442 -1.46666,0 -2.66666,-0.3 -2.66666,-0.66667 0,-0.36666 0.31431,-0.66666 0.69848,-0.66666 0.96125,0 0.52412,-8.154092 -0.45444,-8.476852 -1.57196,-0.518493 -2.91071,1.869112 -2.91071,5.191132 0,1.80714 0.3,3.28572 0.66667,3.28572 0.36666,0 0.66666,0.3 0.66666,0.66666 0,0.36667 -1.2,0.66667 -2.66666,0.66667 -1.46667,0 -2.66667,-0.3 -2.66667,-0.66667 z m 14.78287,-0.8763 c -3.20542,-3.41201 -0.87516,-9.123696 3.7223,-9.123696 2.2162,0 4.1615,1.939136 4.1615,4.148336 0,0.99366 -0.59932,1.185 -3.7116,1.185 -3.54086,0 -3.69044,0.069 -3.25174,1.5 1.042,3.39889 3.20446,4.1452 5.30037,1.82924 0.66569,-0.73558 1.36035,-1.18742 1.54368,-1.00408 0.18333,0.18333 -0.21132,0.93517 -0.87701,1.67075 -1.67728,1.85337 -5.04774,1.75278 -6.8875,-0.20555 z m 5.8838,-5.16752 c 0,-1.33407 -1.37852,-3.289509 -2.31899,-3.289509 -1.10904,0 -3.11147,2.636829 -2.61387,3.441979 0.50592,0.81858 4.93286,0.68175 4.93286,-0.15247 z m 6.09278,2.04382 c -0.82666,-2.56666 -1.78571,-4.666662 -2.13123,-4.666662 -0.34552,0 -0.62822,-0.3 -0.62822,-0.666667 0,-0.366667 1.05,-0.666667 2.33333,-0.666667 1.28334,0 2.33334,0.3 2.33334,0.666667 0,0.366667 -0.32022,0.666667 -0.7116,0.666667 -0.70746,0 -0.4849,1.188182 0.87413,4.666662 0.64163,1.64231 0.665,1.62778 1.59831,-0.99383 0.83479,-2.34486 0.82607,-2.74904 -0.0735,-3.40683 -1.58526,-1.159169 -1.22399,-1.599336 1.31267,-1.599336 2.10808,0 3.19152,0.88674 1.76486,1.444446 -0.31265,0.12222 -0.0641,1.71533 0.55243,3.54025 l 1.12089,3.31802 1.06974,-3.13952 c 0.62778,-1.84242 0.8127,-3.29838 0.44758,-3.52403 -1.27393,-0.787332 -0.5579,-1.639166 1.37783,-1.639166 1.1,0 2,0.3 2,0.666667 0,0.366667 -0.27377,0.666667 -0.60839,0.666667 -0.3346,0 -1.41083,2.100002 -2.39161,4.666662 -0.98078,2.56667 -2.03374,4.66667 -2.33991,4.66667 -0.30618,0 -0.9162,-1.125 -1.35559,-2.5 -1.20363,-3.76653 -1.69517,-3.86688 -2.62762,-0.53648 -0.46759,1.67007 -1.20212,3.03648 -1.6323,3.03648 -0.43017,0 -1.45849,-2.1 -2.28513,-4.66667 z m -49.29921,-9.833329 c 0.12358,-0.641667 0.66646,-1.166667 1.20642,-1.166667 0.53996,0 1.08285,0.525 1.20643,1.166667 0.15764,0.818567 -0.20232,1.166667 -1.20643,1.166667 -1.0041,0 -1.36406,-0.3481 -1.20642,-1.166667 z M 68.000001,63.333332 c 0,-8.888889 0.243387,-14 0.666667,-14 0.42328,0 0.666667,5.111111 0.666667,14 0,8.888886 -0.243387,13.999999 -0.666667,13.999999 -0.42328,0 -0.666667,-5.111113 -0.666667,-13.999999 z M 48.201842,39.868698 c -1.634104,-0.789514 -2.857656,-3.669525 -2.889575,-6.801514 l -0.02107,-2.067185 -1.6456,1.87051 c -0.90508,1.02878 -1.645599,2.328779 -1.645599,2.888888 0,1.500945 -1.632185,0.702676 -1.871446,-0.915287 -0.139539,-0.943613 0.550726,-1.961035 2.166667,-3.193573 1.517453,-1.157417 2.371445,-2.366318 2.371445,-3.356986 0,-1.937694 -1.085187,-2.662754 -2.378647,-1.589278 -0.542799,0.450484 -1.200175,0.605792 -1.460836,0.345132 -0.721174,-0.721174 2.659714,-3.072137 4.145487,-2.88264 0.750895,0.09577 1.464145,0.841372 1.678061,1.75418 l 0.372058,1.587613 2.084843,-1.754279 c 2.492911,-2.097646 3.559035,-2.223743 3.559035,-0.420946 0,0.833253 -0.444445,1.333333 -1.184996,1.333333 -0.651748,0 -1.888064,0.492447 -2.747368,1.094328 -1.427974,1.000192 -1.524704,1.414825 -1.124482,4.820094 0.449518,3.824692 1.831031,6.752244 3.186387,6.752244 0.421009,0 1.277027,-0.462951 1.902261,-1.028781 1.017682,-0.920989 1.177745,-0.922055 1.527668,-0.01017 0.757157,1.973119 -3.10817,2.983236 -6.024296,1.574316 z m 33.463906,-6.143457 c -0.972993,-1.660288 -1.57812,-3.327676 -1.344733,-3.705306 0.76576,-1.239027 2.116413,-0.720005 2.963307,1.138724 l 0.831673,1.825325 1.619613,-3.407694 c 1.723987,-3.627314 7.808634,-10.242957 9.420814,-10.242957 0.531273,0 -0.430887,1.35757 -2.138134,3.016823 -1.927453,1.873267 -3.864193,4.716215 -5.10934,7.5 -3.57104,7.983824 -3.764826,8.104107 -6.2432,3.875085 z m 19.063262,1.72457 c -0.49707,-0.928787 -0.43199,-2.304255 0.22973,-4.855244 1.1737,-4.524734 3.53271,-6.586571 7.54126,-6.591256 1.55834,-0.0018 2.83009,0.07169 2.82612,0.163355 -0.004,0.09167 -0.45397,1.639346 -1,3.439287 -1.42586,4.700215 -1.34104,5.960672 0.34055,5.060713 2.35059,-1.257997 1.48653,0.514498 -1.11137,2.279815 -2.49586,1.695986 -3.5553,1.706909 -3.5553,0.03666 0,-0.726404 -0.51661,-0.633361 -2.28872,0.412207 -2.26009,1.333488 -2.2974,1.33417 -2.98227,0.05447 z m 4.61899,-2.79099 c 0.69318,-0.370981 1.57178,-1.795981 1.95245,-3.166666 0.94309,-3.395852 0.91865,-3.492156 -0.88623,-3.492156 -1.61446,0 -2.51044,1.422805 -3.46353,5.5 -0.46445,1.986854 0.22625,2.320732 2.39731,1.158822 z M 26,35.333332 c 0,-0.380952 2.000001,-0.666666 4.666667,-0.666666 h 4.666667 v -3.304127 -3.304127 l -4.833333,-0.230075 -4.833334,-0.230075 4.833334,-0.132465 4.833333,-0.132464 V 23.999999 20.666666 H 30.666667 C 28.000001,20.666666 26,20.380952 26,20 c 0,-0.388889 2.222223,-0.666667 5.333334,-0.666667 h 5.333333 v 8.333333 8.333333 H 31.333334 C 28.222223,35.999999 26,35.722221 26,35.333332 Z m 30.666668,0 c 0,-0.366666 0.75,-0.666666 1.666666,-0.666666 2.335342,0 2.050846,-1.474757 -0.514428,-2.666667 -4.05912,-1.885998 -2.982264,-6.524162 1.952265,-8.408676 2.775234,-1.059872 3.983818,-2.924657 1.895497,-2.924657 -0.55,0 -1,-0.3 -1,-0.666666 0,-0.370371 1.777778,-0.666667 4,-0.666667 2.22222,0 4,0.296296 4,0.666667 0,0.366666 -0.75,0.666666 -1.666667,0.666666 -1.94104,0 -2.310316,1.813584 -0.5,2.455589 2.026714,0.718749 3.5,2.365079 3.5,3.911096 0,1.865649 -2.524993,4.354422 -5.399826,5.32237 -2.529943,0.851824 -3.364898,2.310945 -1.322396,2.310945 0.763889,0 1.388889,0.3 1.388889,0.666666 0,0.370371 -1.777778,0.666667 -4,0.666667 -2.222222,0 -4,-0.296296 -4,-0.666667 z m 4.619966,-7.051724 c 0.457677,-2.045115 0.68111,-3.869421 0.496518,-4.054013 -0.708522,-0.708522 -2.971289,1.14573 -3.779645,3.097274 -0.735352,1.775296 -0.69019,2.21469 0.345225,3.358811 0.655189,0.723975 1.397017,1.316319 1.648508,1.316319 0.25149,0 0.831718,-1.673276 1.289394,-3.718391 z m 5.138075,1.339166 c 1.280672,-1.954549 0.952466,-5.204549 -0.554431,-5.490176 -0.838159,-0.15887 -1.321556,0.527887 -1.873014,2.660967 -0.408809,1.581305 -0.88776,3.375238 -1.064332,3.986517 -0.479907,1.661388 2.23434,0.761783 3.491777,-1.157308 z"
       id="path564" />
  </g>
</svg>
