<?xml version="1.0" encoding="UTF-8" standalone="no"?>
<svg
   xmlns:dc="http://purl.org/dc/elements/1.1/"
   xmlns:cc="http://creativecommons.org/ns#"
   xmlns:rdf="http://www.w3.org/1999/02/22-rdf-syntax-ns#"
   xmlns:svg="http://www.w3.org/2000/svg"
   xmlns="http://www.w3.org/2000/svg"
   xmlns:sodipodi="http://sodipodi.sourceforge.net/DTD/sodipodi-0.dtd"
   xmlns:inkscape="http://www.inkscape.org/namespaces/inkscape"
   version="1.1"
   id="svg634"
   width="271.93811"
   height="111.28439"
   viewBox="0 0 271.93811 111.28439"
   sodipodi:docname="10-3-2.svg"
   inkscape:version="1.0.1 (c497b03c, 2020-09-10)">
  <metadata
     id="metadata640">
    <rdf:RDF>
      <cc:Work
         rdf:about="">
        <dc:format>image/svg+xml</dc:format>
        <dc:type
           rdf:resource="http://purl.org/dc/dcmitype/StillImage" />
        <dc:title></dc:title>
      </cc:Work>
    </rdf:RDF>
  </metadata>
  <defs
     id="defs638" />
  <sodipodi:namedview
     pagecolor="#ffffff"
     bordercolor="#666666"
     borderopacity="1"
     objecttolerance="10"
     gridtolerance="10"
     guidetolerance="10"
     inkscape:pageopacity="0"
     inkscape:pageshadow="2"
     inkscape:window-width="746"
     inkscape:window-height="480"
     id="namedview636"
     showgrid="false"
     fit-margin-top="0"
     fit-margin-left="0"
     fit-margin-right="0"
     fit-margin-bottom="0"
     inkscape:pagecheckerboard="true"
     inkscape:zoom="0.80109392"
     inkscape:cx="143.88576"
     inkscape:cy="20.020724"
     inkscape:window-x="0"
     inkscape:window-y="25"
     inkscape:window-maximized="0"
     inkscape:current-layer="g642" />
  <g
     inkscape:groupmode="layer"
     inkscape:label="Image"
     id="g642"
     transform="translate(-10.728546,-17.980027)">
    <path
       style="fill:#1c1c1c;stroke-width:0.666667"
       d="m 12.30303,127.69696 c -1.892572,-1.89256 -2.065439,-2.90749 -0.591552,-3.47308 1.50468,-0.5774 2.710534,0.79767 1.732718,1.97587 C 12.508727,127.32692 13.082103,128 14.977778,128 16.969327,128 18,126.74955 18,124.33333 c 0,-2.38846 -1.021595,-3.65809 -2.966667,-3.68694 -1.357706,-0.0201 -1.357924,-0.0251 -0.03333,-0.74955 2.908739,-1.59096 3.708384,-3.75989 2.011727,-5.45654 -1.542278,-1.54228 -3.541277,-0.69024 -3.152468,1.34368 0.257694,1.34804 0.08294,1.63568 -0.880291,1.44898 -1.770819,-0.34326 -1.913713,-1.63155 -0.353968,-3.1913 1.492127,-1.49212 4.041113,-1.779 6.085494,-0.68488 1.606504,0.85978 1.722237,4.11525 0.2004,5.63708 -1.007697,1.0077 -0.982781,1.16358 0.333333,2.08542 2.109285,1.47741 1.933716,5.08844 -0.334133,6.87233 -2.330171,1.83291 -4.607269,1.74515 -6.607064,-0.25465 z m 11.488637,0.53915 C 22.84799,127.29243 23.381979,126 24.715549,126 c 0.931975,0 1.312004,0.36203 1.166667,1.11142 -0.237962,1.22698 -1.376001,1.83924 -2.090549,1.12469 z M 132.33333,128 c 0.22662,-0.36667 0.83276,-0.66667 1.34698,-0.66667 0.52005,0 1.22431,-1.10945 1.58696,-2.5 C 136.90408,118.55723 138,114.10724 138,113.7371 c 0,-0.22208 -0.46771,-0.40377 -1.03935,-0.40377 -0.57164,0 -0.85393,-0.3 -0.62732,-0.66667 0.62662,-1.01389 12.30792,-0.86017 12.66484,0.16667 0.15931,0.45833 0.0306,1.88333 -0.28602,3.16667 -0.48036,1.94704 -0.58696,2.0519 -0.64391,0.63333 -0.0979,-2.43857 -1.27351,-3.3 -4.50357,-3.3 -2.70851,0 -2.86638,0.11182 -3.52962,2.5 -0.38185,1.375 -0.69596,2.875 -0.698,3.33333 -0.006,1.40916 3.10114,0.92335 4.26421,-0.66666 1.08063,-1.47732 1.09063,-1.46471 0.66149,0.83333 -0.23964,1.28333 -0.67779,2.93333 -0.97364,3.66667 -0.51039,1.26508 -0.54009,1.25654 -0.58018,-0.16667 -0.034,-1.20737 -0.42632,-1.5 -2.01093,-1.5 -1.70703,0 -2.06093,0.33225 -2.66295,2.5 -0.90234,3.24919 -0.88378,3.5 0.25894,3.5 0.52836,0 1.14606,0.3 1.37268,0.66667 0.25753,0.41669 -1.1173,0.66666 -3.66667,0.66666 -2.54937,0 -3.9242,-0.24997 -3.66667,-0.66666 z m 18.31975,-1.03574 c -0.47899,-1.25984 -0.27173,-3.19968 0.79729,-7.46196 1.04548,-4.16846 1.22884,-5.83146 0.66375,-6.01982 C 150.55005,112.96112 151.38674,112 153.40466,112 c 1.52153,0 1.97429,0.25286 1.70575,0.95266 -0.20106,0.52396 -0.55969,1.98742 -0.79695,3.25215 -0.40554,2.16171 -0.33429,2.28094 1.18902,1.98974 3.34294,-0.63905 4.86262,3.20978 2.82395,7.15213 -1.89144,3.65763 -6.52625,4.63468 -7.67335,1.61758 z m 5.27812,-1.27796 c 1.1721,-2.44552 1.33489,-6.45463 0.27713,-6.82544 -2.05533,-0.72052 -5.23926,6.26505 -3.8673,8.48492 0.76904,1.24433 2.60519,0.39561 3.59017,-1.65948 z m 96.73547,2.35249 c 0,-0.34533 1.5,-2.34201 3.33333,-4.43706 2.48567,-2.84051 3.33333,-4.34227 3.33333,-5.90546 0,-2.47019 -1.0263,-3.69627 -3.09398,-3.69627 -1.86442,0 -2.60154,1.09364 -1.57268,2.33333 0.906,1.09167 0.35292,2.33333 -1.03935,2.33333 -0.61883,0 -0.96065,-0.69818 -0.96065,-1.9622 0,-3.78153 5.14534,-5.40978 7.88379,-2.49483 2.37715,2.53036 1.87958,4.74881 -1.9805,8.83027 l -3.43003,3.62676 h 2.66149 c 2.10127,0 2.81377,-0.31573 3.38492,-1.5 l 0.72342,-1.5 0.0451,1.44548 c 0.0972,3.11421 -0.52541,3.55452 -5.02622,3.55452 -2.3441,0 -4.262,-0.28254 -4.262,-0.62787 z M 272,128 c 0,-0.38096 2,-0.66667 4.66667,-0.66667 h 4.66666 v -3.30413 -3.30412 L 276.5,120.495 271.66667,120.26492 276.5,120.13246 281.33333,120 v -3.33334 -3.33333 h -4.66666 C 274,113.33333 272,113.04762 272,112.66666 272,112.27778 274.22222,112 277.33333,112 h 5.33334 v 8.33333 8.33333 h -5.33334 C 274.22222,128.66666 272,128.38888 272,128 Z m -143.33333,-4 v -2.66667 h -6 c -3.55556,0 -6,-0.27161 -6,-0.66667 0,-0.4 2.66666,-0.66666 6.66666,-0.66666 H 130 v 3.33333 c 0,1.83333 -0.3,3.33333 -0.66667,3.33333 -0.36666,0 -0.66666,-1.2 -0.66666,-2.66666 z m 8.66666,-36.666669 c 0,-10.222219 0.24074,-15.999999 0.66667,-15.999999 0.42593,0 0.66667,5.77778 0.66667,15.999999 0,10.22222 -0.24074,15.999999 -0.66667,15.999999 -0.42593,0 -0.66667,-5.777779 -0.66667,-15.999999 z m 30.33242,-26.274758 c -0.973,-1.660287 -1.57812,-3.327675 -1.34474,-3.705306 0.76576,-1.239026 2.11642,-0.720004 2.96331,1.138724 l 0.83167,1.825326 1.61962,-3.407694 c 1.72398,-3.627314 7.80863,-10.242957 9.42081,-10.242957 0.53127,0 -0.43089,1.35757 -2.13813,3.016823 -1.92746,1.873267 -3.8642,4.716214 -5.10934,7.5 -3.57104,7.983824 -3.76483,8.104107 -6.2432,3.875084 z M 11.333333,62.705459 c 0,-0.345329 1.5,-2.342006 3.333334,-4.437059 C 17.152335,55.427887 18,53.926131 18,52.362939 c 0,-2.470194 -1.026297,-3.696273 -3.093989,-3.696273 -1.864414,0 -2.601532,1.093639 -1.572678,2.333333 0.906006,1.091669 0.352927,2.333333 -1.039344,2.333333 -0.618838,0 -0.960656,-0.698183 -0.960656,-1.962197 0,-3.781536 5.145338,-5.409785 7.883791,-2.494835 2.377148,2.530358 1.879584,4.748807 -1.980495,8.830273 l -3.430038,3.626759 h 2.661494 c 2.101278,0 2.813769,-0.315735 3.384918,-1.5 l 0.723423,-1.5 0.04512,1.445475 c 0.09721,3.114214 -0.525403,3.554525 -5.026205,3.554525 -2.344104,0 -4.262008,-0.282543 -4.262008,-0.627873 z m 12.458334,0.197318 c -0.943677,-0.943678 -0.409688,-2.236112 0.923882,-2.236112 0.931975,0 1.312004,0.362034 1.166667,1.111423 -0.237962,1.226986 -1.376001,1.839237 -2.090549,1.124689 z m 58.875,-0.236112 c 0,-0.380952 2,-0.666666 4.666666,-0.666666 H 92 V 58.695872 55.391745 L 87.166667,55.16167 82.333333,54.931595 87.166667,54.79913 92,54.666665 v -3.333333 -3.333333 h -4.666667 c -2.666666,0 -4.666666,-0.285714 -4.666666,-0.666667 0,-0.388888 2.22222,-0.666666 5.333333,-0.666666 h 5.333333 v 8.333333 8.333333 H 88 c -3.111113,0 -5.333333,-0.277778 -5.333333,-0.666667 z m 12.666666,-0.72549 c 0,-0.70098 0.45,-1.27451 1,-1.27451 0.55,0 1,0.475 1,1.055556 0,1.781994 1.527367,0.661919 2.403354,-1.762468 1.024843,-2.83639 1.148003,-5.746319 0.266263,-6.291268 -0.36505,-0.225612 -1.41505,0.40049 -2.333337,1.391337 -1.848426,1.99448 -2.255693,1.40693 -0.631813,-0.911486 1.077347,-1.538129 3.88937,-2.011529 4.64887,-0.782632 0.29744,0.481255 0.71366,0.465311 1.33599,-0.05117 C 104.44955,52.130313 107,52.783615 107,54.333332 c 0,0.740741 -0.44445,1.333333 -1,1.333333 -0.55,0 -0.96229,-0.501276 -0.91619,-1.113946 0.16694,-2.218979 -1.7434,-0.386955 -2.44958,2.349162 -0.39248,1.520631 -0.86642,3.291262 -1.05321,3.934735 -0.6298,2.169572 1.81299,2.24513 3.52227,0.108948 1.70572,-2.131734 2.16864,-1.439711 0.56678,0.847273 -0.85623,1.22243 -1.65442,1.422848 -5.66667,1.422848 -4.153773,0 -4.670067,-0.140902 -4.670067,-1.27451 z M 125,62.666665 c 0.22661,-0.366666 0.83275,-0.666666 1.34698,-0.666666 0.52005,0 1.22431,-1.109453 1.58696,-2.5 1.63681,-6.276102 2.73273,-10.726094 2.73273,-11.09623 0,-0.222073 -0.46771,-0.40377 -1.03935,-0.40377 -0.57164,0 -0.85393,-0.3 -0.62732,-0.666667 0.62662,-1.013894 12.30792,-0.86017 12.66483,0.166667 0.15932,0.458333 0.0306,1.883333 -0.28601,3.166667 -0.48037,1.947048 -0.58697,2.051897 -0.64391,0.633333 -0.0979,-2.438565 -1.27351,-3.3 -4.50358,-3.3 -2.7085,0 -2.86638,0.111823 -3.52961,2.5 -0.38185,1.375 -0.69596,2.875 -0.698,3.333333 -0.006,1.409161 3.10114,0.923345 4.26421,-0.666667 1.08062,-1.477313 1.09063,-1.464709 0.66149,0.833334 -0.23965,1.283333 -0.67779,2.933333 -0.97365,3.666666 -0.51038,1.265079 -0.54008,1.256547 -0.58018,-0.166666 -0.034,-1.207377 -0.42631,-1.5 -2.01092,-1.5 -1.70703,0 -2.06094,0.33225 -2.66295,2.5 -0.90234,3.249184 -0.88379,3.5 0.25893,3.5 0.52836,0 1.14607,0.3 1.37268,0.666666 0.25754,0.416697 -1.1173,0.666667 -3.66666,0.666667 -2.54937,0 -3.9242,-0.24997 -3.66667,-0.666667 z m 18.33333,-0.72549 c 0,-0.70098 0.45,-1.27451 1,-1.27451 0.55,0 1,0.475 1,1.055556 0,1.781994 1.52737,0.661919 2.40336,-1.762468 1.02484,-2.83639 1.148,-5.746319 0.26626,-6.291268 -0.36505,-0.225612 -1.41505,0.40049 -2.33334,1.391337 -1.84842,1.99448 -2.25569,1.40693 -0.63181,-0.911486 1.07735,-1.538129 3.88937,-2.011529 4.64887,-0.782632 0.29744,0.481255 0.71366,0.465311 1.33599,-0.05117 C 152.44955,52.130313 155,52.783615 155,54.333332 c 0,0.740741 -0.44445,1.333333 -1,1.333333 -0.55,0 -0.96229,-0.501276 -0.91619,-1.113946 0.16694,-2.218979 -1.7434,-0.386955 -2.44958,2.349162 -0.39248,1.520631 -0.86642,3.291262 -1.05321,3.934735 -0.6298,2.169572 1.81299,2.24513 3.52227,0.108948 1.70572,-2.131734 2.16864,-1.439711 0.56678,0.847273 -0.85623,1.22243 -1.65442,1.422848 -5.66667,1.422848 -4.15377,0 -4.67007,-0.140902 -4.67007,-1.27451 z m 41.31975,-0.310248 c -0.47899,-1.259843 -0.27173,-3.19968 0.79729,-7.461961 1.04548,-4.168456 1.22884,-5.831453 0.66375,-6.019816 -1.56407,-0.521356 -0.72738,-1.482484 1.29054,-1.482484 1.52153,0 1.97429,0.252863 1.70575,0.952657 -0.20106,0.523962 -0.55969,1.987433 -0.79695,3.252157 -0.40554,2.161703 -0.33429,2.280937 1.18902,1.989739 3.34294,-0.639044 4.86262,3.209781 2.82395,7.152124 -1.89144,3.657636 -6.52625,4.634681 -7.67335,1.617584 z m 5.27812,-1.277962 c 1.1721,-2.445512 1.33489,-6.454626 0.27713,-6.825436 -2.05533,-0.720526 -5.23926,6.265052 -3.8673,8.484916 0.76904,1.244334 2.60519,0.395612 3.59017,-1.65948 z m -68.59787,-1.6863 v -2.666666 h -6 c -3.55555,0 -6,-0.271605 -6,-0.666667 0,-0.4 2.66667,-0.666667 6.66667,-0.666667 h 6.66667 v 3.333334 c 0,1.833333 -0.3,3.333333 -0.66667,3.333333 -0.36667,0 -0.66667,-1.2 -0.66667,-2.666667 z M 11.333333,34.316832 c 0,-0.192409 0.75,-0.634983 1.666667,-0.983499 1.608208,-0.61144 1.666667,-0.845141 1.666667,-6.662868 V 20.641264 L 13,21.05957 c -0.938683,0.235595 -1.666667,0.129492 -1.666667,-0.242914 0,-0.363671 0.675,-0.807614 1.5,-0.986541 0.825,-0.178926 2.025,-0.545996 2.666667,-0.815711 1.070519,-0.449976 1.166667,0.119842 1.166667,6.914269 0,6.960215 0.08003,7.40466 1.333333,7.40466 0.733333,0 1.333333,0.3 1.333333,0.666666 0,0.370371 -1.777778,0.666667 -4,0.666667 -2.2,0 -4,-0.157425 -4,-0.349834 z m 12.458334,-0.08072 C 22.84799,33.292434 23.381979,32 24.715549,32 c 0.931975,0 1.312004,0.362034 1.166667,1.111423 -0.237962,1.226986 -1.376001,1.839237 -2.090549,1.124689 z M 123,33.999999 c 0.22661,-0.366666 0.83275,-0.666666 1.34698,-0.666666 0.52005,0 1.22431,-1.109453 1.58696,-2.5 1.63681,-6.276102 2.73273,-10.726094 2.73273,-11.09623 0,-0.222073 -0.46771,-0.40377 -1.03935,-0.40377 -0.57164,0 -0.85393,-0.3 -0.62732,-0.666667 0.62662,-1.013894 12.30792,-0.86017 12.66483,0.166667 0.15932,0.458333 0.0306,1.883333 -0.28601,3.166667 -0.48037,1.947048 -0.58697,2.051897 -0.64391,0.633333 -0.0979,-2.438565 -1.27351,-3.3 -4.50358,-3.3 -2.7085,0 -2.86638,0.111823 -3.52961,2.5 -0.38185,1.375 -0.69596,2.875 -0.698,3.333333 -0.006,1.409161 3.10114,0.923345 4.26421,-0.666667 1.08062,-1.477313 1.09063,-1.464709 0.66149,0.833334 -0.23965,1.283333 -0.67779,2.933333 -0.97365,3.666666 -0.51038,1.265079 -0.54008,1.256547 -0.58018,-0.166666 -0.034,-1.207377 -0.42631,-1.5 -2.01092,-1.5 -1.70703,0 -2.06094,0.33225 -2.66295,2.5 -0.90234,3.249184 -0.88379,3.5 0.25893,3.5 0.52836,0 1.14607,0.3 1.37268,0.666666 0.25754,0.416697 -1.1173,0.666667 -3.66666,0.666667 -2.54937,0 -3.9242,-0.24997 -3.66667,-0.666667 z m 18.9011,-0.950838 c -0.97379,-2.137238 -0.29267,-4.589883 1.98149,-7.135104 1.70142,-1.90423 2.08568,-2.036614 4.65267,-1.602926 1.53894,0.260003 2.79451,0.671363 2.79016,0.914134 -0.004,0.24277 -0.45079,2.091401 -0.99209,4.108068 -1.17716,4.385684 -1.19624,4.666666 -0.31683,4.666666 0.37574,0 1.0115,-0.825 1.4128,-1.833333 0.40129,-1.008333 0.86333,-1.474965 1.02673,-1.036959 0.86204,2.310643 -2.51386,4.545796 -4.24745,2.812204 -0.5219,-0.521895 -0.85013,-0.521895 -1.17268,0 -0.24636,0.398615 -1.33665,0.724755 -2.42287,0.724755 -1.44366,0 -2.17321,-0.435133 -2.71193,-1.617505 z m 4.99216,-0.264552 c 1.41486,-1.563402 2.22904,-7.090989 1.1433,-7.762015 -1.18173,-0.730345 -3.28837,1.532187 -4.04585,4.345217 -1.11072,4.124944 0.52215,6.047118 2.90255,3.416798 z"
       id="path646" />
  </g>
</svg>
