<?xml version="1.0" encoding="UTF-8" standalone="no"?>
<svg
   xmlns:dc="http://purl.org/dc/elements/1.1/"
   xmlns:cc="http://creativecommons.org/ns#"
   xmlns:rdf="http://www.w3.org/1999/02/22-rdf-syntax-ns#"
   xmlns:svg="http://www.w3.org/2000/svg"
   xmlns="http://www.w3.org/2000/svg"
   xmlns:sodipodi="http://sodipodi.sourceforge.net/DTD/sodipodi-0.dtd"
   xmlns:inkscape="http://www.inkscape.org/namespaces/inkscape"
   version="1.1"
   id="svg716"
   width="254.045"
   height="101.99761"
   viewBox="0 0 254.045 101.99761"
   sodipodi:docname="10-4-1.svg"
   inkscape:version="1.0.1 (c497b03c, 2020-09-10)">
  <metadata
     id="metadata722">
    <rdf:RDF>
      <cc:Work
         rdf:about="">
        <dc:format>image/svg+xml</dc:format>
        <dc:type
           rdf:resource="http://purl.org/dc/dcmitype/StillImage" />
        <dc:title></dc:title>
      </cc:Work>
    </rdf:RDF>
  </metadata>
  <defs
     id="defs720" />
  <sodipodi:namedview
     pagecolor="#ffffff"
     bordercolor="#666666"
     borderopacity="1"
     objecttolerance="10"
     gridtolerance="10"
     guidetolerance="10"
     inkscape:pageopacity="0"
     inkscape:pageshadow="2"
     inkscape:window-width="746"
     inkscape:window-height="480"
     id="namedview718"
     showgrid="false"
     fit-margin-top="0"
     fit-margin-left="0"
     fit-margin-right="0"
     fit-margin-bottom="0"
     inkscape:pagecheckerboard="true"
     inkscape:zoom="0.71839105"
     inkscape:cx="328.81216"
     inkscape:cy="31.371291"
     inkscape:window-x="0"
     inkscape:window-y="25"
     inkscape:window-maximized="0"
     inkscape:current-layer="g724" />
  <g
     inkscape:groupmode="layer"
     inkscape:label="Image"
     id="g724"
     transform="translate(-21.99419,-11.33572)">
    <path
       style="fill:#262626;stroke-width:0.666667"
       d="m 40.666668,96.333333 v -17 H 82.333335 124 v 17 16.999997 H 82.333335 40.666668 Z m 82.000002,0 V 80.666667 H 82.333335 42.000001 V 96.333333 112 H 82.333335 122.66667 Z M 58.201842,103.8687 c -1.634103,-0.78951 -2.857655,-3.66953 -2.889575,-6.801513 L 55.291201,95 l -1.6456,1.870507 c -0.90508,1.02878 -1.6456,2.32878 -1.6456,2.888893 0,1.50094 -1.632185,0.70267 -1.871445,-0.915287 -0.13954,-0.943613 0.550726,-1.96104 2.166667,-3.193573 1.517452,-1.15742 2.371445,-2.36632 2.371445,-3.356987 0,-1.937693 -1.085187,-2.662753 -2.378647,-1.58928 -0.542799,0.450487 -1.200176,0.605794 -1.460837,0.345134 -0.721174,-0.721174 2.659715,-3.07214 4.145488,-2.88264 0.750895,0.09577 1.464144,0.841373 1.678061,1.75418 l 0.372058,1.587613 2.084842,-1.75428 c 2.492911,-2.097647 3.559035,-2.22374 3.559035,-0.420947 0,0.833254 -0.444445,1.333334 -1.184996,1.333334 -0.651747,0 -1.888063,0.492446 -2.747368,1.094326 -1.427973,1.000194 -1.524703,1.414827 -1.124481,4.820094 0.449518,3.824693 1.83103,6.752243 3.186386,6.752243 0.42101,0 1.277027,-0.46295 1.902262,-1.02878 1.017682,-0.92099 1.177744,-0.92205 1.527668,-0.0102 0.757156,1.97312 -3.108171,2.98324 -6.024297,1.57432 z m 26.464827,-3.55882 c 0,-0.19623 0.4845,-1.096233 1.076673,-2 l 1.076673,-1.643213 h -7.076673 c -4.27334,0 -7.076674,-0.264094 -7.076674,-0.666667 0,-0.40854 3.195014,-0.666667 8.251707,-0.666667 6.092954,0 8.4461,-0.23424 8.994787,-0.895366 1.293227,-1.55824 -2.11594,-2.42798 -10.111194,-2.579554 l -7.468633,-0.141586 7.166667,-0.2143 c 3.941667,-0.117867 7.166667,-0.364707 7.166667,-0.54854 0,-0.183827 -0.4845,-1.073674 -1.076674,-1.97744 -1.494406,-2.28076 0.01227,-2.07428 1.650327,0.226166 0.732113,1.028154 2.40254,2.446374 3.712067,3.1516 1.30952,0.705227 2.380946,1.45844 2.380946,1.673814 0,0.215373 -1.030586,0.88304 -2.290193,1.483706 -1.2596,0.60066 -2.96602,2.006227 -3.792033,3.123474 -1.349707,1.825573 -2.58444,2.625613 -2.58444,1.674573 z m 20.062341,-0.860067 c -0.49707,-0.928786 -0.43199,-2.30426 0.22973,-4.855246 1.1737,-4.524734 3.53271,-6.586574 7.54126,-6.591254 1.55834,-0.002 2.83009,0.07169 2.82612,0.163354 -0.004,0.09167 -0.45397,1.639346 -1,3.439286 -1.42586,4.700214 -1.34104,5.960674 0.34055,5.060714 2.35059,-1.258 1.48653,0.5145 -1.11137,2.279813 -2.49586,1.69599 -3.5553,1.70691 -3.5553,0.03667 0,-0.726407 -0.51661,-0.63336 -2.28872,0.412206 -2.26009,1.333484 -2.2974,1.334164 -2.98227,0.05447 z M 109.348,96.65882 c 0.69318,-0.37098 1.57178,-1.79598 1.95245,-3.166667 C 112.24354,90.096307 112.2191,90 110.41422,90 c -1.61632,0 -2.47926,1.407207 -3.37273,5.5 -0.43052,1.972127 0.19737,2.287593 2.30651,1.15882 z m 132.72541,10.42963 c -0.57331,-0.6908 -0.52673,-1.10224 0.19236,-1.69904 1.05096,-0.87221 2.12445,0.10653 1.4009,1.27726 -0.22661,0.36666 -0.11132,0.66666 0.25619,0.66666 0.92561,0 2.74381,-2.7198 2.74381,-4.10439 0,-1.59377 -3.38132,-9.22894 -4.08714,-9.22894 -0.31874,0 -0.57952,-0.3 -0.57952,-0.666667 0,-0.366666 1.05,-0.666666 2.33333,-0.666666 2.11083,0 3.19382,0.889566 1.75851,1.444446 -0.31616,0.12222 0.0179,1.57222 0.74224,3.22222 l 1.31706,2.999997 1.17768,-2.666663 c 0.68858,-1.55922 0.93406,-2.929687 0.59109,-3.3 -1.06723,-1.1523 -0.61187,-1.7 1.41342,-1.7 2.19396,0 2.49971,0.459793 1.0594,1.593173 -0.51733,0.407087 -1.91171,3.14016 -3.09863,6.07349 -1.18691,2.93334 -2.61013,5.85834 -3.16272,6.5 -1.20284,1.39675 -3.01591,1.51074 -4.05798,0.25512 z m 22.6556,-4.3053 c -0.49707,-0.92879 -0.43199,-2.30426 0.22973,-4.85525 1.1737,-4.524733 3.53271,-6.586573 7.54127,-6.591253 1.55833,-0.002 2.83008,0.07169 2.82612,0.163353 -0.004,0.09167 -0.45398,1.639347 -1,3.439287 -1.42586,4.700213 -1.34104,5.960673 0.34054,5.060713 2.35059,-1.258 1.48654,0.5145 -1.11136,2.27981 -2.49587,1.69599 -3.5553,1.70692 -3.5553,0.0367 0,-0.72641 -0.51662,-0.63336 -2.28872,0.41221 -2.2601,1.33348 -2.2974,1.33416 -2.98228,0.0545 z m 4.61899,-2.790997 c 0.69318,-0.37098 1.57179,-1.79598 1.95245,-3.166666 0.9431,-3.395847 0.91866,-3.492154 -0.88623,-3.492154 -1.61632,0 -2.47925,1.407207 -3.37273,5.5 -0.43052,1.972127 0.19738,2.287597 2.30651,1.15882 z M 23.333334,102.66667 c 0,-0.36667 0.75,-0.66667 1.666667,-0.66667 2.335342,0 2.050845,-1.47476 -0.514428,-2.666667 -4.059121,-1.886 -2.982265,-6.52416 1.952264,-8.40868 C 29.213071,89.864787 30.421655,88 28.333334,88 c -0.55,0 -1,-0.3 -1,-0.666667 0,-0.370373 1.777778,-0.666666 4,-0.666666 2.222222,0 4,0.296293 4,0.666666 0,0.366667 -0.75,0.666667 -1.666667,0.666667 -1.94104,0 -2.310316,1.813587 -0.5,2.455587 2.026716,0.718753 3.500001,2.36508 3.500001,3.9111 0,1.865646 -2.524993,4.35442 -5.399827,5.322366 C 28.736899,100.54088 27.901943,102 29.944445,102 c 0.763889,0 1.388889,0.3 1.388889,0.66667 0,0.37037 -1.777778,0.66666 -4,0.66666 -2.222222,0 -4,-0.29629 -4,-0.66666 z m 4.619967,-7.05173 c 0.457676,-2.045113 0.681109,-3.86942 0.496517,-4.054013 -0.748164,-0.74816 -3.022875,1.211373 -3.716725,3.201753 -0.612072,1.755793 -0.548507,2.3363 0.366536,3.347407 0.608862,0.672786 1.312786,1.223246 1.564277,1.223246 0.25149,0 0.831718,-1.673273 1.289395,-3.718393 z m 5.138074,1.339167 C 34.372045,94.99956 34.04384,91.74956 32.536944,91.463933 31.698785,91.30506 31.215388,91.99182 30.66393,94.1249 c -0.408809,1.581307 -0.887759,3.37524 -1.064332,3.986513 -0.479907,1.661394 2.23434,0.761787 3.491777,-1.157306 z M 182,102.66667 C 182,102.3 182.45,102 183,102 c 0.77778,0 1,-0.88889 1,-4 0,-3.111113 -0.22222,-4 -1,-4 -0.55,0 -1,-0.3 -1,-0.666667 0,-0.366666 0.45,-0.666666 1,-0.666666 0.69151,0 1,-0.694634 1,-2.251707 0,-2.708787 1.2653,-3.919633 3.79302,-3.6298 1.94258,0.222747 2.72837,2.21484 0.87365,2.21484 -0.55,0 -0.925,-0.375 -0.83333,-0.833333 0.17952,-0.897607 -0.89732,-1.157287 -1.38226,-0.333334 -0.16186,0.275 -0.5034,1.475 -0.75898,2.666667 -0.40384,1.88286 -0.28827,2.166667 0.88226,2.166667 0.74082,0 1.53236,0.3 1.75898,0.666666 C 188.55995,93.7 188.12766,94 187.37268,94 186.13941,94 186,94.406227 186,98 c 0,3.11111 0.22222,4 1,4 0.55,0 1,0.3 1,0.66667 0,0.36666 -1.35,0.66666 -3,0.66666 -1.65,0 -3,-0.3 -3,-0.66666 z m 8.78288,-0.8763 c -3.10996,-3.310403 -0.79759,-9.123703 3.62914,-9.123703 4.74366,0 7.17077,5.141333 4.20626,8.910093 -1.84558,2.34629 -5.73231,2.45224 -7.8354,0.21361 z m 5.26095,0.18618 c 0.99792,-0.53408 1.28951,-1.40842 1.28951,-3.86667 0,-3.341427 -0.82991,-4.776547 -2.7622,-4.776547 -1.50668,0 -3.2378,2.495087 -3.2378,4.666667 0,1.845213 1.66161,4.66667 2.7483,4.66667 0.36998,0 1.25296,-0.31056 1.96219,-0.69012 z m 4.62284,0.69012 c 0,-0.36667 0.3,-0.66667 0.66667,-0.66667 0.37037,0 0.66666,-1.77778 0.66666,-4 0,-2.22222 -0.29629,-4 -0.66666,-4 -0.36667,0 -0.66667,-0.3 -0.66667,-0.666667 0,-0.366666 0.75,-0.666666 1.66667,-0.666666 0.91666,0 1.66666,0.30254 1.66666,0.672313 0,0.41442 0.47759,0.37406 1.24502,-0.105213 1.50164,-0.93778 3.42165,-0.332514 3.42165,1.078646 0,1.222594 -1.75978,1.373027 -2.19445,0.187587 -0.60468,-1.649133 -1.83726,0.570607 -2.24946,4.051053 C 203.88268,101.42253 203.99068,102 204.8678,102 c 0.57943,0 1.23892,0.3 1.46554,0.66667 0.25166,0.4072 -0.77086,0.66666 -2.62732,0.66666 -1.67164,0 -3.03935,-0.3 -3.03935,-0.66666 z M 218.8,102.53333 c -1.97585,-1.97585 -0.11566,-4.540357 4.03334,-5.560457 1.95411,-0.480446 2.33787,-1.535 1.03333,-2.83954 -1.3597,-1.359706 -3.20407,-0.97778 -3.02547,0.626514 0.19013,1.70784 -1.3347,2.467113 -1.91543,0.953766 -0.61778,-1.609906 0.97911,-3.046946 3.38588,-3.046946 3.07591,0 4.35502,1.72872 4.35502,5.885826 0,3.488637 0.97348,4.704407 1.55939,1.947507 0.21412,-1.007493 0.28407,-0.843327 0.21303,0.5 -0.0807,1.52661 -0.46079,2.05043 -1.60575,2.21303 -0.87975,0.12495 -1.5,-0.13694 -1.5,-0.63333 0,-0.65829 -0.17778,-0.66859 -0.8,-0.0463 -0.44,0.44 -1.73,0.8 -2.86667,0.8 -1.13666,0 -2.42667,-0.36 -2.86667,-0.8 z m 5.06667,-0.66666 c 0.44,-0.44 0.8,-1.49 0.8,-2.333337 0,-1.906353 -1.97446,-2.06986 -3.57941,-0.296413 -2.05356,2.26916 0.61507,4.79409 2.77941,2.62975 z m 6.13334,0.8 c 0,-0.36667 0.45,-0.66667 1,-0.66667 0.76836,0 1,-0.85417 1,-3.687587 0,-2.662866 -0.27789,-3.794226 -1,-4.071326 -1.57708,-0.60518 -1.16666,-1.57442 0.66666,-1.57442 0.91667,0 1.66667,0.293566 1.66667,0.652373 0,0.40214 0.62043,0.369687 1.61751,-0.08461 0.88962,-0.405346 2.38962,-0.5432 3.33333,-0.30634 1.60532,0.402907 1.71583,0.688794 1.71583,4.438867 0,2.947873 0.26454,4.109733 1,4.391953 1.89284,0.72636 0.99508,1.57442 -1.66667,1.57442 -1.46667,0 -2.66667,-0.3 -2.66667,-0.66666 0,-0.36667 0.31432,-0.66667 0.69848,-0.66667 0.96126,0 0.52413,-8.15409 -0.45443,-8.47685 -1.57196,-0.518493 -2.91071,1.869107 -2.91071,5.191134 0,1.807146 0.3,3.285716 0.66666,3.285716 0.36667,0 0.66667,0.3 0.66667,0.66667 0,0.36666 -1.2,0.66666 -2.66667,0.66666 -1.46666,0 -2.66666,-0.3 -2.66666,-0.66666 z M 72.000002,57.372678 c 0,-8.915119 0.243326,-14.039345 0.666666,-14.039345 0.4227,0 0.666667,4.986886 0.666667,13.627322 0,8.365756 -0.2574,13.786405 -0.666667,14.039345 -0.43638,0.2697 -0.666666,-4.437521 -0.666666,-13.627322 z M 91.408135,23.993536 c -4.140553,-11.522777 -4.462306,-12.662061 -3.5748,-12.657804 0.45102,0.0021 8.834761,22.302745 8.833754,23.497601 -2.33e-4,0.275 -0.26676,0.5 -0.592287,0.5 -0.32552,0 -2.42552,-5.102908 -4.666667,-11.339797 z m -35.206293,9.208496 c -1.634103,-0.789513 -2.857655,-3.669525 -2.889575,-6.801514 l -0.02107,-2.067185 -1.645599,1.87051 c -0.905081,1.02878 -1.6456,2.32878 -1.6456,2.888888 0,1.500946 -1.632185,0.702676 -1.871445,-0.915286 -0.13954,-0.943614 0.550726,-1.961036 2.166666,-3.193574 1.517453,-1.157417 2.371446,-2.366318 2.371446,-3.356986 0,-1.937694 -1.085187,-2.662754 -2.378648,-1.589278 -0.542798,0.450484 -1.200175,0.605792 -1.460836,0.345132 -0.721174,-0.721174 2.659715,-3.072137 4.145488,-2.88264 0.750895,0.09577 1.464144,0.841372 1.678061,1.75418 l 0.372058,1.587613 2.084842,-1.754279 C 59.600541,16.989967 60.666665,16.86387 60.666665,18.666667 60.666665,19.49992 60.22222,20 59.481669,20 c -0.651747,0 -1.888063,0.492447 -2.747368,1.094328 -1.427973,1.000192 -1.524703,1.414825 -1.124481,4.820094 0.449518,3.824692 1.83103,6.752245 3.186386,6.752245 0.42101,0 1.277027,-0.462952 1.902262,-1.028782 1.017682,-0.920989 1.177744,-0.922054 1.527668,-0.01017 0.757156,1.973118 -3.108171,2.983236 -6.024297,1.574316 z M 36.729483,22.923396 C 35.22109,19.031263 33.807365,15.131263 33.58787,14.256729 32.906744,11.542907 34.33469,12.511391 35.420965,15.5 c 1.007568,2.772069 1.102166,2.837618 4.374933,3.031505 l 3.345096,0.19817 1.421388,-3.19817 c 1.324744,-2.980718 1.39587,-3.039521 1.046058,-0.864838 C 45.144807,17.548937 40.520764,30 39.913987,30 39.670902,30 38.237876,26.815528 36.729483,22.923396 Z m 4.834316,0.07583 L 42.585737,20 H 39.88821 c -1.879147,0 -2.603345,0.252818 -2.387084,0.833333 0.170743,0.458334 0.70733,1.942362 1.192416,3.29784 0.485086,1.355478 1.099402,2.330129 1.365147,2.165889 0.265745,-0.164239 0.943044,-1.648267 1.50511,-3.297839 z m 59.165211,5.783922 c -0.49707,-0.928786 -0.43199,-2.304255 0.22973,-4.855244 1.1737,-4.524734 3.53271,-6.586571 7.54126,-6.591256 1.55834,-0.0018 2.83009,0.07169 2.82612,0.163355 -0.004,0.09167 -0.45397,1.639346 -1,3.439287 -1.42586,4.700215 -1.34104,5.960672 0.34055,5.060713 2.35059,-1.257997 1.48653,0.514498 -1.11137,2.279815 -2.49586,1.695986 -3.5553,1.70691 -3.5553,0.03666 0,-0.726404 -0.51661,-0.63336 -2.28872,0.412208 -2.26009,1.333488 -2.2974,1.334169 -2.98227,0.05447 z m 4.61899,-2.79099 c 0.69318,-0.370981 1.57178,-1.795981 1.95245,-3.166666 0.94309,-3.395852 0.91865,-3.492156 -0.88623,-3.492156 -1.61632,0 -2.47926,1.407208 -3.37273,5.5 -0.43052,1.97213 0.19737,2.287595 2.30651,1.158822 z M 64.666668,28.666667 C 64.666668,28.3 65.416668,28 66.333335,28 c 2.33534,0 2.050847,-1.474757 -0.514428,-2.666667 -4.05912,-1.885998 -2.982265,-6.524162 1.952261,-8.408676 C 70.546408,15.864785 71.754988,14 69.666668,14 c -0.55,0 -1,-0.3 -1,-0.666667 0,-0.37037 1.77778,-0.666666 4,-0.666666 2.22222,0 4,0.296296 4,0.666666 0,0.366667 -0.75,0.666667 -1.666666,0.666667 -1.94104,0 -2.31032,1.813584 -0.5,2.455589 2.026713,0.718749 3.5,2.365079 3.5,3.911096 0,1.865649 -2.524994,4.354422 -5.399827,5.32237 C 70.070235,26.540879 69.235275,28 71.277782,28 c 0.763886,0 1.388886,0.3 1.388886,0.666667 0,0.37037 -1.77778,0.666666 -4,0.666666 -2.222222,0 -4,-0.296296 -4,-0.666666 z m 4.619967,-7.051725 c 0.457673,-2.045115 0.681107,-3.869421 0.49652,-4.054013 -0.748167,-0.748165 -3.02288,1.211373 -3.716728,3.201753 -0.612072,1.755789 -0.548507,2.336295 0.366536,3.347405 0.608865,0.672786 1.312785,1.223246 1.564279,1.223246 0.251486,0 0.831713,-1.673276 1.289393,-3.718391 z m 5.138073,1.339166 c 1.280674,-1.954549 0.952467,-5.204549 -0.554433,-5.490176 -0.838153,-0.15887 -1.321553,0.527887 -1.873013,2.660967 -0.408807,1.581305 -0.887754,3.375238 -1.064327,3.986517 -0.479907,1.661388 2.23434,0.761783 3.491773,-1.157308 z"
       id="path728" />
  </g>
</svg>
