<?xml version="1.0" encoding="UTF-8" standalone="no"?>
<svg
   xmlns:dc="http://purl.org/dc/elements/1.1/"
   xmlns:cc="http://creativecommons.org/ns#"
   xmlns:rdf="http://www.w3.org/1999/02/22-rdf-syntax-ns#"
   xmlns:svg="http://www.w3.org/2000/svg"
   xmlns="http://www.w3.org/2000/svg"
   xmlns:sodipodi="http://sodipodi.sourceforge.net/DTD/sodipodi-0.dtd"
   xmlns:inkscape="http://www.inkscape.org/namespaces/inkscape"
   version="1.1"
   id="svg840"
   width="337.33682"
   height="298.64825"
   viewBox="0 0 337.33682 298.64825"
   sodipodi:docname="10-4-2.svg"
   inkscape:version="1.0.1 (c497b03c, 2020-09-10)">
  <metadata
     id="metadata846">
    <rdf:RDF>
      <cc:Work
         rdf:about="">
        <dc:format>image/svg+xml</dc:format>
        <dc:type
           rdf:resource="http://purl.org/dc/dcmitype/StillImage" />
        <dc:title></dc:title>
      </cc:Work>
    </rdf:RDF>
  </metadata>
  <defs
     id="defs844" />
  <sodipodi:namedview
     pagecolor="#ffffff"
     bordercolor="#666666"
     borderopacity="1"
     objecttolerance="10"
     gridtolerance="10"
     guidetolerance="10"
     inkscape:pageopacity="0"
     inkscape:pageshadow="2"
     inkscape:window-width="740"
     inkscape:window-height="480"
     id="namedview842"
     showgrid="false"
     fit-margin-top="0"
     fit-margin-left="0"
     fit-margin-right="0"
     fit-margin-bottom="0"
     inkscape:pagecheckerboard="true"
     inkscape:zoom="0.67095552"
     inkscape:cx="171.64423"
     inkscape:cy="151.647"
     inkscape:window-x="0"
     inkscape:window-y="25"
     inkscape:window-maximized="0"
     inkscape:current-layer="g848" />
  <g
     inkscape:groupmode="layer"
     inkscape:label="Image"
     id="g848"
     transform="translate(-11.333334,-8.6666668)">
    <path
       style="fill:#1d1d1d;stroke-width:0.666667"
       d="m 121.33334,306.86145 c 0,-0.25954 1.11088,-1.60954 2.46863,-3 l 2.46863,-2.52811 -2.59198,-2.65443 c -3.38165,-3.46312 -2.46284,-4.38194 1.00029,-1.00029 l 2.65443,2.59199 L 130,297.66667 c 3.16373,-3.0893 3.65121,-1.74592 0.53364,1.47059 l -2.13303,2.20073 2.47993,2.53967 c 3.2372,3.31519 2.31017,4.23799 -1.00521,1.00061 l -2.54199,-2.4822 -2.52811,2.46864 c -2.44671,2.38914 -3.47189,2.97874 -3.47189,1.99674 z M 14.347213,277.74116 c -5.3497268,-5.34973 -0.572123,-17.16554 5.931596,-14.66983 1.393305,0.53466 1.404048,3.59534 0.01262,3.59534 -0.687209,0 -0.970901,-0.48954 -0.833333,-1.43803 0.479856,-3.30844 -3.692118,-1.14569 -4.519954,2.34314 -0.418954,1.76565 -0.351364,1.85123 0.923278,1.16906 2.946545,-1.57695 6.13858,1.01303 6.13858,4.98077 0,2.283 -0.348616,3.12251 -1.756572,4.23001 -2.293842,1.80433 -3.940183,1.74557 -5.896215,-0.21046 z m 4.962665,-1.03066 c 1.548734,-2.89383 0.347528,-7.37716 -1.976544,-7.37716 -1.515203,0 -2.666667,1.87113 -2.666667,4.33333 0,2.46221 1.151464,4.33334 2.666667,4.33334 0.707532,0 1.596976,-0.58028 1.976544,-1.28951 z m 184.261462,1.96179 c -3.70377,-1.49466 -4.76424,-7.37163 -2.05547,-11.39116 2.94126,-4.36454 8.66962,-6.61914 11.79511,-4.64238 0.62212,0.39346 1.29468,0.3552 1.84944,-0.10521 1.39044,-1.15396 1.62322,-0.25516 0.79046,3.05204 -0.87654,3.48106 -1.95088,4.08487 -1.95088,1.09646 0,-2.49701 -2.40225,-4.27445 -4.92222,-3.64199 -3.61784,0.90802 -7.81974,8.10451 -6.64958,11.38856 1.28859,3.61645 5.07441,4.73546 7.5718,2.23806 1.73976,-1.73976 1.68702,-2.959 -0.16666,-3.853 -1.26102,-0.60817 -0.86272,-0.72724 2.5,-0.74734 3.52154,-0.0211 3.85625,0.0851 2.79823,0.88737 -0.66097,0.50121 -1.51,2.02764 -1.88674,3.39206 -0.46229,1.67431 -0.90441,2.26133 -1.35999,1.80575 -0.45558,-0.45558 -1.25093,-0.37454 -2.4466,0.2493 -1.99147,1.03905 -3.76186,1.12097 -5.8669,0.27148 z m 128.13248,-6.36026 c -1.72373,-3.86172 -2.99825,-7.38672 -2.83228,-7.83333 0.29909,-0.80483 5.79513,10.31125 5.79513,11.72102 0,1.39937 1.10046,-0.51647 3.6679,-6.38567 1.40811,-3.21894 2.80761,-5.6052 3.11,-5.30282 0.55038,0.55039 -5.41122,14.8194 -6.1923,14.82117 -0.22792,5.2e-4 -1.82472,-3.15865 -3.54845,-7.02037 z m -305.912153,5.92409 c -0.943677,-0.94368 -0.409688,-2.23611 0.923883,-2.23611 0.931974,0 1.312003,0.36203 1.166667,1.11142 -0.237963,1.22698 -1.376002,1.83924 -2.09055,1.12469 z m 94.541673,-0.23611 c 0.22661,-0.36667 0.83275,-0.66667 1.34698,-0.66667 0.52004,0 1.2243,-1.10945 1.58696,-2.5 1.6368,-6.2761 2.73272,-10.72609 2.73272,-11.09623 0,-0.22208 -0.4677,-0.40377 -1.03934,-0.40377 -0.57164,0 -0.85394,-0.3 -0.62732,-0.66667 0.62662,-1.01389 12.30792,-0.86017 12.66483,0.16667 0.15931,0.45833 0.0306,1.88333 -0.28601,3.16667 -0.48037,1.94704 -0.58697,2.0519 -0.64392,0.63333 -0.0979,-2.43857 -1.2735,-3.3 -4.50357,-3.3 -2.70851,0 -2.86638,0.11182 -3.52961,2.5 -0.38186,1.375 -0.69596,2.875 -0.698,3.33333 -0.006,1.40916 3.10114,0.92335 4.2642,-0.66666 1.08063,-1.47732 1.09064,-1.46471 0.6615,0.83333 -0.23965,1.28333 -0.6778,2.93333 -0.97365,3.66667 -0.51039,1.26508 -0.54009,1.25654 -0.58018,-0.16667 -0.034,-1.20737 -0.42631,-1.5 -2.01093,-1.5 -1.70702,0 -2.06093,0.33225 -2.66294,2.5 -0.90234,3.24919 -0.88379,3.5 0.25893,3.5 0.52836,0 1.14607,0.3 1.37268,0.66667 0.25753,0.41669 -1.1173,0.66666 -3.66667,0.66666 -2.54936,0 -3.9242,-0.24997 -3.66666,-0.66666 z m 18.96243,-0.73687 c -1.10447,-2.06372 -0.21639,-5.43704 1.98719,-7.54821 1.70195,-1.63056 2.25882,-1.7969 4.65837,-1.3915 1.49893,0.25324 2.72178,0.65907 2.71743,0.90184 -0.005,0.24277 -0.4508,2.0914 -0.99209,4.10807 -1.17717,4.38569 -1.19625,4.66667 -0.31683,4.66667 0.37574,0 1.0115,-0.825 1.4128,-1.83334 0.40129,-1.00833 0.86332,-1.47496 1.02673,-1.03696 0.86203,2.31065 -2.51386,4.5458 -4.24745,2.81221 -0.5219,-0.5219 -0.85014,-0.5219 -1.17268,0 -0.80521,1.30285 -4.26033,0.84059 -5.07347,-0.67878 z m 4.93083,-0.47852 c 1.41486,-1.56341 2.22904,-7.09099 1.1433,-7.76202 -1.18173,-0.73035 -3.28838,1.53219 -4.04585,4.34522 -1.11073,4.12494 0.52215,6.04711 2.90255,3.4168 z m 74.42648,0.17965 c -0.47899,-1.25984 -0.27172,-3.19968 0.79729,-7.46196 1.04548,-4.16846 1.22884,-5.83146 0.66375,-6.01982 -1.56406,-0.52136 -0.72738,-1.48248 1.29054,-1.48248 1.52154,0 1.9743,0.25286 1.70576,0.95266 -0.20106,0.52396 -0.5597,1.98742 -0.79696,3.25215 -0.40554,2.16171 -0.33428,2.28094 1.18902,1.98974 3.34294,-0.63905 4.86262,3.20978 2.82396,7.15213 -1.89144,3.65763 -6.52626,4.63468 -7.67336,1.61758 z m 5.27812,-1.27796 c 1.1721,-2.44552 1.33489,-6.45463 0.27714,-6.82544 -2.05534,-0.72052 -5.23926,6.26505 -3.86731,8.48492 0.76904,1.24433 2.60519,0.39561 3.59017,-1.65948 z m 84.73547,2.35249 c 0,-0.34533 1.5,-2.34201 3.33334,-4.43706 2.48566,-2.84051 3.33333,-4.34227 3.33333,-5.90546 0,-2.47019 -1.0263,-3.69627 -3.09399,-3.69627 -1.86442,0 -2.60153,1.09364 -1.57268,2.33333 0.90601,1.09167 0.35293,2.33333 -1.03934,2.33333 -0.61884,0 -0.96066,-0.69818 -0.96066,-1.9622 0,-3.78153 5.14534,-5.40978 7.8838,-2.49483 2.37714,2.53036 1.87958,4.74881 -1.9805,8.83027 l -3.43004,3.62676 h 2.6615 c 2.10127,0 2.81376,-0.31573 3.38492,-1.5 l 0.72342,-1.5 0.0451,1.44548 c 0.0972,3.11421 -0.52541,3.55452 -5.02622,3.55452 -2.3441,0 -4.26201,-0.28254 -4.26201,-0.62787 z m -191.33333,-4.03879 v -2.66667 h -6 c -3.55556,0 -6,-0.27161 -6,-0.66667 0,-0.4 2.66666,-0.66666 6.66666,-0.66666 h 6.66667 v 3.33333 c 0,1.83333 -0.3,3.33333 -0.66667,3.33333 -0.36666,0 -0.66666,-1.2 -0.66666,-2.66666 z m 79.33333,0 v -2.66667 h -6 c -3.55555,0 -6,-0.27161 -6,-0.66667 0,-0.4 2.66667,-0.66666 6.66667,-0.66666 H 198 v 3.33333 c 0,1.83333 -0.3,3.33333 -0.66666,3.33333 -0.36667,0 -0.66667,-1.2 -0.66667,-2.66666 z m -68.31481,-21.2515 c 5.61526,-5.34484 37.99419,-31.42503 38.68534,-31.15981 1.48946,0.57155 39.05939,31.87028 38.69428,32.23539 -0.32392,0.32391 -4.51907,-3.04504 -28.61576,-22.98018 -5.43634,-4.49748 -10.16614,-8.17724 -10.51065,-8.17724 -0.34451,0 -9.08023,7.05 -19.4127,15.66667 -10.33248,8.61666 -19.09435,15.66667 -19.47083,15.66667 -0.37647,0 -0.0928,-0.56318 0.63032,-1.2515 z M 14.148338,213.62887 c -1.809507,-1.26743 -2.106102,-4.9622 -0.398338,-4.9622 0.847168,0 0.996488,0.43423 0.684956,1.99189 -0.343892,1.71946 -0.171744,2.04877 1.258657,2.40778 0.942173,0.23647 2.084711,0.0609 2.648378,-0.40686 0.999211,-0.82926 1.348012,-4.9543 0.586683,-6.93828 -0.510677,-1.33081 -2.507558,-1.36523 -3.589248,-0.0619 -1.355564,1.63335 -2.006092,0.4844 -2.006092,-3.54311 v -3.8051 h 3.992592 c 3.868168,0 3.954594,0.038 2.773257,1.21933 -0.670635,0.67063 -2.167301,1.24629 -3.325926,1.27923 -1.818701,0.0517 -2.10659,0.30106 -2.10659,1.82458 0,1.61454 0.192965,1.74215 2.268021,1.4999 5.366934,-0.62656 7.24897,7.02431 2.350965,9.55717 -2.391987,1.23694 -3.297881,1.22593 -5.137315,-0.0625 z m 141.423002,0.37675 c -3.70377,-1.49466 -4.76424,-7.37163 -2.05547,-11.39116 2.94126,-4.36454 8.66962,-6.61914 11.79511,-4.64238 0.62212,0.39346 1.29468,0.3552 1.84944,-0.10521 1.39044,-1.15396 1.62322,-0.25516 0.79046,3.05204 -0.87654,3.48106 -1.95088,4.08487 -1.95088,1.09646 0,-2.49701 -2.40225,-4.27445 -4.92222,-3.64199 -3.61784,0.90802 -7.81974,8.10451 -6.64958,11.38856 1.28859,3.61645 5.07441,4.73546 7.5718,2.23806 1.73976,-1.73976 1.68702,-2.959 -0.16666,-3.853 -1.26102,-0.60817 -0.86272,-0.72724 2.5,-0.74734 3.52154,-0.0211 3.85625,0.0851 2.79823,0.88737 -0.66097,0.50121 -1.51,2.02764 -1.88674,3.39206 -0.46229,1.67431 -0.90441,2.26133 -1.35999,1.80575 -0.45558,-0.45558 -1.25093,-0.37454 -2.4466,0.2493 -1.99147,1.03905 -3.76186,1.12097 -5.8669,0.27148 z M 25.791667,213.56945 c -0.943677,-0.94368 -0.409688,-2.23611 0.923883,-2.23611 0.931974,0 1.312003,0.36203 1.166667,1.11142 -0.237963,1.22698 -1.376002,1.83924 -2.09055,1.12469 z M 170.6291,212.59647 c -1.10447,-2.06372 -0.21638,-5.43704 1.9872,-7.54821 1.70194,-1.63056 2.25881,-1.7969 4.65836,-1.3915 1.49894,0.25324 2.72178,0.65907 2.71743,0.90184 -0.005,0.24277 -0.45079,2.0914 -0.99209,4.10807 -1.17716,4.38569 -1.19624,4.66667 -0.31683,4.66667 0.37574,0 1.0115,-0.825 1.4128,-1.83334 0.40129,-1.00833 0.86333,-1.47496 1.02673,-1.03696 0.86204,2.31065 -2.51386,4.5458 -4.24745,2.81221 -0.5219,-0.5219 -0.85013,-0.5219 -1.17268,0 -0.80521,1.30285 -4.26033,0.84059 -5.07347,-0.67878 z m 4.93083,-0.47852 c 1.41486,-1.56341 2.22904,-7.09099 1.1433,-7.76202 -1.18173,-0.73035 -3.28837,1.53219 -4.04585,4.34522 -1.11072,4.12494 0.52215,6.04711 2.90255,3.4168 z m 134.07644,-27.75431 c -1.89257,-1.89257 -2.06544,-2.9075 -0.59155,-3.47308 1.50468,-0.5774 2.71053,0.79766 1.73271,1.97586 -0.93546,1.12717 -0.36209,1.80025 1.53359,1.80025 1.99155,0 3.02222,-1.25045 3.02222,-3.66667 0,-2.38846 -1.02159,-3.65808 -2.96667,-3.68694 -1.3577,-0.0201 -1.35792,-0.0251 -0.0333,-0.74954 2.90874,-1.59096 3.70839,-3.7599 2.01173,-5.45655 -1.54228,-1.54228 -3.54128,-0.69024 -3.15247,1.34369 0.25769,1.34803 0.0829,1.63568 -0.88029,1.44897 -1.77082,-0.34325 -1.91372,-1.63155 -0.35397,-3.19129 1.49213,-1.49213 4.04111,-1.779 6.08549,-0.68488 1.60651,0.85978 1.72224,4.11524 0.2004,5.63708 -1.0077,1.0077 -0.98278,1.16358 0.33334,2.08542 2.10928,1.4774 1.93372,5.08843 -0.33414,6.87232 -2.33017,1.83292 -4.60726,1.74516 -6.60706,-0.25464 z m 24.58893,0.99584 c -2.78569,-1.1721 -2.64814,-4.23017 0.31069,-6.90788 1.03776,-0.93916 1.25074,-1.7624 0.97938,-3.78561 -0.46929,-3.49879 0.2088,-5.82192 1.85151,-6.3433 3.08789,-0.98005 4.36142,2.81453 1.96646,5.85923 -1.69472,2.15449 -1.68183,2.32904 0.39793,5.38969 l 1.73126,2.54778 1.60208,-2.35766 c 1.70756,-2.51291 2.0181,-3.76173 0.9354,-3.76173 -0.36667,0 -0.66667,-0.3 -0.66667,-0.66666 0,-0.36667 1.2,-0.66667 2.66667,-0.66667 2.73116,0 3.62972,0.92598 1.45134,1.49564 -0.66843,0.1748 -2.04104,1.7268 -3.05026,3.44889 -1.46592,2.50141 -1.67434,3.32458 -1.03638,4.09327 1.16954,1.40921 2.99074,1.17521 4.18568,-0.5378 0.57549,-0.825 1.06208,-1.125 1.08132,-0.66667 0.0193,0.45834 -0.59104,1.45934 -1.35614,2.22444 -1.06413,1.06413 -1.80845,1.27278 -3.16667,0.88769 -2.10498,-0.59681 -3.73013,-0.61085 -6.44223,-0.0556 -1.1,0.22519 -2.64862,0.13653 -3.44137,-0.19703 z m 5.00797,-1.28352 c 0.71159,-0.45094 0.48794,-1.13904 -1.06864,-3.28782 -2.14268,-2.9579 -3.49796,-2.74667 -3.49796,0.5452 0,2.82976 2.27399,4.19547 4.5666,2.74262 z m 0.10007,-12.82425 c 0,-1.22067 -0.34735,-1.91837 -0.95507,-1.91837 -1.19216,0 -1.94374,2.21832 -1.36712,4.0351 0.62088,1.95621 2.32219,0.40542 2.32219,-2.11673 z M 15.333334,184.66667 c 0,-0.36667 0.45,-0.66667 1,-0.66667 0.555555,0 1,-0.59259 1,-1.33333 0,-1.1358 -0.444445,-1.33333 -3,-1.33333 -1.65,0 -3,-0.30249 -3,-0.67219 0,-0.92067 6.877224,-11.2941 7.5,-11.3128 0.275,-0.008 0.5,2.39465 0.5,5.3398 0,4.93005 0.118985,5.40265 1.5,5.95775 1.086806,0.43684 1.189465,0.61456 0.372678,0.64518 -1.91269,0.0717 -2.151527,1.49158 -0.468558,2.78558 l 1.59588,1.22703 -3.5,0.0148 c -1.925,0.008 -3.5,-0.28515 -3.5,-0.65182 z m 2,-7.66667 c 0,-2.01666 -0.105158,-3.66666 -0.233683,-3.66666 -0.271328,0 -4.432984,6.61314 -4.432984,7.0443 0,0.15896 1.05,0.28903 2.333333,0.28903 h 2.333334 z m 7.791666,7.90278 c -0.943676,-0.94368 -0.409688,-2.23611 0.923883,-2.23611 0.931975,0 1.312003,0.36203 1.166667,1.11142 -0.237962,1.22699 -1.376002,1.83924 -2.09055,1.12469 z m 126.54167,-0.23611 C 151.89328,184.3 152.49942,184 153.01365,184 c 0.52005,0 1.22431,-1.10945 1.58696,-2.5 1.63681,-6.2761 2.73273,-10.72609 2.73273,-11.09622 0,-0.22208 -0.46771,-0.40378 -1.03935,-0.40378 -0.57164,0 -0.85393,-0.3 -0.62732,-0.66666 0.62662,-1.0139 12.30792,-0.86018 12.66483,0.16666 0.15932,0.45834 0.0306,1.88334 -0.28601,3.16667 -0.48037,1.94705 -0.58697,2.0519 -0.64391,0.63333 -0.0979,-2.43856 -1.27351,-3.3 -4.50358,-3.3 -2.7085,0 -2.86638,0.11182 -3.52961,2.5 -0.38185,1.375 -0.69596,2.875 -0.698,3.33334 -0.006,1.40916 3.10114,0.92334 4.26421,-0.66667 1.08062,-1.47731 1.09063,-1.46471 0.66149,0.83333 -0.23965,1.28334 -0.67779,2.93334 -0.97365,3.66667 -0.51038,1.26508 -0.54008,1.25655 -0.58018,-0.16667 -0.034,-1.20737 -0.42631,-1.5 -2.01092,-1.5 -1.70703,0 -2.06094,0.33226 -2.66295,2.5 -0.90234,3.24919 -0.88379,3.5 0.25893,3.5 0.52836,0 1.14607,0.3 1.37268,0.66667 0.25754,0.41669 -1.1173,0.66667 -3.66666,0.66667 -2.54937,0 -3.9242,-0.24998 -3.66667,-0.66667 z m 18.96243,-0.73687 c -1.10447,-2.06372 -0.21638,-5.43704 1.9872,-7.5482 1.70194,-1.63057 2.25881,-1.79691 4.65836,-1.39151 1.49894,0.25325 2.72178,0.65907 2.71743,0.90185 -0.005,0.24276 -0.45079,2.0914 -0.99209,4.10806 -1.17716,4.38569 -1.19624,4.66667 -0.31683,4.66667 0.37574,0 1.0115,-0.825 1.4128,-1.83333 0.40129,-1.00834 0.86333,-1.47497 1.02673,-1.03696 0.86204,2.31064 -2.51386,4.5458 -4.24745,2.8122 -0.5219,-0.5219 -0.85013,-0.5219 -1.17268,0 -0.80521,1.30286 -4.26033,0.8406 -5.07347,-0.67878 z m 4.93083,-0.47852 c 1.41486,-1.5634 2.22904,-7.09099 1.1433,-7.76202 -1.18173,-0.73034 -3.28837,1.53219 -4.04585,4.34522 -1.11072,4.12494 0.52215,6.04712 2.90255,3.4168 z M 166,144.33334 C 166,133.88889 166.24036,128 166.66667,128 c 0.42631,0 0.66667,5.88889 0.66667,16.33334 0,10.44444 -0.24036,16.33333 -0.66667,16.33333 -0.42631,0 -0.66667,-5.88889 -0.66667,-16.33333 z M 12.969697,119.0303 c -1.892572,-1.89256 -2.065439,-2.90749 -0.591552,-3.47308 1.50468,-0.5774 2.710534,0.79767 1.732718,1.97587 -0.935469,1.12717 -0.362093,1.80025 1.533582,1.80025 1.991549,0 3.022222,-1.25045 3.022222,-3.66667 0,-2.38846 -1.021595,-3.65809 -2.966667,-3.68694 -1.357706,-0.0201 -1.357924,-0.0251 -0.03333,-0.74955 2.908739,-1.59096 3.708384,-3.75989 2.011727,-5.45654 -1.542278,-1.54228 -3.541277,-0.69024 -3.152468,1.34368 0.257694,1.34804 0.08294,1.63568 -0.880291,1.44898 -1.770819,-0.34326 -1.913713,-1.63155 -0.353968,-3.1913 1.492127,-1.49212 4.041113,-1.779 6.085494,-0.68488 1.606504,0.85978 1.722237,4.11525 0.2004,5.63708 -1.007697,1.0077 -0.982781,1.16358 0.333333,2.08542 2.109285,1.47741 1.933716,5.08844 -0.334133,6.87233 -2.330171,1.83291 -4.607269,1.74515 -6.607064,-0.25465 z m 133.255603,0.99584 c -2.78569,-1.17209 -2.64814,-4.23016 0.31069,-6.90788 1.03776,-0.93916 1.25074,-1.7624 0.97937,-3.7856 -0.46928,-3.4988 0.2088,-5.82192 1.85152,-6.3433 3.08788,-0.98006 4.36142,2.81453 1.96646,5.85922 -1.69472,2.1545 -1.68184,2.32904 0.39793,5.3897 l 1.73126,2.54778 1.60207,-2.35766 c 1.70757,-2.51292 2.0181,-3.76173 0.9354,-3.76173 -0.36666,0 -0.66666,-0.3 -0.66666,-0.66667 0,-0.36666 1.2,-0.66666 2.66666,-0.66666 2.73116,0 3.62972,0.92598 1.45134,1.49564 -0.66842,0.1748 -2.04104,1.7268 -3.05025,3.44888 -1.46593,2.50142 -1.67434,3.32458 -1.03638,4.09328 1.16954,1.40921 2.99074,1.17521 4.18568,-0.5378 0.57549,-0.825 1.06208,-1.125 1.08131,-0.66667 0.0193,0.45833 -0.59103,1.45933 -1.35614,2.22444 -1.06412,1.06413 -1.80844,1.27278 -3.16666,0.88769 -2.10498,-0.59682 -3.73014,-0.61085 -6.44223,-0.0556 -1.1,0.22519 -2.64862,0.13653 -3.44137,-0.19703 z m 5.00797,-1.28352 c 0.71159,-0.45094 0.48793,-1.13903 -1.06864,-3.28782 -2.14269,-2.9579 -3.49796,-2.74666 -3.49796,0.5452 0,2.82976 2.27399,4.19548 4.5666,2.74262 z m 0.10007,-12.82424 c 0,-1.22068 -0.34736,-1.91838 -0.95508,-1.91838 -1.19215,0 -1.94374,2.21833 -1.36712,4.0351 0.62088,1.95622 2.3222,0.40543 2.3222,-2.11672 z m 18.90466,14.08724 c -3.70376,-1.49466 -4.76423,-7.37163 -2.05546,-11.39116 2.94126,-4.36454 8.66962,-6.61914 11.7951,-4.64238 0.62212,0.39346 1.29468,0.3552 1.84945,-0.10521 1.39043,-1.15396 1.62322,-0.25516 0.79045,3.05204 -0.87654,3.48106 -1.95087,4.08487 -1.95087,1.09646 0,-2.49701 -2.40225,-4.27445 -4.92222,-3.64199 -3.61784,0.90802 -7.81975,8.10451 -6.64959,11.38856 1.2886,3.61645 5.07442,4.73546 7.57181,2.23806 1.73976,-1.73976 1.68701,-2.959 -0.16667,-3.853 -1.26102,-0.60817 -0.86272,-0.72724 2.5,-0.74734 3.52155,-0.0211 3.85626,0.0851 2.79824,0.88737 -0.66097,0.50121 -1.51,2.02764 -1.88674,3.39206 -0.4623,1.67431 -0.90441,2.26133 -1.35999,1.80575 -0.45559,-0.45558 -1.25093,-0.37454 -2.4466,0.2493 -1.99147,1.03905 -3.76186,1.12097 -5.86691,0.27148 z m 38.09442,-2.28038 c -0.973,-1.66028 -1.57812,-3.32767 -1.34474,-3.7053 0.76576,-1.23903 2.11642,-0.72 2.96331,1.13872 l 0.83167,1.82533 1.61962,-3.40769 c 1.72398,-3.62732 7.80863,-10.24296 9.42081,-10.24296 0.53127,0 -0.43089,1.35757 -2.13813,3.01682 -1.92746,1.87327 -3.8642,4.71622 -5.10934,7.5 -3.57104,7.98382 -3.76483,8.10411 -6.2432,3.87508 z m 123.77985,-0.55857 c -0.72428,-1.925 -2.09583,-5.56072 -3.0479,-8.07937 -1.85339,-4.90307 -2.03116,-5.75396 -1.20213,-5.75396 0.29089,0 0.99232,1.275 1.55873,2.83333 1.00925,2.77669 1.09728,2.83731 4.40356,3.0325 l 3.37371,0.19916 1.15812,-3.03249 c 0.63697,-1.66788 1.41737,-3.0325 1.73422,-3.0325 0.31685,0 0.57609,0.20363 0.57609,0.45252 0,1.03632 -6.36698,16.88081 -6.78342,16.88081 -0.24976,0 -1.0467,-1.575 -1.77098,-3.5 z m 2.8419,-2 C 337.04101,110.0641 337.02973,110 334.04493,110 c -1.49138,0 -2.71308,0.225 -2.71489,0.5 -0.005,0.73825 2.22713,6.83334 2.50235,6.83334 0.12961,0 0.63441,-0.975 1.12178,-2.16667 z M 25.125,119.56945 c -0.943676,-0.94368 -0.409688,-2.23611 0.923883,-2.23611 0.931975,0 1.312003,0.36203 1.166667,1.11142 -0.237962,1.22698 -1.376002,1.83924 -2.09055,1.12469 z m 84.54167,-0.23611 c 0.22661,-0.36667 0.83275,-0.66667 1.34698,-0.66667 0.52005,0 1.22431,-1.10945 1.58696,-2.5 1.63681,-6.2761 2.73273,-10.72609 2.73273,-11.09623 0,-0.22208 -0.46771,-0.40377 -1.03935,-0.40377 -0.57164,0 -0.85393,-0.3 -0.62732,-0.66667 0.62662,-1.01389 12.30792,-0.86017 12.66483,0.16667 0.15932,0.45833 0.0306,1.88333 -0.28601,3.16667 -0.48037,1.94704 -0.58697,2.0519 -0.64391,0.63333 -0.0979,-2.43857 -1.27351,-3.3 -4.50358,-3.3 -2.7085,0 -2.86638,0.11182 -3.52961,2.5 -0.38185,1.375 -0.69596,2.875 -0.698,3.33333 -0.006,1.40916 3.10114,0.92335 4.26421,-0.66666 1.08062,-1.47732 1.09063,-1.46471 0.66149,0.83333 -0.23965,1.28333 -0.67779,2.93333 -0.97365,3.66667 -0.51038,1.26508 -0.54008,1.25654 -0.58018,-0.16667 -0.034,-1.20737 -0.42631,-1.5 -2.01092,-1.5 -1.70703,0 -2.06094,0.33225 -2.66295,2.5 -0.90234,3.24919 -0.88379,3.5 0.25893,3.5 0.52836,0 1.14607,0.3 1.37268,0.66667 0.25754,0.41669 -1.1173,0.66666 -3.66666,0.66666 -2.54937,0 -3.9242,-0.24997 -3.66667,-0.66666 z m 18.29577,-0.73687 c -1.10448,-2.06372 -0.21639,-5.43704 1.98719,-7.54821 1.70195,-1.63056 2.25881,-1.7969 4.65837,-1.3915 1.49893,0.25324 2.72178,0.65907 2.71742,0.90184 -0.005,0.24277 -0.45079,2.0914 -0.99208,4.10807 -1.17717,4.38569 -1.19625,4.66667 -0.31684,4.66667 0.37574,0 1.0115,-0.825 1.4128,-1.83334 0.4013,-1.00833 0.86333,-1.47496 1.02674,-1.03696 0.86203,2.31065 -2.51386,4.5458 -4.24746,2.81221 -0.5219,-0.5219 -0.85013,-0.5219 -1.17268,0 -0.8052,1.30285 -4.26032,0.84059 -5.07346,-0.67878 z m 4.93082,-0.47852 c 1.41486,-1.56341 2.22904,-7.09099 1.1433,-7.76202 -1.18172,-0.73035 -3.28837,1.53219 -4.04584,4.34522 -1.11073,4.12494 0.52214,6.04711 2.90254,3.4168 z m 52.40251,0.47852 c -1.10447,-2.06372 -0.21639,-5.43704 1.98719,-7.54821 1.70195,-1.63056 2.25882,-1.7969 4.65837,-1.3915 1.49893,0.25324 2.72178,0.65907 2.71743,0.90184 -0.005,0.24277 -0.4508,2.0914 -0.99209,4.10807 -1.17717,4.38569 -1.19625,4.66667 -0.31683,4.66667 0.37574,0 1.0115,-0.825 1.4128,-1.83334 0.40129,-1.00833 0.86332,-1.47496 1.02673,-1.03696 0.86203,2.31065 -2.51386,4.5458 -4.24745,2.81221 -0.5219,-0.5219 -0.85014,-0.5219 -1.17268,0 -0.80521,1.30285 -4.26033,0.84059 -5.07347,-0.67878 z m 4.93083,-0.47852 c 1.41486,-1.56341 2.22904,-7.09099 1.1433,-7.76202 -1.18173,-0.73035 -3.28838,1.53219 -4.04585,4.34522 -1.11073,4.12494 0.52215,6.04711 2.90255,3.4168 z m 119.10674,1.53222 c 0,-0.19241 0.75,-0.63499 1.66667,-0.9835 1.6082,-0.61144 1.66666,-0.84514 1.66666,-6.66287 v -6.0292 l -1.66666,0.41831 c -0.93868,0.23559 -1.66667,0.12949 -1.66667,-0.24291 0,-0.36368 0.675,-0.80762 1.5,-0.98655 0.825,-0.17893 2.025,-0.54599 2.66667,-0.81571 1.07052,-0.44998 1.16666,0.11984 1.16666,6.91427 0,6.96021 0.08,7.40466 1.33334,7.40466 0.73333,0 1.33333,0.3 1.33333,0.66667 0,0.37037 -1.77778,0.66666 -4,0.66666 -2.2,0 -4,-0.15742 -4,-0.34983 z M 166,78.666668 c 0,-10.22222 0.24074,-16 0.66667,-16 0.42593,0 0.66667,5.77778 0.66667,16 0,10.22222 -0.24074,16.000001 -0.66667,16.000001 C 166.24074,94.666669 166,88.888888 166,78.666668 Z M 150.37048,48.312025 c -1.72372,-3.86172 -2.99825,-7.38672 -2.83228,-7.833334 0.2991,-0.804832 5.79514,10.311249 5.79514,11.721022 0,1.399371 1.10045,-0.516475 3.6679,-6.385663 1.4081,-3.218939 2.8076,-5.60521 3.10999,-5.302824 0.55039,0.550387 -5.41122,14.819396 -6.19229,14.821168 -0.22793,5.17e-4 -1.82473,-3.158649 -3.54846,-7.020369 z m 37.20086,6.360255 c -3.70377,-1.494654 -4.76424,-7.371625 -2.05547,-11.391159 2.94126,-4.36454 8.66962,-6.619138 11.79511,-4.64238 0.62212,0.393466 1.29468,0.355206 1.84944,-0.105209 1.39044,-1.153959 1.62322,-0.255157 0.79046,3.052043 C 199.07434,45.066636 198,45.67045 198,42.682036 c 0,-2.497013 -2.40225,-4.274458 -4.92222,-3.641987 -3.61784,0.908021 -7.81974,8.104503 -6.64958,11.388561 1.28859,3.616442 5.07441,4.735448 7.5718,2.238058 1.73976,-1.739757 1.68702,-2.959006 -0.16666,-3.853004 -1.26102,-0.608166 -0.86272,-0.727233 2.5,-0.74734 3.52154,-0.02106 3.85625,0.08508 2.79823,0.887372 -0.66097,0.50121 -1.51,2.027637 -1.88674,3.39206 -0.46229,1.674309 -0.90441,2.26133 -1.35999,1.805749 -0.45558,-0.455581 -1.25093,-0.374539 -2.4466,0.249298 -1.99147,1.039049 -3.76186,1.12097 -5.8669,0.271477 z m 35.42774,-2.280371 c -0.97299,-1.660287 -1.57812,-3.327675 -1.34473,-3.705306 0.76576,-1.239027 2.11641,-0.720005 2.96331,1.138724 l 0.83167,1.825325 1.61961,-3.407694 c 1.72399,-3.627314 7.80864,-10.242957 9.42082,-10.242957 0.53127,0 -0.43089,1.35757 -2.13814,3.016823 -1.92745,1.873267 -3.86419,4.716215 -5.10934,7.5 -3.57104,7.983825 -3.76482,8.104108 -6.2432,3.875085 z M 12,54.038795 c 0,-0.345329 1.5,-2.342007 3.333334,-4.437059 2.485668,-2.840513 3.333333,-4.342269 3.333333,-5.905461 0,-2.470195 -1.026297,-3.696274 -3.093989,-3.696274 -1.864414,0 -2.601532,1.093639 -1.572678,2.333333 0.906006,1.09167 0.352927,2.333334 -1.039344,2.333334 C 12.341818,44.666668 12,43.968484 12,42.70447 c 0,-3.781536 5.145338,-5.409785 7.883791,-2.494835 2.377148,2.530359 1.879584,4.748808 -1.980495,8.830273 l -3.430038,3.62676 h 2.661494 c 2.101278,0 2.813769,-0.315735 3.384918,-1.5 l 0.723423,-1.5 0.04512,1.445475 c 0.09721,3.114214 -0.525403,3.554525 -5.026205,3.554525 C 13.917904,54.666668 12,54.384125 12,54.038795 Z m 13.125,0.197317 c -0.943676,-0.943677 -0.409688,-2.236111 0.923883,-2.236111 0.931975,0 1.312003,0.362033 1.166667,1.111423 -0.237962,1.226986 -1.376002,1.839236 -2.09055,1.124688 z m 85.20834,-0.236111 c 0.22661,-0.366667 0.83275,-0.666667 1.34698,-0.666667 0.52004,0 1.2243,-1.109452 1.58696,-2.5 C 114.90408,44.557232 116,40.10724 116,39.737104 c 0,-0.222073 -0.4677,-0.40377 -1.03934,-0.40377 -0.57164,0 -0.85394,-0.3 -0.62732,-0.666667 0.62662,-1.013894 12.30792,-0.86017 12.66483,0.166667 0.15931,0.458333 0.0306,1.883333 -0.28601,3.166667 -0.48037,1.947049 -0.58697,2.051897 -0.64392,0.633333 -0.0979,-2.438565 -1.2735,-3.3 -4.50357,-3.3 -2.70851,0 -2.86638,0.111823 -3.52961,2.5 -0.38186,1.375 -0.69596,2.875 -0.698,3.333334 -0.006,1.409161 3.10114,0.923345 4.2642,-0.666667 1.08063,-1.477313 1.09064,-1.464709 0.6615,0.833333 -0.23965,1.283334 -0.6778,2.933334 -0.97365,3.666667 -0.51039,1.265079 -0.54009,1.256547 -0.58018,-0.166667 -0.034,-1.207376 -0.42631,-1.5 -2.01093,-1.5 -1.70702,0 -2.06093,0.332251 -2.66294,2.5 -0.90234,3.249184 -0.88379,3.5 0.25893,3.5 0.52836,0 1.14607,0.3 1.37268,0.666667 0.25753,0.416697 -1.1173,0.666667 -3.66667,0.666667 -2.54936,0 -3.9242,-0.24997 -3.66666,-0.666667 z m 18.96243,-0.736865 c -1.10447,-2.063722 -0.21639,-5.437042 1.98719,-7.548206 1.70195,-1.630568 2.25882,-1.79691 4.65837,-1.391509 1.49893,0.253244 2.72178,0.659075 2.71743,0.901845 -0.004,0.242771 -0.4508,2.091402 -0.99209,4.108068 -1.17717,4.385684 -1.19625,4.666667 -0.31683,4.666667 0.37574,0 1.0115,-0.825 1.4128,-1.833333 0.40129,-1.008334 0.86332,-1.474965 1.02673,-1.03696 0.86203,2.310644 -2.51386,4.545797 -4.24745,2.812205 -0.5219,-0.521895 -0.85014,-0.521895 -1.17268,0 -0.80521,1.302856 -4.26033,0.840598 -5.07347,-0.678777 z m 4.93083,-0.478525 c 1.41486,-1.563403 2.22904,-7.090989 1.1433,-7.762015 -1.18173,-0.730345 -3.28838,1.532187 -4.04585,4.345216 -1.11073,4.124944 0.52215,6.047118 2.90255,3.416799 z m 68.42648,0.179651 c -0.47899,-1.259842 -0.27172,-3.199679 0.79729,-7.46196 1.04548,-4.168456 1.22884,-5.831454 0.66375,-6.019817 -1.56406,-0.521356 -0.72738,-1.482484 1.29054,-1.482484 1.52154,0 1.9743,0.252863 1.70576,0.952657 -0.20106,0.523962 -0.5597,1.987433 -0.79696,3.252158 -0.40554,2.161702 -0.33428,2.280937 1.18902,1.989739 3.34294,-0.639045 4.86262,3.209781 2.82396,7.152123 -1.89144,3.657637 -6.52626,4.634682 -7.67336,1.617584 z m 5.27812,-1.277961 c 1.1721,-2.445513 1.33489,-6.454627 0.27714,-6.825437 -2.05534,-0.720525 -5.23926,6.265052 -3.86731,8.484917 0.76904,1.244333 2.60519,0.395611 3.59017,-1.65948 z m -100.59786,-1.6863 v -2.666667 h -6 c -3.555558,0 -6.000005,-0.271604 -6.000005,-0.666666 0,-0.4 2.666667,-0.666667 6.666665,-0.666667 h 6.66667 v 3.333333 c 0,1.833334 -0.3,3.333334 -0.66667,3.333334 -0.36666,0 -0.66666,-1.2 -0.66666,-2.666667 z m 72.66666,0 v -2.666667 h -6 c -3.55555,0 -6,-0.271604 -6,-0.666666 0,-0.4 2.66667,-0.666667 6.66667,-0.666667 h 6.66667 v 3.333333 c 0,1.833334 -0.3,3.333334 -0.66667,3.333334 -0.36667,0 -0.66667,-1.2 -0.66667,-2.666667 z M 115.02283,30.961627 c -4.12132,-4.446974 -4.57717,-13.582978 -0.96215,-19.28326 2.4589,-3.8772902 3.87742,-3.9477428 1.61077,-0.08 -3.08167,5.25848 -3.05309,13.512944 0.0627,18.10431 2.04718,3.016696 1.6194,3.773834 -0.71132,1.258951 z M 210,32.372906 c 0,-0.275226 0.61392,-1.362587 1.36428,-2.416357 2.17374,-3.052739 3.06071,-8.575314 2.10769,-13.123215 -0.44181,-2.108334 -1.40373,-4.646186 -2.13763,-5.639672 -1.57066,-2.1262531 -1.66618,-2.6124865 -0.41919,-2.1339745 0.50333,0.193146 1.70333,1.7993285 2.66667,3.5692965 3.20692,5.892187 2.15528,15.055833 -2.17754,18.974342 C 210.63192,32.301821 210,32.648132 210,32.372906 Z M 231.41049,21.27981 C 227.23602,9.6211622 226.96554,8.6666668 227.83628,8.6666668 c 0.433,0 8.83039,22.4227532 8.83039,23.5789542 0,0.231575 -0.26528,0.421046 -0.58951,0.421046 -0.32424,0 -2.42424,-5.124085 -4.66667,-11.386857 z M 87.445602,23.833334 c -0.72428,-1.925 -2.095834,-5.560718 -3.0479,-8.079373 C 82.544308,10.850894 82.366541,10 83.195568,10 c 0.290894,0 0.99232,1.275 1.558734,2.833334 1.009246,2.776692 1.09728,2.837314 4.403553,3.032497 l 3.373713,0.199163 1.15812,-3.032496 C 94.326655,11.364624 95.107055,10 95.423908,10 c 0.316854,0 0.576094,0.203634 0.576094,0.45252 0,1.03632 -6.366987,16.880814 -6.783427,16.880814 -0.24976,0 -1.0467,-1.575 -1.770973,-3.5 z m 2.841893,-2 c 2.08684,-5.102564 2.07556,-5.166667 -0.909233,-5.166667 -1.49138,0 -2.71308,0.225 -2.714894,0.5 C 86.658702,17.904916 88.890502,24 89.165715,24 c 0.129613,0 0.634413,-0.975 1.12178,-2.166666 z m 66.604465,4.859475 c -2.78568,-1.172097 -2.64814,-4.230168 0.3107,-6.907879 1.03776,-0.93916 1.25074,-1.7624 0.97937,-3.785607 -0.46929,-3.498796 0.2088,-5.821924 1.85151,-6.3433015 3.08789,-0.9800573 4.36142,2.8145295 1.96646,5.8592265 -1.69472,2.15449 -1.68183,2.32904 0.39794,5.38969 l 1.73126,2.547783 1.60207,-2.357658 c 1.70757,-2.512913 2.0181,-3.761729 0.9354,-3.761729 C 166.3,17.333334 166,17.033334 166,16.666667 166,16.3 167.2,16 168.66667,16 c 2.73116,0 3.62972,0.925982 1.45134,1.49564 -0.66843,0.174797 -2.04104,1.726798 -3.05025,3.44889 -1.46593,2.50141 -1.67434,3.324576 -1.03638,4.093273 1.16954,1.409211 2.99074,1.175212 4.18568,-0.537803 0.57548,-0.825 1.06208,-1.125 1.08131,-0.666666 0.0193,0.458333 -0.59103,1.459331 -1.35614,2.224439 -1.06413,1.06413 -1.80845,1.272778 -3.16667,0.887688 -2.10498,-0.596816 -3.73013,-0.610849 -6.44222,-0.05563 -1.1,0.225193 -2.64862,0.136532 -3.44138,-0.197026 z m 5.00798,-1.283521 c 0.71158,-0.450941 0.48793,-1.139038 -1.06864,-3.287823 -2.14269,-2.957899 -3.49796,-2.746663 -3.49796,0.545202 0,2.829757 2.27398,4.195474 4.5666,2.742621 z M 162,12.585037 c 0,-1.220668 -0.34735,-1.91837 -0.95507,-1.91837 -1.19215,0 -1.94374,2.21833 -1.36712,4.0351 C 160.29869,16.65798 162,15.107194 162,12.585037 Z m 19.57134,14.087243 c -3.70377,-1.494655 -4.76424,-7.371626 -2.05547,-11.39116 2.94126,-4.36454 8.66962,-6.6191378 11.79511,-4.64238 0.62212,0.393467 1.29468,0.355207 1.84944,-0.105208 1.39044,-1.1539598 1.62322,-0.255157 0.79046,3.052042 C 193.07434,17.066635 192,17.670449 192,14.682036 c 0,-2.497014 -2.40225,-4.274458 -4.92222,-3.641988 -3.61784,0.908022 -7.81974,8.104503 -6.64958,11.388561 1.28859,3.616443 5.07441,4.735448 7.5718,2.238058 1.73976,-1.739757 1.68702,-2.959006 -0.16666,-3.853003 -1.26102,-0.608167 -0.86272,-0.727234 2.5,-0.747341 3.52154,-0.02106 3.85625,0.08508 2.79823,0.887373 -0.66097,0.50121 -1.51,2.027636 -1.88674,3.392059 -0.46229,1.67431 -0.90441,2.26133 -1.35999,1.80575 -0.45558,-0.455582 -1.25093,-0.374539 -2.4466,0.249298 -1.99147,1.039049 -3.76186,1.12097 -5.8669,0.271477 z M 12,26.316833 c 0,-0.192408 0.75,-0.634983 1.666667,-0.983499 1.608208,-0.611439 1.666667,-0.845141 1.666667,-6.662868 v -6.029202 l -1.666667,0.418307 C 12.727984,13.295166 12,13.189063 12,12.816657 c 0,-0.363671 0.675,-0.807615 1.5,-0.986541 0.825,-0.178926 2.025,-0.545996 2.666667,-0.815711 1.070519,-0.449976 1.166667,0.119842 1.166667,6.914269 0,6.960215 0.08003,7.40466 1.333333,7.40466 0.733333,0 1.333333,0.3 1.333333,0.666667 0,0.37037 -1.777778,0.666666 -4,0.666666 -2.2,0 -4,-0.157425 -4,-0.349834 z m 12.458334,-0.08072 C 23.514657,25.292435 24.048646,24 25.382216,24 c 0.931975,0 1.312004,0.362034 1.166667,1.111423 -0.237962,1.226986 -1.376001,1.839237 -2.090549,1.124689 z m 71.541668,-0.961601 c 0,-0.700981 0.45,-1.274511 1,-1.274511 0.55,0 1,0.475 1,1.055556 0,1.781995 1.527366,0.661919 2.403358,-1.762468 1.02484,-2.83639 1.148,-5.746319 0.26626,-6.291268 -0.36505,-0.225612 -1.415052,0.40049 -2.333338,1.391337 -1.848427,1.99448 -2.255694,1.40693 -0.631814,-0.911486 1.077347,-1.538129 3.889372,-2.011529 4.648872,-0.782632 0.29744,0.481255 0.71366,0.465311 1.33599,-0.05117 1.42689,-1.184218 3.97734,-0.530916 3.97734,1.018801 0,0.740741 -0.44445,1.333333 -1,1.333333 -0.55,0 -0.96229,-0.501276 -0.91619,-1.113946 0.16694,-2.218979 -1.7434,-0.386955 -2.44958,2.349162 -0.39248,1.520631 -0.86642,3.291262 -1.05321,3.934735 -0.6298,2.169572 1.81299,2.24513 3.52227,0.108948 1.70572,-2.131734 2.16864,-1.439711 0.56678,0.847274 -0.85623,1.222429 -1.65442,1.422847 -5.66667,1.422847 -4.153775,0 -4.670068,-0.140901 -4.670068,-1.274509 z M 119,26.000001 c 0.22662,-0.366667 0.83276,-0.666667 1.34698,-0.666667 0.52005,0 1.22431,-1.109453 1.58696,-2.5 1.63681,-6.276102 2.73273,-10.726094 2.73273,-11.09623 0,-0.222074 -0.46771,-0.40377 -1.03935,-0.40377 -0.57164,0 -0.85393,-0.3 -0.62732,-0.666667 0.62662,-1.0138941 12.30792,-0.8601708 12.66484,0.166667 0.15931,0.458333 0.0306,1.883333 -0.28602,3.166666 -0.48036,1.947049 -0.58696,2.051898 -0.64391,0.633334 -0.0979,-2.438565 -1.27351,-3.3 -4.50357,-3.3 -2.70851,0 -2.86638,0.111822 -3.52962,2.5 -0.38185,1.375 -0.69596,2.875 -0.698,3.333333 -0.006,1.409161 3.10114,0.923345 4.26421,-0.666667 1.08063,-1.477313 1.09063,-1.464709 0.66149,0.833334 -0.23964,1.283333 -0.67779,2.933333 -0.97364,3.666666 -0.51039,1.265079 -0.54009,1.256547 -0.58018,-0.166666 -0.034,-1.207377 -0.42632,-1.5 -2.01093,-1.5 -1.70703,0 -2.06093,0.33225 -2.66295,2.5 -0.90234,3.249184 -0.88378,3.5 0.25894,3.5 0.52836,0 1.14606,0.3 1.37268,0.666667 0.25753,0.416696 -1.1173,0.666666 -3.66667,0.666666 -2.54937,0 -3.9242,-0.24997 -3.66667,-0.666666 z m 18.33334,-0.72549 c 0,-0.700981 0.45,-1.274511 1,-1.274511 0.55,0 1,0.475 1,1.055556 0,1.781995 1.52736,0.661919 2.40335,-1.762468 1.02485,-2.83639 1.14801,-5.746319 0.26626,-6.291268 -0.36505,-0.225612 -1.41505,0.40049 -2.33333,1.391337 -1.84843,1.99448 -2.2557,1.40693 -0.63182,-0.911486 1.07735,-1.538129 3.88938,-2.011529 4.64888,-0.782632 0.29743,0.481255 0.71365,0.465311 1.33598,-0.05117 C 146.44955,15.463648 149,16.11695 149,17.666667 149,18.407408 148.55556,19 148,19 c -0.55,0 -0.96228,-0.501276 -0.91619,-1.113946 0.16694,-2.218979 -1.7434,-0.386955 -2.44958,2.349162 -0.39247,1.520631 -0.86641,3.291262 -1.05321,3.934735 -0.6298,2.169572 1.81299,2.24513 3.52227,0.108948 1.70572,-2.131734 2.16865,-1.439711 0.56678,0.847274 -0.85623,1.222429 -1.65441,1.422847 -5.66667,1.422847 -4.15377,0 -4.67006,-0.140901 -4.67006,-1.274509 z m 58.66666,0 C 196,24.57353 196.45,24 197,24 c 0.55,0 1,0.475 1,1.055556 0,1.781995 1.52737,0.661919 2.40336,-1.762468 1.02484,-2.83639 1.148,-5.746319 0.26626,-6.291268 -0.36505,-0.225612 -1.41505,0.40049 -2.33334,1.391337 -1.84842,1.99448 -2.25569,1.40693 -0.63181,-0.911486 1.07735,-1.538129 3.88937,-2.011529 4.64887,-0.782632 0.29744,0.481255 0.71366,0.465311 1.33599,-0.05117 1.42689,-1.184218 3.97734,-0.530916 3.97734,1.018801 0,0.740741 -0.44445,1.333333 -1,1.333333 -0.55,0 -0.96229,-0.501276 -0.91619,-1.113946 0.16694,-2.218979 -1.7434,-0.386955 -2.44958,2.349162 -0.39248,1.520631 -0.86642,3.291262 -1.05321,3.934735 -0.6298,2.169572 1.81299,2.24513 3.52227,0.108948 1.70572,-2.131734 2.16864,-1.439711 0.56678,0.847274 -0.85623,1.222429 -1.65442,1.422847 -5.66667,1.422847 C 196.5163,26.54902 196,26.408119 196,25.274511 Z m 42.6291,-0.01137 c -1.10447,-2.063722 -0.21638,-5.437042 1.9872,-7.548207 1.70194,-1.630567 2.25881,-1.79691 4.65836,-1.391508 1.49894,0.253244 2.72178,0.659074 2.71743,0.901845 -0.004,0.242769 -0.45079,2.0914 -0.99209,4.108067 -1.17716,4.385684 -1.19624,4.666667 -0.31683,4.666667 0.37574,0 1.0115,-0.825 1.4128,-1.833334 0.40129,-1.008333 0.86333,-1.474965 1.02673,-1.036959 0.86204,2.310643 -2.51386,4.545797 -4.24745,2.812205 -0.5219,-0.521896 -0.85013,-0.521896 -1.17268,0 -0.80521,1.302856 -4.26033,0.840598 -5.07347,-0.678777 z m 4.93083,-0.478525 c 1.41486,-1.563403 2.22904,-7.09099 1.1433,-7.762016 -1.18173,-0.730344 -3.28837,1.532188 -4.04585,4.345217 -1.11072,4.124944 0.52215,6.047118 2.90255,3.416799 z"
       id="path852" />
  </g>
</svg>
