<?xml version="1.0" encoding="UTF-8" standalone="no"?>
<svg
   xmlns:dc="http://purl.org/dc/elements/1.1/"
   xmlns:cc="http://creativecommons.org/ns#"
   xmlns:rdf="http://www.w3.org/1999/02/22-rdf-syntax-ns#"
   xmlns:svg="http://www.w3.org/2000/svg"
   xmlns="http://www.w3.org/2000/svg"
   xmlns:sodipodi="http://sodipodi.sourceforge.net/DTD/sodipodi-0.dtd"
   xmlns:inkscape="http://www.inkscape.org/namespaces/inkscape"
   version="1.1"
   id="svg922"
   width="368.67017"
   height="457.98157"
   viewBox="0 0 368.67016 457.98157"
   sodipodi:docname="10-4-3.svg"
   inkscape:version="1.0.1 (c497b03c, 2020-09-10)">
  <metadata
     id="metadata928">
    <rdf:RDF>
      <cc:Work
         rdf:about="">
        <dc:format>image/svg+xml</dc:format>
        <dc:type
           rdf:resource="http://purl.org/dc/dcmitype/StillImage" />
        <dc:title></dc:title>
      </cc:Work>
    </rdf:RDF>
  </metadata>
  <defs
     id="defs926" />
  <sodipodi:namedview
     pagecolor="#ffffff"
     bordercolor="#666666"
     borderopacity="1"
     objecttolerance="10"
     gridtolerance="10"
     guidetolerance="10"
     inkscape:pageopacity="0"
     inkscape:pageshadow="2"
     inkscape:window-width="740"
     inkscape:window-height="480"
     id="namedview924"
     showgrid="false"
     fit-margin-top="0"
     fit-margin-left="0"
     fit-margin-right="0"
     fit-margin-bottom="0"
     inkscape:pagecheckerboard="true"
     inkscape:zoom="0.35605215"
     inkscape:cx="-29.243834"
     inkscape:cy="91.307128"
     inkscape:window-x="0"
     inkscape:window-y="25"
     inkscape:window-maximized="0"
     inkscape:current-layer="g930" />
  <g
     inkscape:groupmode="layer"
     inkscape:label="Image"
     id="g930"
     transform="translate(-7.3333335,-13.333333)">
    <path
       style="fill:#1d1d1d;stroke-width:0.666667"
       d="m 216,470.86143 c 0,-0.25954 1.11089,-1.60954 2.46864,-3 l 2.46863,-2.5281 -2.59199,-2.65443 c -3.38164,-3.46313 -2.46283,-4.38194 1.0003,-1.00029 l 2.65442,2.59198 2.66667,-2.60393 c 3.16373,-3.0893 3.65121,-1.74593 0.53364,1.47059 l -2.13303,2.20072 2.47992,2.53968 c 3.2372,3.31519 2.31018,4.23798 -1.0052,1.0006 l -2.542,-2.48219 -2.5281,2.46863 C 217.02518,471.25384 216,471.84344 216,470.86143 Z M 10.351191,442.25595 c -1.2926442,-1.29265 -1.0214822,-2.50256 0.632725,-2.8232 0.938072,-0.18183 1.125213,0.0779 0.840503,1.16666 -0.263789,1.00874 -0.05731,1.39773 0.737995,1.39038 1.664586,-0.0154 2.612319,-0.81918 3.395879,-2.8801 0.971146,-2.5543 0.933891,-3.60188 -0.09163,-2.57636 -1.177343,1.17734 -4.170532,0.97327 -5.378067,-0.36667 -2.4094245,-2.67361 -1.7055725,-7.96786 1.207935,-9.08588 4.23163,-1.62383 6.970132,1.143 6.970132,7.04223 0,4.57097 -1.17828,7.28856 -3.648039,8.41386 -2.340914,1.06659 -3.382619,1.0039 -4.667437,-0.28092 z m 4.896554,-6.48616 c 2.171834,-2.6169 0.995117,-8.34012 -1.618069,-7.86983 -1.706814,0.30717 -2.27374,1.29345 -2.286134,3.97719 -0.01834,3.97085 2.092578,6.07551 3.904203,3.89264 z M 212.238,442.67227 c -3.70376,-1.49465 -4.76423,-7.37162 -2.05546,-11.39116 2.94126,-4.36454 8.66962,-6.61914 11.7951,-4.64238 0.62212,0.39347 1.29468,0.35521 1.84945,-0.1052 1.39043,-1.15396 1.62322,-0.25516 0.79045,3.05204 -0.87654,3.48106 -1.95087,4.08487 -1.95087,1.09646 0,-2.49702 -2.40225,-4.27446 -4.92222,-3.64199 -3.61784,0.90802 -7.81975,8.10451 -6.64959,11.38856 1.2886,3.61645 5.07442,4.73545 7.57181,2.23806 1.73976,-1.73976 1.68701,-2.95901 -0.16667,-3.85301 -1.26102,-0.60816 -0.86272,-0.72723 2.5,-0.74734 3.52155,-0.0211 3.85626,0.0851 2.79824,0.88738 -0.66097,0.50121 -1.51,2.02764 -1.88674,3.39206 -0.4623,1.67431 -0.90441,2.26133 -1.35999,1.80575 -0.45559,-0.45559 -1.25093,-0.37454 -2.4466,0.24929 -1.99147,1.03906 -3.76186,1.12098 -5.86691,0.27148 z M 21.791667,442.23611 c -0.943677,-0.94368 -0.409688,-2.23612 0.923883,-2.23612 0.931974,0 1.312003,0.36204 1.166666,1.11142 -0.237962,1.22699 -1.376001,1.83924 -2.090549,1.1247 z m 205.528083,-1.27186 c -0.47899,-1.25984 -0.27173,-3.19968 0.79729,-7.46196 1.04548,-4.16845 1.22884,-5.83145 0.66375,-6.01981 -1.56407,-0.52136 -0.72738,-1.48249 1.29054,-1.48249 1.52153,0 1.97429,0.25287 1.70575,0.95266 -0.20106,0.52396 -0.55969,1.98743 -0.79695,3.25216 -0.40554,2.1617 -0.33429,2.28094 1.18902,1.98974 3.34294,-0.63905 4.86262,3.20978 2.82395,7.15212 -1.89144,3.65764 -6.52625,4.63468 -7.67335,1.61758 z m 5.27812,-1.27796 c 1.1721,-2.44551 1.33489,-6.45462 0.27713,-6.82543 -2.05533,-0.72053 -5.23926,6.26505 -3.8673,8.48491 0.76904,1.24434 2.60519,0.39562 3.59017,-1.65948 z M 10.30303,413.69696 c -1.9951312,-1.99513 -2.0446892,-2.99805 -0.260242,-5.26661 1.270828,-1.6156 1.296333,-1.86337 0.333334,-3.23824 -1.4016478,-2.00114 -1.3128052,-3.58876 0.290545,-5.19212 1.594639,-1.59464 4.829739,-1.74168 6.285714,-0.28571 1.375279,1.37528 1.349587,4.71713 -0.04225,5.49605 -0.979326,0.54806 -0.945516,0.75428 0.333333,2.03312 1.40204,1.40204 1.870419,4.38953 0.912995,5.82341 -0.732097,1.09641 -3.215026,2.26647 -4.8096,2.26647 -0.774105,0 -2.143828,-0.73637 -3.043829,-1.63637 z m 6.337058,-0.66494 c 1.226846,-1.47826 0.577659,-3.16345 -1.74013,-4.51711 -1.92279,-1.12298 -2.183861,-1.13578 -3.164488,-0.15515 -1.261802,1.26181 -1.39783,3.71121 -0.268803,4.84023 1.104611,1.10462 4.200698,1.00409 5.173421,-0.16797 z m -0.773421,-8.49869 c 1.257579,-1.25758 0.942251,-3.74363 -0.578039,-4.55726 -1.071956,-0.5737 -1.738299,-0.50146 -3,0.32524 -2.07431,1.35914 -2.040294,1.94203 0.211372,3.62196 2.171215,1.6199 2.328347,1.64838 3.366667,0.61006 z m 323.022913,9.75264 c -0.66271,-1.72701 0.903,-6.78526 3.11464,-10.06229 l 1.95067,-2.89035 h -3.27764 c -2.41827,0 -3.45582,0.30589 -3.95718,1.16666 -0.61221,1.0511 -0.68152,1.02348 -0.69979,-0.2788 -0.0439,-3.13077 0.44137,-3.4164 5.18701,-3.05295 2.45266,0.18783 4.57298,0.44041 4.71181,0.56129 0.13884,0.12087 -0.73421,1.75731 -1.94009,3.63653 -1.62484,2.53207 -2.29436,4.46675 -2.58577,7.47195 -0.39131,4.03538 -1.62583,5.73552 -2.50366,3.44796 z m 22.66905,0.40683 c -2.78568,-1.17209 -2.64814,-4.23017 0.3107,-6.90788 1.03776,-0.93916 1.25074,-1.7624 0.97937,-3.78561 -0.46929,-3.49879 0.2088,-5.82192 1.85151,-6.3433 3.08789,-0.98005 4.36142,2.81454 1.96646,5.85923 -1.69472,2.15449 -1.68183,2.32904 0.39794,5.38969 l 1.73126,2.54778 1.60207,-2.35766 c 1.70757,-2.51291 2.0181,-3.76172 0.9354,-3.76172 -0.36667,0 -0.66667,-0.3 -0.66667,-0.66667 0,-0.36667 1.2,-0.66667 2.66667,-0.66667 2.73116,0 3.62972,0.92598 1.45134,1.49564 -0.66843,0.1748 -2.04104,1.7268 -3.05025,3.44889 -1.46593,2.50141 -1.67434,3.32458 -1.03638,4.09327 1.16954,1.40922 2.99074,1.17522 4.18568,-0.5378 0.57548,-0.825 1.06208,-1.125 1.08131,-0.66666 0.0193,0.45833 -0.59103,1.45933 -1.35614,2.22444 -1.06413,1.06412 -1.80845,1.27278 -3.16667,0.88768 -2.10498,-0.59681 -3.73013,-0.61084 -6.44222,-0.0556 -1.1,0.2252 -2.64862,0.13654 -3.44138,-0.19702 z m 5.00798,-1.28352 c 0.71158,-0.45094 0.48793,-1.13903 -1.06864,-3.28782 -2.14269,-2.9579 -3.49796,-2.74667 -3.49796,0.5452 0,2.82976 2.27398,4.19547 4.5666,2.74262 z m 0.10006,-12.82425 c 0,-1.22067 -0.34735,-1.91837 -0.95507,-1.91837 -1.19215,0 -1.94374,2.21833 -1.36712,4.0351 0.62088,1.95621 2.32219,0.40543 2.32219,-2.11673 z M 21.791667,414.23611 c -0.943677,-0.94368 -0.409688,-2.23612 0.923883,-2.23612 0.931974,0 1.312003,0.36204 1.166666,1.11142 -0.237962,1.22699 -1.376001,1.83924 -2.090549,1.1247 z m 186.541673,-0.23612 c 0.22661,-0.36666 0.83275,-0.66666 1.34698,-0.66666 0.52004,0 1.2243,-1.10946 1.58696,-2.5 1.6368,-6.2761 2.73272,-10.7261 2.73272,-11.09623 0,-0.22208 -0.4677,-0.40377 -1.03934,-0.40377 -0.57164,0 -0.85394,-0.3 -0.62732,-0.66667 0.62662,-1.01389 12.30792,-0.86017 12.66483,0.16667 0.15931,0.45833 0.0306,1.88333 -0.28601,3.16666 -0.48037,1.94705 -0.58697,2.0519 -0.64392,0.63334 -0.0979,-2.43857 -1.2735,-3.3 -4.50357,-3.3 -2.70851,0 -2.86638,0.11182 -3.52961,2.5 -0.38186,1.375 -0.69596,2.875 -0.698,3.33333 -0.006,1.40916 3.10114,0.92335 4.2642,-0.66667 1.08063,-1.47731 1.09064,-1.4647 0.6615,0.83334 -0.23965,1.28333 -0.6778,2.93333 -0.97365,3.66666 -0.51039,1.26508 -0.54009,1.25655 -0.58018,-0.16666 -0.034,-1.20738 -0.42631,-1.5 -2.01093,-1.5 -1.70702,0 -2.06093,0.33225 -2.66294,2.5 -0.90234,3.24918 -0.88379,3.5 0.25893,3.5 0.52836,0 1.14607,0.3 1.37268,0.66666 0.25753,0.4167 -1.1173,0.66667 -3.66667,0.66667 -2.54936,0 -3.9242,-0.24997 -3.66666,-0.66667 z m 18.98641,-1.03574 c -0.47899,-1.25984 -0.27173,-3.19968 0.79729,-7.46196 1.04548,-4.16845 1.22884,-5.83145 0.66375,-6.01981 -1.56407,-0.52136 -0.72738,-1.48249 1.29054,-1.48249 1.52153,0 1.97429,0.25287 1.70575,0.95266 -0.20106,0.52396 -0.55969,1.98743 -0.79695,3.25216 -0.40554,2.1617 -0.33429,2.28094 1.18902,1.98974 3.34294,-0.63905 4.86262,3.20978 2.82395,7.15212 -1.89144,3.65764 -6.52625,4.63468 -7.67335,1.61758 z m 5.27812,-1.27796 c 1.1721,-2.44551 1.33489,-6.45462 0.27713,-6.82543 -2.05533,-0.72053 -5.23926,6.26505 -3.8673,8.48491 0.76904,1.24434 2.60519,0.39562 3.59017,-1.65948 z m -11.26453,-38.35296 c 0,-10.22222 0.24074,-16 0.66666,-16 0.42593,0 0.66667,5.77778 0.66667,16 0,10.22222 -0.24074,16 -0.66667,16 -0.42592,0 -0.66666,-5.77778 -0.66666,-16 z M 11.556243,348.95264 c -0.662713,-1.72701 0.902999,-6.78526 3.114635,-10.06229 L 16.621556,336 h -3.277652 c -2.418262,0 -3.4558185,0.30589 -3.9571712,1.16666 -0.6122093,1.0511 -0.6815293,1.02348 -0.6997933,-0.2788 -0.043907,-3.13077 0.4413753,-3.4164 5.1870105,-3.05295 2.452661,0.18783 4.572977,0.44041 4.711813,0.56129 0.138837,0.12087 -0.734208,1.75731 -1.940099,3.63653 -1.624829,2.53207 -2.294347,4.46675 -2.585763,7.47195 -0.391313,4.03538 -1.625834,5.73552 -2.503658,3.44796 z m 190.002387,0.40683 c -2.78569,-1.17209 -2.64814,-4.23017 0.31069,-6.90788 1.03776,-0.93916 1.25074,-1.7624 0.97938,-3.78561 -0.46929,-3.49879 0.2088,-5.82192 1.85151,-6.3433 3.08789,-0.98005 4.36142,2.81454 1.96646,5.85923 -1.69472,2.15449 -1.68183,2.32904 0.39793,5.38969 l 1.73126,2.54778 1.60208,-2.35766 c 1.70756,-2.51291 2.0181,-3.76172 0.9354,-3.76172 -0.36667,0 -0.66667,-0.3 -0.66667,-0.66667 0,-0.36667 1.2,-0.66667 2.66667,-0.66667 2.73116,0 3.62972,0.92598 1.45134,1.49564 -0.66843,0.1748 -2.04104,1.7268 -3.05026,3.44889 -1.46592,2.50141 -1.67434,3.32458 -1.03638,4.09327 1.16954,1.40922 2.99074,1.17522 4.18568,-0.5378 0.57549,-0.825 1.06208,-1.125 1.08132,-0.66666 0.0193,0.45833 -0.59104,1.45933 -1.35614,2.22444 -1.06413,1.06412 -1.80845,1.27278 -3.16667,0.88768 -2.10498,-0.59681 -3.73013,-0.61084 -6.44223,-0.0556 -1.1,0.2252 -2.64862,0.13654 -3.44137,-0.19702 z m 5.00797,-1.28352 c 0.71159,-0.45094 0.48794,-1.13903 -1.06864,-3.28782 -2.14268,-2.9579 -3.49796,-2.74667 -3.49796,0.5452 0,2.82976 2.27399,4.19547 4.5666,2.74262 z m 0.10007,-12.82425 c 0,-1.22067 -0.34735,-1.91837 -0.95507,-1.91837 -1.19216,0 -1.94374,2.21833 -1.36712,4.0351 0.62088,1.95621 2.32219,0.40543 2.32219,-2.11673 z m 18.90467,14.08724 c -3.70377,-1.49465 -4.76424,-7.37162 -2.05547,-11.39116 2.94126,-4.36454 8.66962,-6.61914 11.79511,-4.64238 0.62212,0.39347 1.29468,0.35521 1.84944,-0.1052 1.39044,-1.15396 1.62322,-0.25516 0.79046,3.05204 C 237.07434,339.7333 236,340.33711 236,337.3487 c 0,-2.49702 -2.40225,-4.27446 -4.92222,-3.64199 -3.61784,0.90802 -7.81974,8.10451 -6.64958,11.38856 1.28859,3.61645 5.07441,4.73545 7.5718,2.23806 1.73976,-1.73976 1.68702,-2.95901 -0.16666,-3.85301 -1.26102,-0.60816 -0.86272,-0.72723 2.5,-0.74734 3.52154,-0.0211 3.85625,0.0851 2.79823,0.88738 -0.66097,0.50121 -1.51,2.02764 -1.88674,3.39206 -0.46229,1.67431 -0.90441,2.26133 -1.35999,1.80575 -0.45558,-0.45559 -1.25093,-0.37454 -2.4466,0.24929 -1.99147,1.03906 -3.76186,1.12098 -5.8669,0.27148 z m 35.42774,-2.28037 c -0.97299,-1.66029 -1.57812,-3.32767 -1.34473,-3.70531 0.76576,-1.23902 2.11641,-0.72 2.96331,1.13873 l 0.83167,1.82533 1.61961,-3.4077 c 1.72399,-3.62731 7.80864,-10.24296 9.42082,-10.24296 0.53127,0 -0.43089,1.35758 -2.13814,3.01682 -1.92745,1.87328 -3.86419,4.71622 -5.10934,7.5 -3.57104,7.98383 -3.76482,8.10412 -6.2432,3.87509 z M 359.44561,346.5 c -0.72428,-1.925 -2.09584,-5.56072 -3.0479,-8.07938 -1.8534,-4.90306 -2.03116,-5.75396 -1.20214,-5.75396 0.2909,0 0.99232,1.275 1.55874,2.83334 1.00924,2.77669 1.09728,2.83731 4.40355,3.0325 l 3.37371,0.19916 1.15812,-3.0325 c 0.63697,-1.66787 1.41737,-3.0325 1.73422,-3.0325 0.31686,0 0.5761,0.20364 0.5761,0.45252 0,1.03632 -6.36699,16.88082 -6.78343,16.88082 -0.24976,0 -1.0467,-1.575 -1.77097,-3.5 z m 2.84189,-2 c 2.08684,-5.10257 2.07556,-5.16667 -0.90923,-5.16667 -1.49138,0 -2.71308,0.225 -2.7149,0.5 -0.005,0.73825 2.22714,6.83333 2.50235,6.83333 0.12961,0 0.63441,-0.975 1.12178,-2.16666 z M 21.125,348.90278 c -0.943676,-0.94368 -0.409688,-2.23612 0.923883,-2.23612 0.931975,0 1.312003,0.36204 1.166667,1.11142 -0.237962,1.22699 -1.376002,1.83924 -2.09055,1.1247 z M 167,348.66666 C 167.22662,348.3 167.83276,348 168.34698,348 c 0.52005,0 1.22431,-1.10946 1.58696,-2.5 1.63681,-6.2761 2.73273,-10.7261 2.73273,-11.09623 0,-0.22208 -0.46771,-0.40377 -1.03935,-0.40377 -0.57164,0 -0.85393,-0.3 -0.62732,-0.66667 0.62662,-1.01389 12.30792,-0.86017 12.66484,0.16667 0.15931,0.45833 0.0306,1.88333 -0.28602,3.16666 -0.48036,1.94705 -0.58696,2.0519 -0.64391,0.63334 -0.0979,-2.43857 -1.27351,-3.3 -4.50357,-3.3 -2.70851,0 -2.86638,0.11182 -3.52962,2.5 -0.38185,1.375 -0.69596,2.875 -0.698,3.33333 -0.006,1.40916 3.10114,0.92335 4.26421,-0.66667 1.08063,-1.47731 1.09063,-1.4647 0.66149,0.83334 -0.23964,1.28333 -0.67779,2.93333 -0.97364,3.66666 -0.51039,1.26508 -0.54009,1.25655 -0.58018,-0.16666 -0.034,-1.20738 -0.42632,-1.5 -2.01093,-1.5 -1.70703,0 -2.06093,0.33225 -2.66295,2.5 -0.90234,3.24918 -0.88378,3.5 0.25894,3.5 0.52836,0 1.14606,0.3 1.37268,0.66666 0.25753,0.4167 -1.1173,0.66667 -3.66667,0.66667 -2.54937,0 -3.9242,-0.24997 -3.66667,-0.66667 z m 18.98642,-1.03574 c -0.479,-1.25984 -0.27173,-3.19968 0.79728,-7.46196 1.04548,-4.16845 1.22884,-5.83145 0.66376,-6.01981 -1.56407,-0.52136 -0.72738,-1.48249 1.29054,-1.48249 1.52153,0 1.97429,0.25287 1.70575,0.95266 -0.20106,0.52396 -0.55969,1.98743 -0.79695,3.25216 -0.40554,2.1617 -0.33429,2.28094 1.18902,1.98974 3.34294,-0.63905 4.86262,3.20978 2.82395,7.15212 -1.89144,3.65764 -6.52625,4.63468 -7.67335,1.61758 z m 5.27812,-1.27796 c 1.1721,-2.44551 1.33488,-6.45462 0.27713,-6.82543 -2.05533,-0.72053 -5.23926,6.26505 -3.86731,8.48491 0.76904,1.24434 2.6052,0.39562 3.59018,-1.65948 z m 49.38854,1.27796 c -0.47899,-1.25984 -0.27172,-3.19968 0.79729,-7.46196 1.04548,-4.16845 1.22884,-5.83145 0.66375,-6.01981 -1.56406,-0.52136 -0.72738,-1.48249 1.29054,-1.48249 1.52154,0 1.9743,0.25287 1.70576,0.95266 -0.20106,0.52396 -0.5597,1.98743 -0.79696,3.25216 -0.40554,2.1617 -0.33428,2.28094 1.18902,1.98974 3.34294,-0.63905 4.86262,3.20978 2.82396,7.15212 -1.89144,3.65764 -6.52626,4.63468 -7.67336,1.61758 z m 5.27812,-1.27796 c 1.1721,-2.44551 1.33489,-6.45462 0.27714,-6.82543 -2.05534,-0.72053 -5.23926,6.26505 -3.86731,8.48491 0.76904,1.24434 2.60519,0.39562 3.59017,-1.65948 z m 90.73547,2.63054 c 0,-0.19241 0.75,-0.63499 1.66667,-0.9835 1.60821,-0.61144 1.66667,-0.84514 1.66667,-6.66287 v -6.0292 l -1.66667,0.41831 c -0.93868,0.23559 -1.66667,0.12948 -1.66667,-0.24292 0,-0.36367 0.675,-0.80762 1.5,-0.98654 0.825,-0.17893 2.025,-0.546 2.66667,-0.81571 1.07052,-0.44998 1.16667,0.11984 1.16667,6.91427 0,6.96021 0.08,7.40466 1.33333,7.40466 0.73333,0 1.33333,0.3 1.33333,0.66666 0,0.37038 -1.77778,0.66667 -4,0.66667 -2.2,0 -4,-0.15743 -4,-0.34983 z M 221.33334,308 c 0,-10.22222 0.24074,-16 0.66666,-16 0.42593,0 0.66667,5.77778 0.66667,16 0,10.22222 -0.24074,16 -0.66667,16 -0.42592,0 -0.66666,-5.77778 -0.66666,-16 z m -102.66667,3.5281 c 0,-0.25954 1.11089,-1.60954 2.46863,-3 l 2.46864,-2.5281 -2.59199,-2.65443 c -3.38165,-3.46313 -2.46283,-4.38194 1.00029,-1.00029 l 2.65443,2.59198 2.66667,-2.60393 c 3.16372,-3.0893 3.6512,-1.74593 0.53364,1.47059 l -2.13304,2.20072 2.47993,2.53968 c 3.2372,3.31519 2.31017,4.23798 -1.00521,1.0006 l -2.54199,-2.48219 -2.52811,2.46863 c -2.44671,2.38915 -3.47189,2.97875 -3.47189,1.99674 z M 11.01388,283.07448 c -5.3497274,-5.34972 -0.572124,-17.16554 5.931596,-14.66982 1.393304,0.53466 1.404048,3.59534 0.01262,3.59534 -0.68721,0 -0.970902,-0.48955 -0.833334,-1.43804 0.479857,-3.30844 -3.692117,-1.14569 -4.519954,2.34314 -0.418954,1.76565 -0.351363,1.85123 0.923278,1.16906 2.946546,-1.57694 6.138581,1.01304 6.138581,4.98078 0,2.283 -0.348617,3.1225 -1.756573,4.23 -2.293841,1.80434 -3.940182,1.74558 -5.896214,-0.21046 z m 4.962664,-1.03066 c 1.548735,-2.89383 0.347529,-7.37716 -1.976544,-7.37716 -1.515202,0 -2.666666,1.87113 -2.666666,4.33334 0,2.4622 1.151464,4.33333 2.666666,4.33333 0.707532,0 1.596977,-0.58028 1.976544,-1.28951 z M 220.238,284.00561 c -3.70376,-1.49465 -4.76423,-7.37163 -2.05546,-11.39116 2.94126,-4.36454 8.66962,-6.61914 11.7951,-4.64238 0.62212,0.39347 1.29468,0.35521 1.84945,-0.10521 1.39043,-1.15396 1.62322,-0.25516 0.79045,3.05204 -0.87654,3.48106 -1.95087,4.08488 -1.95087,1.09646 0,-2.49701 -2.40225,-4.27445 -4.92222,-3.64198 -3.61784,0.90802 -7.81975,8.1045 -6.64959,11.38856 1.2886,3.61644 5.07442,4.73545 7.57181,2.23806 1.73976,-1.73976 1.68701,-2.95901 -0.16667,-3.85301 -1.26102,-0.60817 -0.86272,-0.72723 2.5,-0.74734 3.52155,-0.0211 3.85626,0.0851 2.79824,0.88737 -0.66097,0.50122 -1.51,2.02764 -1.88674,3.39206 -0.4623,1.67432 -0.90441,2.26134 -1.35999,1.80576 -0.45559,-0.45559 -1.25093,-0.37454 -2.4466,0.24929 -1.99147,1.03905 -3.76186,1.12097 -5.86691,0.27148 z m 138.79915,-6.36025 c -1.72372,-3.86172 -2.99825,-7.38672 -2.83228,-7.83334 0.2991,-0.80483 5.79514,10.31125 5.79514,11.72102 0,1.39937 1.10045,-0.51647 3.6679,-6.38566 1.4081,-3.21894 2.8076,-5.60521 3.10999,-5.30282 0.55039,0.55038 -5.41122,14.81939 -6.19229,14.82116 -0.22793,5.2e-4 -1.82473,-3.15864 -3.54846,-7.02036 z m -337.245483,5.92408 c -0.943677,-0.94368 -0.409688,-2.23611 0.923883,-2.23611 0.931974,0 1.312003,0.36203 1.166666,1.11142 -0.237962,1.22699 -1.376001,1.83924 -2.090549,1.12469 z m 95.875003,-0.23611 c 0.22661,-0.36667 0.83275,-0.66667 1.34698,-0.66667 0.52005,0 1.22431,-1.10945 1.58696,-2.5 1.63681,-6.2761 2.73273,-10.72609 2.73273,-11.09622 0,-0.22208 -0.46771,-0.40378 -1.03935,-0.40378 -0.57164,0 -0.85393,-0.3 -0.62732,-0.66666 0.62662,-1.0139 12.30792,-0.86018 12.66483,0.16666 0.15932,0.45834 0.0306,1.88334 -0.28601,3.16667 -0.48037,1.94705 -0.58697,2.0519 -0.64391,0.63333 -0.0979,-2.43856 -1.27351,-3.3 -4.50358,-3.3 -2.7085,0 -2.86638,0.11182 -3.52961,2.5 -0.38185,1.375 -0.69596,2.875 -0.698,3.33334 -0.006,1.40916 3.10114,0.92334 4.26421,-0.66667 1.08062,-1.47731 1.09063,-1.46471 0.66149,0.83333 -0.23965,1.28334 -0.67779,2.93334 -0.97365,3.66667 -0.51038,1.26508 -0.54008,1.25655 -0.58018,-0.16667 -0.034,-1.20737 -0.42631,-1.5 -2.01092,-1.5 -1.70703,0 -2.06094,0.33226 -2.66295,2.5 -0.90234,3.24919 -0.88379,3.5 0.25893,3.5 0.52836,0 1.14607,0.3 1.37268,0.66667 0.25754,0.41669 -1.1173,0.66667 -3.66666,0.66667 -2.54937,0 -3.9242,-0.24998 -3.66667,-0.66667 z m 18.96243,-0.73687 c -1.10447,-2.06372 -0.21638,-5.43704 1.9872,-7.5482 1.70194,-1.63057 2.25881,-1.79691 4.65836,-1.39151 1.49894,0.25325 2.72178,0.65907 2.71743,0.90185 -0.005,0.24276 -0.45079,2.0914 -0.99209,4.10806 -1.17716,4.38569 -1.19624,4.66667 -0.31683,4.66667 0.37574,0 1.0115,-0.825 1.4128,-1.83333 0.40129,-1.00834 0.86333,-1.47497 1.02673,-1.03696 0.86204,2.31064 -2.51386,4.5458 -4.24745,2.8122 -0.5219,-0.5219 -0.85013,-0.5219 -1.17268,0 -0.80521,1.30286 -4.26033,0.8406 -5.07347,-0.67878 z m 4.93083,-0.47852 c 1.41486,-1.5634 2.22904,-7.09099 1.1433,-7.76202 -1.18173,-0.73034 -3.28837,1.53219 -4.04585,4.34522 -1.11072,4.12494 0.52215,6.04712 2.90255,3.4168 z m 93.75982,0.17965 c -0.47899,-1.25984 -0.27173,-3.19968 0.79729,-7.46196 1.04548,-4.16845 1.22884,-5.83145 0.66375,-6.01981 -1.56407,-0.52136 -0.72738,-1.48249 1.29054,-1.48249 1.52153,0 1.97429,0.25287 1.70575,0.95266 -0.20106,0.52396 -0.55969,1.98743 -0.79695,3.25215 -0.40554,2.16171 -0.33429,2.28094 1.18902,1.98974 3.34294,-0.63904 4.86262,3.20978 2.82395,7.15213 -1.89144,3.65763 -6.52625,4.63468 -7.67335,1.61758 z m 5.27812,-1.27796 c 1.1721,-2.44551 1.33489,-6.45463 0.27713,-6.82543 -2.05533,-0.72053 -5.23926,6.26504 -3.8673,8.48491 0.76904,1.24433 2.60519,0.39561 3.59017,-1.65948 z m 95.40214,2.35249 c 0,-0.34532 1.5,-2.342 3.33333,-4.43706 2.48567,-2.84051 3.33333,-4.34226 3.33333,-5.90546 0,-2.47019 -1.0263,-3.69627 -3.09398,-3.69627 -1.86442,0 -2.60154,1.09364 -1.57268,2.33333 0.906,1.09167 0.35292,2.33334 -1.03935,2.33334 -0.61883,0 -0.96065,-0.69819 -0.96065,-1.9622 0,-3.78154 5.14534,-5.40978 7.88379,-2.49484 2.37715,2.53036 1.87958,4.74881 -1.9805,8.83028 L 338.47327,282 h 2.66149 c 2.10127,0 2.81377,-0.31574 3.38492,-1.5 l 0.72342,-1.5 0.0451,1.44547 c 0.0972,3.11421 -0.52541,3.55453 -5.02622,3.55453 -2.3441,0 -4.262,-0.28254 -4.262,-0.62788 z M 114,279.33333 v -2.66667 h -6 c -3.55555,0 -6,-0.2716 -6,-0.66666 0,-0.4 2.66667,-0.66667 6.66667,-0.66667 h 6.66667 v 3.33333 c 0,1.83334 -0.3,3.33334 -0.66667,3.33334 C 114.3,282 114,280.8 114,279.33333 Z m 98.66667,0 v -2.66667 h -6 c -3.55555,0 -6,-0.2716 -6,-0.66666 0,-0.4 2.66667,-0.66667 6.66667,-0.66667 H 214 v 3.33333 C 214,280.5 213.7,282 213.33334,282 c -0.36667,0 -0.66667,-1.2 -0.66667,-2.66667 z M 124.68532,258.91 c 0.0103,-0.31717 10.95244,-7.84688 24.31596,-16.7327 l 24.2973,-16.15602 24.35071,16.06702 C 211.04218,250.92516 222,258.45711 222,258.82596 c 0,0.42038 -0.31096,0.44092 -0.83333,0.055 -0.45833,-0.33858 -11.4124,-7.62133 -24.34237,-16.18388 l -23.50903,-15.56827 -22.49097,14.98491 c -28.13517,18.74544 -26.16099,17.47688 -26.13898,16.79626 z M 10.815004,218.29553 c -1.8095065,-1.26743 -2.1061019,-4.9622 -0.398337,-4.9622 0.847168,0 0.996487,0.43423 0.684955,1.99189 -0.343891,1.71946 -0.171743,2.04877 1.258658,2.40778 0.942172,0.23647 2.084711,0.0609 2.648378,-0.40686 0.99921,-0.82926 1.348012,-4.9543 0.586683,-6.93828 -0.510677,-1.33081 -2.507558,-1.36523 -3.589249,-0.0619 C 10.650529,211.95934 10,210.81039 10,206.78288 v -3.8051 h 3.992593 c 3.868168,0 3.954593,0.038 2.773257,1.21933 -0.670635,0.67063 -2.167302,1.24629 -3.325926,1.27923 -1.818701,0.0517 -2.10659,0.30106 -2.10659,1.82458 0,1.61454 0.192965,1.74215 2.26802,1.4999 5.366935,-0.62656 7.24897,7.02431 2.350966,9.55717 -2.391988,1.23694 -3.297881,1.22593 -5.137316,-0.0625 z M 162.238,218.67228 c -3.70376,-1.49466 -4.76423,-7.37163 -2.05546,-11.39116 2.94126,-4.36454 8.66962,-6.61914 11.7951,-4.64238 0.62212,0.39346 1.29468,0.3552 1.84945,-0.10521 1.39043,-1.15396 1.62322,-0.25516 0.79045,3.05204 -0.87654,3.48106 -1.95087,4.08487 -1.95087,1.09646 0,-2.49701 -2.40225,-4.27445 -4.92222,-3.64199 -3.61784,0.90802 -7.81975,8.10451 -6.64959,11.38856 1.2886,3.61645 5.07442,4.73546 7.57181,2.23806 1.73976,-1.73976 1.68701,-2.959 -0.16667,-3.853 -1.26102,-0.60817 -0.86272,-0.72724 2.5,-0.74734 3.52155,-0.0211 3.85626,0.0851 2.79824,0.88737 -0.66097,0.50121 -1.51,2.02764 -1.88674,3.39206 -0.4623,1.67431 -0.90441,2.26133 -1.35999,1.80575 -0.45559,-0.45558 -1.25093,-0.37454 -2.4466,0.2493 -1.99147,1.03905 -3.76186,1.12097 -5.86691,0.27148 z M 21.791667,218.23611 C 20.84799,217.29243 21.381979,216 22.71555,216 c 0.931974,0 1.312003,0.36203 1.166666,1.11142 -0.237962,1.22698 -1.376001,1.83924 -2.090549,1.12469 z m 155.504103,-0.97298 c -1.10447,-2.06372 -0.21639,-5.43704 1.98719,-7.54821 1.70195,-1.63056 2.25882,-1.7969 4.65837,-1.3915 1.49893,0.25324 2.72178,0.65907 2.71743,0.90184 -0.005,0.24277 -0.4508,2.0914 -0.99209,4.10807 -1.17717,4.38569 -1.19625,4.66667 -0.31683,4.66667 0.37574,0 1.0115,-0.825 1.4128,-1.83334 0.40129,-1.00833 0.86332,-1.47496 1.02673,-1.03696 0.86203,2.31065 -2.51386,4.5458 -4.24745,2.81221 -0.5219,-0.5219 -0.85014,-0.5219 -1.17268,0 -0.80521,1.30285 -4.26033,0.84059 -5.07347,-0.67878 z m 4.93083,-0.47852 c 1.41486,-1.56341 2.22904,-7.09099 1.1433,-7.76202 -1.18173,-0.73035 -3.28838,1.53219 -4.04585,4.34522 -1.11073,4.12494 0.52215,6.04711 2.90255,3.4168 z m 154.74311,-27.08765 c -1.89258,-1.89256 -2.06544,-2.90749 -0.59156,-3.47308 1.50468,-0.5774 2.71054,0.79767 1.73272,1.97587 -0.93547,1.12717 -0.3621,1.80025 1.53358,1.80025 1.99155,0 3.02222,-1.25045 3.02222,-3.66667 0,-2.38846 -1.02159,-3.65809 -2.96666,-3.68694 -1.35771,-0.0201 -1.35793,-0.0251 -0.0333,-0.74955 2.90874,-1.59096 3.70839,-3.75989 2.01173,-5.45654 -1.54228,-1.54228 -3.54127,-0.69024 -3.15247,1.34368 0.2577,1.34804 0.0829,1.63568 -0.88029,1.44898 -1.77082,-0.34326 -1.91371,-1.63155 -0.35397,-3.1913 1.49213,-1.49212 4.04112,-1.779 6.0855,-0.68488 1.6065,0.85978 1.72224,4.11525 0.2004,5.63708 -1.0077,1.0077 -0.98278,1.16358 0.33333,2.08542 2.10929,1.47741 1.93372,5.08844 -0.33413,6.87233 -2.33018,1.83291 -4.60727,1.74515 -6.60706,-0.25465 z m 24.58892,0.99584 c -2.78568,-1.17209 -2.64814,-4.23016 0.3107,-6.90788 1.03776,-0.93916 1.25074,-1.7624 0.97937,-3.7856 -0.46929,-3.4988 0.2088,-5.82192 1.85151,-6.3433 3.08789,-0.98006 4.36142,2.81453 1.96646,5.85922 -1.69472,2.1545 -1.68183,2.32904 0.39794,5.3897 l 1.73126,2.54778 1.60207,-2.35766 c 1.70757,-2.51292 2.0181,-3.76173 0.9354,-3.76173 -0.36667,0 -0.66667,-0.3 -0.66667,-0.66667 0,-0.36666 1.2,-0.66666 2.66667,-0.66666 2.73116,0 3.62972,0.92598 1.45134,1.49564 -0.66843,0.1748 -2.04104,1.7268 -3.05025,3.44888 -1.46593,2.50142 -1.67434,3.32458 -1.03638,4.09328 1.16954,1.40921 2.99074,1.17521 4.18568,-0.5378 0.57548,-0.825 1.06208,-1.125 1.08131,-0.66667 0.0193,0.45833 -0.59103,1.45933 -1.35614,2.22444 -1.06413,1.06413 -1.80845,1.27278 -3.16667,0.88769 -2.10498,-0.59682 -3.73013,-0.61085 -6.44222,-0.0556 -1.1,0.22519 -2.64862,0.13653 -3.44138,-0.19703 z m 5.00798,-1.28352 c 0.71158,-0.45094 0.48793,-1.13903 -1.06864,-3.28782 -2.14269,-2.9579 -3.49796,-2.74666 -3.49796,0.5452 0,2.82976 2.27398,4.19548 4.5666,2.74262 z m 0.10006,-12.82424 c 0,-1.22068 -0.34735,-1.91838 -0.95507,-1.91838 -1.19215,0 -1.94374,2.21833 -1.36712,4.0351 0.62088,1.95622 2.32219,0.40543 2.32219,-2.11672 z M 11.333334,190 c 0,-0.36667 0.45,-0.66667 1,-0.66667 0.555555,0 1,-0.59259 1,-1.33333 0,-1.1358 -0.444445,-1.33334 -3,-1.33334 -1.6500005,0 -3.0000005,-0.30248 -3.0000005,-0.67218 0,-0.92068 6.8772245,-11.2941 7.5000005,-11.3128 0.275,-0.008 0.5,2.39465 0.5,5.3398 0,4.93005 0.118985,5.40264 1.5,5.95774 1.086806,0.43684 1.189465,0.61457 0.372678,0.64518 -1.91269,0.0717 -2.151527,1.49159 -0.468558,2.78558 l 1.59588,1.22704 -3.5,0.0148 c -1.925,0.008 -3.5,-0.28516 -3.5,-0.65182 z m 2,-7.66667 c 0,-2.01667 -0.105158,-3.66667 -0.233683,-3.66667 -0.271328,0 -4.4329842,6.61314 -4.4329842,7.0443 0,0.15897 1.05,0.28904 2.3333332,0.28904 h 2.333334 z M 21.125,190.23611 C 20.181324,189.29243 20.715312,188 22.048883,188 c 0.931975,0 1.312003,0.36203 1.166667,1.11142 -0.237962,1.22698 -1.376002,1.83924 -2.09055,1.12469 z M 158.33334,190 c 0.22661,-0.36667 0.83275,-0.66667 1.34698,-0.66667 0.52004,0 1.2243,-1.10945 1.58696,-2.5 1.6368,-6.2761 2.73272,-10.72609 2.73272,-11.09623 0,-0.22208 -0.4677,-0.40377 -1.03934,-0.40377 -0.57164,0 -0.85394,-0.3 -0.62732,-0.66667 0.62662,-1.01389 12.30792,-0.86017 12.66483,0.16667 0.15931,0.45833 0.0306,1.88333 -0.28601,3.16667 -0.48037,1.94704 -0.58697,2.0519 -0.64392,0.63333 -0.0979,-2.43857 -1.2735,-3.3 -4.50357,-3.3 -2.70851,0 -2.86638,0.11182 -3.52961,2.5 -0.38186,1.375 -0.69596,2.875 -0.698,3.33333 -0.006,1.40916 3.10114,0.92335 4.2642,-0.66666 1.08063,-1.47732 1.09064,-1.46471 0.6615,0.83333 -0.23965,1.28333 -0.6778,2.93333 -0.97365,3.66667 -0.51039,1.26508 -0.54009,1.25654 -0.58018,-0.16667 -0.034,-1.20737 -0.42631,-1.5 -2.01093,-1.5 -1.70702,0 -2.06093,0.33225 -2.66294,2.5 -0.90234,3.24919 -0.88379,3.5 0.25893,3.5 0.52836,0 1.14607,0.3 1.37268,0.66667 0.25753,0.41669 -1.1173,0.66666 -3.66667,0.66666 -2.54936,0 -3.9242,-0.24997 -3.66666,-0.66666 z m 18.96243,-0.73687 c -1.10447,-2.06372 -0.21639,-5.43704 1.98719,-7.54821 1.70195,-1.63056 2.25882,-1.7969 4.65837,-1.3915 1.49893,0.25324 2.72178,0.65907 2.71743,0.90184 -0.005,0.24277 -0.4508,2.0914 -0.99209,4.10807 -1.17717,4.38569 -1.19625,4.66667 -0.31683,4.66667 0.37574,0 1.0115,-0.825 1.4128,-1.83334 0.40129,-1.00833 0.86332,-1.47496 1.02673,-1.03696 0.86203,2.31065 -2.51386,4.5458 -4.24745,2.81221 -0.5219,-0.5219 -0.85014,-0.5219 -1.17268,0 -0.80521,1.30285 -4.26033,0.84059 -5.07347,-0.67878 z m 4.93083,-0.47852 c 1.41486,-1.56341 2.22904,-7.09099 1.1433,-7.76202 -1.18173,-0.73035 -3.28838,1.53219 -4.04585,4.34522 -1.11073,4.12494 0.52215,6.04711 2.90255,3.4168 z m -9.55993,-39.45128 c 0,-10.22222 0.24074,-16 0.66667,-16 0.42592,0 0.66666,5.77778 0.66666,16 0,10.22222 -0.24074,16 -0.66666,16 -0.42593,0 -0.66667,-5.77778 -0.66667,-16 z M 9.6363635,124.36363 c -1.892572,-1.89256 -2.0654394,-2.90749 -0.591552,-3.47308 1.5046805,-0.5774 2.7105345,0.79767 1.7327185,1.97587 -0.9354692,1.12716 -0.362093,1.80024 1.533582,1.80024 1.991548,0 3.022222,-1.25044 3.022222,-3.66666 0,-2.38846 -1.021595,-3.65809 -2.966667,-3.68694 -1.357707,-0.0201 -1.357925,-0.0251 -0.03333,-0.74955 2.908738,-1.59096 3.708384,-3.75989 2.011727,-5.45654 -1.542279,-1.54228 -3.541277,-0.69024 -3.152468,1.34368 0.257694,1.34804 0.08294,1.63568 -0.880291,1.44898 -1.7708192,-0.34326 -1.9137132,-1.63155 -0.3539685,-3.1913 1.4921275,-1.49212 4.0411135,-1.779 6.0854945,-0.68488 1.606504,0.85978 1.722236,4.11525 0.2004,5.63708 -1.007698,1.0077 -0.982782,1.16358 0.333333,2.08542 2.109285,1.47741 1.933716,5.08844 -0.334133,6.87233 -2.330171,1.83291 -4.60727,1.74515 -6.6070645,-0.25465 z m 143.2555965,0.99584 c -2.78568,-1.17209 -2.64814,-4.23016 0.3107,-6.90788 1.03776,-0.93916 1.25074,-1.7624 0.97937,-3.7856 -0.46929,-3.4988 0.2088,-5.82192 1.85151,-6.3433 3.08789,-0.98006 4.36142,2.81453 1.96646,5.85922 -1.69472,2.1545 -1.68183,2.32904 0.39794,5.3897 l 1.73126,2.54778 1.60207,-2.35766 C 163.43884,117.24881 163.74937,116 162.66667,116 162.3,116 162,115.7 162,115.33333 c 0,-0.36666 1.2,-0.66666 2.66667,-0.66666 2.73116,0 3.62972,0.92598 1.45134,1.49564 -0.66843,0.1748 -2.04104,1.7268 -3.05025,3.44888 -1.46593,2.50142 -1.67434,3.32458 -1.03638,4.09327 1.16954,1.40922 2.99074,1.17522 4.18568,-0.53779 0.57548,-0.825 1.06208,-1.125 1.08131,-0.66667 0.0193,0.45833 -0.59103,1.45933 -1.35614,2.22444 -1.06413,1.06412 -1.80845,1.27278 -3.16667,0.88768 -2.10498,-0.59681 -3.73013,-0.61084 -6.44222,-0.0556 -1.1,0.2252 -2.64862,0.13654 -3.44138,-0.19702 z m 5.00798,-1.28352 c 0.71158,-0.45094 0.48793,-1.13903 -1.06864,-3.28782 -2.14269,-2.9579 -3.49796,-2.74666 -3.49796,0.5452 0,2.82976 2.27398,4.19547 4.5666,2.74262 z M 158,111.25171 c 0,-1.22068 -0.34735,-1.91838 -0.95507,-1.91838 -1.19215,0 -1.94374,2.21833 -1.36712,4.0351 0.62088,1.95622 2.32219,0.40543 2.32219,-2.11672 z m 18.90467,14.08723 c -3.70377,-1.49465 -4.76423,-7.37162 -2.05547,-11.39115 2.94126,-4.36454 8.66962,-6.61914 11.79511,-4.64238 0.62212,0.39346 1.29468,0.3552 1.84945,-0.10521 1.39043,-1.15396 1.62322,-0.25516 0.79045,3.05204 -0.87654,3.48106 -1.95087,4.08487 -1.95087,1.09646 0,-2.49701 -2.40226,-4.27445 -4.92222,-3.64199 -3.61784,0.90802 -7.81975,8.10451 -6.64959,11.38856 1.28859,3.61645 5.07441,4.73545 7.57181,2.23806 1.73976,-1.73976 1.68701,-2.959 -0.16667,-3.853 -1.26102,-0.60817 -0.86272,-0.72724 2.5,-0.74734 3.52155,-0.0211 3.85625,0.0851 2.79823,0.88737 -0.66096,0.50121 -1.51,2.02764 -1.88674,3.39206 -0.46229,1.67431 -0.9044,2.26133 -1.35998,1.80575 -0.45559,-0.45559 -1.25094,-0.37454 -2.4466,0.24929 -1.99148,1.03906 -3.76186,1.12098 -5.86691,0.27148 z m 38.09441,-2.28037 c -0.97299,-1.66028 -1.57812,-3.32767 -1.34473,-3.7053 0.76576,-1.23903 2.11641,-0.72 2.96331,1.13872 l 0.83167,1.82533 1.61961,-3.40769 c 1.72399,-3.62732 7.80864,-10.24296 9.42082,-10.24296 0.53127,0 -0.43089,1.35757 -2.13814,3.01682 -1.92745,1.87327 -3.86419,4.71622 -5.10934,7.5 -3.57104,7.98382 -3.76482,8.10411 -6.2432,3.87508 z M 359.44561,122.5 c -0.72428,-1.925 -2.09584,-5.56072 -3.0479,-8.07937 -1.8534,-4.90307 -2.03116,-5.75396 -1.20214,-5.75396 0.2909,0 0.99232,1.275 1.55874,2.83333 1.00924,2.77669 1.09728,2.83731 4.40355,3.0325 l 3.37371,0.19916 1.15812,-3.03249 c 0.63697,-1.66788 1.41737,-3.0325 1.73422,-3.0325 0.31686,0 0.5761,0.20363 0.5761,0.45252 0,1.03632 -6.36699,16.88081 -6.78343,16.88081 -0.24976,0 -1.0467,-1.575 -1.77097,-3.5 z m 2.84189,-2 c 2.08684,-5.10257 2.07556,-5.16667 -0.90923,-5.16667 -1.49138,0 -2.71308,0.225 -2.7149,0.5 -0.005,0.73825 2.22714,6.83334 2.50235,6.83334 0.12961,0 0.63441,-0.975 1.12178,-2.16667 z M 21.125,124.90278 c -0.943676,-0.94368 -0.409688,-2.23611 0.923883,-2.23611 0.931975,0 1.312003,0.36203 1.166667,1.11141 -0.237962,1.22699 -1.376002,1.83924 -2.09055,1.1247 z m 95.20834,-0.23612 C 116.55995,124.3 117.16609,124 117.68032,124 c 0.52004,0 1.2243,-1.10945 1.58696,-2.5 C 120.90408,115.2239 122,110.77391 122,110.40377 122,110.18169 121.5323,110 120.96066,110 c -0.57164,0 -0.85394,-0.3 -0.62732,-0.66667 0.62662,-1.01389 12.30792,-0.86017 12.66483,0.16667 0.15931,0.45833 0.0306,1.88333 -0.28601,3.16667 -0.48037,1.94704 -0.58697,2.0519 -0.64392,0.63333 -0.0979,-2.43857 -1.2735,-3.3 -4.50357,-3.3 -2.70851,0 -2.86638,0.11182 -3.52961,2.5 -0.38186,1.375 -0.69596,2.875 -0.698,3.33333 -0.006,1.40916 3.10114,0.92335 4.2642,-0.66666 1.08063,-1.47732 1.09064,-1.46471 0.6615,0.83333 -0.23965,1.28333 -0.6778,2.93333 -0.97365,3.66667 -0.51039,1.26508 -0.54009,1.25654 -0.58018,-0.16667 -0.034,-1.20737 -0.42631,-1.5 -2.01093,-1.5 -1.70702,0 -2.06093,0.33225 -2.66294,2.5 -0.90234,3.24918 -0.88379,3.5 0.25893,3.5 0.52836,0 1.14607,0.3 1.37268,0.66666 0.25753,0.4167 -1.1173,0.66667 -3.66667,0.66667 -2.54936,0 -3.9242,-0.24997 -3.66666,-0.66667 z m 18.29576,-0.73686 c -1.10447,-2.06372 -0.21638,-5.43704 1.9872,-7.54821 1.70194,-1.63056 2.25881,-1.7969 4.65836,-1.3915 1.49894,0.25324 2.72178,0.65907 2.71743,0.90184 -0.005,0.24277 -0.45079,2.0914 -0.99209,4.10807 -1.17716,4.38568 -1.19624,4.66666 -0.31683,4.66666 0.37574,0 1.0115,-0.825 1.4128,-1.83333 0.40129,-1.00833 0.86333,-1.47496 1.02673,-1.03696 0.86204,2.31065 -2.51386,4.5458 -4.24745,2.81221 -0.5219,-0.5219 -0.85013,-0.5219 -1.17268,0 -0.80521,1.30285 -4.26033,0.84059 -5.07347,-0.67878 z m 4.93083,-0.47852 c 1.41486,-1.56341 2.22904,-7.09099 1.1433,-7.76202 -1.18173,-0.73035 -3.28837,1.53219 -4.04585,4.34522 -1.11072,4.12494 0.52215,6.04711 2.90255,3.4168 z m 52.40251,0.47852 c -1.10448,-2.06372 -0.21639,-5.43704 1.98719,-7.54821 1.70195,-1.63056 2.25881,-1.7969 4.65837,-1.3915 1.49893,0.25324 2.72178,0.65907 2.71742,0.90184 -0.005,0.24277 -0.45079,2.0914 -0.99208,4.10807 -1.17717,4.38568 -1.19625,4.66666 -0.31684,4.66666 0.37574,0 1.0115,-0.825 1.4128,-1.83333 0.4013,-1.00833 0.86333,-1.47496 1.02674,-1.03696 0.86203,2.31065 -2.51386,4.5458 -4.24746,2.81221 -0.5219,-0.5219 -0.85013,-0.5219 -1.17268,0 -0.8052,1.30285 -4.26032,0.84059 -5.07346,-0.67878 z m 4.93082,-0.47852 c 1.41486,-1.56341 2.22904,-7.09099 1.1433,-7.76202 -1.18172,-0.73035 -3.28837,1.53219 -4.04584,4.34522 -1.11073,4.12494 0.52214,6.04711 2.90254,3.4168 z m 139.77341,1.53222 c 0,-0.19241 0.75,-0.63499 1.66667,-0.9835 1.60821,-0.61144 1.66667,-0.84514 1.66667,-6.66287 v -6.0292 l -1.66667,0.41831 c -0.93868,0.23559 -1.66667,0.12949 -1.66667,-0.24291 0,-0.36368 0.675,-0.80762 1.5,-0.98655 0.825,-0.17893 2.025,-0.54599 2.66667,-0.81571 1.07052,-0.44998 1.16667,0.11984 1.16667,6.91427 0,6.96021 0.08,7.40466 1.33333,7.40466 0.73333,0 1.33333,0.3 1.33333,0.66666 0,0.37038 -1.77778,0.66667 -4,0.66667 -2.2,0 -4,-0.15743 -4,-0.34983 z m -164,-40.983501 c 0,-10.22222 0.24074,-16 0.66667,-16 0.42592,0 0.66666,5.77778 0.66666,16 0,10.22222 -0.24074,16 -0.66666,16 -0.42593,0 -0.66667,-5.77778 -0.66667,-16 z M 157.03715,53.645357 c -1.72373,-3.86172 -2.99825,-7.38672 -2.83228,-7.833334 C 154.50396,45.007191 160,56.123271 160,57.533045 c 0,1.39937 1.10046,-0.516475 3.6679,-6.385663 1.40811,-3.218939 2.80761,-5.60521 3.11,-5.302824 0.55038,0.550387 -5.41122,14.819396 -6.1923,14.821168 -0.22792,5.17e-4 -1.82472,-3.158649 -3.54845,-7.020369 z m 37.20085,6.360255 c -3.70376,-1.494655 -4.76423,-7.371625 -2.05546,-11.391159 2.94126,-4.36454 8.66962,-6.619138 11.7951,-4.64238 0.62212,0.393466 1.29468,0.355206 1.84945,-0.105209 1.39043,-1.153959 1.62322,-0.255157 0.79045,3.052043 -0.87654,3.48106 -1.95087,4.084874 -1.95087,1.096461 0,-2.497013 -2.40225,-4.274458 -4.92222,-3.641987 -3.61784,0.908021 -7.81975,8.104502 -6.64959,11.38856 1.2886,3.616443 5.07442,4.735448 7.57181,2.238058 1.73976,-1.739756 1.68701,-2.959006 -0.16667,-3.853003 -1.26102,-0.608167 -0.86272,-0.727233 2.5,-0.747341 3.52155,-0.02106 3.85626,0.08508 2.79824,0.887373 -0.66097,0.50121 -1.51,2.027637 -1.88674,3.392059 -0.4623,1.67431 -0.90441,2.26133 -1.35999,1.80575 -0.45559,-0.455582 -1.25093,-0.374539 -2.4466,0.249298 -1.99147,1.039049 -3.76186,1.12097 -5.86691,0.271477 z m 35.42775,-2.280371 c -0.97299,-1.660288 -1.57812,-3.327676 -1.34473,-3.705306 0.76576,-1.239027 2.11641,-0.720005 2.9633,1.138724 l 0.83168,1.825325 1.61961,-3.407694 c 1.72399,-3.627314 7.80863,-10.242957 9.42081,-10.242957 0.53128,0 -0.43088,1.35757 -2.13813,3.016823 -1.92745,1.873267 -3.86419,4.716215 -5.10934,7.5 -3.57104,7.983824 -3.76483,8.104107 -6.2432,3.875085 z M 8.6666668,59.372127 c 0,-0.34533 1.5000002,-2.342007 3.3333332,-4.43706 2.485669,-2.840512 3.333334,-4.342268 3.333334,-5.90546 0,-2.470195 -1.026298,-3.696274 -3.093989,-3.696274 -1.864415,0 -2.6015328,1.093639 -1.572678,2.333333 0.906005,1.091669 0.352927,2.333333 -1.0393448,2.333333 -0.6188374,0 -0.9606554,-0.698183 -0.9606554,-1.962197 0,-3.781536 5.1453382,-5.409785 7.8837912,-2.494835 2.377148,2.530358 1.879584,4.748808 -1.980496,8.830273 l -3.430038,3.626759 h 2.661495 c 2.101277,0 2.813769,-0.315734 3.384918,-1.5 l 0.723423,-1.5 0.04512,1.445476 c 0.09721,3.114214 -0.525403,3.554524 -5.026206,3.554524 -2.344104,0 -4.2620072,-0.282542 -4.2620072,-0.627872 z M 21.125,59.569444 c -0.943676,-0.943677 -0.409688,-2.236111 0.923883,-2.236111 0.931975,0 1.312003,0.362033 1.166667,1.111422 -0.237962,1.226986 -1.376002,1.839237 -2.09055,1.124689 z M 117,59.333333 c 0.22662,-0.366667 0.83276,-0.666667 1.34698,-0.666667 0.52005,0 1.22431,-1.109453 1.58696,-2.5 1.63681,-6.276102 2.73273,-10.726094 2.73273,-11.09623 0,-0.222073 -0.46771,-0.40377 -1.03935,-0.40377 -0.57164,0 -0.85393,-0.3 -0.62732,-0.666667 0.62662,-1.013894 12.30792,-0.86017 12.66484,0.166667 0.15931,0.458333 0.0306,1.883333 -0.28602,3.166667 -0.48036,1.947048 -0.58696,2.051897 -0.64391,0.633333 -0.0979,-2.438565 -1.27351,-3.3 -4.50357,-3.3 -2.70851,0 -2.86638,0.111823 -3.52962,2.5 -0.38185,1.375 -0.69596,2.875 -0.698,3.333333 -0.006,1.409162 3.10114,0.923346 4.26421,-0.666666 1.08063,-1.477314 1.09063,-1.46471 0.66149,0.833333 -0.23964,1.283333 -0.67779,2.933333 -0.97364,3.666667 -0.51039,1.265078 -0.54009,1.256546 -0.58018,-0.166667 -0.034,-1.207377 -0.42632,-1.5 -2.01093,-1.5 -1.70703,0 -2.06093,0.332251 -2.66295,2.5 -0.90234,3.249184 -0.88378,3.5 0.25894,3.5 0.52836,0 1.14606,0.3 1.37268,0.666667 0.25753,0.416696 -1.1173,0.666666 -3.66667,0.666666 -2.54937,0 -3.9242,-0.24997 -3.66667,-0.666666 z m 18.96244,-0.736865 c -1.10448,-2.063722 -0.21639,-5.437042 1.98719,-7.548207 1.70195,-1.630567 2.25881,-1.79691 4.65837,-1.391508 1.49893,0.253244 2.72178,0.659074 2.71742,0.901845 -0.004,0.242771 -0.45079,2.091401 -0.99208,4.108068 -1.17717,4.385684 -1.19625,4.666667 -0.31684,4.666667 0.37574,0 1.0115,-0.825 1.4128,-1.833334 0.4013,-1.008333 0.86333,-1.474964 1.02674,-1.036959 0.86203,2.310643 -2.51386,4.545797 -4.24746,2.812205 -0.5219,-0.521896 -0.85013,-0.521896 -1.17268,0 -0.8052,1.302856 -4.26032,0.840598 -5.07346,-0.678777 z m 4.93082,-0.478525 c 1.41486,-1.563403 2.22904,-7.09099 1.1433,-7.762016 -1.18172,-0.730344 -3.28837,1.532188 -4.04584,4.345217 -1.11073,4.124944 0.52214,6.047118 2.90254,3.416799 z m 68.42649,0.179651 c -0.47899,-1.259843 -0.27173,-3.199679 0.79729,-7.461961 1.04548,-4.168456 1.22884,-5.831453 0.66375,-6.019816 -1.56407,-0.521356 -0.72738,-1.482484 1.29054,-1.482484 1.52153,0 1.97429,0.252863 1.70575,0.952657 -0.20106,0.523962 -0.55969,1.987433 -0.79695,3.252157 -0.40554,2.161703 -0.33429,2.280938 1.18902,1.98974 3.34294,-0.639045 4.86262,3.20978 2.82395,7.152123 -1.89144,3.657637 -6.52625,4.634681 -7.67335,1.617584 z m 5.27812,-1.277961 c 1.1721,-2.445513 1.33489,-6.454627 0.27713,-6.825437 -2.05533,-0.720525 -5.23926,6.265052 -3.8673,8.484917 0.76904,1.244333 2.60519,0.395611 3.59017,-1.65948 z M 114,55.333333 v -2.666667 h -6 c -3.55555,0 -6,-0.271605 -6,-0.666667 0,-0.4 2.66667,-0.666666 6.66667,-0.666666 h 6.66667 v 3.333333 c 0,1.833333 -0.3,3.333333 -0.66667,3.333333 -0.36667,0 -0.66667,-1.2 -0.66667,-2.666666 z m 72.66667,0 v -2.666667 h -6 c -3.55555,0 -6,-0.271605 -6,-0.666667 0,-0.4 2.66667,-0.666666 6.66667,-0.666666 H 188 v 3.333333 c 0,1.833333 -0.3,3.333333 -0.66666,3.333333 -0.36667,0 -0.66667,-1.2 -0.66667,-2.666666 z M 111.02283,35.628292 c -4.12132,-4.446974 -4.57717,-13.582977 -0.96215,-19.283259 2.4589,-3.87729 3.87742,-3.947743 1.61077,-0.08 -3.08167,5.25848 -3.05309,13.512944 0.0627,18.10431 2.04718,3.016695 1.6194,3.773833 -0.71132,1.258949 z m 95.64384,1.41128 c 0,-0.275226 0.61392,-1.362587 1.36427,-2.416357 2.17374,-3.052739 3.06072,-8.575314 2.1077,-13.123215 -0.44181,-2.108334 -1.40374,-4.646186 -2.13763,-5.639672 -1.57066,-2.126253 -1.66618,-2.612486 -0.41919,-2.133974 0.50332,0.193146 1.70332,1.799328 2.66666,3.569296 3.20693,5.892187 2.15529,15.055833 -2.17754,18.974342 -0.77235,0.698495 -1.40427,1.044805 -1.40427,0.76958 z m 20.74382,-11.093096 c -4.17447,-11.658648 -4.44495,-12.613143 -3.57421,-12.613143 0.433,0 8.83039,22.422753 8.83039,23.578953 0,0.231575 -0.26528,0.421047 -0.58951,0.421047 -0.32424,0 -2.42424,-5.124085 -4.66667,-11.386857 z M 249.59,34.356788 c 1.34388,-2.051023 1.36854,-3.023455 0.0767,-3.023455 -0.55555,0 -1,-0.592593 -1,-1.333333 0,-0.888889 0.44445,-1.333334 1.33333,-1.333334 1.08405,0 1.33334,0.444445 1.33334,2.377161 0,2.626596 -0.98714,4.956173 -2.10013,4.956173 -0.4189,0 -0.26973,-0.68703 0.35679,-1.643212 z M 83.445601,28.5 c -0.72428,-1.925 -2.095833,-5.560718 -3.0479,-8.079373 -1.853393,-4.903067 -2.03116,-5.753961 -1.202133,-5.753961 0.290893,0 0.99232,1.275 1.558733,2.833334 1.009247,2.776692 1.09728,2.837314 4.403554,3.032497 l 3.373713,0.199163 1.15812,-3.032496 c 0.636967,-1.667874 1.417367,-3.032498 1.73422,-3.032498 0.316854,0 0.576094,0.203634 0.576094,0.45252 0,1.03632 -6.366987,16.880814 -6.783427,16.880814 -0.24976,0 -1.0467,-1.575 -1.770974,-3.5 z m 2.841894,-2 c 2.08684,-5.102564 2.07556,-5.166667 -0.909234,-5.166667 -1.49138,0 -2.71308,0.225 -2.714893,0.5 -0.0047,0.738249 2.227133,6.833333 2.502347,6.833333 0.129613,0 0.634413,-0.975 1.12178,-2.166666 z m 67.271135,4.859475 c -2.78569,-1.172097 -2.64814,-4.230168 0.31069,-6.907879 1.03776,-0.93916 1.25074,-1.7624 0.97938,-3.785607 -0.46929,-3.498796 0.2088,-5.821924 1.85151,-6.343301 3.08789,-0.980058 4.36142,2.814529 1.96646,5.859226 -1.69472,2.15449 -1.68183,2.32904 0.39793,5.38969 l 1.73126,2.547783 1.60208,-2.357658 C 164.1055,23.248816 164.41604,22 163.33334,22 c -0.36667,0 -0.66667,-0.3 -0.66667,-0.666667 0,-0.366667 1.2,-0.666667 2.66667,-0.666667 2.73116,0 3.62972,0.925982 1.45134,1.49564 -0.66843,0.174797 -2.04104,1.726798 -3.05026,3.44889 -1.46592,2.50141 -1.67434,3.324576 -1.03638,4.093273 1.16954,1.409211 2.99074,1.175212 4.18568,-0.537803 0.57549,-0.825 1.06208,-1.125 1.08132,-0.666666 0.0193,0.458333 -0.59104,1.45933 -1.35614,2.224438 -1.06413,1.064131 -1.80845,1.272779 -3.16667,0.887689 C 161.33725,31.01531 159.7121,31.001278 157,31.5565 c -1.1,0.225194 -2.64862,0.136532 -3.44137,-0.197026 z m 5.00797,-1.283521 c 0.71159,-0.450941 0.48794,-1.139038 -1.06864,-3.287823 C 155.35528,23.830232 154,24.041468 154,27.333333 c 0,2.829757 2.27399,4.195473 4.5666,2.742621 z m 0.10007,-12.824251 c 0,-1.220668 -0.34735,-1.91837 -0.95507,-1.91837 -1.19216,0 -1.94374,2.21833 -1.36712,4.0351 0.62088,1.956213 2.32219,0.405427 2.32219,-2.11673 z m 18.90467,14.087243 c -3.70377,-1.494655 -4.76424,-7.371626 -2.05547,-11.39116 2.94126,-4.36454 8.66962,-6.619138 11.79511,-4.64238 0.62212,0.393467 1.29468,0.355207 1.84944,-0.105208 1.39044,-1.15396 1.62322,-0.255157 0.79046,3.052042 C 189.07434,21.733301 188,22.337115 188,19.348702 c 0,-2.497014 -2.40225,-4.274458 -4.92222,-3.641988 -3.61784,0.908022 -7.81974,8.104503 -6.64958,11.388561 1.28859,3.616443 5.07441,4.735448 7.5718,2.238058 1.73976,-1.739757 1.68702,-2.959006 -0.16666,-3.853003 -1.26102,-0.608167 -0.86272,-0.727234 2.5,-0.747341 3.52154,-0.02106 3.85625,0.08508 2.79823,0.887373 -0.66097,0.50121 -1.51,2.027636 -1.88674,3.392059 -0.46229,1.674309 -0.90441,2.26133 -1.35999,1.805749 -0.45558,-0.455581 -1.25093,-0.374538 -2.4466,0.249298 -1.99147,1.03905 -3.76186,1.12097 -5.8669,0.271478 z M 8.6666668,30.983499 c 0,-0.192409 0.75,-0.634983 1.6666672,-0.983499 C 11.941542,29.38856 12,29.154859 12,23.337132 V 17.30793 l -1.666666,0.418307 c -0.9386838,0.235595 -1.6666672,0.129492 -1.6666672,-0.242914 0,-0.363671 0.675,-0.807615 1.5000002,-0.986541 0.825,-0.178926 2.025,-0.545996 2.666667,-0.815711 C 13.903853,15.231095 14,15.800913 14,22.59534 14,29.555555 14.08003,30 15.333334,30 c 0.733333,0 1.333333,0.3 1.333333,0.666666 0,0.370371 -1.777778,0.666667 -4,0.666667 -2.2,0 -4.0000002,-0.157425 -4.0000002,-0.349834 z M 21.125,30.902778 c -0.943676,-0.943678 -0.409688,-2.236112 0.923883,-2.236112 0.931975,0 1.312003,0.362034 1.166667,1.111423 -0.237962,1.226986 -1.376002,1.839237 -2.09055,1.124689 z m 71.541668,-0.961602 c 0,-0.70098 0.45,-1.27451 1,-1.27451 0.55,0 1,0.475 1,1.055556 0,1.781994 1.527367,0.661919 2.403354,-1.762468 1.024846,-2.83639 1.148006,-5.746319 0.26626,-6.291268 -0.365047,-0.225612 -1.415047,0.40049 -2.333334,1.391337 -1.848426,1.99448 -2.255693,1.40693 -0.631813,-0.911486 1.077347,-1.538129 3.889373,-2.011529 4.648873,-0.782632 0.297434,0.481255 0.713654,0.465311 1.335992,-0.05117 1.42688,-1.184218 3.97734,-0.530916 3.97734,1.018801 0,0.740741 -0.44445,1.333333 -1,1.333333 -0.55,0 -0.96229,-0.501276 -0.9162,-1.113946 0.16694,-2.218979 -1.7434,-0.386955 -2.449578,2.349162 -0.392474,1.520631 -0.866414,3.291262 -1.053207,3.934735 -0.6298,2.169572 1.812985,2.24513 3.522265,0.108948 1.70572,-2.131734 2.16865,-1.439711 0.56678,0.847273 -0.85622,1.22243 -1.65441,1.422848 -5.666665,1.422848 -4.153773,0 -4.670067,-0.140902 -4.670067,-1.27451 z m 23.000002,0.72549 C 115.89328,30.3 116.49942,30 117.01365,30 c 0.52005,0 1.22431,-1.109453 1.58696,-2.5 1.63681,-6.276102 2.73273,-10.726094 2.73273,-11.09623 0,-0.222074 -0.46771,-0.40377 -1.03935,-0.40377 -0.57164,0 -0.85393,-0.3 -0.62732,-0.666667 0.62662,-1.013894 12.30792,-0.860171 12.66483,0.166667 0.15932,0.458333 0.0306,1.883333 -0.28601,3.166666 -0.48037,1.947049 -0.58697,2.051898 -0.64391,0.633334 -0.0979,-2.438565 -1.27351,-3.3 -4.50358,-3.3 -2.7085,0 -2.86638,0.111822 -3.52961,2.5 -0.38185,1.375 -0.69596,2.875 -0.698,3.333333 -0.006,1.409161 3.10114,0.923345 4.26421,-0.666667 1.08062,-1.477313 1.09063,-1.464709 0.66149,0.833334 -0.23965,1.283333 -0.67779,2.933333 -0.97365,3.666666 -0.51038,1.265079 -0.54008,1.256547 -0.58018,-0.166666 -0.034,-1.207377 -0.42631,-1.5 -2.01092,-1.5 -1.70703,0 -2.06094,0.33225 -2.66295,2.5 -0.90234,3.249184 -0.88379,3.5 0.25893,3.5 0.52836,0 1.14607,0.3 1.37268,0.666666 0.25754,0.416697 -1.1173,0.666667 -3.66666,0.666667 -2.54937,0 -3.9242,-0.24997 -3.66667,-0.666667 z M 134,29.941176 c 0,-0.70098 0.45,-1.27451 1,-1.27451 0.55,0 1,0.475 1,1.055556 0,1.781994 1.52737,0.661919 2.40336,-1.762468 1.02484,-2.83639 1.148,-5.746319 0.26626,-6.291268 -0.36505,-0.225612 -1.41505,0.40049 -2.33334,1.391337 -1.84842,1.99448 -2.25569,1.40693 -0.63181,-0.911486 1.07735,-1.538129 3.88937,-2.011529 4.64887,-0.782632 0.29744,0.481255 0.71366,0.465311 1.33599,-0.05117 1.42689,-1.184218 3.97734,-0.530916 3.97734,1.018801 0,0.740741 -0.44445,1.333333 -1,1.333333 -0.55,0 -0.96229,-0.501276 -0.91619,-1.113946 0.16694,-2.218979 -1.7434,-0.386955 -2.44958,2.349162 -0.39248,1.520631 -0.86642,3.291262 -1.05321,3.934735 -0.6298,2.169572 1.81299,2.24513 3.52227,0.108948 1.70572,-2.131734 2.16864,-1.439711 0.56678,0.847273 -0.85623,1.22243 -1.65442,1.422848 -5.66667,1.422848 -4.15377,0 -4.67007,-0.140902 -4.67007,-1.27451 z m 58,0 c 0,-0.70098 0.45,-1.27451 1,-1.27451 0.55,0 1,0.475 1,1.055556 0,1.781994 1.52737,0.661919 2.40336,-1.762468 1.02484,-2.83639 1.148,-5.746319 0.26626,-6.291268 -0.36505,-0.225612 -1.41505,0.40049 -2.33334,1.391337 -1.84842,1.99448 -2.25569,1.40693 -0.63181,-0.911486 1.07735,-1.538129 3.88937,-2.011529 4.64887,-0.782632 0.29744,0.481255 0.71366,0.465311 1.33599,-0.05117 1.42689,-1.184218 3.97734,-0.530916 3.97734,1.018801 0,0.740741 -0.44445,1.333333 -1,1.333333 -0.55,0 -0.96229,-0.501276 -0.91619,-1.113946 0.16694,-2.218979 -1.7434,-0.386955 -2.44958,2.349162 -0.39248,1.520631 -0.86642,3.291262 -1.05321,3.934735 -0.6298,2.169572 1.81299,2.24513 3.52227,0.108948 1.70572,-2.131734 2.16864,-1.439711 0.56678,0.847273 -0.85623,1.22243 -1.65442,1.422848 -5.66667,1.422848 -4.15377,0 -4.67007,-0.140902 -4.67007,-1.27451 z m 43.29577,-0.01137 c -1.10447,-2.063722 -0.21639,-5.437042 1.98719,-7.548207 1.70195,-1.630567 2.25882,-1.79691 4.65837,-1.391508 1.49893,0.253244 2.72178,0.659074 2.71743,0.901845 -0.004,0.242769 -0.4508,2.0914 -0.99209,4.108067 -1.17717,4.385684 -1.19625,4.666666 -0.31683,4.666666 0.37574,0 1.0115,-0.825 1.4128,-1.833333 0.40129,-1.008333 0.86332,-1.474965 1.02673,-1.036959 0.86203,2.310643 -2.51386,4.545796 -4.24745,2.812204 -0.5219,-0.521895 -0.85014,-0.521895 -1.17268,0 -0.80521,1.302856 -4.26033,0.840598 -5.07347,-0.678775 z m 4.93083,-0.478525 c 1.41486,-1.563403 2.22904,-7.09099 1.1433,-7.762016 -1.18173,-0.730344 -3.28838,1.532188 -4.04585,4.345217 -1.11073,4.124944 0.52215,6.047118 2.90255,3.416799 z m 17.75982,0.179651 c -0.479,-1.259843 -0.27173,-3.199679 0.79728,-7.461961 1.04548,-4.168456 1.22884,-5.831453 0.66376,-6.019816 -1.56407,-0.521357 -0.72738,-1.482486 1.29054,-1.482486 1.52153,0 1.97429,0.252864 1.70575,0.952658 -0.20106,0.523962 -0.55969,1.987432 -0.79695,3.252157 -0.40554,2.161703 -0.33429,2.280937 1.18902,1.989739 3.34294,-0.639044 4.86262,3.209781 2.82395,7.152124 -1.89144,3.657636 -6.52625,4.634681 -7.67335,1.617585 z m 5.27812,-1.277961 c 1.1721,-2.445513 1.33488,-6.454627 0.27713,-6.825437 -2.05533,-0.720525 -5.23926,6.265052 -3.86731,8.484917 0.76904,1.244333 2.6052,0.395611 3.59018,-1.65948 z"
       id="path934" />
  </g>
</svg>
