<?xml version="1.0" encoding="UTF-8" standalone="no"?>
<svg
   xmlns:dc="http://purl.org/dc/elements/1.1/"
   xmlns:cc="http://creativecommons.org/ns#"
   xmlns:rdf="http://www.w3.org/1999/02/22-rdf-syntax-ns#"
   xmlns:svg="http://www.w3.org/2000/svg"
   xmlns="http://www.w3.org/2000/svg"
   xmlns:sodipodi="http://sodipodi.sourceforge.net/DTD/sodipodi-0.dtd"
   xmlns:inkscape="http://www.inkscape.org/namespaces/inkscape"
   version="1.1"
   id="svg1004"
   width="268.70587"
   height="101.33433"
   viewBox="0 0 268.70587 101.33433"
   sodipodi:docname="10-5-1.svg"
   inkscape:version="1.0.1 (c497b03c, 2020-09-10)">
  <metadata
     id="metadata1010">
    <rdf:RDF>
      <cc:Work
         rdf:about="">
        <dc:format>image/svg+xml</dc:format>
        <dc:type
           rdf:resource="http://purl.org/dc/dcmitype/StillImage" />
        <dc:title></dc:title>
      </cc:Work>
    </rdf:RDF>
  </metadata>
  <defs
     id="defs1008" />
  <sodipodi:namedview
     pagecolor="#ffffff"
     bordercolor="#666666"
     borderopacity="1"
     objecttolerance="10"
     gridtolerance="10"
     guidetolerance="10"
     inkscape:pageopacity="0"
     inkscape:pageshadow="2"
     inkscape:window-width="746"
     inkscape:window-height="480"
     id="namedview1006"
     showgrid="false"
     fit-margin-top="0"
     fit-margin-left="0"
     fit-margin-right="0"
     fit-margin-bottom="0"
     inkscape:pagecheckerboard="true"
     inkscape:zoom="0.96097688"
     inkscape:cx="122.84548"
     inkscape:cy="39.256556"
     inkscape:window-x="0"
     inkscape:window-y="25"
     inkscape:window-maximized="0"
     inkscape:current-layer="g1012" />
  <g
     inkscape:groupmode="layer"
     inkscape:label="Image"
     id="g1012"
     transform="translate(-10,-10.666666)">
    <path
       style="fill:#1a1a1a;stroke-width:0.666667"
       d="M 43.85565,95.333831 44.044631,78.666665 H 85.688982 127.33334 V 95.333331 112 l -41.833338,5e-4 -41.833334,4.9e-4 z M 126,95.333331 v -16 H 85.333335 44.666668 v 16 15.999999 H 85.333335 126 Z M 61.003154,102.5 c -1.242911,-1.0728 -1.872002,-2.4429 -2.208839,-4.810682 l -0.470974,-3.310687 -1.495004,1.900587 c -0.822251,1.045326 -1.495002,2.335133 -1.495002,2.86624 0,1.463262 -1.63714,0.61644 -1.871446,-0.968014 -0.139539,-0.943613 0.550726,-1.96104 2.166667,-3.193573 1.517453,-1.15742 2.371445,-2.36632 2.371445,-3.356987 0,-1.937693 -1.085187,-2.662753 -2.378647,-1.58928 -0.542799,0.450487 -1.200175,0.605794 -1.460836,0.345134 -0.727305,-0.727307 2.665306,-3.070967 4.172817,-2.88264 0.808601,0.101013 1.417172,0.756893 1.546367,1.666566 0.273445,1.92536 0.854241,1.890627 2.786966,-0.166666 1.886607,-2.0082 3.333334,-2.152874 3.333334,-0.333334 0,0.833254 -0.444445,1.333334 -1.184997,1.333334 -0.651747,0 -1.888063,0.492446 -2.747368,1.094326 -1.427973,1.000194 -1.524703,1.414827 -1.124481,4.820094 0.449518,3.824693 1.831031,6.752242 3.186387,6.752242 0.421009,0 1.277026,-0.46295 1.902261,-1.02878 1.017684,-0.92099 1.177744,-0.92205 1.527671,-0.0102 C 67.997502,102.7692 66.192802,104 64.081005,104 c -0.736992,0 -2.122025,-0.675 -3.077851,-1.5 z m 27.996848,-4.500002 1.03424,-2 h -7.01712 c -4.233634,0 -7.01712,-0.264447 -7.01712,-0.666667 0,-0.40854 3.195013,-0.666667 8.251707,-0.666667 6.092953,0 8.4461,-0.23424 8.994786,-0.895366 1.293227,-1.55824 -2.11594,-2.42798 -10.111193,-2.579554 l -7.468634,-0.141586 7.166667,-0.2143 c 3.941667,-0.117867 7.166667,-0.364707 7.166667,-0.54854 0,-0.183827 -0.4845,-1.073674 -1.076673,-1.97744 -1.494407,-2.28076 0.01227,-2.07428 1.650326,0.226166 0.732114,1.028154 2.40254,2.446374 3.712067,3.1516 1.30952,0.705227 2.380947,1.45844 2.380947,1.673814 0,0.215373 -1.030587,0.88304 -2.290194,1.483706 -1.2596,0.60066 -2.96602,2.006227 -3.792033,3.123474 -1.92854,2.608482 -2.927347,2.628252 -1.58444,0.03133 z m 18.395678,0.783146 c -0.49708,-0.928786 -0.432,-2.30426 0.22972,-4.855246 1.1737,-4.524734 3.53272,-6.586574 7.54127,-6.591254 1.55833,-0.002 2.83009,0.07169 2.82612,0.163354 -0.004,0.09167 -0.45397,1.639346 -1,3.439286 -1.42586,4.700214 -1.34104,5.960674 0.34055,5.060714 2.35058,-1.258 1.48653,0.5145 -1.11137,2.279813 -2.49587,1.695987 -3.5553,1.706913 -3.5553,0.03667 0,-0.726407 -0.51661,-0.63336 -2.28872,0.412206 -2.26009,1.333483 -2.2974,1.334163 -2.98227,0.05447 z m 4.61898,-2.790993 c 0.69318,-0.37098 1.57179,-1.79598 1.95246,-3.166667 0.94309,-3.395846 0.91865,-3.492153 -0.88624,-3.492153 -1.61445,0 -2.51044,1.422807 -3.46352,5.5 -0.46446,1.986853 0.22625,2.320733 2.3973,1.15882 z m 133.39209,9.762969 c -0.57332,-0.69081 -0.52674,-1.10225 0.19235,-1.69904 1.05096,-0.87222 2.12445,0.10652 1.40091,1.27725 C 246.77339,105.7 246.88868,106 247.25619,106 c 0.92562,0 2.74382,-2.7198 2.74382,-4.1044 0,-1.59376 -3.38132,-9.228936 -4.08714,-9.228936 -0.31874,0 -0.57953,-0.3 -0.57953,-0.666666 0,-0.366667 1.05,-0.666667 2.33333,-0.666667 2.11084,0 3.19382,0.889567 1.75851,1.444447 -0.31616,0.12222 0.0179,1.57222 0.74224,3.22222 l 1.31707,3 1.17767,-2.666667 c 0.68859,-1.55922 0.93407,-2.929687 0.59109,-3.3 -1.06723,-1.1523 -0.61186,-1.7 1.41342,-1.7 2.19396,0 2.49971,0.459793 1.0594,1.593173 -0.51733,0.407087 -1.91171,3.14016 -3.09862,6.073494 -1.18692,2.933332 -2.61014,5.858332 -3.16272,6.500002 -1.20284,1.39674 -3.01592,1.51073 -4.05798,0.25512 z m 21.98893,-4.30531 c -0.49707,-0.92879 -0.43199,-2.304259 0.22973,-4.855246 1.1737,-4.524733 3.53271,-6.586573 7.54126,-6.591253 1.55834,-0.002 2.83009,0.07169 2.82612,0.163353 -0.004,0.09167 -0.45397,1.639347 -1,3.439287 -1.42586,4.700213 -1.34104,5.960673 0.34055,5.060713 2.35059,-1.258 1.48653,0.5145 -1.11137,2.279816 -2.49586,1.69598 -3.5553,1.70691 -3.5553,0.0367 0,-0.7264 -0.51661,-0.63336 -2.28872,0.41221 -2.26009,1.33349 -2.2974,1.33417 -2.98227,0.0545 z m 4.61899,-2.790992 c 0.69318,-0.37098 1.57178,-1.79598 1.95245,-3.166667 0.94309,-3.395847 0.91865,-3.492153 -0.88623,-3.492153 -1.61446,0 -2.51044,1.422806 -3.46353,5.5 -0.46445,1.986853 0.22625,2.320733 2.39731,1.15882 z M 26.000001,101.33333 c 0,-0.36667 0.75,-0.66667 1.666666,-0.66667 2.335342,0 2.050846,-1.474756 -0.514428,-2.666662 -4.05912,-1.886 -2.982264,-6.52416 1.952265,-8.40868 2.775234,-1.059867 3.983818,-2.924654 1.895497,-2.924654 -0.55,0 -1,-0.299999 -1,-0.666666 0,-0.370373 1.777778,-0.666667 4,-0.666667 2.222222,0 4,0.296294 4,0.666667 0,0.366667 -0.75,0.666666 -1.666667,0.666666 -1.94104,0 -2.310317,1.813587 -0.5,2.455587 2.026716,0.718753 3.5,2.36508 3.5,3.9111 0,1.865647 -2.524992,4.35442 -5.399826,5.322367 -2.529943,0.851826 -3.364898,2.310942 -1.322396,2.310942 0.763889,0 1.388889,0.3 1.388889,0.66667 0,0.37037 -1.777778,0.66667 -4,0.66667 -2.222222,0 -4,-0.2963 -4,-0.66667 z m 4.619966,-7.051726 c 0.457677,-2.045113 0.68111,-3.86942 0.496518,-4.054013 -0.708522,-0.70852 -2.971289,1.145733 -3.779645,3.097273 -0.735352,1.7753 -0.69019,2.214694 0.345225,3.358814 0.655189,0.723973 1.397017,1.31632 1.648508,1.31632 0.25149,0 0.831718,-1.673274 1.289394,-3.718394 z m 5.138074,1.339167 c 1.280671,-1.954547 0.952466,-5.204547 -0.55443,-5.490173 -0.838159,-0.158874 -1.321556,0.527886 -1.873014,2.660966 -0.40881,1.581307 -0.88776,3.37524 -1.064332,3.986514 -0.479907,1.661393 2.23434,0.761786 3.491776,-1.157307 z m 148.908629,5.712559 c 0,-0.36667 0.45,-0.66667 1,-0.66667 0.77778,0 1,-0.888882 1,-3.999996 0,-3.111113 -0.22222,-4 -1,-4 -0.55,0 -1,-0.3 -1,-0.666666 0,-0.366667 0.45,-0.666667 1,-0.666667 0.69151,0 1,-0.694633 1,-2.251707 0,-2.708786 1.26529,-3.919633 3.79302,-3.629799 1.94258,0.222746 2.72837,2.214839 0.87365,2.214839 -0.55,0 -0.925,-0.375 -0.83334,-0.833333 0.31136,-1.55676 -1.19629,-0.842213 -1.84983,0.876733 -0.97778,2.57176 -0.79094,3.623267 0.64382,3.623267 0.71169,0 1.4794,0.3 1.70601,0.666667 0.22662,0.366666 -0.20568,0.666666 -0.96065,0.666666 -1.23327,0 -1.37268,0.406227 -1.37268,4 0,3.111114 0.22222,3.999996 1,3.999996 0.55,0 1,0.3 1,0.66667 0,0.36667 -1.35,0.66667 -3,0.66667 -1.65,0 -3,-0.3 -3,-0.66667 z m 8.78287,-0.8763 c -3.10995,-3.310399 -0.79758,-9.123699 3.62915,-9.123699 4.74366,0 7.17077,5.141333 4.20626,8.910089 -1.84559,2.34629 -5.73231,2.45224 -7.83541,0.21361 z m 5.75046,0.0763 c 1.03721,-1.037206 1.03721,-6.696126 0,-7.733332 -2.00735,-2.007354 -5.2,0.366673 -5.2,3.866666 0,3.499996 3.19265,5.874016 5.2,3.866666 z m 4.8,0.87133 c 0,-0.32744 0.45,-0.76802 1,-0.97908 0.68206,-0.26173 1,-1.329096 1,-3.357042 0,-1.754047 -0.41006,-3.383367 -1,-3.9733 -1.39506,-1.39506 -1.25625,-1.761907 0.66667,-1.761907 0.91667,0 1.66667,0.30254 1.66667,0.672313 0,0.41442 0.47758,0.37406 1.24502,-0.105213 1.50163,-0.93778 3.42164,-0.332513 3.42164,1.078647 0,1.222593 -1.75978,1.373026 -2.19444,0.187586 -0.62371,-1.70102 -1.99186,0.73532 -2.3178,4.127427 -0.26485,2.756359 -0.13304,3.372569 0.72141,3.372569 0.57501,0 1.23089,0.3 1.4575,0.66667 C 209.91834,101.74054 208.89582,102 207.03935,102 205.36771,102 204,101.73209 204,101.40466 Z M 221.46667,101.2 c -1.98427,-1.984276 -0.12708,-4.501476 4.03334,-5.466722 1.94437,-0.451114 2.35366,-1.612954 1.03333,-2.93328 -1.35971,-1.359707 -3.20407,-0.97778 -3.02547,0.626513 0.19012,1.70784 -1.3347,2.467113 -1.91543,0.953767 -0.61778,-1.609907 0.97911,-3.046947 3.38587,-3.046947 3.07592,0 4.35503,1.72872 4.35503,5.885827 0,3.488632 0.97348,4.704402 1.55939,1.947506 0.21412,-1.007493 0.28406,-0.843326 0.21303,0.5 -0.0807,1.526616 -0.46079,2.050426 -1.60575,2.213036 -0.87975,0.12494 -1.5,-0.13694 -1.5,-0.63334 0,-0.65828 -0.17778,-0.66858 -0.8,-0.0463 -0.44,0.44 -1.73,0.8 -2.86667,0.8 -1.13667,0 -2.42667,-0.36 -2.86667,-0.8 z m 5.06667,-0.66667 c 1.28512,-1.285119 0.99803,-3.866666 -0.43001,-3.866666 -1.6315,0 -3.70048,2.350907 -3.2051,3.641836 0.46854,1.22099 2.51253,1.34741 3.63511,0.22483 z m 6.13333,0.8 c 0,-0.36667 0.45,-0.66667 1,-0.66667 0.76837,0 1,-0.854169 1,-3.687582 0,-2.662867 -0.27788,-3.794227 -1,-4.071327 -1.57707,-0.60518 -1.16666,-1.57442 0.66667,-1.57442 0.91667,0 1.66667,0.293567 1.66667,0.652373 0,0.40214 0.62043,0.369687 1.6175,-0.08461 0.88963,-0.405347 2.38963,-0.5432 3.33334,-0.30634 1.60532,0.402906 1.71582,0.688793 1.71582,4.438866 0,2.947867 0.26455,4.10974 1,4.39196 1.89284,0.72635 0.99508,1.57442 -1.66666,1.57442 -2.91952,0 -3.16698,-0.2616 -1.66667,-1.76191 1.03703,-1.03703 1.19533,-3.396836 0.41516,-6.18867 -1.10213,-3.94392 -4.08183,-1.511933 -4.08183,3.331527 0,1.80714 0.3,3.285713 0.66667,3.285713 0.36667,0 0.66667,0.3 0.66667,0.66667 0,0.36667 -1.2,0.66667 -2.66667,0.66667 -1.46667,0 -2.66667,-0.3 -2.66667,-0.66667 z M 22.000001,97.333331 V 94.666664 H 16 c -3.555555,0 -6,-0.271606 -6,-0.666666 0,-0.4 2.666667,-0.666667 6.666667,-0.666667 h 6.666667 v 3.333333 c 0,1.833334 -0.3,3.333333 -0.666667,3.333333 -0.366666,0 -0.666666,-1.199999 -0.666666,-2.666666 z M 67.333335,56.333332 c 0,-8.666667 0.2439,-13.666666 0.666667,-13.666666 0.422766,0 0.666666,4.999999 0.666666,13.666666 0,8.666666 -0.2439,13.666666 -0.666666,13.666666 -0.422767,0 -0.666667,-5 -0.666667,-13.666666 z M 94.743822,23.279809 C 90.569349,11.621162 90.298875,10.666666 91.169609,10.666666 91.602615,10.666666 100,33.089419 100,34.245619 c 0,0.231575 -0.265278,0.421047 -0.589511,0.421047 -0.324233,0 -2.424233,-5.124085 -4.666667,-11.386857 z M 59.003154,31.833333 C 57.760243,30.760542 57.131152,29.39043 56.794315,27.02265 l -0.470974,-3.310682 -1.495004,1.900588 c -0.822251,1.045323 -1.495002,2.335131 -1.495002,2.866238 0,1.463259 -1.63714,0.616438 -1.871446,-0.968017 -0.139539,-0.943614 0.550726,-1.961036 2.166667,-3.193573 1.517453,-1.157417 2.371445,-2.366319 2.371445,-3.356986 0,-1.937694 -1.085187,-2.662754 -2.378647,-1.589278 -0.542799,0.450484 -1.200175,0.605792 -1.460836,0.345132 -0.727305,-0.727305 2.665306,-3.070968 4.172817,-2.88264 0.808601,0.101015 1.417172,0.756891 1.546367,1.666568 0.273445,1.925357 0.854241,1.890625 2.786966,-0.166667 1.886607,-2.008201 3.333333,-2.152874 3.333333,-0.333333 0,0.833253 -0.444444,1.333333 -1.184996,1.333333 -0.651747,0 -1.888063,0.492447 -2.747368,1.094328 -1.427973,1.000192 -1.524703,1.414825 -1.124481,4.820094 0.449518,3.824692 1.831031,6.752244 3.186387,6.752244 0.421009,0 1.277026,-0.462951 1.902261,-1.028781 1.017682,-0.920989 1.177745,-0.922055 1.527668,-0.01017 0.438032,1.14149 -1.366671,2.372281 -3.478467,2.372281 -0.736992,0 -2.122025,-0.674999 -3.077851,-1.499999 z m 45.059186,-3.716855 c -0.49707,-0.928787 -0.43199,-2.304255 0.22973,-4.855244 1.1737,-4.524734 3.53271,-6.586571 7.54127,-6.591256 1.55833,-0.0018 2.83008,0.07169 2.82612,0.163355 -0.004,0.09167 -0.45398,1.639346 -1,3.439287 -1.42586,4.700215 -1.34104,5.960672 0.34054,5.060713 2.35059,-1.257997 1.48654,0.514498 -1.11136,2.279815 -2.49587,1.695986 -3.5553,1.706909 -3.5553,0.03666 0,-0.726405 -0.51662,-0.633361 -2.28872,0.412207 -2.2601,1.333488 -2.2974,1.33417 -2.98228,0.05447 z m 4.61899,-2.79099 c 0.69318,-0.370981 1.57179,-1.795981 1.95245,-3.166667 0.9431,-3.395851 0.91866,-3.492155 -0.88623,-3.492155 -1.61445,0 -2.51044,1.422805 -3.46353,5.5 -0.46445,1.986854 0.22626,2.320731 2.39731,1.158822 z m -71.347996,2.674511 c 0,-0.380952 2,-0.666666 4.666667,-0.666666 h 4.666667 v -3.304127 -3.304127 l -4.833334,-0.230075 -4.833333,-0.230075 4.833333,-0.132465 4.833334,-0.132465 v -3.333333 -3.333333 h -4.666667 c -2.666667,0 -4.666667,-0.285714 -4.666667,-0.666667 C 37.333334,12.277778 39.555556,12 42.666668,12 h 5.333333 v 8.333333 8.333333 h -5.333333 c -3.111112,0 -5.333334,-0.277778 -5.333334,-0.666667 z m 30.666668,0 c 0,-0.366666 0.75,-0.666666 1.666666,-0.666666 2.33534,0 2.050847,-1.474757 -0.514426,-2.666667 -4.059122,-1.885999 -2.982266,-6.524162 1.95226,-8.408676 2.77524,-1.059872 3.98382,-2.924657 1.8955,-2.924657 -0.55,0 -1,-0.3 -1,-0.666667 0,-0.37037 1.77778,-0.666666 4,-0.666666 2.22222,0 4,0.296296 4,0.666666 0,0.366667 -0.75,0.666667 -1.666667,0.666667 -1.94104,0 -2.31032,1.813584 -0.5,2.455589 2.026713,0.718749 3.5,2.365079 3.5,3.911096 0,1.865649 -2.524993,4.354421 -5.399827,5.322369 -2.52994,0.851824 -3.3649,2.310946 -1.322393,2.310946 0.763887,0 1.388887,0.3 1.388887,0.666666 0,0.370371 -1.77778,0.666667 -4,0.666667 -2.22222,0 -4,-0.296296 -4,-0.666667 z m 4.619966,-7.051724 c 0.457674,-2.045115 0.681107,-3.869421 0.49652,-4.054013 -0.708526,-0.708522 -2.971293,1.14573 -3.779646,3.097274 -0.735354,1.775295 -0.690194,2.21469 0.345226,3.358811 0.655187,0.723975 1.397014,1.316319 1.648507,1.316319 0.251487,0 0.831713,-1.673276 1.289393,-3.718391 z m 5.138074,1.339166 c 1.280673,-1.954549 0.952466,-5.204549 -0.554434,-5.490176 -0.838153,-0.15887 -1.321553,0.527887 -1.873013,2.660967 -0.408807,1.581305 -0.887753,3.375238 -1.064327,3.986517 -0.479906,1.661388 2.23434,0.761783 3.491774,-1.157308 z m -44.424708,1.712558 v -2.666666 h -6 c -3.555555,0 -6,-0.271605 -6,-0.666667 0,-0.4 2.666667,-0.666667 6.666667,-0.666667 h 6.666666 v 3.333334 c 0,1.833333 -0.3,3.333333 -0.666666,3.333333 -0.366667,0 -0.666667,-1.2 -0.666667,-2.666667 z"
       id="path1016" />
  </g>
</svg>
