<?xml version="1.0" encoding="UTF-8" standalone="no"?>
<svg
   xmlns:dc="http://purl.org/dc/elements/1.1/"
   xmlns:cc="http://creativecommons.org/ns#"
   xmlns:rdf="http://www.w3.org/1999/02/22-rdf-syntax-ns#"
   xmlns:svg="http://www.w3.org/2000/svg"
   xmlns="http://www.w3.org/2000/svg"
   xmlns:sodipodi="http://sodipodi.sourceforge.net/DTD/sodipodi-0.dtd"
   xmlns:inkscape="http://www.inkscape.org/namespaces/inkscape"
   version="1.1"
   id="svg325"
   width="97.036606"
   height="82.940536"
   viewBox="0 0 97.036607 82.940535"
   sodipodi:docname="11-1-3.svg"
   inkscape:version="1.0.1 (c497b03c, 2020-09-10)">
  <metadata
     id="metadata331">
    <rdf:RDF>
      <cc:Work
         rdf:about="">
        <dc:format>image/svg+xml</dc:format>
        <dc:type
           rdf:resource="http://purl.org/dc/dcmitype/StillImage" />
        <dc:title></dc:title>
      </cc:Work>
    </rdf:RDF>
  </metadata>
  <defs
     id="defs329" />
  <sodipodi:namedview
     pagecolor="#ffffff"
     bordercolor="#666666"
     borderopacity="1"
     objecttolerance="10"
     gridtolerance="10"
     guidetolerance="10"
     inkscape:pageopacity="0"
     inkscape:pageshadow="2"
     inkscape:window-width="725"
     inkscape:window-height="480"
     id="namedview327"
     showgrid="false"
     fit-margin-top="0"
     fit-margin-left="0"
     fit-margin-right="0"
     fit-margin-bottom="0"
     inkscape:pagecheckerboard="true"
     inkscape:zoom="3.0123039"
     inkscape:cx="47.009955"
     inkscape:cy="39.783949"
     inkscape:window-x="0"
     inkscape:window-y="25"
     inkscape:window-maximized="0"
     inkscape:current-layer="g333" />
  <g
     inkscape:groupmode="layer"
     inkscape:label="Image"
     id="g333"
     transform="translate(-6.9762538,-11.684139)">
    <g
       id="g337">
      <path
         style="fill:#cfcfcf;stroke-width:0.666667"
         d="m 60.436657,93.447509 c -1.548905,-1.71152 -1.37208,-4.851526 0.42323,-7.515586 1.388773,-2.0608 1.84006,-2.273847 5,-2.360494 3.909144,-0.10718 4.139751,0.33566 2.760751,5.301647 -0.750913,2.70416 -0.362867,5.176893 0.412247,2.626927 0.250773,-0.825 0.720966,-1.5 1.044866,-1.5 1.109294,0 0.58978,2.459226 -0.781713,3.700413 -1.080293,0.977654 -1.622493,1.083107 -2.559653,0.497847 -0.729703,-0.455714 -1.552279,-0.512607 -2.129371,-0.147287 -1.479278,0.93644 -2.972278,0.720394 -4.170357,-0.603467 z m 5.58521,-4.195386 c 0.825604,-3.06606 0.499612,-4.585454 -0.983825,-4.585454 -1.929773,0 -4.07989,6.735934 -2.617055,8.198767 0.933916,0.933913 2.91052,-1.049513 3.60088,-3.613313 z m -25.355201,4.081213 c 0,-0.366667 0.56279,-0.666667 1.250646,-0.666667 1.028836,0 1.549188,-1.19058 2.933937,-6.71294 1.39307,-5.555547 1.522268,-6.774733 0.749354,-7.071327 -2.495022,-0.957426 -0.305514,-1.549066 5.732729,-1.549066 h 6.666666 v 1.945473 c 0,2.343013 -0.592941,4.054527 -1.404659,4.054527 -0.327437,0 -0.595341,-0.865014 -0.595341,-1.922247 0,-2.036373 -1.182598,-2.71678 -4.754189,-2.73532 -1.521772,-0.0079 -1.853005,0.383327 -2.5,2.95278 -0.942628,3.743514 -0.945618,3.704787 0.286022,3.704787 0.567508,0 1.767508,-0.793807 2.666667,-1.764013 1.428064,-1.540907 1.634364,-1.604147 1.631116,-0.5 -0.0062,2.10962 -1.350953,6.264013 -2.027618,6.264013 -0.349432,0 -0.635331,-0.6 -0.635331,-1.333333 0,-2.213267 -3.080222,-1.788527 -3.626053,0.5 -0.240495,1.008333 -0.593233,2.358333 -0.783863,3 -0.251533,0.846666 0.03144,1.166666 1.031658,1.166666 0.758042,0 1.378258,0.3 1.378258,0.666667 0,0.370373 -1.777778,0.666667 -4,0.666667 -2.222221,0 -3.999999,-0.296294 -3.999999,-0.666667 z M 55.333332,52.627324 c 0,-10.967579 0.228996,-16.564484 0.666666,-16.29399 0.415022,0.256498 0.666667,6.562479 0.666667,16.706012 0,10.418215 -0.240407,16.293989 -0.666667,16.293989 -0.426708,0 -0.666666,-6.013114 -0.666666,-16.706011 z M 20.333333,28.238096 c -0.965452,-0.965451 -0.978676,-1.211801 -0.111594,-2.078883 1.172588,-1.172588 2.701778,-0.45681 2.141781,1.002517 -0.314577,0.819776 -0.204233,0.869334 0.547151,0.24574 0.83738,-0.694964 2.422662,-5.517137 2.422662,-7.369349 0,-1.349985 -1.898194,-0.692184 -3.256609,1.128546 -1.254363,1.681267 -1.369569,1.717486 -1.388938,0.436659 -0.0384,-2.539239 1.929753,-3.544508 6.658693,-3.40105 3.821826,0.115939 4.320187,0.283813 4.320187,1.455261 0,0.73111 -0.522536,1.424835 -1.166667,1.548883 -0.761604,0.146672 -1.174028,-0.197355 -1.187868,-0.99087 -0.03996,-2.290764 -1.880639,1.008008 -2.365096,4.238598 -0.560326,3.73652 0.07991,4.366941 2.077702,2.045853 1.752487,-2.036088 2.308595,-2.264819 2.308595,-0.949543 0,1.166948 -2.818835,3.782876 -4.0763,3.782876 -0.544701,0 -1.350366,-0.36 -1.790366,-0.8 -0.622222,-0.622222 -0.977778,-0.622222 -1.6,0 -1.097689,1.09769 -2.235477,1.002618 -3.533333,-0.295238 z m 31.999999,0 c -0.965451,-0.965451 -0.978675,-1.211801 -0.111593,-2.078883 1.172588,-1.172588 2.701777,-0.45681 2.14178,1.002517 -0.314576,0.819776 -0.204233,0.869334 0.547151,0.24574 0.83738,-0.694964 2.422662,-5.517137 2.422662,-7.369349 0,-1.349985 -1.898194,-0.692184 -3.256609,1.128546 -1.254363,1.681267 -1.369569,1.717486 -1.388938,0.436659 -0.0384,-2.539239 1.929753,-3.544508 6.658693,-3.40105 3.821826,0.115939 4.320187,0.283813 4.320187,1.455261 0,0.73111 -0.522535,1.424835 -1.166667,1.548883 -0.761604,0.146672 -1.174028,-0.197355 -1.187868,-0.99087 -0.03996,-2.290764 -1.880639,1.008008 -2.365096,4.238598 -0.560326,3.73652 0.07991,4.366941 2.077702,2.045853 1.752488,-2.036088 2.308596,-2.264819 2.308596,-0.949543 0,1.166948 -2.818836,3.782876 -4.076301,3.782876 -0.544701,0 -1.350366,-0.36 -1.790366,-0.8 -0.622222,-0.622222 -0.977778,-0.622222 -1.6,0 -1.097689,1.09769 -2.235477,1.002618 -3.533333,-0.295238 z m 23.480573,-2.185217 c -1.816314,-3.253218 -1.826594,-3.332509 -0.52276,-4.030302 1.109933,-0.594016 1.51574,-0.428334 2.45246,1.001282 l 1.122446,1.713077 1.932347,-3.535134 c 2.202553,-4.029463 5.356406,-7.539542 8.034933,-8.942468 2.53504,-1.327772 2.292386,-0.292561 -0.572693,2.443222 -3.172387,3.029223 -5.514234,6.764493 -6.84438,10.916854 -1.51056,4.715554 -3.141173,4.841719 -5.602353,0.433469 z m 17.956086,2.061295 c -1.548907,-1.711521 -1.37208,-4.851525 0.423226,-7.515585 1.388774,-2.060798 1.84006,-2.273851 5,-2.360493 3.909143,-0.107185 4.139753,0.335657 2.760753,5.301645 -0.75091,2.704162 -0.36287,5.176893 0.41225,2.626926 0.25077,-0.825 0.72096,-1.5 1.04486,-1.5 1.1093,0 0.58978,2.45923 -0.78171,3.700417 -1.08029,0.97765 -1.62249,1.083106 -2.55965,0.497841 -0.729703,-0.455708 -1.552283,-0.512604 -2.129376,-0.147283 -1.479273,0.936438 -2.972273,0.720394 -4.170353,-0.603468 z m 5.585206,-4.195387 c 0.825603,-3.066058 0.499614,-4.585453 -0.983826,-4.585453 -1.929767,0 -4.079887,6.735932 -2.617054,8.198767 0.93392,0.933916 2.91052,-1.049513 3.60088,-3.613314 z M 6.9999998,28.000001 c 0.2266127,-0.366667 2.4943173,-0.666667 5.0393442,-0.666667 h 4.627322 v -3 -3 H 12 c -3.7037042,0 -4.6666669,-0.206349 -4.6666669,-1 0,-0.793651 0.9629627,-1 4.6666669,-1 h 4.666666 v -3 -3 h -4.627322 c -2.5450269,0 -4.8127315,-0.3 -5.0393442,-0.666667 C 6.7375765,12.242057 8.6597438,12 12.293988,12 H 18 v 8.333334 8.333334 h -5.706012 c -3.6342442,0 -5.5564115,-0.242057 -5.2939882,-0.666667 z m 26.3333322,0 c 0,-0.366667 0.562791,-0.666667 1.250646,-0.666667 1.028837,0 1.549189,-1.190582 2.933938,-6.712941 1.39307,-5.555544 1.522268,-6.774731 0.749354,-7.071326 C 35.772248,12.591638 37.961756,12 43.999999,12 h 6.666666 v 1.945476 c 0,2.343009 -0.592941,4.054525 -1.404659,4.054525 -0.327437,0 -0.595341,-0.865011 -0.595341,-1.922247 0,-2.036376 -1.182598,-2.716783 -4.75419,-2.735317 -1.521771,-0.0079 -1.853004,0.383325 -2.499999,2.952777 -0.942628,3.743513 -0.945618,3.704787 0.286022,3.704787 0.567508,0 1.767508,-0.793807 2.666667,-1.764016 1.428064,-1.540906 1.634364,-1.604145 1.631116,-0.5 -0.0062,2.109624 -1.350953,6.264016 -2.027618,6.264016 -0.349432,0 -0.635331,-0.6 -0.635331,-1.333334 0,-2.213263 -3.080222,-1.788528 -3.626053,0.5 -0.240495,1.008334 -0.593233,2.358334 -0.783863,3 -0.251533,0.846666 0.03144,1.166667 1.031658,1.166667 0.758042,0 1.378258,0.3 1.378258,0.666667 0,0.370371 -1.777778,0.666667 -4,0.666667 -2.222222,0 -4,-0.296296 -4,-0.666667 z"
         id="path351" />
      <path
         style="fill:#aeaeae;stroke-width:0.666667"
         d="m 60.666665,93.333336 c -2.34954,-2.34954 -1.178408,-7.46064 2.109791,-9.20764 1.762356,-0.936327 6.039962,-0.676433 6.394949,0.388533 0.128726,0.386174 -0.20368,2.378367 -0.738674,4.427087 -0.534993,2.048727 -0.71002,3.887313 -0.38894,4.085753 0.32108,0.19844 0.7751,-0.401473 1.008934,-1.333133 0.233833,-0.931667 0.692626,-1.693933 1.019546,-1.693933 0.991934,0 0.667194,1.76238 -0.61694,3.348226 -1.03134,1.273647 -1.427593,1.380201 -2.666666,0.717067 -1.028018,-0.55018 -1.833959,-0.57624 -2.744839,-0.08875 -1.720226,0.920634 -1.835214,0.898734 -3.377161,-0.643213 z m 3.347991,-0.674513 c 1.203404,-0.64404 2.640394,-4.34762 2.648291,-6.825487 0.0043,-1.361167 -2.156581,-1.587773 -3.178673,-0.333333 -1.452158,1.782266 -2.269616,7.833333 -1.058232,7.833333 0.180553,0 0.89543,-0.303533 1.588614,-0.674513 z m -23.34799,0.674513 c 0,-0.366667 0.563164,-0.666667 1.251476,-0.666667 1.018861,0 1.519772,-1.084253 2.694927,-5.833333 0.793898,-3.208333 1.600951,-6.358334 1.793449,-7 0.229124,-0.763754 -0.01087,-1.166667 -0.694927,-1.166667 -0.57471,0 -1.044926,-0.3 -1.044926,-0.666667 0,-0.4 2.666667,-0.666666 6.666667,-0.666666 h 6.666666 l -0.04685,1.833333 c -0.02577,1.008333 -0.304686,2.433333 -0.61981,3.166667 -0.628679,1.463013 -0.697747,1.39788 -0.948655,-0.894587 -0.219199,-2.002747 -1.440726,-2.74914 -4.520009,-2.761873 -2.287773,-0.0095 -2.519537,0.17298 -3.162948,2.489793 -0.928625,3.34382 -0.880487,4.166667 0.243754,4.166667 1.675495,0 3.054522,-0.784653 3.054522,-1.737993 0,-0.510767 0.3,-0.928674 0.666666,-0.928674 0.846802,0 0.837046,1.02636 -0.03977,4.183734 -0.384448,1.384386 -0.969673,2.34978 -1.3005,2.145313 -0.330826,-0.20446 -0.432508,-0.81214 -0.225959,-1.3504 0.279754,-0.72902 -0.144797,-0.978647 -1.664446,-0.978647 -1.789449,0 -2.125259,0.30704 -2.734275,2.5 -0.931922,3.355694 -0.905881,3.5 0.631613,3.5 0.733333,0 1.333333,0.3 1.333333,0.666667 0,0.370373 -1.777778,0.666667 -4,0.666667 -2.222221,0 -3.999999,-0.296294 -3.999998,-0.666667 z M 55.333332,53.000002 c 0,-10.444445 0.240362,-16.333334 0.666666,-16.333334 0.426304,0 0.666667,5.888889 0.666667,16.333334 0,10.444445 -0.240363,16.333333 -0.666667,16.333333 -0.426304,0 -0.666666,-5.888888 -0.666666,-16.333333 z M 21.127688,28.827048 c -0.797265,-0.180634 -1.135988,-0.762142 -1,-1.71677 0.261624,-1.836581 2.248784,-1.941427 2.090103,-0.110277 -0.109094,1.258911 -0.04723,1.249503 1.108386,-0.16855 1.302547,-1.598356 2.3897,-6.339802 1.706938,-7.444536 -0.592575,-0.958805 -2.248542,-0.14198 -2.71933,1.34134 -0.222,0.69946 -0.68342,1.271746 -1.025378,1.271746 -1.04803,0 -0.691112,-1.730571 0.59742,-2.896675 1.407295,-1.273585 4.780839,-1.487623 4.780839,-0.303325 0,0.622222 0.177778,0.622222 0.8,0 1.141969,-1.141969 3.836016,-0.988925 4.309444,0.244811 0.220513,0.574647 0.0409,1.399647 -0.399136,1.833333 -0.617142,0.608235 -1.006348,0.509189 -1.702271,-0.433194 -0.867807,-1.175142 -0.92998,-1.169814 -1.630855,0.139784 -1.087357,2.031746 -1.703555,7.415266 -0.848751,7.415266 0.840266,0 2.560378,-1.624524 2.987442,-2.821429 0.165873,-0.464881 0.516965,-0.645932 0.780204,-0.402335 0.684817,0.633716 -0.757943,3.067246 -2.311356,3.898607 -0.929166,0.497275 -1.711451,0.494862 -2.651388,-0.0082 -0.79831,-0.427243 -1.801478,-0.483428 -2.5,-0.14002 -0.641666,0.315456 -1.709206,0.450636 -2.372311,0.3004 z m 31.999999,0 c -0.797265,-0.180634 -1.135988,-0.762142 -1,-1.71677 0.261624,-1.836581 2.248784,-1.941427 2.090103,-0.110277 -0.109093,1.258911 -0.04723,1.249503 1.108386,-0.16855 1.302547,-1.598356 2.3897,-6.339802 1.706938,-7.444536 -0.592575,-0.958805 -2.248542,-0.14198 -2.719329,1.34134 -0.222,0.69946 -0.68342,1.271746 -1.025378,1.271746 -1.04803,0 -0.691112,-1.730571 0.597419,-2.896675 1.407295,-1.273585 4.780839,-1.487623 4.780839,-0.303325 0,0.622222 0.177778,0.622222 0.8,0 1.141969,-1.141969 3.836016,-0.988925 4.309445,0.244811 0.220512,0.574647 0.0409,1.399647 -0.399137,1.833333 -0.617141,0.608235 -1.006348,0.509189 -1.702271,-0.433194 -0.867807,-1.175142 -0.92998,-1.169814 -1.630855,0.139784 -1.087357,2.031746 -1.703555,7.415266 -0.848751,7.415266 0.840266,0 2.560378,-1.624524 2.987442,-2.821429 0.165873,-0.464881 0.516965,-0.645932 0.780204,-0.402335 0.684817,0.633716 -0.757943,3.067246 -2.311356,3.898607 -0.929166,0.497275 -1.711451,0.494862 -2.651388,-0.0082 -0.79831,-0.427243 -1.801478,-0.483428 -2.5,-0.14002 -0.641666,0.315456 -1.709206,0.450636 -2.372311,0.3004 z m 23.214004,-2.147133 c -0.92126,-1.45938 -1.675026,-3.10938 -1.675026,-3.666666 0,-1.492213 2.209046,-1.232442 3.214813,0.378043 0.825853,1.322399 0.98274,1.198608 3.1684,-2.5 C 83.494604,16.754285 88.186351,12 89.824211,12 c 0.56904,0 -0.571113,1.681949 -2.69588,3.976947 -3.3271,3.593664 -4.349033,5.476523 -6.796987,12.523054 -0.56044,1.613243 -2.332666,0.804751 -3.989653,-1.820086 z m 17.658306,1.320086 c -2.34954,-2.34954 -1.178406,-7.460642 2.109794,-9.20764 1.762353,-0.936328 6.039959,-0.676436 6.394949,0.388534 0.12872,0.386174 -0.20368,2.378364 -0.73868,4.427088 -0.53499,2.048725 -0.71002,3.887313 -0.38894,4.085751 0.32108,0.198439 0.7751,-0.401472 1.00894,-1.333135 0.23383,-0.931662 0.69262,-1.693932 1.01954,-1.693932 0.99194,0 0.6672,1.762382 -0.61694,3.348225 -1.03134,1.273649 -1.42759,1.380201 -2.66666,0.717067 -1.028023,-0.550177 -1.833963,-0.576235 -2.744843,-0.08875 -1.720226,0.920636 -1.835213,0.898736 -3.37716,-0.643211 z m 3.347994,-0.674512 c 1.2034,-0.644042 2.640393,-4.347623 2.648286,-6.825488 0.0047,-1.361166 -2.15658,-1.587772 -3.178673,-0.333334 -1.452153,1.782266 -2.269613,7.833334 -1.058227,7.833334 0.180554,0 0.895427,-0.30353 1.588614,-0.674512 z M 7.3333331,28.000001 c 0,-0.380953 2,-0.666667 4.6666669,-0.666667 h 4.666666 v -2.96954 -2.96954 l -4.5,-0.197127 c -2.4749996,-0.10842 -4.4999995,-0.497126 -4.4999995,-0.863793 0,-0.366667 2.0249999,-0.755373 4.4999995,-0.863793 l 4.5,-0.197127 v -2.96954 -2.96954 H 12 c -2.6666669,0 -4.6666669,-0.285714 -4.6666669,-0.666667 C 7.3333331,12.277778 9.5555551,12 12.666666,12 H 18 v 8.333334 8.333334 h -5.333334 c -3.1111109,0 -5.3333329,-0.277778 -5.3333329,-0.666667 z m 25.9999989,0 c 0,-0.366667 0.563164,-0.666667 1.251476,-0.666667 1.018862,0 1.519773,-1.08425 2.694928,-5.833333 0.793898,-3.208334 1.600951,-6.358334 1.793449,-7.000001 0.229124,-0.763752 -0.01087,-1.166666 -0.694927,-1.166666 -0.57471,0 -1.044926,-0.3 -1.044926,-0.666667 0,-0.4 2.666667,-0.666667 6.666667,-0.666667 h 6.666666 l -0.04685,1.833334 c -0.02578,1.008333 -0.304689,2.433333 -0.619813,3.166667 -0.628679,1.463014 -0.697747,1.397882 -0.948656,-0.894588 -0.219198,-2.002745 -1.440726,-2.749137 -4.520008,-2.761871 -2.287773,-0.0095 -2.519537,0.172978 -3.162949,2.489792 -0.928624,3.343817 -0.880486,4.166667 0.243755,4.166667 1.675498,0 3.054524,-0.784652 3.054524,-1.737993 0,-0.510771 0.3,-0.928674 0.666667,-0.928674 0.846801,0 0.837046,1.026361 -0.03977,4.183733 -0.384448,1.384386 -0.969672,2.349778 -1.300499,2.145316 -0.330826,-0.204462 -0.432507,-0.812142 -0.225959,-1.350399 0.279754,-0.729026 -0.144797,-0.97865 -1.664446,-0.97865 -1.789449,0 -2.125259,0.307037 -2.734275,2.5 -0.931922,3.355694 -0.905881,3.5 0.631613,3.5 0.733333,0 1.333333,0.3 1.333333,0.666667 0,0.370371 -1.777778,0.666667 -4,0.666667 -2.222222,0 -4,-0.296296 -4,-0.666667 z"
         id="path349" />
      <path
         style="fill:#8f8f8f;stroke-width:0.666667"
         d="m 40.999999,93.333336 c 0.226613,-0.366667 0.832755,-0.666667 1.346982,-0.666667 0.520042,0 1.224304,-1.109453 1.586958,-2.5 1.636804,-6.2761 2.732726,-10.726093 2.732726,-11.096227 0,-0.22208 -0.45,-0.403773 -1,-0.403773 -0.55,0 -1,-0.3 -1,-0.666667 0,-0.397813 2.56253,-0.666666 6.354257,-0.666666 7.066956,0 7.507211,0.280473 6.412664,4.085366 -0.5701,1.981794 -0.653789,2.046674 -0.706796,0.547967 -0.08616,-2.43614 -1.262961,-3.3 -4.495455,-3.3 -2.70851,0 -2.866386,0.11182 -3.529616,2.5 -0.381856,1.375 -0.695958,2.875 -0.698002,3.333334 -0.0061,1.36184 2.501474,0.9482 4.041406,-0.666667 l 1.430398,-1.5 -0.490915,2.333333 c -0.270003,1.283334 -0.73298,2.933334 -1.028837,3.666667 -0.510385,1.26508 -0.540085,1.256547 -0.58018,-0.166667 -0.03401,-1.207373 -0.426309,-1.5 -2.010921,-1.5 -1.707028,0 -2.060935,0.332254 -2.662949,2.5 -0.902343,3.249187 -0.883788,3.5 0.258935,3.5 0.528361,0 1.146065,0.3 1.372678,0.666667 0.257533,0.416693 -1.117303,0.666667 -3.666667,0.666667 -2.549363,0 -3.924199,-0.249974 -3.666666,-0.666667 z M 59.96243,92.596469 c -1.104471,-2.06372 -0.216387,-5.43704 1.987194,-7.548206 1.701945,-1.630567 2.258813,-1.796907 4.658364,-1.391507 1.498937,0.253247 2.721783,0.659073 2.71743,0.901847 -0.0047,0.242766 -0.445387,2.08536 -0.980087,4.094646 -1.077673,4.049714 -0.28438,6.298167 1.042694,2.955314 0.423993,-1.06804 0.9046,-1.583527 1.068006,-1.14552 0.543654,1.457226 -1.110286,3.53696 -2.81282,3.53696 -0.903766,0 -1.643213,-0.36 -1.643213,-0.8 0,-0.62222 -0.177778,-0.62222 -0.8,0 -1.321579,1.32158 -4.396937,0.9672 -5.237568,-0.603534 z m 4.930831,-0.47852 c 1.41486,-1.563406 2.229037,-7.090993 1.143296,-7.76202 -1.181723,-0.730346 -3.288373,1.532187 -4.045843,4.34522 -1.110732,4.12494 0.522141,6.047114 2.902547,3.4168 z M 55.333332,53.039346 c 0,-10.470674 0.240319,-16.372678 0.666666,-16.372678 0.42588,0 0.666667,5.764663 0.666667,15.960656 0,9.921311 -0.25226,16.116558 -0.666667,16.372678 -0.437532,0.270407 -0.666666,-5.215299 -0.666666,-15.960656 z M 76.384078,26.480069 c -0.94458,-1.6118 -1.717413,-3.279188 -1.717413,-3.705307 0,-1.495949 2.46046,-0.757613 3.250013,0.975265 l 0.797367,1.750026 1.730306,-3.472278 C 82.325464,18.252874 88.118898,12 89.735324,12 c 0.59428,0 -0.316693,1.342876 -2.228533,3.285112 -1.77854,1.806813 -3.923407,4.881813 -4.766373,6.833334 -3.572587,8.27077 -3.92408,8.511958 -6.35634,4.361623 z M 7.3333331,28.000001 c 0,-0.380953 2,-0.666667 4.6666669,-0.666667 h 4.666666 v -2.96954 -2.96954 l -4.5,-0.197127 c -2.4749996,-0.10842 -4.4999995,-0.497126 -4.4999995,-0.863793 0,-0.366667 2.0249999,-0.755373 4.4999995,-0.863793 l 4.5,-0.197127 v -2.96954 -2.96954 H 12 c -2.6666669,0 -4.6666669,-0.285714 -4.6666669,-0.666667 C 7.3333331,12.277778 9.5555551,12 12.666666,12 H 18 v 8.333334 8.333334 h -5.333334 c -3.1111109,0 -5.3333329,-0.277778 -5.3333329,-0.666667 z m 12.6666659,-0.72549 c 0,-0.851638 0.466055,-1.27451 1.40466,-1.27451 1.007632,0 1.290154,0.298394 0.999546,1.055706 -0.256563,0.668594 -0.09937,0.956447 0.428674,0.785013 1.265018,-0.410696 2.9639,-7.64394 2.0176,-8.590239 -0.562564,-0.562565 -1.192628,-0.283326 -2.469535,1.09448 -1.884461,2.033367 -2.317922,1.480204 -0.676475,-0.86329 1.077347,-1.538128 3.88937,-2.011529 4.648871,-0.782632 0.297431,0.481256 0.713654,0.465312 1.335983,-0.05117 1.426892,-1.184218 3.977343,-0.530915 3.977343,1.018801 0,0.740741 -0.444445,1.333334 -1,1.333334 -0.55,0 -0.962287,-0.501276 -0.916194,-1.113947 0.05154,-0.685091 -0.266495,-0.979524 -0.826095,-0.764785 -1.097578,0.42118 -2.576664,5.513761 -2.3367,8.045398 0.138364,1.45975 2.079199,0.895611 2.866958,-0.833333 0.417662,-0.916667 1.011229,-1.666667 1.319041,-1.666667 0.833914,0 0.680361,0.864328 -0.436945,2.459506 -0.856222,1.222429 -1.654412,1.422847 -5.666666,1.422847 -4.153774,0 -4.670066,-0.140901 -4.670066,-1.274509 z m 13.666667,0.72549 c 0.226612,-0.366667 0.832754,-0.666667 1.346982,-0.666667 0.520042,0 1.224304,-1.109453 1.586958,-2.5 1.636804,-6.276102 2.732726,-10.726094 2.732726,-11.09623 0,-0.222074 -0.45,-0.40377 -1,-0.40377 -0.55,0 -1,-0.3 -1,-0.666667 0,-0.397815 2.56253,-0.666667 6.354257,-0.666667 7.066956,0 7.507211,0.280477 6.412664,4.085367 -0.5701,1.981794 -0.653789,2.046676 -0.706796,0.547967 -0.08616,-2.436141 -1.262961,-3.3 -4.495456,-3.3 -2.708509,0 -2.866385,0.111822 -3.529615,2.5 -0.381856,1.375 -0.695958,2.875 -0.698002,3.333333 -0.0061,1.361841 2.501474,0.948198 4.041405,-0.666666 l 1.430398,-1.5 -0.490914,2.333333 c -0.270004,1.283333 -0.73298,2.933333 -1.028837,3.666667 -0.510385,1.265078 -0.540085,1.256546 -0.58018,-0.166667 -0.03401,-1.207377 -0.426309,-1.5 -2.010921,-1.5 -1.707028,0 -2.060935,0.332251 -2.662949,2.5 -0.902343,3.249184 -0.883788,3.5 0.258935,3.5 0.528361,0 1.146065,0.3 1.372678,0.666667 0.257533,0.416697 -1.117303,0.666667 -3.666667,0.666667 -2.549363,0 -3.924199,-0.24997 -3.666666,-0.666667 z m 18.333333,-0.72549 c 0,-0.851638 0.466054,-1.27451 1.404659,-1.27451 1.007633,0 1.290154,0.298394 0.999547,1.055706 -0.256564,0.668594 -0.09937,0.956447 0.428673,0.785013 1.265018,-0.410696 2.9639,-7.64394 2.0176,-8.590239 -0.562564,-0.562565 -1.192628,-0.283326 -2.469535,1.09448 -1.884461,2.033367 -2.317922,1.480204 -0.676475,-0.86329 1.077347,-1.538128 3.88937,-2.011529 4.648871,-0.782632 0.297431,0.481256 0.713654,0.465312 1.335983,-0.05117 1.426892,-1.184218 3.977343,-0.530915 3.977343,1.018801 0,0.740741 -0.444445,1.333334 -1,1.333334 -0.55,0 -0.962287,-0.501276 -0.916194,-1.113947 0.05154,-0.685091 -0.266495,-0.979524 -0.826095,-0.764785 -1.097578,0.42118 -2.576664,5.513761 -2.3367,8.045398 0.138364,1.45975 2.079199,0.895611 2.866958,-0.833333 0.417662,-0.916667 1.01123,-1.666667 1.319041,-1.666667 0.833914,0 0.680361,0.864328 -0.436945,2.459506 -0.856222,1.222429 -1.654412,1.422847 -5.666666,1.422847 -4.153774,0 -4.670065,-0.140901 -4.670065,-1.274509 z m 41.295765,-0.01137 c -1.104473,-2.063722 -0.216387,-5.437042 1.987193,-7.548206 1.701947,-1.630568 2.258814,-1.79691 4.658367,-1.391509 1.498936,0.253244 2.721776,0.659075 2.717426,0.901845 -0.005,0.242771 -0.44539,2.085364 -0.98009,4.09465 -1.07767,4.049712 -0.28438,6.298166 1.0427,2.955311 0.42399,-1.068041 0.9046,-1.583524 1.068,-1.145519 0.54366,1.457227 -1.11028,3.536959 -2.81282,3.536959 -0.90376,0 -1.643209,-0.36 -1.643209,-0.8 0,-0.622223 -0.17778,-0.622223 -0.8,0 -1.32158,1.321579 -4.39694,0.967202 -5.237567,-0.603532 z m 4.930827,-0.478525 c 1.41486,-1.563403 2.229039,-7.090989 1.1433,-7.762015 -1.181727,-0.730345 -3.288374,1.532187 -4.045847,4.345216 -1.110727,4.124944 0.522147,6.047119 2.902547,3.416799 z"
         id="path347" />
      <path
         style="fill:#727272;stroke-width:0.666667"
         d="m 40.999999,93.333336 c 0.226613,-0.366667 0.832755,-0.666667 1.346982,-0.666667 0.520042,0 1.224304,-1.109453 1.586958,-2.5 1.636804,-6.2761 2.732726,-10.726093 2.732726,-11.096227 0,-0.22208 -0.467705,-0.403773 -1.039344,-0.403773 -0.57164,0 -0.853935,-0.3 -0.627322,-0.666667 0.626621,-1.013893 12.30792,-0.860173 12.664834,0.166667 0.15931,0.458333 0.0306,1.883333 -0.286016,3.166667 -0.499018,2.02264 -0.584757,2.100087 -0.643911,0.581626 -0.09544,-2.44992 -1.503879,-3.36376 -4.812297,-3.122366 -2.786128,0.203286 -2.858573,0.270313 -3.646863,3.374073 l -0.804267,3.166667 h 1.849612 c 1.148568,0 2.265483,-0.568533 2.946835,-1.5 1.081073,-1.47792 1.090957,-1.46566 0.671469,0.833333 -0.517712,2.837314 -1.553902,4.957287 -1.58579,3.24442 -0.01713,-0.919986 -1.756754,-1.86834 -3.488937,-1.901986 -0.476347,-0.0093 -1.854164,4.302913 -1.860951,5.824233 -0.0021,0.458333 0.428576,0.833333 0.956937,0.833333 0.528361,0 1.146065,0.3 1.372678,0.666667 0.257533,0.416693 -1.117303,0.666667 -3.666667,0.666667 -2.549363,0 -3.924199,-0.249974 -3.666666,-0.666667 z m 18.901096,-0.95084 c -0.97379,-2.137233 -0.292667,-4.58988 1.981487,-7.1351 1.70143,-1.904233 2.085692,-2.03662 4.652675,-1.602927 1.538941,0.26 2.794514,0.67136 2.790161,0.914134 -0.0047,0.242766 -0.450793,2.0914 -0.992087,4.108066 -1.177166,4.385687 -1.196246,4.666667 -0.316833,4.666667 0.37574,0 0.984133,-0.791607 1.351987,-1.759127 0.367846,-0.96752 0.81882,-1.609126 1.002153,-1.425793 0.183333,0.183333 0.03233,1.12494 -0.335487,2.09246 -0.69452,1.82672 -2.536353,2.324594 -3.826574,1.034373 -0.521895,-0.5219 -0.850129,-0.5219 -1.172678,0 -0.246358,0.398614 -1.33665,0.724754 -2.422871,0.724754 -1.443658,0 -2.173208,-0.435134 -2.711933,-1.617507 z m 4.992166,-0.264547 c 1.41486,-1.563406 2.229037,-7.090993 1.143296,-7.76202 -1.181723,-0.730346 -3.288373,1.532187 -4.045843,4.34522 -1.110732,4.12494 0.522141,6.047114 2.902547,3.4168 z M 55.333332,52.666668 c 0,-10.222222 0.24074,-16 0.666666,-16 0.425926,0 0.666667,5.777778 0.666667,16 0,10.222223 -0.240741,16.000001 -0.666667,16.000001 -0.425926,0 -0.666666,-5.777778 -0.666666,-16.000001 z M 76.309771,26.353269 c -0.96054,-1.639036 -1.55548,-3.289036 -1.322093,-3.666666 0.766567,-1.240336 2.116687,-0.71924 2.971093,1.146731 l 0.839467,1.833333 1.66848,-3.333333 c 1.875993,-3.74789 7.947693,-10.33857 9.510506,-10.323416 0.6368,0.0062 0.108794,0.823828 -1.399146,2.166667 -3.42238,3.047669 -5.755974,6.45129 -7.015147,10.231804 -1.949913,5.854389 -2.781586,6.162301 -5.25316,1.94488 z M 7.3333331,28.000001 c 0,-0.380953 2,-0.666667 4.6666669,-0.666667 h 4.666666 V 24.029207 20.72508 L 11.833333,20.495005 6.9999998,20.26493 11.833333,20.132465 16.666666,20.000001 V 16.666667 13.333334 H 12 c -2.6666669,0 -4.6666669,-0.285714 -4.6666669,-0.666667 C 7.3333331,12.277778 9.5555551,12 12.666666,12 H 18 v 8.333334 8.333334 h -5.333334 c -3.1111109,0 -5.3333329,-0.277778 -5.3333329,-0.666667 z m 13.0364419,0.147553 c -0.749539,-0.749539 -0.339276,-2.147553 0.630224,-2.147553 0.55,0 1,0.475 1,1.055555 0,1.79981 1.625146,0.630109 2.462372,-1.772295 0.9984,-2.864888 1.096188,-6.616594 0.172462,-6.616594 -0.384174,0 -1.434174,0.793807 -2.333333,1.764016 -0.899159,0.970208 -1.634834,1.420208 -1.634834,1 0,-2.228879 4.62449,-4.450293 5.686674,-2.731644 0.297431,0.481256 0.713654,0.465312 1.335983,-0.05117 1.426892,-1.184218 3.977343,-0.530915 3.977343,1.018801 0,0.740741 -0.444445,1.333334 -1,1.333334 -0.554647,0 -0.956338,-0.534132 -0.901961,-1.199347 0.162332,-1.985855 -1.378366,-0.862115 -2.171317,1.583697 -1.60085,4.937728 -1.68089,5.957252 -0.503165,6.409188 0.764227,0.293261 1.620298,-0.190608 2.67973,-1.51464 1.709449,-2.136394 2.167042,-1.437422 0.560526,0.856201 -0.853088,1.217954 -1.644123,1.428075 -5.296892,1.407002 -2.36172,-0.01363 -4.460436,-0.191172 -4.663812,-0.394548 z m 13.296891,-0.147553 c 0.226612,-0.366667 0.832754,-0.666667 1.346982,-0.666667 0.520042,0 1.224304,-1.109453 1.586958,-2.5 1.636804,-6.276102 2.732726,-10.726094 2.732726,-11.09623 0,-0.222074 -0.467705,-0.40377 -1.039344,-0.40377 -0.57164,0 -0.853935,-0.3 -0.627322,-0.666667 0.626621,-1.013894 12.30792,-0.860171 12.664834,0.166667 0.15931,0.458333 0.0306,1.883333 -0.286016,3.166666 -0.499018,2.022643 -0.584757,2.100089 -0.643911,0.58163 -0.09544,-2.449925 -1.503879,-3.363763 -4.812297,-3.122369 -2.786128,0.203286 -2.858573,0.270311 -3.646863,3.374073 l -0.804267,3.166667 h 1.849612 c 1.148568,0 2.265483,-0.568533 2.946835,-1.5 1.081073,-1.477923 1.090956,-1.465658 0.671469,0.833333 -0.517712,2.837313 -1.553902,4.957287 -1.585791,3.244421 -0.01713,-0.919987 -1.756753,-1.86834 -3.488936,-1.901984 -0.476347,-0.0093 -1.854164,4.302907 -1.860951,5.82423 -0.0021,0.458333 0.428576,0.833333 0.956937,0.833333 0.528361,0 1.146065,0.3 1.372678,0.666667 0.257533,0.416697 -1.117303,0.666667 -3.666667,0.666667 -2.549363,0 -3.924199,-0.24997 -3.666666,-0.666667 z m 18.703108,0.147553 c -0.749539,-0.749539 -0.339275,-2.147553 0.630225,-2.147553 0.55,0 1,0.475 1,1.055555 0,1.79981 1.625145,0.630109 2.462371,-1.772295 0.9984,-2.864888 1.096188,-6.616594 0.172462,-6.616594 -0.384174,0 -1.434174,0.793807 -2.333333,1.764016 -0.899158,0.970208 -1.634834,1.420208 -1.634834,1 0,-2.228879 4.62449,-4.450293 5.686674,-2.731644 0.297431,0.481256 0.713654,0.465312 1.335983,-0.05117 1.426892,-1.184218 3.977343,-0.530915 3.977343,1.018801 0,0.740741 -0.444445,1.333334 -1,1.333334 -0.554647,0 -0.956338,-0.534132 -0.901961,-1.199347 0.162332,-1.985855 -1.378366,-0.862115 -2.171317,1.583697 -1.60085,4.937728 -1.68089,5.957252 -0.503165,6.409188 0.764227,0.293261 1.620298,-0.190608 2.67973,-1.51464 1.70945,-2.136394 2.167042,-1.437422 0.560526,0.856201 -0.853088,1.217954 -1.644123,1.428075 -5.296892,1.407002 -2.36172,-0.01363 -4.460435,-0.191172 -4.663812,-0.394548 z m 40.864657,-1.098392 c -0.973794,-2.137237 -0.292674,-4.589883 1.981486,-7.135103 1.701427,-1.90423 2.085687,-2.036615 4.652674,-1.602926 1.538939,0.260002 2.794509,0.671362 2.790159,0.914133 -0.004,0.242771 -0.45079,2.091401 -0.99209,4.108068 -1.17716,4.385684 -1.19624,4.666667 -0.31683,4.666667 0.37574,0 0.98413,-0.791607 1.35199,-1.759126 0.36784,-0.967519 0.81882,-1.609126 1.00215,-1.425792 0.18333,0.183333 0.0323,1.12494 -0.33549,2.092459 -0.69452,1.826718 -2.53635,2.32459 -3.826569,1.034371 -0.5219,-0.521896 -0.850134,-0.521896 -1.17268,0 -0.24636,0.398615 -1.336647,0.724755 -2.422874,0.724755 -1.443653,0 -2.173206,-0.435134 -2.711926,-1.617506 z m 4.99216,-0.264551 c 1.41486,-1.563403 2.229039,-7.09099 1.1433,-7.762016 -1.181727,-0.730344 -3.288374,1.532188 -4.045847,4.345217 -1.110727,4.124944 0.522147,6.047118 2.902547,3.416799 z"
         id="path345" />
      <path
         style="fill:#515151;stroke-width:0.666667"
         d="m 41.958384,93.156843 c 1.318701,-0.66826 1.912573,-1.954614 3.150223,-6.823507 1.847657,-7.268647 1.858677,-7.49034 0.391392,-7.87378 -0.641667,-0.167687 1.889472,-0.339687 5.624752,-0.38222 l 6.79142,-0.07733 -0.385781,2.5 c -0.468588,3.036621 -0.863725,3.658527 -0.863725,1.359407 0,-2.378427 -1.438006,-3.308033 -4.744056,-3.066813 -2.786128,0.203286 -2.858573,0.270313 -3.646863,3.374073 l -0.804267,3.166667 h 1.90747 c 1.251277,0 2.163464,-0.478327 2.651608,-1.390433 1.119455,-2.091721 1.323767,-1.250814 0.492138,2.025546 -0.645544,2.543247 -0.812478,2.736394 -1.277808,1.478487 -0.352565,-0.953073 -1.100751,-1.446933 -2.19207,-1.446933 -1.346667,0 -1.786779,0.467986 -2.351098,2.5 -0.986707,3.552966 -0.89036,4.133806 0.79828,4.81256 1.131087,0.45464 0.434252,0.6109 -2.833334,0.635353 -3.860871,0.02887 -4.156154,-0.05733 -2.708281,-0.791073 z m 18.964802,0.332953 c -2.342516,-1.543213 -1.146724,-7.10562 1.965999,-9.14516 1.18529,-0.776627 2.357636,-0.96288 4.055686,-0.644327 2.746434,0.51524 2.67936,0.2932 1.381247,4.572314 -0.546033,1.79994 -0.992787,3.67494 -0.992787,4.166666 0,1.54198 1.335887,0.974134 2.035154,-0.86508 0.367846,-0.96752 0.81882,-1.609126 1.002153,-1.425793 0.183333,0.183333 0.03233,1.12494 -0.335487,2.09246 -0.69452,1.82672 -2.536353,2.324594 -3.826574,1.034373 -0.521895,-0.5219 -0.850129,-0.5219 -1.172678,0 -0.507973,0.821914 -2.993903,0.951601 -4.112713,0.214547 z m 3.907228,-1.323127 c 0.570386,-0.641666 1.361842,-2.360993 1.758791,-3.820726 0.582586,-2.1424 0.5351,-2.84068 -0.246322,-3.6221 -0.846285,-0.846287 -1.13909,-0.81326 -2.327889,0.262586 -1.58151,1.431247 -3.044851,5.7722 -2.459783,7.29686 0.531458,1.38496 1.986484,1.333147 3.275203,-0.11662 z M 55.333332,52.666668 c 0,-10.222222 0.24074,-16 0.666666,-16 0.425926,0 0.666667,5.777778 0.666667,16 0,10.222223 -0.240741,16.000001 -0.666667,16.000001 -0.425926,0 -0.666666,-5.777778 -0.666666,-16.000001 z M 76.329691,26.266986 c -1.372033,-2.341204 -1.611733,-3.247729 -1.013586,-3.833333 0.593653,-0.581208 1.136406,-0.328369 2.240753,1.043844 l 1.45734,1.810828 1.892793,-3.615196 C 82.817184,18.024717 88.557398,12 90.123331,12 c 0.46592,0 -0.234593,0.891642 -1.556687,1.981426 -2.83272,2.334964 -6.07782,7.270997 -7.243953,11.018575 -0.877267,2.81925 -1.81168,4.333333 -2.674306,4.333333 -0.286934,0 -1.33034,-1.379856 -2.318694,-3.066348 z M 7.3333331,28.000001 c 0,-0.380953 2,-0.666667 4.6666669,-0.666667 h 4.666666 V 24.029207 20.72508 L 11.833333,20.495005 6.9999998,20.26493 11.833333,20.132465 16.666666,20.000001 V 16.666667 13.333334 H 12 c -2.6666669,0 -4.6666669,-0.285714 -4.6666669,-0.666667 C 7.3333331,12.277778 9.5555551,12 12.666666,12 H 18 v 8.333334 8.333334 h -5.333334 c -3.1111109,0 -5.3333329,-0.277778 -5.3333329,-0.666667 z m 13.0364419,0.147553 c -0.749539,-0.749539 -0.339276,-2.147553 0.630224,-2.147553 0.55,0 1,0.45 1,1 0,1.162205 1.049984,1.331147 1.7033,0.27406 0.786894,-1.273222 2.092,-6.909351 1.800167,-7.77406 -0.466849,-1.383286 -1.977525,-0.942437 -3.426742,1 -0.7523,1.008333 -1.377322,1.458333 -1.388938,1 -0.05616,-2.215888 4.574196,-4.566816 5.630009,-2.858474 0.249482,0.403671 0.98984,0.371177 1.996832,-0.08764 0.88019,-0.401042 2.069477,-0.549144 2.642859,-0.329117 1.141,0.437843 1.449456,2.441896 0.375846,2.441896 -1.280322,0 -1.665233,-0.300168 -1.470775,-1.146964 0.412739,-1.797329 -1.306817,-0.748624 -2.153954,1.313631 -1.711537,4.166533 -1.928539,6.457449 -0.657856,6.945056 0.771828,0.296178 1.571734,-0.06831 2.403094,-1.094992 1.522629,-1.880367 2.235523,-1.488378 0.861304,0.473594 -0.83533,1.192602 -1.649284,1.406064 -5.281558,1.38511 -2.36172,-0.01363 -4.460436,-0.191172 -4.663812,-0.394548 z M 34.62505,27.823506 c 1.318702,-0.66826 1.912574,-1.95461 3.150224,-6.823505 1.847657,-7.268645 1.858677,-7.490342 0.391392,-7.873783 -0.641667,-0.167686 1.889472,-0.339683 5.624752,-0.382217 l 6.79142,-0.07733 -0.385781,2.5 c -0.468588,3.036622 -0.863725,3.658524 -0.863725,1.359407 0,-2.37843 -1.438006,-3.308034 -4.744056,-3.066813 -2.786128,0.203286 -2.858573,0.270311 -3.646863,3.374073 l -0.804267,3.166667 h 1.90747 c 1.251277,0 2.163463,-0.478326 2.651607,-1.390431 1.119456,-2.091722 1.323768,-1.250815 0.492138,2.025546 -0.645543,2.543242 -0.812477,2.736393 -1.277807,1.478487 -0.352565,-0.953075 -1.100751,-1.446936 -2.19207,-1.446936 -1.346667,0 -1.786779,0.467986 -2.351098,2.5 -0.986707,3.552964 -0.89036,4.133809 0.79828,4.812559 1.131087,0.454642 0.434252,0.610902 -2.833334,0.635356 -3.860872,0.02889 -4.156154,-0.05736 -2.708282,-0.791076 z m 17.744724,0.324048 c -0.749539,-0.749539 -0.339275,-2.147553 0.630225,-2.147553 0.55,0 1,0.45 1,1 0,1.162205 1.049983,1.331147 1.703299,0.27406 0.786894,-1.273222 2.092,-6.909351 1.800167,-7.77406 -0.466849,-1.383286 -1.977525,-0.942437 -3.426742,1 -0.7523,1.008333 -1.377322,1.458333 -1.388938,1 -0.05616,-2.215888 4.574196,-4.566816 5.630009,-2.858474 0.249482,0.403671 0.98984,0.371177 1.996832,-0.08764 0.88019,-0.401042 2.069477,-0.549144 2.642859,-0.329117 1.141,0.437843 1.449456,2.441896 0.375847,2.441896 -1.280323,0 -1.665234,-0.300168 -1.470776,-1.146964 0.412739,-1.797329 -1.306817,-0.748624 -2.153954,1.313631 -1.711537,4.166533 -1.928539,6.457449 -0.657856,6.945056 0.771828,0.296178 1.571734,-0.06831 2.403094,-1.094992 1.522629,-1.880367 2.235523,-1.488378 0.861304,0.473594 -0.83533,1.192602 -1.649284,1.406064 -5.281558,1.38511 -2.36172,-0.01363 -4.460435,-0.191172 -4.663812,-0.394548 z m 41.886743,0.0089 c -2.342513,-1.54321 -1.14672,-7.10562 1.966,-9.145155 1.185294,-0.776632 2.357634,-0.962883 4.055683,-0.644327 2.74644,0.515234 2.67936,0.293197 1.38125,4.572311 -0.54603,1.799941 -0.99279,3.674941 -0.99279,4.166667 0,1.541977 1.33589,0.974134 2.03516,-0.86508 0.36784,-0.967519 0.81882,-1.609126 1.00215,-1.425792 0.18333,0.183333 0.0323,1.12494 -0.33549,2.092459 -0.69452,1.826718 -2.53635,2.32459 -3.826569,1.034371 -0.5219,-0.521896 -0.850134,-0.521896 -1.17268,0 -0.507974,0.821916 -2.9939,0.951599 -4.112714,0.214546 z m 3.907227,-1.323127 c 0.570387,-0.641667 1.361847,-2.360993 1.758793,-3.820725 0.582583,-2.142404 0.535103,-2.84068 -0.24632,-3.622105 -0.846286,-0.846285 -1.139093,-0.813256 -2.327893,0.262593 -1.581507,1.431246 -3.044847,5.772194 -2.45978,7.296857 0.53146,1.384958 1.986487,1.333149 3.2752,-0.11662 z"
         id="path343" />
      <path
         style="fill:#313131;stroke-width:0.666667"
         d="m 41.958384,93.156843 c 1.318701,-0.66826 1.912573,-1.954614 3.150223,-6.823507 1.847657,-7.268647 1.858677,-7.49034 0.391392,-7.87378 -0.641667,-0.167687 1.758333,-0.339687 5.333333,-0.38222 l 6.5,-0.07733 -0.09989,2.833334 c -0.08029,2.27732 -0.157505,2.44128 -0.393489,0.8355 -0.367513,-2.500787 -1.117352,-2.97916 -4.68979,-2.99196 -3.014924,-0.0108 -3.306067,0.308446 -4.398584,4.823127 -0.408302,1.68726 -0.286296,1.833333 1.531247,1.833333 1.277813,0 2.363001,-0.52946 3.074425,-1.5 0.986984,-1.346467 1.06233,-1.363527 0.736128,-0.166667 -0.19987,0.733334 -0.574661,2.21608 -0.832871,3.294994 -0.454209,1.897886 -0.487588,1.912686 -1.026732,0.455246 -0.423191,-1.143993 -0.989968,-1.455553 -2.355812,-1.295 -1.536748,0.180654 -1.917177,0.678634 -2.613483,3.421074 -0.772926,3.0442 -0.740608,3.239613 0.626958,3.791073 1.065728,0.429747 0.398364,0.589893 -2.558109,0.61386 -3.596854,0.02913 -3.836216,-0.0506 -2.374948,-0.791073 z m 18.853259,0.0098 c -1.702731,-2.071607 -1.169854,-5.577687 1.20934,-7.95688 1.537157,-1.53716 2.375063,-1.910127 3.5,-1.557907 0.813459,0.2547 2.018662,0.45476 2.678235,0.44458 0.817907,-0.0126 1.092467,0.340073 0.86348,1.109187 -2.029347,6.81616 -1.995233,9.7994 0.08149,7.12664 0.905267,-1.16508 0.982094,-1.179027 0.61216,-0.111094 -0.23266,0.671654 -0.42302,1.346654 -0.42302,1.5 0,0.590407 -2.43606,0.242747 -3.124754,-0.445946 -0.521895,-0.5219 -0.850129,-0.5219 -1.172678,0 -0.610436,0.987707 -3.381727,0.916473 -4.224256,-0.10858 z m 3.721435,-0.403334 c 1.40193,-0.889266 2.94064,-6.790893 2.05028,-7.863713 -1.726222,-2.079967 -4.092356,0.138493 -4.934278,4.626327 -0.639076,3.40656 0.536648,4.726353 2.883998,3.237386 z m -8.91145,-40.096641 c 0,-8.983333 0.09437,-12.658333 0.209704,-8.166667 0.115338,4.491667 0.115338,11.841667 0,16.333334 -0.115338,4.491667 -0.209704,0.816667 -0.209704,-8.166667 z M 76.455165,26.239977 c -1.382267,-2.288436 -1.67294,-3.285904 -1.11708,-3.833333 0.552946,-0.544567 1.115886,-0.242731 2.13174,1.142995 l 1.380366,1.882971 1.938953,-3.549638 c 2.008407,-3.676776 5.895254,-8.119892 8.203914,-9.378017 0.729513,-0.397556 -0.139907,0.901193 -1.932034,2.886108 -3.155173,3.494579 -6.37452,9.194053 -6.387846,11.308938 -0.0067,1.004782 -1.22962,2.633333 -1.978033,2.633333 -0.20434,0 -1.212327,-1.39201 -2.23998,-3.093357 z M 7.3333331,28.028044 c 0,-0.415673 1.874416,-0.69471 4.6666669,-0.69471 h 4.666666 v -3.302873 -3.302874 l -4.5,-0.23322 -4.4999995,-0.233219 4.4999995,-0.130574 4.5,-0.130573 V 16.666667 13.333334 H 12 c -2.7922509,0 -4.6666669,-0.279038 -4.6666669,-0.69471 0,-0.438824 1.9030606,-0.622991 5.1666669,-0.5 l 5.166666,0.19471 v 8 8 L 12.5,28.528044 c -3.2636063,0.122991 -5.1666669,-0.06118 -5.1666669,-0.5 z m 12.9999999,-0.02804 c -0.486135,-0.786583 0.144444,-2 1.039344,-2 0.345028,0 0.627322,0.45 0.627322,1 0,1.766903 1.373634,1.067517 2.291397,-1.166667 1.713021,-4.170147 1.928732,-6.457375 0.655095,-6.946115 -0.809226,-0.31053 -1.630148,0.142943 -2.716446,1.50055 -0.856216,1.070061 -1.558246,1.622859 -1.560068,1.228441 -0.0018,-0.394418 0.743722,-1.418925 1.656762,-2.276681 1.433695,-1.346887 1.890765,-1.454446 3.351795,-0.788757 1.286632,0.586229 1.993613,0.582268 2.95246,-0.01654 0.983604,-0.614271 1.490841,-0.596373 2.30753,0.08142 1.160568,0.963183 0.829812,2.051016 -0.623613,2.051016 -0.561422,0 -0.78525,-0.402572 -0.555996,-1 0.46441,-1.210234 -0.670841,-1.329906 -1.581066,-0.166666 -0.918959,1.1744 -2.293768,7.106429 -1.823381,7.86753 0.672568,1.088239 2.193673,0.693746 3.274395,-0.849201 0.570792,-0.814919 1.037803,-1.161415 1.037803,-0.769992 0,1.938283 -4.063798,3.76647 -5.001114,2.24986 -0.276168,-0.446849 -0.82724,-0.446849 -1.662184,0 -1.594792,0.853507 -3.143183,0.854268 -3.670035,0.0018 z M 34.62505,27.823506 c 1.318702,-0.66826 1.912574,-1.95461 3.150224,-6.823505 1.847657,-7.268645 1.858677,-7.490342 0.391392,-7.873783 -0.641667,-0.167686 1.758333,-0.339683 5.333333,-0.382217 l 6.5,-0.07733 L 49.900111,15.5 c -0.08029,2.277319 -0.157505,2.441278 -0.393489,0.8355 -0.367513,-2.500784 -1.117352,-2.979161 -4.689791,-2.991958 -3.014923,-0.0108 -3.306066,0.308444 -4.398583,4.823125 -0.408302,1.687257 -0.286296,1.833334 1.531247,1.833334 1.277813,0 2.363001,-0.52946 3.074424,-1.5 0.986984,-1.346467 1.062331,-1.363526 0.736128,-0.166667 -0.199869,0.733333 -0.57466,2.216081 -0.83287,3.294995 -0.45421,1.897887 -0.487588,1.912687 -1.026732,0.455242 -0.423191,-1.143993 -0.989968,-1.455552 -2.355812,-1.294994 -1.536748,0.180648 -1.917177,0.678632 -2.613483,3.421069 -0.772926,3.044201 -0.740608,3.239616 0.626958,3.791076 1.065728,0.429746 0.398364,0.589891 -2.558109,0.61386 -3.596855,0.02916 -3.836217,-0.05057 -2.374949,-0.791076 z m 17.708282,0.176495 c -0.486135,-0.786583 0.144445,-2 1.039345,-2 0.345027,0 0.627322,0.45 0.627322,1 0,1.766903 1.373633,1.067517 2.291396,-1.166667 1.713021,-4.170147 1.928732,-6.457375 0.655095,-6.946115 -0.809226,-0.31053 -1.630148,0.142943 -2.716445,1.50055 -0.856216,1.070061 -1.558247,1.622859 -1.560068,1.228441 -0.0018,-0.394418 0.743721,-1.418925 1.656761,-2.276681 1.433695,-1.346887 1.890765,-1.454446 3.351795,-0.788757 1.286632,0.586229 1.993613,0.582268 2.95246,-0.01654 0.983604,-0.614271 1.490841,-0.596373 2.307531,0.08142 1.160568,0.963183 0.829812,2.051016 -0.623614,2.051016 -0.561422,0 -0.78525,-0.402572 -0.555996,-1 0.46441,-1.210234 -0.670841,-1.329906 -1.581066,-0.166666 -0.918959,1.1744 -2.293768,7.106429 -1.823381,7.86753 0.672568,1.088239 2.193673,0.693746 3.274395,-0.849201 0.570792,-0.814919 1.037803,-1.161415 1.037803,-0.769992 0,1.938283 -4.063798,3.76647 -5.001114,2.24986 -0.276168,-0.446849 -0.82724,-0.446849 -1.662184,0 -1.594792,0.853507 -3.143183,0.854268 -3.670035,0.0018 z m 41.811645,-0.166667 c -1.702733,-2.071606 -1.169853,-5.577688 1.20934,-7.956882 1.537154,-1.537157 2.37506,-1.910122 3.5,-1.557902 0.813454,0.254695 2.018663,0.454757 2.678233,0.444581 0.81791,-0.01262 1.09247,0.340066 0.86348,1.109184 -2.02935,6.816162 -1.99523,9.799403 0.0815,7.126638 0.90527,-1.165082 0.9821,-1.179024 0.61216,-0.111094 -0.23266,0.671656 -0.42302,1.346656 -0.42302,1.5 0,0.590409 -2.43606,0.24275 -3.124749,-0.445946 -0.5219,-0.521896 -0.850134,-0.521896 -1.17268,0 -0.610434,0.987705 -3.381727,0.916473 -4.224254,-0.108579 z m 3.721434,-0.403331 c 1.401926,-0.889268 2.940639,-6.790895 2.05028,-7.863715 -1.72622,-2.079969 -4.092354,0.138491 -4.93428,4.626323 -0.639074,3.406564 0.536653,4.726356 2.884,3.237392 z"
         id="path341" />
      <path
         style="fill:#040404;stroke-width:0.666667"
         d="m 42.350247,93.367956 c 1.040764,-0.422033 1.692639,-1.97858 2.844066,-6.791073 1.78641,-7.466461 1.796252,-7.727807 0.305686,-8.117327 -0.641667,-0.167687 1.758333,-0.339687 5.333333,-0.38222 l 6.5,-0.07733 -0.07888,2.5 c -0.07633,2.419287 -0.0926,2.435427 -0.503916,0.5 -0.404383,-1.902793 -0.607269,-2.0096 -4.174469,-2.197546 l -3.749429,-0.197554 -0.452412,2.41156 c -0.248826,1.32636 -0.616917,2.840254 -0.81798,3.364214 -0.470563,1.226273 3.114094,1.32346 4.401112,0.119327 0.732498,-0.685327 0.817,-0.537314 0.47577,0.833333 -0.22821,0.916667 -0.438038,2.116667 -0.466287,2.666667 -0.02877,0.56022 -0.323795,0.320653 -0.670843,-0.54476 -0.470962,-1.174394 -1.050689,-1.494067 -2.418035,-1.333334 -1.536748,0.180654 -1.917177,0.678634 -2.613483,3.421074 -0.772926,3.0442 -0.740608,3.239613 0.626958,3.791073 1.078992,0.435093 0.519053,0.581433 -2.224776,0.581433 -2.564145,0 -3.260663,-0.16464 -2.316418,-0.547533 z m 18.449751,-0.167953 c -1.249739,-1.24974 -0.940578,-5.13008 0.57873,-7.263754 1.951973,-2.741293 2.715699,-2.403386 1.216071,0.538047 -1.748808,3.430187 -1.656497,6.076553 0.238533,6.838267 1.415122,0.568806 1.422667,0.605313 0.133333,0.64518 -0.751667,0.02325 -1.726667,-0.31774 -2.166667,-0.75774 z m 5.526613,0.12246 c -0.230309,-0.372647 -0.677541,-0.5176 -0.993849,-0.322107 -0.316308,0.195487 -0.124357,-0.548113 0.426558,-1.652447 0.550915,-1.10434 1.055445,-3.054546 1.121171,-4.333806 0.06573,-1.279254 0.494507,-2.471347 0.95284,-2.649087 1.035887,-0.40172 1.046747,0.60872 0.0528,4.914707 -0.853866,3.69916 -0.316166,5.122047 1.168374,3.091813 0.52002,-0.711173 0.945493,-0.9957 0.945493,-0.632287 0,1.731994 -2.828113,2.950894 -3.673387,1.583214 z M 76.450245,25.976401 c -2.088734,-3.715762 -1.2527,-5.337999 1.179193,-2.288112 l 1.481733,1.858268 1.427027,-2.939945 c 1.775386,-3.657618 4.85128,-7.425117 7.65538,-9.376674 1.806106,-1.256988 1.655626,-0.963986 -0.965054,1.879076 -3.192733,3.463654 -5.123553,6.728861 -6.503886,10.998701 -1.152894,3.566281 -2.214207,3.533677 -4.274393,-0.131314 z m -64.616912,2.210763 4.833333,-0.245576 v -3.607001 -3.607 l -4.5,-0.23322 -4.4999995,-0.233219 4.4999995,-0.130574 4.5,-0.130573 V 16.36254 12.72508 l -4.833333,-0.245576 -4.8333332,-0.245576 5.3333332,0.0497 5.333333,0.0497 v 8.000001 8 l -5.333333,0.0497 -5.3333332,0.0497 4.8333332,-0.245575 z m 8.5,-0.187163 c -0.502998,-0.813868 0.155703,-2 1.11067,-2 0.384256,0 0.525967,0.45 0.314912,1 -0.467933,1.219413 1.137962,1.349136 2.063235,0.166666 0.918959,-1.1744 2.293767,-7.106429 1.823381,-7.86753 -0.583618,-0.944314 -1.708846,-0.768455 -3.259704,0.509452 -1.221212,1.006278 -1.211007,0.952442 0.08591,-0.45322 1.304803,-1.41421 1.672453,-1.50369 3.241282,-0.788884 1.32937,0.605702 1.997621,0.61697 2.686438,0.0453 0.504292,-0.418525 1.370715,-0.586807 1.925385,-0.37396 1.116131,0.428302 1.397678,2.428842 0.341823,2.428842 -0.366667,0 -0.666667,-0.475 -0.666667,-1.055555 0,-0.580556 -0.375,-0.933403 -0.833333,-0.784105 -1.151236,0.375004 -2.354335,3.027258 -2.888503,6.36776 -0.405728,2.537284 -0.31669,2.805234 0.932162,2.805234 0.759404,0 1.847747,-0.666752 2.418538,-1.481671 0.570792,-0.814919 1.037803,-1.161415 1.037803,-0.769992 0,1.001858 -2.245368,2.91833 -3.419161,2.91833 -0.539461,0 -1.340839,-0.36 -1.780839,-0.8 -0.622222,-0.622223 -0.977778,-0.622223 -1.6,0 -0.971925,0.971925 -2.968491,1.047267 -3.533332,0.133333 z m 14.683581,0.03462 c 1.040764,-0.422033 1.692639,-1.978584 2.844066,-6.791076 1.78641,-7.466458 1.796252,-7.727804 0.305686,-8.117329 -0.641667,-0.167686 1.758333,-0.339683 5.333333,-0.382217 l 6.5,-0.07733 -0.07888,2.5 c -0.07633,2.419284 -0.0926,2.435428 -0.503916,0.5 -0.404383,-1.902796 -0.607269,-2.009601 -4.174469,-2.197549 l -3.749429,-0.19755 -0.452412,2.411559 c -0.248826,1.326357 -0.616917,2.840254 -0.81798,3.364216 -0.470563,1.226268 3.114093,1.323456 4.401112,0.119324 0.732498,-0.685324 0.817,-0.537314 0.47577,0.833334 -0.22821,0.916666 -0.438039,2.116666 -0.466287,2.666666 -0.02877,0.560224 -0.323795,0.320652 -0.670844,-0.544756 -0.470961,-1.1744 -1.050688,-1.494068 -2.418034,-1.333334 -1.536748,0.180648 -1.917177,0.678632 -2.613483,3.421069 -0.772926,3.044201 -0.740608,3.239616 0.626958,3.791076 1.078992,0.435094 0.519053,0.58143 -2.224776,0.58143 -2.564145,0 -3.260664,-0.164635 -2.316418,-0.547529 z m 17.316418,-0.03462 c -0.502998,-0.813868 0.155703,-2 1.110671,-2 0.384256,0 0.525966,0.45 0.314912,1 -0.467934,1.219413 1.137961,1.349136 2.063234,0.166666 0.918959,-1.1744 2.293767,-7.106429 1.823381,-7.86753 -0.583618,-0.944314 -1.708846,-0.768455 -3.259704,0.509452 -1.221211,1.006278 -1.211007,0.952442 0.08591,-0.45322 1.304803,-1.41421 1.672453,-1.50369 3.241282,-0.788884 1.32937,0.605702 1.997621,0.61697 2.686438,0.0453 0.504292,-0.418525 1.370715,-0.586807 1.925385,-0.37396 1.116132,0.428302 1.397678,2.428842 0.341823,2.428842 -0.366667,0 -0.666667,-0.475 -0.666667,-1.055555 0,-0.580556 -0.375,-0.933403 -0.833333,-0.784105 -1.151236,0.375004 -2.354335,3.027258 -2.888503,6.36776 -0.405728,2.537284 -0.31669,2.805234 0.932162,2.805234 0.759404,0 1.847747,-0.666752 2.418538,-1.481671 0.570792,-0.814919 1.037803,-1.161415 1.037803,-0.769992 0,1.001858 -2.245368,2.91833 -3.419161,2.91833 -0.539461,0 -1.340839,-0.36 -1.780839,-0.8 -0.622222,-0.622223 -0.977778,-0.622223 -1.6,0 -0.971925,0.971925 -2.968491,1.047267 -3.533333,0.133333 z m 41.799999,-0.133333 c -1.24974,-1.24974 -0.94058,-5.130083 0.578726,-7.263754 1.951974,-2.741293 2.7157,-2.403385 1.216074,0.538048 -1.748807,3.430185 -1.656494,6.076555 0.238533,6.838264 1.41512,0.56881 1.422667,0.605318 0.133333,0.645184 -0.751666,0.02324 -1.726666,-0.317742 -2.166666,-0.757742 z m 5.526613,0.122458 c -0.230307,-0.372647 -0.67754,-0.517595 -0.993847,-0.322106 -0.316313,0.195489 -0.12436,-0.548113 0.426554,-1.652448 0.55092,-1.104335 1.055449,-3.054547 1.121169,-4.333803 0.0657,-1.279258 0.49451,-2.471347 0.95284,-2.649089 1.03589,-0.401717 1.04675,0.608723 0.0528,4.914708 -0.85386,3.699158 -0.31616,5.122044 1.16838,3.091811 0.52002,-0.71117 0.94549,-0.995699 0.94549,-0.632285 0,1.731993 -2.82811,2.950896 -3.673386,1.583212 z"
         id="path339" />
    </g>
  </g>
</svg>
