<?xml version="1.0" encoding="UTF-8" standalone="no"?>
<svg
   xmlns:dc="http://purl.org/dc/elements/1.1/"
   xmlns:cc="http://creativecommons.org/ns#"
   xmlns:rdf="http://www.w3.org/1999/02/22-rdf-syntax-ns#"
   xmlns:svg="http://www.w3.org/2000/svg"
   xmlns="http://www.w3.org/2000/svg"
   xmlns:sodipodi="http://sodipodi.sourceforge.net/DTD/sodipodi-0.dtd"
   xmlns:inkscape="http://www.inkscape.org/namespaces/inkscape"
   version="1.1"
   id="svg78"
   width="271.68668"
   height="100.44646"
   viewBox="0 0 271.68667 100.44646"
   sodipodi:docname="11-1-1.png.svg"
   inkscape:version="1.0.1 (c497b03c, 2020-09-10)">
  <metadata
     id="metadata84">
    <rdf:RDF>
      <cc:Work
         rdf:about="">
        <dc:format>image/svg+xml</dc:format>
        <dc:type
           rdf:resource="http://purl.org/dc/dcmitype/StillImage" />
        <dc:title></dc:title>
      </cc:Work>
    </rdf:RDF>
  </metadata>
  <defs
     id="defs82" />
  <sodipodi:namedview
     pagecolor="#ffffff"
     bordercolor="#666666"
     borderopacity="1"
     objecttolerance="10"
     gridtolerance="10"
     guidetolerance="10"
     inkscape:pageopacity="0"
     inkscape:pageshadow="2"
     inkscape:window-width="739"
     inkscape:window-height="480"
     id="namedview80"
     showgrid="false"
     fit-margin-top="0"
     fit-margin-left="0"
     fit-margin-right="0"
     fit-margin-bottom="0"
     inkscape:pagecheckerboard="true"
     inkscape:zoom="1.7220815"
     inkscape:cx="116.24678"
     inkscape:cy="52.040311"
     inkscape:window-x="0"
     inkscape:window-y="25"
     inkscape:window-maximized="0"
     inkscape:current-layer="g86" />
  <g
     inkscape:groupmode="layer"
     inkscape:label="Image"
     id="g86"
     transform="translate(-6.9799791,-12.886862)">
    <g
       id="g90">
      <path
         style="fill:#cbcbcb;stroke-width:0.666667"
         d="M 41.488746,96.166667 41.666668,79 H 83.333335 125 l 0.17792,17.166667 0.17792,17.166663 H 83.333335 41.310824 Z M 124,96.333333 V 80.666667 H 83.333335 42.666668 V 96.333333 112 H 83.333335 124 Z M 58.303031,103.0303 c -1.111572,-1.11157 -1.636363,-2.38177 -1.636363,-3.960653 0,-3.39528 -1.080173,-3.512767 -2.721255,-0.29598 -1.317822,2.583143 -1.512779,2.719923 -2.314322,1.623753 -0.663369,-0.907213 -0.698758,-1.58442 -0.146173,-2.797213 0.401007,-0.880114 0.905949,-1.610187 1.122093,-1.622387 0.216145,-0.0122 1.090868,-0.603813 1.94383,-1.314693 2.09732,-1.747974 1.443569,-4.30692 -0.947029,-3.70692 -1.931086,0.484673 -2.069793,-0.327847 -0.325454,-1.906454 1.734964,-1.57012 4.237799,-1.125506 4.697024,0.834407 l 0.363373,1.55082 1.613499,-1.717487 c 1.819336,-1.936593 5.130329,-2.429606 4.452407,-0.662966 -0.222563,0.579986 -0.40466,1.179986 -0.40466,1.333333 0,0.15334 -0.547706,0.278807 -1.217124,0.278807 -0.669418,0 -1.899376,0.726226 -2.73324,1.613833 -1.407766,1.4985 -1.463434,1.85948 -0.778934,5.051193 1.24064,5.784907 2.303676,6.998697 4.343232,4.959137 1.123194,-1.1232 2.386066,-0.76478 2.386066,0.67719 0,2.25492 -5.460149,2.29911 -7.69697,0.0623 z m 27.707178,-2.86363 c 0.0053,-0.275003 0.295933,-0.950003 0.645153,-1.500003 0.54484,-0.858087 -0.331733,-1.047307 -6.176874,-1.333334 -4.041726,-0.19778 -6.74624,-0.60444 -6.650553,-1 0.09125,-0.37718 3.75936,-0.811413 8.447314,-1 C 86.832569,95.15 90.784995,94.775 91.058422,94.5 c 1.098253,-1.10458 -0.867527,-1.5149 -8.783173,-1.833333 -4.687954,-0.188587 -8.356067,-0.62282 -8.447314,-1 -0.09569,-0.39556 2.608827,-0.80222 6.650553,-1 5.845141,-0.286027 6.721714,-0.475247 6.176874,-1.333334 -1.790613,-2.820113 0.158093,-2.638506 2.695273,0.25118 1.087107,1.238154 2.877947,2.624547 3.979634,3.08088 2.43452,1.008414 2.556633,1.836934 0.35228,2.390194 -0.907927,0.227873 -2.707147,1.583586 -3.99826,3.0127 -2.181894,2.415093 -3.698227,3.281123 -3.67408,2.098383 z M 104.9185,98.91262 c -0.71174,-2.83578 1.38461,-8.410387 3.67055,-9.76072 1.92567,-1.13752 7.41773,-1.6211 7.40374,-0.6519 -0.004,0.275 -0.45397,1.97268 -1,3.77262 -1.24775,4.1131 -1.3131,5.647693 -0.19279,4.52738 0.9273,-0.927293 2.53334,-1.067987 2.53334,-0.221927 0,0.679114 -4.99149,4.088597 -5.98571,4.088597 -0.37453,0 -0.68096,-0.45 -0.68096,-1.000003 0,-1.244247 -0.62869,-1.238434 -2.29409,0.0212 -1.90134,1.438103 -2.95809,1.200923 -3.45408,-0.775247 z m 5.15116,-2.43638 c 0.96702,-0.73652 1.28648,-1.454787 2.3615,-5.309573 C 112.66442,90.33026 112.37122,90 111.39538,90 109.82875,90 108,93.034233 108,95.63356 c 0,1.875747 0.4648,2.065 2.06966,0.84268 z m 136.32288,10.64949 c -1.38749,-1.01456 -1.18731,-3.45906 0.28327,-3.45906 0.63472,0 0.93243,0.54678 0.82829,1.52126 -0.14126,1.32179 0.01,1.42906 1.15139,0.81806 1.6544,-0.88542 3.20712,-3.50058 1.74537,-2.93965 -1.54691,0.59361 -3.73419,-0.9627 -3.73419,-2.65698 0,-0.849053 0.32713,-2.48212 0.72695,-3.629047 0.93607,-2.685213 0.35038,-4.41344 -0.64623,-1.906866 -0.78388,1.971533 -2.3177,1.913146 -1.61478,-0.06147 C 245.83999,92.824853 246.78189,92 248.34365,92 c 2.10842,0 2.43032,1.396707 1.2432,5.394173 -0.70264,2.366014 -0.80624,3.653097 -0.33221,4.127127 1.21577,1.21577 2.52208,-0.66099 3.42649,-4.92278 0.75782,-3.57096 2.03746,-5.435493 3.04141,-4.43154 0.69975,0.69974 -2.65259,12.06094 -3.99159,13.52767 -1.81742,1.99078 -3.83376,2.53131 -5.33841,1.43108 z m -53.41568,-4.42674 c -2.88896,-1.17102 -4.03543,-4.470523 -2.68029,-7.713817 2.25682,-5.40134 10.40129,-3.593066 10.3489,2.2977 -0.0251,2.823377 -1.08432,4.410047 -3.57653,5.357587 -2.09597,0.79689 -2.26455,0.79929 -4.09208,0.0585 z m 4.89176,-5.212857 c 0.16184,-2.159353 -0.0903,-2.899146 -1.26974,-3.725246 -1.06339,-0.744827 -1.813,-0.84814 -2.70195,-0.372394 -1.7177,0.919287 -1.76608,6.908217 -0.0636,7.873187 1.93613,1.09739 3.80082,-0.64727 4.03528,-3.775547 z m 23.23471,4.628037 c -1.54877,-1.71136 -1.37213,-4.851343 0.4228,-7.515583 1.36037,-2.019234 1.8757,-2.275614 4.74488,-2.360614 l 3.21876,-0.09536 -0.35995,2.428694 c -0.19797,1.33578 -0.54055,3.478693 -0.76127,4.762026 -0.35856,2.084687 -0.31768,2.173487 0.38361,0.833337 0.43171,-0.825003 1.03909,-1.500003 1.34972,-1.500003 0.96566,0 0.62151,1.782253 -0.64654,3.348223 -0.98524,1.21672 -1.45858,1.36362 -2.53593,0.78704 -0.8236,-0.44078 -1.6892,-0.47821 -2.28866,-0.099 -1.43692,0.9091 -2.30262,0.76459 -3.52742,-0.5888 z m 3.94134,-1.75544 c 0.59147,-0.902697 1.23788,-2.852697 1.43648,-4.33333 0.29204,-2.177353 0.15638,-2.692067 -0.70958,-2.692067 -1.43843,0 -3.1049,3.381474 -3.1049,6.300227 0,2.76669 0.86709,3.03111 2.378,0.72517 z m 7.62992,1.86349 c 0.005,-0.67222 0.4433,-2.858267 0.97544,-4.857887 1.03102,-3.874213 0.84213,-5.412266 -0.29679,-2.416673 -0.92927,2.444173 -2.14315,1.604867 -1.27611,-0.88234 0.6423,-1.842493 0.81642,-1.906633 5.28998,-1.948727 4.35417,-0.041 4.64962,0.05127 5.0309,1.570374 0.22278,0.887646 -0.0748,3.022086 -0.6612,4.743193 -1.1671,3.42527 -0.93041,4.78909 0.34524,1.98933 0.83933,-1.842123 1.91796,-2.348917 1.91796,-0.901163 0,1.288323 -1.95788,3.815003 -2.95618,3.815003 -2.10804,0 -2.60062,-1.8676 -1.50673,-5.712877 0.95791,-3.3673 0.95735,-3.728386 -0.007,-4.098206 -1.34534,-0.51626 -2.69022,1.293946 -3.55904,4.790486 -0.36725,1.478 -0.90755,3.119417 -1.20066,3.647587 -0.81634,1.47103 -2.1053,1.63205 -2.09642,0.2619 z m 33.57725,-0.64293 c -0.71174,-2.835783 1.38461,-8.41039 3.67055,-9.760723 1.92566,-1.13752 7.41772,-1.6211 7.40374,-0.6519 -0.004,0.275 -0.45398,1.97268 -1,3.77262 -1.24776,4.1131 -1.3131,5.647693 -0.19279,4.52738 0.92729,-0.927294 2.53333,-1.067987 2.53333,-0.221927 0,0.679113 -4.99148,4.08859 -5.9857,4.08859 -0.37453,0 -0.68096,-0.45 -0.68096,-1 0,-1.24424 -0.6287,-1.23843 -2.29409,0.0212 -1.90134,1.4381 -2.95809,1.20092 -3.45408,-0.77524 z m 5.15115,-2.436383 c 0.96702,-0.73652 1.28648,-1.454787 2.3615,-5.309574 0.23326,-0.836406 -0.0599,-1.166666 -1.03577,-1.166666 -1.56663,0 -3.39538,3.034233 -3.39538,5.63356 0,1.875743 0.4648,2.065003 2.06965,0.84268 z M 23.700001,102.06471 c 0.348333,-0.33108 1.208473,-0.70608 1.911422,-0.83334 1.760751,-0.31875 2.170558,-1.898037 0.49252,-1.898037 C 24.723897,99.333333 22,96.457187 22,95 c 0,-1.658413 2.811061,-4.323073 5.369099,-5.08948 2.736768,-0.819953 3.621503,-2.577187 1.297568,-2.577187 -0.733333,0 -1.333333,-0.3 -1.333333,-0.666666 C 27.333334,86.2906 29.222223,86 31.666667,86 c 4.081529,0 6.044405,0.98882 2.885552,1.453633 -1.60595,0.236307 -2.53865,1.8797 -1.066815,1.8797 1.636159,0 3.84793,2.637914 3.84793,4.589314 0,2.16106 -1.381363,3.608353 -4.812145,5.041826 -2.886063,1.205877 -3.815852,2.368857 -1.893866,2.368857 0.754972,0 1.372678,0.3 1.372678,0.66667 0,0.37811 -1.933334,0.66667 -4.466667,0.66667 -2.680836,0 -4.213452,-0.24068 -3.833333,-0.60196 z m 4.863467,-7.497857 c 0.435855,-1.888226 0.636197,-3.589413 0.445203,-3.780406 -0.755934,-0.755934 -3.675337,2.859806 -3.675337,4.551986 0,4.064274 2.237242,3.529867 3.230134,-0.77158 z m 4.721479,1.676574 c 1.560892,-1.984354 1.757738,-3.60074 0.58172,-4.77676 -1.293817,-1.29382 -1.666758,-0.9653 -2.45419,2.16188 -1.243372,4.93788 -0.62932,5.795393 1.87247,2.61488 z M 182.66667,102 c 0,-0.36667 0.3,-0.66667 0.66667,-0.66667 1.00242,0 0.84406,-7.81691 -0.16667,-8.227023 -0.60546,-0.245667 -0.62836,-0.488734 -0.0838,-0.888887 0.41226,-0.302913 0.96333,-1.53592 1.2246,-2.740007 0.5561,-2.562946 3.01897,-4.447693 4.99318,-3.821106 1.80606,0.57322 1.83248,3.01036 0.0327,3.01036 -0.73333,0 -1.33333,-0.317707 -1.33333,-0.706014 0,-0.388306 -0.3,-0.5206 -0.66667,-0.293986 -0.36666,0.226613 -0.66666,1.29432 -0.66666,2.37268 0,1.516206 0.30224,1.960653 1.33333,1.960653 0.73333,0 1.33333,0.3 1.33333,0.666667 0,0.366666 -0.6,0.666666 -1.33333,0.666666 -1.18519,0 -1.33333,0.444447 -1.33333,4 0,3.111117 0.22222,3.999997 1,3.999997 0.55,0 1,0.3 1,0.66667 0,0.36667 -1.35,0.66667 -3,0.66667 -1.65,0 -3,-0.3 -3,-0.66667 z m 18.66667,0 c 0,-0.36667 0.45,-0.66667 1,-0.66667 0.77778,0 1,-0.88888 1,-3.999997 0,-3.111113 -0.22222,-4 -1,-4 -0.55,0 -1,-0.277553 -1,-0.616786 0,-0.339234 1.95,-0.605534 4.33333,-0.591787 3.79411,0.02187 4.33333,0.181593 4.33333,1.283453 0,1.362314 -1.63573,1.72052 -2.37732,0.520614 -0.79204,-1.281554 -1.60154,0.845933 -1.61247,4.23784 -0.008,2.374903 0.23982,3.166663 0.98979,3.166663 0.55,0 1,0.3 1,0.66667 0,0.36667 -1.5,0.66667 -3.33333,0.66667 -1.83333,0 -3.33333,-0.3 -3.33333,-0.66667 z M 19.333334,98 v -2.666667 h -5.960656 c -3.27836,0 -6.1460652,-0.3 -6.3726778,-0.666666 C 6.7352548,94.2383 9.1041882,94 13.627322,94 h 7.039345 v 3.333333 c 0,1.833334 -0.3,3.333337 -0.666667,3.333337 -0.366666,0 -0.666666,-1.200003 -0.666666,-2.66667 z M 65.333335,57 c 0,-9.111111 0.242894,-14.333333 0.666666,-14.333333 0.423773,0 0.666667,5.222222 0.666667,14.333333 0,9.111111 -0.242894,14.333333 -0.666667,14.333333 -0.423772,0 -0.666666,-5.222222 -0.666666,-14.333333 z M 52.303031,33.030303 c -1.111572,-1.111572 -1.636363,-2.381778 -1.636363,-3.960655 0,-3.395279 -1.080174,-3.512765 -2.721256,-0.295979 -1.317821,2.583144 -1.512778,2.719928 -2.314321,1.623753 -0.663369,-0.907213 -0.698758,-1.584423 -0.146173,-2.797216 0.401007,-0.880113 0.905948,-1.610187 1.122093,-1.622385 0.216145,-0.0122 1.090868,-0.603812 1.94383,-1.314697 2.09732,-1.747969 1.443569,-4.306921 -0.947029,-3.706919 -1.931086,0.484672 -2.069793,-0.327847 -0.325454,-1.906452 1.734964,-1.57012 4.237798,-1.125504 4.697024,0.834405 l 0.363373,1.550825 1.613499,-1.717492 c 1.819336,-1.936594 5.130329,-2.429603 4.452407,-0.662966 -0.222563,0.579989 -0.40466,1.179989 -0.40466,1.333333 0,0.153345 -0.547706,0.278809 -1.217124,0.278809 -0.669418,0 -1.899376,0.726224 -2.73324,1.613832 -1.407766,1.498498 -1.463434,1.859484 -0.778934,5.051192 1.24064,5.78491 2.303676,6.998693 4.343232,4.959137 1.123194,-1.123193 2.386066,-0.764777 2.386066,0.677191 0,2.25492 -5.460149,2.299104 -7.69697,0.06229 z M 35.316833,29 c -0.357591,-0.916667 -0.978337,-2.491667 -1.379435,-3.5 -3.499054,-8.796386 -4.512821,-12.166667 -3.659682,-12.166667 0.500965,0 1.39099,1.2 1.977833,2.666667 1.041547,2.603081 1.144874,2.666667 4.333334,2.666667 3.18846,0 3.291787,-0.06359 4.333333,-2.666667 1.18268,-2.955807 2.8199,-3.719474 2.136488,-0.996545 -0.923158,3.678156 -5.864575,15.663212 -6.457915,15.663212 -0.348584,0 -0.926364,-0.75 -1.283956,-1.666667 z m 2.383853,-4.645254 c 1.380172,-3.303219 1.240816,-3.688079 -1.335431,-3.688079 h -2.301412 l 1.111879,3 c 0.611533,1.65 1.212477,3 1.335429,3 0.122954,0 0.658244,-1.040365 1.189535,-2.311921 z m 48.779889,3.011763 c -1.816153,-3.233618 -1.82648,-3.312868 -0.52276,-4.010599 1.109934,-0.594016 1.51574,-0.428334 2.45246,1.001281 l 1.122447,1.713078 1.932347,-3.535134 c 1.062793,-1.944324 2.892926,-4.535731 4.066973,-5.758681 2.096627,-2.183965 5.801298,-4.556983 5.801298,-3.716012 0,0.235409 -1.618884,2.176601 -3.597518,4.313762 -2.142753,2.314428 -4.055747,5.181121 -4.730673,7.089105 -2.025807,5.726816 -2.294014,6.203367 -3.490854,6.20268 -0.721073,-4.14e-4 -1.90246,-1.285294 -3.03372,-3.29948 z m 19.104595,1.546109 c -0.71174,-2.835779 1.38461,-8.410383 3.67055,-9.760719 1.92566,-1.13752 7.41772,-1.621096 7.40374,-0.651899 -0.004,0.275 -0.45398,1.972679 -1,3.772621 -1.24776,4.113101 -1.3131,5.647693 -0.19279,4.527379 C 116.39396,25.872704 118,25.732013 118,26.578076 c 0,0.679111 -4.99148,4.088591 -5.9857,4.088591 -0.37453,0 -0.68096,-0.45 -0.68096,-1 0,-1.244247 -0.6287,-1.238436 -2.29409,0.0212 -1.90134,1.438099 -2.95809,1.200915 -3.45408,-0.775251 z m 5.15115,-2.436379 c 0.96702,-0.736516 1.28648,-1.454787 2.3615,-5.309572 C 113.33108,20.330262 113.03787,20 112.06205,20 c -1.56663,0 -3.39538,3.034232 -3.39538,5.63356 0,1.875749 0.4648,2.064997 2.06965,0.842679 z m -49.036319,2.921804 c 0.348334,-0.331076 1.208474,-0.706076 1.911423,-0.833333 1.760751,-0.318755 2.170557,-1.898043 0.492519,-1.898043 -1.380046,0 -4.103942,-2.87615 -4.103942,-4.333334 0,-1.65841 2.811061,-4.323072 5.369099,-5.089479 2.736768,-0.819956 3.621502,-2.577187 1.297568,-2.577187 -0.733333,0 -1.333333,-0.3 -1.333333,-0.666667 0,-0.376069 1.888887,-0.666667 4.333333,-0.666667 4.081527,0 6.044407,0.988823 2.885554,1.453633 -1.605954,0.236308 -2.538654,1.879701 -1.066814,1.879701 1.636154,0 3.847927,2.637913 3.847927,4.589312 0,2.16106 -1.381367,3.608356 -4.812147,5.041828 -2.88606,1.205874 -3.815847,2.36886 -1.893866,2.36886 0.754973,0 1.37268,0.3 1.37268,0.666666 0,0.37811 -1.933334,0.666667 -4.466667,0.666667 -2.680836,0 -4.213452,-0.24067 -3.833334,-0.601957 z m 4.863468,-7.497855 c 0.435853,-1.888229 0.636199,-3.589413 0.445206,-3.780406 -0.755938,-0.755935 -3.67534,2.859807 -3.67534,4.551983 0,4.064272 2.237242,3.529866 3.230134,-0.771577 z m 4.721479,1.676573 c 1.560894,-1.984353 1.75774,-3.600743 0.58172,-4.776761 -1.29382,-1.293817 -1.66676,-0.965297 -2.454193,2.16188 -1.243367,4.937877 -0.62932,5.795392 1.872473,2.614881 z m -43.951614,1.756572 v -2.666666 h -5.960656 c -3.27836,0 -6.146065,-0.3 -6.372678,-0.666667 -0.264745,-0.428367 2.104188,-0.666667 6.627322,-0.666667 h 7.039345 v 3.333334 C 28.666667,26.5 28.366667,28 28.000001,28 27.633334,28 27.333334,26.8 27.333334,25.333333 Z"
         id="path104" />
      <path
         style="fill:#b0b0b0;stroke-width:0.666667"
         d="m 41.782783,112.89389 c -0.247197,-0.2472 -0.449449,-7.89944 -0.449449,-17.005003 V 79.333333 H 83.344782 125.35623 L 125.17812,96.166667 125,113 83.616115,113.17167 c -22.761136,0.0944 -41.586136,-0.0306 -41.833332,-0.27778 z M 124,96 V 80 H 83.333335 42.666668 v 16 16 H 83.333335 124 Z m -64.724437,7.81213 c -1.671522,-1.28335 -2.607146,-3.51334 -2.629962,-6.268303 L 56.624534,95 54.978935,96.870507 c -0.905081,1.02878 -1.6456,2.32878 -1.6456,2.888893 0,1.49258 -1.631478,0.70715 -1.869441,-0.899987 -0.135241,-0.913386 0.607329,-2.03724 2.229662,-3.3745 2.911867,-2.400206 2.968113,-4.557646 0.113653,-4.359406 -2.247573,0.156093 -2.320762,-0.758274 -0.17332,-2.165334 2.122141,-1.39048 3.881143,-1.014533 4.339592,0.927487 l 0.365274,1.54732 1.613499,-1.717487 c 1.529085,-1.62764 3.347552,-2.195466 4.224035,-1.31898 0.696652,0.696647 -0.276522,2.26758 -1.41428,2.28298 -0.602438,0.0081 -1.8288,0.578534 -2.72525,1.26752 -1.589238,1.221447 -1.610458,1.357294 -0.850398,5.4443 0.42873,2.30538 1.219196,4.631287 1.75659,5.168687 0.85833,0.85833 1.180276,0.84394 2.648967,-0.11839 1.871675,-1.22636 3.056917,-0.36202 1.71718,1.25226 -0.972685,1.17202 -4.568216,1.2413 -6.033535,0.11626 z m 26.724439,-3.77278 c 0,-0.34503 0.3,-0.812737 0.666667,-1.03935 1.790486,-1.10658 0.102206,-1.635093 -5.779294,-1.809193 -4.422273,-0.1309 -6.532693,-0.452427 -6.72222,-1.02414 -0.210487,-0.634914 1.602127,-0.835767 7.612627,-0.84354 7.8279,-0.01013 10.149247,-0.489827 9.268287,-1.91526 -0.296387,-0.47956 -3.385847,-0.7412 -8.75208,-0.7412 -6.927987,0 -8.293987,-0.1647 -8.293987,-1 0,-0.82222 1.185186,-1 6.666666,-1 6.552054,0 7.449894,-0.28344 5.877781,-1.855554 -0.433894,-0.433893 -0.579767,-0.998013 -0.324174,-1.253606 0.255594,-0.2556 1.480854,0.64464 2.7228,2.000526 1.24194,1.355887 3.18782,2.789354 4.324167,3.185494 2.50488,0.8732 2.63718,1.63526 0.382153,2.20124 -0.926166,0.232453 -2.84106,1.614973 -4.25532,3.072273 -2.60694,2.68627 -3.394073,3.15527 -3.394073,2.02231 z m 19.314078,-0.39589 c -0.67948,-0.818727 -0.68729,-1.746673 -0.0391,-4.64322 1.066,-4.7633 3.56525,-7.00024 7.8211,-7.00024 2.80278,0 2.96308,0.09569 2.51259,1.5 -0.70265,2.19036 -1.57441,6.03448 -1.59276,7.023453 -0.0124,0.666107 0.29801,0.688794 1.39456,0.101934 2.30631,-1.234307 1.19911,0.784466 -1.39379,2.54128 -2.73914,1.855903 -3.35001,1.878023 -3.35001,0.121273 v -1.378733 l -1.93625,1.378733 c -2.31683,1.64973 -2.34023,1.65216 -3.41634,0.35552 z m 4.65306,-2.959207 c 0.66706,-0.356993 1.41158,-1.481993 1.6545,-2.5 0.24292,-1.018006 0.59765,-2.37592 0.78828,-3.017586 C 112.6565,90.336647 112.38239,90 111.45989,90 c -1.80377,0 -2.85089,1.484053 -3.27427,4.64052 -0.38136,2.843287 -0.16858,3.087393 1.78152,2.043733 z m 135.81065,10.204637 c -0.79868,-0.79868 -0.46688,-2.73763 0.5342,-3.12178 1.20794,-0.46353 1.8285,0.42441 1.28552,1.8394 -0.88265,2.30014 1.8133,0.56534 3.38458,-2.17793 0.38928,-0.67963 0.18316,-0.79841 -0.82835,-0.47737 -1.57012,0.49833 -3.48707,-1.10414 -3.48707,-2.91501 0,-0.661047 0.4367,-2.439613 0.97043,-3.95238 0.61659,-1.747613 0.71537,-2.750487 0.27092,-2.750487 -0.38473,0 -0.85641,0.6 -1.04818,1.333334 -0.36303,1.388206 -1.5265,1.862926 -1.5265,0.62284 0,-1.636054 1.48387,-3.289507 2.95213,-3.289507 2.17477,0 2.47668,1.3181 1.20954,5.28056 -0.81866,2.56 -0.89705,3.58406 -0.31865,4.16246 1.26245,1.26245 2.66445,-0.49225 3.54807,-4.440673 0.97104,-4.33906 1.6427,-5.568847 2.54702,-4.66344 1.02912,1.030366 -1.78935,11.305883 -3.65252,13.316283 -1.48204,1.59914 -4.7793,2.29555 -5.84114,1.2337 z M 194,102.85585 C 187.87346,100.65711 189.06533,92 195.49458,92 c 4.53329,0 6.7912,5.477993 3.67209,8.90895 -1.61993,1.78189 -3.57436,2.51836 -5.16667,1.9469 z m 2.95238,-1.90347 c 1.99902,-1.999007 0.83112,-8.285713 -1.53924,-8.285713 -1.69686,0 -3.0495,2.06996 -3.0495,4.666666 0,1.987234 0.37004,3.066887 1.27894,3.731487 1.6232,1.18692 2.02406,1.1733 3.3098,-0.11244 z m 24.369,1.03567 c -1.56353,-1.56354 -1.66268,-3.214017 -0.37782,-6.289137 1.13938,-2.7269 3.03433,-3.8541 5.91069,-3.515926 2.3673,0.278326 2.49979,0.87894 1.57735,7.150346 -0.38077,2.588677 -0.34158,2.748637 0.28579,1.166667 0.39988,-1.008333 1.00206,-1.833333 1.33817,-1.833333 1.00885,0 0.69179,1.752663 -0.60727,3.356933 -0.97444,1.20339 -1.46797,1.36497 -2.46492,0.80705 -0.77466,-0.43352 -1.83216,-0.47494 -2.79357,-0.10941 -1.18502,0.45055 -1.85625,0.27897 -2.86842,-0.73319 z m 3.57189,-1.20344 c 0.60495,-0.66846 1.29222,-2.618463 1.52728,-4.33333 0.34644,-2.527653 0.23633,-3.117947 -0.58163,-3.117947 -1.37266,0 -2.23669,1.189407 -3.06293,4.2164 -1.08693,3.982017 -0.0259,5.603077 2.11728,3.234877 z m 8.18402,2.0071 c -0.25277,-0.40899 0.0183,-2.58762 0.60226,-4.84141 0.58402,-2.253787 0.88314,-4.276507 0.66471,-4.494933 -0.21843,-0.218427 -0.57023,0.26476 -0.78178,1.073746 -0.46923,1.794314 -1.56247,1.947674 -1.56247,0.21918 0,-1.906206 1.3036,-2.523586 5.4616,-2.586593 5.70354,-0.08643 5.89121,0.373527 3.47009,8.50497 -0.44648,1.49952 -0.38437,1.57491 0.61937,0.7517 0.61358,-0.50323 1.1156,-1.32823 1.1156,-1.83333 0,-0.505107 0.3,-0.918373 0.66667,-0.918373 1.12563,0 0.74037,1.926293 -0.66667,3.333333 -1.59752,1.59752 -2.23286,1.65932 -3.34032,0.32492 -0.67732,-0.81612 -0.61423,-1.71635 0.33082,-4.720893 0.80941,-2.573347 0.95469,-3.925507 0.47346,-4.40674 -1.12042,-1.120414 -3.91485,2.21926 -4.4355,5.30092 -0.53296,3.154563 -1.91791,5.426013 -2.61784,4.293503 z m 33.57012,-0.48158 c -0.67948,-0.81873 -0.68728,-1.74668 -0.0391,-4.643223 1.06597,-4.7633 3.56522,-7.00024 7.82106,-7.00024 2.80279,0 2.96308,0.09569 2.5126,1.5 -0.70265,2.19036 -1.57441,6.03448 -1.59276,7.023453 -0.0124,0.666107 0.298,0.688793 1.39456,0.101933 2.30631,-1.234306 1.1991,0.784467 -1.39379,2.541277 -2.73915,1.85591 -3.35001,1.87802 -3.35001,0.12128 v -1.37874 l -1.93625,1.37874 c -2.31683,1.64972 -2.34023,1.65216 -3.41635,0.35552 z m 4.65307,-2.95921 c 0.66705,-0.356993 1.41158,-1.481993 1.6545,-2.5 0.24292,-1.018007 0.59765,-2.37592 0.78828,-3.017587 0.24658,-0.83002 -0.0275,-1.166666 -0.95003,-1.166666 -1.80378,0 -2.8509,1.484053 -3.27427,4.64052 -0.38136,2.843283 -0.16858,3.087393 1.78152,2.043733 z m -247.300479,2.69545 c 0,-0.34117 0.651501,-0.71617 1.447781,-0.83334 2.079117,-0.30593 2.239383,-1.646343 0.256354,-2.144057 -2.397526,-0.60174 -3.90619,-3.1174 -3.115978,-5.195813 0.69533,-1.828853 3.046279,-3.588687 5.675737,-4.248633 2.056784,-0.51622 2.338329,-2.291194 0.363428,-2.291194 -0.754973,0 -1.187268,-0.3 -0.960656,-0.666666 0.520024,-0.841414 8.333334,-0.884887 8.333334,-0.04633 0,0.341167 -0.651502,0.716167 -1.447782,0.833334 -2.186941,0.3218 -2.072244,1.39428 0.308934,2.888706 2.831255,1.7769 3.166698,4.35708 0.865611,6.658167 -0.93097,0.930973 -2.581165,1.870373 -3.667099,2.08756 -2.302662,0.4605 -3.393307,2.245226 -1.372074,2.245226 0.721825,0 1.31241,0.3 1.31241,0.66667 0,0.37037 -1.777778,0.66667 -4,0.66667 -2.2,0 -4,-0.27914 -4,-0.6203 z m 4.217778,-5.968597 c 0.211444,-1.05722 0.581467,-2.70722 0.822272,-3.666666 0.53139,-2.11722 -0.490296,-2.294194 -2.373384,-0.411107 -1.279692,1.279693 -1.815563,4.62888 -0.888888,5.555553 0.992126,0.992127 2.077488,0.33478 2.44,-1.47778 z m 4.733602,0.875607 c 1.491268,-1.491267 2.009914,-4.128427 1.041435,-5.295373 -1.300257,-1.566714 -1.782354,-1.198547 -2.580339,1.97054 -1.167168,4.635246 -0.725576,5.589313 1.538904,3.324833 z m 149.715289,5.11795 c 0,-0.32744 0.45,-0.76802 1,-0.97908 0.72211,-0.2771 1,-1.408463 1,-4.07133 0,-2.833413 -0.23163,-3.687587 -1,-3.687587 -0.55,0 -1,-0.3 -1,-0.666666 0,-0.366667 0.45,-0.666667 1,-0.666667 0.69715,0 1,-0.701993 1,-2.317967 0,-4.04426 5.13876,-5.888086 5.88221,-2.11058 0.2726,1.38506 -1.77902,1.473167 -2.30632,0.09904 -0.63002,-1.641813 -1.57589,-0.420073 -1.57589,2.03552 C 186.66667,91.555553 186.925,92 188,92 c 0.73334,0 1.33334,0.3 1.33334,0.666667 0,0.366666 -0.6,0.666666 -1.33334,0.666666 -1.18518,0 -1.33333,0.444447 -1.33333,4 0,3.111117 0.22222,3.999997 1,3.999997 0.55,0 1,0.3 1,0.66667 0,0.36667 -1.35,0.66667 -3,0.66667 -1.65,0 -3,-0.26791 -3,-0.59534 z M 202,102 c 0,-0.36667 0.3,-0.66667 0.66667,-0.66667 0.37037,0 0.66667,-1.777777 0.66667,-3.999997 0,-2.22222 -0.2963,-4 -0.66667,-4 C 202.3,93.333333 202,93.033333 202,92.666667 202,92.3 202.75,92 203.66667,92 c 0.91667,0 1.66667,0.36 1.66667,0.8 0,0.62222 0.17778,0.62222 0.8,0 C 207.47488,91.458453 210,91.806747 210,93.333333 c 0,1.386567 -1.60962,1.83766 -2.34005,0.655794 C 206.7625,92.53702 206,94.244373 206,97.706013 c 0,2.779837 0.23364,3.627317 1,3.627317 0.55,0 1,0.3 1,0.66667 0,0.36667 -1.35,0.66667 -3,0.66667 -1.65,0 -3,-0.3 -3,-0.66667 z M 19.333334,98 v -2.666667 h -6 c -3.5555558,0 -6.0000005,-0.271606 -6.0000005,-0.666666 C 7.3333335,94.266667 10,94 14,94 h 6.666667 v 3.333333 c 0,1.833334 -0.3,3.333337 -0.666667,3.333337 -0.366666,0 -0.666666,-1.200003 -0.666666,-2.66667 z M 65.333335,57 c 0,-9.438253 0.230075,-14.269829 0.666666,-14 0.409162,0.252876 0.666667,5.660475 0.666667,14 0,8.339525 -0.257505,13.747127 -0.666667,14 -0.436591,0.269827 -0.666666,-4.561747 -0.666666,-14 z M 53.275563,33.812131 C 51.604041,32.528777 50.668416,30.298792 50.6456,27.543827 L 50.624533,25 48.978934,26.870509 c -0.90508,1.02878 -1.6456,2.32878 -1.6456,2.888889 0,1.492583 -1.631477,0.707159 -1.86944,-0.899985 -0.135241,-0.913388 0.607329,-2.037238 2.229662,-3.374502 2.911867,-2.400207 2.968113,-4.557642 0.113653,-4.359402 -2.247573,0.156092 -2.320762,-0.758278 -0.173321,-2.165336 2.122142,-1.39048 3.881144,-1.014534 4.339593,0.927486 l 0.365274,1.547324 1.613499,-1.717492 c 1.529085,-1.627637 3.347552,-2.195464 4.224035,-1.31898 0.696652,0.69665 -0.276522,2.267582 -1.41428,2.28298 -0.602438,0.0082 -1.8288,0.578539 -2.72525,1.267524 -1.589238,1.221443 -1.610458,1.357291 -0.850398,5.444301 0.42873,2.30538 1.219196,4.631287 1.75659,5.168681 0.85833,0.85833 1.180276,0.843942 2.648967,-0.118381 1.871675,-1.226369 3.056917,-0.362031 1.71718,1.252254 -0.972685,1.172014 -4.568216,1.241297 -6.033535,0.116261 z M 35.536415,29.5 c -0.231957,-0.641667 -1.572542,-4.149711 -2.979077,-7.795653 -1.406535,-3.645943 -2.557337,-7.020943 -2.557337,-7.5 0,-1.755319 1.158943,-0.80008 2.178576,1.795653 1.030936,2.624507 1.10113,2.666667 4.439858,2.666667 3.33548,0 3.410253,-0.04471 4.459351,-2.666667 0.937552,-2.343175 2.236917,-3.585753 2.265684,-2.166667 0.0251,1.238397 -6.271223,16.833334 -6.796321,16.833334 -0.323947,0 -0.778778,-0.525 -1.010734,-1.166667 z m 2.691266,-6 1.094857,-2.833333 h -2.716824 c -1.91332,0 -2.614621,0.246459 -2.371253,0.833333 0.190064,0.458333 0.715435,1.967962 1.167492,3.354731 0.925219,2.838288 1.269183,2.673382 2.825728,-1.354731 z m 48.780681,4.513248 c -0.92126,-1.459381 -1.675027,-3.109381 -1.675027,-3.666667 0,-1.492212 2.209047,-1.232441 3.214814,0.378044 0.825853,1.322399 0.98274,1.198608 3.1684,-2.5 2.444726,-4.137008 7.136473,-8.891292 8.774331,-8.891292 0.56904,0 -0.571111,1.681949 -2.695878,3.976947 -3.3271,3.593664 -4.349033,5.476523 -6.796987,12.523053 -0.56044,1.613244 -2.332666,0.804752 -3.989653,-1.820085 z m 18.972378,1.630209 c -0.67948,-0.818721 -0.68728,-1.746672 -0.0391,-4.64322 C 107.00765,20.236943 109.5069,18 113.76274,18 c 2.80279,0 2.96308,0.09569 2.5126,1.5 -0.70265,2.190357 -1.57441,6.03448 -1.59276,7.023456 -0.0124,0.666103 0.298,0.688788 1.39456,0.101929 2.30631,-1.234302 1.1991,0.784471 -1.39379,2.541282 -2.73915,1.855909 -3.35001,1.878022 -3.35001,0.12127 v -1.378729 l -1.93625,1.378729 c -2.31683,1.649729 -2.34023,1.652164 -3.41635,0.35552 z m 4.65307,-2.959205 c 0.66705,-0.356995 1.41158,-1.481995 1.6545,-2.5 0.24292,-1.018005 0.59765,-2.375919 0.78828,-3.017585 C 113.32317,20.336649 113.04906,20 112.12656,20 c -1.80378,0 -2.8509,1.484055 -3.27427,4.640521 -0.38136,2.843288 -0.16858,3.087392 1.78152,2.043731 z m -48.633809,2.695449 c 0,-0.341165 0.651502,-0.716165 1.447782,-0.833334 2.079116,-0.305932 2.239383,-1.64635 0.256354,-2.144059 -2.397526,-0.601741 -3.90619,-3.117398 -3.115978,-5.195813 0.69533,-1.828856 3.046279,-3.588686 5.675737,-4.248638 2.056786,-0.51622 2.338332,-2.29119 0.363427,-2.29119 -0.754972,0 -1.187268,-0.3 -0.960655,-0.666667 0.520023,-0.841415 8.333334,-0.884889 8.333334,-0.04637 0,0.341165 -0.6515,0.716165 -1.44778,0.833334 -2.18694,0.321798 -2.072247,1.39428 0.308933,2.888708 2.831253,1.776897 3.1667,4.357082 0.865613,6.658168 -0.930973,0.93097 -2.581166,1.870371 -3.6671,2.087558 -2.302666,0.460532 -3.393309,2.245266 -1.37208,2.245266 0.721827,0 1.312414,0.3 1.312414,0.666666 0,0.370371 -1.77778,0.666667 -4.000001,0.666667 -2.2,0 -4,-0.279135 -4,-0.620299 z m 4.217778,-5.968592 c 0.211445,-1.057224 0.581469,-2.707224 0.822276,-3.666667 0.531387,-2.117224 -0.490299,-2.294197 -2.373387,-0.411109 -1.279693,1.279693 -1.815563,4.628882 -0.888889,5.555556 0.992126,0.992126 2.077489,0.334779 2.44,-1.47778 z m 4.733603,0.875606 c 1.491266,-1.491268 2.009913,-4.128426 1.041433,-5.295372 -1.300253,-1.566713 -1.782353,-1.198548 -2.58034,1.970537 -1.167167,4.635246 -0.725573,5.589315 1.538907,3.324835 z m -43.618048,1.046618 v -2.666666 h -6 c -3.555556,0 -6,-0.271605 -6,-0.666667 C 15.333334,21.6 18,21.333333 22,21.333333 h 6.666667 v 3.333334 C 28.666667,26.5 28.366667,28 28.000001,28 27.633334,28 27.333334,26.8 27.333334,25.333333 Z"
         id="path102" />
      <path
         style="fill:#8d8d8d;stroke-width:0.666667"
         d="m 41.782783,112.89389 c -0.247197,-0.2472 -0.449449,-7.89944 -0.449449,-17.005003 V 79.333333 H 83.344782 125.35623 L 125.17812,96.166667 125,113 83.616115,113.17167 c -22.761136,0.0944 -41.586136,-0.0306 -41.833332,-0.27778 z M 124,96 V 80 H 83.333335 42.666668 v 16 16 H 83.333335 124 Z m -64.423944,7.88694 c -1.811426,-0.87711 -2.903581,-3.26915 -2.930455,-6.418307 L 56.624534,95 54.978935,96.870507 c -0.905081,1.02878 -1.6456,2.32878 -1.6456,2.888893 0,1.49258 -1.631478,0.70715 -1.869441,-0.899987 -0.135504,-0.91516 0.611785,-2.040913 2.252588,-3.3934 2.047647,-1.687846 2.383023,-2.312133 2.01972,-3.759653 -0.379742,-1.513007 -0.611953,-1.641373 -1.809685,-1.000367 -2.041265,1.092454 -2.505061,0.04467 -0.646995,-1.461626 2.069303,-1.67756 4.319096,-1.390147 4.600009,0.58766 l 0.212862,1.498693 2.183398,-1.66536 c 2.638835,-2.01274 3.72421,-2.1095 3.72421,-0.332027 0,0.833254 -0.444444,1.333334 -1.184996,1.333334 -0.651747,0 -1.885046,0.490333 -2.740663,1.089633 -1.392518,0.975353 -1.510178,1.432547 -1.121913,4.359433 0.837043,6.309937 2.562846,8.466247 5.006218,6.255027 0.93379,-0.84507 1.366832,-0.92281 1.743686,-0.31305 0.62738,1.01512 -1.463664,2.62518 -3.329752,2.56384 -0.754918,-0.0248 -2.013355,-0.35539 -2.796525,-0.73461 z m 26.423946,-3.57706 c 0,-0.19623 0.4845,-1.096233 1.076673,-2 l 1.076674,-1.643213 h -7.076674 c -10.18806,0 -8.984433,-1.25162 1.423327,-1.48008 7.028187,-0.15428 8.5,-0.35974 8.5,-1.186587 0,-0.81636 -1.50046,-1.061213 -8.170793,-1.333333 C 72.694722,92.25322 71.639648,91.074893 81.166755,90.810013 l 6.83342,-0.189993 -1.07676,-1.64334 c -1.494466,-2.280853 0.01213,-2.074493 1.65024,0.226033 0.732114,1.028154 2.40254,2.446374 3.712067,3.1516 1.30952,0.705227 2.380947,1.477607 2.380947,1.716407 0,0.238807 -0.91826,0.81454 -2.040587,1.279427 -1.12232,0.46488 -2.807927,1.851273 -3.745793,3.08088 -1.516634,1.988403 -2.880287,2.877943 -2.880287,1.878853 z M 105.3837,99.42744 c -1.37249,-2.56452 0.64478,-8.419113 3.55877,-10.32844 1.33026,-0.871613 7.08061,-1.63204 7.05032,-0.932333 -0.004,0.09167 -0.45397,1.639346 -1,3.439286 -1.42586,4.700214 -1.34104,5.960674 0.34055,5.060714 2.35058,-1.258 1.48653,0.5145 -1.11137,2.279813 -2.49587,1.69599 -3.5553,1.70691 -3.5553,0.03667 0,-0.726407 -0.51661,-0.63336 -2.28872,0.412206 -2.27619,1.342984 -2.29259,1.343154 -2.99425,0.03207 z m 4.63096,-2.76862 c 0.69318,-0.37098 1.57179,-1.79598 1.95246,-3.166667 C 112.91021,90.096307 112.88577,90 111.08088,90 c -1.6087,0 -2.8849,2.041373 -3.12584,5 -0.21112,2.592593 -10e-4,2.761707 2.05962,1.65882 z m 135.72117,9.61435 C 245.22382,104.93888 245.78077,104 247.08427,104 c 0.7022,0 0.87791,0.40227 0.5824,1.33333 -0.73893,2.32818 1.568,1.40761 2.92366,-1.16666 0.71586,-1.35936 0.6391,-1.5 -0.81857,-1.5 -2.82947,0 -3.45187,-1.5424 -2.29689,-5.692003 1.03226,-3.708694 0.55371,-4.852754 -0.89644,-2.143107 -0.45894,0.857533 -0.9151,1.158427 -1.0667,0.703627 C 245.06495,94.194847 246.63737,92 248.04439,92 c 1.8914,0 2.29264,1.6685 1.31684,5.4759 -0.60261,2.351247 -0.64081,3.51118 -0.13238,4.01961 1.20426,1.20426 2.63094,-0.62956 3.49558,-4.493163 0.93162,-4.16296 1.53748,-5.331194 2.46688,-4.756794 0.75226,0.464927 -1.32666,9.459877 -2.88113,12.465897 -1.39989,2.70708 -5.73927,3.7379 -6.57435,1.56172 z m -24.47692,-4.3476 c -1.83839,-1.83838 -1.21171,-5.53763 1.38557,-8.17901 1.63231,-1.660033 2.21319,-1.859113 4.28846,-1.469793 2.70003,0.506526 2.7482,0.690646 1.45329,5.5548 -0.51293,1.92678 -0.6679,3.661023 -0.34496,3.860603 0.32247,0.1993 0.77763,-0.39991 1.01146,-1.33157 0.44089,-1.756633 1.61394,-2.353613 1.61394,-0.821353 0,1.784263 -1.75568,3.346823 -3.30518,2.941613 -0.82752,-0.2164 -2.22776,-0.1185 -3.11165,0.21755 -1.26696,0.4817 -1.89996,0.31814 -2.99093,-0.77284 z m 3.57151,-1.09224 c 1.51589,-1.70533 2.47211,-5.720797 1.69359,-7.111937 -0.6108,-1.09144 -0.71192,-1.091313 -1.92052,0.0027 -0.70168,0.635007 -1.59454,2.33836 -1.98415,3.785233 -1.08975,4.047054 0.048,5.757634 2.21108,3.324254 z m 41.88661,1.26078 c -1.37248,-2.564523 0.64478,-8.419117 3.55878,-10.328443 1.33026,-0.871614 7.08061,-1.63204 7.05032,-0.932334 -0.004,0.09167 -0.45398,1.639347 -1,3.439287 -1.42586,4.700213 -1.34104,5.96067 0.34054,5.060713 2.35059,-1.258 1.48654,0.5145 -1.11136,2.279817 -2.49587,1.69598 -3.5553,1.70691 -3.5553,0.0367 0,-0.7264 -0.51662,-0.63336 -2.28872,0.41221 -2.2762,1.34299 -2.29259,1.34316 -2.99426,0.0321 z m 4.63097,-2.768623 c 0.69318,-0.37098 1.57179,-1.79598 1.95245,-3.166667 0.9431,-3.395847 0.91866,-3.492153 -0.88623,-3.492153 -1.6087,0 -2.88491,2.041373 -3.12584,5 -0.21113,2.592593 -0.001,2.761703 2.05962,1.65882 z M 24.000001,102.04637 c 0,-0.34117 0.651501,-0.71617 1.447781,-0.83334 2.217757,-0.32633 2.088207,-1.437483 -0.296881,-2.546363 -4.057629,-1.88648 -2.980072,-6.524487 1.953603,-8.40868 2.775234,-1.059867 3.983818,-2.924654 1.895497,-2.924654 -0.55,0 -1,-0.3 -1,-0.666666 0,-0.370374 1.777778,-0.666667 4,-0.666667 2.222222,0 4,0.296293 4,0.666667 0,0.366666 -0.75,0.666666 -1.666667,0.666666 -1.94104,0 -2.310317,1.813587 -0.5,2.455587 2.026716,0.718753 3.5,2.36508 3.5,3.9111 0,1.865647 -2.524992,4.35442 -5.399826,5.322367 -2.529943,0.851826 -3.364898,2.310943 -1.322396,2.310943 0.763889,0 1.388889,0.3 1.388889,0.66667 0,0.37037 -1.777778,0.66667 -4,0.66667 -2.2,0 -4,-0.27914 -4,-0.6203 z m 4.674806,-7.41363 c 0.444829,-1.85426 0.650667,-3.529487 0.457418,-3.72274 -0.761658,-0.761653 -3.03182,1.17614 -3.732466,3.186013 -0.610251,1.750567 -0.548288,2.33654 0.352309,3.331687 1.478656,1.633893 1.973881,1.16032 2.922739,-2.79496 z m 5.747039,0.251947 c 0.451333,-1.798254 -0.262838,-3.60946 -1.598833,-4.054794 -0.411921,-0.137306 -1.082742,1.04378 -1.492052,2.626987 -0.40901,1.582047 -0.90291,3.42318 -1.097554,4.091393 -0.334264,1.147534 -0.240122,1.156107 1.696689,0.15454 1.191259,-0.61602 2.235463,-1.797 2.49175,-2.818126 z M 182.66667,102 c 0,-0.36667 0.45,-0.66667 1,-0.66667 0.77778,0 1,-0.88888 1,-3.999997 0,-3.111113 -0.22222,-4 -1,-4 -0.55,0 -1,-0.3 -1,-0.666666 C 182.66667,92.3 183.09856,92 183.62642,92 c 0.62655,0 1.0316,-0.86264 1.16667,-2.484673 0.15417,-1.8513 0.62101,-2.690007 1.83136,-3.290187 1.85271,-0.9187 4.04222,-0.12518 4.04222,1.46498 0,1.27982 -1.93147,1.26418 -2.42411,-0.0196 -0.63002,-1.64184 -1.57589,-0.4201 -1.57589,2.035493 C 186.66667,91.555553 186.925,92 188,92 c 0.73334,0 1.33334,0.3 1.33334,0.666667 0,0.366666 -0.6,0.666666 -1.33334,0.666666 -1.18518,0 -1.33333,0.444447 -1.33333,4 0,3.111117 0.22222,3.999997 1,3.999997 0.55,0 1,0.3 1,0.66667 0,0.36667 -1.35,0.66667 -3,0.66667 -1.65,0 -3,-0.3 -3,-0.66667 z m 8.78287,-0.8763 C 188.2156,97.68132 190.57588,92 195.23994,92 c 4.58315,0 6.951,5.215733 4.04501,8.91009 -1.84559,2.34629 -5.73231,2.45224 -7.83541,0.21361 z m 5.26096,0.18618 C 197.72072,100.76923 198,99.899793 198,97.295587 c 0,-2.93862 -0.20239,-3.416387 -1.74498,-4.11924 -1.5401,-0.701714 -1.89233,-0.613094 -3,0.754813 -1.52554,1.88396 -1.61482,4.5918 -0.21722,6.58717 1.16057,1.65694 1.79872,1.79447 3.6727,0.79155 z M 202,102 c 0,-0.36667 0.3,-0.66667 0.66667,-0.66667 0.37037,0 0.66667,-1.777777 0.66667,-3.999997 0,-2.22222 -0.2963,-4 -0.66667,-4 C 202.3,93.333333 202,93.033333 202,92.666667 202,92.3 202.75,92 203.66667,92 c 0.91667,0 1.66667,0.30254 1.66667,0.672313 0,0.41442 0.47758,0.37406 1.24502,-0.105213 C 208.07999,91.62932 210,92.234587 210,93.645747 c 0,1.222593 -1.75978,1.373026 -2.19444,0.187586 -0.5733,-1.56354 -1.77932,0.45584 -2.22823,3.73098 -0.39361,2.871727 -0.29811,3.213027 0.9936,3.550817 2.47173,0.64638 1.55526,1.55154 -1.57093,1.55154 -1.65,0 -3,-0.3 -3,-0.66667 z m 30.67459,0.5 c 0.005,-0.0917 0.45079,-1.81667 0.99208,-3.833333 0.5413,-2.016667 0.98774,-4.041667 0.99209,-4.5 0.0133,-1.394947 -1.13889,-0.929907 -1.65167,0.666666 -0.41872,1.30378 -0.52331,1.343194 -0.79946,0.301307 -0.17475,-0.65928 0.0438,-1.63428 0.48562,-2.166667 0.92102,-1.10976 3.30676,-1.31022 3.30676,-0.277853 0,0.47572 0.40062,0.47572 1.2895,0 1.84891,-0.9895 3.74672,-0.851393 4.73957,0.344913 0.70561,0.8502 0.66066,1.664254 -0.2517,4.558594 -1.36503,4.330363 -1.37869,4.792043 -0.11071,3.739703 0.55,-0.45646 1,-1.24319 1,-1.74829 0,-0.505107 0.3,-0.918373 0.66667,-0.918373 0.8585,0 0.84915,1.080013 -0.0235,2.710493 -0.79907,1.49307 -3.66292,1.73503 -4.19279,0.35424 -0.19739,-0.5144 0.0766,-2.382233 0.60883,-4.150747 1.1948,-3.970053 0.86124,-5.27514 -1.0824,-4.234933 -1.51525,0.81094 -2.2371,2.224447 -3.31312,6.487613 -0.43277,1.714647 -1.09981,2.833337 -1.68942,2.833337 -0.53587,0 -0.97075,-0.075 -0.9664,-0.16667 z M 19.333334,98 v -2.666667 h -6 c -3.5555558,0 -6.0000005,-0.271606 -6.0000005,-0.666666 C 7.3333335,94.266667 10,94 14,94 h 6.666667 v 3.333333 c 0,1.833334 -0.3,3.333337 -0.666667,3.333337 -0.366666,0 -0.666666,-1.200003 -0.666666,-2.66667 z M 65.333335,57 c 0,-8.666667 0.243902,-13.666667 0.666666,-13.666667 0.422764,0 0.666667,5 0.666667,13.666667 0,8.666667 -0.243903,13.666667 -0.666667,13.666667 -0.422764,0 -0.666666,-5 -0.666666,-13.666667 z M 53.576056,33.88694 C 51.76463,33.009833 50.672475,30.617786 50.6456,27.468631 L 50.624533,25 48.978934,26.870509 c -0.90508,1.02878 -1.6456,2.32878 -1.6456,2.888889 0,1.492583 -1.631477,0.707159 -1.86944,-0.899985 -0.135504,-0.915162 0.611784,-2.04091 2.252588,-3.3934 2.047647,-1.687844 2.383022,-2.312135 2.01972,-3.75965 -0.379742,-1.513013 -0.611953,-1.641376 -1.809686,-1.000368 -2.041264,1.092451 -2.50506,0.04469 -0.646994,-1.461626 2.069303,-1.677566 4.319096,-1.390152 4.600008,0.587656 l 0.212863,1.498693 2.183398,-1.665359 c 2.638835,-2.012738 3.72421,-2.109502 3.72421,-0.332026 0,0.833254 -0.444444,1.333334 -1.184996,1.333334 -0.651747,0 -1.885046,0.490334 -2.740663,1.089632 -1.392518,0.975358 -1.510178,1.432551 -1.121913,4.359434 0.837043,6.30994 2.562846,8.466247 5.006218,6.255026 0.93379,-0.845068 1.366832,-0.922814 1.743686,-0.313052 0.62738,1.015122 -1.463664,2.625182 -3.329752,2.56384 -0.754918,-0.02481 -2.013355,-0.35539 -2.796525,-0.734607 z M 33.39628,23.670121 c -1.486362,-3.8481 -2.891104,-7.7481 -3.121649,-8.666666 -0.68649,-2.735191 0.771756,-1.892932 1.72537,0.996545 l 0.880079,2.666667 h 3.565359 c 3.537309,0 3.573752,-0.02098 4.632347,-2.666667 0.923356,-2.307695 2.255548,-3.607833 2.255548,-2.201277 0,1.128038 -6.282893,16.867944 -6.733171,16.867944 -0.275774,0 -1.717522,-3.148446 -3.203883,-6.996546 z M 38.227681,23.5 39.322538,20.666667 h -2.732595 c -1.9072,0 -2.638823,0.251712 -2.422151,0.833333 0.170743,0.458333 0.713035,1.958137 1.205094,3.332899 1.00755,2.814992 1.305771,2.675752 2.854795,-1.332899 z m 48.823068,4.313401 c -0.94458,-1.611799 -1.717414,-3.279187 -1.717414,-3.705306 0,-1.495949 2.46046,-0.757614 3.250014,0.975264 l 0.797366,1.750026 1.730307,-3.472277 c 1.881113,-3.774901 7.674547,-10.027775 9.290978,-10.027775 0.59428,0 -0.3167,1.342876 -2.228538,3.285112 -1.77854,1.806812 -3.923407,4.881812 -4.766373,6.833334 -3.572587,8.27077 -3.92408,8.511958 -6.35634,4.361622 z m 18.999611,1.614036 c -1.37248,-2.564516 0.64478,-8.419112 3.55878,-10.328437 1.33026,-0.871616 7.08061,-1.632043 7.05032,-0.932333 -0.004,0.09167 -0.45398,1.639346 -1,3.439287 -1.42586,4.700215 -1.34104,5.960672 0.34054,5.060713 2.35059,-1.257997 1.48654,0.514498 -1.11136,2.279815 -2.49587,1.695986 -3.5553,1.706909 -3.5553,0.03666 0,-0.726405 -0.51662,-0.633361 -2.28872,0.412207 -2.2762,1.342987 -2.29259,1.343163 -2.99426,0.03209 z m 4.63097,-2.768615 c 0.69318,-0.370981 1.57179,-1.795981 1.95245,-3.166667 C 113.57688,20.096304 113.55244,20 111.74755,20 c -1.6087,0 -2.88491,2.041374 -3.12584,5 -0.21113,2.592591 -10e-4,2.76171 2.05962,1.658822 z m -48.681329,2.720879 c 0,-0.341165 0.651502,-0.716165 1.447782,-0.833334 C 65.665539,28.220035 65.53599,27.108879 63.150902,26 c -4.057629,-1.886479 -2.980072,-6.524489 1.953603,-8.408677 2.775237,-1.059872 3.983817,-2.924656 1.895497,-2.924656 -0.550001,0 -1.000001,-0.3 -1.000001,-0.666667 0,-0.370371 1.777781,-0.666667 4.000001,-0.666667 2.22222,0 4,0.296296 4,0.666667 0,0.366667 -0.75,0.666667 -1.666667,0.666667 -1.94104,0 -2.31032,1.813584 -0.5,2.455589 2.026713,0.718749 3.5,2.365079 3.5,3.911096 0,1.865649 -2.524993,4.354421 -5.399827,5.322369 -2.52994,0.851824 -3.364897,2.310946 -1.322393,2.310946 0.763887,0 1.388887,0.3 1.388887,0.666666 0,0.370371 -1.77778,0.666667 -4.000001,0.666667 -2.2,0 -4,-0.279135 -4,-0.620299 z m 4.674807,-7.41363 c 0.444827,-1.854256 0.650667,-3.529487 0.45742,-3.722736 -0.761661,-0.761658 -3.031823,1.176141 -3.732468,3.186014 -0.610251,1.750568 -0.548288,2.336536 0.352309,3.331684 1.478656,1.633897 1.97388,1.160322 2.922739,-2.794962 z m 5.74704,0.251952 c 0.451334,-1.798257 -0.26284,-3.609465 -1.598833,-4.054797 -0.41192,-0.137307 -1.082747,1.043778 -1.492053,2.626987 -0.409007,1.58205 -0.902907,3.423178 -1.097554,4.091396 -0.334266,1.147529 -0.24012,1.156104 1.696687,0.15454 1.19126,-0.616024 2.235467,-1.797001 2.491753,-2.818126 z m -45.088514,3.11531 v -2.666666 h -6 c -3.555556,0 -6,-0.271605 -6,-0.666667 C 15.333334,21.6 18,21.333333 22,21.333333 h 6.666667 v 3.333334 C 28.666667,26.5 28.366667,28 28.000001,28 27.633334,28 27.333334,26.8 27.333334,25.333333 Z"
         id="path100" />
      <path
         style="fill:#757575;stroke-width:0.666667"
         d="m 41.99287,113.17171 c -0.0039,-0.0944 -0.07892,-7.74682 -0.166667,-17.005283 L 41.666668,79.33286 H 83.333335 125 L 124.84766,96.166427 124.69531,113 83.347655,113.17171 c -22.74121,0.0944 -41.350863,0.0944 -41.354785,0 z M 124,96 V 80 H 83.333335 42.666668 v 16 16 H 83.333335 124 Z m -64.996846,7.16667 c -1.242911,-1.0728 -1.872002,-2.4429 -2.208839,-4.810683 L 56.323341,95.0453 54.828337,96.945887 c -0.822251,1.045326 -1.495002,2.335133 -1.495002,2.86624 0,1.463263 -1.637141,0.616443 -1.871446,-0.968014 -0.139539,-0.943613 0.550726,-1.96104 2.166667,-3.193573 1.517453,-1.15742 2.371445,-2.36632 2.371445,-3.356987 0,-1.895853 -1.077802,-2.668886 -2.303184,-1.651906 -0.544923,0.452246 -1.067056,0.504646 -1.298406,0.130313 C 51.946965,90.041507 54.818349,88 56.297178,88 c 0.555915,0 1.198992,0.75 1.429061,1.666667 0.230068,0.916666 0.63349,1.666666 0.896492,1.666666 0.263002,0 1.182774,-0.75 2.043937,-1.666666 1.886607,-2.0082 3.333333,-2.152874 3.333333,-0.333334 0,0.833254 -0.444444,1.333334 -1.184996,1.333334 -0.651747,0 -1.888063,0.492446 -2.747368,1.094326 -1.427973,1.000194 -1.524703,1.414827 -1.124481,4.820094 0.449518,3.824693 1.831031,6.752243 3.186387,6.752243 0.421009,0 1.277026,-0.46295 1.902261,-1.02878 1.017682,-0.92099 1.177745,-0.92205 1.527668,-0.0102 0.438032,1.14152 -1.366671,2.37232 -3.478467,2.37232 -0.736992,0 -2.122025,-0.675 -3.077851,-1.5 z m 27.996848,-4.500003 1.03424,-2 h -7.056467 c -4.534547,0 -6.909207,-0.23826 -6.64444,-0.666667 0.237073,-0.3836 3.757493,-0.666667 8.291047,-0.666667 5.781047,0 8.076893,-0.238413 8.622113,-0.895366 1.293227,-1.55824 -2.11594,-2.42798 -10.111193,-2.579554 l -7.468634,-0.141586 7.166667,-0.2143 c 3.941667,-0.117867 7.166667,-0.364707 7.166667,-0.54854 0,-0.183827 -0.4845,-1.073674 -1.076673,-1.97744 -1.6158,-2.466027 -0.0033,-1.977954 1.95696,0.592426 0.937866,1.229607 2.623473,2.616 3.745793,3.08088 2.603853,1.078554 2.565387,1.519607 -0.249607,2.86198 -1.2596,0.60066 -2.96602,2.006227 -3.792033,3.123474 -1.92854,2.608483 -2.927347,2.628253 -1.58444,0.03133 z M 105.4372,99.26142 c -0.58324,-1.576653 0.0864,-5.792253 1.272,-8.007547 1.22884,-2.296126 7.34695,-4.308833 8.7705,-2.885286 0.20273,0.202726 -0.0473,1.750406 -0.55555,3.439286 C 114.41587,93.49676 114,95.441453 114,96.129407 c 0,1.044253 0.22022,1.132986 1.33334,0.53726 2.35058,-1.258 1.48653,0.5145 -1.11137,2.279813 -2.49587,1.69599 -3.5553,1.70691 -3.5553,0.03667 0,-0.723107 -0.53436,-0.622894 -2.33097,0.437133 l -2.33098,1.375307 -0.56752,-1.53416 z m 5.482,-3.428087 c 0.52246,-0.825 1.15321,-2.475 1.40166,-3.666666 C 112.73356,90.187327 112.63093,90 111.13386,90 c -1.67302,0 -2.5523,1.37524 -3.5165,5.5 -0.36255,1.550907 -0.2144,1.833333 0.96167,1.833333 0.76463,0 1.81771,-0.675 2.34017,-1.5 z M 245.73583,106.27317 C 245.22382,104.93888 245.78077,104 247.08427,104 c 0.7022,0 0.87791,0.40227 0.5824,1.33333 -0.55973,1.76358 0.60642,1.70004 2.30736,-0.1257 1.77263,-1.90269 1.71592,-2.54096 -0.22573,-2.54096 -2.77046,0 -3.3321,-1.46385 -2.13783,-5.571977 1.39356,-4.7937 1.31533,-5.135986 -0.63113,-2.76136 -1.11183,1.356407 -1.64044,1.65782 -1.64269,0.93666 -0.005,-1.54572 2.4156,-3.50772 3.71306,-3.009833 0.837,0.321187 1.00262,0.937127 0.69395,2.580853 C 248.48759,101.52995 248.47141,102 249.49727,102 c 1.48311,0 2.30853,-1.28901 3.2074,-5.008867 0.96092,-3.976593 2.62867,-6.273013 2.62867,-3.61956 0,3.067314 -2.49687,10.695087 -4.03787,12.335397 -1.75218,1.86512 -4.93674,2.18944 -5.55964,0.5662 z m 21.03471,-4.34508 c -0.58324,-1.57666 0.0864,-5.792257 1.27199,-8.00755 1.22885,-2.296127 7.34696,-4.308833 8.77051,-2.885287 0.20273,0.202727 -0.0473,1.750407 -0.55555,3.439287 -0.50828,1.688887 -0.92415,3.63358 -0.92415,4.321533 0,1.044254 0.22021,1.132987 1.33333,0.53726 2.35059,-1.258 1.48654,0.5145 -1.11136,2.279817 -2.49587,1.69598 -3.5553,1.70691 -3.5553,0.0367 0,-0.7231 -0.53436,-0.62289 -2.33098,0.43714 l -2.33097,1.3753 -0.56752,-1.53416 z M 272.25253,98.5 c 0.52246,-0.825 1.15322,-2.475 1.40167,-3.666667 0.41269,-1.97934 0.31007,-2.166666 -1.18701,-2.166666 -1.67301,0 -2.55229,1.37524 -3.5165,5.5 -0.36254,1.550906 -0.2144,1.833333 0.96168,1.833333 0.76462,0 1.8177,-0.675 2.34016,-1.5 z M 24.333334,102 c 0.226613,-0.36667 0.994317,-0.66667 1.706011,-0.66667 2.014776,0 1.496023,-1.559383 -0.887106,-2.666663 -4.158653,-1.932247 -2.681936,-6.951714 2.55351,-8.679567 2.532237,-0.835713 3.632936,-2.653767 1.606662,-2.653767 -0.721826,0 -1.31241,-0.3 -1.31241,-0.666666 C 28.000001,86.3 29.632295,86 31.627323,86 c 1.995027,0 3.812732,0.3 4.039344,0.666667 0.233682,0.378106 -0.32641,0.666666 -1.293988,0.666666 -1.975758,0 -2.372327,1.805547 -0.539345,2.455587 2.004235,0.71078 3.5,2.358833 3.5,3.856347 0,1.749593 -2.954419,4.6278 -5.625,5.479893 -2.339534,0.746467 -3.065843,2.20817 -1.097222,2.20817 0.763889,0 1.388889,0.3 1.388889,0.66667 0,0.37109 -1.790893,0.66667 -4.039345,0.66667 -2.523134,0 -3.884687,-0.25024 -3.627322,-0.66667 z m 4.286633,-7.051727 c 0.457677,-2.045113 0.698354,-3.852173 0.534839,-4.015693 -1.038204,-1.0382 -4.488139,2.79496 -4.488139,4.986693 0,0.773287 1.874093,2.747394 2.6082,2.747394 0.282128,0 0.887424,-1.673274 1.3451,-3.718394 z m 4.451747,2.04062 c 1.973769,-1.973766 2.055861,-5.8276 0.131897,-6.191866 -0.838088,-0.15868 -1.321603,0.528306 -1.873014,2.661206 -0.40881,1.581307 -0.89565,3.4001 -1.081868,4.041767 -0.488051,1.68172 0.877374,1.434507 2.822985,-0.511107 z M 182.66667,102 c 0,-0.36667 0.45,-0.66667 1,-0.66667 0.77778,0 1,-0.88888 1,-3.999997 0,-3.111113 -0.22222,-4 -1,-4 -0.55,0 -1,-0.3 -1,-0.666666 0,-0.366667 0.45,-0.666667 1,-0.666667 0.69151,0 1,-0.694633 1,-2.251707 0,-2.708786 1.26529,-3.919633 3.79302,-3.6298 1.94258,0.222747 2.72837,2.21484 0.87365,2.21484 -0.55,0 -0.925,-0.375 -0.83334,-0.833333 0.31136,-1.55676 -1.19629,-0.842213 -1.84983,0.876733 C 185.66607,90.965113 185.8612,92 187.33334,92 c 0.73333,0 1.33333,0.3 1.33333,0.666667 0,0.366666 -0.45,0.666666 -1,0.666666 -0.77778,0 -1,0.888887 -1,4 0,3.111117 0.22222,3.999997 1,3.999997 0.55,0 1,0.3 1,0.66667 0,0.36667 -1.35,0.66667 -3,0.66667 -1.65,0 -3,-0.3 -3,-0.66667 z m 8.78287,-0.8763 C 188.33959,97.8133 190.65196,92 195.07869,92 c 4.74366,0 7.17077,5.141333 4.20626,8.91009 -1.84559,2.34629 -5.73231,2.45224 -7.83541,0.21361 z M 197.2,101.2 c 1.03721,-1.03721 1.03721,-6.696127 0,-7.733333 -2.00735,-2.007354 -5.2,0.366673 -5.2,3.866666 0,3.499997 3.19265,5.874017 5.2,3.866667 z m 4.8,0.87133 c 0,-0.32744 0.45,-0.76802 1,-0.97908 0.70668,-0.27118 1,-1.37375 1,-3.758917 0,-2.385166 -0.29332,-3.48774 -1,-3.758913 C 201.42293,92.96924 201.83334,92 203.66667,92 c 0.91667,0 1.66667,0.30254 1.66667,0.672313 0,0.41442 0.47758,0.37406 1.24502,-0.105213 C 208.07999,91.62932 210,92.234587 210,93.645747 c 0,1.222593 -1.75978,1.373026 -2.19444,0.187586 -0.62371,-1.70102 -1.99186,0.73532 -2.3178,4.127427 -0.26485,2.75636 -0.13304,3.37257 0.72141,3.37257 0.57501,0 1.23089,0.3 1.4575,0.66667 0.25167,0.40721 -0.77085,0.66667 -2.62732,0.66667 -1.67164,0 -3.03935,-0.26791 -3.03935,-0.59534 z m 18.57675,-0.90602 c -0.97599,-1.823657 0.2075,-5.75039 2.33573,-7.749757 1.30675,-1.227613 2.04518,-1.42138 4.01122,-1.052546 2.71575,0.509473 2.74931,0.634953 1.46253,5.46856 -0.51293,1.92678 -0.6679,3.661023 -0.34496,3.860603 0.32247,0.1993 0.77763,-0.39991 1.01146,-1.33157 0.23384,-0.931667 0.69263,-1.693933 1.01955,-1.693933 0.74151,0 0.74019,0.196406 -0.0147,2.181873 -0.54883,1.44353 -1.01184,1.6058 -4.68052,1.64035 -3.44017,0.0324 -4.18445,-0.17281 -4.80032,-1.32358 z m 3.95634,0.26469 c 0.47652,-0.30227 1.30536,-2.00812 1.84187,-3.790773 0.82591,-2.744314 0.83544,-3.381214 0.0621,-4.1545 -1.26424,-1.264247 -2.8329,0.36684 -3.79733,3.948486 -1.02562,3.808867 -0.28274,5.377097 1.89331,3.996787 z m 8.39184,0.07 c 1.89086,-6.336993 2.18314,-11.465927 0.40841,-7.166667 -0.45408,1.1 -0.95929,1.641634 -1.1227,1.203627 C 231.8021,94.441893 233.19174,92 234.22346,92 c 0.46377,0 1.20321,0.36 1.64321,0.8 0.62222,0.62222 0.97778,0.62222 1.6,0 1.21709,-1.217087 3.73658,-0.955413 4.49792,0.467147 0.48282,0.902166 0.39564,2.1983 -0.30267,4.5 -1.34349,4.428263 -1.21741,4.895723 0.69209,2.566183 1.79306,-2.187497 2.06743,-1.987683 0.87232,0.6353 -0.8514,1.86863 -3.49828,2.35488 -4.11206,0.75542 -0.19894,-0.51844 0.12689,-2.470517 0.72407,-4.337943 0.82874,-2.591547 0.90121,-3.579894 0.30614,-4.174967 -1.29301,-1.293013 -3.425,1.285713 -4.62175,5.590207 -0.6569,2.362703 -1.43838,3.865323 -2.01028,3.865323 -0.57924,0 -0.80303,-0.44439 -0.58752,-1.16667 z M 19.333334,98 v -2.666667 h -6 c -3.5555558,0 -6.0000005,-0.271606 -6.0000005,-0.666666 C 7.3333335,94.266667 10,94 14,94 h 6.666667 v 3.333333 c 0,1.833334 -0.3,3.333337 -0.666667,3.333337 -0.366666,0 -0.666666,-1.200003 -0.666666,-2.66667 z M 65.615521,57 c 5.44e-4,-7.7 0.09759,-10.758695 0.215657,-6.797099 0.118067,3.961595 0.117622,10.261595 -10e-4,14 C 65.711577,67.941307 65.614977,64.7 65.615521,57 Z M 53.003154,33.166667 c -1.242912,-1.072791 -1.872002,-2.442903 -2.20884,-4.810683 L 50.32334,25.045302 48.828337,26.94589 c -0.822251,1.045323 -1.495003,2.335131 -1.495003,2.866238 0,1.463259 -1.63714,0.616438 -1.871445,-0.968017 -0.139539,-0.943614 0.550726,-1.961036 2.166667,-3.193573 1.517452,-1.157417 2.371445,-2.366319 2.371445,-3.356986 0,-1.895855 -1.077803,-2.668883 -2.303185,-1.651907 -0.544922,0.452246 -1.067055,0.50465 -1.298406,0.130316 C 45.946965,20.041508 48.818348,18 50.297178,18 c 0.555914,0 1.198992,0.75 1.42906,1.666667 0.230069,0.916666 0.633491,1.666666 0.896493,1.666666 0.263002,0 1.182774,-0.75 2.043937,-1.666666 1.886607,-2.008202 3.333333,-2.152874 3.333333,-0.333334 0,0.833254 -0.444444,1.333334 -1.184996,1.333334 -0.651747,0 -1.888063,0.492447 -2.747368,1.094328 -1.427973,1.000192 -1.524703,1.414825 -1.124481,4.820094 0.449518,3.824692 1.831031,6.752244 3.186387,6.752244 0.421009,0 1.277026,-0.462951 1.902261,-1.028781 1.017682,-0.920989 1.177745,-0.922055 1.527668,-0.01017 0.438032,1.14149 -1.366671,2.372282 -3.478467,2.372282 -0.736992,0 -2.122025,-0.675 -3.077851,-1.5 z M 33.103108,22.652446 c -3.200879,-8.329087 -3.474353,-9.319113 -2.57421,-9.319113 0.290893,0 0.992323,1.275 1.558733,2.833334 1.00925,2.776692 1.097281,2.837314 4.403554,3.032497 l 3.373717,0.199163 1.158122,-3.032496 c 1.161026,-3.040103 2.812197,-4.350391 1.93119,-1.532498 -1.065818,3.409005 -5.667842,14.813629 -6.187215,15.333002 -0.30843,0.30843 -1.957182,-3.07282 -3.663891,-7.513889 z m 4.920584,1.625617 c 0.720304,-1.680398 1.309642,-3.330398 1.309642,-3.666666 0,-0.336268 -1.2,-0.611397 -2.666667,-0.611397 -1.466666,0 -2.666666,0.246559 -2.666666,0.547907 0,0.895932 2.100202,6.785426 2.419692,6.785426 0.161897,0 0.883697,-1.374871 1.603999,-3.05527 z m 48.95275,3.408539 c -0.96054,-1.639036 -1.55548,-3.289036 -1.322093,-3.666667 0.76362,-1.235565 2.11548,-0.72205 2.956093,1.122897 l 0.824467,1.809499 1.661673,-3.309499 c 1.866487,-3.717418 7.981967,-10.31476 9.547318,-10.299581 0.6368,0.0062 0.10879,0.823828 -1.399151,2.166667 -3.279067,2.920046 -5.495667,6.165388 -6.93716,10.156749 -2.155634,5.96874 -2.860487,6.235803 -5.331147,2.019935 z m 19.127428,1.574819 c -0.58324,-1.576652 0.0864,-5.792254 1.27199,-8.007546 1.22885,-2.296126 7.34696,-4.308836 8.77051,-2.885286 0.20273,0.202724 -0.0473,1.750403 -0.55555,3.439287 -0.50828,1.688884 -0.92415,3.633575 -0.92415,4.321534 0,1.04425 0.22021,1.132982 1.33333,0.537257 2.35059,-1.257997 1.48654,0.514498 -1.11136,2.279815 -2.49587,1.695986 -3.5553,1.706909 -3.5553,0.03666 0,-0.723103 -0.53436,-0.622893 -2.33098,0.437135 l -2.33097,1.375308 -0.56752,-1.534161 z m 5.48199,-3.428088 c 0.52246,-0.825 1.15322,-2.475 1.40167,-3.666666 C 113.40022,20.187323 113.2976,20 111.80052,20 c -1.67301,0 -2.55229,1.375241 -3.5165,5.5 -0.36254,1.550909 -0.2144,1.833333 0.96168,1.833333 0.76462,0 1.8177,-0.675 2.34016,-1.5 z m -49.252525,3.5 c 0.226612,-0.366666 0.994317,-0.666666 1.706011,-0.666666 2.014776,0 1.496023,-1.559388 -0.887106,-2.666667 -4.158653,-1.932245 -2.681936,-6.951712 2.553509,-8.679565 2.532239,-0.835714 3.632939,-2.653768 1.606666,-2.653768 -0.721829,0 -1.312414,-0.3 -1.312414,-0.666667 0,-0.870066 7.128934,-0.870066 7.666667,0 0.23368,0.378105 -0.326413,0.666667 -1.293986,0.666667 -1.97576,0 -2.372327,1.805546 -0.539347,2.455589 2.004233,0.710776 3.5,2.358828 3.5,3.856341 0,1.749596 -2.95442,4.627802 -5.625,5.479896 -2.339533,0.746469 -3.065843,2.208174 -1.09722,2.208174 0.763887,0 1.388887,0.3 1.388887,0.666666 0,0.371092 -1.790894,0.666667 -4.039345,0.666667 -2.523134,0 -3.884688,-0.250241 -3.627322,-0.666667 z m 4.286633,-7.051724 c 0.457674,-2.045116 0.698354,-3.852177 0.53484,-4.015693 -1.038205,-1.038203 -4.48814,2.794959 -4.48814,4.986692 0,0.773283 1.874093,2.747392 2.608199,2.747392 0.282129,0 0.887424,-1.673276 1.345101,-3.718391 z m 4.451747,2.040617 c 1.973767,-1.973769 2.05586,-5.827597 0.131893,-6.191868 -0.838086,-0.158678 -1.3216,0.528307 -1.873013,2.661207 -0.408807,1.581306 -0.895647,3.400102 -1.081867,4.041768 -0.488046,1.681717 0.877374,1.434504 2.822987,-0.511107 z m -43.738381,1.011107 v -2.666666 h -6 c -3.555556,0 -6,-0.271605 -6,-0.666667 C 15.333334,21.6 18,21.333333 22,21.333333 h 6.666667 v 3.333334 C 28.666667,26.5 28.366667,28 28.000001,28 27.633334,28 27.333334,26.8 27.333334,25.333333 Z"
         id="path98" />
      <path
         style="fill:#4f4f4f;stroke-width:0.666667"
         d="M 41.85565,96.0005 42.044631,79.333333 H 83.333335 124.62204 L 124.81102,96.0005 125,112.66766 H 83.333335 41.666668 Z M 124,96 V 80 H 83.333335 42.666668 v 16 16 H 83.333335 124 Z m -63.333332,8.19371 c -2.183555,-0.80288 -3.331683,-2.52746 -3.742036,-5.62085 -0.236356,-1.78174 -0.635847,-3.239527 -0.887757,-3.239527 -0.25191,0 -1.134894,1.204334 -1.962184,2.6763 -0.827292,1.471967 -1.782534,2.504257 -2.122761,2.293997 -1.232747,-0.761883 -0.569658,-2.501963 1.770098,-4.645097 2.902205,-2.658313 3.052085,-5.45028 0.275817,-5.137933 l -1.66451,0.18726 1.444482,-1.44656 c 1.649802,-1.652173 3.492524,-1.31286 4.029898,0.742067 0.454502,1.738013 0.966506,1.67772 2.858953,-0.3367 1.886607,-2.0082 3.333333,-2.152874 3.333333,-0.333334 0,0.95428 -0.444444,1.333334 -1.563341,1.333334 -3.313462,0 -4.548497,3.50378 -3.088195,8.761173 0.916928,3.30113 2.322822,4.43151 4.117602,3.31065 0.94413,-0.58962 1.570033,-0.63572 2.054426,-0.15133 0.484392,0.48439 0.142564,0.90728 -1.121998,1.38807 -1.977898,0.75199 -2.239246,0.76729 -3.731827,0.21848 z m 26.000001,-4.335803 c 0,-0.6119 0.3,-1.29796 0.666666,-1.524574 1.829454,-1.130666 0.02333,-1.640793 -6.5,-1.83586 l -7.166667,-0.2143 7.543827,-0.141586 c 6.415927,-0.12042 9.287974,-0.629927 10.74084,-1.905447 0.156567,-0.137453 -0.293433,-0.687273 -1,-1.221827 -0.926613,-0.701026 -3.514366,-1.01728 -9.284667,-1.1347 l -8,-0.162786 7.166667,-0.2143 c 6.5233,-0.195067 8.329454,-0.705194 6.5,-1.83586 -0.366666,-0.226614 -0.666666,-0.912674 -0.666666,-1.524574 0,-0.750453 0.641973,-0.333726 1.972466,1.280394 1.08486,1.31612 2.88486,2.770866 4,3.232773 1.115147,0.461907 2.027534,1.06704 2.027534,1.34474 0,0.2777 -0.912387,0.882833 -2.027534,1.34474 -1.11514,0.461907 -2.91514,1.916653 -4,3.232773 -1.330493,1.614117 -1.972466,2.030847 -1.972466,1.280394 z M 105.33334,97.31192 c 0,-3.83372 1.53995,-7.03978 3.98993,-8.306713 2.58475,-1.336627 6.46121,-1.127594 6.08489,0.328126 -1.72728,6.681707 -1.91646,8 -1.14802,8 0.44359,0 1.16653,-0.36 1.60653,-0.8 0.5574,-0.5574 0.8,-0.573893 0.8,-0.0544 0,0.840394 -4.04771,3.52104 -5.31668,3.52104 -0.4603,0 -0.65609,-0.442713 -0.44223,-1 0.48684,-1.268693 -0.28654,-1.277113 -1.947,-0.0212 -2.44206,1.847107 -3.62742,1.302407 -3.62742,-1.666853 z m 5.81118,-1.442187 c 0.38584,-0.478353 0.91823,-1.882206 1.1831,-3.11968 0.54092,-2.52722 -0.49925,-3.728566 -2.36418,-2.730486 -1.25152,0.669793 -3.01092,6.158253 -2.3282,7.2629 0.49314,0.797933 2.31906,0.06287 3.50928,-1.412734 z m 134.83204,10.435347 c -0.98727,-1.18959 0.0693,-2.76742 1.33107,-1.98764 0.56224,0.34749 0.55618,0.71005 -0.0235,1.40858 -0.6292,0.75812 -0.51345,0.94065 0.59648,0.94065 1.25298,0 3.45277,-2.21821 3.45277,-3.48168 0,-0.28508 -0.73945,-0.51832 -1.64321,-0.51832 -2.54428,0 -3.17324,-1.9203 -1.96336,-5.99439 0.56684,-1.908753 0.81913,-3.665867 0.56066,-3.9047 -0.25848,-0.23884 -0.58971,-0.101787 -0.73607,0.304547 -0.14636,0.406333 -0.69575,1.306333 -1.22086,2 -0.79497,1.05014 -0.95831,1.083253 -0.97596,0.197866 -0.0307,-1.53694 2.39171,-3.51002 3.69517,-3.009833 0.837,0.321187 1.00262,0.937127 0.69395,2.580853 C 248.46964,101.62554 248.46022,102 249.56353,102 c 1.39398,0 2.8883,-2.363827 3.4548,-5.465087 0.24766,-1.3558 0.86032,-3.0058 1.36145,-3.666666 0.86734,-1.143794 0.91163,-1.13746 0.92093,0.131753 0.0213,2.901207 -2.61704,11.22931 -4.03586,12.73957 -1.71132,1.82162 -4.03922,2.07056 -5.28829,0.56551 z M 25.500001,101.89181 c 2.417098,-0.8828 2.297033,-1.996283 -0.347762,-3.225143 -1.564531,-0.726934 -2.211395,-1.516727 -2.368876,-2.892287 -0.272396,-2.379333 1.32938,-4.230773 5.049971,-5.83708 2.987427,-1.28978 3.744458,-2.603967 1.5,-2.603967 -0.733333,0 -1.333536,-0.225 -1.333783,-0.5 -5.32e-4,-0.590746 7.215082,-0.507593 7.81271,0.09004 0.225479,0.22548 -0.357942,0.40996 -1.29649,0.40996 -2.731426,0 -2.846928,1.84374 -0.185174,2.955894 4.665303,1.949286 3.268147,6.77878 -2.457339,8.49418 -2.842001,0.85148 -3.308175,2.284093 -1.039924,3.195823 1.120593,0.45042 0.403937,0.6003 -2.833333,0.59255 -3.680804,-0.009 -4.057264,-0.11121 -2.5,-0.67997 z m 3.343512,-7.225143 c 0.941599,-3.73798 0.931906,-4 -0.147963,-4 -2.716107,0 -4.917253,5.016393 -3.029482,6.90416 1.718037,1.71804 2.101366,1.36768 3.177445,-2.90416 z m 4.186791,2.363633 c 2.039563,-2.03956 2.211754,-5.342113 0.33101,-6.34866 -1.370515,-0.733473 -1.430322,-0.613373 -3.063316,6.151693 -0.560949,2.323867 0.526981,2.402294 2.732306,0.196967 z M 183.5,101.9466 c 1.58096,-0.92082 1.72981,-8.613267 0.16667,-8.613267 -0.55,0 -1,-0.3 -1,-0.666666 0,-0.366667 0.45,-0.666667 1,-0.666667 0.66125,0 1,-0.661373 1,-1.95238 0,-2.497453 1.67919,-4.176647 3.91715,-3.917147 1.78688,0.207194 2.42809,1.86556 0.91618,2.369527 -0.45833,0.15278 -0.83333,-0.19722 -0.83333,-0.77778 0,-1.4589 -1.14296,-1.32362 -1.97655,0.233953 C 185.53812,90.10872 185.83894,92 187.33334,92 c 0.73333,0 1.33333,0.3 1.33333,0.666667 0,0.366666 -0.6,0.666666 -1.33333,0.666666 -1.18132,0 -1.33334,0.444447 -1.33334,3.898127 0,3.38371 0.19795,3.99359 1.5,4.62155 1.29715,0.62558 1.04921,0.72678 -1.83333,0.74826 -2.57521,0.0192 -3.06799,-0.1297 -2.16667,-0.65467 z m 7.88172,-1.03651 c -3.58144,-4.553057 0.84887,-10.57053 6.25508,-8.49597 1.70779,0.65534 3.1717,4.08912 2.68603,6.30038 -0.89211,4.06176 -6.40778,5.4162 -8.94111,2.19559 z m 6.0215,0.006 c 0.4949,-0.59631 0.89982,-2.208417 0.89982,-3.582457 0,-4.336253 -3.1319,-6.230766 -5.26524,-3.184993 -2.84368,4.059927 1.29181,10.47093 4.36542,6.76745 z m 5.43012,1.03081 c 1.55848,-0.90773 1.6954,-7.785553 0.16666,-8.37218 -1.57707,-0.60518 -1.16666,-1.57442 0.66667,-1.57442 0.91667,0 1.66667,0.30254 1.66667,0.672313 0,0.41442 0.47758,0.37406 1.24502,-0.105213 1.43057,-0.893407 3.66096,-0.285047 3.26875,0.891587 -0.44206,1.32618 -1.84566,1.39892 -1.86929,0.09687 -0.0194,-1.070646 -0.18478,-1.02704 -1.33333,0.351634 -1.92435,2.309906 -1.81335,6.980189 0.18885,7.945819 1.29714,0.62558 1.0492,0.72678 -1.83334,0.74826 -2.5752,0.0192 -3.06798,-0.1297 -2.16666,-0.65467 z m 17.8549,-0.88986 c -0.82162,-2.161027 0.23238,-5.769927 2.23444,-7.650767 1.29638,-1.21788 2.03807,-1.41122 4.00102,-1.042966 2.77473,0.52054 2.68702,0.21128 1.40964,4.970326 -1.16463,4.338977 -1.19119,4.666667 -0.37826,4.666667 0.34196,0 0.81217,-0.6 1.04493,-1.33333 0.56301,-1.773897 1.64352,-1.722163 1.17841,0.0564 -0.46196,1.76654 -2.00759,2.37098 -3.56915,1.39578 -0.77276,-0.4826 -1.36083,-0.52084 -1.6177,-0.10522 -0.82547,1.33564 -3.67239,0.70258 -4.30333,-0.95691 z m 4.86775,-0.89007 c 2.02028,-4.010403 2.02343,-7.500003 0.007,-7.500003 -1.06796,0 -3.52525,4.886406 -3.54811,7.055553 -0.0301,2.85067 2.1889,3.12916 3.54135,0.44445 z m 7.36894,1.33333 c 2.03758,-6.828707 2.15346,-10.751673 0.21172,-7.166667 -0.59888,1.1057 -1.0952,1.5353 -1.10995,0.960754 -0.0147,-0.571587 0.40503,-1.621587 0.93271,-2.333334 0.83272,-1.123226 1.14769,-1.179006 2.38557,-0.42248 1.07127,0.654714 1.65289,0.683454 2.33724,0.115494 0.50109,-0.415867 1.60257,-0.658087 2.44776,-0.538274 1.32418,0.187714 1.52852,0.58662 1.47761,2.884507 -0.0325,1.466667 -0.29499,3.641667 -0.58333,4.833333 -0.63798,2.636697 0.41975,2.917237 1.56037,0.413847 0.43924,-0.964047 0.97804,-1.573407 1.19731,-1.354133 0.73098,0.73098 -1.79323,3.773623 -3.13063,3.773623 -1.54546,0 -1.67488,-1.3255 -0.56126,-5.748077 0.55926,-2.221006 0.56156,-3.20032 0.009,-3.753053 -1.30056,-1.300567 -3.80776,1.815053 -4.71195,5.855413 -0.54333,2.427837 -1.14897,3.645717 -1.81299,3.645717 -0.6378,0 -0.87167,-0.42041 -0.649,-1.16667 z m 33.74174,-1.521713 c 0,-3.83372 1.53996,-7.03978 3.98994,-8.306714 2.58475,-1.336626 6.4612,-1.127593 6.08489,0.328127 -1.72728,6.681707 -1.91646,8 -1.14803,8 0.4436,0 1.16654,-0.36 1.60654,-0.8 0.5574,-0.5574 0.8,-0.573893 0.8,-0.0544 0,0.840393 -4.04772,3.52104 -5.31668,3.52104 -0.4603,0 -0.65609,-0.44271 -0.44224,-1 0.48684,-1.26869 -0.28653,-1.27711 -1.947,-0.0212 -2.44206,1.84711 -3.62742,1.30241 -3.62742,-1.666853 z m 5.81118,-1.442187 c 0.38584,-0.478353 0.91824,-1.882207 1.1831,-3.11968 0.54093,-2.52722 -0.49924,-3.728567 -2.36417,-2.730487 -1.25153,0.669794 -3.01092,6.158254 -2.32821,7.2629 0.49315,0.797937 2.31906,0.06287 3.50928,-1.412733 z M 19.333334,98.039347 v -2.706014 h -6 c -3.5555558,0 -6.0000005,-0.271606 -6.0000005,-0.666666 C 7.3333335,94.266667 10,94 14,94 h 6.666667 v 2.960653 c 0,1.62836 -0.3,3.146067 -0.666667,3.372677 -0.40262,0.24884 -0.666666,-0.659743 -0.666666,-2.293983 z M 65.615521,57 c 5.44e-4,-7.7 0.09759,-10.758695 0.215657,-6.797099 0.118067,3.961595 0.117622,10.261595 -10e-4,14 C 65.711577,67.941307 65.614977,64.7 65.615521,57 Z M 54.666668,34.19371 c -2.183555,-0.802879 -3.331684,-2.527463 -3.742036,-5.62085 -0.236356,-1.781739 -0.635847,-3.239527 -0.887758,-3.239527 -0.25191,0 -1.134893,1.204336 -1.962184,2.676302 -0.827291,1.471966 -1.782533,2.50426 -2.12276,2.293988 -1.232747,-0.761878 -0.569658,-2.501954 1.770098,-4.645087 2.902205,-2.658317 3.052084,-5.450281 0.275816,-5.137938 l -1.66451,0.187265 1.444482,-1.446562 c 1.649803,-1.652178 3.492524,-1.31286 4.029899,0.742064 0.454502,1.738018 0.966506,1.677719 2.858953,-0.336698 1.886607,-2.008202 3.333333,-2.152874 3.333333,-0.333334 0,0.954278 -0.444444,1.333334 -1.563341,1.333334 -3.313462,0 -4.548497,3.50378 -3.088195,8.761174 0.916928,3.301135 2.322822,4.431507 4.117602,3.310648 0.94413,-0.589619 1.570033,-0.635724 2.054426,-0.151331 0.484392,0.484393 0.142564,0.907283 -1.121998,1.388068 -1.977898,0.751995 -2.239246,0.767296 -3.731827,0.218484 z M 33.034647,22.320909 c -1.740742,-4.627036 -2.993199,-8.584578 -2.783237,-8.79454 0.209961,-0.209962 0.985405,1.026524 1.723207,2.747746 l 1.341458,3.129496 3.456228,-0.201806 c 3.419333,-0.199651 3.466276,-0.23205 4.397519,-3.035138 0.517709,-1.558334 1.21629,-2.833334 1.552401,-2.833334 0.336111,0 0.611111,0.136672 0.611111,0.303714 0,0.720347 -6.123972,16.080114 -6.603759,16.563137 -0.291468,0.293435 -1.954186,-3.252239 -3.694928,-7.879275 z m 5.142208,1.756282 c 0.636063,-1.790878 1.156479,-3.440878 1.156479,-3.666667 0,-0.225788 -1.2,-0.410524 -2.666667,-0.410524 -1.649804,0 -2.666666,0.30927 -2.666666,0.811045 0,1.212666 2.117209,6.522288 2.600759,6.522288 0.230788,0 0.940031,-1.465264 1.576095,-3.256142 z m 48.819507,3.523128 c -1.372033,-2.341204 -1.611733,-3.247729 -1.013587,-3.833334 0.593654,-0.581207 1.136407,-0.328368 2.240754,1.043844 l 1.45734,1.810829 1.892793,-3.615197 c 1.910193,-3.648411 7.650407,-9.673128 9.216338,-9.673128 0.46592,0 -0.23459,0.891642 -1.556684,1.981426 -2.832721,2.334964 -6.077821,7.270996 -7.243954,11.018574 -0.877267,2.81925 -1.81168,4.333334 -2.674307,4.333334 -0.286933,0 -1.33034,-1.379857 -2.318693,-3.066348 z M 63.500001,29.225146 C 65.9171,28.342346 65.797035,27.228858 63.15224,26 c -1.564531,-0.726932 -2.211395,-1.516723 -2.368876,-2.892289 -0.272396,-2.379334 1.32938,-4.230768 5.049971,-5.837078 2.987427,-1.289778 3.74446,-2.603966 1.5,-2.603966 -0.733334,0 -1.333536,-0.225 -1.333784,-0.5 -5.31e-4,-0.590748 7.215084,-0.50759 7.812711,0.09004 0.22548,0.225479 -0.35794,0.409962 -1.296487,0.409962 -2.731427,0 -2.846933,1.84374 -0.18518,2.955892 4.665307,1.949288 3.268147,6.778781 -2.457333,8.494178 -2.842007,0.851484 -3.308178,2.284096 -1.039927,3.195822 1.120593,0.450423 0.40394,0.600302 -2.833334,0.592552 -3.680804,-0.0088 -4.057263,-0.111204 -2.5,-0.679965 z M 66.843515,22 c 0.9416,-3.737977 0.931907,-4 -0.147967,-4 -2.716104,0 -4.91725,5.016392 -3.029479,6.904163 C 65.384106,26.6222 65.767435,26.271839 66.843515,22 Z m 4.186787,2.363637 c 2.039566,-2.039564 2.21176,-5.342119 0.331013,-6.348662 -1.370513,-0.733478 -1.43032,-0.613374 -3.063313,6.151692 -0.560954,2.323866 0.52698,2.402294 2.7323,0.19697 z M 106,27.311921 c 0,-3.833724 1.53996,-7.039782 3.98994,-8.306716 2.58475,-1.336628 6.4612,-1.12759 6.08489,0.328128 -1.72728,6.681706 -1.91646,8 -1.14803,8 0.4436,0 1.16654,-0.36 1.60654,-0.8 0.5574,-0.557402 0.8,-0.57389 0.8,-0.05437 0,0.840391 -4.04772,3.52104 -5.31668,3.52104 -0.4603,0 -0.65609,-0.442715 -0.44224,-1 0.48684,-1.268692 -0.28653,-1.277114 -1.947,-0.0212 C 107.18536,30.825879 106,30.281181 106,27.311921 Z m 5.81118,-1.44219 c 0.38584,-0.478352 0.91824,-1.882207 1.1831,-3.119678 0.54093,-2.52722 -0.49924,-3.728564 -2.36417,-2.730488 -1.25153,0.669798 -3.01092,6.158258 -2.32821,7.262904 0.49315,0.797931 2.31906,0.06287 3.50928,-1.412738 z M 27.333334,25.372678 v -2.706011 h -6 c -3.555556,0 -6,-0.271605 -6,-0.666667 C 15.333334,21.6 18,21.333333 22,21.333333 h 6.666667 v 2.960656 c 0,1.62836 -0.3,3.146065 -0.666666,3.372678 -0.402621,0.248833 -0.666667,-0.659744 -0.666667,-2.293989 z"
         id="path96" />
      <path
         style="fill:#2e2e2e;stroke-width:0.666667"
         d="M 42.000001,96 V 79.333333 H 83.333335 124.66667 V 96 112.66667 H 83.333335 42.000001 Z M 124,96 V 80 H 83.333335 42.666668 v 16 16 H 83.333335 124 Z m -63.183088,8.14785 c -1.948831,-0.31472 -3.298025,-2.40755 -3.872544,-6.006963 -0.534353,-3.347774 -1.369422,-3.330227 -3.131811,0.0658 -0.70168,1.3521 -1.546556,2.291023 -1.877503,2.086483 -1.223245,-0.756003 -0.532756,-2.412003 2.009734,-4.819943 2.219824,-2.102347 2.520409,-2.70514 2.004353,-4.019554 -0.453776,-1.155786 -0.944936,-1.43908 -1.944787,-1.12174 -1.83568,0.58262 -1.678356,-0.078 0.332318,-1.395446 1.960936,-1.284834 3.663329,-0.3821 3.663329,1.942586 0,1.247587 0.214514,1.174567 2.198405,-0.748293 C 61.407529,88.958853 62.779526,88 63.247289,88 c 1.323066,0 0.573513,2.184813 -0.819473,2.38862 -0.681369,0.09969 -1.909637,0.811427 -2.729484,1.581633 -1.360995,1.278587 -1.439702,1.725154 -0.905013,5.134827 0.322091,2.053953 0.885914,4.29556 1.25294,4.98135 0.757869,1.4161 2.63199,1.63532 3.820409,0.4469 0.609739,-0.60974 0.985063,-0.61494 1.578145,-0.0219 0.593082,0.59308 0.513807,0.86261 -0.333334,1.13333 -2.086696,0.66683 -2.77854,0.74787 -4.294567,0.50304 z m 25.849757,-4.43013 c 0,-0.5348 0.3,-1.157773 0.666666,-1.384387 1.829454,-1.130666 0.02333,-1.640793 -6.5,-1.83586 l -7.166667,-0.2143 8,-0.162786 c 5.797114,-0.117967 8.356341,-0.432314 9.294087,-1.141587 1.281007,-0.968907 1.281007,-0.988693 0,-1.9576 -0.937746,-0.709273 -3.496973,-1.02362 -9.294087,-1.141587 l -8,-0.162786 7.166667,-0.2143 c 6.5233,-0.195067 8.329454,-0.705194 6.5,-1.83586 -0.366666,-0.226614 -0.666666,-0.912674 -0.666666,-1.524574 0,-0.750453 0.641973,-0.333726 1.972466,1.280394 1.08486,1.31612 2.88486,2.770866 4,3.232773 2.20052,0.911487 2.699927,2.011407 0.913254,2.011407 -0.612854,0 -2.412854,1.355266 -4,3.011706 -1.596494,1.666194 -2.88572,2.577297 -2.88572,2.039347 z m 18.666671,-2.03756 c 0,-6.359513 4.86888,-11.09566 9.55714,-9.296607 0.8518,0.326867 0.87321,0.69636 0.1449,2.5 -1.41158,3.495767 -1.78656,6.44978 -0.81871,6.44978 0.4675,0 1.21,-0.36 1.65,-0.8 0.5574,-0.5574 0.8,-0.573893 0.8,-0.0544 0,0.80748 -4.02631,3.52104 -5.22443,3.52104 -0.40355,0 -0.56104,-0.45 -0.34999,-1 0.48807,-1.2719 -0.46539,-1.28138 -2.13149,-0.0212 -2.32336,1.757327 -3.62742,1.290467 -3.62742,-1.298613 z m 5.8285,-1.810427 c 0.39537,-0.478353 0.92849,-1.991566 1.18471,-3.362693 0.36865,-1.972707 0.2402,-2.579553 -0.6155,-2.907913 -1.52399,-0.584814 -2.93135,0.802186 -3.81851,3.763246 -1.29586,4.325194 0.56194,5.758794 3.2493,2.50736 z M 246.44445,106.88889 C 245.71622,106.16066 245.94058,104 246.74443,104 c 0.4162,0 0.59068,0.58787 0.39574,1.33333 -0.49203,1.88154 1.80937,1.77335 3.15537,-0.14834 1.4272,-2.03761 1.3188,-2.39743 -0.79553,-2.64071 -1.67111,-0.19228 -1.82811,-0.44691 -1.77426,-2.877613 0.0325,-1.466667 0.295,-3.641667 0.58334,-4.833334 0.65822,-2.720333 -0.52208,-2.92442 -1.92777,-0.333333 -0.54703,1.008333 -1.00661,1.491567 -1.02129,1.073853 -0.0541,-1.539853 2.39684,-3.809806 3.61068,-3.344013 0.92134,0.353553 1.08994,0.923113 0.77295,2.611173 C 248.40451,101.9724 248.40507,102 249.88877,102 c 1.65101,0 2.57752,-1.51205 3.16051,-5.157907 0.47505,-2.97076 1.32149,-4.693546 1.98169,-4.03336 0.24023,0.240234 -0.10888,2.781547 -0.77579,5.64736 -0.86099,3.699817 -1.73543,5.742137 -3.01592,7.043907 -1.71431,1.74281 -3.82849,2.35521 -4.79481,1.38889 z M 25.329833,102.07098 c 2.429184,-0.67592 2.442275,-2.39414 0.02587,-3.395047 -2.070088,-0.85746 -3.17509,-3.114366 -2.449985,-5.00396 0.359879,-0.937826 4.230364,-3.66404 5.20967,-3.66948 0.246795,-0.0013 -0.428205,0.874427 -1.5,1.946227 -2.269138,2.269133 -2.568448,5.006033 -0.659212,6.027827 0.709228,0.379566 1.429306,0.69012 1.600173,0.69012 0.429723,0 2.030641,-6.736787 1.937592,-8.15354 -0.04167,-0.634447 0.205149,-1.327154 0.548484,-1.539347 1.08872,-0.672867 0.676354,-1.537673 -0.875755,-1.836627 -0.825,-0.1589 0.3,-0.288913 2.5,-0.288913 2.2,0 3.350366,0.126687 2.556368,0.281527 -2.454752,0.478706 -2.420088,2.10334 0.06705,3.142533 4.497491,1.879167 3.309795,6.433387 -2.183809,8.373813 -3.086264,1.090114 -3.794198,3.064447 -1.27294,3.550067 0.825,0.1589 -0.45,0.29986 -2.833333,0.31325 -2.730818,0.0153 -3.718276,-0.14681 -2.670168,-0.43845 z m 7.230576,-4.471587 c 2.947203,-2.064306 3.216228,-6.108313 0.476295,-7.159726 -0.723409,-0.2776 -1.179702,0.3005 -1.648251,2.088233 -1.788323,6.823307 -1.724349,7.10014 1.171956,5.071493 z M 183.5,101.9466 c 0.90427,-0.52669 1.16667,-1.57173 1.16667,-4.646393 0,-3.325807 -0.18854,-3.970147 -1.16667,-3.987147 -1.11111,-0.01933 -1.11111,-0.0526 0,-0.699793 0.68359,-0.398154 1.16667,-1.47422 1.16667,-2.598774 0,-2.317873 1.53961,-4.014493 3.64296,-4.014493 1.49272,0 2.68549,1.449327 1.86666,2.268153 -0.72583,0.725827 -1.50962,0.413534 -1.50962,-0.601486 0,-1.411647 -1.15679,-1.242207 -1.97655,0.289506 -1.14086,2.13172 -0.81167,4.037934 0.80988,4.68972 l 1.5,0.602927 -1.5,0.04227 c -1.3851,0.039 -1.5,0.35028 -1.5,4.06374 0,3.54734 0.17686,4.09257 1.5,4.62441 1.19773,0.48143 0.82828,0.60735 -1.83333,0.62491 -2.5761,0.017 -3.0683,-0.13238 -2.16667,-0.65754 z m 8.05708,-0.99558 c -1.42938,-1.429387 -1.65018,-2.124593 -1.3233,-4.166667 0.89708,-5.604286 7.85089,-6.658786 9.66142,-1.465093 1.97974,5.67907 -4.15038,9.8195 -8.33812,5.63176 z m 6.07179,-0.43269 c 2.91477,-4.161423 -1.16485,-10.220443 -4.58125,-6.804043 C 192.47143,94.290473 192,95.841853 192,97.161793 c 0,4.267847 3.52026,6.366997 5.62887,3.356537 z m 5.20447,1.42827 c 1.61276,-0.93935 1.72619,-8.613267 0.12732,-8.613267 -0.57164,0 -0.85394,-0.3 -0.62732,-0.666666 C 202.55995,92.3 203.32766,92 204.03935,92 c 1.41373,0 1.53327,0.52264 1.31934,5.768107 -0.11111,2.724543 0.11302,3.581913 1.08395,4.146393 0.99814,0.5803 0.6704,0.71162 -1.77597,0.71162 -2.35645,0 -2.74973,-0.14577 -1.83333,-0.67952 z m 18.63333,-0.0799 c -0.44,-0.44 -0.8,-1.963083 -0.8,-3.384617 0,-1.983306 0.46562,-3.05024 2.00139,-4.586 1.70425,-1.704253 2.32285,-1.93252 4.16667,-1.537506 1.1909,0.255126 2.25709,0.54564 2.3693,0.64558 0.11222,0.09994 -0.26278,1.9832 -0.83333,4.18502 C 227.14194,101.93111 227.13694,102 228.02149,102 c 0.37848,0 0.95946,-0.675 1.29108,-1.5 0.3316,-0.825 0.62194,-1.149533 0.64518,-0.721193 0.13658,2.517083 -2.10303,3.809243 -3.74916,2.163103 -0.5219,-0.5219 -0.85014,-0.5219 -1.17268,0 -0.59568,0.96382 -2.57183,0.92216 -3.56924,-0.0752 z m 4.30833,-1.874823 c 0.43183,-0.91218 0.99191,-2.780347 1.24462,-4.151474 0.37455,-2.032253 0.24201,-2.576406 -0.71725,-2.944506 -0.78529,-0.301347 -1.5663,0.0296 -2.34792,0.994846 -1.29646,1.601054 -2.31701,6.316647 -1.61342,7.455067 0.72518,1.17335 2.58462,0.44022 3.43397,-1.353933 z m 7.55834,1.636703 c 0,-0.57097 0.3279,-2.340323 0.72867,-3.93191 0.40076,-1.59158 0.61178,-3.449427 0.46892,-4.128547 -0.21709,-1.032 -0.45022,-0.90634 -1.41969,0.76524 -1.03461,1.783894 -1.1132,1.819907 -0.72733,0.333334 0.6538,-2.51874 1.45171,-3.09006 2.98142,-2.134734 0.9805,0.612327 1.68654,0.64216 2.67521,0.11304 0.73874,-0.39536 1.9673,-0.520746 2.73013,-0.278633 1.20294,0.3818 1.33507,0.806887 0.9958,3.2036 -0.21514,1.519867 -0.58558,3.588393 -0.8232,4.59673 -0.50712,2.15196 0.97186,2.63522 1.53024,0.5 0.19177,-0.733337 0.65028,-1.333337 1.0189,-1.333337 0.36862,0 0.22204,0.674997 -0.32574,1.499997 -0.54778,0.825 -1.55937,1.5 -2.24798,1.5 -1.36712,0 -1.48672,-1.45201 -0.56288,-6.83333 0.40764,-2.374433 0.31024,-2.833333 -0.60136,-2.833333 -1.88468,0 -3.60172,2.4115 -4.4656,6.27174 -0.77358,3.456723 -1.95551,5.082673 -1.95551,2.690143 z m 33.33333,-1.28172 c 0,-6.359517 4.86888,-11.095663 9.55714,-9.29661 0.8518,0.326867 0.87322,0.69636 0.14491,2.5 -1.41159,3.495767 -1.78656,6.44978 -0.81871,6.44978 0.4675,0 1.21,-0.36 1.65,-0.8 0.5574,-0.5574 0.8,-0.573893 0.8,-0.0544 0,0.80748 -4.02632,3.52104 -5.22444,3.52104 -0.40354,0 -0.56104,-0.45 -0.34998,-1 0.48807,-1.2719 -0.46539,-1.28138 -2.1315,-0.0212 -2.32336,1.75733 -3.62742,1.29047 -3.62742,-1.29861 z m 5.82851,-1.81043 c 0.39537,-0.478353 0.92849,-1.991567 1.18471,-3.362693 0.36864,-1.972707 0.2402,-2.579554 -0.6155,-2.907914 -1.52399,-0.584813 -2.93136,0.802187 -3.81852,3.763247 -1.29586,4.32519 0.56195,5.75879 3.24931,2.50736 z M 19.333334,97.666667 v -2.333334 h -5.627322 c -3.166978,0 -5.8141658,-0.30232 -6.0546732,-0.691466 -0.286968,-0.464327 1.7258227,-0.628574 6.1273222,-0.5 l 6.554673,0.191466 0.204998,2.833334 c 0.12129,1.67638 -0.08288,2.833333 -0.5,2.833333 -0.387749,0 -0.704998,-1.05 -0.704998,-2.333333 z M 208,93.640593 c 0,-0.935246 -0.17758,-0.989806 -1,-0.30726 -0.57639,0.478367 -1,0.54316 -1,0.152954 0,-0.920414 1.76811,-1.533427 3.02818,-1.049894 1.13786,0.43664 0.9979,1.666027 -0.23651,2.077494 C 208.35625,94.659027 208,94.266047 208,93.640593 Z M 65.615521,57 c 5.44e-4,-7.7 0.09759,-10.758695 0.215657,-6.797099 0.118067,3.961595 0.117622,10.261595 -10e-4,14 C 65.711577,67.941307 65.614977,64.7 65.615521,57 Z M 54.816912,34.147854 c -1.948831,-0.314724 -3.298026,-2.407552 -3.872544,-6.006967 -0.534354,-3.347774 -1.369422,-3.330224 -3.131812,0.06582 -0.70168,1.352106 -1.546556,2.291026 -1.877502,2.08649 -1.223245,-0.756008 -0.532756,-2.412009 2.009734,-4.819944 2.219824,-2.102347 2.520408,-2.705144 2.004352,-4.019557 -0.453776,-1.155784 -0.944935,-1.439082 -1.944786,-1.121741 -1.83568,0.582622 -1.678356,-0.078 0.332318,-1.395444 1.960936,-1.284857 3.663329,-0.382124 3.663329,1.942563 0,1.247584 0.214514,1.174567 2.198405,-0.748296 C 55.407529,18.95885 56.779526,18 57.247289,18 c 1.323066,0 0.573513,2.184814 -0.819473,2.388621 -0.681369,0.09969 -1.909637,0.811426 -2.729484,1.581632 -1.360995,1.278588 -1.439702,1.725155 -0.905013,5.134829 0.322091,2.053949 0.885914,4.295557 1.25294,4.981352 0.757869,1.41609 2.63199,1.635319 3.820409,0.446899 0.609739,-0.609739 0.985063,-0.614937 1.578145,-0.02185 0.593082,0.593083 0.513807,0.862618 -0.333334,1.133333 -2.086696,0.666834 -2.77854,0.747872 -4.294567,0.503043 z M 87.121835,27.57331 c -1.382266,-2.288437 -1.67294,-3.285905 -1.11708,-3.833333 0.552947,-0.544568 1.115887,-0.242731 2.13174,1.142994 l 1.380367,1.882972 1.938953,-3.549638 c 2.008407,-3.676776 5.895254,-8.119892 8.203914,-9.378017 0.729511,-0.397556 -0.139907,0.901193 -1.932033,2.886108 -3.155174,3.494579 -6.374521,9.194053 -6.387847,11.308937 -0.0067,1.004782 -1.22962,2.633334 -1.978034,2.633334 -0.20434,0 -1.212326,-1.392011 -2.23998,-3.093357 z M 33.470157,23.166667 c -3.310432,-8.605835 -3.775655,-10.100832 -2.992648,-9.616907 0.341194,0.21087 1.025776,1.611845 1.521294,3.113279 l 0.900942,2.729878 3.633344,-0.196458 c 3.605005,-0.194926 3.642038,-0.218751 4.747733,-3.054411 0.612912,-1.571873 1.288668,-2.683669 1.50168,-2.470659 C 43.271645,14.160533 37.271514,30 36.597079,30 36.323001,30 34.915886,26.925 33.470157,23.166667 Z m 4.206929,2.372236 C 39.851128,20.335689 39.794271,20 36.738939,20 34.993991,20 33.998804,20.302426 33.996703,20.833333 33.993103,21.739171 36.141643,28 36.456083,28 c 0.10598,0 0.655432,-1.107493 1.221003,-2.461097 z m 25.652748,3.865414 c 2.429183,-0.675922 2.442275,-2.394144 0.02587,-3.395052 -2.070088,-0.857459 -3.17509,-3.114364 -2.449985,-5.003959 0.359879,-0.937829 4.230364,-3.664042 5.20967,-3.669481 0.246795,-0.0014 -0.428205,0.874432 -1.5,1.946226 -2.269138,2.269138 -2.568449,5.006034 -0.659212,6.027826 C 64.665402,25.689445 65.385479,26 65.556347,26 c 0.429722,0 2.030641,-6.736787 1.937595,-8.15354 -0.04167,-0.634447 0.205146,-1.327152 0.54848,-1.539345 1.08872,-0.672866 0.676353,-1.537677 -0.875754,-1.836626 -0.825,-0.158902 0.3,-0.288913 2.5,-0.288913 2.2,0 3.350367,0.126687 2.556367,0.281526 -2.454753,0.478707 -2.420087,2.103337 0.06705,3.142529 4.497493,1.879172 3.3098,6.43339 -2.183807,8.373813 -3.086267,1.090115 -3.794198,3.064452 -1.27294,3.550067 0.825,0.158902 -0.45,0.299864 -2.833334,0.313248 -2.730818,0.01533 -3.718276,-0.146806 -2.670167,-0.438442 z m 7.230574,-4.471593 c 2.947207,-2.064301 3.216227,-6.108313 0.476294,-7.159724 -0.723407,-0.277598 -1.1797,0.300497 -1.648247,2.088234 -1.788327,6.823303 -1.724347,7.100141 1.171953,5.07149 z M 106,27.680157 c 0,-6.35951 4.86888,-11.095658 9.55714,-9.296604 0.8518,0.326866 0.87322,0.696358 0.14491,2.5 -1.41159,3.495768 -1.78656,6.44978 -0.81871,6.44978 0.4675,0 1.21,-0.36 1.65,-0.8 0.5574,-0.557402 0.8,-0.57389 0.8,-0.05437 0,0.80748 -4.02632,3.52104 -5.22444,3.52104 -0.40354,0 -0.56104,-0.45 -0.34998,-1 0.48807,-1.271898 -0.46539,-1.281382 -2.1315,-0.0212 C 107.30406,30.736101 106,30.269239 106,27.680157 Z m 5.82851,-1.810426 c 0.39537,-0.478352 0.92849,-1.991562 1.18471,-3.36269 0.36864,-1.972704 0.2402,-2.579557 -0.6155,-2.907917 -1.52399,-0.584811 -2.93136,0.802187 -3.81852,3.763247 -1.29586,4.325198 0.56195,5.758792 3.24931,2.50736 z M 27.333334,25 v -2.333333 h -5.627322 c -3.166978,0 -5.814166,-0.30232 -6.054673,-0.691468 -0.286968,-0.464324 1.725823,-0.628571 6.127322,-0.5 L 28.333334,21.666667 28.538333,24.5 c 0.12129,1.676381 -0.08288,2.833333 -0.5,2.833333 -0.38775,0 -0.704999,-1.05 -0.704999,-2.333333 z"
         id="path94" />
      <path
         style="fill:#040404;stroke-width:0.666667"
         d="M 42.000001,96 V 79.333333 H 83.333335 124.66667 V 96 112.66667 H 83.333335 42.000001 Z M 124,96 V 80 H 83.333335 42.666668 v 16 16 H 83.333335 124 Z m -65.244282,6.75571 c -0.684357,-0.68435 -1.455433,-2.65232 -1.713505,-4.37327 -0.550323,-3.669813 -1.429264,-3.698747 -3.451571,-0.113613 -1.195543,2.119453 -1.481316,2.313873 -1.883656,1.281506 -0.35534,-0.911773 0.232436,-1.84738 2.343579,-3.73044 2.609047,-2.327173 2.759593,-2.641353 2.031438,-4.239486 -0.604176,-1.32602 -1.129694,-1.63992 -2.267553,-1.354434 -1.473336,0.369654 -1.472849,0.36478 0.09274,-0.927186 2.125704,-1.754187 2.74595,-1.641467 3.613409,0.6567 l 0.738113,1.955486 2.243891,-1.970166 c 1.23414,-1.083587 2.52593,-1.795854 2.870644,-1.582807 1.068583,0.66042 0.69399,1.47904 -0.873247,1.908353 -0.825,0.225994 -2.170468,0.977934 -2.989928,1.67098 -1.402114,1.185814 -1.447458,1.489827 -0.76934,5.158107 0.396324,2.14392 1.002348,4.4245 1.346718,5.06796 0.6761,1.26331 3.56913,1.59827 4.252604,0.49239 0.23031,-0.37264 0.730044,-0.48514 1.11052,-0.25 1.07351,0.66347 -0.810759,1.57235 -3.283907,1.584 -1.237517,0.006 -2.700263,-0.52338 -3.41095,-1.23408 z m 28.514437,-3.87855 c 0.401414,-0.800893 0.729847,-1.615747 0.729847,-1.81078 0,-0.195033 -3.225,-0.45104 -7.166667,-0.568907 l -7.166667,-0.2143 8.039247,-0.141586 c 5.954894,-0.10488 8.374767,-0.40086 9.333334,-1.141587 1.281006,-0.989893 1.281006,-1.010107 0,-2 -0.958567,-0.740727 -3.37844,-1.036707 -9.333334,-1.141587 l -8.039247,-0.141586 7.229094,-0.214934 c 6.030887,-0.179313 7.1635,-0.37684 6.833333,-1.191746 -0.217666,-0.537247 -0.604986,-1.501814 -0.860713,-2.14348 -0.255727,-0.641667 0.5637,0.002 1.82094,1.43038 1.25724,1.42838 3.169147,2.968433 4.248687,3.422346 l 1.962793,0.825294 -2.082633,1.076973 c -1.145454,0.592333 -3.026567,2.05228 -4.180254,3.24432 -1.48072,1.529953 -1.882966,1.739107 -1.36776,0.71118 z m 18.063185,-1.231907 c 0,-5.107153 3.13803,-9.245253 7.01093,-9.245253 1.25288,0 2.42691,0.148953 2.60896,0.331 0.18205,0.182053 -0.10439,1.967053 -0.63653,3.966667 -1.32115,4.964426 -1.28525,5.510806 0.30614,4.65912 2.41988,-1.29508 2.35868,-0.693754 -0.0994,0.976546 -2.97498,2.021547 -3.19012,2.040357 -3.19012,0.27896 v -1.387706 l -2.24536,1.387706 c -3.10974,1.921927 -3.75464,1.755827 -3.75464,-0.96704 z m 5.07658,-0.826746 c 1.86364,-1.522527 3.20486,-6.752354 1.86366,-7.26702 -1.59791,-0.613174 -2.95862,0.32966 -3.97034,2.75106 -1.19008,2.84824 -1.25867,5.702593 -0.13657,5.682626 0.45833,-0.0081 1.46779,-0.533153 2.24325,-1.166666 z M 246.44445,106.88889 C 245.73151,106.17595 245.93273,104 246.7116,104 c 0.40821,0 0.53117,0.56846 0.28841,1.33333 -0.55758,1.75678 1.67214,1.8356 3.23,0.11418 1.61454,-1.78404 1.36206,-2.56243 -0.9833,-3.0315 -2.02868,-0.40574 -2.07554,-0.49599 -1.68765,-3.250003 0.21944,-1.557967 0.59339,-3.657674 0.83101,-4.666007 0.26834,-1.1387 0.15806,-1.833333 -0.29106,-1.833333 -0.3977,0 -1.17066,0.825 -1.71769,1.833333 -0.54703,1.008333 -1.00661,1.491567 -1.02129,1.073853 -0.0147,-0.417706 0.52658,-1.44274 1.2028,-2.277833 1.71692,-2.1203 3.76008,-1.336233 3.159,1.212273 -0.23676,1.003774 -0.61003,3.10004 -0.82951,4.658374 C 248.53195,101.72532 248.62866,102 249.88985,102 c 1.6544,0 2.31894,-1.13285 3.42188,-5.833333 0.4517,-1.925 1.09134,-3.5 1.42144,-3.5 0.33009,0 0.59503,0.225 0.58874,0.5 -0.0287,1.2559 -2.5257,10.012283 -3.2309,11.329943 -1.20298,2.24781 -4.42567,3.61316 -5.64656,2.39228 z m -221.276321,-4.6929 c 1.69498,-0.32637 3.475084,-2.85555 2.021994,-2.872863 -0.684988,-0.0081 -0.68165,-0.12128 0.01665,-0.564134 0.480389,-0.304653 1.450248,-2.77506 2.155242,-5.489786 1.566521,-6.032227 1.560657,-5.771207 0.13799,-6.142987 -0.641667,-0.167687 0.333333,-0.320667 2.166667,-0.33996 2.385174,-0.02513 2.946225,0.121787 1.972424,0.516393 -1.847499,0.748654 -4.312022,10.528007 -2.881582,11.434267 0.711798,0.45096 0.655898,0.578213 -0.257509,0.586207 -1.774749,0.01553 -1.483825,2.523053 0.333333,2.873053 0.825,0.1589 -0.45,0.28891 -2.833333,0.28891 -2.383333,0 -3.657675,-0.1301 -2.831871,-0.2891 z M 183.5,102.20711 c 1.01002,-0.26394 1.16667,-1.17354 1.16667,-6.774323 0,-6.382994 0.8898,-9.432787 2.75209,-9.432787 0.37206,0 0.22668,0.4498 -0.32307,0.999547 -0.7495,0.749506 -1.00934,2.673586 -1.03871,7.691446 -0.037,6.322517 0.0431,6.724997 1.45193,7.291527 1.16869,0.46998 0.77036,0.59205 -1.84224,0.56455 -1.83333,-0.0193 -2.80833,-0.17227 -2.16667,-0.33996 z m 8.13637,-1.17681 c -0.9,-0.9 -1.63637,-2.23588 -1.63637,-2.968627 0,-1.85232 1.33011,-4.584446 2.43906,-5.009993 0.72333,-0.277567 0.77634,-0.077 0.24304,0.919493 -0.87904,1.642487 -0.87493,5.089507 0.008,6.739317 0.93619,1.7493 3.65293,1.64359 4.93874,-0.19216 2.05187,-2.929457 0.66754,-7.44391 -2.46806,-8.04861 -1.4249,-0.274793 -1.4288,-0.292353 -0.084,-0.378933 2.5039,-0.161214 4.92452,2.363493 4.91303,5.124266 -0.0118,2.826277 -0.42759,3.622757 -2.44597,4.685147 -2.25988,1.18951 -4.1223,0.91526 -5.90746,-0.8699 z m 11.19697,0.9163 C 203.73466,101.42163 204,100.37752 204,97.35576 c 0,-2.518593 -0.29672,-4.022153 -0.83333,-4.222587 -0.55939,-0.208953 -0.44037,-0.473433 0.36209,-0.80458 1.7659,-0.728733 2.01078,-0.12808 1.88036,4.612334 -0.0964,3.503723 0.10215,4.430673 1.0696,4.993763 0.94672,0.55102 0.57874,0.69143 -1.81205,0.69143 -2.35645,0 -2.74973,-0.14577 -1.83333,-0.67952 z m 18.63333,-0.0799 c -1.81922,-1.81922 -0.21163,-7.730943 2.49641,-9.180243 1.69927,-0.90942 2.71825,-0.848167 1.14113,0.06859 C 223.57181,93.645787 222,97.303407 222,99.978587 222,101.5477 222.2949,102 223.31797,102 c 1.8535,0 3.50301,-2.846527 3.59987,-6.21224 0.0635,-2.204793 0.34787,-2.875873 1.24883,-2.94662 0.64167,-0.0504 1.16311,-0.03527 1.15876,0.0336 -0.005,0.06888 -0.4508,1.775233 -0.99209,3.7919 -0.54129,2.016667 -0.98773,4.04167 -0.99209,4.5 -0.0131,1.38055 1.32348,0.93786 2.01284,-0.66667 0.49554,-1.153383 0.60612,-1.208403 0.47852,-0.23812 -0.24326,1.84987 -2.36161,3.01983 -3.15716,1.7437 -0.49371,-0.79198 -0.78844,-0.82591 -1.44768,-0.16667 -1.04904,1.04903 -2.72743,1.06143 -3.7611,0.0277 z m 11.89042,0.006 c 0.0131,-0.47998 0.42978,-2.570957 0.92606,-4.646623 0.65074,-2.721774 0.69988,-3.976367 0.17625,-4.5 C 233.93577,92.202427 233.94541,92 234.49399,92 c 0.41836,0 0.95871,0.320453 1.20077,0.712113 0.24207,0.391667 0.86077,0.5507 1.3749,0.353407 0.78866,-0.30264 0.78491,-0.12738 -0.024,1.12122 -0.52732,0.81396 -1.31522,2.910027 -1.75088,4.657927 -0.74628,2.994133 -1.98965,4.937123 -1.9377,3.028013 z m 6.19813,-0.25606 c -0.22162,-0.57753 -0.0622,-2.187337 0.35425,-3.57735 1.081,-3.60802 0.96476,-5.372607 -0.35391,-5.372607 -0.61111,0 -0.93372,-0.177393 -0.71691,-0.394206 0.21682,-0.216807 1.01682,-0.196594 1.77778,0.04493 1.67852,0.53274 1.82194,2.939187 0.41315,6.932127 -0.82821,2.347396 -0.83307,2.750486 -0.0331,2.750486 0.51551,0 1.24308,-0.525 1.61682,-1.16666 0.37374,-0.64167 0.68864,-0.851673 0.69979,-0.46667 0.0579,2.00117 -3.07029,3.04169 -3.75785,1.24995 z m 27.11145,-1.30469 c 0,-5.107153 3.13804,-9.245253 7.01094,-9.245253 1.25288,0 2.4269,0.148953 2.60896,0.331 0.18204,0.182053 -0.1044,1.967053 -0.63654,3.966666 -1.32114,4.964427 -1.28524,5.510807 0.30615,4.659117 2.41988,-1.295077 2.35868,-0.69375 -0.0994,0.97655 -2.97498,2.02155 -3.19013,2.04036 -3.19013,0.27896 v -1.387707 l -2.24535,1.387707 c -3.10975,1.92193 -3.75465,1.75583 -3.75465,-0.96704 z m 5.07658,-0.826747 c 1.86365,-1.522526 3.20486,-6.752353 1.86367,-7.26702 -1.59791,-0.613173 -2.95862,0.32966 -3.97035,2.75106 -1.19007,2.84824 -1.25866,5.702597 -0.13656,5.682627 0.45833,-0.008 1.46779,-0.53315 2.24324,-1.166667 z M 19.333334,97.358353 V 94.7167 L 13.166667,94.496713 7.0000002,94.27672 13.5,94.13836 20,94 v 3 c 0,1.65 -0.15,3 -0.333333,3 -0.183333,0 -0.333333,-1.18874 -0.333333,-2.641647 z m 4.357644,0.002 c -1.639839,-1.812 -0.854675,-4.410013 1.826914,-6.045046 3.015565,-1.838667 3.366905,-1.63584 1.097493,0.633573 -2.03096,2.03096 -2.519395,4.547267 -1.148718,5.917947 0.49039,0.490386 0.530378,0.8 0.103326,0.8 -0.383172,0 -1.228728,-0.587914 -1.879015,-1.306474 z m 9.449523,-0.193686 c 2.100043,-2.294427 2.50778,-4.380334 1.149596,-5.881107 -1.142524,-1.26248 -0.665652,-1.73848 0.776768,-0.775353 2.554143,1.705446 2.238989,5.147486 -0.644282,7.03668 -2.374974,1.55614 -2.909344,1.397666 -1.282082,-0.38022 z m 174.897809,-3.76176 c -0.80252,-1.499514 -0.32739,-1.778 1.28945,-0.755794 0.74892,0.473487 0.80532,0.817814 0.22843,1.3947 -0.57689,0.576887 -0.95163,0.419154 -1.51788,-0.638906 z m -19.37164,-6.11092 c 0,-0.754974 0.3,-1.187267 0.66667,-0.960654 C 189.7,86.559947 190,87.177653 190,87.706013 c 0,0.52836 -0.3,0.960654 -0.66666,0.960654 -0.36667,0 -0.66667,-0.617707 -0.66667,-1.37268 z M 65.615521,57 c 5.44e-4,-7.7 0.09759,-10.758695 0.215657,-6.797099 0.118067,3.961595 0.117622,10.261595 -10e-4,14 C 65.711577,67.941307 65.614977,64.7 65.615521,57 Z M 52.755718,32.755717 c -0.684357,-0.684357 -1.455434,-2.652331 -1.713506,-4.373277 -0.550322,-3.669816 -1.429263,-3.698747 -3.45157,-0.113613 -1.195544,2.119452 -1.481316,2.313872 -1.883656,1.281506 -0.35534,-0.911773 0.232436,-1.847378 2.343579,-3.730441 2.609047,-2.327175 2.759593,-2.641355 2.031437,-4.239483 -0.604176,-1.326021 -1.129693,-1.63992 -2.267552,-1.354437 -1.473336,0.369652 -1.472849,0.364782 0.09274,-0.927184 2.125704,-1.754188 2.74595,-1.641465 3.61341,0.656697 l 0.738113,1.955486 2.243891,-1.970162 c 1.23414,-1.08359 2.52593,-1.795853 2.870644,-1.582808 1.068583,0.66042 0.69399,1.479037 -0.873247,1.908351 -0.825,0.225993 -2.170468,0.977933 -2.989928,1.670979 -1.402114,1.185814 -1.447458,1.489831 -0.76934,5.158111 0.396324,2.143915 1.002348,4.424497 1.346718,5.06796 0.6761,1.263303 3.56913,1.598275 4.252604,0.49239 0.23031,-0.372647 0.730044,-0.485147 1.11052,-0.25 1.07351,0.663466 -0.810759,1.572347 -3.283907,1.583999 -1.237517,0.0058 -2.700263,-0.523387 -3.41095,-1.234074 z m 34.361197,-5.445984 c -2.088733,-3.715761 -1.2527,-5.337998 1.179194,-2.288112 l 1.481733,1.858268 1.427027,-2.939944 c 1.775386,-3.657618 4.85128,-7.425117 7.65538,-9.376674 1.806111,-1.256988 1.655631,-0.963986 -0.965053,1.879076 -3.192734,3.463654 -5.123554,6.728861 -6.503887,10.998701 -1.152894,3.566281 -2.214207,3.533676 -4.274394,-0.131315 z M 33.33961,22.5 c -3.691016,-9.665616 -3.684218,-9.644558 -2.851597,-8.833333 0.376338,0.366666 1.043758,1.791666 1.483154,3.166666 0.79454,2.486348 0.818794,2.5 4.441206,2.5 h 3.642302 L 41.31358,16.5 c 2.278714,-5.128551 1.423062,-1.640823 -1.471938,5.999766 -1.562902,4.124871 -3.020822,7.499871 -3.239821,7.5 C 36.382822,29.999895 34.914827,26.625 33.33961,22.5 Z m 4.684082,2.44473 C 39.967566,20.409857 39.821544,20 36.262008,20 c -2.661647,0 -3.007943,0.155619 -2.59615,1.166667 0.261347,0.641666 0.921644,2.441666 1.467327,4 C 35.678869,26.725 36.257797,28 36.419693,28 c 0.161897,0 0.883697,-1.374871 1.603999,-3.05527 z m 25.144438,4.58459 c 1.694979,-0.326366 3.475083,-2.855549 2.021994,-2.872862 -0.684988,-0.0082 -0.68165,-0.121279 0.01665,-0.564129 0.480389,-0.304656 1.450248,-2.775062 2.155239,-5.489791 1.566526,-6.032225 1.56066,-5.771206 0.137993,-6.142987 -0.641667,-0.167686 0.333333,-0.320667 2.166667,-0.339959 2.385173,-0.0251 2.946226,0.121789 1.972426,0.516397 -1.8475,0.74865 -4.312026,10.528005 -2.881586,11.434262 0.7118,0.450961 0.6559,0.578215 -0.257507,0.586207 -1.774747,0.01553 -1.483827,2.523053 0.333333,2.873053 0.825,0.158902 -0.45,0.288913 -2.833333,0.288913 -2.383334,0 -3.657676,-0.130097 -2.831872,-0.289104 z M 106,27.645254 C 106,22.538097 109.13804,18.4 113.01094,18.4 c 1.25288,0 2.4269,0.148951 2.60896,0.331002 0.18204,0.182051 -0.1044,1.967051 -0.63654,3.966667 -1.32114,4.964422 -1.28524,5.510806 0.30615,4.65912 2.41988,-1.29508 2.35868,-0.693753 -0.0994,0.976544 C 112.21515,30.354883 112,30.373696 112,28.612294 v -1.387707 l -2.24535,1.387707 C 106.6449,30.534222 106,30.368123 106,27.645254 Z m 5.07658,-0.826745 c 1.86365,-1.522528 3.20486,-6.752356 1.86367,-7.267022 -1.59791,-0.613176 -2.95862,0.32966 -3.97035,2.751062 -1.19007,2.848236 -1.25866,5.702588 -0.13656,5.682627 0.45833,-0.0082 1.46779,-0.533153 2.24324,-1.166667 z M 27.333334,24.691684 V 22.050035 L 21.166667,21.830045 15,21.610056 l 6.5,-0.138361 6.500001,-0.138362 v 3 c 0,1.65 -0.15,3 -0.333334,3 -0.183333,0 -0.333333,-1.188742 -0.333333,-2.641649 z m 34.357645,0.0019 c -1.639839,-1.812002 -0.854676,-4.410019 1.826914,-6.045051 3.015565,-1.838665 3.366908,-1.635841 1.097493,0.633572 -2.030961,2.03094 -2.519395,4.547251 -1.148718,5.917928 0.490389,0.490389 0.530378,0.8 0.103325,0.8 -0.383171,0 -1.228728,-0.587911 -1.879014,-1.30647 z M 71.140502,24.5 c 2.100046,-2.294428 2.50778,-4.380333 1.1496,-5.881109 -1.142527,-1.262476 -0.665654,-1.738478 0.776766,-0.775349 2.55414,1.705447 2.238987,5.147484 -0.644286,7.036675 -2.374974,1.556143 -2.90934,1.397669 -1.28208,-0.380217 z"
         id="path92" />
    </g>
  </g>
</svg>
