<?xml version="1.0" encoding="UTF-8" standalone="no"?>
<svg
   xmlns:dc="http://purl.org/dc/elements/1.1/"
   xmlns:cc="http://creativecommons.org/ns#"
   xmlns:rdf="http://www.w3.org/1999/02/22-rdf-syntax-ns#"
   xmlns:svg="http://www.w3.org/2000/svg"
   xmlns="http://www.w3.org/2000/svg"
   xmlns:sodipodi="http://sodipodi.sourceforge.net/DTD/sodipodi-0.dtd"
   xmlns:inkscape="http://www.inkscape.org/namespaces/inkscape"
   version="1.1"
   id="svg421"
   width="256.66666"
   height="100.45649"
   viewBox="0 0 256.66666 100.45649"
   sodipodi:docname="11-A1.svg"
   inkscape:version="1.0.1 (c497b03c, 2020-09-10)">
  <metadata
     id="metadata427">
    <rdf:RDF>
      <cc:Work
         rdf:about="">
        <dc:format>image/svg+xml</dc:format>
        <dc:type
           rdf:resource="http://purl.org/dc/dcmitype/StillImage" />
        <dc:title></dc:title>
      </cc:Work>
    </rdf:RDF>
  </metadata>
  <defs
     id="defs425" />
  <sodipodi:namedview
     pagecolor="#ffffff"
     bordercolor="#666666"
     borderopacity="1"
     objecttolerance="10"
     gridtolerance="10"
     guidetolerance="10"
     inkscape:pageopacity="0"
     inkscape:pageshadow="2"
     inkscape:window-width="726"
     inkscape:window-height="480"
     id="namedview423"
     showgrid="false"
     fit-margin-top="0"
     fit-margin-left="0"
     fit-margin-right="0"
     fit-margin-bottom="0"
     inkscape:pagecheckerboard="true"
     inkscape:zoom="1.2607409"
     inkscape:cx="85.231411"
     inkscape:cy="36.922118"
     inkscape:window-x="0"
     inkscape:window-y="25"
     inkscape:window-maximized="0"
     inkscape:current-layer="g429" />
  <g
     inkscape:groupmode="layer"
     inkscape:label="Image"
     id="g429"
     transform="translate(-15.333333,-11.553529)">
    <g
       id="g433">
      <path
         style="fill:#cdcdcd;stroke-width:0.666667"
         d="M 34.666666,95.005007 V 78 h 42.011446 42.011448 l -0.17812,16.833333 -0.17811,16.833337 -41.833332,0.17167 -41.833332,0.17168 z m 81.999994,-0.0053 v -15.6667 H 76.333332 35.999999 V 94.999673 110.66634 H 76.333332 116.66666 Z M 51.636362,101.697 c -1.111572,-1.11157 -1.636363,-2.381773 -1.636363,-3.960653 0,-3.39528 -1.080173,-3.512766 -2.721255,-0.29598 -1.317822,2.583143 -1.512779,2.719923 -2.314322,1.623754 -0.663369,-0.907214 -0.698758,-1.58442 -0.146172,-2.797214 0.401006,-0.880113 0.905948,-1.610186 1.122092,-1.622386 0.216145,-0.0122 1.090868,-0.603814 1.94383,-1.314694 2.09732,-1.747973 1.443569,-4.30692 -0.947029,-3.70692 -1.931086,0.484674 -2.069793,-0.327846 -0.325454,-1.906453 1.734964,-1.57012 4.237799,-1.125507 4.697024,0.834407 l 0.363373,1.55082 1.613499,-1.717487 c 1.819336,-1.936593 5.130328,-2.429607 4.452406,-0.662967 -0.222562,0.579987 -0.404659,1.179987 -0.404659,1.333334 0,0.15334 -0.547706,0.278806 -1.217124,0.278806 -0.669418,0 -1.871741,0.696807 -2.671827,1.54846 -1.319848,1.404914 -1.393707,1.870094 -0.79673,5.01794 C 53.364923,99.6819 54.376301,102 55.309169,102 c 0.327575,0 1.064719,-0.46913 1.638097,-1.04251 1.123193,-1.12319 2.386066,-0.76477 2.386066,0.6772 0,2.25492 -5.460149,2.2991 -7.69697,0.0623 z m 27.707176,-2.863633 c 0.0053,-0.275 0.295934,-0.95 0.645154,-1.5 0.54484,-0.85812 -0.331734,-1.04734 -6.176874,-1.333367 -4.041726,-0.19778 -6.746239,-0.60444 -6.650553,-1 0.09125,-0.37718 3.75936,-0.811413 8.447313,-1 4.55732,-0.183333 8.509747,-0.558333 8.783173,-0.833333 1.098254,-1.10458 -0.867526,-1.5149 -8.783173,-1.833334 -4.687953,-0.188586 -8.356066,-0.62282 -8.447313,-1 -0.09569,-0.39556 2.608827,-0.80222 6.650553,-1 5.84514,-0.286026 6.721714,-0.475246 6.176874,-1.333333 -1.790614,-2.820113 0.158093,-2.638507 2.695273,0.25118 1.087106,1.238153 2.877946,2.624547 3.979633,3.08088 2.43452,1.008413 2.556633,1.836933 0.35228,2.390193 -0.907927,0.227874 -2.707147,1.583587 -3.99826,3.0127 -2.181893,2.415094 -3.698226,3.281117 -3.67408,2.09838 z m 18.908293,-1.254046 c -0.71174,-2.83578 1.384607,-8.410387 3.670549,-9.76072 1.92566,-1.13752 7.41772,-1.6211 7.40374,-0.6519 -0.004,0.275 -0.45398,1.97268 -1,3.77262 -1.24776,4.1131 -1.3131,5.647693 -0.19279,4.52738 0.92729,-0.927294 2.53333,-1.067987 2.53333,-0.221927 0,0.679113 -4.99148,4.088593 -5.9857,4.088593 -0.37453,0 -0.68096,-0.45 -0.68096,-1 0,-1.244246 -0.6287,-1.238433 -2.29409,0.0212 -1.901339,1.4381 -2.958092,1.20092 -3.454079,-0.775246 z m 5.151149,-2.43638 c 0.96702,-0.73652 1.28648,-1.454787 2.3615,-5.309574 0.23326,-0.836406 -0.0599,-1.166666 -1.03577,-1.166666 -1.56663,0 -3.39538,3.034233 -3.39538,5.63356 0,1.875746 0.4648,2.065 2.06965,0.84268 z M 239.72586,106.45906 C 238.33837,105.4445 238.53855,103 240.00913,103 c 0.58995,0 0.97117,0.59085 0.9422,1.46031 -0.0401,1.20444 0.16159,1.34777 1.15138,0.81805 1.57446,-0.84262 3.03323,-3.41659 1.63147,-2.87869 -1.54691,0.59361 -3.73419,-0.9627 -3.73419,-2.656977 0,-0.849053 0.32713,-2.48212 0.72695,-3.629046 0.93607,-2.685214 0.35038,-4.41344 -0.64623,-1.906867 -0.78388,1.971533 -2.3177,1.913147 -1.61478,-0.06147 0.70738,-1.987126 1.64928,-2.81198 3.21104,-2.81198 2.10842,0 2.43032,1.396707 1.2432,5.394174 -0.70264,2.366013 -0.80624,3.653106 -0.33221,4.127126 1.21577,1.21577 2.52208,-0.66098 3.42649,-4.92278 0.75782,-3.57096 2.03746,-5.435493 3.04141,-4.43154 0.69975,0.69974 -2.65259,12.06094 -3.99159,13.52767 -1.81742,1.99079 -3.83376,2.53131 -5.33841,1.43108 z m -53.41568,-4.42674 c -2.88895,-1.17101 -4.03542,-4.47052 -2.68028,-7.713813 2.25682,-5.40134 10.40129,-3.593067 10.3489,2.2977 -0.0251,2.823373 -1.08432,4.410043 -3.57653,5.357583 -2.09597,0.79689 -2.26455,0.7993 -4.09209,0.0585 z m 4.89176,-5.212853 c 0.16184,-2.159354 -0.0903,-2.899147 -1.26974,-3.725247 -1.06338,-0.744827 -1.813,-0.84814 -2.70194,-0.372393 -1.7177,0.919286 -1.76608,6.90822 -0.0636,7.873183 1.93612,1.0974 3.80082,-0.64727 4.03528,-3.775543 z m 23.23472,4.628043 c -1.54877,-1.71137 -1.37213,-4.85135 0.4228,-7.51559 1.36037,-2.019233 1.8757,-2.275613 4.74488,-2.360613 l 3.21876,-0.09536 -0.35996,2.428693 c -0.19797,1.33578 -0.54054,3.478693 -0.76127,4.762027 -0.35856,2.084683 -0.31768,2.173483 0.38361,0.833333 0.43172,-0.825 1.03909,-1.5 1.34972,-1.5 0.96566,0 0.62151,1.782253 -0.64654,3.34823 -0.98524,1.21671 -1.45858,1.36361 -2.53592,0.78704 -0.82361,-0.44079 -1.68921,-0.47822 -2.28866,-0.099 -1.43692,0.90909 -2.30262,0.76458 -3.52742,-0.5888 z m 3.94133,-1.755443 c 0.59147,-0.9027 1.23789,-2.8527 1.43649,-4.333334 0.29204,-2.177353 0.15637,-2.692066 -0.70958,-2.692066 -1.43844,0 -3.1049,3.381473 -3.1049,6.300226 0,2.766687 0.86708,3.031107 2.37799,0.725174 z M 226.00791,101.5 c 0.005,-0.64167 0.4433,-2.802713 0.97544,-4.802333 1.03102,-3.874214 0.84213,-5.412267 -0.29679,-2.416674 -0.92927,2.444174 -2.14315,1.604867 -1.27611,-0.88234 0.6423,-1.842493 0.81642,-1.906633 5.28998,-1.948726 4.35417,-0.041 4.64962,0.05127 5.0309,1.570373 0.22278,0.887647 -0.0748,3.022087 -0.6612,4.743193 -1.1671,3.425267 -0.93041,4.789097 0.34524,1.989327 0.83933,-1.84212 1.91796,-2.348913 1.91796,-0.90116 0,1.28832 -1.95788,3.81501 -2.95618,3.81501 -2.09334,0 -2.60089,-1.86665 -1.53058,-5.629063 0.56465,-1.984867 0.85516,-3.780314 0.64558,-3.989894 -1.54723,-1.547226 -3.3979,1.050587 -4.83404,6.78562 -0.70498,2.815267 -2.66636,4.048737 -2.6502,1.666667 z m 33.57725,-0.58738 c -0.71174,-2.83578 1.38461,-8.410387 3.67055,-9.76072 1.92566,-1.13752 7.41772,-1.6211 7.40374,-0.6519 -0.004,0.275 -0.45398,1.97268 -1,3.77262 -1.24776,4.1131 -1.3131,5.647693 -0.19279,4.52738 0.92729,-0.927293 2.53333,-1.067987 2.53333,-0.221927 0,0.679114 -4.99148,4.088597 -5.9857,4.088597 -0.37453,0 -0.68096,-0.45 -0.68096,-1 0,-1.24425 -0.6287,-1.23844 -2.29409,0.0212 -1.90134,1.4381 -2.95809,1.20092 -3.45408,-0.77525 z m 5.15115,-2.43638 c 0.96702,-0.73652 1.28648,-1.454787 2.3615,-5.309573 C 267.33107,92.33026 267.03788,92 266.06204,92 c -1.56663,0 -3.39538,3.034233 -3.39538,5.63356 0,1.875747 0.4648,2.065 2.06965,0.84268 z m -247.702977,2.9218 c 0.348333,-0.33107 1.208473,-0.70607 1.911423,-0.83333 1.76075,-0.31876 2.170557,-1.898043 0.492519,-1.898043 -1.380046,0 -4.103942,-2.876147 -4.103942,-4.333334 0,-1.658413 2.811061,-4.323073 5.369099,-5.08948 C 23.439199,88.4239 24.323934,86.666667 22,86.666667 c -0.733334,0 -1.333334,-0.3 -1.333334,-0.666667 0,-0.376067 1.888889,-0.666667 4.333333,-0.666667 4.081529,0 6.044404,0.98882 2.885552,1.453634 -1.60595,0.236306 -2.53865,1.8797 -1.066815,1.8797 1.636159,0 3.84793,2.637913 3.84793,4.589313 0,2.16106 -1.381363,3.608353 -4.812145,5.041827 -2.886063,1.205873 -3.815851,2.368863 -1.893866,2.368863 0.754972,0 1.372678,0.3 1.372678,0.66666 0,0.37811 -1.933334,0.66667 -4.466667,0.66667 -2.680836,0 -4.213452,-0.24067 -3.833333,-0.60196 z M 21.8968,93.900187 c 0.435856,-1.888227 0.611859,-3.613227 0.391118,-3.833334 -0.220741,-0.2201 -1.125826,0.44154 -2.0113,1.47032 -1.539397,1.78854 -2.109754,4.407467 -1.165507,5.351714 1.142806,1.142806 2.058891,0.15996 2.785689,-2.9887 z m 4.721479,1.676573 c 1.560892,-1.984353 1.757738,-3.60074 0.58172,-4.77676 -1.293817,-1.29382 -1.666758,-0.9653 -2.45419,2.16188 -1.243372,4.93788 -0.62932,5.795393 1.87247,2.61488 z M 176,101.33333 c 0,-0.36666 0.3,-0.66666 0.66666,-0.66666 1.00242,0 0.84406,-7.816917 -0.16666,-8.22703 -0.60546,-0.245667 -0.62836,-0.488733 -0.0838,-0.888887 0.41227,-0.302913 0.96334,-1.53592 1.2246,-2.740006 0.5561,-2.562947 3.01898,-4.447694 4.99318,-3.821107 1.80606,0.57322 1.83249,3.01036 0.0327,3.01036 -0.73333,0 -1.33333,-0.317707 -1.33333,-0.706013 0,-0.388307 -0.3,-0.5206 -0.66667,-0.293987 -0.36667,0.226613 -0.66667,1.29432 -0.66667,2.37268 0,1.516207 0.30224,1.960653 1.33334,1.960653 0.73333,0 1.33333,0.3 1.33333,0.666667 0,0.366667 -0.6,0.666667 -1.33333,0.666667 -1.18519,0 -1.33334,0.444446 -1.33334,4 0,3.111113 0.22222,4.000003 1,4.000003 0.55,0 1,0.3 1,0.66666 0,0.36667 -1.35,0.66667 -3,0.66667 -1.65,0 -3,-0.3 -3,-0.66667 z m 18.66666,0 c 0,-0.36666 0.45,-0.66666 1,-0.66666 0.77778,0 1,-0.88889 1,-4.000003 0,-3.111114 -0.22222,-4 -1,-4 -0.55,0 -1,-0.281254 -1,-0.625 0,-0.343754 1.95,-0.625 4.33334,-0.625 3.84229,0 4.33333,0.146366 4.33333,1.291666 0,1.388454 -1.62721,1.767534 -2.37732,0.553827 -0.79205,-1.281553 -1.60154,0.845933 -1.61247,4.23784 -0.008,2.374907 0.23982,3.16667 0.98979,3.16667 0.55,0 1,0.3 1,0.66666 0,0.36667 -1.5,0.66667 -3.33333,0.66667 -1.83334,0 -3.33334,-0.3 -3.33334,-0.66667 z M 65.999999,56 c 0,-8.888889 0.243386,-14 0.666666,-14 0.42328,0 0.666667,5.111111 0.666667,14 0,8.888889 -0.243387,14 -0.666667,14 -0.42328,0 -0.666666,-5.111111 -0.666666,-14 z M 44.969696,31.69697 c -1.111572,-1.111573 -1.636364,-2.381778 -1.636364,-3.960655 0,-3.39528 -1.080173,-3.512765 -2.721255,-0.295979 -1.317821,2.583143 -1.512779,2.719927 -2.314321,1.623753 -0.66337,-0.907213 -0.698758,-1.584423 -0.146173,-2.797216 0.401007,-0.880114 0.905948,-1.610187 1.122093,-1.622386 0.216144,-0.0122 1.090868,-0.603812 1.94383,-1.314696 2.09732,-1.747969 1.443568,-4.306921 -0.94703,-3.706919 -1.931086,0.484671 -2.069792,-0.327847 -0.325454,-1.906452 1.734964,-1.570121 4.237799,-1.125504 4.697024,0.834405 l 0.363373,1.550824 1.613499,-1.717491 c 1.819336,-1.936594 5.130329,-2.429603 4.452407,-0.662967 -0.222563,0.57999 -0.404659,1.17999 -0.404659,1.333334 0,0.153344 -0.547706,0.278808 -1.217124,0.278808 -0.669418,0 -1.871741,0.696808 -2.671828,1.548461 -1.319848,1.404914 -1.393707,1.870092 -0.79673,5.017941 C 46.698256,29.681898 47.709634,32 48.642502,32 c 0.327576,0 1.06472,-0.469127 1.638098,-1.042505 1.123193,-1.123194 2.386065,-0.764777 2.386065,0.67719 0,2.254921 -5.460149,2.299105 -7.696969,0.06229 z m 34.844209,-5.663795 c -1.816153,-3.233617 -1.82648,-3.312868 -0.52276,-4.010598 1.109933,-0.594016 1.51574,-0.428334 2.45246,1.001281 l 1.122446,1.713077 1.932347,-3.535134 c 1.062793,-1.944324 2.892927,-4.53573 4.066973,-5.75868 2.096627,-2.183965 5.801294,-4.556984 5.801294,-3.716012 0,0.235408 -1.61888,2.176601 -3.597514,4.313762 -2.142753,2.314428 -4.055746,5.18112 -4.730673,7.089104 -2.025807,5.726816 -2.294013,6.203368 -3.490853,6.20268 -0.721073,-4.13e-4 -1.90246,-1.285294 -3.03372,-3.29948 z m 18.437926,1.54611 c -0.71174,-2.83578 1.384607,-8.410383 3.670549,-9.760719 1.92566,-1.13752 7.41772,-1.621096 7.40374,-0.651899 -0.004,0.275 -0.45398,1.972679 -1,3.77262 -1.24776,4.113102 -1.3131,5.647694 -0.19279,4.52738 0.92729,-0.927296 2.53333,-1.067988 2.53333,-0.221924 0,0.679111 -4.99148,4.08859 -5.9857,4.08859 -0.37453,0 -0.68096,-0.45 -0.68096,-1 0,-1.244246 -0.6287,-1.238436 -2.29409,0.0212 -1.901339,1.4381 -2.958092,1.200916 -3.454079,-0.77525 z m 5.151149,-2.43638 c 0.96702,-0.736516 1.28648,-1.454786 2.3615,-5.309572 0.23326,-0.836404 -0.06,-1.166666 -1.03577,-1.166666 -1.56663,0 -3.39538,3.034232 -3.39538,5.63356 0,1.875748 0.4648,2.064996 2.06965,0.842678 z M 23.666666,28 c 0.226613,-0.366667 2.494317,-0.666667 5.039345,-0.666667 h 4.627322 v -3 -3 h -4.666667 c -3.703704,0 -4.666667,-0.206349 -4.666667,-1 0,-0.79365 0.962963,-1 4.666667,-1 h 4.666667 v -3 -3 h -4.627322 c -2.545028,0 -4.812732,-0.3 -5.039345,-0.666666 C 23.404243,12.242057 25.32641,12 28.960655,12 h 5.706011 v 8.333333 8.333334 H 28.960655 C 25.32641,28.666667 23.404243,28.42461 23.666666,28 Z m 30.699999,0.06471 c 0.348334,-0.331076 1.208474,-0.706076 1.911423,-0.833333 1.760751,-0.318758 2.170557,-1.898047 0.492519,-1.898047 -1.380046,0 -4.103942,-2.876149 -4.103942,-4.333333 0,-1.65841 2.811061,-4.323073 5.369099,-5.089479 2.736767,-0.819956 3.621503,-2.577188 1.297568,-2.577188 -0.733333,0 -1.333333,-0.3 -1.333333,-0.666666 0,-0.376069 1.888888,-0.666667 4.333333,-0.666667 4.081529,0 6.044406,0.988823 2.885552,1.453633 -1.60595,0.236308 -2.53865,1.8797 -1.066815,1.8797 1.636159,0 3.847929,2.637914 3.847929,4.589312 0,2.16106 -1.381363,3.608356 -4.812144,5.041828 -2.886063,1.205874 -3.815852,2.36886 -1.893867,2.36886 0.754973,0 1.372678,0.3 1.372678,0.666667 0,0.378109 -1.933333,0.666667 -4.466666,0.666667 -2.680836,0 -4.213452,-0.24067 -3.833334,-0.601957 z m 4.863468,-7.497855 c 0.435855,-1.888229 0.611858,-3.613229 0.391118,-3.833333 -0.220742,-0.220104 -1.125826,0.441541 -2.0113,1.470321 -1.539398,1.788536 -2.109754,4.407467 -1.165508,5.351713 1.142806,1.142806 2.058892,0.15996 2.78569,-2.988701 z m 4.721479,1.676573 c 1.560892,-1.984356 1.757738,-3.600746 0.58172,-4.776764 -1.293817,-1.293818 -1.666758,-0.965297 -2.45419,2.16188 -1.243372,4.937877 -0.629321,5.795392 1.87247,2.61488 z"
         id="path447" />
      <path
         style="fill:#b0b0b0;stroke-width:0.666667"
         d="M 34.666666,95 V 78 H 76.333332 118 v 17 17 H 76.333332 34.666666 Z m 81.999994,0 V 79.333333 H 76.333332 35.999999 V 95 110.66667 h 40.333333 40.333328 z m -64.057766,7.4788 c -1.671522,-1.28335 -2.607146,-3.51334 -2.629962,-6.268307 l -0.02107,-2.543826 -1.645599,1.870506 c -0.905081,1.02878 -1.6456,2.32878 -1.6456,2.888894 0,1.49258 -1.631478,0.707153 -1.86944,-0.899987 -0.135242,-0.913387 0.607328,-2.03724 2.229661,-3.3745 2.911867,-2.400207 2.968113,-4.557647 0.113653,-4.359407 -2.247572,0.156094 -2.320762,-0.758273 -0.17332,-2.165333 2.122141,-1.39048 3.881143,-1.014533 4.339592,0.927487 l 0.365274,1.54732 1.613499,-1.717487 c 1.529085,-1.62764 3.347552,-2.195467 4.224035,-1.31898 0.696651,0.696647 -0.276523,2.26758 -1.414281,2.28298 -0.602437,0.0081 -1.810096,0.564427 -2.683688,1.236173 -1.535327,1.18058 -1.563474,1.362554 -0.843225,5.451474 0.944393,5.361403 2.015293,6.608703 4.356823,5.074473 1.871675,-1.226367 3.056917,-0.36203 1.71718,1.25225 -0.972686,1.17202 -4.568216,1.2413 -6.033535,0.11627 z m 26.734644,-3.645467 c 0.0053,-0.275 0.296014,-0.95 0.645334,-1.5 C 80.532732,96.47702 79.700732,96.28544 74.198565,96 c -4.298,-0.222967 -6.516633,-0.609247 -6.700887,-1.166667 -0.209853,-0.634866 1.603374,-0.835766 7.613434,-0.84354 7.827899,-0.01013 10.149246,-0.489826 9.268286,-1.91526 -0.296387,-0.47956 -3.385846,-0.7412 -8.75208,-0.7412 -6.927986,0 -8.293986,-0.1647 -8.293986,-1 0,-0.82222 1.185186,-1 6.666666,-1 6.552054,0 7.449894,-0.28344 5.87778,-1.855553 -0.433893,-0.433893 -0.579766,-0.998013 -0.324173,-1.253607 0.255593,-0.2556 1.480853,0.64464 2.7228,2.000527 1.24194,1.355887 3.18782,2.789353 4.324166,3.185493 2.50488,0.8732 2.63718,1.63526 0.382154,2.20124 -0.926167,0.232454 -2.84106,1.614974 -4.25532,3.072274 -2.514787,2.591313 -3.40442,3.15646 -3.383867,2.149626 z m 19.303866,-0.523206 c -0.67948,-0.818727 -0.687286,-1.746674 -0.03907,-4.64322 1.065973,-4.7633 3.565226,-7.00024 7.821066,-7.00024 2.80279,0 2.96308,0.09569 2.5126,1.5 -0.70265,2.19036 -1.57441,6.03448 -1.59276,7.023453 -0.0124,0.666107 0.298,0.688793 1.39456,0.101933 2.30631,-1.234306 1.1991,0.784467 -1.39379,2.54128 C 104.61086,99.68924 104,99.711353 104,97.954607 v -1.378734 l -1.93625,1.378734 c -2.316832,1.649726 -2.340232,1.65216 -3.416346,0.35552 z m 4.653066,-2.959207 c 0.66705,-0.356993 1.41158,-1.481993 1.6545,-2.5 0.24292,-1.018007 0.59765,-2.37592 0.78828,-3.017587 0.24658,-0.83002 -0.0275,-1.166666 -0.95003,-1.166666 -1.80378,0 -2.8509,1.484053 -3.27427,4.64052 -0.38136,2.843286 -0.16858,3.087393 1.78152,2.043733 z m 135.81064,10.8713 c -0.79868,-0.79867 -0.46688,-2.73763 0.5342,-3.12178 1.20794,-0.46353 1.8285,0.42441 1.28552,1.8394 -0.88265,2.30015 1.8133,0.56534 3.38458,-2.17793 0.38928,-0.67963 0.18316,-0.79841 -0.82835,-0.47737 -1.57012,0.49833 -3.48707,-1.10413 -3.48707,-2.915007 0,-0.661046 0.4367,-2.439613 0.97043,-3.95238 0.61659,-1.747613 0.71537,-2.750486 0.27092,-2.750486 -0.38473,0 -0.85641,0.6 -1.04818,1.333333 -0.36303,1.388207 -1.5265,1.862927 -1.5265,0.62284 0,-1.636053 1.48387,-3.289507 2.95213,-3.289507 2.17477,0 2.47668,1.3181 1.20954,5.28056 -0.81866,2.56 -0.89705,3.584057 -0.31865,4.162457 1.26245,1.26246 2.66445,-0.49224 3.54807,-4.44067 0.97104,-4.33906 1.6427,-5.568847 2.54702,-4.66344 1.02912,1.030367 -1.78935,11.30589 -3.65252,13.31628 -1.48204,1.59914 -4.7793,2.29555 -5.84114,1.2337 z m -51.77778,-4.03304 c -6.12655,-2.19874 -4.93467,-10.855847 1.49458,-10.855847 4.53329,0 6.7912,5.477994 3.67209,8.908947 -1.61994,1.78189 -3.57436,2.51836 -5.16667,1.9469 z m 2.95238,-1.90347 C 192.28472,98.286707 191.11683,92 188.74646,92 c -1.69685,0 -3.0495,2.06996 -3.0495,4.666667 0,1.987233 0.37005,3.066886 1.27894,3.731483 1.62321,1.18692 2.02407,1.1733 3.30981,-0.11244 z m 24.369,1.03567 c -1.56353,-1.563533 -1.66269,-3.214013 -0.37782,-6.289133 1.13937,-2.7269 3.03433,-3.8541 5.91068,-3.515927 2.3673,0.278327 2.49979,0.87894 1.57735,7.150347 -0.38076,2.588673 -0.34158,2.748633 0.2858,1.166666 C 222.4506,98.825 223.05278,98 223.38888,98 c 1.00885,0 0.69179,1.75266 -0.60727,3.35693 -0.97444,1.20339 -1.46797,1.36498 -2.46491,0.80705 -0.77466,-0.43351 -1.83217,-0.47493 -2.79358,-0.10941 -1.18502,0.45055 -1.85624,0.27898 -2.86841,-0.73319 z m 3.57188,-1.20343 c 0.60495,-0.66847 1.29223,-2.61847 1.52728,-4.333337 0.34645,-2.527653 0.23633,-3.117946 -0.58163,-3.117946 -1.37266,0 -2.23668,1.189406 -3.06292,4.2164 -1.08693,3.982023 -0.0259,5.603083 2.11727,3.234883 z m 8.18402,2.00709 c -0.25277,-0.40899 0.0183,-2.58762 0.60226,-4.841407 0.58402,-2.253786 0.88314,-4.276506 0.66471,-4.494933 -0.21843,-0.218427 -0.57023,0.26476 -0.78178,1.073747 -0.46923,1.794313 -1.56247,1.947673 -1.56247,0.21918 0,-1.906207 1.3036,-2.523587 5.4616,-2.586594 5.70354,-0.08643 5.89121,0.373527 3.47009,8.504967 -0.44648,1.49953 -0.38437,1.57491 0.61937,0.75171 0.61358,-0.50324 1.1156,-1.328237 1.1156,-1.833337 0,-0.505106 0.3,-0.918373 0.66667,-0.918373 1.12563,0 0.74037,1.926293 -0.66667,3.33333 -1.59752,1.59752 -2.23286,1.65932 -3.34032,0.32492 -0.67732,-0.81612 -0.61423,-1.716343 0.33082,-4.72089 0.80941,-2.573347 0.95469,-3.925507 0.47346,-4.40674 -1.12042,-1.120413 -3.91485,2.21926 -4.4355,5.30092 -0.53296,3.15456 -1.91791,5.42601 -2.61784,4.2935 z m 33.57012,-0.48158 c -0.67948,-0.81873 -0.68728,-1.746673 -0.0391,-4.64322 1.06601,-4.7633 3.56526,-7.00024 7.8211,-7.00024 2.80279,0 2.96308,0.09569 2.5126,1.5 -0.70265,2.19036 -1.57441,6.03448 -1.59276,7.023453 -0.0124,0.666107 0.298,0.688794 1.39456,0.101934 2.30631,-1.234307 1.1991,0.784466 -1.39379,2.541283 -2.73915,1.8559 -3.35001,1.87802 -3.35001,0.12127 v -1.378733 l -1.93625,1.378733 c -2.31683,1.64973 -2.34023,1.65216 -3.41635,0.35552 z m 4.65307,-2.959207 c 0.66705,-0.356993 1.41158,-1.481993 1.6545,-2.5 0.24292,-1.018006 0.59765,-2.37592 0.78828,-3.017586 C 267.32316,92.336647 267.04905,92 266.12655,92 c -1.80378,0 -2.8509,1.484053 -3.27427,4.64052 -0.38136,2.843287 -0.16858,3.087393 1.78152,2.043733 z M 17.333333,101.3797 c 0,-0.34117 0.651501,-0.71617 1.447781,-0.83333 2.079117,-0.30594 2.239384,-1.64635 0.256354,-2.144063 -2.397526,-0.60174 -3.90619,-3.1174 -3.115978,-5.195814 0.69533,-1.828853 3.04628,-3.588686 5.675738,-4.248633 2.056783,-0.51622 2.338328,-2.291193 0.363427,-2.291193 -0.754973,0 -1.187268,-0.3 -0.960655,-0.666667 0.520023,-0.841413 8.333333,-0.884887 8.333333,-0.04633 0,0.341166 -0.651502,0.716166 -1.447782,0.833333 -2.186941,0.3218 -2.072244,1.39428 0.308934,2.888707 2.831255,1.7769 3.166698,4.35708 0.865611,6.658166 -0.93097,0.930974 -2.581165,1.870374 -3.667099,2.08756 -2.302662,0.4605 -3.393307,2.245234 -1.372074,2.245234 0.721825,0 1.31241,0.3 1.31241,0.66666 0,0.37038 -1.777778,0.66667 -4,0.66667 -2.2,0 -4,-0.27913 -4,-0.6203 z m 4.217778,-5.968593 c 0.211445,-1.05722 0.581467,-2.70722 0.822272,-3.666667 C 22.904773,89.62722 21.883088,89.450247 20,91.333333 c -1.279693,1.279694 -1.815564,4.62888 -0.888889,5.555554 0.992126,0.992126 2.077489,0.33478 2.44,-1.47778 z m 4.733602,0.875606 c 1.491268,-1.491266 2.009914,-4.128426 1.041435,-5.295373 -1.300257,-1.566713 -1.782354,-1.198547 -2.580339,1.97054 -1.167168,4.635247 -0.725576,5.589313 1.538904,3.324833 z M 176,101.40466 c 0,-0.32744 0.45,-0.76802 1,-0.97908 0.72211,-0.2771 1,-1.40846 1,-4.071327 0,-2.833413 -0.23164,-3.687586 -1,-3.687586 -0.55,0 -1,-0.3 -1,-0.666667 0,-0.366667 0.45,-0.666667 1,-0.666667 0.69714,0 1,-0.701993 1,-2.317966 0,-4.04426 5.13876,-5.888087 5.88221,-2.11058 0.2726,1.38506 -1.77903,1.473166 -2.30633,0.09904 C 180.94586,85.362013 180,86.583753 180,89.039347 c 0,1.84954 0.25832,2.293986 1.33333,2.293986 0.73333,0 1.33333,0.3 1.33333,0.666667 0,0.366667 -0.6,0.666667 -1.33333,0.666667 -1.18519,0 -1.33333,0.444446 -1.33333,4 0,3.111113 0.22222,4.000003 1,4.000003 0.55,0 1,0.3 1,0.66666 C 182,101.7 180.65,102 179,102 c -1.65,0 -3,-0.26791 -3,-0.59534 z m 19.33333,-0.0713 c 0,-0.36666 0.3,-0.66666 0.66667,-0.66666 0.37037,0 0.66666,-1.777783 0.66666,-4.000003 0,-2.22222 -0.29629,-4 -0.66666,-4 -0.36667,0 -0.66667,-0.3 -0.66667,-0.666667 0,-0.366667 0.75,-0.666667 1.66667,-0.666667 0.91666,0 1.66666,0.36 1.66666,0.8 0,0.62222 0.17778,0.62222 0.8,0 1.34155,-1.341546 3.86667,-0.993253 3.86667,0.533334 0,1.386566 -1.60962,1.83766 -2.34005,0.655793 -0.89746,-1.452107 -1.65995,0.255247 -1.65995,3.716887 0,2.77984 0.23364,3.627323 1,3.627323 0.55,0 1,0.3 1,0.66666 0,0.36667 -1.35,0.66667 -3,0.66667 -1.65,0 -3,-0.3 -3,-0.66667 z M 65.999999,56 c 0,-8.888889 0.243386,-14 0.666666,-14 0.42328,0 0.666667,5.111111 0.666667,14 0,8.888889 -0.243387,14 -0.666667,14 -0.42328,0 -0.666666,-5.111111 -0.666666,-14 z M 45.942228,32.478798 c -1.671522,-1.283354 -2.607147,-3.513339 -2.629963,-6.268304 l -0.02107,-2.543827 -1.6456,1.870509 c -0.90508,1.02878 -1.645599,2.32878 -1.645599,2.888889 0,1.492583 -1.631477,0.707158 -1.86944,-0.899986 -0.135241,-0.913388 0.607329,-2.037238 2.229661,-3.374501 2.911868,-2.400207 2.968114,-4.557642 0.113654,-4.359402 -2.247573,0.156092 -2.320762,-0.758279 -0.173321,-2.165336 2.122141,-1.390481 3.881143,-1.014535 4.339593,0.927485 l 0.365273,1.547324 1.613499,-1.717491 c 1.529086,-1.627637 3.347552,-2.195464 4.224036,-1.318981 0.696651,0.696651 -0.276523,2.267582 -1.414281,2.28298 -0.602437,0.0082 -1.810097,0.564432 -2.683688,1.236175 -1.535327,1.180581 -1.563475,1.362554 -0.843225,5.451474 0.944393,5.361407 2.015293,6.608705 4.356822,5.074477 1.871676,-1.226369 3.056917,-0.362031 1.71718,1.252254 -0.972685,1.172014 -4.568216,1.241297 -6.033534,0.116261 z m 34.399464,-5.798883 c -0.92126,-1.459381 -1.675027,-3.109381 -1.675027,-3.666667 0,-1.492213 2.209047,-1.232441 3.214813,0.378043 0.825853,1.3224 0.98274,1.198608 3.1684,-2.5 C 87.494605,16.754284 92.186351,12 93.824211,12 c 0.56904,0 -0.571113,1.681949 -2.69588,3.976947 -3.3271,3.593664 -4.349033,5.476522 -6.796986,12.523053 -0.56044,1.613243 -2.332667,0.804751 -3.989653,-1.820085 z m 18.305712,1.630208 c -0.67948,-0.81872 -0.687286,-1.746671 -0.03907,-4.643219 1.065973,-4.763295 3.565226,-7.000237 7.821066,-7.000237 2.80279,0 2.96308,0.09569 2.5126,1.5 -0.70265,2.190356 -1.57441,6.03448 -1.59276,7.023456 -0.0124,0.666102 0.298,0.688788 1.39456,0.101929 2.30631,-1.234302 1.1991,0.784471 -1.39379,2.541281 C 104.61086,29.689243 104,29.711356 104,27.954604 v -1.378729 l -1.93625,1.378729 c -2.316832,1.649729 -2.340232,1.652163 -3.416346,0.355519 z m 4.653066,-2.959204 c 0.66705,-0.356996 1.41158,-1.481996 1.6545,-2.5 0.24292,-1.018006 0.59765,-2.375919 0.78828,-3.017586 0.24658,-0.830017 -0.0275,-1.166666 -0.95003,-1.166666 -1.80378,0 -2.8509,1.484055 -3.27427,4.64052 -0.38136,2.843289 -0.16858,3.087392 1.78152,2.043732 z M 23.999999,28 c 0,-0.380953 2,-0.666667 4.666667,-0.666667 h 4.666667 v -2.96954 -2.96954 l -4.5,-0.197126 c -2.475,-0.10842 -4.5,-0.497127 -4.5,-0.863794 0,-0.366666 2.025,-0.755373 4.5,-0.863793 l 4.5,-0.197127 v -2.96954 -2.96954 h -4.666667 c -2.666667,0 -4.666667,-0.285714 -4.666667,-0.666666 C 23.999999,12.277778 26.222221,12 29.333333,12 h 5.333333 v 8.333333 8.333334 h -5.333333 c -3.111112,0 -5.333334,-0.277778 -5.333334,-0.666667 z m 30.666666,0.04637 c 0,-0.341165 0.651502,-0.716165 1.447782,-0.833334 2.079116,-0.305932 2.239383,-1.64635 0.256354,-2.144059 -2.397526,-0.601741 -3.90619,-3.117398 -3.115978,-5.195813 0.69533,-1.828856 3.046279,-3.588686 5.675737,-4.248638 2.056784,-0.516219 2.338329,-2.29119 0.363427,-2.29119 -0.754972,0 -1.187268,-0.3 -0.960655,-0.666666 0.520023,-0.841416 8.333333,-0.88489 8.333333,-0.04637 0,0.341165 -0.651501,0.716165 -1.447781,0.833333 -2.186941,0.321798 -2.072245,1.39428 0.308934,2.888709 2.831254,1.776897 3.1667,4.357081 0.865611,6.658168 -0.93097,0.93097 -2.581165,1.870371 -3.6671,2.087558 -2.302662,0.460531 -3.393306,2.245265 -1.372074,2.245265 0.721826,0 1.31241,0.3 1.31241,0.666667 0,0.370371 -1.777778,0.666667 -4,0.666667 -2.2,0 -4,-0.279135 -4,-0.6203 z m 4.217778,-5.968592 c 0.211445,-1.057224 0.581468,-2.707224 0.822272,-3.666667 C 60.238105,16.293885 59.21642,16.116912 57.333332,18 c -1.279693,1.279693 -1.815563,4.628881 -0.888889,5.555555 0.992126,0.992126 2.077489,0.33478 2.44,-1.47778 z m 4.733602,0.875606 c 1.491268,-1.491268 2.009915,-4.128426 1.041436,-5.295372 -1.300257,-1.566713 -1.782354,-1.198548 -2.580339,1.970537 -1.167168,4.635246 -0.725577,5.589315 1.538903,3.324835 z"
         id="path445" />
      <path
         style="fill:#8b8b8b;stroke-width:0.666667"
         d="M 34.666666,95 V 78 H 76.333332 118 v 17 17 H 76.333332 34.666666 Z m 82.666664,0 V 79.333333 H 76.666665 35.999999 V 95 110.66667 h 40.666666 40.666665 z m -64.423943,7.55361 C 51.097961,101.6765 50.005806,99.284453 49.978932,96.1353 l -0.02107,-2.468633 -1.645599,1.870506 c -0.905081,1.02878 -1.6456,2.32878 -1.6456,2.888894 0,1.503 -1.632359,0.701566 -1.87194,-0.91906 -0.138714,-0.93832 0.563812,-2.002207 2.166647,-3.281114 2.406109,-1.91984 2.838977,-3.122246 1.745895,-4.849693 -0.506075,-0.799767 -0.78106,-0.811553 -1.67257,-0.07167 -0.586806,0.487007 -1.28467,0.666894 -1.55081,0.399747 -0.762871,-0.76576 2.589707,-3.122507 4.128965,-2.902527 0.851545,0.1217 1.469336,0.77692 1.600009,1.69694 l 0.212862,1.498694 2.183398,-1.66536 c 2.638835,-2.01274 3.72421,-2.1095 3.72421,-0.332027 0,0.833253 -0.444445,1.333333 -1.184996,1.333333 -0.651747,0 -1.885046,0.490334 -2.740663,1.089634 -1.392518,0.975353 -1.510178,1.432546 -1.121914,4.359433 0.837044,6.309943 2.562846,8.466253 5.006218,6.255033 0.93379,-0.84507 1.366833,-0.92282 1.743687,-0.31306 0.62738,1.01512 -1.463664,2.62518 -3.329752,2.56384 -0.754919,-0.0248 -2.013355,-0.35538 -2.796525,-0.7346 z m 26.423945,-3.577063 c 0,-0.196234 0.4845,-1.096234 1.076673,-2 l 1.076673,-1.643214 h -7.076673 c -10.188059,0 -8.984434,-1.25162 1.423327,-1.48008 7.028186,-0.15428 8.499999,-0.35974 8.499999,-1.186586 0,-0.81636 -1.50046,-1.061214 -8.170793,-1.333334 C 66.028055,90.919887 64.972976,89.74156 74.500085,89.47668 l 6.83342,-0.189993 -1.07676,-1.64334 c -1.494467,-2.280854 0.01213,-2.074494 1.65024,0.226033 0.732113,1.028153 2.40254,2.446373 3.712066,3.1516 1.30952,0.705227 2.380947,1.477607 2.380947,1.716407 0,0.238806 -0.91826,0.81454 -2.040587,1.279426 -1.12232,0.46488 -2.807926,1.851274 -3.745793,3.08088 -1.516633,1.988407 -2.880286,2.87794 -2.880286,1.878854 z m 19.383692,-0.88244 c -1.372486,-2.56452 0.64478,-8.419114 3.558776,-10.32844 1.33026,-0.871614 7.08061,-1.63204 7.05032,-0.932334 -0.004,0.09167 -0.45398,1.639347 -1,3.439287 -1.42586,4.700213 -1.34104,5.960673 0.34054,5.060713 2.35059,-1.258 1.48654,0.5145 -1.11136,2.279814 -2.49587,1.695986 -3.5553,1.706913 -3.5553,0.03667 0,-0.726406 -0.51662,-0.63336 -2.28872,0.412207 -2.276196,1.342987 -2.292589,1.34316 -2.994256,0.03207 z m 4.630966,-2.76862 c 0.69318,-0.37098 1.57179,-1.79598 1.95245,-3.166667 0.9431,-3.395847 0.91866,-3.492153 -0.88623,-3.492153 -1.6087,0 -2.88491,2.041373 -3.12584,5 -0.21113,2.592593 -0.001,2.761706 2.05962,1.65882 z m 135.72116,10.281023 c -0.51201,-1.3343 0.0449,-2.27318 1.34844,-2.27318 0.7022,0 0.87791,0.40227 0.5824,1.33334 -0.73893,2.32818 1.568,1.4076 2.92366,-1.16667 0.71586,-1.35935 0.6391,-1.5 -0.81857,-1.5 -2.82947,0 -3.45187,-1.5424 -2.29689,-5.692 1.03226,-3.708693 0.55371,-4.852753 -0.89644,-2.143107 -0.45894,0.857534 -0.9151,1.158427 -1.0667,0.703627 -0.44678,-1.34034 1.12564,-3.535187 2.53266,-3.535187 1.8914,0 2.29264,1.6685 1.31684,5.4759 -0.60261,2.351247 -0.64081,3.511177 -0.13238,4.019607 1.20426,1.20427 2.63094,-0.62955 3.49558,-4.49316 0.93162,-4.16296 1.53748,-5.331193 2.46688,-4.756793 0.75226,0.464926 -1.32666,9.459883 -2.88113,12.465893 -1.39989,2.70709 -5.73927,3.7379 -6.57435,1.56173 z m 20.9812,-4.17907 c -1.37248,-2.56452 0.64478,-8.419113 3.55878,-10.32844 1.33026,-0.871613 7.08061,-1.63204 7.05032,-0.932333 -0.004,0.09167 -0.45398,1.639346 -1,3.439286 -1.42586,4.700214 -1.34104,5.960674 0.34054,5.060714 2.35059,-1.258 1.48654,0.5145 -1.11136,2.279813 -2.49587,1.69599 -3.5553,1.70691 -3.5553,0.0367 0,-0.72641 -0.51662,-0.63336 -2.28872,0.4122 -2.2762,1.34299 -2.29259,1.34316 -2.99426,0.0321 z m 4.63097,-2.76862 c 0.69318,-0.37098 1.57179,-1.79598 1.95245,-3.166667 C 267.57687,92.096307 267.55243,92 265.74754,92 c -1.6087,0 -2.88491,2.041373 -3.12584,5 -0.21113,2.592593 -10e-4,2.761707 2.05962,1.65882 z M 17.333333,101.3797 c 0,-0.34117 0.651501,-0.71617 1.447781,-0.83333 2.217757,-0.32634 2.088208,-1.43749 -0.29688,-2.54637 -4.057629,-1.88648 -2.980072,-6.524487 1.953602,-8.40868 2.775234,-1.059867 3.983818,-2.924653 1.895497,-2.924653 -0.55,0 -1,-0.3 -1,-0.666667 0,-0.370373 1.777778,-0.666667 4,-0.666667 2.222222,0 4,0.296294 4,0.666667 0,0.366667 -0.75,0.666667 -1.666667,0.666667 -1.94104,0 -2.310317,1.813586 -0.5,2.455586 2.026716,0.718754 3.5,2.36508 3.5,3.9111 0,1.865647 -2.524992,4.35442 -5.399826,5.322367 -2.529943,0.851827 -3.364898,2.31095 -1.322396,2.31095 0.763889,0 1.388889,0.3 1.388889,0.66666 0,0.37038 -1.777778,0.66667 -4,0.66667 -2.2,0 -4,-0.27913 -4,-0.6203 z M 21.9533,94.281607 c 0.457676,-2.045114 0.681109,-3.86942 0.496517,-4.054014 -0.748164,-0.74816 -3.022875,1.211374 -3.716725,3.201754 -0.612072,1.755793 -0.548507,2.3363 0.366536,3.347406 C 19.70849,97.44954 20.412414,98 20.663905,98 c 0.25149,0 0.831718,-1.673273 1.289395,-3.718393 z m 5.801878,-0.0636 c 0.451333,-1.798254 -0.262838,-3.60946 -1.598833,-4.054794 -0.411921,-0.137306 -1.082742,1.04378 -1.492052,2.626987 -0.40901,1.582047 -0.90291,3.42318 -1.097554,4.091393 -0.334264,1.147534 -0.240122,1.156107 1.696689,0.15454 1.191259,-0.61602 2.235463,-1.797 2.49175,-2.818126 z M 176,101.33333 c 0,-0.36666 0.45,-0.66666 1,-0.66666 0.77778,0 1,-0.88889 1,-4.000003 0,-3.111114 -0.22222,-4 -1,-4 -0.55,0 -1,-0.3 -1,-0.666667 0,-0.366667 0.43189,-0.666667 0.95975,-0.666667 0.62655,0 1.03159,-0.86264 1.16667,-2.484673 0.15416,-1.8513 0.621,-2.690007 1.83136,-3.290187 1.85271,-0.9187 4.04222,-0.12518 4.04222,1.46498 0,1.27982 -1.93148,1.26418 -2.42412,-0.0196 C 180.94586,85.362013 180,86.583753 180,89.039347 c 0,1.84954 0.25832,2.293986 1.33333,2.293986 0.73333,0 1.33333,0.3 1.33333,0.666667 0,0.366667 -0.6,0.666667 -1.33333,0.666667 -1.18519,0 -1.33333,0.444446 -1.33333,4 0,3.111113 0.22222,4.000003 1,4.000003 0.55,0 1,0.3 1,0.66666 C 182,101.7 180.65,102 179,102 c -1.65,0 -3,-0.3 -3,-0.66667 z m 8.78287,-0.8763 c -3.23394,-3.442377 -0.87367,-9.123697 3.7904,-9.123697 4.58315,0 6.95099,5.215734 4.04501,8.910097 -1.84559,2.34628 -5.73232,2.45224 -7.83541,0.2136 z m 5.26095,0.18618 c 1.01022,-0.54065 1.28951,-1.410083 1.28951,-4.01429 0,-2.93862 -0.20239,-3.416387 -1.74498,-4.11924 -1.54011,-0.701713 -1.89233,-0.613093 -3,0.754813 -1.52554,1.88396 -1.61483,4.5918 -0.21722,6.587167 1.16057,1.65694 1.79871,1.79447 3.67269,0.79155 z m 5.28951,0.69012 c 0,-0.36666 0.3,-0.66666 0.66667,-0.66666 0.37037,0 0.66666,-1.777783 0.66666,-4.000003 0,-2.22222 -0.29629,-4 -0.66666,-4 -0.36667,0 -0.66667,-0.3 -0.66667,-0.666667 0,-0.366667 0.75,-0.666667 1.66667,-0.666667 0.91666,0 1.66666,0.30254 1.66666,0.672314 0,0.41442 0.47759,0.37406 1.24502,-0.105214 1.50164,-0.93778 3.42165,-0.332513 3.42165,1.078647 0,1.222593 -1.75978,1.373027 -2.19445,0.187587 -0.57329,-1.56354 -1.77932,0.45584 -2.22822,3.73098 -0.39362,2.871726 -0.29811,3.213023 0.9936,3.550823 2.47173,0.64637 1.55526,1.55153 -1.57093,1.55153 -1.65,0 -3,-0.3 -3,-0.66667 z m 18.64148,-0.71373 c -1.05408,-1.969567 -0.0828,-5.599967 2.043,-7.636667 1.605,-1.537686 2.2567,-1.746486 4.27141,-1.368526 2.67581,0.501986 2.72427,0.690013 1.43034,5.550493 -0.51294,1.92678 -0.6679,3.66102 -0.34497,3.8606 0.32247,0.1993 0.77763,-0.39991 1.01147,-1.331567 C 222.80221,98.03584 224,97.305987 224,98.710493 c 0,2.310297 -1.32754,3.100637 -5.3028,3.156997 -3.34728,0.0475 -4.14146,-0.1624 -4.72239,-1.24789 z m 4.18893,-0.45293 c 1.5159,-1.705337 2.47211,-5.720803 1.69359,-7.111943 -0.6108,-1.09144 -0.71192,-1.091314 -1.92052,0.0027 -0.70167,0.635007 -1.59453,2.33836 -1.98414,3.785234 -1.08975,4.047059 0.048,5.757639 2.21107,3.324249 z m 7.84417,1.66666 c 0.005,-0.0917 0.45079,-1.81666 0.99208,-3.83333 0.5413,-2.016667 0.98774,-4.041667 0.99209,-4.5 0.0133,-1.400393 -1.14147,-0.9269 -1.62587,0.666667 -0.25681,0.84486 -0.60082,1.152173 -0.78766,0.703626 -0.53485,-1.284126 1.0224,-3.53696 2.4449,-3.53696 0.72043,0 1.30988,0.310554 1.30988,0.69012 0,0.47572 0.40062,0.47572 1.2895,0 1.81618,-0.971986 3.7419,-0.857206 4.68508,0.279254 0.6329,0.7626 0.57921,1.744346 -0.25171,4.6026 -1.30311,4.482553 -1.30785,4.800133 -0.0562,3.761363 0.55,-0.45646 1,-1.243197 1,-1.748297 C 236,98.413267 236.3,98 236.66667,98 c 0.8585,0 0.84915,1.080013 -0.0235,2.71049 -0.79907,1.49308 -3.66293,1.73504 -4.19279,0.35424 -0.19739,-0.5144 0.0766,-2.38223 0.60882,-4.150743 1.19481,-3.970054 0.86125,-5.27514 -1.08239,-4.234934 -1.51525,0.81094 -2.23711,2.224447 -3.31312,6.487614 C 228.23095,100.88131 227.56391,102 226.97429,102 c -0.53586,0 -0.97074,-0.075 -0.96639,-0.16667 z M 66.444443,69.555553 C 65.702276,68.813387 65.918513,42 66.666665,42 c 0.42328,0 0.666667,5.111111 0.666667,14 0,7.7 -0.1,14 -0.22222,14 -0.122227,0 -0.422227,-0.2 -0.666669,-0.444447 z M 46.24272,32.553607 c -1.811426,-0.877108 -2.90358,-3.269154 -2.930455,-6.418309 l -0.02107,-2.468631 -1.6456,1.870509 c -0.90508,1.02878 -1.645599,2.32878 -1.645599,2.888889 0,1.503003 -1.632359,0.701572 -1.871939,-0.919058 -0.138714,-0.938322 0.563811,-2.002209 2.166646,-3.281114 2.406109,-1.919839 2.838977,-3.122246 1.745895,-4.849692 -0.506075,-0.799771 -0.781059,-0.811553 -1.672569,-0.07167 -0.586806,0.487006 -1.284671,0.666892 -1.55081,0.399746 -0.762872,-0.765758 2.589706,-3.12251 4.128964,-2.902526 0.851545,0.121699 1.469336,0.776916 1.600009,1.696937 l 0.212863,1.498693 2.183398,-1.66536 C 49.58129,16.319288 50.666666,16.222523 50.666666,18 c 0,0.833253 -0.444445,1.333333 -1.184996,1.333333 -0.651748,0 -1.885046,0.490335 -2.740664,1.089632 -1.392518,0.975358 -1.510178,1.432552 -1.121913,4.359435 0.837043,6.309939 2.562846,8.466247 5.006218,6.255025 0.93379,-0.845068 1.366833,-0.922814 1.743686,-0.313051 0.62738,1.015122 -1.463663,2.625182 -3.329751,2.563839 C 48.284327,33.2634 47.02589,32.932824 46.24272,32.553607 Z m 34.141358,-6.073539 c -0.94458,-1.611799 -1.717413,-3.279187 -1.717413,-3.705307 0,-1.495948 2.46046,-0.757613 3.250013,0.975265 l 0.797367,1.750026 1.730306,-3.472277 C 86.325465,18.252873 92.118898,12 93.735325,12 c 0.59428,0 -0.316694,1.342876 -2.228534,3.285112 -1.77854,1.806812 -3.923406,4.881812 -4.766373,6.833333 -3.572587,8.27077 -3.92408,8.511958 -6.35634,4.361623 z m 18.332946,1.614036 c -1.372486,-2.564517 0.64478,-8.419113 3.558776,-10.328437 1.33026,-0.871616 7.08061,-1.632043 7.05032,-0.932334 -0.004,0.09167 -0.45398,1.639346 -1,3.439288 -1.42586,4.700214 -1.34104,5.960672 0.34054,5.060712 2.35059,-1.257996 1.48654,0.514498 -1.11136,2.279816 -2.49587,1.695986 -3.5553,1.706909 -3.5553,0.03666 0,-0.726405 -0.51662,-0.633361 -2.28872,0.412207 -2.276196,1.342987 -2.292589,1.343163 -2.994256,0.03209 z m 4.630966,-2.768615 c 0.69318,-0.370982 1.57179,-1.795982 1.95245,-3.166667 0.9431,-3.395851 0.91866,-3.492155 -0.88623,-3.492155 -1.6087,0 -2.88491,2.041374 -3.12584,5 -0.21113,2.592591 -0.001,2.76171 2.05962,1.658822 z M 23.999999,28 c 0,-0.380953 2,-0.666667 4.666667,-0.666667 h 4.666667 v -2.96954 -2.96954 l -4.5,-0.197126 c -2.475,-0.10842 -4.5,-0.497127 -4.5,-0.863794 0,-0.366666 2.025,-0.755373 4.5,-0.863793 l 4.5,-0.197127 v -2.96954 -2.96954 h -4.666667 c -2.666667,0 -4.666667,-0.285714 -4.666667,-0.666666 C 23.999999,12.277778 26.222221,12 29.333333,12 h 5.333333 v 8.333333 8.333334 h -5.333333 c -3.111112,0 -5.333334,-0.277778 -5.333334,-0.666667 z m 30.666666,0.04637 c 0,-0.341165 0.651502,-0.716165 1.447782,-0.833334 2.217756,-0.326331 2.088207,-1.437488 -0.296881,-2.546366 -4.057628,-1.886479 -2.980072,-6.52449 1.953603,-8.408677 2.775234,-1.059872 3.983818,-2.924657 1.895496,-2.924657 -0.55,0 -1,-0.3 -1,-0.666666 0,-0.370371 1.777778,-0.666667 4,-0.666667 2.222222,0 4,0.296296 4,0.666667 0,0.366666 -0.75,0.666666 -1.666666,0.666666 -1.94104,0 -2.310317,1.813584 -0.5,2.45559 2.026716,0.718748 3.499999,2.365078 3.499999,3.911096 0,1.865648 -2.524991,4.354421 -5.399825,5.322369 -2.529943,0.851824 -3.364898,2.310945 -1.322396,2.310945 0.763888,0 1.388888,0.3 1.388888,0.666667 0,0.370371 -1.777778,0.666667 -4,0.666667 -2.2,0 -4,-0.279135 -4,-0.6203 z m 4.619967,-7.098092 c 0.457677,-2.045116 0.681109,-3.869422 0.496517,-4.054014 -0.748164,-0.748164 -3.022875,1.211374 -3.716725,3.201754 -0.612071,1.755788 -0.548507,2.336294 0.366536,3.347405 0.608862,0.672786 1.312787,1.223247 1.564277,1.223247 0.25149,0 0.831718,-1.673276 1.289395,-3.718392 z m 5.801879,-0.06359 c 0.451333,-1.798257 -0.262838,-3.609465 -1.598834,-4.054797 -0.41192,-0.137307 -1.082742,1.043778 -1.492052,2.626987 -0.40901,1.582049 -0.902909,3.423177 -1.097554,4.091395 -0.334263,1.14753 -0.240121,1.156104 1.69669,0.154541 1.191259,-0.616025 2.235463,-1.797001 2.49175,-2.818126 z"
         id="path443" />
      <path
         style="fill:#717171;stroke-width:0.666667"
         d="M 34.666666,95 V 78 H 76.333332 118 v 17 17 H 76.333332 34.666666 Z M 117.17873,94.833333 117,79 76.499998,78.828167 35.999999,78.65634 v 16.00516 16.00517 h 40.678733 40.678728 z m -64.842245,6.999997 c -1.242911,-1.07279 -1.872002,-2.442897 -2.208839,-4.810677 l -0.470974,-3.310686 -1.495004,1.900586 c -0.822251,1.045327 -1.495002,2.335134 -1.495002,2.86624 0,1.314594 -1.611939,0.692954 -1.887452,-0.727886 -0.126028,-0.649947 0.803852,-2.077134 2.166667,-3.325427 2.329485,-2.133727 3.089527,-4.579553 1.691581,-5.443527 -0.382728,-0.23654 -1.10602,-0.08968 -1.607314,0.32636 -0.544923,0.452247 -1.067056,0.504647 -1.298406,0.130314 -0.451446,-0.730454 2.419938,-2.77196 3.898767,-2.77196 0.555915,0 1.198992,0.75 1.429061,1.666666 C 51.289638,89.25 51.69306,90 51.956062,90 c 0.263002,0 1.182773,-0.75 2.043937,-1.666667 1.886607,-2.0082 3.333333,-2.152873 3.333333,-0.333333 0,0.833253 -0.444445,1.333333 -1.184996,1.333333 -0.651747,0 -1.888063,0.492447 -2.747368,1.094327 -1.427973,1.000193 -1.524703,1.414827 -1.124481,4.820093 C 52.726005,99.072447 54.107517,102 55.462873,102 c 0.42101,0 1.277027,-0.46295 1.902262,-1.02878 1.017682,-0.92099 1.177744,-0.92205 1.527668,-0.0102 0.438032,1.14152 -1.366671,2.37231 -3.478468,2.37231 -0.736992,0 -2.122024,-0.675 -3.07785,-1.5 z m 27.920173,-4.14321 c 0.592174,-0.903767 1.076674,-1.803767 1.076674,-2 0,-0.196233 -3.167707,-0.356787 -7.039347,-0.356787 -4.523133,0 -6.892067,-0.2383 -6.62732,-0.666666 C 67.903738,94.283067 71.424158,94 75.957712,94 c 5.781046,0 8.076893,-0.238413 8.622113,-0.895367 1.293226,-1.55824 -2.11594,-2.42798 -10.111193,-2.579553 l -7.468633,-0.141587 7.166666,-0.2143 c 3.941667,-0.117866 7.166667,-0.364706 7.166667,-0.54854 0,-0.183826 -0.4845,-1.073673 -1.076674,-1.97744 -1.548,-2.362553 -0.127093,-2.030533 1.661114,0.388147 0.826013,1.117247 2.532433,2.522813 3.792033,3.123473 1.259606,0.600667 2.290193,1.280987 2.290193,1.511834 0,0.230846 -1.030587,0.911166 -2.290193,1.511833 -1.2596,0.60066 -2.96602,2.006227 -3.792033,3.123473 -1.788207,2.41868 -3.209114,2.750697 -1.661114,0.388147 z m 18.513873,0.237967 c -0.58324,-1.576654 0.08641,-5.792254 1.271989,-8.007547 0.87902,-1.642447 4.08808,-3.253873 6.47992,-3.253873 2.60173,0 2.77793,0.32068 1.75326,3.190893 -0.48611,1.361673 -0.89702,3.311327 -0.91311,4.33256 -0.0261,1.65302 0.11707,1.77848 1.30407,1.143213 2.35059,-1.258 1.48654,0.5145 -1.11136,2.279814 -2.49587,1.695986 -3.5553,1.706913 -3.5553,0.03667 0,-0.723106 -0.53436,-0.622893 -2.33098,0.437134 l -2.330969,1.375306 -0.56752,-1.53416 z M 104.4679,94.5364 c 0.38037,-0.478353 0.89429,-1.994733 1.14204,-3.369733 0.41898,-2.325207 0.33749,-2.5 -1.16552,-2.5 -1.59337,0 -2.27722,1.025086 -3.44276,5.1607 -0.81412,2.888693 1.37671,3.336833 3.46624,0.709033 z m 134.88966,11.15947 c -0.93869,-1.13106 -0.38615,-2.36254 1.06003,-2.36254 0.7022,0 0.87791,0.40227 0.5824,1.33334 -0.55973,1.76357 0.60642,1.70004 2.30736,-0.12571 1.77263,-1.90269 1.71592,-2.54096 -0.22573,-2.54096 -2.77046,0 -3.3321,-1.46385 -2.13783,-5.571973 1.39356,-4.7937 1.31533,-5.135987 -0.63113,-2.76136 -1.11183,1.356406 -1.64044,1.65782 -1.64269,0.93666 -0.005,-1.54572 2.4156,-3.50772 3.71306,-3.009834 0.837,0.321187 1.00262,0.937127 0.69395,2.580854 -1.27402,6.784523 -1.28344,7.158983 -0.18013,7.158983 1.47862,0 2.94872,-2.454717 3.48598,-5.820743 0.52189,-3.269827 2.28383,-5.388667 2.28383,-2.746454 0,3.015487 -2.51128,10.649197 -4.03787,12.274177 -1.7145,1.825 -4.05872,2.11654 -5.27123,0.65556 z m 20.7463,-4.43445 c -0.58324,-1.576653 0.0864,-5.792253 1.27199,-8.007547 C 262.25487,91.611427 265.46393,90 267.85577,90 c 2.60173,0 2.77793,0.32068 1.75326,3.190893 -0.48611,1.361674 -0.89702,3.311327 -0.91311,4.33256 -0.0261,1.65302 0.11707,1.77848 1.30407,1.143214 2.35059,-1.258 1.48654,0.5145 -1.11136,2.279813 -2.49587,1.69599 -3.5553,1.70691 -3.5553,0.0367 0,-0.72311 -0.53436,-0.6229 -2.33098,0.43713 l -2.33097,1.37531 -0.56752,-1.53416 z m 5.69737,-3.391687 C 266.1816,97.39138 266.69552,95.875 266.94327,94.5 c 0.41898,-2.325207 0.33749,-2.5 -1.16552,-2.5 -1.59337,0 -2.27722,1.025087 -3.44276,5.1607 -0.81412,2.88869 1.37671,3.33683 3.46624,0.709033 z M 17.666666,101.33333 c 0.226613,-0.36666 0.994318,-0.66666 1.706012,-0.66666 2.014776,0 1.496022,-1.55939 -0.887106,-2.66667 -4.158653,-1.932247 -2.681936,-6.951713 2.553509,-8.679567 2.532237,-0.835713 3.632936,-2.653766 1.606662,-2.653766 -0.721825,0 -1.31241,-0.3 -1.31241,-0.666667 0,-0.366667 1.632294,-0.666667 3.627322,-0.666667 1.995027,0 3.812732,0.3 4.039344,0.666667 0.233682,0.378107 -0.32641,0.666667 -1.293988,0.666667 -1.975758,0 -2.372327,1.805546 -0.539345,2.455586 2.004235,0.71078 3.5,2.358834 3.5,3.856347 0,1.749593 -2.954419,4.6278 -5.625,5.479893 -2.112042,0.673887 -3.133362,2.208177 -1.4699,2.208177 0.558916,0 1.201621,0.3 1.428233,0.66666 0.257533,0.4167 -1.117303,0.66667 -3.666666,0.66667 -2.549363,0 -3.924199,-0.24997 -3.666667,-0.66667 z M 21.9533,94.281607 c 0.457676,-2.045114 0.698353,-3.852174 0.534838,-4.015694 C 21.449934,89.227713 18,93.060873 18,95.252607 18,96.025893 19.874092,98 20.608199,98 c 0.282129,0 0.887424,-1.673273 1.345101,-3.718393 z m 4.451746,2.04062 c 1.973769,-1.973767 2.055861,-5.8276 0.131897,-6.191867 -0.838088,-0.15868 -1.321603,0.528307 -1.873014,2.661207 -0.40881,1.581306 -0.89565,3.4001 -1.081868,4.041766 -0.488051,1.68172 0.877374,1.434507 2.822985,-0.511106 z M 176,101.33333 c 0,-0.36666 0.45,-0.66666 1,-0.66666 0.77778,0 1,-0.88889 1,-4.000003 0,-3.111114 -0.22222,-4 -1,-4 -0.55,0 -1,-0.3 -1,-0.666667 0,-0.366667 0.45,-0.666667 1,-0.666667 0.6915,0 1,-0.694633 1,-2.251706 0,-2.708787 1.26529,-3.919634 3.79302,-3.6298 1.94258,0.222746 2.72836,2.21484 0.87364,2.21484 -0.55,0 -0.925,-0.375 -0.83333,-0.833334 0.31135,-1.55676 -1.19629,-0.842213 -1.84983,0.876734 -0.9841,2.58838 -0.78898,3.623266 0.68316,3.623266 0.73334,0 1.33334,0.3 1.33334,0.666667 0,0.366667 -0.45,0.666667 -1,0.666667 -1.54468,0 -1.40162,7.214813 0.16666,8.405303 1.02282,0.77642 0.77621,0.88824 -2,0.90683 C 177.425,101.99046 176,101.7 176,101.33333 Z m 8.78287,-0.8763 c -3.06488,-3.262417 -0.80035,-9.123697 3.52499,-9.123697 3.38176,0 5.3285,1.948507 5.3285,5.333334 0,2.14006 -0.3712,3.109586 -1.5587,4.071173 -2.17084,1.75783 -5.49998,1.62968 -7.29479,-0.28081 z m 5.8808,-0.12009 c 1.0387,-1.251553 1.01397,-6.118787 -0.0375,-7.38576 -1.88515,-2.271473 -5.29281,0.12066 -5.29281,3.715487 0,3.634373 3.41093,5.983013 5.33034,3.670273 z m 4.66966,1.06772 c 0,-0.32744 0.45,-0.76802 1,-0.97908 0.70668,-0.27117 1,-1.373747 1,-3.758913 0,-2.385167 -0.29332,-3.48774 -1,-3.758914 -1.57707,-0.60518 -1.16666,-1.57442 0.66667,-1.57442 0.91666,0 1.66666,0.30254 1.66666,0.672314 0,0.41442 0.47759,0.37406 1.24502,-0.105214 1.50164,-0.93778 3.42165,-0.332513 3.42165,1.078647 0,1.222593 -1.75978,1.373027 -2.19445,0.187587 -0.6237,-1.70102 -1.99186,0.73532 -2.3178,4.127426 -0.26484,2.756357 -0.13304,3.372577 0.72142,3.372577 0.57501,0 1.23088,0.3 1.4575,0.66666 0.25166,0.40721 -0.77086,0.66667 -2.62732,0.66667 -1.67164,0 -3.03935,-0.26791 -3.03935,-0.59534 z m 18.57675,-0.90601 c -0.976,-1.823663 0.2075,-5.750397 2.33573,-7.749763 1.30674,-1.227614 2.04517,-1.42138 4.01121,-1.052547 2.72996,0.51214 2.75661,0.618707 1.40964,5.636993 -1.17793,4.388547 -1.14432,3.999997 -0.34603,3.999997 0.35968,0 0.8422,-0.75 1.07227,-1.666663 C 222.62297,98.75 223.07868,98 223.4056,98 c 0.74151,0 0.74019,0.196407 -0.0147,2.18187 -0.54884,1.44354 -1.01184,1.6058 -4.68052,1.64036 -3.44018,0.0324 -4.18445,-0.17282 -4.80032,-1.32358 z m 3.95633,0.26468 c 0.47653,-0.30226 1.30537,-2.008117 1.84187,-3.79077 0.82592,-2.744313 0.83544,-3.381213 0.0621,-4.1545 -1.26425,-1.264247 -2.8329,0.36684 -3.79734,3.948487 -1.02562,3.808863 -0.28274,5.377093 1.89331,3.996783 z m 8.39184,0.07 c 1.89086,-6.33699 2.18314,-11.465923 0.40841,-7.166663 -0.45408,1.1 -0.95929,1.641633 -1.1227,1.203626 -0.40854,-1.095066 0.9811,-3.53696 2.01282,-3.53696 0.46377,0 1.20321,0.36 1.64321,0.8 0.62222,0.62222 0.97778,0.62222 1.6,0 1.21709,-1.217086 3.73658,-0.955413 4.49792,0.467147 0.48282,0.902167 0.39564,2.1983 -0.30267,4.5 -1.14221,3.76482 -1.19037,4.23285 -0.43559,4.23285 0.30781,0 0.91904,-0.78876 1.3583,-1.752817 0.43924,-0.964046 0.94863,-1.602813 1.13196,-1.41948 C 237.86905,98.98016 235.70403,102 234.29764,102 c -2.09078,0 -2.38036,-1.35803 -1.12598,-5.28056 0.82874,-2.591547 0.90121,-3.579893 0.30614,-4.174967 -1.29301,-1.293013 -3.425,1.285714 -4.62175,5.590207 -0.6569,2.36271 -1.43838,3.86532 -2.01028,3.86532 -0.57924,0 -0.80303,-0.44439 -0.58752,-1.16667 z M 65.999999,55.666667 C 65.999999,47 66.243901,42 66.666665,42 c 0.422767,0 0.666667,5 0.666667,13.666667 0,8.666666 -0.2439,13.666666 -0.666667,13.666666 -0.422764,0 -0.666666,-5 -0.666666,-13.666666 z M 45.669818,31.833333 c -1.242911,-1.07279 -1.872002,-2.442902 -2.208839,-4.810682 l -0.470974,-3.310682 -1.495003,1.900588 c -0.822252,1.045323 -1.495003,2.33513 -1.495003,2.866238 0,1.314593 -1.611939,0.692954 -1.887451,-0.727889 -0.126029,-0.649944 0.803852,-2.077136 2.166666,-3.325426 2.329485,-2.133725 3.089528,-4.579551 1.691582,-5.443529 -0.382729,-0.236539 -1.10602,-0.08968 -1.607315,0.326361 -0.544923,0.452245 -1.067055,0.50465 -1.298406,0.130316 -0.451445,-0.730453 2.419938,-2.771961 3.898767,-2.771961 0.555915,0 1.198992,0.75 1.429061,1.666666 C 44.622972,19.25 45.026393,20 45.289395,20 45.552397,20 46.472169,19.25 47.333332,18.333333 49.21994,16.325132 50.666666,16.180459 50.666666,18 c 0,0.833253 -0.444445,1.333333 -1.184996,1.333333 -0.651748,0 -1.888064,0.492448 -2.747368,1.094328 -1.427974,1.000192 -1.524704,1.414826 -1.124482,4.820094 C 46.059338,29.072447 47.440851,32 48.796207,32 c 0.421009,0 1.277027,-0.462951 1.902261,-1.028781 1.017682,-0.92099 1.177745,-0.922055 1.527668,-0.01017 0.438032,1.14149 -1.36667,2.372281 -3.478467,2.372281 -0.736992,0 -2.122025,-0.675 -3.077851,-1.5 z m 34.639954,-5.480064 c -0.96054,-1.639036 -1.55548,-3.289036 -1.322094,-3.666667 0.766567,-1.240335 2.116687,-0.719239 2.971094,1.146731 l 0.839466,1.833334 1.66848,-3.333334 c 1.875993,-3.74789 7.947693,-10.33857 9.510507,-10.323415 0.6368,0.0062 0.108793,0.823828 -1.399147,2.166667 -3.42238,3.047668 -5.755973,6.45129 -7.015147,10.231803 -1.949913,5.854389 -2.781586,6.162301 -5.253159,1.944881 z m 18.460759,1.574818 c -0.58324,-1.576651 0.08641,-5.792254 1.271989,-8.007546 0.87902,-1.64245 4.08808,-3.253874 6.47992,-3.253874 2.60173,0 2.77793,0.320679 1.75326,3.190891 -0.48611,1.361676 -0.89702,3.311331 -0.91311,4.332565 -0.0261,1.653019 0.11707,1.778478 1.30407,1.14321 2.35059,-1.257996 1.48654,0.514498 -1.11136,2.279816 -2.49587,1.695986 -3.5553,1.706909 -3.5553,0.03666 0,-0.723103 -0.53436,-0.622893 -2.33098,0.437135 l -2.330969,1.375307 -0.56752,-1.53416 z m 5.697369,-3.39169 c 0.38037,-0.478352 0.89429,-1.99473 1.14204,-3.36973 0.41898,-2.32521 0.33749,-2.5 -1.16552,-2.5 -1.59337,0 -2.27722,1.025083 -3.44276,5.1607 -0.81412,2.888691 1.37671,3.336832 3.46624,0.70903 z M 23.999999,28 c 0,-0.380953 2,-0.666667 4.666667,-0.666667 h 4.666667 V 24.029207 20.725079 L 28.499999,20.495005 23.666666,20.264929 28.499999,20.132465 33.333333,20 v -3.333333 -3.333334 h -4.666667 c -2.666667,0 -4.666667,-0.285714 -4.666667,-0.666666 C 23.999999,12.277778 26.222221,12 29.333333,12 h 5.333333 v 8.333333 8.333334 h -5.333333 c -3.111112,0 -5.333334,-0.277778 -5.333334,-0.666667 z m 31,0 c 0.226612,-0.366667 0.994317,-0.666667 1.706011,-0.666667 2.014776,0 1.496023,-1.559387 -0.887106,-2.666666 -4.158652,-1.932246 -2.681936,-6.951712 2.553509,-8.679565 2.532238,-0.835714 3.632937,-2.653769 1.606662,-2.653769 -0.721825,0 -1.31241,-0.3 -1.31241,-0.666666 0,-0.870066 7.128937,-0.870066 7.666667,0 0.233682,0.378105 -0.326411,0.666666 -1.293989,0.666666 -1.975757,0 -2.372326,1.805546 -0.539344,2.45559 2.004234,0.710776 3.499999,2.358828 3.499999,3.856341 0,1.749596 -2.954418,4.627801 -5.624999,5.479896 -2.112042,0.673883 -3.133363,2.208173 -1.4699,2.208173 0.558916,0 1.20162,0.3 1.428233,0.666667 0.257533,0.416697 -1.117303,0.666667 -3.666667,0.666667 -2.549363,0 -3.924199,-0.24997 -3.666666,-0.666667 z m 4.286633,-7.051725 c 0.457677,-2.045115 0.698354,-3.852176 0.534839,-4.015692 -1.038204,-1.038204 -4.488139,2.794958 -4.488139,4.986692 0,0.773283 1.874093,2.747392 2.608199,2.747392 0.282129,0 0.887424,-1.673276 1.345101,-3.718392 z m 4.451747,2.040618 c 1.973768,-1.973769 2.055861,-5.827598 0.131896,-6.191868 -0.838088,-0.158678 -1.321602,0.528306 -1.873014,2.661207 -0.408809,1.581305 -0.89565,3.400101 -1.081868,4.041768 -0.48805,1.681717 0.877375,1.434503 2.822986,-0.511107 z"
         id="path441" />
      <path
         style="fill:#525252;stroke-width:0.666667"
         d="M 34.666666,95 V 78 H 76.333332 118 v 17 17 H 76.333332 34.666666 Z M 117.17873,94.833333 117,79 H 76.333332 35.666666 L 35.487933,94.833333 35.309201,110.66667 H 76.333332 117.35746 Z M 53.999999,102.86037 C 51.816444,102.0575 50.668316,100.33291 50.257963,97.239527 50.021607,95.457787 49.622116,94 49.370206,94 c -0.25191,0 -1.134894,1.204333 -1.962184,2.6763 -0.827292,1.471967 -1.782534,2.50426 -2.122761,2.293993 -1.232747,-0.76188 -0.569658,-2.50196 1.770098,-4.645093 2.902205,-2.658313 3.052085,-5.45028 0.275817,-5.137933 l -1.66451,0.18726 1.444482,-1.44656 c 1.649802,-1.652174 3.492524,-1.31286 4.029898,0.742066 0.454502,1.738014 0.966506,1.67772 2.858953,-0.3367 1.886607,-2.0082 3.333333,-2.152873 3.333333,-0.333333 0,0.95428 -0.444445,1.333333 -1.563341,1.333333 -3.313462,0 -4.548497,3.50378 -3.088196,8.761174 0.916928,3.301133 2.322823,4.431503 4.117603,3.310643 0.94413,-0.58961 1.570033,-0.63572 2.054425,-0.15132 0.484393,0.48439 0.142564,0.90728 -1.121998,1.38806 -1.977897,0.752 -2.239246,0.7673 -3.731826,0.21848 z m 25.999999,-4.335797 c 0,-0.6119 0.3,-1.29796 0.666667,-1.524573 1.829453,-1.130667 0.02327,-1.640793 -6.5,-1.83586 l -7.166666,-0.2143 7.543826,-0.141587 c 6.415927,-0.12042 9.287973,-0.629926 10.74084,-1.905446 0.156566,-0.137454 -0.293434,-0.687274 -1,-1.221827 -0.926614,-0.701027 -3.514367,-1.01728 -9.284667,-1.1347 l -7.999999,-0.162787 7.166666,-0.2143 c 6.5233,-0.195066 8.329453,-0.705193 6.5,-1.83586 -0.366667,-0.226613 -0.666667,-0.912673 -0.666667,-1.524573 0,-0.750453 0.641974,-0.333727 1.972467,1.280393 1.08486,1.31612 2.88486,2.770867 4,3.232774 1.115146,0.461906 2.027533,1.06704 2.027533,1.34474 0,0.2777 -0.912387,0.882833 -2.027533,1.34474 -1.11514,0.461906 -2.91514,1.916653 -4,3.232773 -1.330493,1.61412 -1.972467,2.030847 -1.972467,1.280393 z m 18.666666,-2.545986 c 0,-3.83372 1.539956,-7.03978 3.989936,-8.306714 2.58475,-1.336626 6.4612,-1.127593 6.08489,0.328127 -1.72728,6.681707 -1.91646,8 -1.14803,8 0.4436,0 1.16654,-0.36 1.60654,-0.8 0.5574,-0.5574 0.8,-0.573893 0.8,-0.0544 0,0.840393 -4.04772,3.52104 -5.31668,3.52104 -0.4603,0 -0.65609,-0.442713 -0.44224,-1 0.48684,-1.268693 -0.28653,-1.277113 -1.947,-0.0212 -2.442056,1.847107 -3.627416,1.302407 -3.627416,-1.666853 z M 104.47784,94.5364 c 0.38584,-0.478353 0.91824,-1.882207 1.1831,-3.11968 0.54093,-2.52722 -0.49924,-3.728567 -2.36417,-2.730487 -1.25153,0.669794 -3.01092,6.158254 -2.32821,7.2629 0.49315,0.797934 2.31906,0.06287 3.50928,-1.412733 z m 134.83204,11.10201 c -0.98727,-1.18959 0.0694,-2.76742 1.33107,-1.98764 0.56224,0.34749 0.55618,0.71005 -0.0235,1.40858 -0.6292,0.75812 -0.51345,0.94065 0.59648,0.94065 1.25298,0 3.45277,-2.21821 3.45277,-3.48167 0,-0.28508 -0.73945,-0.51833 -1.64321,-0.51833 -2.54428,0 -3.17324,-1.92029 -1.96336,-5.994387 0.56684,-1.908753 0.81913,-3.665866 0.56066,-3.9047 -0.25848,-0.23884 -0.58971,-0.101786 -0.73607,0.304547 -0.14636,0.406333 -0.69575,1.306333 -1.22086,2 -0.79497,1.05014 -0.95831,1.083253 -0.97596,0.197867 -0.0307,-1.53694 2.39171,-3.51002 3.69517,-3.009834 0.837,0.321187 1.00262,0.937127 0.69395,2.580854 -1.27402,6.784523 -1.28344,7.158983 -0.18013,7.158983 1.39398,0 2.8883,-2.363823 3.4548,-5.465083 0.24766,-1.3558 0.86032,-3.0058 1.36145,-3.666667 0.86734,-1.143793 0.91163,-1.13746 0.92093,0.131753 0.0213,2.901207 -2.61704,11.229307 -4.03586,12.739567 -1.71132,1.82162 -4.03922,2.07056 -5.28829,0.56551 z M 18.833333,101.22515 c 2.417099,-0.8828 2.297033,-1.99629 -0.347761,-3.22515 -3.122401,-1.450767 -3.330068,-4.504213 -0.470008,-6.910793 1.147705,-0.965734 2.603718,-1.755874 3.235586,-1.755874 1.167332,0 2.748849,-1.200713 2.748849,-2.086966 0,-0.267834 -0.675,-0.616974 -1.5,-0.77588 -0.824999,-0.1589 0.45,-0.284814 2.833334,-0.279814 2.383333,0.0053 3.533723,0.131627 2.556422,0.281387 -2.769792,0.424427 -2.885538,2.0392 -0.225826,3.1505 4.665303,1.949287 3.268146,6.77878 -2.457339,8.49418 -2.842001,0.85148 -3.308174,2.28409 -1.039924,3.19582 1.120593,0.45042 0.403937,0.6003 -2.833333,0.59255 -3.680804,-0.009 -4.057263,-0.1112 -2.5,-0.67996 z M 22.176846,94 c 0.941598,-3.73798 0.931905,-4 -0.147964,-4 -2.716106,0 -4.917252,5.016393 -3.029482,6.90416 1.718038,1.71804 2.101366,1.36768 3.177446,-2.90416 z m 4.18679,2.363633 c 2.039563,-2.03956 2.211754,-5.342113 0.33101,-6.34866 -1.370515,-0.733473 -1.430322,-0.613373 -3.063316,6.151694 -0.560949,2.323866 0.526981,2.402293 2.732306,0.196966 z m 150.469694,4.916297 c 1.58095,-0.92082 1.72981,-8.613263 0.16667,-8.613263 -0.55,0 -1,-0.3 -1,-0.666667 0,-0.366667 0.45,-0.666667 1,-0.666667 0.66124,0 1,-0.661373 1,-1.95238 0,-2.497453 1.67918,-4.176646 3.91714,-3.917146 1.78688,0.207193 2.4281,1.86556 0.91619,2.369526 C 182.375,87.986113 182,87.636113 182,87.055553 c 0,-1.4589 -1.14296,-1.32362 -1.97655,0.233954 -1.15201,2.152546 -0.85118,4.043826 0.64321,4.043826 0.73334,0 1.33334,0.3 1.33334,0.666667 0,0.366667 -0.6,0.666667 -1.33334,0.666667 -1.18131,0 -1.33333,0.444446 -1.33333,3.898126 0,3.383707 0.19795,3.993587 1.5,4.621547 1.29715,0.62559 1.04921,0.72678 -1.83333,0.74827 -2.57521,0.0192 -3.06799,-0.1297 -2.16667,-0.65468 z m 7.88172,-1.0365 c -3.58144,-4.553063 0.84887,-10.570537 6.25508,-8.495977 1.70779,0.65534 3.1717,4.08912 2.68603,6.30038 -0.89212,4.061757 -6.40778,5.416197 -8.94111,2.195597 z m 6.0215,0.006 c 0.49489,-0.596317 0.89981,-2.208423 0.89981,-3.582463 0,-4.336254 -3.13189,-6.230767 -5.26523,-3.184994 -2.84368,4.059927 1.29181,10.470937 4.36542,6.767457 z m 5.43011,1.0308 c 1.55848,-0.90773 1.6954,-7.78555 0.16667,-8.372177 -1.57707,-0.60518 -1.16666,-1.57442 0.66667,-1.57442 0.91666,0 1.66666,0.30254 1.66666,0.672314 0,0.41442 0.47759,0.37406 1.24502,-0.105214 1.43058,-0.893406 3.66096,-0.285046 3.26876,0.891587 -0.44206,1.32618 -1.84566,1.39892 -1.86929,0.09687 -0.0194,-1.070647 -0.18478,-1.02704 -1.33333,0.351633 -1.92435,2.309907 -1.81335,6.980187 0.18884,7.945817 1.29715,0.62559 1.04921,0.72678 -1.83333,0.74827 -2.57521,0.0192 -3.06799,-0.1297 -2.16667,-0.65468 z m 17.85491,-0.88986 c -0.82162,-2.161023 0.23237,-5.769923 2.23444,-7.650763 1.29637,-1.21788 2.03806,-1.41122 4.00101,-1.042967 2.77474,0.52054 2.68702,0.21128 1.40964,4.970327 -1.16462,4.338973 -1.19119,4.666663 -0.37826,4.666663 0.34196,0 0.81218,-0.6 1.04493,-1.33333 0.56301,-1.773893 1.64352,-1.72216 1.17841,0.0564 -0.46196,1.76654 -2.00759,2.37099 -3.56915,1.39578 -0.77275,-0.48259 -1.36083,-0.52084 -1.6177,-0.10521 -0.82547,1.33564 -3.67238,0.70258 -4.30332,-0.95692 z m 4.86775,-0.89007 c 2.02028,-4.0104 2.02342,-7.5 0.007,-7.5 -1.06796,0 -3.52524,4.886407 -3.54811,7.055553 -0.0301,2.850677 2.1889,3.129157 3.54135,0.444447 z m 7.36893,1.33333 c 2.03758,-6.828703 2.15346,-10.75167 0.21172,-7.166663 -0.59888,1.1057 -1.0952,1.5353 -1.10995,0.960753 -0.0147,-0.571587 0.40503,-1.621587 0.93271,-2.333333 0.83272,-1.123227 1.14769,-1.179007 2.38557,-0.42248 1.07127,0.654713 1.65289,0.683453 2.33724,0.115493 0.50109,-0.415867 1.60257,-0.658087 2.44776,-0.538273 1.32418,0.187713 1.52852,0.58662 1.47761,2.884506 -0.0325,1.466667 -0.29499,3.641667 -0.58333,4.833334 -0.63798,2.636693 0.41975,2.917233 1.56037,0.413846 0.43924,-0.964046 0.97804,-1.573406 1.19731,-1.354133 0.73098,0.73098 -1.79323,3.77362 -3.13063,3.77362 -1.54546,0 -1.67488,-1.32549 -0.56126,-5.748073 0.55926,-2.221007 0.56156,-3.20032 0.009,-3.753054 -1.30056,-1.300566 -3.80776,1.815054 -4.71195,5.855414 -0.54333,2.427843 -1.14897,3.645713 -1.81299,3.645713 -0.6378,0 -0.87167,-0.42041 -0.649,-1.16667 z m 33.74174,-1.52171 c 0,-3.83372 1.53996,-7.03978 3.98994,-8.306713 2.58475,-1.336627 6.4612,-1.127594 6.08489,0.328126 -1.72728,6.681707 -1.91646,8 -1.14803,8 0.4436,0 1.16654,-0.36 1.60654,-0.8 0.5574,-0.5574 0.8,-0.573893 0.8,-0.0544 0,0.840394 -4.04772,3.521037 -5.31668,3.521037 -0.4603,0 -0.65609,-0.44271 -0.44224,-1 0.48684,-1.26869 -0.28653,-1.27711 -1.947,-0.0212 -2.44206,1.84711 -3.62742,1.30241 -3.62742,-1.66685 z m 5.81118,-1.442187 c 0.38584,-0.478353 0.91824,-1.882206 1.1831,-3.11968 0.54093,-2.52722 -0.49924,-3.728566 -2.36417,-2.730486 -1.25153,0.669793 -3.01092,6.158253 -2.32821,7.2629 0.49315,0.797933 2.31906,0.06287 3.50928,-1.412734 z M 66.948852,55.666667 c 5.47e-4,-7.7 0.09759,-10.758695 0.215653,-6.7971 0.118073,3.961596 0.117627,10.261596 -6.66e-4,14 -0.118934,3.738405 -0.215534,0.4971 -0.214987,-7.2029 z M 47.333332,32.860377 C 45.149777,32.057497 44.001649,30.332913 43.591296,27.239527 43.35494,25.457787 42.95545,24 42.703539,24 c -0.25191,0 -1.134893,1.204335 -1.962184,2.676301 -0.827291,1.471966 -1.782533,2.504261 -2.122761,2.293989 -1.232746,-0.761879 -0.569658,-2.501955 1.770098,-4.645087 2.902206,-2.658317 3.052085,-5.450281 0.275817,-5.137938 l -1.66451,0.187265 1.444482,-1.446562 c 1.649803,-1.652178 3.492524,-1.31286 4.029899,0.742063 0.454502,1.738018 0.966505,1.67772 2.858952,-0.336698 C 49.21994,16.325132 50.666666,16.180459 50.666666,18 c 0,0.954278 -0.444445,1.333333 -1.563342,1.333333 -3.313462,0 -4.548496,3.503781 -3.088195,8.761175 0.916928,3.301135 2.322823,4.431507 4.117603,3.310648 0.94413,-0.589619 1.570032,-0.635724 2.054425,-0.151331 0.484392,0.484392 0.142564,0.907282 -1.121998,1.388068 -1.977897,0.751995 -2.239246,0.767296 -3.731827,0.218484 z m 32.99636,-6.593392 c -1.372034,-2.341204 -1.611734,-3.247728 -1.013587,-3.833333 0.593653,-0.581207 1.136407,-0.328369 2.240753,1.043844 l 1.45734,1.810829 1.892793,-3.615197 C 86.817185,18.024717 92.557398,12 94.123331,12 c 0.46592,0 -0.234593,0.891642 -1.556686,1.981426 -2.83272,2.334964 -6.07782,7.270996 -7.243954,11.018574 -0.877266,2.81925 -1.81168,4.333333 -2.674306,4.333333 -0.286934,0 -1.33034,-1.379856 -2.318693,-3.066348 z M 23.999999,28 c 0,-0.380953 2,-0.666667 4.666667,-0.666667 h 4.666667 V 24.029207 20.725079 L 28.499999,20.495005 23.666666,20.264929 28.499999,20.132465 33.333333,20 v -3.333333 -3.333334 h -4.666667 c -2.666667,0 -4.666667,-0.285714 -4.666667,-0.666666 C 23.999999,12.277778 26.222221,12 29.333333,12 h 5.333333 v 8.333333 8.333334 h -5.333333 c -3.111112,0 -5.333334,-0.277778 -5.333334,-0.666667 z m 32.166666,-0.108187 c 2.417099,-0.8828 2.297034,-1.996288 -0.347761,-3.225146 C 52.696503,23.215898 52.488837,20.162454 55.348897,17.755873 56.496601,16.790143 57.952615,16 58.584482,16 c 1.167333,0 2.74885,-1.20071 2.74885,-2.086966 0,-0.267831 -0.675,-0.616977 -1.5,-0.775879 -0.825,-0.158902 0.45,-0.284817 2.833333,-0.279812 2.383334,0.005 3.533724,0.131627 2.556423,0.281382 -2.769793,0.424425 -2.885539,2.039202 -0.225826,3.1505 4.665303,1.949288 3.268143,6.778782 -2.457339,8.494179 -2.842002,0.851484 -3.308175,2.284096 -1.039924,3.195821 1.120593,0.450424 0.403936,0.600302 -2.833334,0.592552 -3.680804,-0.0088 -4.057263,-0.111203 -2.5,-0.679964 z m 3.343513,-7.225146 c 0.941599,-3.737977 0.931906,-4 -0.147963,-4 -2.716107,0 -4.917253,5.016392 -3.029482,6.904162 1.718037,1.718038 2.101366,1.367677 3.177445,-2.904162 z m 4.186791,2.363636 c 2.039563,-2.039564 2.211754,-5.342118 0.33101,-6.348662 -1.370516,-0.733477 -1.430322,-0.613374 -3.063316,6.151692 -0.56095,2.323866 0.526981,2.402294 2.732306,0.19697 z m 34.969695,2.948284 c 0,-3.833723 1.539956,-7.039781 3.989936,-8.306715 2.58475,-1.336628 6.4612,-1.127591 6.08489,0.328128 -1.72728,6.681705 -1.91646,8 -1.14803,8 0.4436,0 1.16654,-0.36 1.60654,-0.8 0.5574,-0.557402 0.8,-0.573891 0.8,-0.05437 0,0.840391 -4.04772,3.52104 -5.31668,3.52104 -0.4603,0 -0.65609,-0.442716 -0.44224,-1 0.48684,-1.268692 -0.28653,-1.277114 -1.947,-0.0212 -2.442056,1.847078 -3.627416,1.30238 -3.627416,-1.66688 z m 5.811176,-1.44219 c 0.38584,-0.478352 0.91824,-1.882206 1.1831,-3.119677 0.54093,-2.527221 -0.49924,-3.728564 -2.36417,-2.730488 -1.25153,0.669797 -3.01092,6.158258 -2.32821,7.262904 0.49315,0.797931 2.31906,0.06287 3.50928,-1.412739 z"
         id="path439" />
      <path
         style="fill:#2f2f2f;stroke-width:0.666667"
         d="m 35.111111,111.55555 c -0.244445,-0.24444 -0.444445,-7.89444 -0.444445,-16.999997 V 78 H 76.333332 118 v 17 17 H 76.777778 c -22.672224,0 -41.422223,-0.2 -41.666667,-0.44445 z m 82.067419,-16.727343 0.17853,-16.1718 -40.845195,0.1718 L 35.666666,79 35.487093,94.318907 c -0.09877,8.425403 -0.03229,15.702723 0.147728,16.171843 0.261891,0.68247 8.424832,0.81858 40.846237,0.68109 L 117,111 Z m -63.028287,7.986313 c -1.948831,-0.31473 -3.298025,-2.40755 -3.872544,-6.006967 -0.534353,-3.347773 -1.369422,-3.330226 -3.131811,0.0658 -0.70168,1.3521 -1.546556,2.291027 -1.877502,2.086487 -1.223246,-0.756007 -0.532756,-2.412007 2.009733,-4.819947 2.219824,-2.102346 2.520409,-2.70514 2.004353,-4.019553 -0.453776,-1.155787 -0.944936,-1.43908 -1.944787,-1.12174 -1.83568,0.58262 -1.678356,-0.078 0.332318,-1.395447 1.960936,-1.284833 3.663329,-0.3821 3.663329,1.942587 0,1.247587 0.214514,1.174567 2.198405,-0.748293 1.209122,-1.171927 2.58112,-2.13078 3.048882,-2.13078 1.323066,0 0.573514,2.184813 -0.819472,2.38862 -0.681369,0.09969 -1.910161,0.81192 -2.73065,1.582726 -1.310256,1.23092 -1.430129,1.784427 -0.985049,4.548394 1.003464,6.231563 2.818759,8.349383 5.154551,6.013593 0.609739,-0.60974 0.985062,-0.61494 1.578144,-0.0219 0.593083,0.59308 0.513808,0.86262 -0.333333,1.13334 -2.086696,0.66683 -2.77854,0.74787 -4.294567,0.50304 z m 25.849755,-4.430133 c 0,-0.5348 0.3,-1.157774 0.666667,-1.384387 1.829453,-1.130667 0.02327,-1.640793 -6.5,-1.83586 l -7.166666,-0.2143 7.999999,-0.162787 c 5.797114,-0.117966 8.35634,-0.432313 9.294087,-1.141586 1.281006,-0.968907 1.281006,-0.988694 0,-1.9576 -0.937747,-0.709274 -3.496973,-1.02362 -9.294087,-1.141587 l -7.999999,-0.162787 7.166666,-0.2143 c 6.5233,-0.195066 8.329453,-0.705193 6.5,-1.83586 -0.366667,-0.226613 -0.666667,-0.912673 -0.666667,-1.524573 0,-0.750453 0.641974,-0.333727 1.972467,1.280393 1.08486,1.31612 2.88486,2.770867 4,3.232774 2.20052,0.911486 2.699926,2.011406 0.913253,2.011406 -0.612853,0 -2.412853,1.355267 -4,3.011707 -1.596493,1.666193 -2.88572,2.577293 -2.88572,2.039347 z m 18.666666,-2.03756 c 0,-6.359514 4.868876,-11.09566 9.557136,-9.296607 0.8518,0.326867 0.87322,0.69636 0.14491,2.5 C 106.95712,93.045987 106.58215,96 107.55,96 c 0.4675,0 1.21,-0.36 1.65,-0.8 0.5574,-0.5574 0.8,-0.573893 0.8,-0.0544 0,0.80748 -4.02632,3.52104 -5.22444,3.52104 -0.40354,0 -0.56104,-0.45 -0.34998,-1 0.48807,-1.2719 -0.46539,-1.28138 -2.1315,-0.0212 -2.323356,1.757327 -3.627416,1.290467 -3.627416,-1.298613 z M 104.49517,94.5364 c 0.39537,-0.478353 0.92849,-1.991567 1.18471,-3.362693 0.36864,-1.972707 0.2402,-2.579554 -0.6155,-2.907914 -1.52399,-0.584813 -2.93136,0.802187 -3.81852,3.763247 -1.295856,4.325193 0.56195,5.758793 3.24931,2.50736 z m 135.2826,11.68582 c -0.72823,-0.72823 -0.50387,-2.88889 0.29998,-2.88889 0.4162,0 0.59068,0.58788 0.39574,1.33334 -0.49203,1.88154 1.80937,1.77334 3.15537,-0.14834 1.4272,-2.03762 1.3188,-2.39744 -0.79553,-2.64072 -1.7134,-0.19714 -1.8273,-0.4072 -1.74106,-3.210943 0.0507,-1.65 0.31073,-3.825 0.57772,-4.833334 C 241.98019,92.661807 241.8944,92 241.43233,92 c -0.3977,0 -1.17066,0.825 -1.71769,1.833333 -0.54703,1.008334 -1.00661,1.491567 -1.02129,1.073854 -0.0541,-1.539854 2.39684,-3.809807 3.61068,-3.344014 0.92134,0.353554 1.08994,0.923114 0.77295,2.611174 -1.33915,7.131383 -1.33859,7.158983 0.14511,7.158983 1.64306,0 2.45723,-1.33111 3.06656,-5.013637 0.4951,-2.992193 1.4132,-4.840053 2.07564,-4.177626 0.24023,0.240233 -0.10888,2.781546 -0.77579,5.64736 -0.86099,3.699813 -1.73543,5.742133 -3.01592,7.043903 -1.71431,1.74281 -3.82849,2.35522 -4.79481,1.38889 z M 18.663166,101.40431 c 2.099182,-0.58409 2.540085,-2.47749 0.712027,-3.05769 C 17.36768,97.70946 16,96.111007 16,94.401927 c 0,-1.682754 2.227647,-4.014527 4.490687,-4.700607 1.334375,-0.40454 1.281945,-0.243187 -0.5,1.53876 -2.309773,2.309773 -2.62518,5.040107 -0.701181,6.0698 C 19.998734,97.689447 20.718811,98 20.889678,98 c 0.429723,0 2.030641,-6.736787 1.937592,-8.15354 -0.04167,-0.634447 0.205149,-1.327153 0.548484,-1.539347 1.08872,-0.672866 0.676354,-1.537673 -0.875755,-1.836626 -0.824999,-0.1589 0.3,-0.288914 2.5,-0.288914 2.2,0 3.350366,0.126687 2.556368,0.281527 -2.454752,0.478707 -2.420088,2.10334 0.06705,3.142533 4.497491,1.879167 3.309794,6.433387 -2.183809,8.373814 -3.086264,1.090113 -3.794198,3.064443 -1.27294,3.550063 0.825,0.1589 -0.45,0.29986 -2.833333,0.31325 -2.730818,0.0153 -3.718276,-0.14681 -2.670167,-0.43845 z M 26.261905,96.5 c 2.39846,-2.154833 2.609667,-5.319973 0.432741,-6.485027 C 25.324131,89.2815 25.264324,89.4016 23.63133,96.166667 23.0871,98.421267 23.99532,98.536353 26.261905,96.5 Z m 150.571425,4.77993 C 177.7376,100.75325 178,99.708207 178,96.63354 c 0,-3.325807 -0.18854,-3.970147 -1.16667,-3.987147 -1.11111,-0.01933 -1.11111,-0.0526 0,-0.699793 C 177.51692,91.548447 178,90.47238 178,89.347827 c 0,-2.317874 1.5396,-4.014494 3.64296,-4.014494 1.49272,0 2.68549,1.449327 1.86666,2.268154 C 182.78379,88.327313 182,88.01502 182,87 c 0,-1.411647 -1.1568,-1.242207 -1.97655,0.289507 -1.14086,2.13172 -0.81167,4.037933 0.80988,4.68972 l 1.5,0.602926 -1.5,0.04227 c -1.38511,0.039 -1.5,0.35028 -1.5,4.06374 0,3.547337 0.17685,4.092567 1.5,4.624407 1.19773,0.48143 0.82828,0.60736 -1.83333,0.62492 -2.5761,0.017 -3.0683,-0.13239 -2.16667,-0.65754 z m 8.05708,-0.99558 c -1.42939,-1.429383 -1.65018,-2.12459 -1.3233,-4.166663 0.89708,-5.604287 7.85089,-6.658787 9.66142,-1.465094 1.97973,5.679077 -4.15038,9.819497 -8.33812,5.631757 z m 6.07179,-0.43269 C 192.89518,97.09194 191.5241,92 188.84802,92 c -1.90964,0 -3.51469,2.078213 -3.51469,4.550833 0,4.217977 3.53465,6.290737 5.62887,3.300827 z m 5.20446,1.42827 c 1.58096,-0.92082 1.72981,-8.613263 0.16667,-8.613263 -0.55,0 -1,-0.3 -1,-0.666667 0,-0.366667 0.75,-0.666667 1.66667,-0.666667 1.8322,0 1.91566,0.284514 1.69202,5.768107 -0.11112,2.724547 0.11302,3.58191 1.08394,4.14639 0.99815,0.5803 0.67041,0.71162 -1.77596,0.71162 -2.35646,0 -2.74974,-0.14576 -1.83334,-0.67952 z M 214.8,101.2 c -0.44,-0.44 -0.8,-1.96308 -0.8,-3.384613 0,-1.983307 0.46562,-3.05024 2.00138,-4.586 1.70426,-1.704254 2.32285,-1.93252 4.16667,-1.537507 1.1909,0.255127 2.25709,0.54564 2.36931,0.64558 0.11222,0.09994 -0.26278,1.9832 -0.83334,4.18502 -1.22876,4.74196 -1.23376,4.81085 -0.34921,4.81085 0.37849,0 0.95947,-0.675 1.29108,-1.499997 0.33161,-0.825 0.62194,-1.149533 0.64518,-0.721193 0.13658,2.51709 -2.10303,3.80924 -3.74916,2.16311 -0.5219,-0.5219 -0.85013,-0.5219 -1.17268,0 -0.59567,0.96382 -2.57183,0.92216 -3.56923,-0.0752 z m 4.30832,-1.87482 c 0.43184,-0.91218 0.99192,-2.780347 1.24462,-4.151473 0.37456,-2.032254 0.24201,-2.576407 -0.71724,-2.944507 -0.7853,-0.301347 -1.5663,0.0296 -2.34793,0.994847 -1.29645,1.601053 -2.317,6.316646 -1.61341,7.455063 0.72517,1.17336 2.58461,0.44022 3.43396,-1.35393 z m 7.55834,1.6367 c 0,-0.57097 0.3279,-2.34032 0.72867,-3.931907 0.40076,-1.59158 0.61178,-3.449426 0.46892,-4.128546 -0.21709,-1.032 -0.45022,-0.90634 -1.41969,0.76524 -1.03461,1.783893 -1.1132,1.819906 -0.72733,0.333333 0.6538,-2.51874 1.45171,-3.09006 2.98142,-2.134733 0.9805,0.612326 1.68654,0.64216 2.67521,0.11304 0.73874,-0.39536 1.9673,-0.520747 2.73013,-0.278634 1.20294,0.3818 1.33507,0.806887 0.9958,3.2036 -0.21514,1.519867 -0.58558,3.588394 -0.8232,4.596727 -0.50712,2.15197 0.97186,2.63522 1.53024,0.5 0.19177,-0.733333 0.65028,-1.333333 1.0189,-1.333333 0.36862,0 0.22204,0.675 -0.32574,1.500003 -0.54778,0.825 -1.55937,1.5 -2.24798,1.5 -1.36712,0 -1.48672,-1.45202 -0.56288,-6.833337 C 234.09274,92.482353 233.99479,92 233.11374,92 c -1.79646,0 -3.68998,2.689847 -4.52727,6.43124 -0.74489,3.32853 -1.91981,4.87727 -1.91981,2.53064 z m 33.33333,-1.28172 c 0,-6.359513 4.86888,-11.09566 9.55714,-9.296607 0.8518,0.326867 0.87322,0.69636 0.14491,2.5 -1.41159,3.495767 -1.78656,6.44978 -0.81871,6.44978 0.4675,0 1.21,-0.36 1.65,-0.8 0.5574,-0.5574 0.8,-0.573893 0.8,-0.0544 0,0.80748 -4.02632,3.521037 -5.22444,3.521037 -0.40354,0 -0.56104,-0.45 -0.34998,-1 0.48807,-1.271897 -0.46539,-1.281377 -2.1315,-0.0212 -2.32336,1.75733 -3.62742,1.29047 -3.62742,-1.29861 z m 5.82851,-1.810427 c 0.39537,-0.478353 0.92849,-1.991566 1.18471,-3.362693 0.36864,-1.972707 0.2402,-2.579553 -0.6155,-2.907913 -1.52399,-0.584814 -2.93136,0.802186 -3.81852,3.763246 -1.29586,4.325194 0.56195,5.758797 3.24931,2.50736 z m -64.49517,-4.895806 c 0,-0.935247 -0.17758,-0.989807 -1,-0.30726 -0.57639,0.478366 -1,0.54316 -1,0.152953 0,-0.920413 1.76811,-1.533427 3.02817,-1.049893 1.13786,0.43664 0.9979,1.666026 -0.2365,2.077493 -0.43542,0.14514 -0.79167,-0.24784 -0.79167,-0.873293 z M 66.948852,55.666667 c 5.47e-4,-7.7 0.09759,-10.758695 0.215653,-6.7971 0.118073,3.961596 0.117627,10.261596 -6.66e-4,14 -0.118934,3.738405 -0.215534,0.4971 -0.214987,-7.2029 z M 47.483576,32.814521 c -1.94883,-0.314724 -3.298025,-2.407552 -3.872544,-6.006967 -0.534353,-3.347775 -1.369422,-3.330225 -3.131811,0.06582 -0.70168,1.352105 -1.546556,2.291025 -1.877502,2.086489 -1.223245,-0.756007 -0.532756,-2.412008 2.009733,-4.819944 2.219824,-2.102346 2.520409,-2.705143 2.004353,-4.019556 -0.453776,-1.155784 -0.944935,-1.439082 -1.944787,-1.121742 -1.83568,0.582622 -1.678356,-0.078 0.332318,-1.395443 1.960936,-1.284857 3.66333,-0.382124 3.66333,1.942563 0,1.247584 0.214513,1.174567 2.198404,-0.748296 1.209123,-1.171928 2.58112,-2.130778 3.048883,-2.130778 1.323066,0 0.573513,2.184814 -0.819473,2.388621 -0.681368,0.09969 -1.91016,0.811918 -2.730649,1.582727 -1.310257,1.230922 -1.43013,1.784428 -0.98505,4.548394 1.003465,6.231557 2.818759,8.349383 5.154551,6.013591 0.60974,-0.609739 0.985063,-0.614937 1.578145,-0.02185 0.593082,0.593082 0.513807,0.862618 -0.333333,1.133333 -2.086696,0.666833 -2.77854,0.747872 -4.294568,0.503043 z m 32.971589,-6.574544 c -1.382267,-2.288437 -1.67294,-3.285905 -1.11708,-3.833334 0.552947,-0.544567 1.115887,-0.24273 2.13174,1.142995 l 1.380366,1.882971 1.938954,-3.549638 c 2.008406,-3.676776 5.895253,-8.119892 8.203913,-9.378016 0.729513,-0.397556 -0.139907,0.901192 -1.932033,2.886108 -3.155174,3.494578 -6.37452,9.194052 -6.387847,11.308937 -0.0067,1.004782 -1.22962,2.633333 -1.978033,2.633333 -0.20434,0 -1.212327,-1.39201 -2.23998,-3.093356 z m -56.455166,1.788066 c 0,-0.415672 1.874416,-0.69471 4.666667,-0.69471 h 4.666667 V 24.03046 20.727587 l -4.5,-0.23322 -4.5,-0.23322 4.5,-0.130574 4.5,-0.130573 v -3.333333 -3.333334 h -4.293989 c -2.361694,0 -4.487485,-0.313083 -4.723981,-0.695741 -0.28836,-0.466577 1.290692,-0.631267 4.793989,-0.5 l 5.223981,0.195741 v 8 8 l -5.166667,0.19471 c -3.263606,0.122991 -5.166667,-0.06118 -5.166667,-0.5 z m 31.996499,0.04294 c 2.099182,-0.584098 2.540085,-2.477494 0.712027,-3.057697 -2.007513,-0.63716 -3.375193,-2.235611 -3.375193,-3.944696 0,-1.682747 2.227647,-4.014525 4.490687,-4.700603 1.334375,-0.404537 1.281946,-0.243184 -0.5,1.538762 -2.309773,2.309772 -2.62518,5.040102 -0.701181,6.069795 0.709228,0.379567 1.429305,0.690123 1.600173,0.690123 0.429722,0 2.03064,-6.736788 1.937592,-8.15354 -0.04167,-0.634447 0.205149,-1.327152 0.548484,-1.539345 1.08872,-0.672866 0.676354,-1.537677 -0.875755,-1.836627 -0.825,-0.158902 0.3,-0.288912 2.5,-0.288912 2.2,0 3.350365,0.126686 2.556367,0.281526 -2.454751,0.478706 -2.420088,2.103336 0.06705,3.142529 4.49749,1.879171 3.309797,6.43339 -2.183809,8.373813 -3.086264,1.090114 -3.794198,3.064452 -1.27294,3.550067 0.825,0.158902 -0.45,0.299863 -2.833334,0.313247 -2.730818,0.01533 -3.718276,-0.146805 -2.670168,-0.438442 z m 7.598739,-4.904316 c 2.39846,-2.154834 2.609668,-5.31997 0.432742,-6.485026 -1.370516,-0.733477 -1.430322,-0.613374 -3.063316,6.151692 -0.54423,2.254602 0.36399,2.369688 2.630574,0.333334 z m 35.071427,3.180157 c 0,-6.359511 4.868876,-11.095659 9.557136,-9.296604 0.8518,0.326865 0.87322,0.696358 0.14491,2.5 C 106.95712,23.045988 106.58215,26 107.55,26 c 0.4675,0 1.21,-0.36 1.65,-0.8 0.5574,-0.557402 0.8,-0.573891 0.8,-0.05437 0,0.80748 -4.02632,3.52104 -5.22444,3.52104 -0.40354,0 -0.56104,-0.45 -0.34998,-1 0.48807,-1.271898 -0.46539,-1.281382 -2.1315,-0.0212 -2.323356,1.7573 -3.627416,1.290439 -3.627416,-1.298643 z m 5.828506,-1.810427 c 0.39537,-0.478352 0.92849,-1.991562 1.18471,-3.36269 0.36864,-1.972704 0.2402,-2.579556 -0.6155,-2.907916 -1.52399,-0.584811 -2.93136,0.802186 -3.81852,3.763247 -1.295856,4.325198 0.56195,5.758792 3.24931,2.507359 z"
         id="path437" />
      <path
         style="fill:#040404;stroke-width:0.666667"
         d="M 117.33333,94.99002 V 78.646707 L 76.063512,78.823353 C 53.36511,78.920507 34.932816,78.775 35.102857,78.5 35.272897,78.225 53.994316,78 76.706012,78 H 118 v 16.666667 c 0,9.166663 -0.15,16.666663 -0.33334,16.666663 -0.18333,0 -0.33333,-7.35449 -0.33333,-16.34331 z m 122.44444,11.2322 c -0.71294,-0.71294 -0.51172,-2.88889 0.26715,-2.88889 0.40821,0 0.53117,0.56846 0.28841,1.33334 -0.55758,1.75678 1.67214,1.83559 3.23,0.11417 1.61454,-1.78404 1.36206,-2.56243 -0.9833,-3.0315 -2.02868,-0.40573 -2.07554,-0.49599 -1.68765,-3.25 0.21944,-1.557967 0.59339,-3.657673 0.83101,-4.666007 C 241.99173,92.694633 241.88145,92 241.43233,92 c -0.3977,0 -1.17066,0.825 -1.71769,1.833333 -0.54703,1.008334 -1.00661,1.491567 -1.02129,1.073854 -0.0147,-0.417707 0.52658,-1.44274 1.2028,-2.277834 1.71692,-2.1203 3.76008,-1.336233 3.159,1.212274 -0.23676,1.003773 -0.61003,3.10004 -0.82951,4.658373 -0.36037,2.55865 -0.26366,2.83333 0.99753,2.83333 1.6544,0 2.31894,-1.13284 3.42188,-5.83333 0.4517,-1.925 1.09134,-3.5 1.42144,-3.5 0.33009,0 0.59503,0.225 0.58874,0.5 -0.0287,1.2559 -2.5257,10.01229 -3.2309,11.32995 -1.20298,2.2478 -4.42567,3.61316 -5.64656,2.39227 z M 52.089049,101.42238 c -0.684357,-0.68435 -1.455433,-2.652327 -1.713505,-4.373273 -0.550323,-3.669814 -1.429264,-3.698747 -3.451571,-0.113614 -1.195543,2.119454 -1.481316,2.313874 -1.883655,1.281507 -0.35534,-0.911773 0.232436,-1.84738 2.343578,-3.73044 2.609047,-2.327173 2.759593,-2.641353 2.031438,-4.239487 -0.604176,-1.32602 -1.129694,-1.63992 -2.267553,-1.354433 -1.473336,0.369653 -1.472849,0.36478 0.09274,-0.927187 2.125704,-1.754186 2.74595,-1.641466 3.613409,0.6567 l 0.738113,1.955487 2.243891,-1.970167 c 1.23414,-1.083586 2.52593,-1.795853 2.870644,-1.582806 1.068582,0.66042 0.69399,1.47904 -0.873247,1.908353 -0.825,0.225993 -2.170468,0.977933 -2.989929,1.67098 -1.402113,1.185813 -1.447457,1.489827 -0.769339,5.158107 0.396324,2.14392 1.002347,4.424503 1.346718,5.067963 0.676099,1.2633 3.56913,1.59827 4.252604,0.49239 0.230309,-0.37265 0.730043,-0.48515 1.11052,-0.25 1.07351,0.66347 -0.810759,1.57235 -3.283907,1.584 -1.237518,0.006 -2.700263,-0.52339 -3.41095,-1.23408 z m -33.587587,0.10694 c 1.694979,-0.32637 3.475083,-2.855547 2.021994,-2.87286 -0.684988,-0.0081 -0.68165,-0.12128 0.01665,-0.564133 0.48039,-0.304654 1.450248,-2.77506 2.155242,-5.489787 1.566521,-6.032227 1.560657,-5.771207 0.13799,-6.142987 -0.641666,-0.167686 0.333333,-0.320666 2.166667,-0.33996 2.385174,-0.02513 2.946225,0.121787 1.972424,0.516394 -1.847499,0.748653 -4.312022,10.528006 -2.881582,11.434266 0.711798,0.45096 0.655898,0.578214 -0.257509,0.586207 -1.774748,0.01553 -1.483824,2.52305 0.333333,2.87305 0.825,0.1589 -0.45,0.28892 -2.833333,0.28892 -2.383333,0 -3.657675,-0.1301 -2.831871,-0.28911 z m 158.331868,0.0111 C 177.84335,101.27651 178,100.36691 178,94.76612 c 0,-6.382993 0.8898,-9.432787 2.75208,-9.432787 0.37207,0 0.22669,0.4498 -0.32306,0.999547 -0.7495,0.749507 -1.00934,2.673587 -1.03871,7.691447 -0.037,6.322513 0.0431,6.724993 1.45193,7.291523 1.16868,0.46998 0.77036,0.59205 -1.84224,0.56456 -1.83334,-0.0193 -2.80834,-0.17228 -2.16667,-0.33996 z m 8.13637,-1.17682 c -0.9,-0.899997 -1.63637,-2.235877 -1.63637,-2.968623 0,-1.85232 1.33011,-4.584447 2.43906,-5.009994 0.72333,-0.277566 0.77634,-0.077 0.24303,0.919494 -0.87903,1.642486 -0.87492,5.089506 0.008,6.739323 0.9362,1.74929 3.65294,1.64358 4.93875,-0.19217 2.05187,-2.929453 0.66753,-7.443907 -2.46807,-8.048607 -1.4249,-0.274793 -1.42879,-0.292353 -0.084,-0.378933 2.5039,-0.161213 4.92453,2.363493 4.91304,5.124267 -0.0118,2.826273 -0.42759,3.622753 -2.44597,4.685143 -2.25988,1.18951 -4.12231,0.91526 -5.90746,-0.8699 z m 11.19696,0.9163 c 0.90133,-0.52497 1.16667,-1.569077 1.16667,-4.590837 0,-2.518593 -0.29673,-4.022153 -0.83333,-4.222586 -0.5594,-0.208954 -0.44037,-0.473434 0.36208,-0.80458 1.76591,-0.728734 2.01078,-0.12808 1.88037,4.612333 -0.0964,3.503727 0.10215,4.43067 1.06959,4.99376 0.94672,0.55103 0.57875,0.69143 -1.81204,0.69143 -2.35646,0 -2.74974,-0.14576 -1.83334,-0.67952 z M 214.8,101.2 c -1.81922,-1.81922 -0.21164,-7.73094 2.4964,-9.18024 1.69927,-0.90942 2.71826,-0.848167 1.14113,0.06859 -1.5324,0.890767 -3.1042,4.548387 -3.1042,7.223567 0,1.569113 0.2949,2.021413 1.31797,2.021413 1.8535,0 3.503,-2.846526 3.59986,-6.21224 0.0635,-2.204793 0.34788,-2.875873 1.24884,-2.94662 0.64166,-0.0504 1.1631,-0.03527 1.15875,0.0336 -0.005,0.06888 -0.45079,1.775234 -0.99209,3.7919 -0.54129,2.016667 -0.98773,4.04167 -0.99208,4.5 -0.0131,1.38055 1.32348,0.93786 2.01284,-0.666666 0.49553,-1.153387 0.60611,-1.208407 0.47852,-0.23812 -0.24326,1.849866 -2.36162,3.019826 -3.15716,1.743696 -0.49372,-0.79197 -0.78845,-0.82591 -1.44769,-0.16667 -1.04903,1.04904 -2.72743,1.06143 -3.76109,0.0277 z m 11.89041,0.006 c 0.0131,-0.47997 0.42978,-2.570953 0.92606,-4.64662 0.65074,-2.721773 0.69988,-3.976367 0.17625,-4.5 -0.52363,-0.52362 -0.51399,-0.726047 0.0346,-0.726047 0.41836,0 0.95871,0.320454 1.20077,0.712114 0.24207,0.391666 0.86077,0.5507 1.3749,0.353406 0.78866,-0.30264 0.78491,-0.12738 -0.024,1.12122 -0.52732,0.81396 -1.31522,2.910027 -1.75088,4.657927 -0.74628,2.99413 -1.98965,4.93713 -1.9377,3.02801 z m 6.19813,-0.25606 c -0.22162,-0.57753 -0.0622,-2.187333 0.35425,-3.577347 1.081,-3.60802 0.96476,-5.372606 -0.35391,-5.372606 -0.61111,0 -0.93372,-0.177394 -0.71691,-0.394207 0.21682,-0.216807 1.01682,-0.196593 1.77778,0.04493 1.67852,0.53274 1.82194,2.939187 0.41315,6.932127 -0.82821,2.347393 -0.83307,2.750493 -0.0331,2.750493 0.51551,0 1.24308,-0.525 1.61682,-1.16667 0.37374,-0.64167 0.68864,-0.85167 0.69979,-0.46667 0.0579,2.00117 -3.07029,3.0417 -3.75785,1.24996 z m 27.11145,-1.304687 c 0,-5.107153 3.13804,-9.245253 7.01094,-9.245253 1.25288,0 2.4269,0.148953 2.60896,0.331 0.18204,0.182053 -0.1044,1.967053 -0.63654,3.966667 -1.32114,4.964426 -1.28524,5.510803 0.30615,4.65912 2.41988,-1.29508 2.35868,-0.693754 -0.0994,0.976543 -2.97498,2.02155 -3.19013,2.04036 -3.19013,0.27896 v -1.387703 l -2.24535,1.387703 c -3.10975,1.92193 -3.75465,1.75583 -3.75465,-0.967037 z m 5.07658,-0.826746 c 1.86365,-1.522527 3.20486,-6.752354 1.86367,-7.26702 -1.59791,-0.613174 -2.95862,0.32966 -3.97035,2.75106 -1.19007,2.84824 -1.25866,5.702593 -0.13656,5.682626 0.45833,-0.0081 1.46779,-0.533153 2.24324,-1.166666 z M 80.603485,97.543827 c 0.401413,-0.800894 0.729847,-1.615747 0.729847,-1.81078 0,-0.195034 -3.225,-0.45104 -7.166667,-0.568907 l -7.166666,-0.2143 8.039246,-0.141587 c 5.954893,-0.10488 8.374766,-0.40086 9.333333,-1.141586 1.281007,-0.989894 1.281007,-1.010107 0,-2 -0.958567,-0.740727 -3.37844,-1.036707 -9.333333,-1.141587 l -8.039246,-0.141587 7.229093,-0.214933 c 6.030886,-0.179313 7.1635,-0.37684 6.833333,-1.191747 -0.217667,-0.537246 -0.604987,-1.501813 -0.860713,-2.14348 -0.255727,-0.641666 0.5637,0.002 1.82094,1.43038 1.257239,1.42838 3.169146,2.968434 4.248686,3.422347 l 1.962793,0.825293 -2.082633,1.076974 c -1.145453,0.592333 -3.026567,2.05228 -4.180253,3.24432 -1.48072,1.529953 -1.882967,1.739106 -1.36776,0.71118 z M 98.666664,96.31192 c 0,-5.107153 3.138036,-9.245253 7.010936,-9.245253 1.25288,0 2.4269,0.148953 2.60896,0.331 0.18204,0.182053 -0.1044,1.967053 -0.63654,3.966666 -1.32114,4.964427 -1.28524,5.510807 0.30615,4.65912 2.41988,-1.29508 2.35868,-0.693753 -0.0994,0.976547 -2.97498,2.021547 -3.19013,2.04036 -3.19013,0.27896 v -1.387707 l -2.24535,1.387707 c -3.109746,1.921927 -3.754646,1.755827 -3.754646,-0.96704 z m 5.076576,-0.826747 c 1.86365,-1.522526 3.20486,-6.752353 1.86367,-7.26702 -1.59791,-0.613173 -2.95862,0.32966 -3.97035,2.75106 -1.19007,2.84824 -1.25866,5.702594 -0.13656,5.682627 0.45833,-0.0081 1.46779,-0.533153 2.24324,-1.166667 z m -86.71893,1.208354 c -1.639838,-1.812 -0.854675,-4.410014 1.826914,-6.045047 3.015566,-1.838667 3.366906,-1.63584 1.097494,0.633573 C 17.917757,93.313013 17.429322,95.82932 18.8,97.2 19.290389,97.690387 19.330378,98 18.903325,98 18.520154,98 17.674597,97.412087 17.02431,96.693527 Z M 26.473833,96.5 c 2.100043,-2.294427 2.50778,-4.380333 1.149596,-5.881107 -1.142524,-1.26248 -0.665652,-1.73848 0.776768,-0.775353 2.554143,1.705447 2.238988,5.147487 -0.644282,7.03668 C 25.380941,98.43636 24.846571,98.277887 26.473833,96.5 Z M 201.37164,92.73824 c -0.80252,-1.499513 -0.3274,-1.778 1.28945,-0.755793 0.74892,0.473486 0.80531,0.817813 0.22843,1.3947 -0.57689,0.576886 -0.95163,0.419153 -1.51788,-0.638907 z M 182,86.62732 c 0,-0.754973 0.3,-1.187267 0.66666,-0.960653 0.36667,0.226613 0.66667,0.84432 0.66667,1.37268 0,0.52836 -0.3,0.960653 -0.66667,0.960653 C 182.3,88 182,87.382293 182,86.62732 Z M 45.422382,31.422383 c -0.684356,-0.684356 -1.455433,-2.65233 -1.713505,-4.373276 -0.550323,-3.669816 -1.429263,-3.698748 -3.451571,-0.113613 -1.195543,2.119451 -1.481316,2.313871 -1.883655,1.281505 -0.35534,-0.911772 0.232436,-1.847377 2.343579,-3.73044 2.609046,-2.327175 2.759592,-2.641356 2.031437,-4.239483 -0.604176,-1.326021 -1.129693,-1.63992 -2.267553,-1.354437 -1.473336,0.369652 -1.472848,0.364782 0.09274,-0.927184 2.125704,-1.754188 2.74595,-1.641465 3.613409,0.656697 l 0.738114,1.955485 2.24389,-1.970162 c 1.23414,-1.083589 2.52593,-1.795852 2.870644,-1.582807 1.068583,0.66042 0.69399,1.479037 -0.873246,1.908351 -0.825,0.225992 -2.170468,0.977932 -2.989929,1.670978 -1.402113,1.185814 -1.447458,1.489832 -0.769339,5.158112 0.396324,2.143915 1.002347,4.424497 1.346718,5.06796 0.676099,1.263303 3.56913,1.598274 4.252604,0.49239 0.230309,-0.372648 0.730043,-0.485148 1.11052,-0.25 1.073509,0.663466 -0.81076,1.572346 -3.283908,1.583999 -1.237517,0.0058 -2.700262,-0.523387 -3.41095,-1.234075 z M 80.450245,25.9764 c -2.088733,-3.715761 -1.2527,-5.337999 1.179193,-2.288112 l 1.481733,1.858268 1.427027,-2.939945 c 1.775387,-3.657618 4.85128,-7.425116 7.65538,-9.376674 1.806107,-1.256987 1.655627,-0.963986 -0.965053,1.879077 -3.192734,3.463653 -5.123554,6.728861 -6.503887,10.998701 -1.152893,3.56628 -2.214207,3.533676 -4.274393,-0.131315 z m -51.950246,2.210763 4.833334,-0.245576 v -3.607 -3.607 l -4.5,-0.23322 -4.5,-0.23322 4.5,-0.130574 4.5,-0.130573 v -3.63746 -3.637461 l -4.833334,-0.245576 -4.833333,-0.245575 5.333333,0.0497 5.333334,0.0497 v 8 8 l -5.333334,0.0497 -5.333333,0.0497 4.833333,-0.245575 z m 27.334795,0.0088 c 1.694979,-0.326366 3.475083,-2.855548 2.021994,-2.872862 -0.684988,-0.0082 -0.68165,-0.121279 0.01665,-0.564128 0.480389,-0.304656 1.450248,-2.775063 2.155242,-5.489792 1.56652,-6.032224 1.560657,-5.771206 0.13799,-6.142987 -0.64167,-0.167665 0.33333,-0.320647 2.166663,-0.339939 2.385174,-0.0251 2.946226,0.121789 1.972424,0.516397 -1.847498,0.748651 -4.312022,10.528005 -2.881582,11.434263 0.711799,0.45096 0.655899,0.578214 -0.257508,0.586206 -1.774749,0.01553 -1.483825,2.523054 0.333333,2.873054 0.825,0.158902 -0.45,0.288912 -2.833333,0.288912 -2.383334,0 -3.657676,-0.130096 -2.831872,-0.289104 z m 42.83187,-1.884062 c 0,-5.107157 3.138036,-9.245254 7.010936,-9.245254 1.25288,0 2.4269,0.14895 2.60896,0.331002 0.18204,0.18205 -0.1044,1.96705 -0.63654,3.966666 -1.32114,4.964422 -1.28524,5.510807 0.30615,4.659121 2.41988,-1.29508 2.35868,-0.693753 -0.0994,0.976544 -2.97498,2.021549 -3.19013,2.040363 -3.19013,0.278961 v -1.387707 l -2.24535,1.387707 c -3.109746,1.921928 -3.754646,1.755829 -3.754646,-0.96704 z m 5.076576,-0.826745 c 1.86365,-1.522529 3.20486,-6.752356 1.86367,-7.267022 -1.59791,-0.613177 -2.95862,0.32966 -3.97035,2.751061 -1.19007,2.848237 -1.25866,5.702588 -0.13656,5.682628 0.45833,-0.0082 1.46779,-0.533154 2.24324,-1.166667 z M 54.357643,23.360197 c -1.639839,-1.812002 -0.854676,-4.410019 1.826914,-6.045051 3.015565,-1.838665 3.366905,-1.635841 1.097493,0.633572 -2.030961,2.030961 -2.519395,4.547271 -1.148718,5.917949 0.490389,0.490389 0.530378,0.8 0.103325,0.8 -0.383171,0 -1.228728,-0.587912 -1.879014,-1.30647 z m 9.449523,-0.19353 c 2.100043,-2.294428 2.50778,-4.380333 1.149596,-5.88111 -1.142525,-1.262476 -0.665652,-1.738478 0.776767,-0.775348 2.554143,1.705446 2.238989,5.147484 -0.644282,7.036675 -2.374973,1.556143 -2.909344,1.397669 -1.282081,-0.380217 z"
         id="path435" />
    </g>
  </g>
</svg>
