<?xml version="1.0" encoding="UTF-8" standalone="no"?>
<svg
   xmlns:dc="http://purl.org/dc/elements/1.1/"
   xmlns:cc="http://creativecommons.org/ns#"
   xmlns:rdf="http://www.w3.org/1999/02/22-rdf-syntax-ns#"
   xmlns:svg="http://www.w3.org/2000/svg"
   xmlns="http://www.w3.org/2000/svg"
   xmlns:sodipodi="http://sodipodi.sourceforge.net/DTD/sodipodi-0.dtd"
   xmlns:inkscape="http://www.inkscape.org/namespaces/inkscape"
   version="1.1"
   id="svg256"
   width="302.71967"
   height="82"
   viewBox="0 0 302.71967 82"
   sodipodi:docname="13-2-3.svg"
   inkscape:version="1.0.1 (c497b03c, 2020-09-10)">
  <metadata
     id="metadata262">
    <rdf:RDF>
      <cc:Work
         rdf:about="">
        <dc:format>image/svg+xml</dc:format>
        <dc:type
           rdf:resource="http://purl.org/dc/dcmitype/StillImage" />
        <dc:title></dc:title>
      </cc:Work>
    </rdf:RDF>
  </metadata>
  <defs
     id="defs260" />
  <sodipodi:namedview
     pagecolor="#ffffff"
     bordercolor="#666666"
     borderopacity="1"
     objecttolerance="10"
     gridtolerance="10"
     guidetolerance="10"
     inkscape:pageopacity="0"
     inkscape:pageshadow="2"
     inkscape:window-width="740"
     inkscape:window-height="480"
     id="namedview258"
     showgrid="false"
     inkscape:pagecheckerboard="true"
     fit-margin-top="0"
     fit-margin-left="0"
     fit-margin-right="0"
     fit-margin-bottom="0"
     inkscape:zoom="1.5173397"
     inkscape:cx="158.66314"
     inkscape:cy="55.740743"
     inkscape:window-x="0"
     inkscape:window-y="25"
     inkscape:window-maximized="0"
     inkscape:current-layer="g264" />
  <g
     inkscape:groupmode="layer"
     inkscape:label="Image"
     id="g264"
     transform="translate(-4.4679649,-8.628574)">
    <g
       id="g268"
       transform="translate(-1.3180964,3.2952407)">
      <path
         style="fill:#d0d0d0;stroke-width:0.666667"
         d="m 49.777777,86.888887 c -0.244445,-0.24444 -0.444445,-18.69444 -0.444445,-40.999998 0,-35.604938 0.12207,-40.5555557 1,-40.5555557 0.878049,0 1,4.9999997 1,40.9999997 0,22.55 -0.25,41 -0.555555,41 -0.305556,0 -0.755556,-0.2 -1,-0.444446 z M 84.969698,75.0303 c -1.111573,-1.111567 -1.636366,-2.381773 -1.636366,-3.960653 0,-3.39528 -1.080174,-3.512767 -2.721254,-0.29598 -1.31782,2.583146 -1.51278,2.719926 -2.31432,1.623753 -0.663373,-0.907213 -0.69876,-1.58442 -0.146173,-2.797213 0.401007,-0.880114 0.905947,-1.610187 1.122093,-1.622387 0.21614,-0.0122 1.090867,-0.603813 1.943827,-1.314696 2.09732,-1.747969 1.443567,-4.306921 -0.947027,-3.706919 -1.931086,0.484672 -2.069793,-0.327847 -0.32546,-1.906452 1.734967,-1.57012 4.2378,-1.125504 4.697027,0.834405 l 0.363373,1.550825 1.6135,-1.717492 c 1.819334,-1.936594 5.130327,-2.429603 4.452407,-0.662966 -0.222567,0.579989 -0.40466,1.179989 -0.40466,1.333333 0,0.153345 -0.547707,0.278809 -1.217127,0.278809 -0.669413,0 -1.87174,0.696807 -2.671826,1.54846 -1.319847,1.404914 -1.393707,1.870092 -0.796727,5.01794 0.717273,3.782166 1.728647,6.100266 2.66152,6.100266 0.327573,0 1.064713,-0.469126 1.638093,-1.042506 1.123193,-1.123194 2.386067,-0.764774 2.386067,0.677193 0,2.25492 -5.460147,2.299107 -7.696967,0.06227 z M 112,60.333333 V 44 h 44 44 v 16.333333 16.333334 h -44 -44 z m 86,0 v -15 h -42.33334 -42.33333 v 15 15 H 155.66666 198 Z M 122,68 c -3.29606,-3.296051 0.0924,-9.94968 5.08504,-9.985176 2.38254,-0.01694 3.80418,1.296151 3.17591,2.933405 -0.54853,1.429427 -2.62423,1.036329 -2.50169,-0.473772 0.13828,-1.704173 -1.47637,-1.37774 -3.04421,0.615449 -1.63032,2.072619 -1.86432,6.100081 -0.38734,6.666854 0.54691,0.209867 2.08471,-0.26174 3.41735,-1.048013 2.44596,-1.443154 3.45866,-1.450398 2.57364,-0.0184 -0.56103,0.907753 -4.4766,2.642986 -5.96396,2.642986 -0.56178,0 -1.62141,-0.6 -2.35474,-1.333333 z m 38.67687,0.833333 c 0.005,-0.275 0.29593,-0.95 0.64515,-1.5 0.54484,-0.858088 -0.33173,-1.047304 -6.17687,-1.333333 -4.04173,-0.19778 -6.74624,-0.604439 -6.65055,-1 0.0912,-0.377177 3.75936,-0.811411 8.44731,-1 4.55732,-0.183333 8.50975,-0.558333 8.78317,-0.833333 1.09826,-1.104579 -0.86752,-1.5149 -8.78317,-1.833334 -4.68795,-0.188588 -8.35607,-0.622823 -8.44731,-1 -0.0957,-0.39556 2.60882,-0.80222 6.65055,-1 5.84514,-0.286029 6.72171,-0.475245 6.17687,-1.333333 -1.79061,-2.820113 0.1581,-2.638506 2.69528,0.251182 1.0871,1.238151 2.87794,2.624547 3.97963,3.080881 2.43452,1.008412 2.55663,1.83693 0.35228,2.390188 -0.90793,0.227876 -2.70715,1.583592 -3.99826,3.012702 -2.18189,2.415094 -3.69823,3.28112 -3.67408,2.09838 z m 17.65646,-0.59524 c -0.96545,-0.965446 -0.97867,-1.2118 -0.11159,-2.078881 1.17258,-1.172588 2.70178,-0.45681 2.14178,1.002515 -0.31458,0.81978 -0.20424,0.869333 0.54715,0.24574 0.83738,-0.69496 2.42266,-5.517134 2.42266,-7.369347 0,-1.349985 -1.89819,-0.692184 -3.25661,1.128547 -1.25436,1.681266 -1.36957,1.717485 -1.38894,0.436658 -0.0384,-2.539238 1.92976,-3.544508 6.6587,-3.40105 3.82182,0.11594 4.32018,0.283814 4.32018,1.455262 0,0.731109 -0.52253,1.424834 -1.16666,1.548882 -0.76161,0.146672 -1.17403,-0.197354 -1.18787,-0.99087 -0.0399,-2.290764 -1.88064,1.008008 -2.3651,4.238598 -0.56033,3.73652 0.0799,4.36694 2.07771,2.045853 1.75248,-2.036087 2.30859,-2.264819 2.30859,-0.949543 0,1.16695 -2.81883,3.782876 -4.0763,3.782876 -0.5447,0 -1.35037,-0.36 -1.79037,-0.8 -0.62222,-0.62222 -0.97778,-0.62222 -1.6,0 -1.09768,1.097687 -2.23548,1.00262 -3.53333,-0.29524 z M 134,58.395747 c 0,-0.609368 -0.46676,-0.815528 -1.33334,-0.588913 -1.64252,0.429531 -1.76172,-0.824403 -0.16666,-1.753435 1.11111,-0.647162 1.11111,-0.680486 0,-0.699793 -0.64167,-0.01115 -1.16667,-0.490489 -1.16667,-1.065198 0,-0.741541 0.38712,-0.922058 1.33333,-0.621741 0.96576,0.306519 1.33334,0.1198 1.33334,-0.677298 0,-0.605264 0.375,-0.969357 0.83333,-0.809096 0.45833,0.160262 0.7423,0.797818 0.63103,1.416791 -0.17388,0.967316 -0.0143,1.007971 1.13635,0.289408 1.75339,-1.09501 2.77567,-0.05421 1.12924,1.14969 -1.14247,0.835396 -1.15886,0.969009 -0.16562,1.350152 1.75137,0.672065 1.29057,1.805475 -0.54657,1.344381 -1.29301,-0.324524 -1.5654,-0.196231 -1.26201,0.594394 0.2464,0.642114 -0.002,1.008244 -0.68443,1.008244 -0.58923,0 -1.07132,-0.421914 -1.07132,-0.937586 z M 68.424999,72.148327 C 68.248805,71.863233 66.912545,68.488233 65.455525,64.648324 63.998508,60.808413 62.592865,57.141667 62.331875,56.5 c -0.326679,-0.803167 -0.163288,-1.166667 0.524411,-1.166667 0.549417,0 1.479085,1.2 2.065928,2.666667 1.041547,2.603081 1.144874,2.666667 4.333331,2.666667 3.18846,0 3.291787,-0.06359 4.333333,-2.666667 1.18268,-2.955807 2.8199,-3.719474 2.136494,-0.996545 -0.877814,3.497466 -5.850353,15.663212 -6.402073,15.663212 -0.317867,0 -0.7221,-0.233254 -0.8983,-0.51834 z m 1.942353,-5.793581 c 1.380173,-3.303219 1.240813,-3.688079 -1.335433,-3.688079 h -2.301414 l 1.11188,3 c 0.611534,1.65 1.21248,3 1.335434,3 0.122953,0 0.65824,-1.040367 1.189533,-2.311921 z m 193.390978,5.793581 c -0.1762,-0.285094 -1.51246,-3.660094 -2.96948,-7.500003 -1.45702,-3.839911 -2.86266,-7.506657 -3.12365,-8.148324 -0.32667,-0.803167 -0.16329,-1.166667 0.52441,-1.166667 0.54942,0 1.47909,1.2 2.06593,2.666667 1.04155,2.603081 1.14487,2.666667 4.33333,2.666667 3.16841,0 3.2972,-0.07712 4.29543,-2.571927 l 1.02908,-2.571927 4.70997,-0.118862 c 2.88166,-0.07272 4.70998,0.149286 4.70998,0.571926 0,0.379934 -0.45,0.69079 -1,0.69079 -0.8254,0 -1,1.222222 -1,7 0,5.77778 0.1746,7 1,7 0.55,0 1,0.3 1,0.666666 0,0.371094 -1.7909,0.666667 -4.03935,0.666667 -2.52313,0 -3.88469,-0.25024 -3.62732,-0.666667 0.22661,-0.366666 0.84432,-0.666666 1.37268,-0.666666 0.77543,0 0.96065,-1.34964 0.96065,-7 0,-6.584079 -0.0802,-7 -1.34983,-7 -0.86531,0 -1.59087,0.658074 -2.02135,1.833333 -4.70414,12.843093 -5.89998,15.21864 -6.87048,13.648327 z m 1.94235,-5.793581 c 1.38017,-3.303219 1.24081,-3.688079 -1.33543,-3.688079 h -2.30142 l 1.11188,3 c 0.61154,1.65 1.21248,3 1.33544,3 0.12295,0 0.65824,-1.040367 1.18953,-2.311921 z m 24.05988,5.797181 c -0.19889,-0.321814 0.0898,-2.313967 0.64163,-4.427007 1.09218,-4.182406 0.87736,-6.533323 -0.32148,-3.518137 -1.00582,2.529724 -2.21459,1.709552 -1.30902,-0.888186 0.72501,-2.079757 2.9031,-2.710464 4.35306,-1.260509 0.5219,0.521895 0.85013,0.521895 1.17268,0 0.24636,-0.398615 1.42022,-0.724755 2.60858,-0.724755 1.18836,0 2.48679,0.32614 2.8854,0.724755 0.5219,0.521895 0.85014,0.521895 1.17268,0 0.6738,-1.090222 4.08486,-0.870692 5.07874,0.326859 0.85164,1.026168 0.61728,2.798354 -1.05115,7.948386 -0.31577,0.97472 0.0228,0.80242 1.25868,-0.640613 1.99375,-2.32786 3.0991,-1.834107 1.46776,0.65564 -1.48195,2.261747 -2.90757,2.747913 -4.21729,1.438193 -0.89822,-0.89822 -0.94175,-1.46524 -0.28164,-3.668506 1.03073,-3.44025 0.98798,-5.45138 -0.11587,-5.45138 -1.50653,0 -2.96243,2.165064 -3.81057,5.666666 -0.93759,3.870947 -1.64976,4.909667 -2.66802,3.8914 -0.50036,-0.50036 -0.4024,-1.89028 0.33333,-4.729566 1.29108,-4.982445 1.29707,-4.8285 -0.18807,-4.8285 -1.85344,0 -3.2321,1.932255 -4.24848,5.954473 -0.86654,3.429227 -1.95972,4.827213 -2.76095,3.530787 z M 94.366665,71.39804 c 0.348333,-0.331073 1.208473,-0.706073 1.91142,-0.833333 2.045866,-0.370367 1.948246,-1.686107 -0.156334,-2.10702 -1.348346,-0.269674 -2.189866,-1.012654 -2.791173,-2.464336 -0.761873,-1.83932 -0.708447,-2.284174 0.46468,-3.869143 0.72904,-0.984981 2.573347,-2.231625 4.098467,-2.770319 2.875795,-1.015775 3.771235,-2.687222 1.439606,-2.687222 -0.733333,0 -1.333333,-0.3 -1.333333,-0.666667 0,-0.376069 1.888887,-0.666667 4.333332,-0.666667 4.08153,0 6.04441,0.988823 2.88555,1.453633 -2.2138,0.32575 -2.08739,1.431031 0.29762,2.602297 1.6588,0.814628 2.19864,1.548232 2.36232,3.210216 0.26177,2.658156 -0.73507,3.924559 -4.35121,5.527848 -3.24163,1.437233 -4.211039,2.53934 -2.23363,2.53934 0.75498,0 1.37268,0.3 1.37268,0.666666 0,0.378107 -1.93333,0.666667 -4.466662,0.666667 -2.680833,0 -4.213453,-0.240673 -3.833333,-0.60196 z m 4.863466,-7.497852 c 0.435854,-1.888229 0.61186,-3.613229 0.39112,-3.833333 -0.22074,-0.220104 -1.125826,0.441541 -2.0113,1.470321 -1.5394,1.788536 -2.109753,4.407467 -1.165506,5.351711 1.142806,1.142806 2.058886,0.15996 2.785686,-2.988699 z m 4.721479,1.676573 c 1.56089,-1.984353 1.75774,-3.600743 0.58172,-4.776761 -1.29382,-1.293817 -1.66676,-0.965297 -2.45419,2.16188 -1.24337,4.93788 -0.62932,5.795393 1.87247,2.614881 z M 7.0938972,26.151929 c -0.1988933,-0.321816 0.089842,-2.31397 0.6416333,-4.42701 1.092178,-4.182405 0.8773533,-6.533322 -0.321484,-3.518136 -1.0058174,2.529723 -2.2145895,1.709552 -1.309013,-0.888186 0.725007,-2.079757 2.903099,-2.710464 4.3530545,-1.260509 0.521895,0.521895 0.850129,0.521895 1.172678,0 0.580551,-0.939351 4.554638,-0.939351 5.493988,0 0.521896,0.521895 0.85013,0.521895 1.172678,0 0.673795,-1.090222 4.084858,-0.870692 5.078736,0.326859 0.851645,1.026168 0.61728,2.798354 -1.051146,7.948386 -0.315773,0.974718 0.02276,0.802418 1.258678,-0.640613 1.993745,-2.327861 3.099102,-1.834106 1.46776,0.655637 -1.481954,2.261748 -2.907568,2.747917 -4.217286,1.438198 -0.898222,-0.898222 -0.941754,-1.465244 -0.281639,-3.668509 1.030724,-3.440249 0.987974,-5.451379 -0.115877,-5.451379 -1.506529,0 -2.962432,2.165064 -3.810564,5.666666 -0.937591,3.870946 -1.649762,4.909666 -2.66803,3.891398 -0.500358,-0.500358 -0.402398,-1.89028 0.333334,-4.729563 1.291081,-4.982446 1.297077,-4.828501 -0.188073,-4.828501 -1.853441,0 -3.232091,1.932255 -4.2484739,5.954474 -0.8665386,3.429225 -1.9597179,4.827215 -2.7609539,3.530788 z M 64.366665,25.398043 c 0.348334,-0.331076 1.208474,-0.706076 1.911423,-0.833333 2.045864,-0.37037 1.948244,-1.68611 -0.156335,-2.107026 -1.348346,-0.269669 -2.189869,-1.012651 -2.791175,-2.464333 -0.761871,-1.83932 -0.708445,-2.284174 0.46468,-3.869143 0.72904,-0.984981 2.57335,-2.231625 4.098467,-2.770319 2.8758,-1.015775 3.771234,-2.687222 1.439607,-2.687222 -0.733333,0 -1.333333,-0.3 -1.333333,-0.666667 0,-0.3760687 1.888886,-0.6666667 4.333333,-0.6666667 4.081526,0 6.044406,0.9888227 2.885553,1.4536327 -2.213807,0.32575 -2.087393,1.431031 0.29762,2.602297 1.6588,0.814628 2.19864,1.548232 2.362313,3.210216 0.261774,2.658156 -0.735066,3.924559 -4.351206,5.527846 -3.241627,1.437238 -4.21104,2.539342 -2.233627,2.539342 0.754974,0 1.37268,0.3 1.37268,0.666666 0,0.37811 -1.933333,0.666667 -4.466666,0.666667 -2.680836,0 -4.213452,-0.24067 -3.833334,-0.601957 z m 4.863467,-7.497855 c 0.435853,-1.888229 0.61186,-3.613229 0.39112,-3.833333 -0.22074,-0.220104 -1.125827,0.441541 -2.0113,1.470321 -1.539399,1.788536 -2.109755,4.407467 -1.165509,5.351713 1.142809,1.142806 2.058889,0.15996 2.785689,-2.988701 z m 4.72148,1.676573 c 1.560893,-1.984353 1.75774,-3.600743 0.58172,-4.776761 -1.29382,-1.293817 -1.66676,-0.965297 -2.454193,2.16188 -1.243367,4.937877 -0.62932,5.795392 1.872473,2.614881 z"
         id="path282" />
      <path
         style="fill:#acacac;stroke-width:0.666667"
         d="m 49.759652,86.870767 c -0.234476,-0.23448 -0.42632,-18.67632 -0.42632,-40.981878 0,-35.604938 0.12207,-40.5555557 1,-40.5555557 0.87795,0 1,4.9585917 1,40.6273217 0,22.345025 -0.258156,40.786872 -0.57368,40.981878 -0.315524,0.195 -0.765524,0.162707 -1,-0.07177 z M 85.942225,75.812133 c -1.67152,-1.283353 -2.607147,-3.51334 -2.62996,-6.268306 L 83.291198,67 l -1.6456,1.870507 c -0.90508,1.02878 -1.6456,2.32878 -1.6456,2.888893 0,1.49258 -1.63148,0.707153 -1.86944,-0.899987 -0.13524,-0.913386 0.607327,-2.03724 2.22966,-3.3745 2.911867,-2.400209 2.968114,-4.557644 0.113654,-4.359404 -2.247574,0.156092 -2.32076,-0.758278 -0.17332,-2.165336 2.12214,-1.39048 3.881146,-1.014534 4.339593,0.927486 l 0.365273,1.547324 1.6135,-1.717492 c 1.529087,-1.627637 3.347553,-2.195464 4.224033,-1.31898 0.696654,0.69665 -0.27652,2.267582 -1.41428,2.28298 -0.602433,0.0082 -1.810093,0.564431 -2.683686,1.236174 -1.535327,1.180582 -1.563473,1.362554 -0.843227,5.451475 0.944394,5.361407 2.015294,6.608707 4.356827,5.074473 1.871673,-1.226366 3.056913,-0.362026 1.71718,1.252254 -0.972687,1.17202 -4.56822,1.2413 -6.03354,0.116266 z M 112,60.333333 V 43.990414 l 43.83333,0.171459 43.83333,0.17146 v 16 16 L 155.83333,76.504793 112,76.676253 Z m 86.66666,0 v -15 H 156 113.33333 v 15 15 H 156 198.66666 Z M 123,68.5199 c -0.73334,-0.406607 -1.55374,-1.06492 -1.82313,-1.462927 C 119.16664,64.086956 123.11086,58 127.0456,58 c 2.65671,0 4.23778,1.991577 2.63626,3.320723 -1.03954,0.862738 -2.61048,0.309137 -1.98672,-0.700122 0.70537,-1.141328 -0.36652,-1.998329 -1.64417,-1.314548 -2.75616,1.475051 -3.63391,8.111994 -1.13556,8.586267 0.68681,0.130387 2.11181,-0.401033 3.16667,-1.18092 C 129.59592,65.592163 130,65.503364 130,66.289919 c 0,1.866234 -4.86235,3.415228 -7,2.229981 z m 37.67687,0.313433 c 0.005,-0.275 0.29601,-0.95 0.64533,-1.5 0.54386,-0.856311 -0.28814,-1.047896 -5.7903,-1.333333 -4.298,-0.222969 -6.51664,-0.609246 -6.70089,-1.166667 -0.20985,-0.634865 1.60337,-0.835764 7.61343,-0.843542 7.8279,-0.01013 10.14925,-0.489827 9.26829,-1.915256 -0.29639,-0.479559 -3.38585,-0.741202 -8.75208,-0.741202 -6.92799,0 -8.29399,-0.164697 -8.29399,-1 0,-0.822222 1.18519,-1 6.66667,-1 6.55205,0 7.44989,-0.283439 5.87778,-1.855555 -0.43389,-0.433889 -0.57977,-0.998013 -0.32417,-1.253608 0.25559,-0.255595 1.48085,0.644643 2.7228,2.000529 1.24194,1.355886 3.18782,2.789358 4.32416,3.185491 2.50488,0.873206 2.63718,1.635265 0.38216,2.201241 -0.92617,0.232454 -2.84106,1.614976 -4.25532,3.072276 -2.51479,2.591313 -3.40442,3.15646 -3.38387,2.149626 z m 18.45081,-0.006 c -0.79726,-0.180633 -1.13598,-0.76214 -1,-1.716766 0.26163,-1.836584 2.24879,-1.94143 2.09011,-0.11028 -0.10909,1.258913 -0.0472,1.2495 1.10839,-0.168547 1.30254,-1.598359 2.3897,-6.339805 1.70693,-7.444539 -0.59257,-0.958805 -2.24854,-0.14198 -2.71933,1.34134 C 180.09178,61.427714 179.63036,62 179.2884,62 c -1.04802,0 -0.69111,-1.730571 0.59742,-2.896675 1.4073,-1.273585 4.78084,-1.487622 4.78084,-0.303325 0,0.622222 0.17778,0.622222 0.8,0 1.14197,-1.141969 3.83602,-0.988925 4.30945,0.244811 0.22051,0.574647 0.0409,1.399647 -0.39914,1.833334 -0.61714,0.608234 -1.00635,0.509188 -1.70227,-0.433195 -0.8678,-1.175142 -0.92998,-1.169813 -1.63086,0.139784 C 184.95649,62.616481 184.34029,68 185.1951,68 c 0.84026,0 2.56037,-1.624524 2.98744,-2.821429 0.16587,-0.46488 0.51696,-0.645932 0.7802,-0.402335 0.68482,0.633716 -0.75794,3.067244 -2.31136,3.898611 -0.92916,0.497273 -1.71145,0.49486 -2.65138,-0.0082 -0.79832,-0.42724 -1.80148,-0.483427 -2.5,-0.14002 -0.64167,0.31546 -1.70921,0.45064 -2.37232,0.3004 z M 134,58.288408 c 0,-0.741541 -0.38712,-0.922058 -1.33334,-0.621741 -1.56201,0.495762 -1.85482,-0.841734 -0.31374,-1.433102 0.88069,-0.33795 0.85812,-0.509324 -0.16562,-1.257902 -0.65186,-0.476656 -0.96793,-1.083927 -0.70236,-1.34949 0.26556,-0.265562 0.94008,-0.103357 1.49894,0.360456 C 133.83998,54.697119 134,54.607091 134,53.414963 134,52.636733 134.3,52 134.66666,52 c 0.36667,0 0.66667,0.610555 0.66667,1.356789 0,1.136052 0.21034,1.244219 1.29287,0.664864 0.8667,-0.463844 1.43002,-0.470024 1.70892,-0.01875 0.22883,0.370248 -0.095,0.869307 -0.71974,1.109021 -1.06878,0.410133 -1.06892,0.48473 -0.003,1.264624 0.75858,0.554685 0.89009,0.97917 0.39766,1.283509 -0.40467,0.2501 -1.17262,0.09217 -1.70656,-0.350963 -0.79778,-0.662356 -0.97049,-0.553966 -0.97049,0.609273 0,0.77823 -0.3,1.414963 -0.66667,1.414963 C 134.3,59.333333 134,58.863117 134,58.288408 Z M 68.203079,71.5 c -0.231954,-0.641667 -1.572541,-4.149713 -2.979076,-7.795653 -1.406536,-3.645943 -2.557338,-7.020943 -2.557338,-7.5 0,-1.76429 1.161264,-0.794172 2.192799,1.83186 l 1.061719,2.702872 3.483096,-0.202872 c 3.310186,-0.192803 3.521259,-0.316706 4.251999,-2.495961 0.693687,-2.068748 2.32872,-3.640301 2.353854,-2.262468 0.02338,1.281212 -6.257367,16.888889 -6.79632,16.888889 -0.323947,0 -0.778773,-0.525 -1.010733,-1.166667 z m 2.691266,-6 1.09486,-2.833333 h -2.716826 c -1.91332,0 -2.614622,0.246459 -2.371254,0.833333 0.190067,0.458333 0.715434,1.967962 1.167494,3.354733 0.92522,2.838287 1.26918,2.67338 2.825726,-1.354733 z m 192.642065,6 c -0.23196,-0.641667 -1.57254,-4.149713 -2.97908,-7.795653 -1.40654,-3.645943 -2.55734,-7.020943 -2.55734,-7.5 0,-1.76429 1.16127,-0.794172 2.1928,1.83186 l 1.06172,2.702872 3.4831,-0.202872 c 3.31018,-0.192803 3.52126,-0.316706 4.252,-2.495961 0.69368,-2.068748 2.32872,-3.640301 2.35385,-2.262468 0.0234,1.281212 -6.25737,16.888889 -6.79632,16.888889 -0.32395,0 -0.77877,-0.525 -1.01073,-1.166667 z m 2.69126,-6 1.09486,-2.833333 h -2.71682 c -1.91332,0 -2.61462,0.246459 -2.37126,0.833333 0.19007,0.458333 0.71544,1.967962 1.1675,3.354733 0.92522,2.838287 1.26918,2.67338 2.82572,-1.354733 z m 23.5484,6.67702 c -0.20994,-0.33968 0.051,-2.243467 0.57986,-4.23064 0.52886,-1.987177 0.96513,-3.988047 0.96948,-4.44638 0.0133,-1.394947 -1.13889,-0.929903 -1.65166,0.666667 -0.41873,1.303779 -0.52332,1.343194 -0.79947,0.301307 -0.62927,-2.374111 2.50769,-4.152669 4.25047,-2.409886 0.5219,0.521895 0.85013,0.521895 1.17268,0 0.59356,-0.960404 3.89878,-0.928541 4.87431,0.04699 0.58455,0.58455 1.01138,0.572866 1.75969,-0.04817 1.32196,-1.097135 4.42888,-0.664791 5.30735,0.738546 0.51843,0.828191 0.40839,2.061329 -0.41324,4.630627 -0.61591,1.926013 -0.93755,3.66806 -0.71476,3.871213 0.2228,0.203153 0.52483,0.03693 0.67119,-0.36942 0.14636,-0.406333 0.71411,-1.306333 1.26166,-2 0.95384,-1.208347 0.98776,-1.19456 0.8093,0.32906 -0.10245,0.874647 -0.80499,1.998873 -1.56121,2.49828 -1.16327,0.76822 -1.57102,0.764627 -2.64865,-0.02333 -1.22353,-0.894674 -1.23015,-1.067567 -0.168,-4.388994 1.26626,-3.959674 1.01525,-5.346264 -0.87816,-4.851124 -1.54472,0.403951 -2.96321,2.895844 -3.6095,6.340878 -0.46233,2.46442 -1.90906,4.372846 -2.54047,3.351206 -0.18614,-0.301173 0.0963,-2.429526 0.62773,-4.729673 1.12214,-4.857271 0.86009,-5.699601 -1.44621,-4.648779 -1.22321,0.557329 -1.93384,1.729326 -2.71332,4.474859 -1.08873,3.834833 -2.46681,5.984547 -3.13907,4.896787 z M 94.666665,71.3797 c 0,-0.341167 0.6515,-0.716167 1.44778,-0.833333 2.07912,-0.305934 2.239386,-1.646347 0.256353,-2.14406 -2.397527,-0.60174 -3.906187,-3.117397 -3.115973,-5.195812 0.695326,-1.828856 3.046273,-3.588686 5.675733,-4.248638 2.056782,-0.51622 2.338332,-2.29119 0.363427,-2.29119 -0.754974,0 -1.187267,-0.3 -0.960654,-0.666667 0.52002,-0.841415 8.333329,-0.884889 8.333329,-0.04637 0,0.341165 -0.6515,0.716165 -1.44778,0.833334 -2.18694,0.321798 -2.07224,1.39428 0.30894,2.888708 2.83125,1.776897 3.1667,4.357082 0.86561,6.658168 -0.93097,0.930971 -2.58117,1.870371 -3.6671,2.087558 -2.30267,0.460533 -3.393305,2.245266 -1.37208,2.245266 0.72183,0 1.31241,0.3 1.31241,0.666667 0,0.370373 -1.77778,0.666667 -3.999995,0.666667 -2.2,0 -4,-0.279134 -4,-0.620301 z m 4.21778,-5.968591 c 0.21144,-1.057224 0.581466,-2.707224 0.822273,-3.666667 0.531382,-2.117224 -0.4903,-2.294197 -2.373387,-0.411109 -1.279693,1.279693 -1.81556,4.628882 -0.888886,5.555554 0.992126,0.992126 2.077486,0.33478 2.44,-1.477778 z m 4.733595,0.875606 c 1.49127,-1.491268 2.00992,-4.128426 1.04144,-5.295372 -1.30026,-1.566713 -1.78236,-1.198548 -2.58034,1.970537 -1.16717,4.635247 -0.72558,5.589313 1.5389,3.324835 z m 168.38195,5.046618 c 0,-0.366666 0.45,-0.666666 1,-0.666666 0.8254,0 1,-1.22222 1,-7 0,-5.777778 -0.1746,-7 -1,-7 -0.55,0 -1,-0.3 -1,-0.666667 0,-0.366667 1.65,-0.666667 3.66667,-0.666667 3.62181,0 4.92085,0.849848 2.33333,1.5265 -1.21758,0.318404 -1.33333,0.909344 -1.33333,6.806834 0,5.897493 0.11575,6.488426 1.33333,6.806833 2.58752,0.676653 1.28848,1.5265 -2.33333,1.5265 -2.01667,0 -3.66667,-0.3 -3.66667,-0.666667 z M 7.1094039,26.177019 C 6.8994712,25.837341 7.1604105,23.933553 7.6892752,21.946378 8.2181365,19.959203 8.6544018,17.958333 8.6587538,17.5 8.6720005,16.105053 7.5198572,16.570097 7.0070892,18.166667 6.5883568,19.470446 6.4837751,19.509861 6.207618,18.467974 c -0.6292688,-2.374111 2.5076872,-4.152669 4.25047,-2.409886 0.521895,0.521895 0.850129,0.521895 1.172678,0 0.593562,-0.960404 3.898781,-0.928541 4.874312,0.04699 0.58455,0.58455 1.011382,0.572866 1.759686,-0.04817 1.321967,-1.097135 4.428888,-0.664791 5.307357,0.738546 0.518435,0.828191 0.408389,2.061329 -0.413241,4.630629 -0.615914,1.926014 -0.937556,3.66806 -0.714759,3.871214 0.222797,0.203154 0.524833,0.03691 0.671191,-0.369423 0.146358,-0.406336 0.714106,-1.306336 1.261662,-2 0.953833,-1.208349 0.98775,-1.194558 0.809291,0.329061 -0.102446,0.874647 -0.804988,1.998871 -1.561203,2.498276 -1.163268,0.768222 -1.571023,0.764628 -2.648648,-0.02335 -1.223536,-0.894671 -1.230154,-1.067566 -0.168005,-4.38899 1.266255,-3.959677 1.015251,-5.346267 -0.878163,-4.851127 -1.544714,0.403951 -2.963205,2.895844 -3.609497,6.340875 -0.462329,2.464425 -1.909062,4.372851 -2.540472,3.351208 -0.186135,-0.301172 0.09634,-2.429523 0.627729,-4.729669 1.122139,-4.857274 0.860096,-5.699604 -1.446206,-4.648782 -1.223205,0.557329 -1.933842,1.729326 -2.713319,4.47486 -1.0887365,3.834832 -2.4668058,5.984543 -3.1390771,4.896785 z M 64.666665,25.379701 c 0,-0.341165 0.651502,-0.716165 1.447782,-0.833334 2.079118,-0.305932 2.239385,-1.64635 0.256354,-2.144059 -2.397526,-0.601741 -3.90619,-3.117398 -3.115978,-5.195813 0.69533,-1.828856 3.046279,-3.588686 5.675736,-4.248638 2.056786,-0.51622 2.338333,-2.29119 0.363426,-2.29119 -0.754973,0 -1.187266,-0.3 -0.960653,-0.666667 0.52002,-0.8414153 8.333333,-0.8848893 8.333333,-0.046367 0,0.341165 -0.6515,0.716165 -1.44778,0.833334 -2.18694,0.321798 -2.072247,1.39428 0.308933,2.888708 2.831254,1.776897 3.1667,4.357082 0.865614,6.658168 -0.930974,0.93097 -2.581167,1.870371 -3.6671,2.087558 -2.302667,0.460532 -3.393307,2.245266 -1.37208,2.245266 0.721827,0 1.312413,0.3 1.312413,0.666666 0,0.370371 -1.77778,0.666667 -4,0.666667 -2.2,0 -4,-0.279135 -4,-0.620299 z m 4.21778,-5.968592 c 0.21144,-1.057224 0.581467,-2.707224 0.822274,-3.666667 0.531386,-2.117224 -0.4903,-2.294197 -2.373387,-0.411109 -1.279693,1.279693 -1.815563,4.628882 -0.888889,5.555556 0.992129,0.992126 2.077489,0.334779 2.440002,-1.47778 z m 4.7336,0.875606 c 1.491267,-1.491268 2.009913,-4.128426 1.041433,-5.295372 -1.300253,-1.566713 -1.782353,-1.198548 -2.580339,1.970537 -1.167167,4.635246 -0.725574,5.589315 1.538906,3.324835 z"
         id="path280" />
      <path
         style="fill:#929292;stroke-width:0.666667"
         d="m 49.999999,46 c 0,-26.666667 0.229508,-40.6666667 0.666667,-40.6666667 0.437158,0 0.666666,13.9999997 0.666666,40.6666667 0,26.666667 -0.229508,40.666667 -0.666666,40.666667 -0.437159,0 -0.666667,-14 -0.666667,-40.666667 z m 36.242719,29.88694 c -1.811426,-0.877107 -2.90358,-3.269153 -2.930453,-6.418307 L 83.291198,67 l -1.6456,1.870507 c -0.90508,1.02878 -1.6456,2.32878 -1.6456,2.888893 0,1.49258 -1.63148,0.707153 -1.86944,-0.899987 -0.135506,-0.91516 0.611787,-2.040913 2.252587,-3.3934 2.047647,-1.687844 2.383027,-2.312135 2.01972,-3.75965 -0.37974,-1.513013 -0.611953,-1.641376 -1.809687,-1.000368 -2.04126,1.092451 -2.50506,0.04469 -0.646993,-1.461626 2.069307,-1.677566 4.3191,-1.390152 4.600007,0.587656 l 0.212866,1.498693 2.183394,-1.665359 c 2.638839,-2.012738 3.724213,-2.109502 3.724213,-0.332026 0,0.833254 -0.444447,1.333334 -1.184994,1.333334 -0.651753,0 -1.885046,0.490334 -2.740666,1.089632 -1.39252,0.975358 -1.51018,1.432551 -1.121913,4.359434 0.837046,6.30994 2.562846,8.466247 5.006219,6.255027 0.933787,-0.845067 1.366834,-0.922813 1.743687,-0.313053 0.62738,1.01512 -1.463667,2.62518 -3.329753,2.56384 -0.75492,-0.0248 -2.013353,-0.355387 -2.796527,-0.734607 z M 112,60.333333 V 43.990414 l 43.69236,0.171459 43.69236,0.17146 v 16 16 L 155.69236,76.504793 112,76.676253 Z m 86.66666,0 v -15 H 156 113.33333 v 15 15 H 156 198.66666 Z m -38,8.643214 c 0,-0.196234 0.4845,-1.096234 1.07668,-2 l 1.07667,-1.643214 h -7.07667 c -10.18806,0 -8.98444,-1.25162 1.42332,-1.480082 7.02819,-0.154276 8.5,-0.359739 8.5,-1.186584 0,-0.816364 -1.50046,-1.061212 -8.17079,-1.333334 -10.13449,-0.413443 -11.18956,-1.591774 -1.66245,-1.856656 l 6.83342,-0.18999 -1.07676,-1.643344 c -1.49447,-2.280847 0.0121,-2.074489 1.65024,0.226034 0.73211,1.028157 2.40254,2.446378 3.71206,3.151602 1.30952,0.705225 2.38095,1.477609 2.38095,1.71641 0,0.238801 -0.91826,0.814541 -2.04059,1.279422 -1.12232,0.464881 -2.80792,1.851277 -3.74579,3.080882 -1.51663,1.988407 -2.88029,2.87794 -2.88029,1.878854 z m -38.97587,-1.616554 c -2.79394,-3.08727 1.41347,-9.665826 5.9023,-9.228622 1.69259,0.164855 2.07357,0.49798 2.07357,1.813074 0,0.88611 -0.375,1.73611 -0.83333,1.888888 C 128.31003,62.007766 128,61.470371 128,60.388889 c 0,-0.947222 -0.26677,-1.722222 -0.59282,-1.722222 -1.29733,0 -3.35277,2.462932 -3.94736,4.72992 -1.13562,4.32984 1.29431,5.966373 4.7836,3.221693 C 129.30421,65.783864 130,65.556701 130,66.044785 c 0,2.581248 -6.2659,3.573042 -8.30921,1.315208 z M 178,67.274507 C 178,66.422872 178.46605,66 179.40466,66 c 1.00763,0 1.29015,0.298395 0.99954,1.055707 -0.25656,0.668593 -0.0994,0.956446 0.42868,0.785013 1.26502,-0.410693 2.9639,-7.643941 2.0176,-8.59024 -0.56257,-0.562565 -1.19263,-0.283325 -2.46954,1.09448 -1.88446,2.033367 -2.31792,1.480204 -0.67648,-0.863289 1.07735,-1.538129 3.88938,-2.01153 4.64888,-0.782632 0.29743,0.481255 0.71365,0.465311 1.33598,-0.05117 1.42689,-1.184218 3.97734,-0.530915 3.97734,1.018802 0,0.74074 -0.44444,1.333333 -1,1.333333 -0.55,0 -0.96228,-0.501276 -0.91619,-1.113947 0.0515,-0.68509 -0.26649,-0.979524 -0.82609,-0.764785 -1.09758,0.421181 -2.57667,5.513761 -2.3367,8.045399 0.13836,1.459746 2.07919,0.895613 2.86695,-0.833334 0.41767,-0.916666 1.01123,-1.666666 1.31905,-1.666666 0.83391,0 0.68036,0.864328 -0.43695,2.459506 -0.85623,1.222427 -1.65441,1.422847 -5.66667,1.422847 -4.15377,0 -4.67006,-0.1409 -4.67006,-1.274513 z m -44,-8.986099 c 0,-0.741541 -0.38712,-0.922058 -1.33334,-0.621741 -1.63732,0.519667 -1.79048,-0.681219 -0.16666,-1.306841 1.10768,-0.426767 1.10697,-0.483002 -0.014,-1.112299 -0.64938,-0.364544 -0.99768,-0.958937 -0.77398,-1.320873 0.25855,-0.418351 0.74935,-0.373689 1.34735,0.122603 C 133.81885,54.679589 134,54.55744 134,53.414963 134,52.636733 134.3,52 134.66666,52 c 0.36667,0 0.66667,0.610555 0.66667,1.356789 0,1.136052 0.21034,1.244219 1.29287,0.664864 0.9021,-0.482784 1.42614,-0.47631 1.73375,0.02142 0.24402,0.394834 -0.19135,0.87867 -0.97507,1.083618 -1.33121,0.348119 -1.34526,0.421961 -0.2348,1.233954 0.64964,0.475022 0.96388,1.080956 0.69831,1.346518 -0.26556,0.265563 -0.94009,0.103358 -1.49895,-0.360456 -0.85609,-0.710493 -1.01611,-0.620464 -1.01611,0.571663 0,0.77823 -0.3,1.414963 -0.66667,1.414963 C 134.3,59.333333 134,58.863117 134,58.288408 Z m -67.937055,7.381713 c -1.486362,-3.8481 -2.891104,-7.7481 -3.12165,-8.666666 C 62.254806,54.268264 63.713052,55.110523 64.666665,58 l 0.88008,2.666667 h 3.56536 c 3.537307,0 3.573753,-0.02098 4.632347,-2.666667 0.923353,-2.307695 2.255546,-3.607833 2.255546,-2.201277 0,1.128038 -6.282893,16.867944 -6.733173,16.867944 -0.275773,0 -1.71752,-3.148447 -3.20388,-6.996546 z m 4.8314,-0.170121 1.09486,-2.833333 h -2.7326 c -1.9072,0 -2.63882,0.251712 -2.422146,0.833333 0.17074,0.458333 0.713033,1.958137 1.205093,3.3329 1.007547,2.814993 1.305767,2.675753 2.854793,-1.3329 z m 190.501925,0.170121 c -1.48636,-3.8481 -2.8911,-7.7481 -3.12165,-8.666666 -0.68649,-2.735191 0.77176,-1.892932 1.72537,0.996545 l 0.88008,2.666667 h 3.56536 c 3.53731,0 3.57376,-0.02098 4.63235,-2.666667 0.92335,-2.307695 2.25555,-3.607833 2.25555,-2.201277 0,1.128038 -6.2829,16.867944 -6.73318,16.867944 -0.27577,0 -1.71752,-3.148447 -3.20388,-6.996546 z m 4.8314,-0.170121 1.09486,-2.833333 h -2.7326 c -1.9072,0 -2.63882,0.251712 -2.42214,0.833333 0.17074,0.458333 0.71303,1.958137 1.20509,3.3329 1.00755,2.814993 1.30577,2.675753 2.85479,-1.3329 z M 94.666665,71.3797 c 0,-0.341167 0.6515,-0.716167 1.44778,-0.833333 2.21776,-0.326334 2.088206,-1.437487 -0.29688,-2.546367 -4.057627,-1.886479 -2.980074,-6.524489 1.9536,-8.408677 2.775235,-1.059872 3.983815,-2.924656 1.8955,-2.924656 -0.55,0 -1,-0.3 -1,-0.666667 0,-0.370371 1.777775,-0.666667 3.999995,-0.666667 2.22222,0 4,0.296296 4,0.666667 0,0.366667 -0.75,0.666667 -1.66666,0.666667 -1.94104,0 -2.31032,1.813584 -0.5,2.455589 2.02671,0.718749 3.5,2.365079 3.5,3.911096 0,1.865649 -2.525,4.354421 -5.39983,5.322368 -2.52994,0.851827 -3.364899,2.310947 -1.32239,2.310947 0.76388,0 1.38888,0.3 1.38888,0.666666 0,0.370374 -1.77778,0.666667 -3.999995,0.666667 -2.2,0 -4,-0.279133 -4,-0.6203 z m 4.674806,-7.413629 c 0.444827,-1.854256 0.650667,-3.529487 0.45742,-3.722736 -0.76166,-0.761658 -3.03182,1.176141 -3.732466,3.186014 -0.610254,1.750568 -0.548287,2.336536 0.352306,3.331684 1.47866,1.633894 1.97388,1.16032 2.92274,-2.794962 z m 5.747039,0.251952 c 0.45133,-1.798257 -0.26284,-3.609465 -1.59883,-4.054797 -0.41192,-0.137307 -1.08275,1.043778 -1.49206,2.626987 -0.409,1.58205 -0.9029,3.423178 -1.09755,4.091394 -0.33427,1.147533 -0.24012,1.156106 1.69669,0.15454 1.19126,-0.616022 2.23546,-1.796999 2.49175,-2.818124 z m 166.91148,7.11531 c 0,-0.366666 0.45,-0.666666 1,-0.666666 0.8254,0 1,-1.22222 1,-7 0,-5.777778 -0.1746,-7 -1,-7 -0.55,0 -1,-0.3 -1,-0.666667 0,-0.366667 1.65,-0.666667 3.66667,-0.666667 3.62181,0 4.92085,0.849848 2.33333,1.5265 -1.22224,0.319622 -1.33333,0.909344 -1.33333,7.077754 0,6.284633 0.0881,6.72908 1.33333,6.72908 0.73334,0 1.33334,0.3 1.33334,0.666666 0,0.366667 -1.65,0.666667 -3.66667,0.666667 -2.01667,0 -3.66667,-0.3 -3.66667,-0.666667 z m 18,-0.3159 c 0,-0.60152 0.3279,-2.395873 0.72867,-3.98746 0.40076,-1.591579 0.59798,-3.449425 0.43826,-4.128544 -0.23638,-1.005062 -0.44873,-0.862706 -1.14147,0.765238 -0.46808,1.1 -0.98475,1.641631 -1.14816,1.203626 -0.80085,-2.146643 2.92099,-4.814706 4.08624,-2.92929 0.21966,0.355412 1.2105,0.292516 2.38686,-0.15151 1.56378,-0.590264 2.32229,-0.564959 3.40905,0.113732 1.00253,0.626094 1.60173,0.668934 2.11915,0.15151 1.24298,-1.242982 4.34024,-0.847682 5.14536,0.656699 0.56272,1.051439 0.48926,2.106751 -0.30988,4.452093 -1.23084,3.61232 -1.27954,4.169806 -0.36424,4.169806 0.37574,0 1.0115,-0.825 1.4128,-1.833333 0.40129,-1.008333 0.86332,-1.474967 1.02673,-1.03696 C 308.32583,69.90102 306.67993,72 305.01588,72 c -2.31643,0 -2.53218,-0.832087 -1.30779,-5.043847 1.29678,-4.46075 0.66002,-5.787517 -1.9552,-4.073956 -1.1824,0.774737 -1.88651,2.142136 -2.48874,4.83319 -0.72762,3.251366 -2.01764,5.08668 -2.9324,4.171926 -0.15257,-0.152573 0.17893,-2.0249 0.73667,-4.160726 1.17621,-4.504192 0.92297,-5.77385 -1.04876,-5.25823 -1.64022,0.428928 -2.62477,2.082109 -3.66241,6.14967 -0.74094,2.904466 -2.35726,4.549693 -2.35726,2.399406 z M 7.3333332,25.017435 c 0,-0.601521 0.3278986,-2.395878 0.7286633,-3.98746 0.4007647,-1.591581 0.597982,-3.449427 0.4382607,-4.128546 -0.23638,-1.005062 -0.448724,-0.862706 -1.141462,0.765238 -0.468082,1.1 -0.9847552,1.641631 -1.1481626,1.203626 -0.8008508,-2.146643 2.9209872,-4.814706 4.0862374,-2.92929 0.219658,0.355412 1.210495,0.292516 2.386857,-0.15151 1.563787,-0.590264 2.322293,-0.564959 3.409049,0.113732 1.002537,0.626094 1.601731,0.668934 2.119156,0.15151 1.242982,-1.242982 4.34024,-0.847682 5.14536,0.656699 0.562713,1.051439 0.48926,2.106751 -0.309878,4.452092 -1.23084,3.612319 -1.279539,4.169807 -0.364247,4.169807 0.375742,0 1.011501,-0.825 1.412798,-1.833333 0.401296,-1.008333 0.863328,-1.474965 1.026735,-1.036959 C 25.659168,23.901018 24.013269,26 22.349222,26 c -2.316436,0 -2.532184,-0.832089 -1.307792,-5.043849 1.296774,-4.460748 0.660022,-5.787515 -1.955204,-4.073954 -1.182396,0.774737 -1.886507,2.142136 -2.488739,4.833192 -0.727623,3.251363 -2.017644,5.086677 -2.932397,4.171924 -0.152572,-0.152573 0.17893,-2.0249 0.736672,-4.160728 1.176208,-4.50419 0.922973,-5.773848 -1.04876,-5.258228 -1.640225,0.428928 -2.624771,2.082109 -3.6624149,6.149668 -0.7409373,2.904471 -2.3572539,4.549694 -2.3572539,2.39941 z m 57.3333318,0.362266 c 0,-0.341165 0.651502,-0.716165 1.447782,-0.833334 C 68.332205,24.220035 68.202652,23.108879 65.817566,22 c -4.057629,-1.886479 -2.980072,-6.524489 1.953599,-8.408677 2.77524,-1.059872 3.98382,-2.924656 1.8955,-2.924656 -0.55,0 -1,-0.3 -1,-0.666667 0,-0.3703707 1.77778,-0.6666667 4,-0.6666667 2.22222,0 4,0.296296 4,0.6666667 0,0.366667 -0.75,0.666667 -1.666667,0.666667 -1.94104,0 -2.31032,1.813584 -0.5,2.455589 2.026714,0.718749 3.5,2.365079 3.5,3.911096 0,1.865649 -2.524993,4.354421 -5.399826,5.322369 -2.52994,0.851824 -3.3649,2.310946 -1.322393,2.310946 0.763886,0 1.388886,0.3 1.388886,0.666666 0,0.370371 -1.77778,0.666667 -4,0.666667 -2.2,0 -4,-0.279135 -4,-0.620299 z m 4.674807,-7.41363 c 0.444827,-1.854256 0.650667,-3.529487 0.45742,-3.722736 -0.76166,-0.761658 -3.03182,1.176141 -3.732468,3.186014 -0.610251,1.750568 -0.548288,2.336536 0.352309,3.331684 1.478659,1.633897 1.973879,1.160322 2.922739,-2.794962 z m 5.74704,0.251952 c 0.451333,-1.798257 -0.26284,-3.609465 -1.598834,-4.054797 -0.41192,-0.137307 -1.082746,1.043778 -1.492053,2.626987 -0.409006,1.58205 -0.902906,3.423178 -1.097553,4.091396 -0.334267,1.147529 -0.24012,1.156104 1.696687,0.15454 1.191259,-0.616024 2.235466,-1.797001 2.491753,-2.818126 z"
         id="path278" />
      <path
         style="fill:#6e6e6e;stroke-width:0.666667"
         d="m 49.999999,46 c 0,-26.666667 0.229508,-40.6666667 0.666667,-40.6666667 0.437158,0 0.666666,13.9999997 0.666666,40.6666667 0,26.666667 -0.229508,40.666667 -0.666666,40.666667 -0.437159,0 -0.666667,-14 -0.666667,-40.666667 z m 35.669819,29.166667 c -1.242913,-1.072794 -1.872,-2.4429 -2.20884,-4.81068 L 82.990005,67.0453 81.494998,68.945887 c -0.822246,1.045326 -1.495,2.335133 -1.495,2.86624 0,1.46326 -1.63714,0.61644 -1.871446,-0.968014 -0.13954,-0.943613 0.550726,-1.96104 2.166666,-3.193573 1.517454,-1.157419 2.371447,-2.366321 2.371447,-3.356988 0,-1.895855 -1.0778,-2.668883 -2.303187,-1.651907 -0.54492,0.452246 -1.067053,0.50465 -1.298406,0.130316 C 78.613632,62.041508 81.485012,60 82.963838,60 c 0.55592,0 1.198994,0.75 1.429067,1.666667 0.230067,0.916666 0.633487,1.666666 0.896487,1.666666 0.263006,0 1.182773,-0.75 2.04394,-1.666666 1.886606,-2.008202 3.333333,-2.152874 3.333333,-0.333334 0,0.833254 -0.444447,1.333334 -1.184994,1.333334 -0.651753,0 -1.888066,0.492447 -2.747373,1.094328 -1.427973,1.000192 -1.5247,1.414825 -1.12448,4.820092 0.44952,3.824693 1.831034,6.752246 3.186387,6.752246 0.421013,0 1.277026,-0.462953 1.90226,-1.02878 1.017686,-0.920993 1.177746,-0.922053 1.527673,-0.0102 0.438027,1.141494 -1.366673,2.372287 -3.478467,2.372287 -0.736993,0 -2.122026,-0.675 -3.077853,-1.5 z M 112,60.333333 V 44 h 43.66666 43.66667 V 60.333333 76.666667 H 155.66666 112 Z m 86.66666,0 v -15 H 156 113.33333 v 15 15 H 156 198.66666 Z m -37,7 1.03424,-2 h -7.05646 c -4.53455,0 -6.90921,-0.23826 -6.64444,-0.666666 C 149.23707,64.283069 152.75749,64 157.29104,64 c 5.78105,0 8.0769,-0.238413 8.62212,-0.895364 1.29322,-1.558242 -2.11594,-2.427986 -10.1112,-2.579557 l -7.46863,-0.141588 7.16667,-0.2143 c 3.94166,-0.117865 7.16666,-0.364706 7.16666,-0.548534 0,-0.183829 -0.4845,-1.07368 -1.07667,-1.977446 -1.6158,-2.466026 -0.003,-1.977954 1.95696,0.592431 0.93787,1.229603 2.62347,2.615999 3.74579,3.080881 2.60386,1.07855 2.56539,1.519601 -0.2496,2.861976 -1.2596,0.600664 -2.96602,2.006228 -3.79204,3.123474 -1.92854,2.608487 -2.92734,2.628254 -1.58444,0.03133 z M 121.60854,67.00486 c -1.40444,-2.143461 -0.80776,-4.574869 1.75052,-7.13315 1.51392,-1.513929 2.45026,-1.909967 4.13252,-1.74791 1.79784,0.173192 2.17508,0.488961 2.17508,1.820645 0,0.88611 -0.42049,1.751275 -0.93442,1.922586 -0.67304,0.224346 -0.83042,-0.08629 -0.56259,-1.110446 0.50581,-1.934226 -0.56123,-2.42351 -2.50613,-1.149165 -2.0105,1.317333 -3.4596,6.031721 -2.28796,7.443467 1.10629,1.332993 2.81648,1.181006 4.86786,-0.432607 C 129.20954,65.858334 130,65.541323 130,65.913811 c 0,1.198236 -2.89875,2.752856 -5.13297,2.752856 -1.57693,0 -2.46709,-0.45398 -3.25849,-1.661807 z m 56.76123,1.142693 C 177.62023,67.398013 178.0305,66 179,66 c 0.55,0 1,0.475 1,1.055553 0,1.799814 1.62514,0.630114 2.46237,-1.772292 0.9984,-2.864888 1.09619,-6.616594 0.17246,-6.616594 -0.38417,0 -1.43417,0.793806 -2.33333,1.764015 -0.89916,0.970208 -1.63484,1.420208 -1.63484,1 0,-2.228879 4.6245,-4.450293 5.68668,-2.731643 0.29743,0.481255 0.71365,0.465311 1.33598,-0.05117 1.42689,-1.184218 3.97734,-0.530915 3.97734,1.018802 0,0.74074 -0.44444,1.333333 -1,1.333333 -0.55464,0 -0.95634,-0.534132 -0.90196,-1.199347 0.16234,-1.985855 -1.37836,-0.862114 -2.17132,1.583697 -1.60084,4.937729 -1.68088,5.95725 -0.50316,6.40919 0.76423,0.29326 1.6203,-0.190607 2.67973,-1.514641 1.70945,-2.136394 2.16704,-1.437423 0.56053,0.856201 -0.85309,1.217953 -1.64412,1.428073 -5.2969,1.407 -2.36172,-0.0136 -4.46043,-0.191173 -4.66381,-0.394547 z M 134.19316,58 c 0.39137,-1.496598 -0.1978,-1.728696 -1.38205,-0.544445 -0.43389,0.43389 -1.01639,0.561388 -1.29445,0.283332 -0.27806,-0.278056 0.0379,-0.809678 0.70207,-1.18138 1.16508,-0.652009 1.16488,-0.710578 -0.005,-1.662085 -1.12715,-0.916317 -1.08443,-0.958816 0.60239,-0.599264 1.38749,0.295747 1.73045,0.165165 1.45455,-0.553813 -0.19856,-0.517446 -0.0406,-1.138861 0.3511,-1.380922 0.41697,-0.257705 0.71211,0.128804 0.71211,0.932566 0,1.54743 0.68252,1.756822 1.86667,0.572678 0.58382,-0.583825 0.8,-0.592776 0.8,-0.03313 0,0.42178 -0.525,1.061605 -1.16667,1.421833 -1.11111,0.623772 -1.11111,0.676365 0,1.104453 0.64167,0.247221 1.16667,0.727951 1.16667,1.068289 0,0.349024 -0.58129,0.307702 -1.33334,-0.09478 -1.13032,-0.604928 -1.33333,-0.506993 -1.33333,0.643211 -2.2e-4,0.746234 -0.33521,1.356789 -0.74464,1.356789 -0.4162,0 -0.59069,-0.587874 -0.39575,-1.333333 z m -68.423387,6.652446 c -3.200879,-8.329087 -3.474354,-9.319113 -2.57421,-9.319113 0.290893,0 0.992323,1.275 1.558733,2.833334 1.009249,2.776692 1.097281,2.837314 4.403556,3.032497 l 3.373713,0.199163 1.15812,-3.032496 c 1.161027,-3.040103 2.8122,-4.350391 1.931193,-1.532498 -1.06582,3.409005 -5.667839,14.813627 -6.187213,15.333 -0.308433,0.308434 -1.95718,-3.07282 -3.663892,-7.513887 z m 4.920586,1.625617 c 0.7203,-1.680398 1.30964,-3.330398 1.30964,-3.666666 0,-0.336268 -1.2,-0.611397 -2.666667,-0.611397 -1.466667,0 -2.666667,0.246559 -2.666667,0.547907 0,0.895932 2.1002,6.785426 2.419694,6.785426 0.161893,0 0.883693,-1.374873 1.604,-3.05527 z M 261.1031,64.652446 c -3.20088,-8.329087 -3.47435,-9.319113 -2.57421,-9.319113 0.2909,0 0.99232,1.275 1.55874,2.833334 1.00924,2.776692 1.09728,2.837314 4.40355,3.032497 l 3.37371,0.199163 1.15812,-3.032496 c 1.16103,-3.040103 2.8122,-4.350391 1.9312,-1.532498 -1.06582,3.409005 -5.66784,14.813627 -6.18722,15.333 -0.30843,0.308434 -1.95718,-3.07282 -3.66389,-7.513887 z m 4.92059,1.625617 c 0.7203,-1.680398 1.30964,-3.330398 1.30964,-3.666666 0,-0.336268 -1.2,-0.611397 -2.66667,-0.611397 -1.46667,0 -2.66667,0.246559 -2.66667,0.547907 0,0.895932 2.1002,6.785426 2.4197,6.785426 0.16189,0 0.88369,-1.374873 1.604,-3.05527 z m -171.023692,5.05527 c 0.226613,-0.366666 0.99432,-0.666666 1.706013,-0.666666 2.014774,0 1.49602,-1.559387 -0.887106,-2.666667 -4.158654,-1.932245 -2.68194,-6.951712 2.553506,-8.679565 2.532239,-0.835714 3.632939,-2.653768 1.606667,-2.653768 -0.721827,0 -1.312413,-0.3 -1.312413,-0.666667 0,-0.366667 1.632295,-0.666667 3.627315,-0.666667 1.99503,0 3.81274,0.3 4.03935,0.666667 0.23368,0.378105 -0.32641,0.666667 -1.29399,0.666667 -1.97576,0 -2.37232,1.805546 -0.53934,2.455589 2.00423,0.710776 3.5,2.358828 3.5,3.856341 0,1.749596 -2.95442,4.627803 -5.625,5.479896 -2.33954,0.746467 -3.065842,2.208174 -1.09722,2.208174 0.76388,0 1.38888,0.3 1.38888,0.666666 0,0.371094 -1.79089,0.666667 -4.039342,0.666667 -2.523133,0 -3.884687,-0.25024 -3.62732,-0.666667 z m 4.286633,-7.051724 c 0.457674,-2.045116 0.698354,-3.852177 0.53484,-4.015693 -1.038206,-1.038203 -4.48814,2.794959 -4.48814,4.986692 0,0.773283 1.874094,2.747392 2.6082,2.747392 0.282127,0 0.88742,-1.673276 1.3451,-3.718391 z m 4.451749,2.040617 c 1.97376,-1.973769 2.05586,-5.827597 0.13189,-6.191868 -0.83809,-0.158678 -1.3216,0.528307 -1.87301,2.661207 -0.40881,1.581306 -0.89565,3.400102 -1.08187,4.041768 -0.48805,1.68172 0.87737,1.434507 2.82299,-0.511107 z m 168.26161,5.011107 c 0,-0.366666 0.6,-0.666666 1.33334,-0.666666 1.24526,0 1.33333,-0.444447 1.33333,-6.72908 0,-6.16841 -0.11109,-6.758132 -1.33333,-7.077754 -2.58752,-0.676652 -1.28848,-1.5265 2.33333,-1.5265 2.01667,0 3.66667,0.3 3.66667,0.666667 0,0.366667 -0.6,0.666667 -1.33334,0.666667 -1.24868,0 -1.33333,0.444444 -1.33333,7 0,6.555553 0.0847,7 1.33333,7 0.73334,0 1.33334,0.3 1.33334,0.666666 0,0.366667 -1.65,0.666667 -3.66667,0.666667 -2.01667,0 -3.66667,-0.3 -3.66667,-0.666667 z m 18,-0.3159 c 0,-0.60152 0.3279,-2.395873 0.72867,-3.98746 0.40076,-1.591579 0.59798,-3.449425 0.43826,-4.128544 -0.23638,-1.005062 -0.44873,-0.862706 -1.14147,0.765238 -0.46808,1.1 -0.98475,1.641631 -1.14816,1.203626 -0.80085,-2.146643 2.92099,-4.814706 4.08624,-2.92929 0.21966,0.355412 1.2105,0.292516 2.38686,-0.15151 1.54496,-0.583156 2.32071,-0.565944 3.3458,0.07424 0.94914,0.592744 1.70246,0.636497 2.60866,0.15151 3.87965,-2.076323 5.83679,0.207913 4.35706,5.085242 -1.16343,3.834767 -1.19634,4.232853 -0.34988,4.232853 0.35496,0 1.09295,-0.825 1.63998,-1.833333 0.54703,-1.008333 1.00661,-1.438613 1.02129,-0.956173 C 308.0267,70.298613 306.58658,72 305.04787,72 c -2.17478,0 -2.47669,-1.3181 -1.20954,-5.28056 0.81371,-2.544555 0.89505,-3.586051 0.32462,-4.156485 -1.315,-1.315002 -4.01542,1.065065 -4.84313,4.268598 C 298.08656,71.6047 297.93119,72 297.2884,72 c -0.82093,0 -0.78419,-1.194487 0.16296,-5.297773 0.97075,-4.205558 0.18758,-5.492634 -2.33607,-3.839081 -1.13042,0.740685 -1.90162,2.21598 -2.55254,4.882987 -0.87034,3.565987 -2.56276,5.726327 -2.56276,3.2713 z M 7.3333332,25.017435 c 0,-0.601521 0.3278986,-2.395878 0.7286633,-3.98746 0.4007647,-1.591581 0.597982,-3.449427 0.4382607,-4.128546 -0.23638,-1.005062 -0.448724,-0.862706 -1.141462,0.765238 -0.468082,1.1 -0.9847552,1.641631 -1.1481626,1.203626 -0.8008508,-2.146643 2.9209872,-4.814706 4.0862374,-2.92929 0.219658,0.355412 1.210495,0.292516 2.386857,-0.15151 1.544956,-0.583156 2.320715,-0.565944 3.345805,0.07423 0.949134,0.592744 1.702456,0.636497 2.608661,0.15151 3.879645,-2.076323 5.836788,0.207913 4.357055,5.085239 -1.163431,3.834772 -1.196336,4.232856 -0.349873,4.232856 0.354956,0 1.092945,-0.825 1.639974,-1.833333 0.54703,-1.008333 1.006612,-1.438611 1.021292,-0.956173 C 25.360039,24.298616 23.919922,26 22.381203,26 20.206436,26 19.90452,24.681903 21.171665,20.719437 21.985381,18.174885 22.066722,17.133389 21.496288,16.562955 20.181286,15.247953 17.480874,17.62802 16.653162,20.831551 15.4199,25.604701 15.26453,26 14.621741,26 c -0.820938,0 -0.784197,-1.194487 0.162957,-5.297775 0.970758,-4.205556 0.187579,-5.492632 -2.336062,-3.839079 -1.130428,0.740685 -1.90163,2.21598 -2.5525515,4.882987 -0.8703314,3.565988 -2.5627513,5.726329 -2.5627513,3.271302 z m 57.6666658,0.315898 c 0.226612,-0.366666 0.994317,-0.666666 1.706013,-0.666666 2.014773,0 1.49602,-1.559388 -0.887108,-2.666667 -4.158653,-1.932245 -2.681936,-6.951712 2.553508,-8.679565 2.53224,-0.835714 3.63294,-2.653768 1.606667,-2.653768 -0.721827,0 -1.312414,-0.3 -1.312414,-0.666667 0,-0.870066 7.128933,-0.870066 7.666667,0 0.23368,0.378105 -0.326414,0.666667 -1.293987,0.666667 -1.97576,0 -2.372327,1.805546 -0.539347,2.455589 2.004234,0.710776 3.5,2.358828 3.5,3.856341 0,1.749596 -2.95442,4.627802 -5.624999,5.479896 -2.339534,0.746469 -3.06584,2.208174 -1.09722,2.208174 0.763886,0 1.388886,0.3 1.388886,0.666666 0,0.371092 -1.790893,0.666667 -4.039346,0.666667 -2.523132,0 -3.884686,-0.250241 -3.62732,-0.666667 z m 4.286633,-7.051724 c 0.457673,-2.045116 0.698353,-3.852177 0.53484,-4.015693 -1.038207,-1.038203 -4.48814,2.794959 -4.48814,4.986692 0,0.773283 1.874093,2.747392 2.6082,2.747392 0.282127,0 0.88742,-1.673276 1.3451,-3.718391 z m 4.451746,2.040617 c 1.973767,-1.973769 2.05586,-5.827597 0.131894,-6.191868 -0.838087,-0.158678 -1.3216,0.528307 -1.873013,2.661207 -0.408807,1.581306 -0.895647,3.400102 -1.081867,4.041768 -0.488047,1.681717 0.877373,1.434504 2.822986,-0.511107 z"
         id="path276" />
      <path
         style="fill:#4e4e4e;stroke-width:0.666667"
         d="m 49.999999,45.960655 c 0,-26.660282 0.227459,-40.5654332 0.659202,-40.2986017 0.909424,0.5620547 0.913584,81.0046137 0.0042,81.0046137 -0.432834,0 -0.663391,-14.147107 -0.663391,-40.706012 z m 37.333333,30.233052 c -2.183554,-0.802874 -3.331687,-2.52746 -3.742034,-5.620847 -0.23636,-1.78174 -0.635846,-3.239527 -0.88776,-3.239527 -0.251913,0 -1.134893,1.204334 -1.962186,2.6763 -0.827287,1.471967 -1.782534,2.50426 -2.12276,2.293994 -1.232747,-0.76188 -0.569654,-2.50196 1.7701,-4.645094 2.902206,-2.658314 3.052086,-5.450278 0.27582,-5.137935 l -1.664514,0.187265 1.44448,-1.446562 c 1.649807,-1.652178 3.492527,-1.31286 4.0299,0.742064 0.4545,1.738018 0.966507,1.677719 2.858954,-0.336698 1.886606,-2.008202 3.333333,-2.152874 3.333333,-0.333334 0,0.954278 -0.444447,1.333334 -1.56334,1.333334 -3.31346,0 -4.5485,3.50378 -3.0882,8.761173 0.916933,3.301133 2.322827,4.431507 4.117606,3.310647 0.944127,-0.589614 1.570034,-0.63572 2.054427,-0.151327 0.484393,0.484393 0.14256,0.90728 -1.122,1.388067 -1.9779,0.751993 -2.239247,0.767293 -3.731826,0.21848 z M 112.15481,60.5 l 0.17852,-16.166667 43.5,-0.171494 43.5,-0.171494 v 16.33816 16.338162 h -43.67852 -43.67852 z m 86.3577,0 0.17919,-15.166667 h -43.01252 -43.01252 v 14.888889 c 0,8.188891 0.2022,15.091091 0.44934,15.338225 0.24714,0.24714 19.52214,0.37214 42.83334,0.27778 l 42.38399,-0.17156 z m -37.17918,7.855133 c 0,-0.518713 0.3,-1.12852 0.66667,-1.355133 1.82945,-1.130665 0.0233,-1.640796 -6.5,-1.835858 l -7.16667,-0.2143 7.54383,-0.141587 c 6.41592,-0.120419 9.28797,-0.629926 10.74084,-1.905446 0.15656,-0.137456 -0.29344,-0.687278 -1,-1.221828 -0.92662,-0.701026 -3.51437,-1.017282 -9.28467,-1.1347 l -8,-0.16279 7.16667,-0.2143 c 6.5233,-0.195062 8.32945,-0.705192 6.5,-1.835858 -0.36667,-0.226612 -0.66667,-0.91267 -0.66667,-1.524574 0,-0.750453 0.64197,-0.333729 1.97247,1.280394 1.08486,1.316119 2.88486,2.770868 4,3.232776 2.14906,0.89017 2.71206,2.011404 1.00998,2.011404 -0.55964,0 -2.35964,1.342106 -4,2.982456 -1.64034,1.640351 -2.98245,2.558058 -2.98245,2.039344 z m -39.36281,-0.723986 c -3.0098,-3.626588 1.64902,-10.54047 6.31365,-9.369723 1.90941,0.479231 2.47565,3.071909 0.6709,3.071909 -0.74154,0 -0.92205,-0.387119 -0.62174,-1.333333 0.32248,-1.016053 0.1198,-1.333333 -0.85175,-1.333333 -2.44358,0 -5.24645,4.856548 -4.50586,7.807311 C 123.26311,67.619 123.83452,68 125.2644,68 c 1.04812,0 2.27914,-0.45 2.7356,-1 0.45646,-0.55 1.16819,-0.990019 1.58162,-0.977821 0.41344,0.0122 0.0435,0.612199 -0.82214,1.333334 -1.88279,1.568514 -5.59102,1.719067 -6.78896,0.275634 z m 56.39925,0.516406 C 177.62023,67.398013 178.0305,66 179,66 c 0.55,0 1,0.45 1,1 0,1.162207 1.04998,1.331147 1.7033,0.27406 0.78689,-1.273222 2.092,-6.909351 1.80016,-7.77406 -0.46684,-1.383285 -1.97752,-0.942437 -3.42674,1 -0.7523,1.008333 -1.37732,1.458333 -1.38894,1 -0.0561,-2.215887 4.5742,-4.566815 5.63001,-2.858473 0.24949,0.40367 0.98984,0.371176 1.99683,-0.08764 0.8802,-0.401042 2.06948,-0.549144 2.64286,-0.329116 1.141,0.437842 1.44946,2.441896 0.37585,2.441896 -1.28032,0 -1.66523,-0.300168 -1.47077,-1.146965 0.41274,-1.797329 -1.30682,-0.748624 -2.15396,1.313631 -1.71154,4.166534 -1.92854,6.457447 -0.65786,6.945054 0.7697,0.295366 1.56846,-0.06427 2.38643,-1.074407 1.33886,-1.653419 1.61927,-1.344637 0.56605,0.62332 -0.54388,1.016247 -1.43836,1.235173 -4.96355,1.214833 -2.36507,-0.01367 -4.46652,-0.191206 -4.6699,-0.39458 z m -43.61232,-9.980886 c -0.094,-1.552417 -1.03675,-1.99946 -1.75745,-0.833334 -0.51958,0.840691 -1.66667,0.871611 -1.66667,0.04493 0,-0.341958 0.65188,-0.828639 1.44861,-1.081514 l 1.44862,-0.459773 -1.61528,-0.956524 L 131,53.923925 l 1.91765,0.405236 c 1.53635,0.324658 1.8404,0.203906 1.52912,-0.607278 -0.2137,-0.556884 -0.10165,-1.189828 0.24901,-1.406543 0.35065,-0.216715 0.63755,0.243893 0.63755,1.023575 0,1.147967 0.28531,1.33909 1.5,1.004826 1.44398,-0.397363 1.45261,-0.37483 0.231,0.603396 -1.14539,0.917196 -1.16163,1.057376 -0.16667,1.439178 0.60629,0.232653 1.10234,0.701463 1.10234,1.041802 0,0.356427 -0.54574,0.326724 -1.28714,-0.07006 -1.07481,-0.575225 -1.33476,-0.441634 -1.57588,0.809877 l -0.28874,1.498729 z m -69.037047,6.135151 c -1.7532,-4.614577 -3.015049,-8.562729 -2.804108,-8.773669 0.21094,-0.210941 0.987184,1.024744 1.724986,2.745966 l 1.341459,3.129496 3.456225,-0.201806 c 3.419333,-0.199651 3.46628,-0.23205 4.39752,-3.035138 0.517713,-1.558334 1.216293,-2.833334 1.5524,-2.833334 0.336113,0 0.611113,0.120366 0.611113,0.267478 0,0.663805 -6.146306,16.121922 -6.591779,16.578502 -0.2751,0.281954 -1.934614,-3.26292 -3.687816,-7.877495 z m 5.151196,1.864849 C 71.495845,64.425 72.005112,62.775 72.003299,62.5 c -0.0018,-0.275 -1.2033,-0.5 -2.669967,-0.5 -1.649807,0 -2.666667,0.30927 -2.666667,0.811045 0,1.246576 2.123734,6.522288 2.62554,6.522288 0.24442,0 0.955147,-1.425 1.579394,-3.166666 z M 261.05373,64.301818 c -1.7532,-4.614577 -3.01505,-8.562729 -2.80411,-8.773669 0.21094,-0.210941 0.98719,1.024744 1.72499,2.745966 l 1.34146,3.129496 3.45622,-0.201806 c 3.41934,-0.199651 3.46628,-0.23205 4.39752,-3.035138 0.51772,-1.558334 1.2163,-2.833334 1.5524,-2.833334 0.33612,0 0.61112,0.120366 0.61112,0.267478 0,0.663805 -6.14631,16.121922 -6.59178,16.578502 -0.2751,0.281954 -1.93462,-3.26292 -3.68782,-7.877495 z m 5.1512,1.864849 C 266.82917,64.425 267.33844,62.775 267.33663,62.5 c -0.002,-0.275 -1.2033,-0.5 -2.66997,-0.5 -1.64981,0 -2.66667,0.30927 -2.66667,0.811045 0,1.246576 2.12374,6.522288 2.62554,6.522288 0.24442,0 0.95515,-1.425 1.5794,-3.166666 z m -170.038265,5.05848 c 2.43958,-0.891014 2.31584,-2.105487 -0.333334,-3.2715 -3.141046,-1.382515 -3.35732,-4.447068 -0.484433,-6.864441 1.1477,-0.96573 2.603713,-1.755873 3.235587,-1.755873 1.167326,0 2.748845,-1.20071 2.748845,-2.086966 0,-0.267831 -0.675,-0.616976 -1.499999,-0.775878 -0.825,-0.158902 0.449999,-0.284818 2.833329,-0.279813 2.38334,0.005 3.53373,0.131627 2.55642,0.281383 -2.75108,0.421558 -2.88847,2.037973 -0.26634,3.133572 4.4975,1.879172 3.3098,6.43339 -2.1838,8.373816 -3.065555,1.0828 -3.572042,2.408986 -1.27294,3.333113 1.12059,0.45042 0.40394,0.6003 -2.833335,0.592553 -3.680807,-0.0088 -4.05726,-0.111206 -2.5,-0.679966 z M 99.510178,64 c 0.941602,-3.737977 0.931902,-4 -0.147967,-4 -2.716106,0 -4.917246,5.016392 -3.02948,6.90416 1.71804,1.71804 2.101367,1.36768 3.177447,-2.90416 z m 4.186782,2.363637 c 2.03957,-2.039564 2.21176,-5.342119 0.33102,-6.348662 -1.37052,-0.733478 -1.43032,-0.613374 -3.06332,6.151692 -0.56095,2.323866 0.52698,2.402293 2.7323,0.19697 z m 169.4697,4.822703 c 1.40552,-0.67786 1.5,-1.13828 1.5,-7.309699 0,-6.20712 -0.0863,-6.620982 -1.5,-7.1892 -1.12939,-0.453962 -0.51172,-0.590936 2.5,-0.554396 2.2,0.02669 3.325,0.178542 2.5,0.337444 -1.44157,0.277658 -1.5,0.560623 -1.5,7.264028 0,6.610363 0.0784,7.006643 1.5,7.578043 1.14152,0.458833 0.54406,0.60224 -2.5,0.60006 -3.35416,-0.0027 -3.75781,-0.119667 -2.5,-0.72628 z m 16.84125,-0.01967 c 0.005,-0.458333 0.44538,-2.477293 0.98008,-4.48658 1.10248,-4.14292 0.3683,-5.879198 -1.23482,-2.920274 -0.59052,1.089938 -1.04456,1.46163 -1.05982,0.867608 -0.0147,-0.571586 0.389,-1.60774 0.89707,-2.302563 0.75023,-1.02601 1.21492,-1.133396 2.47378,-0.571676 1.07624,0.480232 2.12275,0.475459 3.42375,-0.01561 1.39,-0.524667 2.21826,-0.492097 3.20824,0.12616 0.99918,0.624 1.68129,0.647826 2.71458,0.09482 0.75904,-0.406225 2.13887,-0.548148 3.06628,-0.315382 1.57616,0.395591 1.66235,0.627702 1.32066,3.556687 -0.20106,1.723411 -0.57278,3.808478 -0.82606,4.633478 -0.65723,2.140813 0.76828,1.900873 1.98036,-0.333334 0.54703,-1.008333 0.99707,-1.383333 1.00009,-0.833333 0.009,1.582647 -1.63873,3.333333 -3.13671,3.333333 -1.90005,0 -2.1,-1.10242 -0.9428,-5.198146 0.72644,-2.571134 0.7981,-3.731162 0.26349,-4.26577 -1.28646,-1.286457 -3.99913,1.132884 -4.81626,4.29547 -1.23326,4.773146 -1.38863,5.168446 -2.03142,5.168446 -0.82093,0 -0.78419,-1.194486 0.16296,-5.297773 0.58155,-2.5194 0.59041,-3.593787 0.0342,-4.149965 -1.30364,-1.303644 -4.00891,1.091962 -4.83243,4.279292 -1.23326,4.773146 -1.38863,5.168446 -2.03142,5.168446 -0.34196,0 -0.61818,-0.375 -0.61383,-0.833333 z m -282.6666642,-46 c 0.00433,-0.458333 0.44539,-2.477295 0.9800847,-4.486582 1.1024786,-4.142918 0.3683,-5.879196 -1.234826,-2.920272 -0.5905208,1.089938 -1.0445562,1.46163 -1.0598129,0.867608 -0.014681,-0.571586 0.3889998,-1.60774 0.8970669,-2.302563 0.7502367,-1.02601 1.2149213,-1.133396 2.473782,-0.571676 1.0762405,0.480232 2.1227505,0.475459 3.4237525,-0.01561 1.390001,-0.524667 2.218252,-0.492097 3.208239,0.12616 0.999182,0.624 1.681287,0.647826 2.714583,0.09482 0.75904,-0.406225 2.138864,-0.548148 3.066275,-0.315382 1.576162,0.395591 1.662348,0.627702 1.320653,3.556687 -0.201053,1.723413 -0.572776,3.808478 -0.826051,4.633478 -0.657232,2.140815 0.76828,1.900874 1.980357,-0.333334 0.54703,-1.008333 0.99707,-1.383333 1.00009,-0.833333 0.0087,1.582647 -1.638731,3.333333 -3.136712,3.333333 -1.900047,0 -2.099995,-1.102417 -0.942797,-5.198146 0.726442,-2.571134 0.798094,-3.731162 0.263487,-4.26577 -1.286457,-1.286457 -3.999123,1.132884 -4.816255,4.295467 C 15.4199,25.604701 15.26453,26 14.621741,26 c -0.820938,0 -0.784197,-1.194487 0.162957,-5.297775 0.581546,-2.519398 0.590408,-3.593785 0.03423,-4.149963 -1.303644,-1.303644 -4.008907,1.091961 -4.8324325,4.279289 C 8.7532332,25.604701 8.5978638,26 7.9550745,26 7.6131172,26 7.3368938,25.625 7.3412458,25.166667 Z m 58.8254192,0.05847 c 2.43958,-0.891012 2.31584,-2.105484 -0.333333,-3.271501 -3.141049,-1.382513 -3.357319,-4.447066 -0.484435,-6.864439 1.147704,-0.96573 2.603715,-1.755873 3.235588,-1.755873 1.167327,0 2.748847,-1.20071 2.748847,-2.086966 0,-0.267831 -0.675,-0.616976 -1.5,-0.775878 -0.825,-0.158902 0.45,-0.284818 2.833333,-0.279813 2.383333,0.005 3.533727,0.131627 2.55642,0.281383 -2.751086,0.421558 -2.888473,2.037973 -0.26634,3.133572 4.497493,1.879172 3.3098,6.43339 -2.183807,8.373813 -3.065553,1.082801 -3.572039,2.40899 -1.272939,3.333115 1.120593,0.450423 0.40394,0.600302 -2.833334,0.592552 -3.680804,-0.0088 -4.057263,-0.111204 -2.5,-0.679965 z M 69.510179,18 c 0.9416,-3.737977 0.931906,-4 -0.147967,-4 -2.716104,0 -4.91725,5.016392 -3.029479,6.904163 C 68.050772,22.6222 68.434099,22.271839 69.510179,18 Z m 4.186786,2.363637 c 2.039567,-2.039564 2.21176,-5.342119 0.331013,-6.348662 -1.370513,-0.733478 -1.430319,-0.613374 -3.063313,6.151692 -0.560953,2.323866 0.52698,2.402294 2.7323,0.19697 z"
         id="path274" />
      <path
         style="fill:#2d2d2d;stroke-width:0.666667"
         d="m 50.299704,64 c 0,-12.65 0.08965,-17.825 0.199224,-11.5 0.109572,6.325 0.109572,16.675 0,23 -0.109573,6.325 -0.199224,1.15 -0.199224,-11.5 z m 37.183874,12.147853 c -1.948833,-0.314726 -3.298026,-2.407553 -3.872546,-6.006966 -0.534354,-3.347774 -1.36942,-3.330227 -3.131814,0.0658 -0.70168,1.3521 -1.546553,2.291026 -1.8775,2.086486 -1.223246,-0.756006 -0.532753,-2.412006 2.009734,-4.819946 2.219826,-2.102344 2.520406,-2.70514 2.004353,-4.019554 -0.45378,-1.155784 -0.944933,-1.439082 -1.944787,-1.121741 -1.83568,0.582622 -1.67836,-0.078 0.33232,-1.395443 1.960934,-1.284855 3.663327,-0.382122 3.663327,1.942565 0,1.247584 0.214513,1.174567 2.198407,-0.748296 C 88.074192,60.95885 89.446191,60 89.913951,60 c 1.323067,0 0.573514,2.184814 -0.819473,2.388621 -0.681366,0.09969 -1.909633,0.811426 -2.72948,1.581632 -1.361,1.278588 -1.439706,1.725155 -0.905013,5.134827 0.322087,2.053953 0.885913,4.29556 1.25294,4.981353 0.757867,1.416094 2.631986,1.63532 3.820406,0.4469 0.60974,-0.60974 0.98506,-0.61494 1.578147,-0.02187 0.59308,0.59308 0.513807,0.862613 -0.333333,1.133333 -2.0867,0.666833 -2.77854,0.747873 -4.294567,0.50304 z M 112,60.666667 c 0,-8.8 0.225,-16.000132 0.5,-16.000294 0.275,-1.62e-4 0.5,6.974838 0.5,15.5 v 15.500294 l 42.85684,0.171573 42.85684,0.171573 -0.19017,-15.672118 c -0.1046,-8.619666 0.0348,-15.671874 0.30982,-15.671574 0.275,3e-4 0.5,7.200546 0.5,16.000546 v 16 H 155.66666 112 Z m -45.863179,4.5 c -3.310432,-8.605835 -3.775654,-10.100832 -2.992648,-9.616907 0.341195,0.21087 1.025777,1.611845 1.521295,3.113279 l 0.900941,2.729878 3.633343,-0.196458 c 3.605006,-0.194926 3.64204,-0.218751 4.747733,-3.054411 0.612913,-1.571873 1.288667,-2.683669 1.50168,-2.470659 C 75.938312,56.160533 69.938179,72 69.263745,72 68.989665,72 67.582552,68.925 66.136821,65.166667 Z M 70.343752,67.5389 C 72.517792,62.335689 72.460932,62 69.405605,62 67.660659,62 66.665469,62.302426 66.663368,62.833333 66.659768,63.739171 68.808305,70 69.122745,70 c 0.10598,0 0.655434,-1.107493 1.221007,-2.4611 z m 25.652746,3.865413 c 2.42918,-0.67592 2.442273,-2.39414 0.02587,-3.395046 -2.070087,-0.85746 -3.175094,-3.114366 -2.449987,-5.003961 0.35988,-0.937829 4.230367,-3.664042 5.209673,-3.669481 0.246794,-0.0014 -0.428206,0.874432 -1.5,1.946226 -2.26914,2.269138 -2.568453,5.006034 -0.659213,6.027829 C 97.332065,67.689447 98.052145,68 98.223011,68 c 0.42972,0 2.030639,-6.736787 1.937589,-8.15354 -0.0417,-0.634447 0.20515,-1.327152 0.54848,-1.539345 1.08872,-0.672866 0.67636,-1.537677 -0.875749,-1.836626 -0.825,-0.158902 0.299999,-0.288913 2.499999,-0.288913 2.2,0 3.35037,0.126687 2.55637,0.281526 -2.45476,0.478707 -2.42009,2.103337 0.067,3.142529 4.4975,1.879172 3.3098,6.43339 -2.1838,8.373816 -3.086269,1.090113 -3.794202,3.064446 -1.27294,3.550066 0.825,0.1589 -0.45,0.29986 -2.833335,0.313247 -2.73082,0.01533 -3.718274,-0.146807 -2.670167,-0.438447 z m 7.230572,-4.471586 c 2.94721,-2.064304 3.21623,-6.108316 0.47629,-7.159727 -0.7234,-0.277598 -1.1797,0.300497 -1.64824,2.088234 -1.78833,6.823306 -1.72435,7.100139 1.17195,5.071493 z m 158.24308,-1.76606 c -3.31043,-8.605835 -3.77566,-10.100832 -2.99265,-9.616907 0.34119,0.21087 1.02578,1.611845 1.52129,3.113279 l 0.90095,2.729878 3.63334,-0.196458 c 3.60501,-0.194926 3.64204,-0.218751 4.74773,-3.054411 0.61292,-1.571873 1.28867,-2.683669 1.50168,-2.470659 C 271.27164,56.160533 265.27151,72 264.59707,72 c -0.27408,0 -1.68119,-3.075 -3.12692,-6.833333 z m 4.20693,2.372233 C 267.85112,62.335689 267.79426,62 264.73893,62 c -1.74494,0 -2.74013,0.302426 -2.74224,0.833333 -0.003,0.905838 2.14494,7.166667 2.45938,7.166667 0.10598,0 0.65544,-1.107493 1.22101,-2.4611 z m 7.48958,3.77366 c 1.42156,-0.5714 1.5,-0.96768 1.5,-7.578043 0,-6.703405 -0.0584,-6.98637 -1.5,-7.264028 -0.825,-0.158902 0.3,-0.288913 2.5,-0.288913 2.2,0 3.325,0.130011 2.5,0.288913 -1.44157,0.277658 -1.5,0.560623 -1.5,7.264028 0,6.610363 0.0784,7.006643 1.5,7.578043 1.14226,0.459133 0.54603,0.602927 -2.5,0.602927 -3.04603,0 -3.64226,-0.143794 -2.5,-0.602927 z m 16.84125,-0.145893 c 0.005,-0.458334 0.44538,-2.477294 0.98008,-4.48658 1.11028,-4.172215 0.37515,-5.841712 -1.28587,-2.920274 -1.008,1.772886 -1.05378,1.78976 -0.65155,0.240187 0.66067,-2.545241 1.39284,-3.011451 3.20572,-2.04123 0.92703,0.496132 1.9939,0.631957 2.5012,0.318431 0.48654,-0.300702 0.21514,0.304372 -0.6031,1.344607 -0.81826,1.040235 -1.4894,2.225879 -1.49145,2.634765 C 292.65448,67.94884 291.22429,72 290.63533,72 c -0.34944,0 -0.63178,-0.375 -0.62742,-0.833333 z m 6.91026,-1 c 0.22382,-1.008334 0.5971,-3.22896 0.82952,-4.934723 0.36468,-2.676577 0.2511,-3.145396 -0.82924,-3.422666 -1.06804,-0.274115 -1.03646,-0.332629 0.21508,-0.398611 0.80678,-0.04253 1.75719,0.441422 2.11201,1.075457 0.60723,1.085069 0.7251,1.080427 2.00627,-0.07901 0.96567,-0.873921 1.87725,-1.102266 3.13758,-0.785943 1.65927,0.41645 1.75038,0.630552 1.38118,3.24568 -0.2174,1.539901 -0.58969,3.62482 -0.82731,4.633153 -0.26834,1.1387 -0.15806,1.833333 0.29106,1.833333 0.3977,0 1.17066,-0.825 1.71769,-1.833333 0.54703,-1.008333 1.00661,-1.491567 1.02129,-1.073853 0.0545,1.549086 -2.39685,3.8098 -3.62145,3.33988 -0.97823,-0.375387 -1.10377,-0.89764 -0.70779,-2.944507 0.26474,-1.3685 0.63667,-3.309731 0.82651,-4.31384 0.24631,-1.302775 0.0303,-1.946479 -0.7542,-2.247521 -1.75257,-0.672523 -3.69171,1.671258 -4.86032,5.874521 -1.0638,3.826273 -2.72214,5.565147 -1.93788,2.031987 z m -135.58484,-1.78228 c 0,-0.5348 0.3,-1.157774 0.66667,-1.384387 1.82945,-1.130665 0.0233,-1.640796 -6.5,-1.835858 l -7.16667,-0.2143 8,-0.16279 c 5.79711,-0.117964 8.35634,-0.432313 9.29409,-1.141587 1.281,-0.968904 1.281,-0.988693 0,-1.957596 -0.93775,-0.709275 -3.49698,-1.023624 -9.29409,-1.141588 l -8,-0.16279 7.16667,-0.2143 c 6.5233,-0.195062 8.32945,-0.705192 6.5,-1.835858 -0.36667,-0.226612 -0.66667,-0.91267 -0.66667,-1.524574 0,-0.750453 0.64197,-0.333729 1.97247,1.280394 1.08486,1.316119 2.88486,2.770868 4,3.232776 2.20052,0.911484 2.69992,2.011404 0.91325,2.011404 -0.61285,0 -2.41285,1.355268 -4,3.011706 -1.59649,1.666194 -2.88572,2.577294 -2.88572,2.039348 z m -39.2,-0.51772 c -1.12534,-1.12534 -0.99503,-4.949254 0.2325,-6.822704 1.27603,-1.947474 4.40552,-3.312178 6.25169,-2.726228 1.61371,0.512172 1.89393,3.015598 0.33755,3.015598 -0.74154,0 -0.92205,-0.387119 -0.62174,-1.333333 0.32248,-1.016053 0.1198,-1.333333 -0.85175,-1.333333 -2.44358,0 -5.24645,4.856548 -4.50586,7.807311 0.46436,1.850115 2.86034,2.046002 5.54773,0.453555 l 1.80988,-1.07247 -1.57385,1.405804 c -1.73505,1.549773 -5.35154,1.880413 -6.62615,0.6058 z M 178.33333,68 c -0.48613,-0.78658 0.14445,-2 1.03935,-2 0.34502,0 0.62732,0.45 0.62732,1 0,1.766907 1.37363,1.067513 2.29139,-1.166667 1.71303,-4.170147 1.92873,-6.457375 0.6551,-6.946115 -0.80923,-0.310529 -1.63015,0.142943 -2.71645,1.50055 -0.85622,1.070061 -1.55824,1.622859 -1.56006,1.228441 -0.002,-0.394418 0.74372,-1.418924 1.65676,-2.276681 1.43369,-1.346887 1.89076,-1.454446 3.35179,-0.788757 1.28663,0.58623 1.99361,0.582268 2.95246,-0.01654 0.98361,-0.61427 1.49084,-0.596373 2.30753,0.08142 0.57574,0.477819 0.8824,1.13477 0.68146,1.459891 C 189.02304,61.041395 188,60.748101 188,59.611111 c 0,-0.580556 -0.375,-0.933403 -0.83334,-0.784105 -1.07407,0.349869 -2.2282,2.839839 -2.78803,6.015032 -0.56304,3.193409 1.14058,4.230522 3.05854,1.861942 0.67622,-0.835096 1.22949,-1.23162 1.22949,-0.881161 0,0.941214 -2.28753,2.843848 -3.41916,2.843848 -0.53946,0 -1.34084,-0.36 -1.78084,-0.8 -0.62222,-0.62222 -0.97778,-0.62222 -1.6,0 -0.97192,0.971926 -2.96849,1.047266 -3.53333,0.133333 z m -43.57588,-9.878259 c -0.0743,-1.265078 -0.36249,-1.470641 -1.59079,-1.134833 -1.38526,0.378723 -1.40307,0.349825 -0.23278,-0.377806 1.21635,-0.756271 1.20297,-0.825977 -0.33333,-1.736538 L 131,53.923923 l 1.78437,0.371784 c 1.33736,0.278648 1.86077,0.07942 2.08933,-0.795294 0.28079,-1.074564 0.31109,-1.071035 0.3823,0.04451 0.0589,0.923565 0.43392,1.113463 1.57733,0.798814 1.44398,-0.397363 1.45261,-0.374829 0.231,0.603397 -1.14539,0.917196 -1.16163,1.057375 -0.16667,1.439178 0.60629,0.232652 1.10234,0.701462 1.10234,1.041801 0,0.356427 -0.54574,0.326724 -1.28714,-0.07006 -1.07481,-0.575225 -1.33476,-0.441633 -1.57588,0.809877 l -0.28874,1.49873 z M 50.29181,23 c -3.57e-4,-9.9 0.09242,-14.042936 0.206176,-9.206525 0.113754,4.836412 0.114046,12.936412 6.5e-4,18 C 50.385239,36.857064 50.292168,32.9 50.29181,23 Z M 7.3412458,25.166667 c 0.00433,-0.458334 0.44539,-2.477296 0.9800847,-4.486582 1.110274,-4.172213 0.3751507,-5.84171 -1.2858733,-2.920272 -1.0079994,1.772886 -1.0537747,1.78976 -0.65155,0.240187 0.6606713,-2.545241 1.3928466,-3.011451 3.2057199,-2.04123 0.9270319,0.496132 1.9939009,0.631957 2.5011969,0.318431 0.486545,-0.300702 0.215151,0.304372 -0.603098,1.344607 -0.81825,1.040235 -1.4893995,2.225879 -1.4914442,2.634765 C 9.9878185,21.948837 8.5576258,26 7.9686638,26 c -0.349432,0 -0.63177,-0.375 -0.627418,-0.833333 z m 6.9102632,-1 c 0.22382,-1.008334 0.597102,-3.228959 0.829515,-4.934723 0.364687,-2.676577 0.251104,-3.145396 -0.829228,-3.422666 -1.06804,-0.274115 -1.036468,-0.332629 0.215077,-0.398611 0.80678,-0.04253 1.757183,0.441422 2.112007,1.075457 0.607235,1.085069 0.725097,1.080427 2.006264,-0.07901 0.965672,-0.873921 1.877253,-1.102266 3.137583,-0.785943 1.65927,0.41645 1.75038,0.630552 1.381179,3.24568 -0.2174,1.539901 -0.58969,3.62482 -0.827308,4.633153 -0.268341,1.138701 -0.158062,1.833333 0.291059,1.833333 0.397701,0 1.170663,-0.825 1.717692,-1.833333 0.54703,-1.008333 1.006612,-1.491569 1.021292,-1.073856 0.05444,1.549087 -2.396858,3.809801 -3.621447,3.339881 -0.978236,-0.375384 -1.103774,-0.897638 -0.707796,-2.944506 0.264744,-1.368502 0.636677,-3.30973 0.826516,-4.313839 0.246307,-1.302775 0.0303,-1.946479 -0.754206,-2.247521 -1.752568,-0.672523 -3.69171,1.671258 -4.860321,5.87452 -1.0638,3.826277 -2.722134,5.565146 -1.937878,2.031988 z m 51.744989,1.23765 c 2.429181,-0.675922 2.442274,-2.394144 0.02587,-3.395052 -2.070088,-0.857459 -3.17509,-3.114364 -2.449985,-5.003959 0.359879,-0.937829 4.230365,-3.664042 5.209672,-3.669481 0.246793,-0.0014 -0.428207,0.874432 -1.5,1.946226 -2.26914,2.269138 -2.568451,5.006034 -0.659214,6.027826 C 67.332065,21.689445 68.052145,22 68.223012,22 c 0.42972,0 2.03064,-6.736787 1.937593,-8.15354 -0.04167,-0.634447 0.205147,-1.327152 0.54848,-1.539345 1.08872,-0.672866 0.676354,-1.537677 -0.875753,-1.836626 -0.825,-0.158902 0.3,-0.288913 2.5,-0.288913 2.2,0 3.350366,0.126687 2.556366,0.281526 -2.454753,0.478707 -2.420086,2.103337 0.06705,3.142529 4.497493,1.879172 3.3098,6.43339 -2.183807,8.373813 -3.086266,1.090115 -3.794199,3.064452 -1.272939,3.550067 0.825,0.158902 -0.45,0.299864 -2.833334,0.313248 -2.730818,0.01533 -3.718276,-0.146806 -2.670167,-0.438442 z m 7.230574,-4.471593 c 2.947206,-2.064301 3.216226,-6.108313 0.476293,-7.159724 -0.723407,-0.277598 -1.1797,0.300497 -1.648246,2.088234 -1.788327,6.823303 -1.724347,7.100141 1.171953,5.07149 z"
         id="path272" />
      <path
         style="fill:#030303;stroke-width:0.666667"
         d="m 50.299704,64 c 0,-12.65 0.08965,-17.825 0.199224,-11.5 0.109572,6.325 0.109572,16.675 0,23 -0.109573,6.325 -0.199224,1.15 -0.199224,-11.5 z m 35.122674,10.755713 c -0.684353,-0.684353 -1.455433,-2.652326 -1.7135,-4.373273 -0.550326,-3.669813 -1.429266,-3.698747 -3.451573,-0.113613 -1.19554,2.119453 -1.481313,2.313873 -1.883653,1.281506 -0.35534,-0.911773 0.232433,-1.84738 2.34358,-3.73044 2.609046,-2.327176 2.759586,-2.641356 2.031433,-4.239484 -0.604173,-1.326021 -1.129693,-1.63992 -2.267553,-1.354437 -1.473334,0.369652 -1.472847,0.364782 0.09274,-0.927184 2.125706,-1.754188 2.745953,-1.641465 3.613413,0.656697 l 0.738113,1.955486 2.243887,-1.970162 c 1.23414,-1.08359 2.525933,-1.795853 2.870646,-1.582808 1.06858,0.66042 0.693994,1.479037 -0.873246,1.908351 -0.825,0.225993 -2.170467,0.977933 -2.989927,1.670979 -1.402113,1.185814 -1.44746,1.489831 -0.76934,5.158109 0.39632,2.14392 1.002347,4.4245 1.34672,5.06796 0.676094,1.263307 3.569127,1.598273 4.2526,0.492393 0.230307,-0.372646 0.730047,-0.485146 1.11052,-0.25 1.073513,0.663467 -0.81076,1.572347 -3.283907,1.584 -1.237519,0.006 -2.700259,-0.523386 -3.410953,-1.23408 z M 112.2875,60.333333 c 4.4e-4,-8.8 0.0953,-12.307795 0.2108,-7.7951 0.11551,4.512694 0.11516,11.712694 -6.6e-4,16 -0.11607,4.287307 -0.21058,0.5951 -0.21014,-8.2049 z m 86.66666,0 c 4.4e-4,-8.8 0.0953,-12.307795 0.21081,-7.7951 0.11551,4.512694 0.11515,11.712694 -6.7e-4,16 -0.11606,4.287307 -0.21057,0.5951 -0.21014,-8.2049 z M 66.006275,64.5 c -3.691016,-9.665616 -3.684218,-9.644558 -2.851597,-8.833333 0.376338,0.366666 1.043757,1.791666 1.483154,3.166666 0.79454,2.486348 0.818794,2.5 4.441207,2.5 h 3.642299 L 73.980245,58.5 c 2.278713,-5.128551 1.42306,-1.640823 -1.47194,5.999766 -1.5629,4.124874 -3.02082,7.499874 -3.23982,7.500001 -0.219,1.26e-4 -1.686993,-3.374767 -3.26221,-7.499767 z m 4.684084,2.444727 C 72.634232,62.409857 72.488205,62 68.928672,62 c -2.661647,0 -3.007942,0.155619 -2.596149,1.166667 0.261346,0.641666 0.921642,2.441666 1.467329,4 C 68.345532,68.725 68.924465,70 69.086359,70 c 0.161893,0 0.883693,-1.374873 1.604,-3.055273 z m 25.144432,4.584593 c 1.69498,-0.326367 3.475087,-2.855547 2.021994,-2.87286 -0.684987,-0.0081 -0.681647,-0.12128 0.01667,-0.564133 0.480394,-0.304654 1.450247,-2.77506 2.155235,-5.489789 1.56653,-6.032225 1.56066,-5.771206 0.13799,-6.142987 -0.641658,-0.167686 0.33334,-0.320667 2.16667,-0.339959 2.38517,-0.0251 2.94623,0.121789 1.97243,0.516397 -1.02132,0.413863 -1.65814,1.812212 -2.55203,5.603898 -0.65511,2.778834 -0.99999,5.361653 -0.76641,5.7396 0.23358,0.377953 0.107,0.68718 -0.28131,0.68718 -1.428261,0 -0.714875,2.572226 0.79399,2.862846 0.825,0.1589 -0.45,0.288914 -2.833331,0.288914 -2.383334,0 -3.657674,-0.1301 -2.831874,-0.289107 z M 261.3396,64.5 c -3.69101,-9.665616 -3.68421,-9.644558 -2.85159,-8.833333 0.37634,0.366666 1.04375,1.791666 1.48315,3.166666 0.79454,2.486348 0.81879,2.5 4.44121,2.5 h 3.6423 L 269.31357,58.5 c 2.27872,-5.128551 1.42306,-1.640823 -1.47194,5.999766 -1.5629,4.124874 -3.02082,7.499874 -3.23982,7.500001 -0.219,1.26e-4 -1.68699,-3.374767 -3.26221,-7.499767 z m 4.68409,2.444727 C 267.96756,62.409857 267.82153,62 264.262,62 c -2.66165,0 -3.00794,0.155619 -2.59615,1.166667 0.26135,0.641666 0.92164,2.441666 1.46733,4 C 263.67886,68.725 264.25779,70 264.41969,70 c 0.16189,0 0.88369,-1.374873 1.604,-3.055273 z m 7.15632,4.314853 c 1.40794,-0.520833 1.48665,-0.91912 1.48665,-7.522548 0,-6.079981 -0.14935,-7.01163 -1.16667,-7.277481 -0.64166,-0.167686 0.33334,-0.304882 2.16667,-0.304882 1.83333,0 2.80833,0.137196 2.16667,0.304882 -1.01732,0.265851 -1.16667,1.1975 -1.16667,7.277481 0,6.603428 0.0787,7.001715 1.48665,7.522548 1.06398,0.393593 0.35702,0.549947 -2.48665,0.549947 -2.84367,0 -3.55063,-0.156354 -2.48665,-0.549947 z m 16.81998,0.377433 c 0,-0.199646 0.49403,-2.329733 1.09784,-4.73352 0.93348,-3.71617 0.95843,-4.458808 0.16667,-4.960137 -0.52917,-0.335063 -0.60665,-0.594013 -0.17947,-0.599814 0.41344,-0.0056 1.12824,0.443491 1.58845,0.998012 0.67515,0.813505 1.04499,0.84959 1.91497,0.186841 0.59302,-0.451759 0.44042,-0.08046 -0.33909,0.825112 -0.77952,0.905571 -1.78444,3.221493 -2.23317,5.146493 -0.44872,1.925 -1.08593,3.5 -1.41602,3.5 -0.3301,0 -0.60018,-0.163347 -0.60018,-0.362987 z m 6.91818,-1.470346 c 0.22382,-1.008334 0.5971,-3.22896 0.82952,-4.934723 0.36468,-2.676577 0.2511,-3.145396 -0.82924,-3.422666 -0.92648,-0.237786 -0.97512,-0.341373 -0.18713,-0.398611 1.30643,-0.09489 4.22884,2.329252 3.41464,2.832452 -0.32276,0.199479 -0.95916,2.026382 -1.41421,4.059788 C 298.27669,70.336307 297.59091,72 297.2078,72 c -0.41411,0 -0.53155,-0.743433 -0.28963,-1.833333 z m 6.63704,0.783286 c -0.22162,-0.577526 -0.0622,-2.187333 0.35425,-3.577346 1.03169,-3.443472 0.9506,-5.214829 -0.25587,-5.589199 -0.78724,-0.244281 -0.76601,-0.292331 0.0952,-0.215549 2.05633,0.18333 2.59622,2.069439 1.64961,5.762914 -0.97116,3.789274 -0.68394,4.653 1.08547,3.264227 1.07551,-0.84414 1.09979,-0.82252 0.26782,0.238333 -1.13753,1.450454 -2.66329,1.50612 -3.19649,0.11662 z M 122.5,67.9466 c -1.89175,-1.10184 -1.54838,-5.383075 0.60441,-7.535863 2.14041,-2.14041 4.56028,-2.852277 5.90425,-1.736886 1.30151,1.080163 1.26969,2.659482 -0.0536,2.659482 -0.74154,0 -0.92205,-0.387119 -0.62174,-1.333333 0.32145,-1.012814 0.1198,-1.333333 -0.83887,-1.333333 -3.31052,0 -6.33936,7.245937 -3.80383,9.099966 1.42959,1.045334 0.52886,1.18148 -1.19063,0.179967 z m 39.43682,-0.402773 c 0.40141,-0.800894 0.72984,-1.615744 0.72984,-1.810778 0,-0.195034 -3.225,-0.451042 -7.16666,-0.568907 l -7.16667,-0.2143 8.03925,-0.141587 c 5.95489,-0.104878 8.37476,-0.40086 9.33333,-1.141588 1.28101,-0.989891 1.28101,-1.01011 0,-2 -0.95857,-0.740728 -3.37844,-1.03671 -9.33333,-1.141588 l -8.03925,-0.141588 7.22909,-0.214933 c 6.03089,-0.179309 7.1635,-0.376839 6.83334,-1.191746 -0.21767,-0.537247 -0.60499,-1.501812 -0.86072,-2.143479 -0.25572,-0.641666 0.5637,0.002 1.82094,1.430382 1.25724,1.428378 3.16915,2.968432 4.24869,3.422343 l 1.96279,0.825293 -2.08263,1.076974 c -1.14545,0.592335 -3.02657,2.052281 -4.18025,3.244322 -1.48072,1.529953 -1.88297,1.739106 -1.36776,0.71118 z M 178.33333,68 c -0.47591,-0.770047 0.13778,-2 0.99791,-2 0.32224,0 0.5407,0.6 0.48546,1.333333 -0.10786,1.43178 -0.81428,1.749267 -1.48337,0.666667 z m 3.07271,-0.34482 c 0.58999,-0.727013 1.43544,-2.810916 1.87878,-4.63089 0.71956,-2.95389 0.6802,-3.401091 -0.3668,-4.166667 -1.42135,-1.039322 -0.67574,-1.131657 1.16842,-0.144694 0.96794,0.518023 1.59154,0.497633 2.28102,-0.07458 0.52189,-0.433132 1.40271,-0.613365 1.95738,-0.400518 1.11613,0.4283 1.39768,2.42884 0.34182,2.42884 -0.36666,0 -0.66666,-0.475 -0.66666,-1.055556 0,-0.580556 -0.375,-0.933403 -0.83334,-0.784105 -1.15123,0.375004 -2.35433,3.027259 -2.8885,6.36776 C 183.87243,67.732047 183.96147,68 185.21032,68 c 0.75941,0 1.84775,-0.666753 2.41854,-1.481671 0.57079,-0.814919 1.0378,-1.161415 1.0378,-0.769992 0,1.001856 -2.24536,2.91833 -3.41916,2.91833 -0.53946,0 -1.32812,-0.347287 -1.75258,-0.771747 -0.58455,-0.584547 -1.06159,-0.546907 -1.96667,0.15518 -1.12391,0.871833 -1.13117,0.848367 -0.12221,-0.39492 z M 94.357645,66.693527 c -1.63984,-1.811999 -0.85468,-4.410016 1.826913,-6.045048 3.015567,-1.838665 3.366907,-1.63584 1.097493,0.633572 -2.03096,2.030961 -2.5194,4.547272 -1.14872,5.917949 0.490387,0.490387 0.53038,0.8 0.103327,0.8 -0.383173,0 -1.228727,-0.587913 -1.879013,-1.306473 z M 103.80716,66.5 c 2.10005,-2.294428 2.50778,-4.380333 1.1496,-5.881109 -1.14252,-1.262476 -0.66565,-1.738478 0.77677,-0.775349 2.55414,1.705447 2.23899,5.147484 -0.64429,7.036678 -2.37497,1.55614 -2.90934,1.397667 -1.28208,-0.38022 z m 75.52617,-6.085037 c 0,-0.138437 0.525,-0.663437 1.16667,-1.166666 1.05737,-0.829248 1.08095,-0.805668 0.2517,0.251703 -0.87091,1.110499 -1.41837,1.463653 -1.41837,0.914963 z M 134.7193,58.277778 c 0.032,-0.776629 0.18996,-0.9346 0.40277,-0.402778 0.19258,0.48125 0.1689,1.05625 -0.0526,1.277778 -0.22153,0.221527 -0.37909,-0.172223 -0.35015,-0.875 z m -1.55264,-1.945071 c 0.825,-0.591238 1.52991,-1.732968 1.56646,-2.537176 0.0613,-1.349058 0.1022,-1.333757 0.52847,0.197748 0.31447,1.129829 0.62517,1.39596 0.97289,0.833334 C 136.51546,54.371975 137.02765,54 137.37268,54 c 1.28166,0 -1.9167,2.490707 -3.7762,2.940687 -1.92527,0.465898 -1.92628,0.464464 -0.42982,-0.60798 z m -0.82861,-1.658404 c -0.23356,-0.377907 0.0341,-0.489672 0.62732,-0.262008 1.15495,0.443194 1.36626,0.921038 0.40731,0.921038 -0.34503,0 -0.81062,-0.296564 -1.03463,-0.65903 z M 50.29116,23.333333 c 0,-9.716666 0.0932,-13.6916663 0.207103,-8.833333 0.113907,4.858333 0.113907,12.808333 0,17.666667 C 50.384357,37.025 50.29116,33.05 50.29116,23.333333 Z M 7.3333332,25.637011 c 0,-0.199645 0.4940286,-2.329728 1.097842,-4.73352 0.9334713,-3.716168 0.9584246,-4.458806 0.1666666,-4.960135 -0.529172,-0.335063 -0.6066526,-0.594013 -0.179472,-0.599814 0.4134374,-0.0056 1.1282407,0.443491 1.5884522,0.998012 0.67515,0.813505 1.044982,0.84959 1.914964,0.186841 0.593017,-0.451759 0.440427,-0.08046 -0.33909,0.825112 C 10.80318,18.259078 9.7982578,20.575 9.3495358,22.5 8.9008145,24.425 8.2636012,26 7.9335058,26 7.6034112,26 7.3333332,25.836655 7.3333332,25.637011 Z m 6.9181758,-1.470344 c 0.22382,-1.008334 0.597102,-3.228959 0.829515,-4.934723 0.364687,-2.676577 0.251104,-3.145396 -0.829228,-3.422666 -0.926491,-0.237786 -0.975122,-0.341373 -0.187136,-0.398611 1.306425,-0.09489 4.228838,2.329252 3.414643,2.832452 -0.322765,0.199479 -0.959162,2.026382 -1.414218,4.059785 C 15.61003,24.336307 14.924253,26 14.541138,26 14.12703,26 14.009583,25.256569 14.251509,24.166667 Z m 6.637037,0.783286 c -0.221618,-0.577526 -0.0622,-2.187332 0.354256,-3.577346 1.03169,-3.443472 0.950598,-5.214829 -0.255871,-5.589199 -0.787235,-0.244281 -0.766011,-0.292331 0.09521,-0.215549 2.056326,0.18333 2.596215,2.069439 1.649605,5.762916 -0.971161,3.789274 -0.683941,4.652998 1.085475,3.264226 1.075504,-0.844138 1.099794,-0.822522 0.267814,0.238332 -1.137525,1.450456 -2.663289,1.506121 -3.196489,0.11662 z m 44.946248,0.579367 c 1.694978,-0.326366 3.475085,-2.855549 2.021991,-2.872862 -0.684986,-0.0082 -0.681646,-0.121279 0.01667,-0.564129 0.480393,-0.304656 1.450247,-2.775062 2.15524,-5.489791 1.566527,-6.032225 1.56066,-5.771206 0.137993,-6.142987 -0.641666,-0.167686 0.333334,-0.320667 2.166667,-0.339959 2.385173,-0.0251 2.946226,0.121789 1.972426,0.516397 -1.02132,0.413863 -1.658133,1.812212 -2.552026,5.603898 -0.655107,2.778834 -0.999993,5.361655 -0.766407,5.739602 0.23356,0.377948 0.106974,0.687178 -0.281333,0.687178 -1.428267,0 -0.71488,2.572224 0.793987,2.862844 0.825,0.158902 -0.45,0.288913 -2.833334,0.288913 -2.383333,0 -3.657675,-0.130097 -2.831871,-0.289104 z m -1.477151,-4.83579 c -1.639839,-1.812002 -0.854676,-4.410019 1.826914,-6.045051 3.015568,-1.838665 3.366908,-1.63584 1.097495,0.633572 -2.030963,2.030961 -2.519397,4.547272 -1.14872,5.917949 0.490389,0.490389 0.530378,0.8 0.103325,0.8 -0.383171,0 -1.228728,-0.587911 -1.879014,-1.30647 z M 73.807165,20.5 c 2.100047,-2.294428 2.50778,-4.380333 1.1496,-5.881109 -1.142527,-1.262476 -0.665653,-1.738478 0.776767,-0.775349 2.55414,1.705447 2.238986,5.147484 -0.644287,7.036675 -2.374973,1.556143 -2.90934,1.397669 -1.28208,-0.380217 z"
         id="path270" />
    </g>
  </g>
</svg>
