<?xml version="1.0" encoding="UTF-8" standalone="no"?>
<svg
   xmlns:dc="http://purl.org/dc/elements/1.1/"
   xmlns:cc="http://creativecommons.org/ns#"
   xmlns:rdf="http://www.w3.org/1999/02/22-rdf-syntax-ns#"
   xmlns:svg="http://www.w3.org/2000/svg"
   xmlns="http://www.w3.org/2000/svg"
   xmlns:sodipodi="http://sodipodi.sourceforge.net/DTD/sodipodi-0.dtd"
   xmlns:inkscape="http://www.inkscape.org/namespaces/inkscape"
   version="1.1"
   id="svg160"
   width="308.05301"
   height="82"
   viewBox="0 0 308.05301 82"
   sodipodi:docname="13-2-2.svg"
   inkscape:version="1.0.1 (c497b03c, 2020-09-10)">
  <metadata
     id="metadata166">
    <rdf:RDF>
      <cc:Work
         rdf:about="">
        <dc:format>image/svg+xml</dc:format>
        <dc:type
           rdf:resource="http://purl.org/dc/dcmitype/StillImage" />
        <dc:title></dc:title>
      </cc:Work>
    </rdf:RDF>
  </metadata>
  <defs
     id="defs164" />
  <sodipodi:namedview
     pagecolor="#ffffff"
     bordercolor="#666666"
     borderopacity="1"
     objecttolerance="10"
     gridtolerance="10"
     guidetolerance="10"
     inkscape:pageopacity="0"
     inkscape:pageshadow="2"
     inkscape:window-width="740"
     inkscape:window-height="480"
     id="namedview162"
     showgrid="false"
     fit-margin-top="0"
     fit-margin-left="0"
     fit-margin-right="0"
     fit-margin-bottom="0"
     inkscape:pagecheckerboard="true"
     inkscape:zoom="1.2171381"
     inkscape:cx="114.72975"
     inkscape:cy="62.75033"
     inkscape:window-x="0"
     inkscape:window-y="25"
     inkscape:window-maximized="0"
     inkscape:current-layer="g168" />
  <g
     inkscape:groupmode="layer"
     inkscape:label="Image"
     id="g168"
     transform="translate(-17.025523,34.615174)">
    <g
       id="g172"
       transform="translate(6.5727955,-38.615174)">
      <path
         style="fill:#cecece;stroke-width:0.666667"
         d="m 54.666666,44.999999 c 0,-32.592592 0.172672,-41.0535526 0.833333,-40.8333324 0.65449,0.2181633 0.833333,8.9814814 0.833333,40.8333324 0,31.851852 -0.178843,40.615165 -0.833333,40.833332 -0.660661,0.22022 -0.833333,-8.24074 -0.833333,-40.833332 z M 116.66666,61.333332 V 39.999999 H 163.33333 210 v 21.333333 21.333332 h -46.66667 -46.66667 z m 92,0 v -20 H 163.33333 118 v 20 19.999999 h 45.33333 45.33333 z m -84,0 V 47.999999 H 163.33333 202 v 13.333333 13.333333 h -38.66667 -38.66667 z m 76,0 v -12 H 163.33333 126 v 12 11.999999 h 37.33333 37.33333 z m -66,4.666666 c -3.29605,-3.29605 0.0924,-9.94968 5.08504,-9.985176 2.38254,-0.01694 3.80419,1.296152 3.17592,2.933406 -0.54853,1.429426 -2.62423,1.036328 -2.5017,-0.473773 0.13828,-1.704173 -1.47636,-1.377739 -3.0442,0.615449 -1.63032,2.07262 -1.86432,6.100084 -0.38734,6.666852 0.5469,0.209868 2.08471,-0.261738 3.41735,-1.048013 2.44596,-1.443152 3.45865,-1.450396 2.57364,-0.01841 -0.56103,0.907764 -4.47661,2.642996 -5.96396,2.642996 -0.56178,0 -1.62141,-0.6 -2.35475,-1.333334 z m 28.01021,0.833334 c 0.005,-0.275 0.29593,-0.95 0.64515,-1.5 0.54484,-0.858088 -0.33173,-1.047304 -6.17687,-1.333334 -4.04173,-0.19778 -6.74624,-0.604439 -6.65055,-1 0.0912,-0.377176 3.75936,-0.811411 8.44731,-1 4.55732,-0.183333 8.50975,-0.558333 8.78317,-0.833333 1.09826,-1.104579 -0.86752,-1.5149 -8.78317,-1.833333 -4.68795,-0.188589 -8.35607,-0.622824 -8.44731,-1 -0.0957,-0.395561 2.60882,-0.80222 6.65055,-1 5.84514,-0.28603 6.72171,-0.475246 6.17687,-1.333334 -1.79061,-2.820113 0.1581,-2.638505 2.69528,0.251182 1.0871,1.238151 2.87794,2.624547 3.97963,3.080881 2.43452,1.008413 2.55663,1.836931 0.35228,2.390188 -0.90793,0.227877 -2.70715,1.583592 -3.99826,3.012701 -2.18189,2.415095 -3.69823,3.281121 -3.67408,2.098382 z M 181,66.238094 c -0.96546,-0.965452 -0.97868,-1.211802 -0.1116,-2.078884 1.17259,-1.172588 2.70178,-0.45681 2.14178,1.002518 -0.31457,0.819775 -0.20423,0.869334 0.54716,0.24574 C 184.41472,64.712504 186,59.890331 186,58.038118 c 0,-1.349984 -1.8982,-0.692184 -3.25661,1.128547 -1.25437,1.681267 -1.36957,1.717485 -1.38894,0.436659 -0.0384,-2.539239 1.92975,-3.544508 6.65869,-3.40105 3.82183,0.115939 4.32019,0.283813 4.32019,1.455261 0,0.731109 -0.52253,1.424835 -1.16667,1.548883 -0.7616,0.146672 -1.17402,-0.197355 -1.18786,-0.99087 -0.0399,-2.290764 -1.88064,1.008008 -2.3651,4.238598 -0.56033,3.736519 0.0799,4.366939 2.0777,2.045852 C 191.44389,62.463911 192,62.23518 192,63.550456 c 0,1.166948 -2.81884,3.782876 -4.0763,3.782876 -0.5447,0 -1.35037,-0.36 -1.79037,-0.8 -0.62222,-0.622222 -0.97778,-0.622222 -1.6,0 -1.09769,1.097686 -2.23548,1.00262 -3.53333,-0.295238 z m -91.363635,7.458871 c -1.111573,-1.111567 -1.636367,-2.381774 -1.636367,-3.960654 0,-3.395277 -1.080173,-3.512763 -2.721253,-0.29598 -1.31782,2.583147 -1.51278,2.719927 -2.31432,1.623754 -0.663373,-0.907214 -0.69876,-1.58442 -0.146173,-2.797214 0.401006,-0.880113 0.905946,-1.610187 1.122093,-1.622385 0.21614,-0.0122 1.090867,-0.603812 1.943827,-1.314697 2.09732,-1.747969 1.443566,-4.306921 -0.947027,-3.706919 -1.931087,0.484672 -2.069793,-0.327847 -0.32546,-1.906452 1.734967,-1.57012 4.2378,-1.125504 4.697027,0.834405 l 0.363373,1.550825 1.6135,-1.717492 c 1.819333,-1.936594 5.130326,-2.429603 4.452406,-0.662966 -0.222566,0.579989 -0.40466,1.179989 -0.40466,1.333333 0,0.153345 -0.547706,0.278809 -1.217126,0.278809 -0.669414,0 -1.87174,0.696807 -2.671827,1.54846 -1.319846,1.404914 -1.393706,1.870092 -0.796726,5.017939 0.717273,3.782167 1.728646,6.100267 2.661519,6.100267 0.327574,0 1.064714,-0.469127 1.638094,-1.042507 1.123193,-1.123193 2.386066,-0.764773 2.386066,0.677194 0,2.25492 -5.460146,2.299106 -7.696966,0.06227 z M 299.76056,70.818591 c -0.19889,-0.321813 0.0898,-2.313966 0.64163,-4.427007 1.09218,-4.182405 0.87736,-6.533322 -0.32148,-3.518136 -1.00582,2.529723 -2.21459,1.709552 -1.30902,-0.888186 0.72501,-2.079757 2.9031,-2.710464 4.35306,-1.260509 0.5219,0.521895 0.85013,0.521895 1.17268,0 0.24636,-0.398615 1.42022,-0.724755 2.60858,-0.724755 1.18836,0 2.48679,0.32614 2.8854,0.724755 0.5219,0.521895 0.85014,0.521895 1.17268,0 0.6738,-1.090222 4.08486,-0.870692 5.07874,0.326859 0.85164,1.026168 0.61728,2.798354 -1.05115,7.948386 -0.31577,0.97472 0.0228,0.80242 1.25868,-0.640613 1.99375,-2.327861 3.0991,-1.834106 1.46776,0.65564 -1.48195,2.261746 -2.90757,2.747913 -4.21729,1.438193 -0.89822,-0.89822 -0.94175,-1.46524 -0.28164,-3.668506 1.03073,-3.44025 0.98798,-5.45138 -0.11587,-5.45138 -1.50653,0 -2.96243,2.165064 -3.81057,5.666666 -0.93759,3.870947 -1.64976,4.909667 -2.66802,3.8914 -0.50036,-0.50036 -0.4024,-1.89028 0.33333,-4.729565 1.29108,-4.982446 1.29707,-4.828501 -0.18807,-4.828501 -1.85344,0 -3.2321,1.932255 -4.24848,5.954473 -0.86654,3.429226 -1.95972,4.827213 -2.76095,3.530786 z M 68.333332,69.999998 c 0.226613,-0.366667 2.49432,-0.666667 5.039347,-0.666667 h 4.627319 v -2.999999 -3 h -4.666666 c -3.703707,0 -4.666667,-0.20635 -4.666667,-1 0,-0.793651 0.96296,-1 4.666667,-1 h 4.666666 v -3 -3 h -4.627319 c -2.545027,0 -4.812734,-0.3 -5.039347,-0.666667 -0.262427,-0.42461 1.659747,-0.666666 5.293987,-0.666666 h 5.706013 v 8.333333 8.333333 h -5.706013 c -3.63424,0 -5.556414,-0.242054 -5.293987,-0.666667 z m 30.699999,0.06473 c 0.348334,-0.331073 1.208469,-0.706073 1.911419,-0.833333 1.76075,-0.31878 2.17056,-1.898066 0.49252,-1.898066 -1.38005,0 -4.103939,-2.87615 -4.103939,-4.333334 0,-1.65841 2.811059,-4.323072 5.369099,-5.089479 2.73677,-0.819956 3.6215,-2.577187 1.29757,-2.577187 -0.73334,0 -1.33334,-0.3 -1.33334,-0.666667 0,-0.376068 1.88889,-0.666666 4.33334,-0.666666 4.08152,0 6.0444,0.988822 2.88555,1.453632 -1.60595,0.236308 -2.53865,1.879701 -1.06681,1.879701 1.63615,0 3.84792,2.637913 3.84792,4.589312 0,2.16106 -1.38136,3.608356 -4.81214,5.041828 -2.88606,1.205873 -3.81585,2.368859 -1.89387,2.368859 0.75497,0 1.37268,0.3 1.37268,0.666667 0,0.378107 -1.93333,0.666667 -4.46667,0.666667 -2.68083,0 -4.213449,-0.240674 -3.833329,-0.60196 z M 103.8968,62.56688 c 0.43585,-1.88823 0.61186,-3.61323 0.39112,-3.833334 -0.22074,-0.220103 -1.12583,0.441542 -2.0113,1.470322 -1.5394,1.788536 -2.10976,4.407466 -1.16551,5.351712 1.14281,1.142805 2.05889,0.15996 2.78569,-2.9887 z m 4.72148,1.676572 c 1.56089,-1.984379 1.75774,-3.600769 0.58172,-4.776787 -1.29382,-1.293817 -1.66676,-0.965297 -2.4542,2.16188 -1.24336,4.937877 -0.62932,5.795393 1.87248,2.614881 z m 161.04838,5.756546 c 0.22661,-0.366667 2.49432,-0.666667 5.03935,-0.666667 h 4.62732 v -2.999999 -3 h -4.66667 c -3.70371,0 -4.66667,-0.20635 -4.66667,-1 0,-0.793651 0.96296,-1 4.66667,-1 h 4.66667 v -3 -3 h -4.62732 c -2.54503,0 -4.81274,-0.3 -5.03935,-0.666667 -0.26243,-0.42461 1.65975,-0.666666 5.29399,-0.666666 h 5.70601 v 8.333333 8.333333 h -5.70601 c -3.63424,0 -5.55642,-0.242054 -5.29399,-0.666667 z m 12,0 c 0.22661,-0.366667 0.84432,-0.666667 1.37268,-0.666667 0.77543,0 0.96065,-1.34964 0.96065,-6.999999 0,-6.622436 -0.074,-7 -1.37268,-7 -0.75497,0 -1.18726,-0.3 -0.96065,-0.666667 0.22661,-0.366666 2.04432,-0.666666 4.03935,-0.666666 1.99502,0 3.62732,0.3 3.62732,0.666666 0,0.366667 -0.45,0.666667 -1,0.666667 -0.8254,0 -1,1.222222 -1,7 0,5.777779 0.1746,6.999999 1,6.999999 0.55,0 1,0.3 1,0.666667 0,0.371093 -1.7909,0.666667 -4.03935,0.666667 -2.52313,0 -3.88469,-0.25024 -3.62732,-0.666667 z M 11.760564,24.818595 c -0.198894,-0.321816 0.08984,-2.31397 0.641633,-4.42701 1.092178,-4.182405 0.877353,-6.533322 -0.321484,-3.518136 -1.005817,2.529723 -2.2145892,1.709552 -1.309013,-0.888186 0.725007,-2.079757 2.903099,-2.710464 4.353054,-1.260509 0.521896,0.521896 0.85013,0.521896 1.172678,0 0.580552,-0.93935 4.554638,-0.93935 5.493989,0 0.521895,0.521896 0.850129,0.521896 1.172678,0 0.673795,-1.090222 4.084857,-0.870692 5.078736,0.326859 0.851644,1.026169 0.617279,2.798355 -1.051146,7.948386 -0.315774,0.974718 0.02276,0.802418 1.258677,-0.640613 1.993745,-2.327861 3.099103,-1.834106 1.467761,0.655637 -1.481954,2.261748 -2.907568,2.747917 -4.217287,1.438198 -0.898222,-0.898222 -0.941753,-1.465244 -0.281639,-3.668509 1.030724,-3.440249 0.987974,-5.451379 -0.115876,-5.451379 -1.506529,0 -2.962432,2.165065 -3.810564,5.666666 -0.937591,3.870946 -1.649762,4.909666 -2.66803,3.891398 -0.500359,-0.500358 -0.402399,-1.89028 0.333333,-4.729563 1.291082,-4.982446 1.297078,-4.828501 -0.188072,-4.828501 -1.853442,0 -3.232092,1.932255 -4.248474,5.954474 -0.866539,3.429225 -1.959718,4.827215 -2.760954,3.530788 z m 57.272768,-0.753886 c 0.348333,-0.331076 1.208473,-0.706076 1.91142,-0.833333 1.760753,-0.318755 2.17056,-1.898043 0.49252,-1.898043 -1.380047,0 -4.10394,-2.876149 -4.10394,-4.333333 0,-1.65841 2.81106,-4.323073 5.3691,-5.08948 2.736766,-0.819956 3.6215,-2.5771869 1.297567,-2.5771869 -0.733334,0 -1.333334,-0.3 -1.333334,-0.6666667 0,-0.3760686 1.888887,-0.6666666 4.333333,-0.6666666 4.081527,0 6.044407,0.9888226 2.885554,1.4536326 -1.605954,0.236308 -2.538654,1.8797006 -1.066814,1.8797006 1.636154,0 3.847927,2.637913 3.847927,4.589312 0,2.16106 -1.381367,3.608356 -4.812147,5.041828 -2.886059,1.205874 -3.815846,2.36886 -1.893866,2.36886 0.754973,0 1.37268,0.3 1.37268,0.666666 0,0.37811 -1.933334,0.666667 -4.466667,0.666667 -2.680833,0 -4.213453,-0.24067 -3.833333,-0.601957 z m 4.863467,-7.497855 c 0.435853,-1.888229 0.61186,-3.613229 0.39112,-3.833333 -0.22074,-0.220103 -1.125827,0.441541 -2.0113,1.470321 -1.5394,1.788536 -2.109754,4.407467 -1.165507,5.351713 1.142807,1.142806 2.058887,0.15996 2.785687,-2.988701 z m 4.721479,1.676573 c 1.560894,-1.984353 1.75774,-3.600743 0.58172,-4.776761 -1.29382,-1.293817 -1.66676,-0.965296 -2.454193,2.16188 -1.243367,4.937877 -0.62932,5.795392 1.872473,2.614881 z"
         id="path186" />
      <path
         style="fill:#afafaf;stroke-width:0.666667"
         d="m 54.666666,44.999999 c 0,-26.888888 0.229448,-40.9999991 0.666666,-40.9999991 0.437218,0 0.666667,14.1111111 0.666667,40.9999991 0,26.888886 -0.229449,40.999999 -0.666667,40.999999 -0.437218,0 -0.666666,-14.111113 -0.666666,-40.999999 z m 62.448974,37.226752 c -0.24694,-0.24694 -0.44898,-9.848973 -0.44898,-21.337864 V 39.999999 h 46.67604 46.67602 l -0.17602,21.166666 -0.17604,21.166666 -46.05102,0.171193 c -25.32807,0.09416 -46.25307,-0.03087 -46.5,-0.277773 z m 91.55102,-20.893419 v -20 H 163.33333 118 v 20 19.999999 h 45.33333 45.33333 z m -83.55014,12.894299 c -0.24742,-0.24742 -0.44986,-6.249853 -0.44986,-13.338744 V 47.999999 h 38.68076 38.68076 l -0.18076,13.166666 -0.18076,13.166666 -38.05014,0.172074 c -20.92758,0.09465 -38.25258,-0.03033 -38.5,-0.277774 z m 75.55014,-12.894299 v -12 H 163.33333 126 v 12 11.999999 h 37.33333 37.33333 z m -65,5.186566 c -0.73333,-0.406606 -1.55374,-1.064921 -1.82312,-1.462924 -2.01024,-2.97002 1.93398,-9.056976 5.86873,-9.056976 2.65671,0 4.23778,1.991577 2.63625,3.320724 -1.03953,0.862738 -2.61048,0.309136 -1.98672,-0.700122 0.70538,-1.141329 -0.36651,-1.99833 -1.64416,-1.314549 -2.75616,1.475051 -3.63392,8.111993 -1.13556,8.58627 0.6868,0.130381 2.1118,-0.401035 3.16666,-1.180925 1.51385,-1.119235 1.91792,-1.208034 1.91792,-0.421478 0,1.866236 -4.86234,3.415227 -7,2.22998 z m 27.01021,0.313434 c 0.005,-0.275 0.29601,-0.95 0.64533,-1.5 0.54386,-0.856312 -0.28814,-1.047896 -5.7903,-1.333334 -4.298,-0.222968 -6.51664,-0.609246 -6.70089,-1.166666 -0.20985,-0.634866 1.60337,-0.835765 7.61343,-0.843542 7.8279,-0.01013 10.14925,-0.489828 9.26829,-1.915256 -0.29639,-0.47956 -3.38585,-0.741202 -8.75208,-0.741202 -6.92799,0 -8.29399,-0.164698 -8.29399,-1 0,-0.822222 1.18519,-1 6.66667,-1 6.55205,0 7.44989,-0.28344 5.87778,-1.855555 -0.43389,-0.43389 -0.57977,-0.998013 -0.32417,-1.253608 0.25559,-0.255596 1.48085,0.644642 2.7228,2.000529 1.24194,1.355886 3.18782,2.789357 4.32416,3.18549 2.50488,0.873206 2.63718,1.635266 0.38216,2.201242 -0.92617,0.232453 -2.84106,1.614976 -4.25532,3.072272 -2.51479,2.591316 -3.40442,3.156463 -3.38387,2.14963 z m 19.11748,-0.006 c -0.79726,-0.180634 -1.13599,-0.762142 -1,-1.71677 0.26163,-1.836581 2.24879,-1.941427 2.09011,-0.110277 -0.1091,1.258911 -0.0472,1.249503 1.10838,-0.168549 1.30255,-1.598356 2.3897,-6.339802 1.70694,-7.444536 -0.59258,-0.958806 -2.24854,-0.141981 -2.71933,1.341339 -0.222,0.699173 -0.68342,1.271459 -1.02538,1.271459 -1.04803,0 -0.69111,-1.73057 0.59742,-2.896674 1.40729,-1.273586 4.78084,-1.487623 4.78084,-0.303326 0,0.622222 0.17778,0.622222 0.8,0 1.14197,-1.141968 3.83601,-0.988924 4.30945,0.244812 0.22051,0.574646 0.0409,1.399646 -0.39914,1.833333 -0.61714,0.608235 -1.00635,0.509189 -1.70227,-0.433195 -0.86781,-1.175142 -0.92998,-1.169813 -1.63086,0.139784 -1.08735,2.031747 -1.70355,7.415266 -0.84875,7.415266 0.84027,0 2.56038,-1.624524 2.98744,-2.821428 0.16588,-0.464881 0.51697,-0.645932 0.78021,-0.402336 0.68481,0.633716 -0.75795,3.067246 -2.31136,3.898611 -0.92917,0.497273 -1.71145,0.49486 -2.65139,-0.0082 -0.79831,-0.427243 -1.80148,-0.483428 -2.5,-0.14002 -0.64166,0.31546 -1.7092,0.45064 -2.37231,0.3004 z m -91.185458,7.651466 c -1.67152,-1.283353 -2.607147,-3.51334 -2.62996,-6.268307 l -0.02107,-2.543826 -1.6456,1.870507 c -0.90508,1.028779 -1.6456,2.328779 -1.6456,2.888893 0,1.49258 -1.63148,0.707153 -1.86944,-0.899987 -0.13524,-0.913387 0.607327,-2.03724 2.22966,-3.374502 2.911867,-2.400207 2.968113,-4.557642 0.113653,-4.359402 -2.247573,0.156092 -2.32076,-0.758278 -0.17332,-2.165336 2.12214,-1.39048 3.881147,-1.014534 4.339594,0.927486 l 0.365273,1.547324 1.6135,-1.717492 c 1.529086,-1.627637 3.347553,-2.195464 4.224033,-1.31898 0.696653,0.69665 -0.27652,2.267582 -1.41428,2.28298 -0.602433,0.0082 -1.810093,0.564431 -2.683686,1.236174 -1.535327,1.180582 -1.563474,1.362554 -0.843227,5.451475 0.944393,5.361406 2.015293,6.608706 4.356826,5.074473 1.871674,-1.226367 3.056914,-0.362027 1.71718,1.252253 -0.972686,1.17202 -4.56822,1.2413 -6.033539,0.116267 z M 299.77607,70.843685 c -0.20994,-0.33968 0.051,-2.243467 0.57986,-4.230642 0.52886,-1.987175 0.96513,-3.988045 0.96948,-4.446378 0.0133,-1.394947 -1.13889,-0.929903 -1.65166,0.666667 -0.41873,1.303779 -0.52332,1.343194 -0.79947,0.301307 -0.62927,-2.374111 2.50769,-4.152669 4.25047,-2.409886 0.5219,0.521895 0.85013,0.521895 1.17268,0 0.59356,-0.960404 3.89878,-0.928541 4.87431,0.04699 0.58455,0.58455 1.01138,0.572866 1.75969,-0.04817 1.32196,-1.097135 4.42888,-0.664791 5.30735,0.738546 0.51843,0.828191 0.40839,2.061329 -0.41324,4.630629 -0.61591,1.926011 -0.93755,3.668057 -0.71476,3.871211 0.2228,0.203153 0.52483,0.03693 0.67119,-0.36942 0.14636,-0.406334 0.71411,-1.306334 1.26166,-2 0.95384,-1.208349 0.98776,-1.194558 0.8093,0.32906 -0.10245,0.874646 -0.80499,1.998873 -1.56121,2.49828 -1.16327,0.76822 -1.57102,0.764626 -2.64865,-0.02333 -1.22353,-0.894673 -1.23015,-1.067566 -0.168,-4.38899 1.26626,-3.959677 1.01525,-5.346267 -0.87816,-4.851127 -1.54472,0.403951 -2.96321,2.895844 -3.6095,6.340878 -0.46233,2.464419 -1.90906,4.372846 -2.54047,3.351206 -0.18614,-0.301173 0.0963,-2.429527 0.62773,-4.72967 1.12214,-4.857274 0.86009,-5.699604 -1.44621,-4.648782 -1.22321,0.557329 -1.93384,1.729326 -2.71332,4.47486 -1.08873,3.834832 -2.46681,5.984545 -3.13907,4.896785 z M 68.666665,69.999998 c 0,-0.380953 2,-0.666667 4.666667,-0.666667 h 4.666666 v -2.969539 -2.96954 l -4.499999,-0.197127 c -2.475,-0.10842 -4.5,-0.497127 -4.5,-0.863793 0,-0.366667 2.025,-0.755374 4.5,-0.863794 l 4.499999,-0.197126 v -2.96954 -2.96954 h -4.666666 c -2.666667,0 -4.666667,-0.285714 -4.666667,-0.666667 0,-0.388888 2.22222,-0.666666 5.333334,-0.666666 h 5.333333 v 8.333333 8.333333 h -5.333333 c -3.111114,0 -5.333334,-0.27778 -5.333334,-0.666667 z m 30.666666,0.0464 c 0,-0.341167 0.6515,-0.716167 1.447779,-0.833333 2.07912,-0.305934 2.23939,-1.646347 0.25635,-2.14406 -2.397522,-0.601739 -3.906182,-3.117397 -3.115969,-5.195811 0.695327,-1.828856 3.046269,-3.588686 5.675729,-4.248638 2.05679,-0.516254 2.33834,-2.291224 0.36343,-2.291224 -0.75497,0 -1.18727,-0.3 -0.96065,-0.666667 0.52002,-0.841415 8.33333,-0.884889 8.33333,-0.04637 0,0.341164 -0.6515,0.716164 -1.44778,0.833333 -2.18694,0.321798 -2.07225,1.39428 0.30893,2.888708 2.83126,1.776897 3.1667,4.357082 0.86562,6.658168 -0.93098,0.93097 -2.58117,1.870371 -3.6671,2.087558 -2.30267,0.460533 -3.39331,2.245266 -1.37208,2.245266 0.72182,0 1.31241,0.3 1.31241,0.666667 0,0.370373 -1.77778,0.666666 -4,0.666666 -2.2,0 -3.999999,-0.279133 -3.999999,-0.6203 z m 4.217779,-5.968591 c 0.21144,-1.057223 0.58147,-2.707223 0.82227,-3.666667 0.53139,-2.117257 -0.4903,-2.29423 -2.37338,-0.411142 -1.2797,1.279693 -1.81556,4.628882 -0.88889,5.555556 0.99213,0.992126 2.07749,0.334779 2.44,-1.47778 z m 4.7336,0.875607 c 1.49127,-1.491268 2.00991,-4.128426 1.04143,-5.295373 -1.30025,-1.566713 -1.78235,-1.198548 -2.58034,1.970537 -1.16716,4.635246 -0.72557,5.589314 1.53891,3.324836 z m 161.71528,5.046584 c 0,-0.380953 2,-0.666667 4.66667,-0.666667 h 4.66667 v -2.969539 -2.96954 l -4.5,-0.197127 c -2.475,-0.10842 -4.5,-0.497127 -4.5,-0.863793 0,-0.366667 2.025,-0.755374 4.5,-0.863794 l 4.5,-0.197126 v -2.96954 -2.96954 h -4.66667 c -2.66667,0 -4.66667,-0.285714 -4.66667,-0.666667 0,-0.388888 2.22222,-0.666666 5.33334,-0.666666 h 5.33333 v 8.333333 8.333333 h -5.33333 c -3.11112,0 -5.33334,-0.27778 -5.33334,-0.666667 z m 12,0 c 0,-0.366667 0.45,-0.666667 1,-0.666667 0.8254,0 1,-1.22222 1,-6.999999 0,-5.777778 -0.1746,-7 -1,-7 -0.55,0 -1,-0.3 -1,-0.666667 0,-0.366666 1.65,-0.666666 3.66667,-0.666666 3.62181,0 4.92085,0.849848 2.33333,1.526499 -1.21758,0.318404 -1.33333,0.909344 -1.33333,6.806834 0,5.897493 0.11575,6.488426 1.33333,6.806833 2.58752,0.676653 1.28848,1.5265 -2.33333,1.5265 -2.01667,0 -3.66667,-0.3 -3.66667,-0.666667 z M 11.77607,24.843685 c -0.209932,-0.339678 0.05101,-2.243466 0.579872,-4.230641 0.528861,-1.987175 0.965126,-3.988044 0.969478,-4.446378 0.01325,-1.394946 -1.138896,-0.929903 -1.651664,0.666667 -0.418733,1.303779 -0.523314,1.343195 -0.799472,0.301307 -0.629268,-2.37411 2.507688,-4.152668 4.25047,-2.409886 0.521896,0.521896 0.85013,0.521896 1.172678,0 0.593563,-0.960404 3.898782,-0.92854 4.874313,0.04699 0.58455,0.58455 1.011382,0.572865 1.759686,-0.04817 1.321967,-1.097135 4.428888,-0.664791 5.307356,0.738546 0.518436,0.828191 0.40839,2.06133 -0.41324,4.630629 -0.615914,1.926014 -0.937556,3.66806 -0.71476,3.871214 0.222797,0.203154 0.524833,0.03691 0.671191,-0.369423 0.146358,-0.406336 0.714106,-1.306336 1.261663,-2 0.953832,-1.208349 0.98775,-1.194558 0.80929,0.329061 -0.102446,0.874647 -0.804987,1.998871 -1.561202,2.498276 -1.163269,0.768222 -1.571024,0.764628 -2.648649,-0.02335 -1.223535,-0.894671 -1.230153,-1.067566 -0.168005,-4.38899 1.266255,-3.959677 1.015251,-5.346266 -0.878163,-4.851127 -1.544713,0.403951 -2.963204,2.895844 -3.609496,6.340875 -0.462329,2.464425 -1.909062,4.372851 -2.540472,3.351208 -0.186135,-0.301172 0.09634,-2.429523 0.627728,-4.729669 1.12214,-4.857273 0.860096,-5.699603 -1.446205,-4.648782 -1.223205,0.557329 -1.933842,1.729327 -2.713319,4.47486 -1.088737,3.834832 -2.466806,5.984543 -3.139078,4.896785 z m 57.557262,-0.797318 c 0,-0.341165 0.6515,-0.716165 1.44778,-0.833334 2.07912,-0.305932 2.239387,-1.64635 0.256353,-2.144059 -2.397526,-0.601741 -3.906186,-3.117398 -3.115973,-5.195812 0.695327,-1.828856 3.046273,-3.588686 5.675733,-4.248638 2.056787,-0.51622 2.338333,-2.2911909 0.363427,-2.2911909 -0.754973,0 -1.187267,-0.3 -0.960653,-0.6666667 0.52002,-0.8414153 8.333333,-0.8848893 8.333333,-0.046367 0,0.3411646 -0.6515,0.7161646 -1.44778,0.8333333 -2.18694,0.321798 -2.072247,1.3942803 0.308933,2.8887093 2.831253,1.776896 3.1667,4.357081 0.865613,6.658167 -0.930973,0.93097 -2.581166,1.870371 -3.6671,2.087558 -2.302666,0.460532 -3.393306,2.245266 -1.37208,2.245266 0.721827,0 1.312414,0.3 1.312414,0.666666 0,0.370371 -1.77778,0.666667 -4,0.666667 -2.2,0 -4,-0.279135 -4,-0.620299 z m 4.21778,-5.968592 c 0.21144,-1.057223 0.581467,-2.707223 0.822273,-3.666667 0.531387,-2.117224 -0.4903,-2.294196 -2.373386,-0.411108 -1.279694,1.279692 -1.81556,4.628881 -0.888887,5.555555 0.992127,0.992126 2.077487,0.334779 2.44,-1.47778 z m 4.7336,0.875606 c 1.491266,-1.491267 2.009913,-4.128425 1.041433,-5.295372 -1.300253,-1.566713 -1.782353,-1.198548 -2.58034,1.970537 -1.167167,4.635246 -0.725573,5.589315 1.538907,3.324835 z"
         id="path184" />
      <path
         style="fill:#959595;stroke-width:0.666667"
         d="m 54.666666,44.666665 c 0,-26.666665 0.229508,-40.6666651 0.666666,-40.6666651 0.437159,0 0.666667,14.0000001 0.666667,40.6666651 0,26.666666 -0.229508,40.666666 -0.666667,40.666666 -0.437158,0 -0.666666,-14 -0.666666,-40.666666 z m 62.448974,37.560086 c -0.24694,-0.24694 -0.44898,-9.848973 -0.44898,-21.337864 V 39.999999 h 46.67604 46.67602 l -0.17602,21.166666 -0.17604,21.166666 -46.05102,0.171193 c -25.32807,0.09416 -46.25307,-0.03087 -46.5,-0.277773 z m 91.55102,-20.893419 v -20 H 163.33333 118 v 20 19.999999 h 45.33333 45.33333 z m -83.55014,12.894299 c -0.24742,-0.24742 -0.44986,-6.249853 -0.44986,-13.338744 V 47.999999 h 38.68076 38.68076 l -0.18076,13.166666 -0.18076,13.166666 -38.05014,0.172074 c -20.92758,0.09465 -38.25258,-0.03033 -38.5,-0.277774 z m 75.55014,-12.894299 v -12 H 163.33333 126 v 12 11.999999 h 37.33333 37.33333 z m -38,5.643213 c 0,-0.196233 0.4845,-1.096236 1.07668,-2.000002 l 1.07667,-1.643211 h -7.07667 c -10.18806,0 -8.98444,-1.25162 1.42332,-1.480082 7.02819,-0.154277 8.5,-0.35974 8.5,-1.186585 0,-0.816363 -1.50046,-1.061212 -8.17079,-1.333333 C 149.5357,58.927 148.26765,57.746873 157.5,57.475857 c 3.575,-0.104945 6.5,-0.349667 6.5,-0.543827 0,-0.194162 -0.31056,-0.933298 -0.69012,-1.642525 -1.07346,-2.005762 0.40568,-1.561456 1.93044,0.57987 0.73211,1.028157 2.40254,2.446379 3.71206,3.151603 1.30952,0.705224 2.38095,1.477608 2.38095,1.71641 0,0.2388 -0.91826,0.81454 -2.04059,1.279421 -1.12232,0.464881 -2.80792,1.851277 -3.74579,3.080881 -1.51663,1.988408 -2.88029,2.877941 -2.88029,1.878855 z m 19.16667,-0.139993 c -1.71407,-0.393236 -1.50907,-2.836554 0.23799,-2.836554 1.00764,0 1.29016,0.298395 0.99955,1.055707 -0.25657,0.668593 -0.0994,0.956447 0.42867,0.785013 1.26502,-0.410696 2.9639,-7.64394 2.0176,-8.59024 -0.56256,-0.562564 -1.19262,-0.283325 -2.46953,1.09448 -1.88446,2.033368 -2.31793,1.480204 -0.67648,-0.863289 1.07735,-1.538129 3.88937,-2.011529 4.64887,-0.782632 0.29744,0.481255 0.71366,0.465311 1.33599,-0.05117 1.42689,-1.184218 3.97734,-0.530916 3.97734,1.018801 0,0.740741 -0.44445,1.333333 -1,1.333333 -0.55,0 -0.96229,-0.501276 -0.91619,-1.113946 0.16722,-2.222664 -1.74387,-0.38485 -2.44282,2.349162 -0.38875,1.520631 -0.81425,3.09199 -0.94556,3.491907 -0.40091,1.221053 0.68048,2.342603 1.83249,1.900537 0.59839,-0.229626 1.26963,-0.989787 1.49163,-1.689247 0.222,-0.69946 0.68342,-1.271746 1.02538,-1.271746 0.91324,0 0.762,0.836396 -0.46902,2.593935 -0.90229,1.288198 -1.51674,1.500138 -3.55607,1.22661 -1.35592,-0.181868 -2.89008,-0.117443 -3.40924,0.143166 -0.51917,0.260609 -1.46893,0.353389 -2.1106,0.206176 z m -47.47587,-1.476558 c -2.79394,-3.087272 1.41347,-9.665829 5.9023,-9.228624 1.69258,0.164854 2.07357,0.497979 2.07357,1.813073 0,0.886111 -0.375,1.736111 -0.83333,1.888889 -0.5233,0.174432 -0.83334,-0.362963 -0.83334,-1.444445 0,-0.947222 -0.26676,-1.722222 -0.59281,-1.722222 -1.29733,0 -3.35277,2.462933 -3.94736,4.72992 -1.13563,4.329842 1.29431,5.966373 4.7836,3.221693 1.06079,-0.834416 1.75657,-1.061579 1.75657,-0.573495 0,2.581251 -6.2659,3.573042 -8.3092,1.315211 z m -43.448075,9.193611 c -1.811427,-0.877107 -2.90358,-3.269154 -2.930453,-6.418307 l -0.02107,-2.468633 -1.6456,1.870507 c -0.90508,1.028779 -1.6456,2.328779 -1.6456,2.888893 0,1.49258 -1.63148,0.707153 -1.86944,-0.899987 -0.135507,-0.91516 0.611787,-2.040913 2.252587,-3.3934 2.047646,-1.687844 2.383026,-2.312135 2.01972,-3.75965 -0.37974,-1.513013 -0.611954,-1.641376 -1.809687,-1.000368 -2.04126,1.092451 -2.50506,0.04469 -0.646993,-1.461626 2.069306,-1.677566 4.3191,-1.390152 4.600006,0.587656 l 0.212867,1.498693 2.183393,-1.665359 c 2.63884,-2.012738 3.724213,-2.109502 3.724213,-0.332026 0,0.833254 -0.444446,1.333334 -1.184993,1.333334 -0.651753,0 -1.885047,0.490334 -2.740666,1.089632 -1.39252,0.975358 -1.51018,1.432551 -1.121914,4.359434 0.837047,6.30994 2.562847,8.466247 5.00622,6.255027 0.933787,-0.845067 1.366833,-0.922814 1.743687,-0.313054 0.62738,1.01512 -1.463667,2.62518 -3.329754,2.56384 -0.75492,-0.0248 -2.013353,-0.355386 -2.796526,-0.734606 z M 306.44137,70.841491 c -0.20667,-0.334406 0.078,-2.345813 0.63268,-4.469791 1.17184,-4.487448 0.91582,-5.7519 -1.05998,-5.235217 -1.62648,0.425335 -3.03675,2.862957 -3.69916,6.393915 -0.45582,2.4297 -1.35423,3.652507 -2.12054,2.8862 -0.21096,-0.210967 -0.006,-2.161693 0.45496,-4.334942 0.97124,-4.576664 0.59326,-6.758514 -0.64934,-3.748324 -0.45408,1.1 -0.95929,1.641631 -1.1227,1.203626 -0.80085,-2.146643 2.92099,-4.814706 4.08624,-2.92929 0.21966,0.355412 1.2105,0.292516 2.38686,-0.15151 1.56378,-0.590264 2.32229,-0.564959 3.40905,0.113732 1.00253,0.626094 1.60173,0.668934 2.11915,0.15151 1.24298,-1.242982 4.34024,-0.847682 5.14536,0.656699 0.56272,1.051439 0.48926,2.106751 -0.30988,4.452092 -1.23084,3.61232 -1.27954,4.169807 -0.36424,4.169807 0.37574,0 0.98413,-0.791607 1.35198,-1.759127 0.77203,-2.030577 1.6389,-1.697945 0.98057,0.37626 -0.64032,2.017467 -2.56079,2.862514 -4.04273,1.778887 -1.16835,-0.85432 -1.16881,-1.0204 -0.013,-4.695061 1.34076,-4.262629 0.88848,-5.412855 -1.63416,-4.155919 -1.22782,0.611773 -1.9203,1.81079 -2.66358,4.611902 -1.02488,3.862365 -2.2087,5.782931 -2.88754,4.684551 z M 68.666665,69.999998 c 0,-0.380953 2,-0.666667 4.666667,-0.666667 h 4.666666 v -2.969539 -2.96954 l -4.499999,-0.197127 c -2.475,-0.10842 -4.5,-0.497127 -4.5,-0.863793 0,-0.366667 2.025,-0.755374 4.5,-0.863794 l 4.499999,-0.197126 v -2.96954 -2.96954 h -4.666666 c -2.666667,0 -4.666667,-0.285714 -4.666667,-0.666667 0,-0.388888 2.22222,-0.666666 5.333334,-0.666666 h 5.333333 v 8.333333 8.333333 h -5.333333 c -3.111114,0 -5.333334,-0.27778 -5.333334,-0.666667 z m 30.666666,0.0464 c 0,-0.341167 0.6515,-0.716167 1.447779,-0.833333 2.21776,-0.326334 2.08821,-1.437487 -0.29688,-2.546367 -1.522085,-0.70765 -2.211639,-1.526336 -2.358665,-2.800364 -0.31382,-2.719367 0.876026,-4.296 4.200155,-5.565497 2.86462,-1.094043 4.1321,-2.967505 2.00761,-2.967505 -0.55,0 -1,-0.3 -1,-0.666667 0,-0.37037 1.77778,-0.666666 4,-0.666666 2.22222,0 4,0.296296 4,0.666666 0,0.366667 -0.75,0.666667 -1.66667,0.666667 -2.29052,0 -2.0466,1.396259 0.52568,3.009008 3.99793,2.506592 2.53714,6.840792 -2.9255,8.680045 -2.52994,0.851826 -3.3649,2.310946 -1.3224,2.310946 0.76389,0 1.38889,0.3 1.38889,0.666667 0,0.370373 -1.77778,0.666667 -4,0.666667 -2.2,0 -3.999999,-0.279134 -3.999999,-0.6203 z m 4.674809,-7.413629 c 0.90857,-3.787351 0.69208,-4.387732 -1.21426,-3.36749 -2.00844,1.074884 -2.908122,4.274978 -1.69058,6.013255 1.33314,1.903331 1.94784,1.34346 2.90484,-2.645765 z m 5.74704,0.251953 c 0.45133,-1.798258 -0.26284,-3.609466 -1.59884,-4.054798 -0.41192,-0.137306 -1.08274,1.043778 -1.49205,2.626988 -0.40901,1.582049 -0.90291,3.423177 -1.09755,4.091395 -0.33427,1.147531 -0.24012,1.156105 1.69668,0.154541 1.19126,-0.616025 2.23547,-1.797002 2.49176,-2.818126 z m 160.24481,7.115276 c 0,-0.380953 2,-0.666667 4.66667,-0.666667 h 4.66667 v -2.969539 -2.96954 l -4.5,-0.197127 c -2.475,-0.10842 -4.5,-0.497127 -4.5,-0.863793 0,-0.366667 2.025,-0.755374 4.5,-0.863794 l 4.5,-0.197126 v -2.96954 -2.96954 h -4.66667 c -2.66667,0 -4.66667,-0.285714 -4.66667,-0.666667 0,-0.388888 2.22222,-0.666666 5.33334,-0.666666 h 5.33333 v 8.333333 8.333333 h -5.33333 c -3.11112,0 -5.33334,-0.27778 -5.33334,-0.666667 z m 12,0 c 0,-0.366667 0.45,-0.666667 1,-0.666667 0.8254,0 1,-1.22222 1,-6.999999 0,-5.777778 -0.1746,-7 -1,-7 -0.55,0 -1,-0.3 -1,-0.666667 0,-0.366666 1.65,-0.666666 3.66667,-0.666666 3.62181,0 4.92085,0.849848 2.33333,1.526499 -1.22224,0.319622 -1.33333,0.909344 -1.33333,7.077754 0,6.284633 0.0881,6.729079 1.33333,6.729079 0.73334,0 1.33334,0.3 1.33334,0.666667 0,0.366667 -1.65,0.666667 -3.66667,0.666667 -2.01667,0 -3.66667,-0.3 -3.66667,-0.666667 z M 18.441382,24.841493 c -0.206676,-0.33441 0.07803,-2.345816 0.632674,-4.469792 1.171836,-4.487448 0.915822,-5.751899 -1.059974,-5.235217 -1.626484,0.425336 -3.036759,2.862958 -3.69917,6.393915 -0.455816,2.429704 -1.354227,3.652508 -2.120532,2.886202 -0.210969,-0.210968 -0.0063,-2.161693 0.454958,-4.334944 C 13.620572,15.504994 13.2426,13.323143 12,16.333333 c -0.454078,1.1 -0.959294,1.641631 -1.122701,1.203626 -0.800851,-2.146643 2.920987,-4.814706 4.086238,-2.92929 0.219657,0.355412 1.210495,0.292517 2.386857,-0.15151 1.563787,-0.590264 2.322292,-0.564959 3.409049,0.113732 1.002537,0.626095 1.601731,0.668935 2.119155,0.15151 1.242982,-1.242982 4.34024,-0.847681 5.14536,0.656699 0.562713,1.051439 0.489261,2.106751 -0.309877,4.452092 -1.230841,3.612319 -1.27954,4.169807 -0.364248,4.169807 0.375742,0 0.984136,-0.791606 1.351986,-1.759125 0.772024,-2.030579 1.638896,-1.697947 0.980568,0.376259 -0.640318,2.017463 -2.560788,2.862512 -4.04273,1.778889 -1.168352,-0.85432 -1.168811,-1.020404 -0.01299,-4.695064 1.340761,-4.262628 0.888476,-5.412854 -1.634166,-4.155918 -1.227812,0.611772 -1.920298,1.81079 -2.663574,4.611901 -1.02488,3.862367 -2.208711,5.78293 -2.887545,4.684552 z m 50.89195,-0.795126 c 0,-0.341165 0.6515,-0.716165 1.44778,-0.833334 2.21776,-0.326332 2.088207,-1.437488 -0.29688,-2.546367 -1.522087,-0.70765 -2.21164,-1.526337 -2.358667,-2.800364 -0.31382,-2.719367 0.876027,-4.296 4.20016,-5.565497 2.86462,-1.094009 4.132093,-2.9674719 2.007607,-2.9674719 -0.55,0 -1,-0.3 -1,-0.6666667 0,-0.3703706 1.77778,-0.6666666 4,-0.6666666 2.22222,0 4,0.296296 4,0.6666666 0,0.3666667 -0.75,0.6666667 -1.666667,0.6666667 -2.290527,0 -2.0466,1.3962589 0.52568,3.0090079 3.997927,2.506592 2.537133,6.840792 -2.925507,8.680046 -2.529939,0.851824 -3.364899,2.310946 -1.322393,2.310946 0.763887,0 1.388887,0.3 1.388887,0.666666 0,0.370371 -1.77778,0.666667 -4,0.666667 -2.2,0 -4,-0.279135 -4,-0.620299 z m 4.674807,-7.41363 c 0.908573,-3.787351 0.692086,-4.387732 -1.214254,-3.36749 -2.00844,1.074884 -2.908126,4.274978 -1.690586,6.013254 1.33314,1.903333 1.94784,1.34346 2.90484,-2.645764 z m 5.747039,0.251953 c 0.451334,-1.798258 -0.26284,-3.609466 -1.598833,-4.054798 -0.41192,-0.137306 -1.082747,1.043778 -1.492053,2.626988 -0.409007,1.582049 -0.902907,3.423177 -1.097554,4.091395 -0.334266,1.147529 -0.24012,1.156104 1.696687,0.15454 1.19126,-0.616024 2.235467,-1.797001 2.491753,-2.818125 z"
         id="path182" />
      <path
         style="fill:#717171;stroke-width:0.666667"
         d="m 54.666666,44.666665 c 0,-26.666665 0.229508,-40.6666651 0.666666,-40.6666651 0.437159,0 0.666667,14.0000001 0.666667,40.6666651 0,26.666666 -0.229508,40.666666 -0.666667,40.666666 -0.437158,0 -0.666666,-14 -0.666666,-40.666666 z M 117,60.999644 V 39.999678 l 46.5,1.6e-4 46.5,1.61e-4 v 20.999999 21 l -46.5,-1.94e-4 -46.5,-1.93e-4 z m 91.66666,3.54e-4 V 40.666666 H 163.33333 118 v 20.333332 20.333333 h 45.33333 45.33333 z m -83.52988,0.166708 0.1368,-12.833374 38.3632,-0.172082 L 202,47.989168 v 13.005415 13.005415 l -38.5,4e-5 -38.5,4e-5 z m 75.52988,-0.166708 V 48.666665 H 163.33333 126 v 12.333333 12.333333 h 37.33333 37.33333 z m -37,4.333334 1.03424,-2 h -7.05646 c -4.53455,0 -6.90921,-0.238261 -6.64444,-0.666667 0.23707,-0.383597 3.75749,-0.666667 8.29104,-0.666667 5.78105,0 8.0769,-0.238412 8.62212,-0.895364 1.29322,-1.558242 -2.11594,-2.427986 -10.1112,-2.579557 L 150.33333,58.38349 157.5,58.16919 c 3.94166,-0.117866 7.16666,-0.364706 7.16666,-0.548535 0,-0.183829 -0.4845,-1.073679 -1.07667,-1.977445 -1.6158,-2.466026 -0.003,-1.977954 1.95696,0.59243 0.93787,1.229604 2.62347,2.616 3.74579,3.080881 2.60386,1.078551 2.56539,1.519601 -0.2496,2.861977 -1.2596,0.600663 -2.96602,2.006227 -3.79204,3.123474 -1.92854,2.608486 -2.92734,2.628253 -1.58444,0.03136 z m -29.39145,-0.328477 c -1.40445,-2.143458 -0.80777,-4.574865 1.75051,-7.133147 1.51393,-1.513929 2.45027,-1.909967 4.13253,-1.74791 1.79784,0.173192 2.17508,0.488962 2.17508,1.820645 0,0.886111 -0.375,1.736111 -0.83333,1.888889 -0.5233,0.174432 -0.83334,-0.362963 -0.83334,-1.444445 0,-1.988609 -0.46927,-2.119636 -2.4992,-0.697814 -1.88329,1.319105 -3.23981,6.016827 -2.12523,7.359811 1.10629,1.332995 2.81648,1.18101 4.86786,-0.432606 0.96611,-0.759946 1.75657,-1.076957 1.75657,-0.704469 0,1.198234 -2.89874,2.752856 -5.13296,2.752856 -1.57693,0 -2.46709,-0.453978 -3.25849,-1.66181 z m 46.76123,1.142697 c -0.74954,-0.74954 -0.33928,-2.147554 0.63022,-2.147554 0.55,0 1,0.475 1,1.055556 0,1.799811 1.62515,0.630108 2.46238,-1.772295 0.9984,-2.864888 1.09618,-6.616594 0.17246,-6.616594 -0.38418,0 -1.43418,0.793807 -2.33334,1.764015 -1.82039,1.964238 -2.20705,1.349621 -0.59703,-0.949011 1.07735,-1.538129 3.88937,-2.011529 4.64887,-0.782632 0.29744,0.481255 0.71366,0.465311 1.33599,-0.05117 1.42689,-1.184218 3.97734,-0.530916 3.97734,1.018801 0,0.740741 -0.44445,1.333333 -1,1.333333 -0.55465,0 -0.95634,-0.534132 -0.90196,-1.199346 0.16233,-1.985856 -1.37837,-0.862115 -2.17132,1.583696 -1.60085,4.937729 -1.68089,5.957253 -0.50316,6.409188 0.76423,0.293262 1.62029,-0.190608 2.67973,-1.514639 1.70944,-2.136394 2.16704,-1.437423 0.56052,0.856201 -0.85308,1.217953 -1.64412,1.428074 -5.29689,1.407001 -2.36172,-0.01363 -4.46043,-0.191171 -4.66381,-0.394547 z m -90.699955,7.685779 c -1.242913,-1.072793 -1.872,-2.4429 -2.20884,-4.81068 l -0.470973,-3.310684 -1.495007,1.900585 c -0.822247,1.045326 -1.495,2.335133 -1.495,2.866239 0,1.46326 -1.63714,0.61644 -1.871447,-0.968013 -0.13954,-0.943613 0.550727,-1.96104 2.166667,-3.193575 1.517453,-1.157417 2.371447,-2.366319 2.371447,-3.356986 0,-1.895855 -1.0778,-2.668883 -2.303187,-1.651907 -0.54492,0.452246 -1.067053,0.50465 -1.298407,0.130316 -0.45144,-0.730453 2.41994,-2.771961 3.898767,-2.771961 0.55592,0 1.198993,0.75 1.429067,1.666667 0.230066,0.916666 0.633486,1.666666 0.896486,1.666666 0.263007,0 1.182774,-0.75 2.04394,-1.666666 1.886607,-2.008202 3.333333,-2.152874 3.333333,-0.333334 0,0.833254 -0.444446,1.333334 -1.184993,1.333334 -0.651753,0 -1.888067,0.492447 -2.747373,1.094328 -1.427973,1.000192 -1.5247,1.414825 -1.12448,4.820092 0.44952,3.824693 1.831033,6.752246 3.186386,6.752246 0.421014,0 1.277027,-0.462953 1.90226,-1.02878 1.017687,-0.920993 1.177747,-0.922053 1.527674,-0.0102 0.438026,1.141493 -1.366674,2.372287 -3.478467,2.372287 -0.736993,0 -2.122026,-0.675 -3.077853,-1.5 z m -21.66982,-3.833333 c 0,-0.380953 2,-0.666667 4.666667,-0.666667 h 4.666666 v -3.304126 -3.304127 l -4.833333,-0.230075 -4.833333,-0.230075 4.833333,-0.132465 4.833333,-0.132465 v -3.333333 -3.333333 h -4.666666 c -2.666667,0 -4.666667,-0.285714 -4.666667,-0.666667 0,-0.388888 2.22222,-0.666666 5.333334,-0.666666 h 5.333333 v 8.333333 8.333333 h -5.333333 c -3.111114,0 -5.333334,-0.27778 -5.333334,-0.666667 z m 31,0 c 0.226613,-0.366667 0.994315,-0.666667 1.706015,-0.666667 2.01477,0 1.49602,-1.559386 -0.88711,-2.666666 -4.158652,-1.932245 -2.681939,-6.951712 2.55351,-8.679565 2.53224,-0.835714 3.63294,-2.653768 1.60666,-2.653768 -0.72182,0 -1.31241,-0.3 -1.31241,-0.666667 0,-0.37037 1.77778,-0.666666 4,-0.666666 2.22222,0 4,0.296296 4,0.666666 0,0.366667 -0.75,0.666667 -1.66667,0.666667 -1.94104,0 -2.31032,1.813584 -0.5,2.455589 2.00424,0.710776 3.5,2.358828 3.5,3.856341 0,1.749596 -2.95442,4.627802 -5.625,5.479896 -2.33953,0.746467 -3.06584,2.208173 -1.09722,2.208173 0.76389,0 1.38889,0.3 1.38889,0.666667 0,0.371093 -1.79089,0.666667 -4.03935,0.666667 -2.52313,0 -3.884682,-0.25024 -3.627315,-0.666667 z m 4.286635,-7.051724 c 0.45767,-2.045116 0.69835,-3.852177 0.53484,-4.015693 -1.03821,-1.038203 -4.488142,2.794959 -4.488142,4.986692 0,0.773283 1.874092,2.747392 2.608202,2.747392 0.28212,0 0.88742,-1.673276 1.3451,-3.718391 z m 5.13807,1.339166 c 1.28067,-1.954549 0.95247,-5.204549 -0.55443,-5.490176 -0.83816,-0.15887 -1.32156,0.527886 -1.87302,2.660966 -0.4088,1.581306 -0.88775,3.375239 -1.06432,3.986518 -0.47991,1.66139 2.23434,0.761783 3.49177,-1.157308 z m 160.90862,5.712558 c 0,-0.380953 2,-0.666667 4.66667,-0.666667 h 4.66667 v -3.304126 -3.304127 l -4.83334,-0.230075 -4.83333,-0.230075 4.83333,-0.132465 4.83334,-0.132465 v -3.333333 -3.333333 h -4.66667 c -2.66667,0 -4.66667,-0.285714 -4.66667,-0.666667 0,-0.388888 2.22222,-0.666666 5.33334,-0.666666 h 5.33333 v 8.333333 8.333333 h -5.33333 c -3.11112,0 -5.33334,-0.27778 -5.33334,-0.666667 z m 12,0 c 0,-0.366667 0.6,-0.666667 1.33334,-0.666667 1.24526,0 1.33333,-0.444446 1.33333,-6.729079 0,-6.16841 -0.11109,-6.758132 -1.33333,-7.077754 -2.58752,-0.676651 -1.28848,-1.526499 2.33333,-1.526499 3.62181,0 4.92085,0.849848 2.33333,1.526499 -1.22224,0.319622 -1.33333,0.909344 -1.33333,7.077754 0,6.284633 0.0881,6.729079 1.33333,6.729079 0.73334,0 1.33334,0.3 1.33334,0.666667 0,0.366667 -1.65,0.666667 -3.66667,0.666667 -2.01667,0 -3.66667,-0.3 -3.66667,-0.666667 z m 18,-0.3159 c 0,-0.60152 0.3279,-2.395873 0.72867,-3.987458 0.40076,-1.591581 0.59798,-3.449427 0.43826,-4.128546 -0.23638,-1.005062 -0.44873,-0.862706 -1.14147,0.765238 -0.46808,1.1 -0.98475,1.641631 -1.14816,1.203626 -0.80085,-2.146643 2.92099,-4.814706 4.08624,-2.92929 0.21966,0.355412 1.2105,0.292516 2.38686,-0.15151 1.54496,-0.583156 2.32071,-0.565944 3.3458,0.07423 0.94914,0.592744 1.70246,0.636497 2.60866,0.15151 3.87965,-2.076323 5.83679,0.207913 4.35706,5.085239 -1.16343,3.834769 -1.19634,4.232856 -0.34988,4.232856 0.35496,0 1.09295,-0.825 1.63998,-1.833333 0.54703,-1.008333 1.00661,-1.438613 1.02129,-0.956173 0.0534,1.754786 -1.38672,3.456173 -2.92543,3.456173 -2.17478,0 -2.47669,-1.3181 -1.20954,-5.280563 0.81371,-2.544552 0.89505,-3.586048 0.32462,-4.156482 -1.315,-1.315002 -4.01542,1.065065 -4.84313,4.268596 -1.23326,4.773149 -1.38863,5.168449 -2.03142,5.168449 -0.82093,0 -0.78419,-1.194487 0.16296,-5.297775 0.97075,-4.205556 0.18758,-5.492632 -2.33607,-3.839079 -1.13042,0.740685 -1.90162,2.21598 -2.55254,4.882987 -0.87034,3.565987 -2.56276,5.726327 -2.56276,3.2713 z M 12,23.684101 c 0,-0.601521 0.327898,-2.395878 0.728663,-3.98746 0.400765,-1.591581 0.597982,-3.449427 0.438261,-4.128546 -0.23638,-1.005061 -0.448724,-0.862705 -1.141462,0.765238 -0.468082,1.1 -0.984756,1.641631 -1.148163,1.203626 -0.800851,-2.146643 2.920987,-4.814706 4.086238,-2.92929 0.219657,0.355412 1.210495,0.292517 2.386857,-0.15151 1.544956,-0.583156 2.320715,-0.565944 3.345805,0.07423 0.949134,0.592744 1.702455,0.636497 2.608661,0.15151 3.879644,-2.076322 5.836787,0.207914 4.357055,5.085239 -1.163432,3.834772 -1.196336,4.232856 -0.349874,4.232856 0.354956,0 1.092945,-0.825 1.639975,-1.833333 0.54703,-1.008333 1.006611,-1.438611 1.021291,-0.956173 0.0534,1.754789 -1.386719,3.456173 -2.925438,3.456173 -2.174767,0 -2.476683,-1.318097 -1.209538,-5.280563 0.813716,-2.544552 0.895057,-3.586048 0.324623,-4.156482 -1.315002,-1.315002 -4.015413,1.065065 -4.843125,4.268596 -1.233263,4.77315 -1.388632,5.168449 -2.031421,5.168449 -0.820938,0 -0.784197,-1.194487 0.162956,-5.297775 0.970759,-4.205556 0.18758,-5.492631 -2.336061,-3.839079 -1.130429,0.740685 -1.90163,2.21598 -2.552552,4.882987 C 13.69242,23.978787 12,26.139128 12,23.684101 Z m 57.666665,0.315898 c 0.226614,-0.366666 0.99432,-0.666666 1.706014,-0.666666 2.014773,0 1.49602,-1.559388 -0.887107,-2.666667 -4.158654,-1.932245 -2.68194,-6.951712 2.553507,-8.679564 2.532239,-0.835714 3.632939,-2.6537689 1.606666,-2.6537689 -0.721826,0 -1.312413,-0.3 -1.312413,-0.6666667 0,-0.3703706 1.77778,-0.6666666 4,-0.6666666 2.22222,0 4,0.296296 4,0.6666666 0,0.3666667 -0.75,0.6666667 -1.666667,0.6666667 -1.94104,0 -2.31032,1.8135839 -0.5,2.4555889 2.004233,0.710776 3.5,2.358828 3.5,3.856342 0,1.749596 -2.95442,4.627801 -5.625,5.479895 -2.339533,0.746469 -3.06584,2.208174 -1.09722,2.208174 0.763887,0 1.388887,0.3 1.388887,0.666666 0,0.371092 -1.790894,0.666667 -4.039347,0.666667 -2.523133,0 -3.884686,-0.250241 -3.62732,-0.666667 z m 4.286634,-7.051724 c 0.457673,-2.045115 0.698353,-3.852177 0.53484,-4.015693 -1.038207,-1.038203 -4.48814,2.794959 -4.48814,4.986692 0,0.773283 1.874093,2.747392 2.6082,2.747392 0.282126,0 0.88742,-1.673276 1.3451,-3.718391 z m 5.138073,1.339166 c 1.280673,-1.954549 0.952466,-5.204549 -0.554434,-5.490176 -0.838153,-0.15887 -1.321553,0.527887 -1.873013,2.660967 -0.408807,1.581305 -0.887753,3.375238 -1.064327,3.986517 -0.479906,1.661388 2.23434,0.761783 3.491774,-1.157308 z"
         id="path180" />
      <path
         style="fill:#4f4f4f;stroke-width:0.666667"
         d="m 54.666666,44.666665 c 0,-26.666665 0.229508,-40.6666651 0.666666,-40.6666651 0.437159,0 0.666667,14.0000001 0.666667,40.6666651 0,26.666666 -0.229508,40.666666 -0.666667,40.666666 -0.437158,0 -0.666666,-14 -0.666666,-40.666666 z m 62.666664,16.32877 V 39.990872 l 46.01943,0.17123 46.01942,0.17123 0.14724,20.833344 0.14724,20.833342 -46.16666,-7e-6 -46.16667,-1.3e-5 z m 91.33333,0.0046 V 40.666666 H 163.33333 118 v 20.333332 20.333333 h 45.33333 45.33333 z m -83.33333,0 V 47.999999 h 37.97269 37.97269 l 0.19397,13.000712 0.19398,13.000714 -38.16666,-6.67e-4 -38.16667,-7.6e-4 z m 75.33333,0 V 48.666665 H 163.33333 126 v 12.333333 12.333333 h 37.33333 37.33333 z m -37.33333,5.355134 c 0,-0.518711 0.3,-1.128521 0.66667,-1.355134 1.82945,-1.130665 0.0233,-1.640796 -6.5,-1.835858 l -7.16667,-0.2143 7.54383,-0.141587 c 6.41592,-0.120419 9.28797,-0.629926 10.74084,-1.905446 0.15656,-0.137455 -0.29344,-0.687278 -1,-1.221828 -0.92662,-0.701026 -3.51437,-1.017281 -9.28467,-1.134699 l -8,-0.16279 7.16667,-0.2143 c 6.5233,-0.195062 8.32945,-0.705193 6.5,-1.835858 -0.36667,-0.226613 -0.66667,-0.912671 -0.66667,-1.524574 0,-0.750453 0.64197,-0.333729 1.97247,1.280393 1.08486,1.316119 2.88486,2.770869 4,3.232776 2.14906,0.89017 2.71206,2.011405 1.00998,2.011405 -0.55964,0 -2.35964,1.342105 -4,2.982456 -1.64034,1.640351 -2.98245,2.558057 -2.98245,2.039344 z m -28.69615,-0.72399 c -3.0098,-3.626584 1.64902,-10.540467 6.31366,-9.36972 1.9094,0.479231 2.47564,3.07191 0.6709,3.07191 -0.74154,0 -0.92206,-0.38712 -0.62174,-1.333334 0.32248,-1.016053 0.1198,-1.333333 -0.85175,-1.333333 -2.44358,0 -5.24645,4.856548 -4.50586,7.807311 0.28739,1.145024 0.85879,1.526022 2.28868,1.526022 1.04811,0 2.27913,-0.45 2.73559,-1 0.45646,-0.55 1.1682,-0.990019 1.58163,-0.97782 0.41344,0.0122 0.0435,0.612198 -0.82215,1.333333 -1.88278,1.568514 -5.59101,1.719067 -6.78896,0.275631 z m 46.39926,0.51641 c -0.74954,-0.74954 -0.33928,-2.147554 0.63022,-2.147554 0.55,0 1,0.45 1,1 0,1.162206 1.04999,1.331147 1.7033,0.27406 0.7869,-1.273222 2.092,-6.90935 1.80017,-7.77406 -0.46685,-1.383285 -1.97753,-0.942436 -3.42674,1 -0.7523,1.008334 -1.37733,1.458334 -1.38894,1 -0.0561,-2.215887 4.57419,-4.566815 5.63001,-2.858473 0.24948,0.403671 0.98984,0.371177 1.99683,-0.08764 0.88019,-0.401042 2.06948,-0.549144 2.64286,-0.329117 1.141,0.437843 1.44945,2.441896 0.37585,2.441896 -1.28032,0 -1.66524,-0.300168 -1.47078,-1.146965 0.41274,-1.797328 -1.30682,-0.748624 -2.15395,1.313632 -1.71154,4.166533 -1.92854,6.457449 -0.65786,6.945056 0.77183,0.296178 1.57173,-0.06831 2.40309,-1.094992 1.52264,-1.880368 2.23553,-1.488378 0.86131,0.473594 -0.83533,1.192601 -1.64929,1.406064 -5.28156,1.385109 -2.36172,-0.01363 -4.46043,-0.191171 -4.66381,-0.394546 z m -89.036442,8.712819 c -2.183553,-0.802873 -3.331686,-2.52746 -3.742033,-5.620846 -0.23636,-1.78174 -0.635847,-3.239527 -0.88776,-3.239527 -0.251913,0 -1.134893,1.204334 -1.962187,2.6763 -0.827286,1.471967 -1.782533,2.50426 -2.12276,2.293993 -1.232746,-0.76188 -0.569653,-2.50196 1.7701,-4.64509 2.902207,-2.658317 3.052087,-5.450281 0.27582,-5.137938 l -1.664513,0.187265 1.44448,-1.446562 c 1.649807,-1.652178 3.492527,-1.31286 4.0299,0.742064 0.4545,1.738018 0.966507,1.677719 2.858953,-0.336698 1.886607,-2.008202 3.333333,-2.152874 3.333333,-0.333334 0,0.954278 -0.444446,1.333334 -1.56334,1.333334 -3.313459,0 -4.548499,3.50378 -3.088199,8.761173 0.916933,3.301133 2.322826,4.431506 4.117606,3.310646 0.944127,-0.589613 1.570033,-0.63572 2.054427,-0.151326 0.484393,0.484393 0.14256,0.90728 -1.122,1.388066 -1.9779,0.751994 -2.239247,0.767294 -3.731827,0.21848 z m -23.333333,-4.86041 c 0,-0.380953 2,-0.666667 4.666667,-0.666667 h 4.666666 v -3.304126 -3.304127 l -4.833333,-0.230075 -4.833333,-0.230075 4.833333,-0.132465 4.833333,-0.132465 v -3.333333 -3.333333 h -4.666666 c -2.666667,0 -4.666667,-0.285714 -4.666667,-0.666667 0,-0.388888 2.22222,-0.666666 5.333334,-0.666666 h 5.333333 v 8.333333 8.333333 h -5.333333 c -3.111114,0 -5.333334,-0.27778 -5.333334,-0.666667 z m 32.166665,-0.108187 c 2.4171,-0.8828 2.29703,-1.996286 -0.34776,-3.225146 -3.122399,-1.450769 -3.330065,-4.504213 -0.47001,-6.910794 1.1477,-0.96573 2.60372,-1.755873 3.23559,-1.755873 1.16733,0 2.74885,-1.20071 2.74885,-2.086966 0,-0.267831 -0.675,-0.616976 -1.5,-0.775878 -0.825,-0.158902 0.45,-0.284817 2.83333,-0.279813 2.38333,0.005 3.53373,0.131628 2.55642,0.281383 -2.76979,0.424424 -2.88553,2.039201 -0.22583,3.1505 4.66531,1.949288 3.26815,6.778781 -2.45733,8.494181 -2.84201,0.85148 -3.30818,2.284093 -1.03993,3.19582 1.1206,0.45042 0.40394,0.6003 -2.83333,0.592553 -3.680805,-0.0088 -4.057259,-0.111207 -2.5,-0.679967 z m 3.34351,-7.225146 c 0.9416,-3.737977 0.93191,-4 -0.14796,-4 -2.71611,0 -4.917249,5.016392 -3.02948,6.904163 1.71804,1.718037 2.10136,1.367677 3.17744,-2.904163 z m 4.18679,2.363637 c 2.03957,-2.039564 2.21176,-5.342119 0.33101,-6.348662 -1.37051,-0.733478 -1.43032,-0.613374 -3.06331,6.151692 -0.56095,2.323866 0.52698,2.402293 2.7323,0.19697 z m 161.63636,4.969696 c 0,-0.380953 2,-0.666667 4.66667,-0.666667 h 4.66667 v -3.304126 -3.304127 l -4.83334,-0.230075 -4.83333,-0.230075 4.83333,-0.132465 4.83334,-0.132465 v -3.333333 -3.333333 h -4.66667 c -2.66667,0 -4.66667,-0.285714 -4.66667,-0.666667 0,-0.388888 2.22222,-0.666666 5.33334,-0.666666 h 5.33333 v 8.333333 8.333333 h -5.33333 c -3.11112,0 -5.33334,-0.27778 -5.33334,-0.666667 z m 13.16667,-0.146993 c 1.40552,-0.67786 1.5,-1.13828 1.5,-7.309699 0,-6.20712 -0.0863,-6.620982 -1.5,-7.189199 -1.12939,-0.453962 -0.51172,-0.590936 2.5,-0.554396 2.2,0.02669 3.325,0.178541 2.5,0.337443 -1.44157,0.277658 -1.5,0.560623 -1.5,7.264028 0,6.610363 0.0784,7.006643 1.5,7.578043 1.14152,0.458833 0.54406,0.60224 -2.5,0.60006 -3.35416,-0.0027 -3.75781,-0.119667 -2.5,-0.72628 z m 16.84125,-0.01967 c 0.005,-0.458333 0.44538,-2.477293 0.98008,-4.486582 1.10248,-4.142918 0.3683,-5.879196 -1.23482,-2.920272 -0.59052,1.089938 -1.04456,1.46163 -1.05982,0.867608 -0.0147,-0.571586 0.389,-1.60774 0.89707,-2.302563 0.75023,-1.02601 1.21492,-1.133396 2.47378,-0.571676 1.07624,0.480232 2.12275,0.475459 3.42375,-0.01561 1.39,-0.524667 2.21826,-0.492097 3.20824,0.12616 0.99918,0.624 1.68129,0.647826 2.71458,0.09482 0.75904,-0.406225 2.13887,-0.548148 3.06628,-0.315382 1.57616,0.395591 1.66235,0.627702 1.32066,3.556687 -0.20106,1.723413 -0.57278,3.808478 -0.82606,4.633477 -0.65723,2.140814 0.76828,1.900874 1.98036,-0.333333 0.54703,-1.008333 0.99707,-1.383333 1.00009,-0.833333 0.0144,2.62624 -3.9884,4.604313 -4.83784,2.390713 -0.19894,-0.51844 0.12689,-2.470513 0.72407,-4.337942 0.81371,-2.544553 0.89505,-3.586049 0.32462,-4.156483 -1.315,-1.315002 -4.01542,1.065065 -4.84313,4.268596 -1.23326,4.773142 -1.38863,5.168442 -2.03142,5.168442 -0.82093,0 -0.78419,-1.194487 0.16296,-5.297775 0.58155,-2.519398 0.59041,-3.593785 0.0342,-4.149963 -1.30364,-1.303644 -4.00891,1.091961 -4.83243,4.279289 -1.23324,4.773149 -1.3886,5.168449 -2.0314,5.168449 -0.34195,0 -0.61818,-0.375 -0.61382,-0.833334 z M 12.007912,23.833339 c 0.0043,-0.458333 0.44539,-2.477295 0.980085,-4.486582 1.102479,-4.142917 0.3683,-5.879195 -1.234826,-2.920271 -0.590521,1.089937 -1.044556,1.461629 -1.059813,0.867607 -0.01468,-0.571586 0.389,-1.607739 0.897067,-2.302563 0.750237,-1.02601 1.214921,-1.133396 2.473782,-0.571676 1.076241,0.480232 2.122751,0.47546 3.423753,-0.01561 1.39,-0.524667 2.218252,-0.492097 3.208239,0.126161 0.999181,0.623999 1.681287,0.647826 2.714583,0.09482 0.75904,-0.406225 2.138863,-0.548148 3.066275,-0.315382 1.576161,0.395592 1.662347,0.627702 1.320652,3.556688 -0.201052,1.723412 -0.572776,3.808477 -0.826051,4.633477 -0.657231,2.140815 0.768281,1.900874 1.980358,-0.333334 0.54703,-1.008333 0.99707,-1.383333 1.000089,-0.833333 0.01442,2.626239 -3.988401,4.604311 -4.837838,2.390714 -0.198943,-0.518441 0.126885,-2.470515 0.724064,-4.337943 0.813716,-2.544553 0.895057,-3.586049 0.324623,-4.156483 -1.315002,-1.315002 -4.015413,1.065066 -4.843125,4.268596 -1.233263,4.773143 -1.388632,5.168442 -2.031421,5.168442 -0.820938,0 -0.784197,-1.194487 0.162956,-5.297775 0.581547,-2.519398 0.590409,-3.593785 0.03423,-4.149963 -1.303644,-1.303644 -4.008908,1.091962 -4.832433,4.279289 -1.233265,4.77315 -1.388635,5.168449 -2.031424,5.168449 -0.341957,0 -0.618181,-0.375 -0.613829,-0.833333 z m 58.82542,0.05847 c 2.4171,-0.8828 2.297033,-1.996288 -0.34776,-3.225146 -3.1224,-1.450769 -3.330067,-4.504212 -0.470007,-6.910794 C 71.163265,12.790142 72.619279,12 73.251152,12 c 1.167327,0 2.748846,-1.20071 2.748846,-2.0869663 0,-0.2678313 -0.675,-0.6169766 -1.499999,-0.7758786 -0.825,-0.158902 0.45,-0.2848173 2.833333,-0.2798127 2.383333,0.005 3.533726,0.1316274 2.55642,0.2813827 -2.769787,0.4244246 -2.885534,2.0392009 -0.225827,3.1504999 4.665307,1.949288 3.268147,6.778781 -2.457333,8.494178 -2.842007,0.851484 -3.30818,2.284096 -1.039927,3.195822 1.120593,0.450423 0.40394,0.600302 -2.833333,0.592552 -3.680807,-0.0088 -4.05726,-0.111204 -2.5,-0.679965 z m 3.343513,-7.225146 c 0.9416,-3.737976 0.931907,-4 -0.147966,-4 -2.716107,0 -4.917247,5.016392 -3.02948,6.904163 1.71804,1.718037 2.101366,1.367676 3.177446,-2.904163 z m 4.186787,2.363637 c 2.039566,-2.039564 2.21176,-5.342119 0.331013,-6.348662 -1.370513,-0.733477 -1.43032,-0.613374 -3.063313,6.151692 -0.560953,2.323866 0.52698,2.402294 2.7323,0.19697 z"
         id="path178" />
      <path
         style="fill:#2e2e2e;stroke-width:0.666667"
         d="m 54.677406,45.03473 c 0.0027,-25.837771 0.240738,-40.4447965 0.663391,-40.7060102 0.431743,-0.2668314 0.659202,13.6383192 0.659202,40.2986012 0,26.558904 -0.230557,40.70601 -0.663391,40.70601 -0.432807,0 -0.661935,-14.007153 -0.659202,-40.298601 z M 117.33333,60.999998 V 39.999999 h 46 46 v 20.999999 21 h -46 -46 z m 91.33333,0 V 40.666666 H 163.33333 118 v 20.333332 20.333333 h 45.33333 45.33333 z m -83.33333,0 V 47.999999 h 38 38 v 12.999999 13 h -38 -38 z m 75.33333,0 V 48.666665 H 163.33333 126 v 12.333333 12.333333 h 37.33333 37.33333 z m -37.33333,5.384384 c 0,-0.534798 0.3,-1.157771 0.66667,-1.384384 1.82945,-1.130665 0.0233,-1.640796 -6.5,-1.835858 l -7.16667,-0.2143 8,-0.16279 c 5.79711,-0.117964 8.35634,-0.432312 9.29409,-1.141587 1.281,-0.968903 1.281,-0.988693 0,-1.957596 -0.93775,-0.709275 -3.49698,-1.023623 -9.29409,-1.141587 l -8,-0.16279 7.16667,-0.2143 c 6.5233,-0.195062 8.32945,-0.705193 6.5,-1.835858 -0.36667,-0.226613 -0.66667,-0.912671 -0.66667,-1.524574 0,-0.750453 0.64197,-0.333729 1.97247,1.280393 1.08486,1.316119 2.88486,2.770869 4,3.232776 2.20052,0.911485 2.69992,2.011405 0.91325,2.011405 -0.61285,0 -2.41285,1.355268 -4,3.011706 -1.59649,1.666192 -2.88572,2.577294 -2.88572,2.039344 z M 134.8,65.866665 c -1.12534,-1.125341 -0.99504,-4.949254 0.2325,-6.822703 1.27603,-1.947475 4.40552,-3.312179 6.25168,-2.726228 1.61372,0.512171 1.89394,3.015598 0.33756,3.015598 -0.74154,0 -0.92206,-0.38712 -0.62174,-1.333334 0.32248,-1.016053 0.1198,-1.333333 -0.85175,-1.333333 -2.44358,0 -5.24645,4.856548 -4.50586,7.807311 0.46435,1.850118 2.86034,2.046002 5.54773,0.453554 L 143,63.855061 l -1.57386,1.405802 c -1.73504,1.549775 -5.35153,1.880415 -6.62614,0.605802 z m 46.2,0.133333 c -0.48614,-0.786582 0.14444,-2 1.03934,-2 0.34503,0 0.62732,0.45 0.62732,1 0,1.766907 1.37364,1.067517 2.2914,-1.166666 1.71302,-4.170148 1.92873,-6.457376 0.6551,-6.946116 -0.80923,-0.310529 -1.63015,0.142944 -2.71645,1.50055 -0.85622,1.070062 -1.55825,1.62286 -1.56007,1.228442 -0.002,-0.394418 0.74372,-1.418925 1.65676,-2.276682 1.4337,-1.346886 1.89077,-1.454446 3.3518,-0.788756 1.28663,0.586229 1.99361,0.582268 2.95246,-0.01654 0.9836,-0.614271 1.49084,-0.596374 2.30753,0.08142 0.57573,0.477819 0.88239,1.13477 0.68145,1.459891 -0.59693,0.965855 -1.61998,0.672561 -1.61998,-0.464429 0,-0.580556 -0.375,-0.933404 -0.83333,-0.784106 -1.07407,0.34987 -2.2282,2.839839 -2.78803,6.015032 -0.56304,3.193408 1.14058,4.230522 3.05854,1.861946 0.67622,-0.8351 1.22949,-1.231624 1.22949,-0.881165 0,0.941217 -2.28753,2.843848 -3.41916,2.843848 -0.53946,0 -1.34084,-0.36 -1.78084,-0.8 -0.62222,-0.622222 -0.97778,-0.622222 -1.6,0 C 183.5614,66.838594 181.56484,66.913934 181,66 Z m -88.849755,8.81452 c -1.948833,-0.314727 -3.298027,-2.407553 -3.872547,-6.006967 -0.534353,-3.347773 -1.36942,-3.330223 -3.131813,0.0658 -0.70168,1.3521 -1.546553,2.291027 -1.8775,2.086487 -1.223247,-0.756007 -0.532753,-2.412007 2.009733,-4.819943 2.219827,-2.102347 2.520407,-2.705143 2.004354,-4.019557 -0.45378,-1.155784 -0.944934,-1.439082 -1.944787,-1.121741 -1.83568,0.582622 -1.67836,-0.078 0.33232,-1.395443 1.960933,-1.284855 3.663327,-0.382122 3.663327,1.942565 0,1.247584 0.214513,1.174567 2.198406,-0.748296 1.20912,-1.171908 2.58112,-2.130758 3.04888,-2.130758 1.323067,0 0.573513,2.184814 -0.819473,2.388621 -0.681367,0.09969 -1.909633,0.811426 -2.72948,1.581632 -1.361,1.278588 -1.439707,1.725155 -0.905013,5.134827 0.322086,2.053953 0.885913,4.29556 1.25294,4.981353 0.757866,1.416093 2.631986,1.63532 3.820406,0.4469 0.60974,-0.60974 0.98506,-0.61494 1.578147,-0.02187 0.59308,0.59308 0.513806,0.862614 -0.333334,1.133334 -2.0867,0.666833 -2.77854,0.747873 -4.294566,0.50304 z m -23.48358,-4.78648 c 0,-0.415667 1.874414,-0.694707 4.666667,-0.694707 h 4.666666 v -3.302873 -3.302873 l -4.499999,-0.23322 -4.5,-0.233219 4.5,-0.130574 4.499999,-0.130574 v -3.333333 -3.333333 h -4.293986 c -2.361693,0 -4.487487,-0.313083 -4.72398,-0.695741 -0.28836,-0.466577 1.290687,-0.631268 4.793987,-0.5 l 5.223979,0.195741 v 8 7.999999 l -5.166666,0.194707 c -3.263607,0.122993 -5.166667,-0.0612 -5.166667,-0.5 z m 31.996495,0.04293 c 2.42918,-0.67592 2.44228,-2.394139 0.0259,-3.395046 -2.070085,-0.857461 -3.175092,-3.114366 -2.449985,-5.003961 0.35988,-0.937828 4.230365,-3.664042 5.209675,-3.66948 0.24679,-0.0014 -0.42821,0.874431 -1.5,1.946226 -2.269142,2.269138 -2.568455,5.006034 -0.65922,6.027826 0.70923,0.379567 1.42931,0.690122 1.60018,0.690122 0.42972,0 2.03064,-6.736787 1.93759,-8.15354 -0.0417,-0.634446 0.20515,-1.327152 0.54848,-1.539344 1.08872,-0.672866 0.67635,-1.537677 -0.87575,-1.836627 -0.825,-0.158902 0.3,-0.288912 2.5,-0.288912 2.2,0 3.35036,0.126686 2.55636,0.281526 -2.45475,0.478706 -2.42008,2.103336 0.0671,3.142529 4.49749,1.879171 3.3098,6.43339 -2.18381,8.373812 -3.08626,1.090116 -3.7942,3.064449 -1.27294,3.550069 0.825,0.1589 -0.45,0.29986 -2.83333,0.313247 -2.73082,0.01533 -3.718272,-0.146807 -2.67017,-0.438447 z m 7.23058,-4.471589 c 2.9472,-2.064301 3.21622,-6.108312 0.47629,-7.159724 -0.72341,-0.277598 -1.1797,0.300498 -1.64825,2.088234 -1.78832,6.823306 -1.72434,7.10014 1.17196,5.07149 z m 162.10625,4.428656 c 0,-0.415667 1.87442,-0.694707 4.66667,-0.694707 h 4.66667 v -3.302873 -3.302873 l -4.5,-0.23322 -4.5,-0.233219 4.5,-0.130574 4.5,-0.130574 v -3.333333 -3.333333 h -4.29399 c -2.36169,0 -4.48749,-0.313083 -4.72398,-0.695741 -0.28836,-0.466577 1.29069,-0.631268 4.79399,-0.5 l 5.22398,0.195741 v 8 7.999999 l -5.16667,0.194707 c -3.26361,0.122993 -5.16667,-0.0612 -5.16667,-0.5 z m 13.16667,-0.0488 c 1.42156,-0.5714 1.5,-0.96768 1.5,-7.578043 0,-6.703405 -0.0584,-6.98637 -1.5,-7.264028 -0.825,-0.158902 0.3,-0.288912 2.5,-0.288912 2.2,0 3.325,0.13001 2.5,0.288912 -1.44157,0.277658 -1.5,0.560623 -1.5,7.264028 0,6.610363 0.0784,7.006643 1.5,7.578043 1.14226,0.459133 0.54603,0.602927 -2.5,0.602927 -3.04603,0 -3.64226,-0.143794 -2.5,-0.602927 z m 16.84125,-0.145907 c 0.005,-0.458333 0.44538,-2.477293 0.98008,-4.486581 1.11028,-4.172213 0.37515,-5.84171 -1.28587,-2.920272 -1.008,1.772886 -1.05378,1.78976 -0.65155,0.240187 0.66646,-2.567545 1.39403,-3.010815 3.28276,-2 1.30113,0.696347 1.87587,0.724123 2.48014,0.119863 1.15148,-1.151493 3.69016,-0.959466 4.41394,0.333874 0.5873,1.049426 0.69799,1.049426 1.74742,0 1.22966,-1.229658 2.84899,-1.422606 4.28866,-0.511006 0.9151,0.579441 0.82927,2.557276 -0.32795,7.557269 -0.26245,1.133953 -0.14847,1.833333 0.29878,1.833333 0.3977,0 1.17066,-0.825 1.71769,-1.833333 0.61054,-1.1254 1.00491,-1.422733 1.02129,-0.769993 0.0387,1.542679 -2.38427,3.510766 -3.70045,3.005699 -0.89108,-0.341933 -1.01516,-0.917013 -0.62879,-2.914186 0.26474,-1.368503 0.63667,-3.309731 0.82651,-4.31384 0.24631,-1.302775 0.0303,-1.946479 -0.7542,-2.247521 -1.75257,-0.672523 -3.69171,1.671258 -4.86032,5.874521 -1.0638,3.826273 -2.72214,5.565146 -1.93788,2.031986 0.22382,-1.008333 0.60058,-3.258333 0.83724,-4.999999 0.3934,-2.895098 0.31214,-3.166667 -0.9475,-3.166667 -1.37172,0 -4.13789,2.840643 -4.14497,4.256573 -0.008,1.692264 -1.43865,5.743427 -2.02761,5.743427 -0.34944,0 -0.63178,-0.375 -0.62742,-0.833334 z M 12.007912,23.833333 c 0.0043,-0.458334 0.44539,-2.477296 0.980085,-4.486582 1.110274,-4.172213 0.375151,-5.841709 -1.285873,-2.920272 -1.008,1.772886 -1.053775,1.789761 -0.65155,0.240187 0.666461,-2.567545 1.394034,-3.010814 3.282759,-2 1.301136,0.696348 1.875877,0.724124 2.480137,0.119863 1.151493,-1.151493 3.690162,-0.959466 4.413952,0.333874 0.587289,1.049427 0.697986,1.049427 1.747412,0 1.229658,-1.229657 2.848993,-1.422606 4.288662,-0.511006 0.915098,0.579441 0.829269,2.557277 -0.327951,7.557269 -0.262448,1.133956 -0.148471,1.833333 0.298778,1.833333 0.397702,0 1.170663,-0.825 1.717693,-1.833333 0.610541,-1.125403 1.004907,-1.422731 1.021291,-0.769992 0.03873,1.542679 -2.384276,3.510764 -3.700456,3.005699 -0.891069,-0.341936 -1.015152,-0.917012 -0.628787,-2.914188 0.264745,-1.368502 0.636677,-3.309729 0.826517,-4.313839 0.246306,-1.302774 0.0303,-1.946478 -0.754206,-2.24752 -1.752568,-0.672524 -3.691711,1.671258 -4.860321,5.874519 -1.0638,3.826277 -2.722134,5.565146 -1.937878,2.031988 0.22382,-1.008334 0.60058,-3.258334 0.837245,-5 0.393398,-2.895097 0.312141,-3.166667 -0.947507,-3.166667 -1.371723,0 -4.137884,2.840643 -4.144966,4.256573 -0.0085,1.692264 -1.438656,5.743427 -2.027618,5.743427 -0.349432,0 -0.63177,-0.375 -0.627418,-0.833333 z m 58.655253,0.23765 c 2.42918,-0.675922 2.442274,-2.394144 0.02587,-3.395052 -2.070087,-0.857459 -3.175093,-3.114364 -2.449987,-5.003959 0.35988,-0.937828 4.230367,-3.664042 5.209674,-3.66948 0.246793,-0.0014 -0.428207,0.874431 -1.5,1.946226 -2.26914,2.269138 -2.568454,5.006033 -0.659214,6.027825 0.709227,0.379568 1.429307,0.690123 1.600174,0.690123 0.42972,0 2.03064,-6.736787 1.937593,-8.15354 -0.04167,-0.634446 0.205147,-1.327152 0.54848,-1.539344 1.08872,-0.672866 0.676353,-1.5376776 -0.875753,-1.8366269 -0.825,-0.158902 0.3,-0.2889127 2.499999,-0.2889127 2.2,0 3.350367,0.1266867 2.556367,0.281526 -2.454753,0.4787067 -2.420087,2.1033366 0.06705,3.1425296 4.497493,1.879171 3.3098,6.433389 -2.183807,8.373812 -3.086266,1.090115 -3.7942,3.064452 -1.27294,3.550067 0.825,0.158902 -0.45,0.299864 -2.833333,0.313248 -2.73082,0.01533 -3.718273,-0.146806 -2.670167,-0.438442 z m 7.230573,-4.471593 c 2.947207,-2.064301 3.216227,-6.108312 0.476294,-7.159724 -0.723407,-0.277598 -1.1797,0.300498 -1.648247,2.088234 -1.788326,6.823303 -1.724346,7.100141 1.171953,5.07149 z"
         id="path176" />
      <path
         style="fill:#050505;stroke-width:0.666667"
         d="m 54.666666,62.666665 c 0,-14.666666 0.235294,-22.666666 0.666666,-22.666666 0.431373,0 0.666667,8 0.666667,22.666666 0,14.666666 -0.235294,22.666666 -0.666667,22.666666 -0.431372,0 -0.666666,-8 -0.666666,-22.666666 z M 117.33333,60.999998 V 39.999999 h 46 c 25.3,0 46.00004,0.225 46.00009,0.5 5e-5,0.275 -20.54995,0.420907 -45.66667,0.324238 L 118,40.648474 v 20.337834 20.337836 l 45.83333,0.175927 45.83333,0.175933 -46.16666,0.162 -46.16667,0.161994 z m -27.244285,12.42238 c -0.684353,-0.684353 -1.455433,-2.652327 -1.7135,-4.373273 -0.550327,-3.669816 -1.429267,-3.698747 -3.451573,-0.113614 -1.19554,2.119454 -1.481314,2.313874 -1.883654,1.281507 -0.35534,-0.911773 0.232434,-1.84738 2.34358,-3.730441 2.609047,-2.327175 2.759587,-2.641355 2.031434,-4.239483 -0.604174,-1.326021 -1.129694,-1.63992 -2.267554,-1.354437 -1.473333,0.369652 -1.472846,0.364782 0.09274,-0.927184 2.125707,-1.754188 2.745954,-1.641465 3.613414,0.656697 l 0.738113,1.955486 2.243887,-1.970162 c 1.234139,-1.08359 2.525933,-1.795853 2.870646,-1.582808 1.06858,0.66042 0.693993,1.479037 -0.873247,1.908351 -0.825,0.225993 -2.170466,0.977933 -2.989926,1.670979 -1.402113,1.185814 -1.44746,1.489831 -0.76934,5.158109 0.39632,2.14392 1.002347,4.4245 1.34672,5.06796 0.676093,1.263306 3.569126,1.598273 4.2526,0.492393 0.230306,-0.372647 0.730046,-0.485147 1.11052,-0.25 1.073513,0.663467 -0.81076,1.572347 -3.283907,1.584 -1.23752,0.006 -2.70026,-0.523387 -3.410953,-1.23408 z M 125.33333,60.999998 V 47.999999 h 38 38 v 12.999999 13 h -38 -38 z m 75.33333,0 V 48.666665 H 163.33333 126 v 12.333333 12.333333 h 37.33333 37.33333 z m -65.5,4.946601 c -1.89174,-1.101843 -1.54837,-5.383076 0.60442,-7.535863 2.14041,-2.14041 4.56028,-2.852278 5.90424,-1.736886 1.30152,1.080162 1.2697,2.659482 -0.0536,2.659482 -0.74154,0 -0.92206,-0.38712 -0.62174,-1.333334 0.32145,-1.012814 0.1198,-1.333333 -0.83887,-1.333333 -3.31053,0 -6.33937,7.245937 -3.80383,9.099966 1.42958,1.045334 0.52886,1.181481 -1.19064,0.179968 z m 28.77016,-0.402773 c 0.40141,-0.800895 0.72984,-1.615745 0.72984,-1.810779 0,-0.195033 -3.225,-0.451041 -7.16666,-0.568907 l -7.16667,-0.2143 8.03925,-0.141587 c 5.95489,-0.104878 8.37476,-0.40086 9.33333,-1.141588 1.28101,-0.989891 1.28101,-1.010109 0,-2 -0.95857,-0.740728 -3.37844,-1.03671 -9.33333,-1.141588 l -8.03925,-0.141587 7.22909,-0.214934 c 6.03089,-0.179308 7.1635,-0.376838 6.83334,-1.191746 -0.21767,-0.537246 -0.60499,-1.501811 -0.86072,-2.143478 -0.25572,-0.641667 0.5637,0.002 1.82094,1.430382 1.25724,1.428377 3.16915,2.968431 4.24869,3.422342 l 1.96279,0.825294 -2.08263,1.076973 c -1.14545,0.592335 -3.02657,2.052281 -4.18025,3.244324 -1.48072,1.529953 -1.88297,1.739104 -1.36776,0.711179 z M 181,65.999998 c -0.503,-0.813867 0.1557,-2 1.11067,-2 0.38425,0 0.52597,0.45 0.31491,1 -0.46794,1.219414 1.13796,1.349136 2.06324,0.166667 0.35864,-0.458333 1.01582,-2.322403 1.4604,-4.142377 0.72192,-2.955237 0.68294,-3.400742 -0.36453,-4.166666 -1.42135,-1.039323 -0.67574,-1.131658 1.16841,-0.144694 0.96794,0.518022 1.59154,0.497632 2.28102,-0.07458 0.5219,-0.433132 1.40272,-0.613366 1.95739,-0.400519 1.11613,0.4283 1.39767,2.42884 0.34182,2.42884 -0.36667,0 -0.66667,-0.475 -0.66667,-1.055555 0,-0.580556 -0.375,-0.933404 -0.83333,-0.784106 -1.15123,0.375004 -2.35433,3.027259 -2.8885,6.36776 -0.40573,2.537284 -0.31669,2.805234 0.93216,2.805234 0.75941,0 1.84775,-0.666752 2.41854,-1.48167 0.57079,-0.81492 1.0378,-1.161416 1.0378,-0.769992 0,1.001858 -2.24537,2.918329 -3.41916,2.918329 -0.53946,0 -1.34084,-0.36 -1.78084,-0.8 -0.62222,-0.622222 -0.97778,-0.622222 -1.6,0 -0.97193,0.971927 -2.96849,1.047267 -3.53333,0.133333 z m 1,-7.585036 c 0,-0.138438 0.525,-0.663438 1.16666,-1.166667 1.05738,-0.829247 1.08096,-0.805667 0.25171,0.251703 C 182.54746,58.610497 182,58.963651 182,58.414962 Z M 73.166665,70.187158 77.999998,69.941585 v -3.607 -3.607 l -4.499999,-0.23322 -4.5,-0.233219 4.5,-0.130574 4.499999,-0.130574 v -3.63746 -3.63746 l -4.833333,-0.245576 -4.833333,-0.245575 5.333333,0.0497 5.333333,0.0497 v 7.999999 8 l -5.333333,0.04973 -5.333333,0.04973 4.833333,-0.24558 z m 27.334795,0.0088 c 1.69498,-0.326367 3.47508,-2.855546 2.02199,-2.87286 -0.68499,-0.0081 -0.68165,-0.12128 0.0167,-0.564133 0.48039,-0.304653 1.45024,-2.77506 2.15524,-5.489789 1.56652,-6.032224 1.56066,-5.771205 0.13799,-6.142987 -0.64167,-0.167685 0.33333,-0.320666 2.16667,-0.339958 2.38517,-0.0251 2.94622,0.121788 1.97242,0.516396 -1.8475,0.748651 -4.31202,10.528005 -2.88158,11.434265 0.7118,0.45096 0.6559,0.578213 -0.25751,0.586206 -1.77475,0.01553 -1.48383,2.523053 0.33333,2.873053 0.825,0.1589 -0.45,0.288914 -2.83333,0.288914 -2.38333,0 -3.657672,-0.1301 -2.83187,-0.289107 z m 173.99853,-0.0088 4.83334,-0.245573 v -3.607 -3.607 l -4.5,-0.23322 -4.5,-0.233219 4.5,-0.130574 4.5,-0.130574 v -3.63746 -3.63746 l -4.83334,-0.245576 -4.83333,-0.245575 5.33333,0.0497 5.33334,0.0497 v 7.999999 8 l -5.33334,0.04973 -5.33333,0.04973 4.83333,-0.24558 z m 8.66667,-0.233267 c 1.42313,-0.547993 1.5,-0.934933 1.5,-7.550194 0,-6.079981 -0.14935,-7.01163 -1.16667,-7.277481 -0.64166,-0.167685 0.33334,-0.304882 2.16667,-0.304882 1.83333,0 2.80833,0.137197 2.16667,0.304882 -1.01732,0.265851 -1.16667,1.1975 -1.16667,7.277481 0,6.615261 0.0769,7.002201 1.5,7.550194 1.11195,0.428167 0.46519,0.577587 -2.5,0.577587 -2.96519,0 -3.61195,-0.14942 -2.5,-0.577587 z m 16.83333,0.349787 c 0,-0.199647 0.49403,-2.329733 1.09784,-4.733522 0.93348,-3.716168 0.95843,-4.458806 0.16667,-4.960135 -0.52917,-0.335063 -0.60665,-0.594013 -0.17947,-0.599814 0.41344,-0.0056 1.12824,0.443491 1.58845,0.998012 0.67515,0.813505 1.04499,0.84959 1.91497,0.186841 0.59302,-0.451759 0.44042,-0.08046 -0.33909,0.825112 -0.77952,0.905571 -1.78444,3.221493 -2.23317,5.146493 -0.44872,1.925 -1.08593,3.5 -1.41602,3.5 -0.3301,0 -0.60018,-0.163347 -0.60018,-0.362987 z m 6.91818,-1.470347 c 0.22382,-1.008333 0.5971,-3.228958 0.82952,-4.934722 0.36468,-2.676577 0.2511,-3.145396 -0.82924,-3.422666 -0.92648,-0.237786 -0.97512,-0.341373 -0.18713,-0.398611 1.30643,-0.0949 4.22884,2.329252 3.41464,2.832452 -0.32276,0.199479 -0.95916,2.026382 -1.41421,4.059788 -0.45506,2.033399 -1.14084,3.697093 -1.52395,3.697093 -0.41411,0 -0.53155,-0.743434 -0.28963,-1.833334 z m 6.63704,0.783287 c -0.22162,-0.577527 -0.0622,-2.187333 0.35425,-3.577346 1.03169,-3.443472 0.9506,-5.214829 -0.25587,-5.589199 -0.78724,-0.244281 -0.76601,-0.292331 0.0952,-0.215549 2.05633,0.18333 2.59622,2.069439 1.64961,5.762916 -0.97116,3.789271 -0.68394,4.652998 1.08547,3.264225 1.07551,-0.84414 1.09979,-0.82252 0.26782,0.238333 -1.13753,1.450453 -2.66329,1.50612 -3.19649,0.11662 z M 99.024311,65.360195 c -1.63984,-1.812002 -0.85468,-4.410019 1.826909,-6.045051 3.01557,-1.838665 3.36691,-1.63584 1.0975,0.633572 -2.030962,2.030961 -2.519402,4.547272 -1.14872,5.917949 0.49038,0.490389 0.53038,0.8 0.10332,0.8 -0.38317,0 -1.228722,-0.587911 -1.879009,-1.30647 z m 9.449519,-0.19353 c 2.10005,-2.294428 2.50778,-4.380333 1.1496,-5.881109 -1.14253,-1.262476 -0.66565,-1.738478 0.77677,-0.775349 2.55414,1.705447 2.23898,5.147484 -0.64429,7.036675 -2.37497,1.556143 -2.90934,1.39767 -1.28208,-0.380217 z M 54.666666,21.999999 c 0,-11.111111 0.239316,-17.3333325 0.666666,-17.3333325 0.427351,0 0.666667,6.2222215 0.666667,17.3333325 0,11.111111 -0.239316,17.333333 -0.666667,17.333333 -0.42735,0 -0.666666,-6.222222 -0.666666,-17.333333 z M 12,24.303677 c 0,-0.199645 0.494028,-2.329728 1.097842,-4.73352 0.933471,-3.716168 0.958424,-4.458805 0.166666,-4.960135 -0.529172,-0.335063 -0.606652,-0.594012 -0.179472,-0.599814 0.413438,-0.0056 1.128241,0.443491 1.588453,0.998012 0.675149,0.813506 1.044982,0.84959 1.914963,0.186841 0.593018,-0.451759 0.440428,-0.08046 -0.339089,0.825113 -0.779517,0.90557 -1.784439,3.221492 -2.233161,5.146492 -0.448721,1.925 -1.085934,3.5 -1.41603,3.5 C 12.270078,24.666666 12,24.503321 12,24.303677 Z m 6.918176,-1.470344 c 0.22382,-1.008334 0.597102,-3.228959 0.829514,-4.934723 0.364688,-2.676577 0.251104,-3.145396 -0.829228,-3.422666 -0.92649,-0.237786 -0.975121,-0.341373 -0.187136,-0.39861 1.306426,-0.0949 4.228839,2.329251 3.414644,2.832452 -0.322765,0.199478 -0.959162,2.026381 -1.414218,4.059784 -0.455056,2.033403 -1.140832,3.697096 -1.523948,3.697096 -0.414108,0 -0.531554,-0.743431 -0.289628,-1.833333 z m 6.637036,0.783286 c -0.221617,-0.577526 -0.0622,-2.187332 0.354257,-3.577346 1.031689,-3.443471 0.950597,-5.214829 -0.255872,-5.589199 -0.787235,-0.24428 -0.76601,-0.29233 0.09521,-0.215549 2.056325,0.183331 2.596214,2.069439 1.649604,5.762916 -0.971161,3.789274 -0.683941,4.652998 1.085476,3.264226 1.075504,-0.844138 1.099794,-0.822522 0.267814,0.238332 -1.137526,1.450456 -2.66329,1.506121 -3.196491,0.11662 z m 44.946247,0.579367 c 1.69498,-0.326366 3.475086,-2.855549 2.021993,-2.872862 -0.684987,-0.0082 -0.681647,-0.121279 0.01667,-0.564129 0.480393,-0.304656 1.450246,-2.775062 2.15524,-5.489791 1.566526,-6.0322242 1.560659,-5.7712056 0.137993,-6.1429869 -0.641667,-0.1676853 0.333333,-0.3206667 2.166666,-0.3399587 2.385174,-0.0251 2.946227,0.1217887 1.972427,0.5163967 -1.8475,0.7486509 -4.312026,10.5280049 -2.881587,11.4342619 0.7118,0.450961 0.6559,0.578215 -0.257506,0.586207 -1.774747,0.01553 -1.483827,2.523053 0.333333,2.873053 0.825,0.158902 -0.45,0.288913 -2.833333,0.288913 -2.383333,0 -3.657673,-0.130097 -2.831873,-0.289104 z m -1.477147,-4.83579 c -1.63984,-1.812002 -0.85468,-4.410018 1.826913,-6.04505 3.015567,-1.838666 3.366907,-1.635841 1.097494,0.633572 -2.03096,2.03096 -2.5194,4.547271 -1.14872,5.917948 0.490386,0.490389 0.53038,0.8 0.103326,0.8 -0.383173,0 -1.228726,-0.587911 -1.879013,-1.30647 z m 9.44952,-0.19353 c 2.100046,-2.294428 2.50778,-4.380332 1.1496,-5.881109 -1.142527,-1.262476 -0.665654,-1.738478 0.776766,-0.775349 2.55414,1.705447 2.238987,5.147484 -0.644286,7.036675 -2.374974,1.556143 -2.90934,1.397669 -1.28208,-0.380217 z"
         id="path174" />
    </g>
  </g>
</svg>
