<?xml version="1.0" encoding="UTF-8" standalone="no"?>
<svg
   xmlns:dc="http://purl.org/dc/elements/1.1/"
   xmlns:cc="http://creativecommons.org/ns#"
   xmlns:rdf="http://www.w3.org/1999/02/22-rdf-syntax-ns#"
   xmlns:svg="http://www.w3.org/2000/svg"
   xmlns="http://www.w3.org/2000/svg"
   xmlns:sodipodi="http://sodipodi.sourceforge.net/DTD/sodipodi-0.dtd"
   xmlns:inkscape="http://www.inkscape.org/namespaces/inkscape"
   version="1.1"
   id="svg422"
   width="239.96935"
   height="355.16718"
   viewBox="0 0 239.96935 355.16717"
   sodipodi:docname="5-2-example-4.svg"
   inkscape:version="1.0.1 (c497b03c, 2020-09-10)">
  <metadata
     id="metadata428">
    <rdf:RDF>
      <cc:Work
         rdf:about="">
        <dc:format>image/svg+xml</dc:format>
        <dc:type
           rdf:resource="http://purl.org/dc/dcmitype/StillImage" />
        <dc:title></dc:title>
      </cc:Work>
    </rdf:RDF>
  </metadata>
  <defs
     id="defs426" />
  <sodipodi:namedview
     pagecolor="#ffffff"
     bordercolor="#666666"
     borderopacity="1"
     objecttolerance="10"
     gridtolerance="10"
     guidetolerance="10"
     inkscape:pageopacity="0"
     inkscape:pageshadow="2"
     inkscape:window-width="740"
     inkscape:window-height="480"
     id="namedview424"
     showgrid="false"
     fit-margin-top="0"
     fit-margin-left="0"
     fit-margin-right="0"
     fit-margin-bottom="0"
     inkscape:pagecheckerboard="true"
     inkscape:zoom="0.55497742"
     inkscape:cx="178.20465"
     inkscape:cy="200.07871"
     inkscape:window-x="187"
     inkscape:window-y="66"
     inkscape:window-maximized="0"
     inkscape:current-layer="g430" />
  <g
     inkscape:groupmode="layer"
     inkscape:label="Image"
     id="g430"
     transform="translate(69.03084,21.944561)">
    <path
       style="fill:#1d1d1d;stroke-width:0.666667"
       d="m -66.012983,332.14616 c -1.292644,-1.29264 -1.021482,-2.50256 0.632726,-2.8232 0.938072,-0.18182 1.125212,0.0779 0.840502,1.16667 -0.263788,1.00873 -0.05731,1.39773 0.737995,1.39037 1.664587,-0.0154 2.612319,-0.81917 3.395879,-2.88009 0.971146,-2.55431 0.933891,-3.60188 -0.09163,-2.57637 -1.177342,1.17734 -4.170532,0.97328 -5.378067,-0.36666 -2.409424,-2.67362 -1.705572,-7.96786 1.207935,-9.08588 4.23163,-1.62383 6.970132,1.143 6.970132,7.04222 0,4.57098 -1.17828,7.28857 -3.648038,8.41386 -2.340915,1.0666 -3.38262,1.0039 -4.667438,-0.28092 z m 4.896554,-6.48616 c 2.171834,-2.6169 0.995118,-8.34011 -1.618068,-7.86982 -1.706814,0.30717 -2.27374,1.29345 -2.286134,3.97719 -0.01834,3.97085 2.092578,6.07551 3.904202,3.89263 z m 112.456063,0.54224 c -1.72372,-3.86172 -2.99825,-7.38672 -2.83228,-7.83334 0.2991,-0.80483 5.79514,10.31125 5.79514,11.72102 0,1.39937 1.10045,-0.51647 3.6679,-6.38566 1.4081,-3.21894 2.8076,-5.60521 3.10999,-5.30282 0.55039,0.55038 -5.41122,14.81939 -6.19229,14.82116 -0.22793,5.2e-4 -1.82473,-3.15864 -3.54846,-7.02036 z m 21.86752,6.36025 c -3.70376,-1.49465 -4.76423,-7.37163 -2.05546,-11.39116 2.94126,-4.36454 8.66962,-6.61914 11.7951,-4.64238 0.62212,0.39347 1.29468,0.35521 1.84945,-0.10521 1.39043,-1.15396 1.62322,-0.25516 0.79045,3.05204 -0.87654,3.48106 -1.95087,4.08488 -1.95087,1.09646 0,-2.49701 -2.40225,-4.27445 -4.92222,-3.64198 -4.05307,1.01726 -7.84674,8.18396 -6.37761,12.04808 0.87628,2.30477 1.72843,2.88844 4.23639,2.90166 1.40304,0.007 2.64277,-0.73218 4.5,-2.68453 2.78881,-2.93165 3.19219,-2.90871 1.42607,0.0811 -1.86826,3.16271 -5.98705,4.61934 -9.2913,3.28591 z m -127.779661,-0.43617 c -0.943676,-0.94368 -0.409688,-2.23611 0.923883,-2.23611 0.931974,0 1.312003,0.36203 1.166666,1.11142 -0.237962,1.22699 -1.376001,1.83924 -2.090549,1.12469 z m 78.500191,-0.169 c 0.24942,-0.40358 0.87423,-0.73378 1.38845,-0.73378 0.52005,0 1.22431,-1.10945 1.58696,-2.5 1.63681,-6.2761 2.73273,-10.72609 2.73273,-11.09622 0,-0.22208 -0.45,-0.40378 -1,-0.40378 -0.55,0 -1,-0.3 -1,-0.66666 0,-0.96724 9.34491,-0.80898 11.33333,0.19194 2.54065,1.27889 2.56603,4.01632 0.0545,5.87322 -1.96745,1.4546 -1.98739,1.52294 -0.7062,2.42032 1.81973,1.27459 1.64959,3.63742 -0.40072,5.56498 -1.52419,1.43292 -2.44057,1.64272 -8.08082,1.84998 -4.51063,0.16575 -6.22973,0.0203 -5.90818,-0.5 z m 11.74853,-2.1075 c 0.86866,-0.86866 1.29759,-2.0329 1.16666,-3.16666 -0.18794,-1.62744 -0.49559,-1.81155 -3.33276,-1.99447 -3.10604,-0.20025 -3.13013,-0.18558 -3.82961,2.33333 -1.09549,3.94498 -0.9761,4.20152 1.95532,4.20152 1.80391,0 3.11111,-0.44444 4.04039,-1.37372 z m 1.49116,-7.81457 c 0.70444,-0.63227 1.11654,-1.77663 1,-2.77692 -0.16935,-1.45369 -0.57506,-1.73235 -2.78607,-1.9136 -3.16325,-0.25932 -3.55249,0.098 -4.14476,3.80511 l -0.46753,2.9263 2.60007,-0.4827 c 1.43004,-0.2655 3.13927,-0.96668 3.79829,-1.55819 z m 83.468446,9.85496 c 0.22661,-0.36667 0.83275,-0.66667 1.34698,-0.66667 0.52005,0 1.22431,-1.10945 1.58696,-2.5 1.63681,-6.2761 2.73273,-10.72609 2.73273,-11.09622 0,-0.22208 -0.46771,-0.40378 -1.03935,-0.40378 -0.57164,0 -0.85393,-0.3 -0.62732,-0.66666 0.22761,-0.36828 3.22915,-0.66667 6.70601,-0.66667 h 6.29399 v 2.62732 c 0,1.44503 -0.3,2.81273 -0.66667,3.03935 -0.38694,0.23914 -0.66666,-0.41375 -0.66666,-1.556 0,-2.23933 -0.90849,-2.77734 -4.68986,-2.77734 -2.41439,0 -2.62557,0.16121 -3.27509,2.5 -0.95808,3.44988 -0.94095,3.5 1.19641,3.5 1.29195,0 2.1482,-0.47902 2.68121,-1.5 0.67163,-1.28648 0.72871,-1.07297 0.40109,1.5 -0.41017,3.22116 -1.6471,5.32389 -1.6471,2.8 0,-1.17175 -0.38623,-1.46666 -1.92086,-1.46666 -1.71654,0 -2.00018,0.31502 -2.66666,2.96188 -0.4102,1.62903 -0.74581,3.12903 -0.74581,3.33333 0,0.50641 5.62906,0.47195 6.97013,-0.0427 0.59355,-0.22776 1.54021,-1.30564 2.10368,-2.39528 1.503,-2.90648 2.00783,-1.66178 0.59592,1.46927 l -1.20556,2.67347 h -6.9381 c -4.45563,0 -6.79067,-0.23854 -6.52607,-0.66667 z m -100.333326,-4 v -2.66667 h -6 c -3.55556,0 -5.9999997,-0.2716 -5.9999997,-0.66666 0,-0.4 2.6666597,-0.66667 6.6666597,-0.66667 h 6.66667 v 3.33333 c 0,1.83334 -0.3,3.33334 -0.66667,3.33334 -0.36666,0 -0.66666,-1.2 -0.66666,-2.66667 z m 27.03333,-20.56646 c 0.34833,-0.31155 3.48333,-2.80618 6.96667,-5.54361 3.48333,-2.73744 12.18333,-9.58327 19.33333,-15.21296 7.15,-5.62969 13.36815,-10.51611 13.81811,-10.85872 0.5741,-0.43712 5.0482,2.71992 14.999996,10.58437 7.80004,6.16401 16.98161,13.42033 20.40348,16.12518 3.42188,2.70485 6.0618,5.0777 5.8665,5.273 -0.3569,0.3569 -3.73818,-2.23869 -27.30212,-20.95807 -7.032276,-5.5865 -13.151256,-10.02464 -13.597716,-9.86254 -0.44647,0.1621 -5.99647,4.41773 -12.33334,9.45694 -6.33686,5.03921 -15.03714,11.95235 -19.33394,15.36254 -4.2968,3.41018 -8.1818,6.20033 -8.63334,6.20033 -0.50296,0 -0.57564,-0.21942 -0.18763,-0.56646 z M -66.061143,266.92051 c -1.995132,-1.99513 -2.04469,-2.99805 -0.260242,-5.26661 1.270828,-1.6156 1.296332,-1.86337 0.333333,-3.23824 -1.401647,-2.00114 -1.312805,-3.58877 0.290545,-5.19212 1.59464,-1.59464 4.82974,-1.74169 6.285714,-0.28571 1.375279,1.37528 1.349588,4.71713 -0.04225,5.49605 -0.979325,0.54806 -0.945515,0.75428 0.333333,2.03312 1.40204,1.40204 1.87042,4.38953 0.912996,5.82341 -0.732098,1.09641 -3.215026,2.26647 -4.8096,2.26647 -0.774106,0 -2.143828,-0.73637 -3.043829,-1.63637 z m 6.337057,-0.66494 c 1.226847,-1.47826 0.577659,-3.16345 -1.740129,-4.51711 -1.92279,-1.12298 -2.183862,-1.13578 -3.164488,-0.15515 -1.261802,1.26181 -1.39783,3.71121 -0.268804,4.84023 1.104611,1.10462 4.200698,1.00409 5.173421,-0.16797 z m -0.773421,-8.49869 c 1.257579,-1.25759 0.942252,-3.74363 -0.578038,-4.55727 -1.071956,-0.57369 -1.7383,-0.50145 -3,0.32525 -2.074311,1.35914 -2.040294,1.94203 0.211372,3.62196 2.171214,1.6199 2.328346,1.64838 3.366666,0.61006 z m 5.925,9.70278 c -0.943676,-0.94368 -0.409688,-2.23612 0.923883,-2.23612 0.931974,0 1.312003,0.36204 1.166666,1.11142 -0.237962,1.22699 -1.376001,1.83924 -2.090549,1.1247 z m 141.208331,-0.23612 c 0.22661,-0.36666 0.83275,-0.66666 1.34698,-0.66666 0.52005,0 1.22431,-1.10946 1.58696,-2.5 1.63681,-6.2761 2.73273,-10.7261 2.73273,-11.09623 0,-0.22208 -0.45,-0.40378 -1,-0.40378 -0.55,0 -1,-0.33078 -1,-0.73508 0,-0.49631 1.83466,-0.65872 5.6484,-0.5 6.436776,0.2679 8.136126,1.29294 8.744886,5.27494 0.46199,3.02191 -1.96178,7.77444 -4.991876,9.7881 -1.90184,1.26387 -3.16487,1.50538 -7.87268,1.50538 -3.56852,0 -5.45761,-0.24241 -5.1954,-0.66667 z m 11.99088,-2.11193 c 3.522616,-2.77089 4.881226,-9.25718 2.407846,-11.49556 -0.8486,-0.76797 -2.103576,-1.07774 -3.794656,-0.93665 -2.52396,0.21057 -2.52795,0.21571 -3.6558,4.69982 -0.621,2.46894 -1.327,5.54394 -1.56889,6.83333 l -0.4398,2.34433 h 2.60697 c 1.66481,0 3.271,-0.52232 4.44433,-1.44527 z m -15.65755,-1.88807 v -2.66666 h -6 c -3.55555,0 -6,-0.27161 -6,-0.66667 0,-0.4 2.66667,-0.66667 6.66667,-0.66667 h 6.66667 v 3.33334 c 0,1.83333 -0.3,3.33333 -0.66667,3.33333 -0.36667,0 -0.66667,-1.2 -0.66667,-2.66667 z M -64.807931,238.84285 c -0.662712,-1.72701 0.902999,-6.78526 3.114635,-10.06229 l 1.950678,-2.89035 h -3.277651 c -2.418263,0 -3.455819,0.30589 -3.957172,1.16666 -0.612209,1.0511 -0.681529,1.02348 -0.699793,-0.2788 -0.04391,-3.13077 0.441375,-3.4164 5.18701,-3.05295 2.452661,0.18783 4.572977,0.44041 4.711813,0.56129 0.138837,0.12087 -0.734208,1.75731 -1.940099,3.63653 -1.624829,2.53207 -2.294347,4.46675 -2.585763,7.47195 -0.391312,4.03538 -1.625834,5.73552 -2.503658,3.44796 z m 156.015085,0.3863 c -3.70376,-1.49465 -4.76423,-7.37162 -2.05546,-11.39116 2.94126,-4.36454 8.66962,-6.61914 11.795096,-4.64238 0.62212,0.39347 1.29468,0.35521 1.84945,-0.1052 1.39043,-1.15396 1.62322,-0.25516 0.79045,3.05204 -0.87654,3.48106 -1.95087,4.08487 -1.95087,1.09646 0,-2.49702 -2.402246,-4.27446 -4.922216,-3.64199 -4.05307,1.01726 -7.84674,8.18397 -6.37761,12.04808 0.87628,2.30477 1.72843,2.88845 4.23639,2.90167 1.40304,0.007 2.64277,-0.73219 4.5,-2.68454 2.788806,-2.93164 3.192186,-2.9087 1.426066,0.0811 -1.868256,3.16271 -5.987046,4.61934 -9.291296,3.28591 z m -146.446327,-0.43616 c -0.943677,-0.94368 -0.409688,-2.23612 0.923882,-2.23612 0.931975,0 1.312003,0.36204 1.166667,1.11142 -0.237962,1.22699 -1.376002,1.83924 -2.090549,1.1247 z m 139.541667,-4.23612 v -2.66666 h -6 c -3.55556,0 -6,-0.27161 -6,-0.66667 0,-0.4 2.66666,-0.66667 6.66666,-0.66667 h 6.66667 v 3.33334 c 0,1.83333 -0.3,3.33333 -0.66667,3.33333 -0.36666,0 -0.66666,-1.2 -0.66666,-2.66667 z m 3.33333,-36.33333 c 0,-10.44445 0.24036,-16.33333 0.66667,-16.33333 0.4263,0 0.66666,5.88888 0.66666,16.33333 0,10.44445 -0.24036,16.33333 -0.66666,16.33333 -0.42631,0 -0.66667,-5.88888 -0.66667,-16.33333 z M -65.350294,172.96469 c -5.349726,-5.34972 -0.572123,-17.16554 5.931596,-14.66982 1.393305,0.53466 1.404048,3.59534 0.01262,3.59534 -0.687209,0 -0.970901,-0.48955 -0.833333,-1.43804 0.479856,-3.30844 -3.692118,-1.14569 -4.519954,2.34314 -0.418954,1.76565 -0.351364,1.85123 0.923278,1.16906 2.946545,-1.57694 6.13858,1.01304 6.13858,4.98078 0,2.283 -0.348616,3.1225 -1.756572,4.23 -2.293842,1.80434 -3.940183,1.74558 -5.896215,-0.21046 z m 4.962665,-1.03066 c 1.548734,-2.89383 0.347528,-7.37716 -1.976544,-7.37716 -1.515203,0 -2.666667,1.87113 -2.666667,4.33334 0,2.4622 1.151464,4.33333 2.666667,4.33333 0.707532,0 1.596976,-0.58028 1.976544,-1.28951 z m 5.815122,1.52562 c -0.943676,-0.94368 -0.409688,-2.23611 0.923883,-2.23611 0.931974,0 1.312003,0.36203 1.166666,1.11142 -0.237962,1.22699 -1.376001,1.83924 -2.090549,1.12469 z m 133.833521,-0.169 c 0.24942,-0.40358 0.87423,-0.73378 1.38846,-0.73378 0.52004,0 1.2243,-1.10945 1.58696,-2.5 1.6368,-6.2761 2.73272,-10.72609 2.73272,-11.09622 0,-0.22208 -0.45,-0.40378 -1,-0.40378 -0.55,0 -1,-0.3 -1,-0.66666 0,-0.96724 9.34491,-0.80898 11.33334,0.19194 2.54064,1.27889 2.56602,4.01632 0.0545,5.87322 -1.96745,1.4546 -1.98739,1.52294 -0.7062,2.42032 1.81974,1.27459 1.6496,3.63742 -0.40072,5.56498 -1.52419,1.43292 -2.44056,1.64272 -8.08082,1.84998 -4.51062,0.16575 -6.22972,0.0203 -5.90818,-0.5 z m 11.74853,-2.1075 c 0.86866,-0.86866 1.29759,-2.0329 1.16667,-3.16666 -0.18794,-1.62744 -0.4956,-1.81155 -3.33276,-1.99447 -3.10605,-0.20025 -3.13014,-0.18558 -3.82962,2.33333 -1.09549,3.94498 -0.9761,4.20152 1.95532,4.20152 1.80391,0 3.11112,-0.44444 4.04039,-1.37372 z m 1.49117,-7.81457 c 0.70444,-0.63227 1.11654,-1.77663 1,-2.77692 -0.16936,-1.45369 -0.57507,-1.73235 -2.78608,-1.9136 -3.16325,-0.25932 -3.55248,0.098 -4.14476,3.80511 l -0.46752,2.9263 2.60006,-0.4827 c 1.43004,-0.2655 3.13928,-0.96668 3.7983,-1.55819 z M -65.549169,145.51907 c -1.809507,-1.26743 -2.106102,-4.9622 -0.398338,-4.9622 0.847168,0 0.996488,0.43423 0.684956,1.99189 -0.343892,1.71946 -0.171744,2.04877 1.258657,2.40778 0.942173,0.23647 2.084711,0.0609 2.648378,-0.40685 0.999211,-0.82927 1.348012,-4.9543 0.586683,-6.93829 -0.510677,-1.33081 -2.507558,-1.36523 -3.589248,-0.0619 -1.355564,1.63336 -2.006092,0.4844 -2.006092,-3.54311 v -3.8051 h 3.992592 c 3.868168,0 3.954594,0.038 2.773257,1.21933 -0.670635,0.67064 -2.167301,1.24629 -3.325926,1.27924 -1.818701,0.0517 -2.10659,0.30105 -2.10659,1.82457 0,1.61454 0.192965,1.74215 2.268021,1.4999 5.366934,-0.62656 7.24897,7.02431 2.350965,9.55717 -2.391987,1.23694 -3.297881,1.22593 -5.137315,-0.0625 z m 10.976662,-0.0594 c -0.943676,-0.94368 -0.409688,-2.23611 0.923883,-2.23611 0.931974,0 1.312003,0.36203 1.166666,1.11142 -0.237962,1.22699 -1.376001,1.83924 -2.090549,1.12469 z m 135.723711,-1.07276 c 1.01679,-0.82318 3.71679,-4.61724 6,-8.43126 2.28321,-3.81402 4.45129,-6.96402 4.81795,-7 0.37064,-0.0364 0.99118,3.27294 1.39749,7.45279 0.58941,6.06338 0.97642,7.70409 2,8.4788 1.15751,0.87607 0.96123,0.96245 -2.23082,0.98179 -1.925,0.0117 -3.5,-0.2788 -3.5,-0.64547 0,-0.36667 0.45,-0.66667 1,-0.66667 0.66667,0 1,-0.66666 1,-2 0,-1.91815 -0.11963,-2 -2.92333,-2 -2.44,0 -3.11824,0.29748 -4.10224,1.79926 -0.80548,1.22932 -0.93536,1.88044 -0.41,2.05555 1.78938,0.59646 0.55536,1.47828 -2.06443,1.47521 l -2.83333,-0.003 1.84871,-1.49669 z m 9.81795,-8.16335 c 0,-1.65 -0.225,-2.99769 -0.5,-2.99487 -0.47825,0.005 -3.5,4.86298 -3.5,5.62695 0,0.20235 0.9,0.36792 2,0.36792 1.92593,0 2,-0.11111 2,-3 z m -3.33333,-31.66669 c 0,-10.222218 0.24074,-15.999998 0.66667,-15.999998 0.42592,0 0.66666,5.77778 0.66666,15.999998 0,10.22222 -0.24074,16 -0.66666,16 -0.42593,0 -0.66667,-5.77778 -0.66667,-16 z M -65.03084,79.890212 c 0,-0.36667 0.45,-0.66667 1,-0.66667 0.555555,0 1,-0.59259 1,-1.33333 0,-1.1358 -0.444445,-1.33334 -3,-1.33334 -1.65,0 -3,-0.30248 -3,-0.67218 0,-0.92068 6.877224,-11.2941 7.5,-11.3128 0.275,-0.008 0.5,2.39465 0.5,5.3398 0,4.93005 0.118985,5.40264 1.5,5.95774 1.086806,0.43684 1.189465,0.61457 0.372678,0.64518 -1.912689,0.0717 -2.151527,1.49159 -0.468558,2.78558 l 1.59588,1.22704 -3.5,0.0148 c -1.925,0.008 -3.5,-0.28516 -3.5,-0.65182 z m 2,-7.66667 c 0,-2.01667 -0.105157,-3.66667 -0.233683,-3.66667 -0.271328,0 -4.432984,6.61314 -4.432984,7.0443 0,0.15897 1.05,0.28904 2.333334,0.28904 h 2.333333 z m 7.791667,7.90278 c -0.943677,-0.94368 -0.409688,-2.23611 0.923882,-2.23611 0.931975,0 1.312003,0.36203 1.166667,1.11142 -0.237962,1.22698 -1.376002,1.83924 -2.090549,1.12469 z m 142.541667,-0.23611 c 0.22661,-0.36667 0.83275,-0.66667 1.34698,-0.66667 0.52004,0 1.2243,-1.10945 1.58696,-2.5 1.6368,-6.2761 2.73272,-10.72609 2.73272,-11.09623 0,-0.22208 -0.4677,-0.40377 -1.03934,-0.40377 -0.57164,0 -0.85394,-0.3 -0.62732,-0.66667 0.2276,-0.36827 3.22914,-0.66666 6.70601,-0.66666 h 6.293986 v 2.62732 c 0,1.44502 -0.3,2.81273 -0.66667,3.03934 -0.38694,0.23914 -0.66667,-0.41374 -0.66667,-1.55599 0,-2.23933 -0.90848,-2.77734 -4.689846,-2.77734 -2.41439,0 -2.62557,0.16121 -3.27509,2.5 -0.95808,3.44988 -0.94095,3.5 1.1964,3.5 1.29196,0 2.1482,-0.47903 2.68122,-1.5 0.67162,-1.28649 0.72871,-1.07297 0.40108,1.5 -0.41016,3.22115 -1.64709,5.32389 -1.64709,2.8 0,-1.17175 -0.38623,-1.46667 -1.92086,-1.46667 -1.71655,0 -2.00018,0.31503 -2.66667,2.96188 -0.41019,1.62904 -0.7458,3.12904 -0.7458,3.33334 0,0.5064 5.62906,0.47194 6.97013,-0.0427 0.59355,-0.22777 1.540206,-1.30565 2.103676,-2.39529 1.50299,-2.90647 2.00783,-1.66178 0.59592,1.46928 l -1.20557,2.67349 h -6.938086 c -4.45563,0 -6.79067,-0.23853 -6.52607,-0.66666 z m -3.66667,-4 v -2.66667 h -6 c -3.55555,0 -6,-0.27161 -6,-0.66667 0,-0.4 2.66667,-0.66666 6.66667,-0.66666 h 6.66666 v 3.33333 c 0,1.83333 -0.3,3.33333 -0.66666,3.33333 -0.36667,0 -0.66667,-1.2 -0.66667,-2.66666 z M 7.9919843,56.185167 c -4.121319,-4.446973 -4.577165,-13.58298 -0.96215,-19.28326 2.4589,-3.877294 3.8774197,-3.94774 1.61077,-0.08 -3.081672,5.25848 -3.053085,13.51294 0.0627,18.104307 2.0471797,3.0167 1.6193997,3.773838 -0.71132,1.258953 z m 84.9771697,1.41128 c 0,-0.275227 0.61392,-1.362587 1.36428,-2.41636 2.17374,-3.05274 3.06071,-8.575314 2.10769,-13.123214 -0.44181,-2.108333 -1.40373,-4.646186 -2.13763,-5.639673 -1.57066,-2.126253 -1.66618,-2.612487 -0.41919,-2.133973 0.50333,0.193146 1.70333,1.799326 2.66667,3.569293 3.20692,5.892193 2.15528,15.055834 -2.17754,18.974347 -0.77236,0.698493 -1.40428,1.044807 -1.40428,0.76958 z M -66.72781,50.920507 c -1.892572,-1.892567 -2.065439,-2.907493 -0.591552,-3.47308 1.50468,-0.5774 2.710534,0.797667 1.732718,1.975867 -0.935469,1.127166 -0.362093,1.800246 1.533582,1.800246 1.991549,0 3.022222,-1.250446 3.022222,-3.666667 0,-2.38846 -1.021595,-3.658086 -2.966667,-3.68694 -1.357706,-0.02013 -1.357924,-0.02507 -0.03333,-0.749546 2.908739,-1.59096 3.708384,-3.759894 2.011727,-5.456547 -1.542278,-1.54228 -3.541277,-0.69024 -3.152468,1.343687 0.257694,1.348033 0.08294,1.63568 -0.880291,1.448973 -1.770819,-0.343253 -1.913713,-1.631547 -0.353968,-3.191293 1.492127,-1.492127 4.041113,-1.779 6.085494,-0.68488 1.606504,0.85978 1.722237,4.115246 0.2004,5.63708 -1.007697,1.0077 -0.982781,1.16358 0.333333,2.08542 2.109285,1.477406 1.933716,5.088433 -0.334133,6.872327 -2.330171,1.832913 -4.607269,1.745153 -6.607064,-0.254647 z m 122.734114,-5.38494 c -1.72373,-3.86172 -2.99825,-7.38672 -2.83228,-7.833334 0.29909,-0.804833 5.79513,10.311247 5.79513,11.721021 0,1.399366 1.10046,-0.516474 3.6679,-6.385667 1.40811,-3.21894 2.80761,-5.605207 3.11,-5.30282 0.55038,0.550386 -5.41122,14.819393 -6.1923,14.821167 -0.22792,5.2e-4 -1.82472,-3.158647 -3.54845,-7.020367 z m 21.86752,6.360253 c -3.70377,-1.494653 -4.76423,-7.371627 -2.05547,-11.39116 2.94126,-4.36454 8.66962,-6.61914 11.79511,-4.64238 0.62212,0.393467 1.29468,0.355207 1.84945,-0.105207 1.39043,-1.15396 1.62322,-0.25516 0.79045,3.05204 -0.87654,3.48106 -1.95087,4.084874 -1.95087,1.09646 0,-2.497013 -2.40226,-4.274453 -4.92222,-3.641986 -4.05307,1.01726 -7.84674,8.183966 -6.37761,12.04808 0.87627,2.304773 1.72843,2.888447 4.23639,2.901667 1.40304,0.0074 2.64277,-0.732187 4.5,-2.684534 2.78881,-2.931647 3.19219,-2.908707 1.42606,0.08111 -1.86826,3.162713 -5.98704,4.61934 -9.29129,3.285913 z M 110.0063,45.535567 c -1.72373,-3.86172 -2.99825,-7.38672 -2.83228,-7.833334 0.29909,-0.804833 5.79513,10.311247 5.79513,11.721021 0,1.399366 1.10046,-0.516474 3.6679,-6.385667 1.40811,-3.21894 2.80761,-5.605207 3.11,-5.30282 0.55038,0.550386 -5.41122,14.819393 -6.1923,14.821167 -0.22792,5.2e-4 -1.82472,-3.158647 -3.54845,-7.020367 z m 47.29526,4.07988 c -0.97299,-1.660287 -1.57812,-3.327674 -1.34473,-3.705307 0.76576,-1.239027 2.11641,-0.72 2.96331,1.138727 l 0.83167,1.825327 1.61961,-3.407694 c 1.72399,-3.627313 7.80864,-10.24296 9.42082,-10.24296 0.53127,0 -0.43089,1.357573 -2.13814,3.01682 -1.92745,1.873273 -3.86419,4.71622 -5.10934,7.5 -3.57104,7.983827 -3.76482,8.104114 -6.2432,3.875087 z m -212.540733,1.844207 c -0.943677,-0.94368 -0.409688,-2.236114 0.923882,-2.236114 0.931975,0 1.312003,0.362034 1.166667,1.11142 -0.237962,1.226987 -1.376002,1.83924 -2.090549,1.124694 z m 83.833527,-0.169007 c 0.24942,-0.403573 0.87422,-0.733773 1.38845,-0.733773 0.52005,0 1.22431,-1.109454 1.58696,-2.5 1.63681,-6.276101 2.73273,-10.726094 2.73273,-11.096227 0,-0.22208 -0.45,-0.403774 -1,-0.403774 -0.55,0 -1,-0.3 -1,-0.666666 0,-0.96724 9.3449,-0.80898 11.33333,0.19194 2.54065,1.278893 2.56603,4.016326 0.0545,5.87322 -1.96746,1.4546 -1.9874,1.52294 -0.7062,2.42032 1.81973,1.274593 1.64959,3.637427 -0.40072,5.56498 -1.5242,1.432927 -2.44057,1.64272 -8.08082,1.84998 -4.51063,0.165753 -6.22973,0.02027 -5.90818,-0.5 z m 11.74852,-2.107493 c 0.86866,-0.86866 1.2976,-2.032907 1.16667,-3.166667 -0.18794,-1.627434 -0.49559,-1.811547 -3.33276,-1.994467 -3.10605,-0.200253 -3.13013,-0.18558 -3.82961,2.333333 -1.0955,3.944974 -0.9761,4.201521 1.95532,4.201521 1.8039,0 3.11111,-0.444447 4.04038,-1.37372 z m 1.49117,-7.814574 c 0.70444,-0.632273 1.11654,-1.776633 1,-2.77692 -0.16935,-1.453687 -0.57507,-1.732347 -2.78607,-1.9136 -3.16326,-0.25932 -3.55249,0.09801 -4.14476,3.805113 l -0.46753,2.9263 2.60007,-0.482706 c 1.43004,-0.265494 3.13927,-0.966674 3.79829,-1.558187 z m 86.135106,9.85496 c 0.22662,-0.366666 0.83276,-0.666666 1.34698,-0.666666 0.52005,0 1.22431,-1.109454 1.58696,-2.5 1.63681,-6.276101 2.73273,-10.726094 2.73273,-11.096227 0,-0.22208 -0.46771,-0.403774 -1.03935,-0.403774 -0.57164,0 -0.85393,-0.3 -0.62732,-0.666666 0.22761,-0.368274 3.22915,-0.666667 6.70602,-0.666667 h 6.29398 v 2.62732 c 0,1.445027 -0.3,2.812733 -0.66667,3.039347 -0.38694,0.23914 -0.66666,-0.413747 -0.66666,-1.555994 0,-2.239333 -0.90849,-2.77734 -4.68985,-2.77734 -2.4144,0 -2.62558,0.161207 -3.2751,2.5 -0.95808,3.44988 -0.94094,3.5 1.19641,3.5 1.29195,0 2.1482,-0.479026 2.68121,-1.5 0.67163,-1.286486 0.72871,-1.072973 0.40109,1.5 -0.41017,3.221154 -1.64709,5.323887 -1.64709,2.8 0,-1.171753 -0.38624,-1.466666 -1.92086,-1.466666 -1.71655,0 -2.00018,0.315026 -2.66667,2.96188 -0.41019,1.629033 -0.74581,3.129033 -0.74581,3.333333 0,0.506407 5.62906,0.471947 6.97013,-0.04267 0.59355,-0.227767 1.54021,-1.305647 2.10368,-2.395287 1.503,-2.906474 2.00783,-1.66178 0.59592,1.469273 l -1.20556,2.673467 h -6.93809 c -4.45564,0 -6.79068,-0.238533 -6.52608,-0.666667 z m -102.999996,-4 v -2.666667 h -6 c -3.55555,0 -6,-0.271606 -6,-0.666666 0,-0.4 2.66667,-0.666667 6.66667,-0.666667 h 6.66667 v 3.333333 c 0,1.833334 -0.3,3.333334 -0.66667,3.333334 -0.36667,0 -0.66667,-1.2 -0.66667,-2.666667 z m 21.02283,-19.038373 c -4.12132,-4.446975 -4.57717,-13.582979 -0.96215,-19.2832605 2.4589,-3.87729 3.87742,-3.947743 1.61077,-0.08 -3.08167,5.2584805 -3.05309,13.5129435 0.0627,18.1043075 2.04718,3.0167 1.6194,3.773834 -0.71132,1.258954 z m 69.643836,1.41128 c 0,-0.275227 0.61392,-1.362587 1.36427,-2.416361 2.17374,-3.052737 3.06072,-8.575312 2.1077,-13.123213 -0.44181,-2.108333 -1.40374,-4.6461845 -2.13763,-5.6396705 -1.57066,-2.126254 -1.66618,-2.612487 -0.41919,-2.133975 0.50332,0.193146 1.70332,1.799328 2.66666,3.569296 3.20693,5.8921865 2.15529,15.0558325 -2.17754,18.9743435 -0.77235,0.698493 -1.40427,1.044806 -1.40427,0.76958 z M 54.540494,23.895819 c -3.70377,-1.494655 -4.76424,-7.371625 -2.05547,-11.391159 2.94126,-4.3645405 8.66962,-6.6191385 11.79511,-4.6423805 0.62212,0.393467 1.29468,0.355207 1.84944,-0.105208 1.39044,-1.15396 1.62322,-0.255157 0.79046,3.0520425 -0.87654,3.48106 -1.95088,4.084874 -1.95088,1.096461 0,-2.4970125 -2.40225,-4.2744575 -4.92222,-3.6419865 -4.05306,1.017256 -7.84674,8.1839635 -6.3776,12.0480795 0.87627,2.304771 1.72842,2.888442 4.23638,2.901663 1.40304,0.0074 2.64278,-0.732185 4.5,-2.684529 2.78882,-2.931652 3.1922,-2.90871 1.42607,0.0811 -1.86826,3.162714 -5.98705,4.61934 -9.29129,3.285913 z m 22.79914,-6.360255 c -1.72372,-3.86172 -2.99825,-7.38672 -2.83228,-7.8333335 0.2991,-0.804832 5.79514,10.3112475 5.79514,11.7210215 0,1.39937 1.10045,-0.516475 3.6679,-6.385663 1.4081,-3.218939 2.8076,-5.6052095 3.10999,-5.3028235 0.55039,0.5503865 -5.41122,14.8193955 -6.19229,14.8211675 -0.22793,5.17e-4 -1.82473,-3.158649 -3.54846,-7.020369 z m 57.961936,4.079884 c -0.973,-1.660288 -1.57812,-3.327676 -1.34474,-3.705306 0.76576,-1.239027 2.11642,-0.720005 2.96331,1.138724 l 0.83167,1.825325 1.61961,-3.407694 c 1.72399,-3.627314 7.80864,-10.2429575 9.42082,-10.2429575 0.53127,0 -0.43089,1.357571 -2.13814,3.0168235 -1.92745,1.873267 -3.86419,4.716215 -5.10934,7.5 -3.57103,7.983823 -3.76482,8.10411 -6.24319,3.875085 z m -202.999077,1.646886 c 0,-0.34533 1.5,-2.342007 3.333334,-4.43706 2.485668,-2.840512 3.333333,-4.342268 3.333333,-5.90546 0,-2.470195 -1.026297,-3.6962735 -3.093989,-3.6962735 -1.864414,0 -2.601532,1.0936385 -1.572678,2.3333325 0.906006,1.091669 0.352927,2.333333 -1.039344,2.333333 -0.618838,0 -0.960656,-0.698183 -0.960656,-1.962197 0,-3.7815355 5.145338,-5.4097845 7.883791,-2.4948345 2.377148,2.5303575 1.879584,4.7488075 -1.980495,8.8302725 l -3.430038,3.626759 h 2.661494 c 2.101278,0 2.813769,-0.315734 3.384918,-1.5 l 0.723423,-1.5 0.04512,1.445476 c 0.09721,3.114214 -0.525403,3.554524 -5.026205,3.554524 -2.344104,0 -4.262008,-0.282542 -4.262008,-0.627872 z m 12.458334,0.197317 c -0.943677,-0.943677 -0.409688,-2.236111 0.923882,-2.236111 0.931975,0 1.312003,0.362033 1.166667,1.111422 -0.237962,1.226986 -1.376002,1.839237 -2.090549,1.124689 z M 95.302494,23.22354 c 0.22661,-0.366667 0.83275,-0.666667 1.34698,-0.666667 0.52004,0 1.2243,-1.109453 1.58696,-2.5 1.6368,-6.276102 2.732716,-10.7260935 2.732716,-11.0962295 0,-0.222073 -0.45,-0.40377 -0.999996,-0.40377 -0.55,0 -1,-0.330785 -1,-0.735078 0,-0.496316 1.834656,-0.658722 5.648396,-0.5 6.43678,0.267888 8.13614,1.292939 8.7449,5.2749305 0.46198,3.021911 -1.96178,7.774437 -4.99188,9.7881 -1.90184,1.263869 -3.16487,1.50538 -7.87268,1.50538 -3.568516,0 -5.457606,-0.242405 -5.195396,-0.666666 z m 11.990876,-2.111934 c 3.52262,-2.770893 4.88123,-9.257171 2.40784,-11.4955495 -0.8486,-0.767976 -2.10357,-1.077748 -3.79465,-0.936658 -2.52396,0.210578 -2.52795,0.215712 -3.65581,4.6998115 -0.621,2.468952 -1.32699,5.543952 -1.56888,6.833333 l -0.4398,2.34433 h 2.60697 c 1.66481,0 3.27099,-0.522321 4.44433,-1.445267 z M 37.635824,19.22354 v -2.666667 h -6 c -3.55555,0 -6,-0.271605 -6,-0.666667 0,-0.4 2.66667,-0.666666 6.66667,-0.666666 h 6.66666 v 3.333333 c 0,1.833333 -0.3,3.333333 -0.66666,3.333333 -0.36667,0 -0.66667,-1.2 -0.66667,-2.666666 z m 29.55863,-23.9738585 c -2.78569,-1.172097 -2.64814,-4.230168 0.31069,-6.9078795 1.03776,-0.93916 1.25074,-1.7624 0.97937,-3.785607 -0.46928,-3.498796 0.2088,-5.821924 1.85152,-6.343301 3.08788,-0.980058 4.36142,2.814529 1.96646,5.859226 -1.69472,2.15449 -1.68184,2.32904 0.39793,5.38969 l 1.73126,2.5477835 1.60207,-2.3576585 c 1.70757,-2.512913 2.0181,-3.761729 0.9354,-3.761729 -0.36666,0 -0.66666,-0.3 -0.66666,-0.666667 0,-0.366667 1.2,-0.666667 2.66666,-0.666667 2.73116,0 3.62972,0.925982 1.45134,1.49564 -0.66842,0.174797 -2.04104,1.726798 -3.05025,3.44889 -1.46593,2.5014115 -1.67434,3.3245765 -1.03638,4.0932735 1.16954,1.409211 2.99074,1.175212 4.18568,-0.537802 0.57549,-0.825 1.06208,-1.125 1.08131,-0.666667 0.0193,0.458333 -0.59103,1.459331 -1.35614,2.224439 -1.06412,1.06413 -1.80844,1.272778 -3.16666,0.887688 -2.10498,-0.596816 -3.73014,-0.610849 -6.44223,-0.05563 -1.1,0.225193 -2.64862,0.136532 -3.44137,-0.197026 z m 5.00797,-1.283521 c 0.71159,-0.450941 0.48793,-1.139037 -1.06864,-3.287823 -2.14269,-2.9578995 -3.49796,-2.7466635 -3.49796,0.545202 0,2.829757 2.27399,4.195474 4.5666,2.742621 z m 0.10007,-12.8242515 c 0,-1.220668 -0.34736,-1.91837 -0.95508,-1.91837 -1.19215,0 -1.94374,2.21833 -1.36712,4.0351 0.62088,1.956213 2.3222,0.405427 2.3222,-2.11673 z m 44.999076,11.8068725 c -0.973,-1.660288 -1.57812,-3.3276765 -1.34474,-3.7053065 0.76576,-1.239027 2.11642,-0.720005 2.96331,1.1387245 l 0.83167,1.825325 1.61962,-3.4076945 c 1.72398,-3.627314 7.80863,-10.242958 9.42081,-10.242958 0.53127,0 -0.43089,1.357571 -2.13813,3.016824 -1.92746,1.873266 -3.8642,4.716214 -5.10934,7.5 -3.57104,7.9838255 -3.76483,8.1041075 -6.2432,3.8750855 z m -184.999077,1.924924 c 0,-0.192408 0.75,-0.634983 1.666667,-0.983499 1.608208,-0.611439 1.666667,-0.845141 1.666667,-6.6628685 v -6.029202 l -1.666667,0.418307 c -0.938683,0.235595 -1.666667,0.129492 -1.666667,-0.242914 0,-0.363671 0.675,-0.807615 1.5,-0.986541 0.825,-0.178926 2.025,-0.545996 2.666667,-0.815711 1.070519,-0.449976 1.166667,0.119842 1.166667,6.914269 0,6.9602155 0.08003,7.4046605 1.333333,7.4046605 0.733333,0 1.333333,0.3 1.333333,0.666667 0,0.37037 -1.777778,0.666666 -4,0.666666 -2.2,0 -4,-0.157425 -4,-0.349834 z m 12.458334,-0.08072 c -0.943677,-0.943677 -0.409688,-2.236111 0.923882,-2.236111 0.931975,0 1.312003,0.362033 1.166667,1.111422 -0.237962,1.226986 -1.376002,1.839237 -2.090549,1.124689 z m 99.723707,-1.072756 c 1.01679,-0.823179 3.71679,-4.6172475 6,-8.4312645 2.28321,-3.814016 4.45129,-6.964016 4.81796,-7 0.37064,-0.03637 0.99118,3.272936 1.39748,7.452789 0.58941,6.0633775 0.97642,7.7040965 2,8.4787985 1.15752,0.876068 0.96124,0.962449 -2.23082,0.981786 -1.925,0.01166 -3.5,-0.278798 -3.5,-0.645464 0,-0.366667 0.45,-0.666667 1,-0.666667 0.66667,0 1,-0.666667 1,-2 0,-1.9181555 -0.11963,-2.0000005 -2.92332,-2.0000005 -2.44001,0 -3.11824,0.2974765 -4.10224,1.7992535 -0.80549,1.229327 -0.93536,1.880438 -0.41001,2.055555 1.78938,0.596461 0.55536,1.478276 -2.06443,1.475214 l -2.83333,-0.0033 1.84871,-1.496689 z m 9.81796,-8.1633575 c 0,-1.65 -0.225,-2.997689 -0.5,-2.994865 -0.47826,0.0049 -3.5,4.862969 -3.5,5.626944 0,0.202357 0.9,0.367922 2,0.367922 1.92592,0 2,-0.111112 2,-3.000001 z m 32.95852,9.0671085 c 0.24942,-0.403576 0.87423,-0.733774 1.38846,-0.733774 0.52004,0 1.2243,-1.109453 1.58696,-2.5 1.6368,-6.2761025 2.73272,-10.7260945 2.73272,-11.0962305 0,-0.222074 -0.45,-0.40377 -1,-0.40377 -0.55,0 -1,-0.3 -1,-0.666667 0,-0.967243 9.344906,-0.808977 11.333336,0.191942 2.54064,1.27889 2.56602,4.016327 0.0545,5.873216 -1.96745,1.454601 -1.98739,1.522943 -0.7062,2.420324 1.81974,1.274592 1.6496,3.6374245 -0.40072,5.5649765 -1.524186,1.43293 -2.440556,1.642719 -8.080816,1.849983 -4.51062,0.165753 -6.22972,0.02027 -5.90818,-0.5 z m 11.74853,-2.107492 c 0.86866,-0.868661 1.297586,-2.032908 1.166666,-3.1666675 -0.187936,-1.627437 -0.495596,-1.811551 -3.332756,-1.99447 -3.10605,-0.200253 -3.13014,-0.185576 -3.82962,2.333334 -1.09549,3.9449775 -0.9761,4.2015215 1.95532,4.2015215 1.80391,0 3.11112,-0.444445 4.04039,-1.373718 z m 1.491166,-7.8145745 c 0.70444,-0.632274 1.11654,-1.776636 1,-2.776924 -0.16936,-1.453684 -0.57507,-1.732344 -2.786076,-1.913598 -3.16325,-0.259319 -3.55248,0.09802 -4.14476,3.805114 l -0.46752,2.926301 2.60006,-0.482709 c 1.43004,-0.265491 3.13928,-0.966674 3.798296,-1.558184 z"
       id="path434" />
  </g>
</svg>
