<?xml version="1.0" encoding="UTF-8" standalone="no"?>
<svg
   xmlns:dc="http://purl.org/dc/elements/1.1/"
   xmlns:cc="http://creativecommons.org/ns#"
   xmlns:rdf="http://www.w3.org/1999/02/22-rdf-syntax-ns#"
   xmlns:svg="http://www.w3.org/2000/svg"
   xmlns="http://www.w3.org/2000/svg"
   xmlns:sodipodi="http://sodipodi.sourceforge.net/DTD/sodipodi-0.dtd"
   xmlns:inkscape="http://www.inkscape.org/namespaces/inkscape"
   version="1.1"
   id="svg258"
   width="213.33333"
   height="196.42671"
   viewBox="0 0 213.33333 196.42671"
   sodipodi:docname="5-2-example-2.svg"
   inkscape:version="1.0.1 (c497b03c, 2020-09-10)">
  <metadata
     id="metadata264">
    <rdf:RDF>
      <cc:Work
         rdf:about="">
        <dc:format>image/svg+xml</dc:format>
        <dc:type
           rdf:resource="http://purl.org/dc/dcmitype/StillImage" />
        <dc:title></dc:title>
      </cc:Work>
    </rdf:RDF>
  </metadata>
  <defs
     id="defs262" />
  <sodipodi:namedview
     pagecolor="#ffffff"
     bordercolor="#666666"
     borderopacity="1"
     objecttolerance="10"
     gridtolerance="10"
     guidetolerance="10"
     inkscape:pageopacity="0"
     inkscape:pageshadow="2"
     inkscape:window-width="1048"
     inkscape:window-height="609"
     id="namedview260"
     showgrid="false"
     fit-margin-top="0"
     fit-margin-left="0"
     fit-margin-right="0"
     fit-margin-bottom="0"
     inkscape:pagecheckerboard="true"
     inkscape:zoom="0.95162802"
     inkscape:cx="97.536635"
     inkscape:cy="110.59266"
     inkscape:window-x="0"
     inkscape:window-y="25"
     inkscape:window-maximized="0"
     inkscape:current-layer="g266" />
  <g
     inkscape:groupmode="layer"
     inkscape:label="Image"
     id="g266"
     transform="translate(93.998031,52.138767)">
    <path
       style="fill:#1b1b1b;stroke-width:0.666667"
       d="m -90.974933,142.77971 c -1.980331,-1.98033 -2.792571,-6.74217 -1.709703,-10.02329 1.252348,-3.79466 4.58236,-5.82604 7.63208,-4.65576 1.393305,0.53466 1.404048,3.59534 0.01262,3.59534 -0.687209,0 -0.970901,-0.48954 -0.833333,-1.43803 0.479857,-3.30844 -3.692117,-1.14569 -4.519954,2.34314 -0.418954,1.76565 -0.351363,1.85123 0.923278,1.16906 2.946545,-1.57695 6.138581,1.01303 6.138581,4.98077 0,2.283 -0.348617,3.12251 -1.756573,4.23001 -2.291094,1.80217 -3.939943,1.74581 -5.886996,-0.20124 z m 4.953446,-1.03988 c 1.548735,-2.89383 0.347529,-7.37716 -1.976544,-7.37716 -1.515203,0 -2.666667,1.87113 -2.666667,4.33333 0,2.46221 1.151464,4.33334 2.666667,4.33334 0.707532,0 1.596977,-0.58028 1.976544,-1.28951 z m 6.481789,1.52562 c -0.943676,-0.94368 -0.409688,-2.23611 0.923883,-2.23611 0.931975,0 1.312003,0.36203 1.166667,1.11142 -0.237962,1.22698 -1.376002,1.83924 -2.09055,1.12469 z m 119.833524,-0.16901 c 0.24942,-0.40357 0.87423,-0.73377 1.38845,-0.73377 0.52005,0 1.22431,-1.10945 1.58696,-2.5 1.63681,-6.2761 2.73273,-10.72609 2.73273,-11.09623 0,-0.22208 -0.45,-0.40377 -1,-0.40377 -0.55,0 -1,-0.3 -1,-0.66667 0,-0.96724 9.34491,-0.80898 11.33333,0.19194 2.54065,1.2789 2.56603,4.01633 0.0545,5.87322 -1.96745,1.4546 -1.98739,1.52294 -0.7062,2.42032 1.81973,1.2746 1.64959,3.63743 -0.40072,5.56498 -1.52419,1.43293 -2.44057,1.64272 -8.08082,1.84998 -4.51063,0.16576 -6.22973,0.0203 -5.90818,-0.5 z m 11.74853,-2.10749 c 0.86866,-0.86866 1.29759,-2.03291 1.16666,-3.16667 -0.18794,-1.62743 -0.49559,-1.81154 -3.33276,-1.99446 -3.10604,-0.20026 -3.13013,-0.18558 -3.82961,2.33333 -1.09549,3.94497 -0.9761,4.20152 1.95532,4.20152 1.80391,0 3.11111,-0.44445 4.04039,-1.37372 z m 1.49116,-7.81457 c 0.70444,-0.63228 1.11654,-1.77664 1,-2.77692 -0.16935,-1.45369 -0.57506,-1.73235 -2.78607,-1.9136 -3.16325,-0.25932 -3.55249,0.098 -4.14476,3.80511 l -0.46753,2.9263 2.60007,-0.48271 c 1.43004,-0.26549 3.13927,-0.96667 3.79829,-1.55818 z M -91.183027,115.32487 c -1.809507,-1.26743 -2.106102,-4.9622 -0.398337,-4.9622 0.847168,0 0.996487,0.43423 0.684955,1.99189 -0.343891,1.71946 -0.171743,2.04877 1.258657,2.40778 0.942173,0.23647 2.084712,0.0609 2.648378,-0.40686 0.999211,-0.82926 1.348012,-4.9543 0.586684,-6.93828 -0.510678,-1.33081 -2.507558,-1.36523 -3.589249,-0.0619 -1.355563,1.63338 -2.006092,0.48443 -2.006092,-3.54308 v -3.8051 h 3.992593 c 3.868168,0 3.954593,0.038 2.773256,1.21933 -0.670634,0.67063 -2.167301,1.24629 -3.325926,1.27923 -1.8187,0.0517 -2.10659,0.30106 -2.10659,1.82458 0,1.61454 0.192966,1.74215 2.268021,1.4999 5.366935,-0.62656 7.24897,7.02431 2.350965,9.55717 -2.391987,1.23694 -3.29788,1.22593 -5.137315,-0.0625 z m 11.643329,-0.0594 c -0.943676,-0.94368 -0.409688,-2.23611 0.923883,-2.23611 0.931975,0 1.312003,0.36203 1.166667,1.11142 -0.237962,1.22698 -1.376002,1.83924 -2.09055,1.12469 z m 121.723714,-1.07276 c 1.01678,-0.82318 3.71678,-4.61725 6,-8.43126 2.2832,-3.81402 4.45128,-6.964017 4.81795,-6.999997 0.37064,-0.0364 0.99118,3.272927 1.39749,7.452787 0.5894,6.06338 0.97642,7.70409 2,8.4788 1.15751,0.87606 0.96123,0.96244 -2.23082,0.98178 -1.925,0.0117 -3.5,-0.2788 -3.5,-0.64546 0,-0.36667 0.45,-0.66667 1,-0.66667 0.66666,0 1,-0.66667 1,-2 0,-1.91815 -0.11964,-2 -2.92333,-2 -2.44001,0 -3.11824,0.29747 -4.10224,1.79925 -0.80549,1.22933 -0.93536,1.88044 -0.41001,2.05556 1.78938,0.59646 0.55536,1.47828 -2.06442,1.47521 l -2.83334,-0.003 1.84872,-1.4967 z m 9.81795,-8.16337 c 0,-1.65 -0.225,-2.99769 -0.5,-2.99487 -0.47825,0.005 -3.5,4.86297 -3.5,5.62695 0,0.20235 0.9,0.36792 2,0.36792 1.92593,0 2,-0.11112 2,-3 z m -3.0443,-31.333337 c -4.1e-4,-9.16666 0.0935,-13.00913 0.20865,-8.53881 0.11517,4.47033 0.1155,11.97033 6.7e-4,16.66667 -0.11469,4.69634 -0.20891,1.03881 -0.20932,-8.12786 z m -138.955697,-25 c 0,-0.36667 0.45,-0.66667 1,-0.66667 0.555555,0 1,-0.59259 1,-1.33333 0,-1.1358 -0.444445,-1.33333 -3,-1.33333 -1.65,0 -3,-0.30249 -3,-0.67219 0,-0.92067 6.877224,-11.294103 7.5,-11.312803 0.275,-0.008 0.5,2.394653 0.5,5.339803 0,4.89053 0.125795,5.40135 1.450841,5.89152 l 1.45084,0.5367 -1.45084,0.37941 c -1.60515,0.41975 -2.013171,2.50422 -0.490186,2.50422 0.528361,0 1.146066,0.3 1.372678,0.66667 0.253943,0.41089 -0.881966,0.66667 -2.960655,0.66667 -1.854973,0 -3.372678,-0.3 -3.372678,-0.66667 z m 2,-7.66667 c 0,-2.01666 -0.105157,-3.66666 -0.233683,-3.66666 -0.271328,0 -4.432984,6.61314 -4.432984,7.0443 0,0.15896 1.05,0.28903 2.333334,0.28903 h 2.333333 z m 7.791667,7.90278 c -0.943677,-0.94368 -0.409688,-2.23611 0.923882,-2.23611 0.931975,0 1.312004,0.36203 1.166667,1.11142 -0.237962,1.22699 -1.376001,1.83924 -2.090549,1.12469 z m 128.54166,-0.23611 c 0.22662,-0.36667 0.83276,-0.66667 1.34698,-0.66667 0.52005,0 1.22431,-1.10945 1.58696,-2.5 1.63681,-6.2761 2.73273,-10.726093 2.73273,-11.096223 0,-0.22208 -0.46771,-0.40378 -1.03935,-0.40378 -0.57164,0 -0.85393,-0.3 -0.62732,-0.66666 0.22761,-0.36828 3.22915,-0.66667 6.70602,-0.66667 h 6.29398 v 2.627323 c 0,1.44503 -0.3,2.81273 -0.66666,3.03935 -0.38694,0.23914 -0.66667,-0.41375 -0.66667,-1.556 0,-2.239333 -0.90849,-2.777343 -4.68985,-2.777343 -2.4144,0 -2.62558,0.16121 -3.2751,2.500003 -0.95808,3.44988 -0.94094,3.5 1.19641,3.5 1.29195,0 2.1482,-0.47902 2.68121,-1.5 0.67163,-1.28648 0.72872,-1.07297 0.40109,1.5 -0.41017,3.22116 -1.64709,5.32389 -1.64709,2.8 0,-1.17175 -0.38624,-1.46666 -1.92086,-1.46666 -1.71655,0 -2.00018,0.31502 -2.66667,2.96188 -0.41019,1.62903 -0.74581,3.12903 -0.74581,3.33333 0,0.50641 5.62906,0.47195 6.97014,-0.0427 0.59354,-0.22776 1.5402,-1.30564 2.10368,-2.39528 1.50299,-2.90648 2.00782,-1.66178 0.59592,1.46927 l -1.20557,2.67347 h -6.93809 c -4.45564,0 -6.79068,-0.23854 -6.52608,-0.66667 z m -3.66666,-4 v -2.66667 h -6 c -3.55556,0 -6,-0.2716 -6,-0.66666 0,-0.4 2.66666,-0.66667 6.66666,-0.66667 h 6.66667 v 3.33333 c 0,1.83334 -0.3,3.33334 -0.66667,3.33334 -0.36666,0 -0.66666,-1.2 -0.66666,-2.66667 z M -16.975201,25.990961 c -4.12132,-4.446973 -4.57717,-13.58298 -0.96216,-19.2832599 2.4589,-3.877293 3.877417,-3.94774 1.61078,-0.08 -3.08168,5.2584799 -3.05309,13.5129399 0.0627,18.1043069 2.047177,3.0167 1.61939,3.773833 -0.71132,1.258953 z m 84.310497,1.41128 c 0,-0.275226 0.61392,-1.362586 1.36428,-2.41636 2.17374,-3.05274 3.06071,-8.575313 2.10769,-13.123213 -0.44181,-2.1083339 -1.40373,-4.6461869 -2.13763,-5.6396739 -1.57066,-2.126253 -1.66618,-2.612486 -0.41919,-2.133973 0.50333,0.193147 1.70333,1.799327 2.66667,3.569293 3.20692,5.8921939 2.15528,15.0558339 -2.17754,18.9743469 -0.77236,0.698494 -1.40428,1.044807 -1.40428,0.76958 z m -159.696964,-6.67594 c -1.892572,-1.892566 -2.065439,-2.907493 -0.591552,-3.47308 1.50468,-0.5774 2.710534,0.797667 1.732718,1.975867 -0.935468,1.127167 -0.362092,1.800247 1.533582,1.800247 1.991549,0 3.022222,-1.250447 3.022222,-3.666667 0,-2.38846 -1.021594,-3.658087 -2.966666,-3.68694 -1.357707,-0.02013 -1.357925,-0.02507 -0.03333,-0.749547 2.908739,-1.59096 3.708384,-3.7598929 2.011728,-5.4565469 -1.542279,-1.54228 -3.541278,-0.69024 -3.152468,1.343687 0.257694,1.3480329 0.08294,1.6356799 -0.880292,1.4489729 -1.770818,-0.3432529 -1.913712,-1.6315459 -0.353968,-3.1912929 1.492128,-1.492127 4.041114,-1.779 6.085494,-0.68488 1.606504,0.85978 1.722237,4.1152469 0.2004,5.6370799 -1.007697,1.0077 -0.982781,1.16358 0.333334,2.08542 2.109284,1.477407 1.933716,5.088434 -0.334134,6.872327 -2.33017,1.832913 -4.607269,1.745153 -6.607064,-0.254647 z m 123.415514,-5.35194 c -1.73183,-3.879873 -3.01299,-7.4197199 -2.84701,-7.8663329 0.29909,-0.804834 5.79513,10.3112469 5.79513,11.7210199 0,1.502187 1.24228,-0.653353 3.69093,-6.404307 1.4146,-3.3223469 2.75129,-5.6198529 3.07899,-5.2921529 0.55455,0.554553 -4.58785,12.9146799 -5.93262,14.2594469 -0.40441,0.404406 -1.78525,-1.936614 -3.78542,-6.417674 z m 21.18612,6.327254 c -3.70377,-1.494654 -4.76423,-7.371627 -2.05547,-11.391161 2.94126,-4.3645399 8.66962,-6.6191399 11.79511,-4.6423799 0.62212,0.393467 1.29468,0.355207 1.84945,-0.105206 1.39043,-1.15396 1.62322,-0.25516 0.79045,3.05204 -0.90425,3.5910999 -1.77839,3.9850259 -2.0753,0.935226 -0.14383,-1.47738 -0.73827,-2.441513 -1.90819,-3.094893 -3.3584,-1.875593 -8.17159,2.170753 -9.54923,8.0278269 -0.45561,1.937053 0.51843,5.213813 1.79022,6.022493 2.03631,1.294794 4.68927,0.497987 7.22819,-2.170966 2.78881,-2.931647 3.19219,-2.908707 1.42606,0.08111 -1.86826,3.162714 -5.98704,4.61934 -9.29129,3.285914 z m 32.81388,-6.327254 c -1.73183,-3.879873 -3.01299,-7.4197199 -2.84701,-7.8663329 0.29909,-0.804834 5.79513,10.3112469 5.79513,11.7210199 0,1.502187 1.24228,-0.653353 3.69093,-6.404307 1.4146,-3.3223469 2.75129,-5.6198529 3.07899,-5.2921529 0.55455,0.554553 -4.58785,12.9146799 -5.93262,14.2594469 -0.40441,0.404406 -1.78525,-1.936614 -3.78542,-6.417674 z m -165.26021,5.891087 c -0.943677,-0.94368 -0.409688,-2.236113 0.923882,-2.236113 0.931975,0 1.312004,0.362033 1.166667,1.11142 -0.237962,1.226986 -1.376001,1.83924 -2.090549,1.124693 z M 2.9604962,21.096441 c 0.24942,-0.403573 0.87422,-0.733773 1.38845,-0.733773 0.52005,0 1.22431,-1.109453 1.58696,-2.5 1.63681,-6.2761 2.73273,-10.7260939 2.73273,-11.0962269 0,-0.22208 -0.45,-0.403773 -1,-0.403773 -0.55,0 -1,-0.3 -1,-0.666667 0,-0.96724 9.3448998,-0.80898 11.3333298,0.19194 2.54065,1.278893 2.56603,4.016327 0.0545,5.8732199 -1.96746,1.4546 -1.9874,1.52294 -0.7062,2.42032 1.81973,1.274594 1.64959,3.637427 -0.40072,5.56498 -1.5242,1.432927 -2.44057,1.64272 -8.0808198,1.84998 -4.51063,0.165754 -6.22973,0.02027 -5.90818,-0.5 z M 14.709016,18.988948 c 0.86866,-0.86866 1.2976,-2.032907 1.16667,-3.166667 -0.18794,-1.627433 -0.49559,-1.811547 -3.33276,-1.994467 -3.1060498,-0.200253 -3.1301298,-0.18558 -3.8296098,2.333334 -1.0955,3.944973 -0.9761,4.20152 1.9553198,4.20152 1.8039,0 3.11111,-0.444447 4.04038,-1.37372 z m 1.49117,-7.814574 c 0.70444,-0.632273 1.11654,-1.7766329 1,-2.7769199 -0.16935,-1.453686 -0.57507,-1.732346 -2.78607,-1.9136 -3.16326,-0.25932 -3.55249,0.09801 -4.14476,3.8051139 l -0.4675298,2.9263 2.6000698,-0.482707 c 1.43004,-0.265493 3.13927,-0.966673 3.79829,-1.558187 z m 86.135114,9.854961 c 0.22662,-0.366667 0.83276,-0.666667 1.34698,-0.666667 0.52005,0 1.22431,-1.109453 1.58696,-2.5 1.63681,-6.2761 2.73273,-10.7260939 2.73273,-11.0962269 0,-0.22208 -0.46771,-0.403773 -1.03935,-0.403773 -0.57164,0 -0.85393,-0.3 -0.62732,-0.666667 0.22761,-0.368273 3.22915,-0.666667 6.70602,-0.666667 h 6.29398 v 2.62732 c 0,1.445027 -0.3,2.8127339 -0.66666,3.0393469 -0.38694,0.23914 -0.66667,-0.413747 -0.66667,-1.5559929 0,-2.239334 -0.90849,-2.77734 -4.68985,-2.77734 -2.4144,0 -2.62558,0.161206 -3.2751,2.5 -0.95808,3.4498799 -0.94094,3.4999999 1.19641,3.4999999 1.29195,0 2.1482,-0.479027 2.68121,-1.5 0.67163,-1.2864869 0.72872,-1.0729739 0.40109,1.5 -0.41017,3.221153 -1.64709,5.323887 -1.64709,2.8 0,-1.171754 -0.38624,-1.466667 -1.92086,-1.466667 -1.71655,0 -2.00018,0.315027 -2.66667,2.96188 -0.41019,1.629034 -0.74581,3.129034 -0.74581,3.333334 0,0.506406 5.62906,0.471946 6.97014,-0.04267 0.59354,-0.227767 1.5402,-1.305647 2.10368,-2.395287 1.50299,-2.906473 2.00782,-1.66178 0.59592,1.469274 l -1.20557,2.673466 h -6.93809 c -4.45564,0 -6.79068,-0.238533 -6.52608,-0.666666 z m -102.33333377,-4 V 14.362668 H -5.9980338 c -3.55555,0 -6.0000002,-0.271607 -6.0000002,-0.666667 0,-0.4 2.6666702,-0.666667 6.6666702,-0.666667 h 6.66666 v 3.333334 c 0,1.833333 -0.3,3.333333 -0.66665997,3.333333 -0.36667,0 -0.66667,-1.2 -0.66667,-2.666666 z M 20.358126,-2.0090399 c -4.12132,-4.446974 -4.57717,-13.5829771 -0.96215,-19.2832591 2.4589,-3.87729 3.87742,-3.947743 1.61077,-0.08 -3.08167,5.258481 -3.05309,13.5129451 0.0627,18.1043111 2.04718,3.01669802 1.6194,3.77383102 -0.71132,1.25895 z m 70.31051,1.41128102 c 0,-0.275227 0.61392,-1.36258802 1.36427,-2.41635802 2.17374,-3.052739 3.06071,-8.5753141 2.10769,-13.1232161 -0.4418,-2.108333 -1.40373,-4.646185 -2.13762,-5.639671 -1.57066,-2.126253 -1.66618,-2.612487 -0.4192,-2.133975 0.50333,0.193146 1.70333,1.799329 2.66667,3.569296 3.20693,5.892188 2.15529,15.0558341 -2.17754,18.9743441 -0.77235,0.69849302 -1.40427,1.04480702 -1.40427,0.76958002 z m -61.762,-5.70062702 c -3.70377,-1.494655 -4.76424,-7.3716261 -2.05547,-11.3911601 2.94126,-4.36454 8.66962,-6.619138 11.79511,-4.64238 0.62212,0.393467 1.29468,0.355207 1.84944,-0.105209 1.39044,-1.153959 1.62322,-0.255156 0.79046,3.052043 -0.90425,3.591099 -1.7784,3.985029 -2.0753,0.935223 -0.14383,-1.477378 -0.73828,-2.441511 -1.9082,-3.094887 -3.35839,-1.875599 -8.17158,2.170748 -9.54922,8.027825 -0.45561,1.93705 0.51842,5.2138111 1.79022,6.0224891 2.03631,1.294799 4.68926,0.497992 7.22818,-2.170962 2.78882,-2.9316511 3.1922,-2.9087101 1.42607,0.08111 -1.86826,3.162713 -5.98705,4.619342 -9.29129,3.285913 z m 23.48054,-6.3272521 c -1.73183,-3.879872 -3.01298,-7.419724 -2.84701,-7.866337 0.29909,-0.804832 5.79513,10.311248 5.79513,11.7210211 0,1.502188 1.24228,-0.653352 3.69094,-6.4043061 1.41459,-3.322345 2.75128,-5.619851 3.07898,-5.292155 0.55456,0.554558 -4.58785,12.9146791 -5.93262,14.2594521 -0.4044,0.404407 -1.78524,-1.936617 -3.78542,-6.4176751 z m -145.71854,5.6937661 c 0,-0.345329 1.5,-2.342007 3.333333,-4.4370591 2.485669,-2.840513 3.333333,-4.342269 3.333333,-5.905461 0,-2.470195 -1.026297,-3.696274 -3.093988,-3.696274 -1.864415,0 -2.601533,1.093639 -1.572678,2.333333 0.906005,1.09167 0.352926,2.333334 -1.039345,2.333334 -0.618837,0 -0.960655,-0.698184 -0.960655,-1.962198 0,-3.781536 5.145338,-5.409784 7.88379,-2.494835 2.377148,2.530359 1.879584,4.748808 -1.980495,8.830273 l -3.430038,3.6267601 h 2.661495 c 2.101277,0 2.813768,-0.315735 3.384918,-1.5 l 0.723422,-1.5000001 0.04512,1.4454751 c 0.09721,3.114214 -0.525402,3.554525 -5.026205,3.554525 -2.344104,0 -4.262007,-0.282543 -4.262007,-0.627873 z m 13.125,0.197318 c -0.943677,-0.943678 -0.409688,-2.236112 0.923882,-2.236112 0.931975,0 1.312004,0.362034 1.166667,1.111423 -0.237962,1.226986 -1.376001,1.839237 -2.090549,1.124689 z m 149.875,-0.236112 c 0.22661,-0.366666 0.83275,-0.666666 1.34698,-0.666666 0.52004,0 1.2243,-1.109453 1.58696,-2.5000011 1.6368,-6.276102 2.73272,-10.726094 2.73272,-11.09623 0,-0.222073 -0.45,-0.40377 -1,-0.40377 -0.55,0 -1,-0.330784 -1,-0.735077 0,-0.496317 1.83466,-0.658722 5.6484,-0.5 6.43678,0.267888 8.13614,1.292939 8.7449,5.274931 0.46198,3.02191 -1.96178,7.7744361 -4.99188,9.7880991 -1.90184,1.26387 -3.16487,1.505381 -7.87268,1.505381 -3.56852,0 -5.45761,-0.242405 -5.1954,-0.666667 z m 11.99088,-2.111933 c 3.52262,-2.7708941 4.88123,-9.2571721 2.40784,-11.4955511 -0.84865,-0.768023 -2.1036,-1.077757 -3.79506,-0.936658 l -2.52713,0.210809 -1.52183,6 c -0.837,3.3 -1.52922,6.3750001 -1.53826,6.8333331 -0.0283,1.436685 4.92224,1.002322 6.97444,-0.611933 z m -68.99088,-1.8880671 v -2.666667 H 6.6686362 c -3.55556,0 -5.99999997,-0.271604 -5.99999997,-0.666666 0,-0.4 2.66665997,-0.666667 6.66665997,-0.666667 h 6.6666698 v 3.333333 c 0,1.8333341 -0.3,3.3333341 -0.66667,3.3333341 -0.36666,0 -0.66666,-1.2 -0.66666,-2.6666671 z m 15.55862,-23.973858 c -2.78568,-1.172098 -2.64814,-4.230168 0.3107,-6.90788 1.03776,-0.93916 1.25074,-1.7624 0.97937,-3.785606 -0.46929,-3.498796 0.2088,-5.821924 1.85151,-6.343302 3.08789,-0.980057 4.36142,2.81453 1.96646,5.859226 -1.69472,2.15449 -1.68183,2.329041 0.39794,5.38969 l 1.73126,2.547784 1.60207,-2.357658 c 1.70757,-2.512914 2.0181,-3.76173 0.9354,-3.76173 -0.36667,0 -0.66667,-0.3 -0.66667,-0.666666 0,-0.366667 1.2,-0.666667 2.66667,-0.666667 2.73116,0 3.62972,0.925981 1.45134,1.495639 -0.66843,0.174798 -2.04104,1.726798 -3.05025,3.44889 -1.46593,2.501411 -1.67434,3.324576 -1.03638,4.093274 1.16954,1.40921 2.99074,1.175212 4.18568,-0.537803 0.57548,-0.825 1.06208,-1.125 1.08131,-0.666667 0.0193,0.458334 -0.59103,1.459331 -1.35614,2.224439 -1.06413,1.064131 -1.80845,1.272779 -3.16667,0.887689 -2.10498,-0.596817 -3.73013,-0.61085 -6.44222,-0.05563 -1.1,0.225193 -2.64862,0.136532 -3.44138,-0.197025 z m 5.00798,-1.283522 c 0.71158,-0.45094 0.48793,-1.139037 -1.06864,-3.287822 -2.14269,-2.957899 -3.49796,-2.746663 -3.49796,0.545202 0,2.829756 2.27398,4.195473 4.5666,2.74262 z m 0.10006,-12.82425 c 0,-1.220668 -0.34735,-1.91837 -0.95507,-1.91837 -1.19215,0 -1.94374,2.21833 -1.36712,4.0351 0.62088,1.956212 2.32219,0.405427 2.32219,-2.11673 z m 44.99908,11.806871 c -0.97299,-1.660287 -1.57812,-3.327675 -1.34473,-3.705306 0.76576,-1.239027 2.11641,-0.720005 2.96331,1.138724 l 0.83167,1.825325 1.61961,-3.407694 c 1.72399,-3.627314 7.80864,-10.242957 9.42082,-10.242957 0.53127,0 -0.43089,1.357571 -2.13814,3.016823 -1.92745,1.873267 -3.86419,4.716215 -5.10934,7.5 -3.57104,7.983825 -3.76482,8.104108 -6.2432,3.875085 z m -171.66574,1.924925 c 0,-0.192409 0.75,-0.634984 1.666666,-0.9835 1.608208,-0.611439 1.666667,-0.84514 1.666667,-6.662867 v -6.029202 l -1.666667,0.418307 c -0.938683,0.235594 -1.666666,0.129492 -1.666666,-0.242914 0,-0.363672 0.675,-0.807615 1.5,-0.986542 0.825,-0.178926 2.025,-0.545996 2.666666,-0.81571 1.07052,-0.449976 1.166667,0.119842 1.166667,6.914269 0,6.960215 0.08003,7.404659 1.333333,7.404659 0.733334,0 1.333334,0.3 1.333334,0.666667 0,0.370371 -1.777778,0.666667 -4,0.666667 -2.2,0 -4,-0.157426 -4,-0.349834 z m 12.458333,-0.08072 c -0.943677,-0.943677 -0.409688,-2.236111 0.923883,-2.236111 0.931974,0 1.312003,0.362033 1.166666,1.111423 -0.237962,1.226986 -1.376001,1.839236 -2.090549,1.124688 z m 86.3903772,-1.072758 c 1.01679,-0.823178 3.71679,-4.617247 5.9999998,-8.431264 2.28321,-3.814016 4.45129,-6.964016 4.81795,-7 0.37064,-0.03637 0.99118,3.272936 1.39749,7.45279 0.58941,6.063376 0.97642,7.704095 2,8.478798 1.15751,0.876067 0.96123,0.962448 -2.23082,0.981786 -1.925,0.01166 -3.5,-0.278798 -3.5,-0.645465 0,-0.366667 0.45,-0.666667 1,-0.666667 0.66667,0 1,-0.666666 1,-2 0,-1.918154 -0.11963,-2 -2.92333,-2 -2.44,0 -3.1182398,0.297476 -4.1022398,1.799253 -0.80548,1.229327 -0.93536,1.880438 -0.41,2.055555 1.7893798,0.596461 0.55536,1.478276 -2.06443,1.475214 l -2.83333,-0.0033 1.84871,-1.496689 z m 9.8179498,-8.163355 c 0,-1.65 -0.225,-2.997689 -0.5,-2.994865 -0.47825,0.0049 -3.5,4.862969 -3.5,5.626944 0,0.202356 0.9,0.367921 2,0.367921 1.92593,0 2,-0.111111 2,-3 z m 32.95853,9.067107 c 0.24942,-0.403576 0.87423,-0.733774 1.38845,-0.733774 0.52005,0 1.22431,-1.109452 1.58696,-2.5 1.63681,-6.276102 2.73273,-10.726094 2.73273,-11.09623 0,-0.222073 -0.45,-0.40377 -1,-0.40377 -0.55,0 -1,-0.3 -1,-0.666666 0,-0.967243 9.34491,-0.808977 11.33333,0.191942 2.54065,1.27889 2.56603,4.016327 0.0545,5.873216 -1.96745,1.4546 -1.98739,1.522942 -0.7062,2.420324 1.81973,1.274591 1.64959,3.637423 -0.40072,5.564975 -1.52419,1.43293 -2.44057,1.642719 -8.08082,1.849983 -4.51063,0.165753 -6.22973,0.02027 -5.90818,-0.5 z m 11.74853,-2.107492 c 0.86866,-0.86866 1.29759,-2.032908 1.16666,-3.166666 -0.18794,-1.627438 -0.49559,-1.811552 -3.33276,-1.99447 -3.10604,-0.200254 -3.13013,-0.185576 -3.82961,2.333333 -1.09549,3.944977 -0.9761,4.201521 1.95532,4.201521 1.80391,0 3.11111,-0.444444 4.04039,-1.373718 z m 1.49116,-7.814573 c 0.70444,-0.632275 1.11654,-1.776636 1,-2.776925 -0.16935,-1.453684 -0.57506,-1.732344 -2.78607,-1.913598 -3.16325,-0.259318 -3.55249,0.09802 -4.14476,3.805115 l -0.46753,2.926301 2.60007,-0.48271 c 1.43004,-0.26549 3.13927,-0.966673 3.79829,-1.558183 z"
       id="path270" />
  </g>
</svg>
