<?xml version="1.0" encoding="UTF-8" standalone="no"?>
<svg
   xmlns:dc="http://purl.org/dc/elements/1.1/"
   xmlns:cc="http://creativecommons.org/ns#"
   xmlns:rdf="http://www.w3.org/1999/02/22-rdf-syntax-ns#"
   xmlns:svg="http://www.w3.org/2000/svg"
   xmlns="http://www.w3.org/2000/svg"
   xmlns:sodipodi="http://sodipodi.sourceforge.net/DTD/sodipodi-0.dtd"
   xmlns:inkscape="http://www.inkscape.org/namespaces/inkscape"
   version="1.1"
   id="svg180"
   width="213.33333"
   height="102.50147"
   viewBox="0 0 213.33333 102.50147"
   sodipodi:docname="5-2-example-1.svg"
   inkscape:version="1.0.1 (c497b03c, 2020-09-10)">
  <metadata
     id="metadata186">
    <rdf:RDF>
      <cc:Work
         rdf:about="">
        <dc:format>image/svg+xml</dc:format>
        <dc:type
           rdf:resource="http://purl.org/dc/dcmitype/StillImage" />
        <dc:title></dc:title>
      </cc:Work>
    </rdf:RDF>
  </metadata>
  <defs
     id="defs184" />
  <sodipodi:namedview
     pagecolor="#ffffff"
     bordercolor="#666666"
     borderopacity="1"
     objecttolerance="10"
     gridtolerance="10"
     guidetolerance="10"
     inkscape:pageopacity="0"
     inkscape:pageshadow="2"
     inkscape:window-width="1038"
     inkscape:window-height="607"
     id="namedview182"
     showgrid="false"
     fit-margin-top="0"
     fit-margin-left="0"
     fit-margin-right="0"
     fit-margin-bottom="0"
     inkscape:pagecheckerboard="true"
     inkscape:zoom="0.8607878"
     inkscape:cx="106.75598"
     inkscape:cy="62.189736"
     inkscape:window-x="164"
     inkscape:window-y="25"
     inkscape:window-maximized="0"
     inkscape:current-layer="g188" />
  <g
     inkscape:groupmode="layer"
     inkscape:label="Image"
     id="g188"
     transform="translate(-45.696307,-19.3072)">
    <g
       id="g192"
       inkscape:transform-center-x="-11.617265"
       transform="translate(-9.2938124,3.4851796)">
      <path
         style="fill:#8c8c8c;fill-opacity:1;stroke-width:0.666667"
         d="m 58.990118,117.65679 c 0,-0.36667 0.45,-0.66667 1,-0.66667 0.555556,0 1,-0.59259 1,-1.33333 0,-1.1358 -0.444444,-1.33333 -3,-1.33333 -1.65,0 -2.999999,-0.30249 -2.999999,-0.67219 0,-0.92067 6.877223,-11.2941 7.499999,-11.3128 0.275,-0.008 0.5,2.39465 0.5,5.3398 0,4.89053 0.125795,5.40135 1.450841,5.89152 l 1.45084,0.5367 -1.45084,0.37941 c -1.60515,0.41975 -2.013171,2.50422 -0.490185,2.50422 0.52836,0 1.146065,0.3 1.372678,0.66667 0.253942,0.41089 -0.881966,0.66667 -2.960656,0.66667 -1.854972,0 -3.372678,-0.3 -3.372678,-0.66667 z m 2,-7.66667 c 0,-2.01666 -0.105157,-3.66666 -0.233682,-3.66666 -0.271328,0 -4.432984,6.61314 -4.432984,7.0443 0,0.15896 1.05,0.28903 2.333333,0.28903 h 2.333333 z m 7.791667,7.90278 c -0.943677,-0.94368 -0.409688,-2.23611 0.92388,-2.23611 0.93198,0 1.312007,0.36203 1.166667,1.11142 -0.23796,1.22699 -1.376,1.83924 -2.090547,1.12469 z m 128.541665,-0.23611 c 0.22661,-0.36667 0.83275,-0.66667 1.34698,-0.66667 0.52005,0 1.22431,-1.10945 1.58696,-2.5 1.63681,-6.2761 2.73273,-10.72609 2.73273,-11.09622 0,-0.22208 -0.46771,-0.40378 -1.03935,-0.40378 -0.57164,0 -0.85393,-0.3 -0.62732,-0.66666 0.22761,-0.36828 3.22915,-0.66667 6.70601,-0.66667 h 6.29399 v 2.62732 c 0,1.44503 -0.3,2.81273 -0.66667,3.03935 -0.38694,0.23914 -0.66666,-0.41375 -0.66666,-1.556 0,-2.23933 -0.90849,-2.77734 -4.68986,-2.77734 -2.41439,0 -2.62557,0.16121 -3.27509,2.5 -0.95808,3.44988 -0.94095,3.5 1.19641,3.5 1.29195,0 2.1482,-0.47902 2.68121,-1.5 0.67163,-1.28648 0.72871,-1.07297 0.40109,1.5 -0.41017,3.22116 -1.6471,5.32389 -1.6471,2.8 0,-1.17175 -0.38623,-1.46666 -1.92086,-1.46666 -1.71654,0 -2.00018,0.31502 -2.66666,2.96188 -0.4102,1.62903 -0.74581,3.12903 -0.74581,3.33333 0,0.50641 5.62906,0.47195 6.97013,-0.0427 0.59355,-0.22776 1.54021,-1.30564 2.10368,-2.39528 1.503,-2.90648 2.00783,-1.66178 0.59592,1.46927 l -1.20556,2.67347 h -6.9381 c -4.45563,0 -6.79067,-0.23854 -6.52607,-0.66667 z m -3.66667,-4 v -2.66667 h -6 c -3.55555,0 -6,-0.2716 -6,-0.66666 0,-0.4 2.66667,-0.66667 6.66667,-0.66667 h 6.66667 v 3.33333 c 0,1.83334 -0.3,3.33334 -0.66667,3.33334 -0.36667,0 -0.66667,-1.2 -0.66667,-2.66667 z M 132.01294,94.618415 c -4.12132,-4.446973 -4.57716,-13.58298 -0.96215,-19.28326 2.4589,-3.877294 3.87742,-3.947741 1.61077,-0.08 -3.08167,5.25848 -3.05308,13.51294 0.0627,18.104307 2.04718,3.0167 1.61939,3.773833 -0.71132,1.258953 z m 84.31051,1.41128 c 0,-0.275227 0.61392,-1.362587 1.36427,-2.41636 2.17374,-3.05274 3.06072,-8.575314 2.1077,-13.123214 -0.44181,-2.108333 -1.40374,-4.646186 -2.13763,-5.639673 -1.57066,-2.126253 -1.66618,-2.612487 -0.41919,-2.133974 0.50332,0.193147 1.70332,1.799327 2.66666,3.569294 3.20693,5.892193 2.15529,15.055834 -2.17754,18.974347 -0.77235,0.698493 -1.40427,1.044807 -1.40427,0.76958 z M 56.626482,89.353755 c -1.892572,-1.892567 -2.065439,-2.907494 -0.591552,-3.47308 1.50468,-0.5774 2.710534,0.797666 1.732718,1.975867 -0.935469,1.127166 -0.362093,1.800246 1.533582,1.800246 1.991548,0 3.022222,-1.250446 3.022222,-3.666667 0,-2.38846 -1.021595,-3.658086 -2.966667,-3.68694 -1.357707,-0.02013 -1.357925,-0.02507 -0.03333,-0.749546 2.908738,-1.59096 3.708384,-3.759894 2.011727,-5.456547 -1.542279,-1.54228 -3.541277,-0.69024 -3.152468,1.343687 0.257694,1.348033 0.08294,1.63568 -0.880291,1.448973 -1.770819,-0.343253 -1.913713,-1.631547 -0.353968,-3.191293 1.492127,-1.492127 4.041113,-1.779 6.085494,-0.68488 1.606504,0.85978 1.722236,4.115246 0.2004,5.63708 -1.007698,1.0077 -0.982782,1.16358 0.333333,2.08542 2.109285,1.477406 1.933716,5.088433 -0.334133,6.872327 -2.330171,1.832913 -4.60727,1.745153 -6.607064,-0.254647 z M 180.042,84.001815 c -1.73184,-3.879874 -3.01299,-7.41972 -2.84702,-7.866334 0.2991,-0.804833 5.79514,10.311247 5.79514,11.721021 0,1.502186 1.24228,-0.653354 3.69093,-6.404307 1.41459,-3.322347 2.75129,-5.619854 3.07899,-5.292154 0.55455,0.554554 -4.58786,12.914681 -5.93262,14.259447 -0.40441,0.404407 -1.78525,-1.936613 -3.78542,-6.417673 z m 21.18612,6.327253 c -3.70377,-1.494653 -4.76424,-7.371627 -2.05547,-11.39116 2.94126,-4.36454 8.66962,-6.61914 11.79511,-4.64238 0.62212,0.393467 1.29468,0.355207 1.84944,-0.105207 1.39044,-1.15396 1.62322,-0.25516 0.79046,3.05204 -0.90425,3.5911 -1.7784,3.985027 -2.0753,0.935227 -0.14383,-1.47738 -0.73828,-2.441513 -1.9082,-3.094893 -3.35839,-1.875594 -8.17158,2.170753 -9.54922,8.027826 -0.45561,1.937054 0.51842,5.213814 1.79022,6.022494 2.03631,1.294793 4.68926,0.497987 7.22818,-2.170967 2.78882,-2.931647 3.1922,-2.908707 1.42607,0.08111 -1.86826,3.162713 -5.98705,4.61934 -9.29129,3.285913 z m 32.81387,-6.327253 c -1.73183,-3.879874 -3.01298,-7.41972 -2.84701,-7.866334 0.29909,-0.804833 5.79513,10.311247 5.79513,11.721021 0,1.502186 1.24228,-0.653354 3.69094,-6.404307 1.41459,-3.322347 2.75128,-5.619854 3.07898,-5.292154 0.55456,0.554554 -4.58785,12.914681 -5.93262,14.259447 -0.4044,0.404407 -1.78524,-1.936613 -3.78542,-6.417673 z M 68.781785,89.892902 c -0.943677,-0.94368 -0.409688,-2.236114 0.92388,-2.236114 0.93198,0 1.312007,0.362034 1.166667,1.11142 -0.23796,1.226987 -1.376,1.83924 -2.090547,1.124694 z m 83.166855,-0.169007 c 0.24942,-0.403573 0.87423,-0.733773 1.38846,-0.733773 0.52004,0 1.2243,-1.109454 1.58696,-2.500001 1.6368,-6.2761 2.73272,-10.726093 2.73272,-11.096226 0,-0.22208 -0.45,-0.403774 -1,-0.403774 -0.55,0 -1,-0.3 -1,-0.666666 0,-0.96724 9.34491,-0.80898 11.33334,0.19194 2.54064,1.278893 2.56602,4.016326 0.0545,5.87322 -1.96745,1.4546 -1.98739,1.52294 -0.7062,2.42032 1.81974,1.274593 1.6496,3.637426 -0.40072,5.56498 -1.52419,1.432927 -2.44056,1.64272 -8.08082,1.84998 -4.51062,0.165753 -6.22972,0.02027 -5.90818,-0.5 z m 11.74853,-2.107493 c 0.86866,-0.868661 1.29759,-2.032907 1.16667,-3.166667 -0.18794,-1.627434 -0.4956,-1.811547 -3.33276,-1.994467 -3.10605,-0.200253 -3.13014,-0.18558 -3.82962,2.333333 -1.09549,3.944974 -0.9761,4.201521 1.95532,4.201521 1.80391,0 3.11112,-0.444447 4.04039,-1.37372 z m 1.49117,-7.814574 c 0.70444,-0.632273 1.11654,-1.776633 1,-2.77692 -0.16936,-1.453687 -0.57507,-1.732347 -2.78608,-1.9136 -3.16325,-0.25932 -3.55248,0.09801 -4.14476,3.805113 l -0.46752,2.9263 2.60006,-0.482706 c 1.43004,-0.265494 3.13928,-0.966674 3.7983,-1.558187 z m 86.13511,9.85496 c 0.22661,-0.366666 0.83275,-0.666666 1.34698,-0.666666 0.52004,0 1.2243,-1.109454 1.58696,-2.500001 1.6368,-6.2761 2.73272,-10.726093 2.73272,-11.096226 0,-0.22208 -0.4677,-0.403774 -1.03934,-0.403774 -0.57164,0 -0.85394,-0.3 -0.62732,-0.666666 0.2276,-0.368274 3.22914,-0.666667 6.70601,-0.666667 h 6.29399 v 2.62732 c 0,1.445027 -0.3,2.812733 -0.66667,3.039347 -0.38694,0.23914 -0.66667,-0.413747 -0.66667,-1.555994 0,-2.239333 -0.90848,-2.77734 -4.68985,-2.77734 -2.41439,0 -2.62557,0.161207 -3.27509,2.5 -0.95808,3.44988 -0.94095,3.5 1.1964,3.5 1.29196,0 2.1482,-0.479026 2.68122,-1.5 0.67162,-1.286486 0.72871,-1.072973 0.40108,1.5 -0.41016,3.221154 -1.64709,5.323887 -1.64709,2.8 0,-1.171753 -0.38623,-1.466666 -1.92086,-1.466666 -1.71655,0 -2.00018,0.315026 -2.66667,2.96188 -0.41019,1.629033 -0.7458,3.129033 -0.7458,3.333333 0,0.506407 5.62906,0.471947 6.97013,-0.04267 0.59355,-0.227767 1.54021,-1.305647 2.10368,-2.395287 1.50299,-2.906474 2.00783,-1.66178 0.59592,1.469273 l -1.20557,2.673467 h -6.93809 c -4.45563,0 -6.79067,-0.238533 -6.52607,-0.666667 z m -102.33333,-4 v -2.666667 h -6 c -3.55556,0 -6,-0.271606 -6,-0.666666 0,-0.4 2.66666,-0.666667 6.66666,-0.666667 h 6.66667 v 3.333333 c 0,1.833334 -0.3,3.333334 -0.66667,3.333334 -0.36666,0 -0.66666,-1.2 -0.66666,-2.666667 z m 20.35616,-19.705041 c -4.12132,-4.446974 -4.57717,-13.582978 -0.96216,-19.28326 2.4589,-3.87729 3.87742,-3.947743 1.61078,-0.08 -3.08168,5.258481 -3.05309,13.512944 0.0627,18.10431 2.04718,3.016696 1.61939,3.773834 -0.71132,1.25895 z m 70.3105,1.411279 c 0,-0.275226 0.61392,-1.362586 1.36427,-2.416356 2.17374,-3.05274 3.06072,-8.575315 2.1077,-13.123216 -0.44181,-2.108333 -1.40374,-4.646185 -2.13763,-5.639671 -1.57066,-2.126254 -1.66618,-2.612487 -0.41919,-2.133975 0.50332,0.193146 1.70332,1.799329 2.66666,3.569296 3.20693,5.892187 2.15529,15.055834 -2.17754,18.974342 -0.77235,0.698496 -1.40427,1.044806 -1.40427,0.76958 z m -61.762,-5.700626 c -3.70376,-1.494654 -4.76423,-7.371625 -2.05546,-11.391159 2.94126,-4.36454 8.66962,-6.619138 11.7951,-4.64238 0.62212,0.393466 1.29468,0.355206 1.84945,-0.105209 1.39043,-1.153959 1.62322,-0.255157 0.79045,3.052043 -0.90424,3.591098 -1.77839,3.985028 -2.0753,0.935223 -0.14382,-1.477379 -0.73827,-2.441511 -1.90819,-3.094887 -3.35839,-1.875599 -8.17159,2.170748 -9.54923,8.027824 -0.4556,1.93705 0.51843,5.213812 1.79022,6.022489 2.03632,1.2948 4.68927,0.497992 7.22819,-2.170961 2.78881,-2.931652 3.19219,-2.90871 1.42607,0.08111 -1.86826,3.162713 -5.98705,4.619342 -9.2913,3.285912 z m 23.48055,-6.327251 c -1.73183,-3.879872 -3.01299,-7.419724 -2.84701,-7.866338 0.29909,-0.804832 5.79513,10.311248 5.79513,11.721022 0,1.502188 1.24228,-0.653352 3.69093,-6.404306 1.4146,-3.322345 2.75129,-5.619852 3.07899,-5.292156 0.55455,0.554559 -4.58785,12.91468 -5.93262,14.259453 -0.40441,0.404407 -1.78525,-1.936617 -3.78542,-6.417675 z M 55.656785,61.028915 c 0,-0.345329 1.5,-2.342007 3.333333,-4.43706 2.485669,-2.840512 3.333334,-4.342268 3.333334,-5.90546 0,-2.470195 -1.026298,-3.696274 -3.093989,-3.696274 -1.864415,0 -2.601533,1.093639 -1.572678,2.333333 0.906005,1.091669 0.352927,2.333333 -1.039345,2.333333 -0.618837,0 -0.960655,-0.698183 -0.960655,-1.962197 0,-3.781536 5.145338,-5.409785 7.883791,-2.494835 2.377148,2.530358 1.879584,4.748808 -1.980496,8.830273 l -3.430038,3.62676 h 2.661495 c 2.101277,0 2.813769,-0.315735 3.384918,-1.5 l 0.723423,-1.500001 0.04512,1.445476 c 0.09721,3.114214 -0.525403,3.554525 -5.026206,3.554525 -2.344104,0 -4.262007,-0.282543 -4.262007,-0.627873 z m 13.125,0.197317 c -0.943677,-0.943677 -0.409688,-2.236111 0.92388,-2.236111 0.93198,0 1.312007,0.362033 1.166667,1.111423 -0.23796,1.226986 -1.376,1.839236 -2.090547,1.124688 z M 218.65678,60.990121 c 0.22662,-0.366667 0.83276,-0.666667 1.34698,-0.666667 0.52005,0 1.22431,-1.109452 1.58696,-2.5 1.63681,-6.276102 2.73273,-10.726094 2.73273,-11.09623 0,-0.222073 -0.45,-0.40377 -1,-0.40377 -0.55,0 -1,-0.330785 -1,-0.735077 0,-0.496317 1.83466,-0.658722 5.6484,-0.5 6.43678,0.267888 8.13613,1.292938 8.74489,5.27493 0.46199,3.021911 -1.96178,7.774437 -4.99188,9.7881 -1.90184,1.263869 -3.16486,1.505381 -7.87268,1.505381 -3.56852,0 -5.4576,-0.242406 -5.1954,-0.666667 z m 11.99088,-2.111933 c 3.52262,-2.770894 4.88123,-9.257172 2.40785,-11.495551 -0.84866,-0.768024 -2.10361,-1.077757 -3.79507,-0.936658 l -2.52712,0.210808 -1.52183,6 c -0.837,3.3 -1.52922,6.375001 -1.53827,6.833334 -0.0283,1.436685 4.92225,1.002322 6.97444,-0.611933 z m -68.99088,-1.888067 v -2.666667 h -6 c -3.55555,0 -6,-0.271605 -6,-0.666667 0,-0.4 2.66667,-0.666666 6.66667,-0.666666 h 6.66667 v 3.333333 c 0,1.833334 -0.3,3.333334 -0.66667,3.333334 -0.36667,0 -0.66667,-1.2 -0.66667,-2.666667 z m 28.89196,-23.973859 c -2.78568,-1.172097 -2.64814,-4.230168 0.3107,-6.907879 1.03776,-0.93916 1.25074,-1.7624 0.97937,-3.785607 -0.46929,-3.498796 0.2088,-5.821924 1.85151,-6.343301 3.08789,-0.980058 4.36142,2.814529 1.96646,5.859226 -1.69472,2.15449 -1.68183,2.32904 0.39794,5.38969 l 1.73126,2.547783 1.60207,-2.357658 c 1.70757,-2.512913 2.0181,-3.761729 0.9354,-3.761729 -0.36667,0 -0.66667,-0.3 -0.66667,-0.666667 0,-0.366667 1.2,-0.666667 2.66667,-0.666667 2.73116,0 3.62972,0.925982 1.45134,1.49564 -0.66843,0.174797 -2.04104,1.726798 -3.05025,3.44889 -1.46593,2.501411 -1.67434,3.324576 -1.03638,4.093273 1.16954,1.409211 2.99074,1.175212 4.18568,-0.537802 0.57548,-0.825 1.06208,-1.125 1.08131,-0.666667 0.0193,0.458333 -0.59103,1.459331 -1.35614,2.224439 -1.06413,1.06413 -1.80845,1.272778 -3.16667,0.887688 -2.10498,-0.596816 -3.73013,-0.610849 -6.44222,-0.05563 -1.1,0.225193 -2.64862,0.136532 -3.44138,-0.197026 z m 5.00798,-1.283521 c 0.71158,-0.450941 0.48793,-1.139037 -1.06864,-3.287823 -2.14269,-2.957899 -3.49796,-2.746663 -3.49796,0.545202 0,2.829757 2.27398,4.195474 4.5666,2.742621 z m 0.10006,-12.824251 c 0,-1.220668 -0.34735,-1.91837 -0.95507,-1.91837 -1.19215,0 -1.94374,2.21833 -1.36712,4.0351 0.62088,1.956213 2.32219,0.405427 2.32219,-2.11673 z M 55.656785,32.640286 c 0,-0.192408 0.75,-0.634983 1.666667,-0.983499 1.608208,-0.611439 1.666666,-0.845141 1.666666,-6.662868 v -6.029202 l -1.666666,0.418307 c -0.938684,0.235595 -1.666667,0.129492 -1.666667,-0.242914 0,-0.363671 0.675,-0.807615 1.5,-0.986541 0.825,-0.178926 2.025,-0.545996 2.666667,-0.815711 1.070519,-0.449976 1.166666,0.119842 1.166666,6.914269 0,6.960215 0.08003,7.40466 1.333334,7.40466 0.733333,0 1.333333,0.3 1.333333,0.666667 0,0.37037 -1.777778,0.666666 -4,0.666666 -2.2,0 -4,-0.157425 -4,-0.349834 z m 12.458333,-0.08072 c -0.943676,-0.943677 -0.409688,-2.236111 0.92388,-2.236111 0.93198,0 1.312007,0.362033 1.166667,1.111422 -0.23796,1.226986 -1.375999,1.839237 -2.090547,1.124689 z M 168.5055,31.486809 c 1.01678,-0.823179 3.71678,-4.617248 6,-8.431264 2.2832,-3.814016 4.45128,-6.964016 4.81795,-7 0.37064,-0.03637 0.99118,3.272936 1.39749,7.452789 0.5894,6.063377 0.97642,7.704096 2,8.478798 1.15751,0.876068 0.96123,0.962449 -2.23082,0.981786 -1.925,0.01166 -3.5,-0.278798 -3.5,-0.645464 0,-0.366667 0.45,-0.666667 1,-0.666667 0.66666,0 1,-0.666667 1,-2 0,-1.918155 -0.11964,-2 -2.92333,-2 -2.44001,0 -3.11824,0.297476 -4.10224,1.799253 -0.80549,1.229327 -0.93536,1.880438 -0.41001,2.055555 1.78938,0.596461 0.55536,1.478276 -2.06442,1.475214 l -2.83334,-0.0033 1.84872,-1.496689 z m 9.81795,-8.163356 c 0,-1.65 -0.225,-2.997689 -0.5,-2.994865 -0.47825,0.0049 -3.5,4.862969 -3.5,5.626944 0,0.202357 0.9,0.367921 2,0.367921 1.92593,0 2,-0.111111 2,-3 z m 32.95853,9.067108 c 0.24942,-0.403576 0.87422,-0.733774 1.38845,-0.733774 0.52005,0 1.22431,-1.109453 1.58696,-2.5 1.63681,-6.276102 2.73273,-10.726094 2.73273,-11.09623 0,-0.222074 -0.45,-0.40377 -1,-0.40377 -0.55,0 -1,-0.3 -1,-0.666667 0,-0.967243 9.3449,-0.808977 11.33333,0.191942 2.54064,1.27889 2.56602,4.016327 0.0545,5.873216 -1.96746,1.454601 -1.9874,1.522943 -0.7062,2.420324 1.81973,1.274591 1.64959,3.637424 -0.40072,5.564976 -1.5242,1.43293 -2.44057,1.642719 -8.08082,1.849983 -4.51063,0.165753 -6.22973,0.02027 -5.90818,-0.5 z m 11.74852,-2.107492 c 0.86866,-0.868661 1.2976,-2.032908 1.16667,-3.166667 -0.18794,-1.627437 -0.49559,-1.811551 -3.33276,-1.99447 -3.10605,-0.200253 -3.13013,-0.185576 -3.82961,2.333333 -1.0955,3.944978 -0.9761,4.201522 1.95532,4.201522 1.8039,0 3.11111,-0.444445 4.04038,-1.373718 z m 1.49117,-7.814574 c 0.70444,-0.632274 1.11654,-1.776636 1,-2.776924 -0.16935,-1.453684 -0.57507,-1.732344 -2.78607,-1.913598 -3.16326,-0.259319 -3.55249,0.09802 -4.14476,3.805114 l -0.46753,2.926301 2.60007,-0.482709 c 1.43004,-0.265491 3.13927,-0.966674 3.79829,-1.558184 z"
         id="path196" />
      <path
         style="fill:#333333;fill-opacity:1;stroke-width:0.666667"
         d="m 59.766689,117.87484 c 1.232875,-0.32652 2.099655,-2.0063 1.519581,-2.94488 -0.206162,-0.33358 -1.707136,-0.6065 -3.335496,-0.6065 -1.628361,0 -2.960655,-0.179 -2.960655,-0.39778 0,-0.21878 1.724999,-2.99378 3.833333,-6.16667 l 3.833333,-5.76889 0.191994,5.79029 c 0.178119,5.37181 0.298571,5.81093 1.666667,6.07588 l 1.474672,0.28559 -1.5,0.0908 c -1.835268,0.11108 -2.058263,2.36604 -0.333333,3.37072 0.897737,0.52289 0.398295,0.66637 -2.166667,0.62246 -1.833333,-0.0314 -2.833876,-0.18934 -2.223429,-0.35101 z m 1.890096,-8.21805 c 0,-2.2 -0.229911,-4 -0.510913,-4 -0.498458,0 -4.82242,6.81819 -4.82242,7.60418 0,0.2177 1.2,0.39582 2.666666,0.39582 h 2.666667 z m 6.964099,7.94191 c -0.687014,-1.11161 0.858141,-2.38634 1.777814,-1.46666 0.76928,0.76928 0.287814,2.19142 -0.741913,2.19142 -0.323387,0 -0.789543,-0.32614 -1.035901,-0.72476 z m 130.218296,-0.44191 c 0.82898,-0.72711 1.86151,-3.35537 2.74052,-6.97587 1.70361,-7.01683 1.7036,-7.01642 0.24375,-7.39791 -0.64167,-0.16769 1.90833,-0.33969 5.66667,-0.38222 l 6.83333,-0.0773 v 1.815 1.815 l -1.0378,-1.48166 c -0.83563,-1.19303 -1.68302,-1.48168 -4.34983,-1.48168 -3.5329,0 -3.7413,0.20723 -4.86079,4.83334 -0.4083,1.68726 -0.28629,1.83333 1.53125,1.83333 1.28508,0 2.35038,-0.52393 3.04988,-1.5 1.06796,-1.49021 1.07191,-1.48695 0.60532,0.5 -0.2583,1.1 -0.70602,2.6 -0.99491,3.33333 -0.49116,1.24674 -0.52801,1.23318 -0.56753,-0.2089 -0.0363,-1.32642 -0.33992,-1.513 -2.16933,-1.33334 -1.92475,0.18904 -2.20272,0.50692 -2.92238,3.34208 -0.43742,1.72325 -0.63024,3.29825 -0.42849,3.5 0.59522,0.59522 4.58577,0.41956 6.43424,-0.28322 0.94036,-0.35753 2.34182,-1.63253 3.11433,-2.83333 0.77251,-1.20081 1.19197,-1.58329 0.93211,-0.84995 -0.25984,0.73333 -0.77111,2.15833 -1.13614,3.16666 l -0.6637,1.83334 h -6.6753 c -6.4197,0 -6.62438,-0.0447 -5.3452,-1.16667 z m -5.1824,-3.83333 v -2.33334 h -5.62732 c -3.16698,0 -5.81416,-0.30232 -6.05467,-0.69146 -0.28697,-0.46433 1.72582,-0.62858 6.12732,-0.5 l 6.55467,0.19146 0.205,2.83334 c 0.12129,1.67638 -0.0829,2.83333 -0.5,2.83333 -0.38775,0 -0.705,-1.05 -0.705,-2.33333 z m 24.66833,-20.567705 c 3.04767,-5.94946 2.72181,-13.276027 -0.83463,-18.765634 l -1.2957,-2 2.02319,2.131134 c 4.62295,4.869606 4.62727,15.020933 0.009,20.34534 l -1.89986,2.190193 z m -86.20624,1.709967 c -4.52834,-5.00376 -4.03664,-16.853481 0.87729,-21.142267 1.32482,-1.156281 1.27093,-0.941641 -0.40584,1.61634 -1.68571,2.571613 -1.96124,3.682433 -2.14966,8.666666 -0.19234,5.087487 -0.0293,6.065681 1.48124,8.883661 1.83334,3.42034 1.87406,3.828773 0.19697,1.9756 z M 56.823452,89.603388 c -1.502235,-0.874973 -1.571463,-3.9466 -0.08895,-3.9466 0.792953,0 0.992685,0.444827 0.755901,1.68348 -0.211423,1.105987 0.04778,1.899447 0.755615,2.31306 0.592588,0.346267 0.777433,0.62958 0.410766,0.62958 -0.366667,0 -1.191667,-0.30578 -1.833332,-0.67952 z m 4.483691,-0.185566 c 1.44508,-1.056674 1.661405,-4.513787 0.379123,-6.058847 -0.472674,-0.569534 -1.497674,-1.059207 -2.277778,-1.088154 -1.20534,-0.04473 -1.142812,-0.153266 0.416319,-0.722673 3.115464,-1.137793 3.333249,-5.27634 0.346755,-6.589373 -1.323032,-0.581687 -1.262084,-0.615067 0.481494,-0.263727 1.097948,0.221247 2.372948,0.71488 2.833333,1.096967 1.252297,1.039313 1.009997,3.50162 -0.476996,4.847326 -1.302582,1.178827 -1.299671,1.200527 0.333333,2.485047 0.906066,0.712713 1.647392,1.957313 1.647392,2.76578 0,2.1068 -1.83596,4.433287 -3.498556,4.433287 -1.362318,0 -1.370176,-0.0386 -0.184419,-0.905633 z m 7.313741,0.18088 c -0.687014,-1.111614 0.858141,-2.386341 1.777814,-1.466667 0.76928,0.76928 0.287814,2.19142 -0.741913,2.19142 -0.323387,0 -0.789543,-0.32614 -1.035901,-0.724753 z m 84.731946,0.0881 c 1.91891,-0.7775 5.09902,-13.785487 3.60177,-14.732741 -0.63023,-0.39872 0.90581,-0.613726 4.43219,-0.6204 4.42317,-0.0084 5.59912,0.213494 6.51895,1.229894 0.88229,0.974913 0.97919,1.616426 0.45316,3 -0.36802,0.967946 -0.90154,1.764493 -1.18562,1.770106 -0.28407,0.0053 -0.92691,0.270207 -1.42852,0.58798 -0.73476,0.465467 -0.63094,0.858847 0.5341,2.023894 2.3783,2.3783 0.85512,5.571367 -3.19424,6.696127 -2.97782,0.82712 -11.76234,0.867866 -9.73179,0.04513 z m 8.95748,-0.886314 c 2.21519,-1.120826 3.46533,-3.67594 2.59457,-5.30296 -0.53038,-0.99104 -1.29216,-1.20276 -3.7499,-1.042213 -3.07167,0.200646 -3.08755,0.214293 -3.8803,3.334646 -0.4378,1.723247 -0.63092,3.298247 -0.42917,3.500001 0.65023,0.65022 3.76343,0.37138 5.4648,-0.489474 z m 1.57493,-7.88388 c 0.89348,-0.4071 1.96646,-1.49068 2.3844,-2.407947 1.07923,-2.36866 -0.1039,-3.51854 -3.62029,-3.51854 -2.73344,0 -2.86157,0.09269 -3.29079,2.380674 -0.24564,1.309373 -0.61113,2.809373 -0.81219,3.333333 -0.454,1.183093 2.91437,1.317147 5.33887,0.21248 z m 18.49148,7.906847 c -0.31922,-0.825 -1.66572,-3.871074 -2.99222,-6.769047 -1.32652,-2.89798 -2.25791,-5.42298 -2.06978,-5.611113 0.47046,-0.470454 0.44989,-0.50784 3.32638,6.046826 1.40796,3.208334 2.73748,5.828781 2.95448,5.823207 0.21699,-0.0053 1.56236,-2.712747 2.98968,-6.01596 1.42734,-3.303213 2.75097,-5.85002 2.94142,-5.65958 0.48804,0.488047 -5.29139,13.685667 -5.99316,13.685667 -0.31702,0 -0.83758,-0.675 -1.1568,-1.5 z m 16.83638,-0.216407 c -1.49444,-1.494447 -1.67594,-2.13738 -1.40358,-4.971893 0.53394,-5.556867 5.12418,-9.978367 10.35918,-9.978367 1.03845,0 2.25557,0.367487 2.70472,0.81664 0.64441,0.644407 1.11472,0.630487 2.23,-0.066 1.21972,-0.761733 1.35979,-0.7431 1.02244,0.13602 -0.21499,0.560267 -0.60618,2.164973 -0.86929,3.566013 l -0.47839,2.54734 -0.74607,-2.657186 c -1.52298,-5.424294 -7.79145,-4.48374 -10.87533,1.631766 -2.77542,5.503827 -1.46073,10.025407 2.91497,10.025407 3.04233,0 4.69171,-0.929693 6.28488,-3.542547 0.71235,-1.168266 1.29629,-1.71912 1.29766,-1.22412 0.001,0.495 -1.01751,1.92 -2.26417,3.166667 -1.9272,1.9272 -2.73048,2.266667 -5.36364,2.266667 -2.43848,0 -3.46192,-0.364953 -4.81338,-1.716407 z m 37.16362,0.216407 c -0.31922,-0.825 -1.66572,-3.871074 -2.99223,-6.769047 -1.32651,-2.89798 -2.2579,-5.42298 -2.06977,-5.611113 0.47045,-0.470454 0.44989,-0.50784 3.32637,6.046826 1.40797,3.208334 2.73748,5.828781 2.95448,5.823207 0.217,-0.0053 1.56236,-2.712747 2.98969,-6.01596 1.42733,-3.303213 2.75097,-5.85002 2.94141,-5.65958 0.48805,0.488047 -5.29138,13.685667 -5.99316,13.685667 -0.31702,0 -0.83758,-0.675 -1.15679,-1.5 z m 16.46246,0.333333 c 0.82897,-0.727106 1.86151,-3.355367 2.74052,-6.975873 1.70361,-7.016827 1.70359,-7.016414 0.24375,-7.397907 -0.64167,-0.167687 1.90833,-0.339687 5.66666,-0.38222 l 6.83334,-0.07733 v 1.815006 1.815 l -1.0378,-1.481666 c -0.83564,-1.193027 -1.68302,-1.481674 -4.34984,-1.481674 -3.5329,0 -3.7413,0.207227 -4.86078,4.833334 -0.4083,1.68726 -0.2863,1.833333 1.53124,1.833333 1.28509,0 2.35038,-0.523933 3.04988,-1.5 1.06797,-1.490213 1.07192,-1.486953 0.60533,0.5 -0.25831,1.1 -0.70602,2.6 -0.99491,3.333333 -0.49116,1.24674 -0.52802,1.233174 -0.56753,-0.208906 -0.0363,-1.326414 -0.33993,-1.513 -2.16933,-1.333334 -1.92476,0.189034 -2.20272,0.50692 -2.92238,3.34208 -0.43742,1.723247 -0.63024,3.298247 -0.42849,3.500001 0.59522,0.59522 4.58577,0.41956 6.43423,-0.28322 0.94037,-0.357534 2.34182,-1.632534 3.11434,-2.833334 0.77251,-1.200807 1.19196,-1.583287 0.93211,-0.849953 -0.25985,0.733333 -0.77111,2.158333 -1.13615,3.166667 l -0.66369,1.833333 h -6.67531 c -6.4197,0 -6.62437,-0.04467 -5.34519,-1.166667 z M 148.99012,85.323455 v -2.333334 h -5.62732 c -3.16698,0 -5.81417,-0.30232 -6.05468,-0.691466 -0.28696,-0.464327 1.72582,-0.628574 6.12732,-0.5 l 6.55468,0.191466 0.205,2.833334 c 0.12128,1.67638 -0.0829,2.833333 -0.5,2.833333 -0.38776,0 -0.705,-1.05 -0.705,-2.333333 z m -92.551294,-8.0426 c 0.283361,-2.411067 1.62298,-2.85402 1.582415,-0.523234 -0.01712,0.983534 -0.429204,1.920894 -0.915748,2.083027 -0.624187,0.207993 -0.820457,-0.25122 -0.666667,-1.559793 z M 241.65844,64.08909 c 3.04767,-5.949464 2.72181,-13.276032 -0.83463,-18.765636 l -1.2957,-2 2.02319,2.131133 c 4.62295,4.869606 4.62727,15.020933 0.009,20.345343 l -1.89986,2.190191 z m -72.20624,1.709966 c -4.52834,-5.00376 -4.03664,-16.853485 0.8773,-21.142269 1.32482,-1.156278 1.27092,-0.941642 -0.40585,1.616342 -1.68571,2.57161 -1.96123,3.682435 -2.14966,8.666667 -0.19233,5.087488 -0.0293,6.065677 1.48124,8.883658 1.83335,3.420341 1.87407,3.828772 0.19697,1.975602 z M 55.656785,61.263116 c 0,-0.21652 1.309141,-1.94152 2.909203,-3.833334 1.600062,-1.891813 3.275572,-4.142603 3.723355,-5.001755 1.683568,-3.230228 -1.064665,-6.990596 -3.971899,-5.434691 -1.001076,0.53576 -1.235384,1.130991 -0.927728,2.356789 0.30948,1.233066 0.145552,1.639996 -0.660659,1.639996 -0.589749,0 -1.067678,-0.525 -1.062063,-1.166667 0.03541,-4.04704 6.10577,-5.311007 8.434896,-1.75631 1.544092,2.356582 0.619846,4.682273 -3.316278,8.344793 l -3.46216,3.221503 3.13354,0.01167 c 2.263149,0.0084 3.3419,-0.312387 3.88367,-1.154994 0.700555,-1.089563 0.724774,-1.085959 0.36646,0.05453 -0.211019,0.671655 -0.38367,1.646655 -0.38367,2.166665 0,0.719218 -1.036993,0.945476 -4.333334,0.945476 -2.383333,0 -4.333333,-0.177152 -4.333333,-0.393672 z m 12.964099,-0.331083 c -0.687014,-1.111613 0.858141,-2.38634 1.777814,-1.466667 0.76928,0.769283 0.287814,2.191422 -0.741913,2.191422 -0.323387,0 -0.789543,-0.32614 -1.035901,-0.724755 z M 175.87977,59.940384 c -1.49445,-1.49445 -1.67595,-2.137384 -1.40359,-4.971896 0.53394,-5.556865 5.12419,-9.978367 10.35919,-9.978367 1.03845,0 2.25557,0.367488 2.70472,0.816639 0.64441,0.644409 1.11472,0.630487 2.22999,-0.06601 1.21973,-0.761732 1.3598,-0.743098 1.02245,0.136018 -0.21499,0.560268 -0.60618,2.164974 -0.86929,3.566012 l -0.4784,2.547344 -0.74606,-2.657189 c -1.52298,-5.424277 -7.79146,-4.483727 -10.87533,1.631782 -2.77542,5.503824 -1.46073,10.025407 2.91497,10.025407 3.04232,0 4.69171,-0.929693 6.28488,-3.542548 0.71234,-1.168266 1.29629,-1.719119 1.29766,-1.224119 10e-4,0.495 -1.01751,1.92 -2.26418,3.166667 -1.9272,1.927201 -2.73048,2.266667 -5.36363,2.266667 -2.43848,0 -3.46192,-0.36495 -4.81338,-1.716404 z m 27.83029,0.216404 c -0.31922,-0.825 -1.66572,-3.871073 -2.99223,-6.76905 -1.32651,-2.897977 -2.25791,-5.422977 -2.06977,-5.611111 0.47045,-0.470456 0.44988,-0.507842 3.32637,6.046827 1.40797,3.208333 2.73748,5.828778 2.95448,5.82321 0.21699,-0.0056 1.56236,-2.712753 2.98969,-6.015964 1.42733,-3.303211 2.75096,-5.850021 2.94141,-5.659578 0.48805,0.488048 -5.29139,13.685666 -5.99316,13.685666 -0.31702,0 -0.83758,-0.675 -1.15679,-1.5 z m 16.1014,1.04276 c 1.18441,-0.310366 2.26284,-3.211103 3.87942,-10.434705 0.74047,-3.308768 0.72826,-3.972315 -0.0825,-4.485434 -0.6117,-0.38712 1.01283,-0.605851 4.54844,-0.612413 6.79389,-0.01261 8.16667,0.952997 8.16667,5.744435 0,6.640024 -4.64213,10.265663 -13,10.153381 -2.56667,-0.03448 -4.14707,-0.19885 -3.51199,-0.365264 z m 9.78878,-1.37713 c 2.81549,-1.44142 4.72321,-4.918059 4.72321,-8.607611 0,-3.598324 -1.29682,-4.891353 -4.9057,-4.891353 h -2.81047 l -1.71541,6.982063 c -0.94347,3.840134 -1.55733,7.140135 -1.36413,7.333333 0.72957,0.729574 3.8801,0.305994 6.0725,-0.816432 z m -67.94346,-3.165631 v -2.333333 h -5.62732 c -3.16698,0 -5.81416,-0.302319 -6.05467,-0.691467 -0.28697,-0.464325 1.72582,-0.628572 6.12732,-0.5 l 6.55467,0.191467 0.205,2.833333 c 0.12129,1.676382 -0.0829,2.833334 -0.5,2.833334 -0.38775,0 -0.705,-1.05 -0.705,-2.333334 z M 57.490118,32.302679 c 1.408481,-0.56614 1.5,-0.990652 1.5,-6.957743 0,-6.122821 -0.05476,-6.357639 -1.5,-6.43215 -1.359094,-0.07007 -1.37475,-0.108121 -0.166666,-0.405073 0.733333,-0.180256 1.698242,-0.623814 2.144243,-0.985685 0.625863,-0.507807 0.854059,1.061313 1,6.876187 0.185719,7.399803 0.218806,7.542379 1.855757,7.996567 1.117037,0.309932 0.347556,0.470411 -2.333334,0.486628 -3.029186,0.01832 -3.635944,-0.122137 -2.5,-0.578731 z m 10.4641,-0.03731 c -0.687014,-1.111613 0.858139,-2.38634 1.777814,-1.466667 0.76928,0.769283 0.287813,2.191421 -0.741914,2.191421 -0.323387,0 -0.789542,-0.32614 -1.0359,-0.724754 z M 168.32345,32.020692 c 0.95034,-0.522332 3.52913,-4.086165 6,-8.291884 2.38333,-4.056711 4.52581,-7.382479 4.76106,-7.390596 0.66827,-0.02306 1.10684,2.469703 1.61291,9.16759 0.35076,4.64223 0.73604,6.339469 1.54658,6.813061 0.78101,0.456337 0.15787,0.630713 -2.25388,0.630713 -2.58288,0 -3.07068,-0.152985 -2.16667,-0.679522 0.69394,-0.404181 1.16667,-1.476491 1.16667,-2.646394 0,-1.907105 -0.098,-1.966873 -3.22632,-1.966873 -2.83134,0 -3.32346,0.213181 -4.01971,1.741282 -0.59959,1.315967 -0.60579,1.967311 -0.0254,2.666667 0.63565,0.765919 0.26568,0.920785 -2.14697,0.898692 -2.84099,-0.02601 -2.87266,-0.04993 -1.24829,-0.942736 z m 10.19923,-5.530572 c 0.15286,-0.275 0.0888,-2 -0.14231,-3.833333 l -0.42025,-3.333334 -1.85872,2.884074 c -2.90566,4.508504 -2.91837,4.782593 -0.22196,4.782593 1.30093,0 2.49039,-0.225 2.64324,-0.5 z m 11.26744,5.7 c -1.32414,-1.324138 -0.91798,-4.190083 0.82601,-5.828478 1.42659,-1.340205 1.57891,-1.925378 1.24188,-4.771033 -0.38185,-3.224112 0.39925,-5.267156 2.01373,-5.267156 0.46804,0 0.43959,0.278784 -0.0816,0.8 -0.93368,0.933673 -1.0392,3.789991 -0.18958,5.131821 0.44821,0.707878 0.91933,0.307331 1.96032,-1.666667 0.75368,-1.429168 1.38359,-2.339334 1.39979,-2.02259 0.0162,0.316744 -0.62345,1.737598 -1.42145,3.157454 -1.53097,2.723998 -1.40433,3.463 1.18819,6.933316 0.98502,1.318545 1.01037,1.314849 2.28505,-0.333334 1.84198,-2.381712 2.27468,-4.068681 1.21568,-4.739688 -0.57922,-0.367012 0.17456,-0.561698 2.09533,-0.541179 2.34607,0.02506 2.69097,0.15684 1.58227,0.604542 -0.77975,0.314871 -2.36563,1.977011 -3.52417,3.693644 -1.65517,2.452501 -1.94095,3.320551 -1.33397,4.051916 1.07762,1.298462 3.73251,1.162331 4.60063,-0.235901 0.66223,-1.066615 0.70748,-1.052321 0.52767,0.166667 -0.2346,1.59042 -3.66356,2.171447 -5.86424,0.993678 -1.0522,-0.563119 -1.6424,-0.557301 -2.34172,0.02309 -0.51424,0.426776 -1.32006,0.621278 -1.79072,0.432227 -0.55368,-0.222394 -0.45781,-0.362307 0.27157,-0.39636 0.62003,-0.02895 1.30624,-0.342124 1.52491,-0.695946 0.41534,-0.672031 -2.81304,-6.023353 -3.63381,-6.023353 -0.25909,0 -0.81225,0.748811 -1.22925,1.664024 -0.84237,1.848807 -0.13126,4.627075 1.33442,5.213428 0.50601,0.202437 0.29882,0.372862 -0.49026,0.40325 -0.75166,0.02895 -1.72666,-0.307369 -2.16666,-0.747369 z m 22.89604,0.163344 c 1.91891,-0.777498 5.09902,-13.785483 3.60177,-14.732737 -0.63023,-0.39872 0.90581,-0.613728 4.43219,-0.620398 4.42318,-0.0084 5.59912,0.213492 6.51895,1.229888 0.88229,0.974918 0.97919,1.616432 0.45316,3 -0.36801,0.967947 -0.90154,1.764497 -1.18561,1.770112 -0.28408,0.0056 -0.92692,0.270204 -1.42852,0.587977 -0.73476,0.465471 -0.63095,0.858845 0.5341,2.023893 2.3783,2.378303 0.85512,5.571369 -3.19424,6.696125 -2.97783,0.827125 -11.76234,0.867872 -9.7318,0.04514 z m 8.95748,-0.88631 c 2.21519,-1.120829 3.46533,-3.675943 2.59458,-5.302957 -0.53039,-0.991044 -1.29216,-1.202766 -3.7499,-1.042219 -3.07168,0.200651 -3.08756,0.214297 -3.8803,3.334649 -0.4378,1.723245 -0.63093,3.298245 -0.42918,3.5 0.65023,0.650222 3.76344,0.371377 5.4648,-0.489473 z m 1.57493,-7.883882 c 0.89348,-0.407099 1.96647,-1.490677 2.3844,-2.407949 1.07923,-2.368658 -0.10389,-3.518536 -3.62029,-3.518536 -2.73344,0 -2.86156,0.09269 -3.29079,2.380676 -0.24564,1.309371 -0.61113,2.809371 -0.81219,3.333333 -0.454,1.183093 2.91438,1.317147 5.33887,0.212476 z M 195.32345,16.99012 c -0.22661,-0.366667 -0.0943,-0.666667 0.29399,-0.666667 0.3883,0 0.70601,0.3 0.70601,0.666667 0,0.366667 -0.13229,0.666667 -0.29399,0.666667 -0.16169,0 -0.4794,-0.3 -0.70601,-0.666667 z"
         id="path194" />
    </g>
  </g>
</svg>
