<?xml version="1.0" encoding="UTF-8" standalone="no"?>
<svg
   xmlns:dc="http://purl.org/dc/elements/1.1/"
   xmlns:cc="http://creativecommons.org/ns#"
   xmlns:rdf="http://www.w3.org/1999/02/22-rdf-syntax-ns#"
   xmlns:svg="http://www.w3.org/2000/svg"
   xmlns="http://www.w3.org/2000/svg"
   xmlns:sodipodi="http://sodipodi.sourceforge.net/DTD/sodipodi-0.dtd"
   xmlns:inkscape="http://www.inkscape.org/namespaces/inkscape"
   version="1.1"
   id="svg340"
   width="214"
   height="289.83478"
   viewBox="0 0 214 289.83478"
   sodipodi:docname="5-2-example-3.svg"
   inkscape:version="1.0.1 (c497b03c, 2020-09-10)">
  <metadata
     id="metadata346">
    <rdf:RDF>
      <cc:Work
         rdf:about="">
        <dc:format>image/svg+xml</dc:format>
        <dc:type
           rdf:resource="http://purl.org/dc/dcmitype/StillImage" />
        <dc:title></dc:title>
      </cc:Work>
    </rdf:RDF>
  </metadata>
  <defs
     id="defs344" />
  <sodipodi:namedview
     pagecolor="#ffffff"
     bordercolor="#666666"
     borderopacity="1"
     objecttolerance="10"
     gridtolerance="10"
     guidetolerance="10"
     inkscape:pageopacity="0"
     inkscape:pageshadow="2"
     inkscape:window-width="740"
     inkscape:window-height="480"
     id="namedview342"
     showgrid="false"
     fit-margin-top="0"
     fit-margin-left="0"
     fit-margin-right="0"
     fit-margin-bottom="0"
     inkscape:pagecheckerboard="true"
     inkscape:zoom="0.66878581"
     inkscape:cx="257.12099"
     inkscape:cy="67.910187"
     inkscape:window-x="440"
     inkscape:window-y="192"
     inkscape:window-maximized="0"
     inkscape:current-layer="g348" />
  <g
     inkscape:groupmode="layer"
     inkscape:label="Image"
     id="g348"
     transform="translate(-18.361851,-121.17536)">
    <path
       style="fill:#1d1d1d;stroke-width:0.666667"
       d="m 21.331547,409.37376 c -1.995131,-1.99513 -2.044689,-2.99805 -0.260242,-5.26661 1.270828,-1.6156 1.296333,-1.86337 0.333334,-3.23824 -1.401648,-2.00114 -1.312805,-3.58876 0.290545,-5.19212 1.594639,-1.59464 4.829739,-1.74168 6.285714,-0.28571 1.375278,1.37528 1.349587,4.71713 -0.04225,5.49605 -0.979325,0.54806 -0.945515,0.75428 0.333334,2.03312 1.40204,1.40204 1.870419,4.38953 0.912995,5.82341 -0.732097,1.09641 -3.215026,2.26647 -4.8096,2.26647 -0.774105,0 -2.143828,-0.73637 -3.043828,-1.63637 z m 6.337057,-0.66494 c 1.226847,-1.47826 0.57766,-3.16345 -1.740129,-4.51711 -1.92279,-1.12298 -2.183861,-1.13578 -3.164488,-0.15515 -1.261802,1.26181 -1.39783,3.71121 -0.268803,4.84023 1.104611,1.10462 4.200698,1.00409 5.17342,-0.16797 z m -0.77342,-8.49869 c 1.257578,-1.25758 0.942251,-3.74363 -0.578039,-4.55726 -1.071956,-0.5737 -1.738299,-0.50146 -3,0.32524 -2.07431,1.35914 -2.040294,1.94203 0.211372,3.62196 2.171215,1.6199 2.328347,1.64838 3.366667,0.61006 z m 5.925,9.70278 c -0.943677,-0.94368 -0.409688,-2.23612 0.923882,-2.23612 0.931975,0 1.312004,0.36204 1.166667,1.11142 -0.237962,1.22699 -1.376001,1.83924 -2.090549,1.1247 z m 127.208336,-0.23612 c 0.22661,-0.36666 0.83275,-0.66666 1.34698,-0.66666 0.52004,0 1.2243,-1.10946 1.58696,-2.5 1.6368,-6.2761 2.73272,-10.7261 2.73272,-11.09623 0,-0.22208 -0.45,-0.40377 -1,-0.40377 -0.55,0 -1,-0.33079 -1,-0.73508 0,-0.49632 1.83466,-0.65872 5.6484,-0.5 6.43678,0.26789 8.13614,1.29294 8.7449,5.27493 0.46198,3.02191 -1.96178,7.77444 -4.99188,9.7881 -1.90184,1.26387 -3.16487,1.50538 -7.87268,1.50538 -3.56852,0 -5.45761,-0.24241 -5.1954,-0.66667 z m 11.99088,-2.11193 c 3.52262,-2.77089 4.88123,-9.25717 2.40784,-11.49555 -0.8486,-0.76798 -2.10357,-1.07775 -3.79465,-0.93666 -2.52396,0.21058 -2.52795,0.21572 -3.65581,4.69982 -0.621,2.46894 -1.32699,5.54394 -1.56888,6.83333 l -0.4398,2.34433 h 2.60697 c 1.66481,0 3.27099,-0.52232 4.44433,-1.44527 z m -14.99088,-1.88807 v -2.66666 h -6 c -3.55556,0 -6,-0.27161 -6,-0.66667 0,-0.4 2.66666,-0.66667 6.66666,-0.66667 h 6.66667 v 3.33334 c 0,1.83333 -0.3,3.33333 -0.66667,3.33333 -0.36666,0 -0.66666,-1.2 -0.66666,-2.66667 z M 22.58476,381.96277 c -0.662713,-1.72701 0.902999,-6.78526 3.114635,-10.06229 l 1.950677,-2.89035 h -3.277651 c -2.418262,0 -3.455818,0.30589 -3.957171,1.16666 -0.612209,1.0511 -0.681529,1.02348 -0.699793,-0.2788 -0.04391,-3.13077 0.441375,-3.4164 5.18701,-3.05295 2.452661,0.18783 4.572977,0.44041 4.711813,0.56129 0.138836,0.12087 -0.734208,1.75731 -1.9401,3.63653 -1.624828,2.53207 -2.294346,4.46675 -2.585762,7.47195 -0.391313,4.03538 -1.625834,5.73552 -2.503658,3.44796 z m 142.68176,0.3863 c -3.70377,-1.49465 -4.76424,-7.37162 -2.05547,-11.39116 2.94126,-4.36454 8.66962,-6.61914 11.79511,-4.64238 0.62212,0.39347 1.29468,0.35521 1.84944,-0.1052 1.39044,-1.15396 1.62322,-0.25516 0.79046,3.05204 -0.87654,3.48106 -1.95088,4.08487 -1.95088,1.09646 0,-2.49702 -2.40225,-4.27446 -4.92222,-3.64199 -4.05306,1.01726 -7.84674,8.18397 -6.3776,12.04808 0.87627,2.30477 1.72842,2.88845 4.23638,2.90167 1.40304,0.007 2.64278,-0.73219 4.5,-2.68454 2.78882,-2.93164 3.1922,-2.9087 1.42607,0.0811 -1.86826,3.16271 -5.98705,4.61934 -9.29129,3.28591 z M 32.153517,381.91291 c -0.943677,-0.94368 -0.409688,-2.23612 0.923883,-2.23612 0.931974,0 1.312003,0.36204 1.166666,1.11142 -0.237962,1.22699 -1.376001,1.83924 -2.090549,1.1247 z m 125.541663,-4.23612 v -2.66666 h -6 c -3.55555,0 -6,-0.27161 -6,-0.66667 0,-0.4 2.66667,-0.66667 6.66667,-0.66667 h 6.66667 v 3.33334 c 0,1.83333 -0.3,3.33333 -0.66667,3.33333 -0.36667,0 -0.66667,-1.2 -0.66667,-2.66667 z m 3.77778,-20.44444 c -0.74383,-0.74383 -0.52674,-32.22222 0.22222,-32.22222 0.42631,0 0.66667,5.88889 0.66667,16.33333 0,8.98334 -0.1,16.33333 -0.22222,16.33333 -0.12223,0 -0.42223,-0.2 -0.66667,-0.44444 z M 22.042397,316.08462 c -5.349727,-5.34973 -0.572124,-17.16554 5.931595,-14.66983 1.393305,0.53466 1.404048,3.59534 0.01262,3.59534 -0.687209,0 -0.970901,-0.48955 -0.833333,-1.43803 0.479857,-3.30844 -3.692117,-1.1457 -4.519954,2.34314 -0.418954,1.76564 -0.351363,1.85122 0.923278,1.16906 2.946545,-1.57695 6.138581,1.01303 6.138581,4.98077 0,2.283 -0.348617,3.12251 -1.756573,4.23001 -2.293841,1.80433 -3.940182,1.74557 -5.896214,-0.21046 z m 4.962664,-1.03066 c 1.548735,-2.89384 0.347529,-7.37716 -1.976544,-7.37716 -1.515202,0 -2.666666,1.87112 -2.666666,4.33333 0,2.46221 1.151464,4.33333 2.666666,4.33333 0.707532,0 1.596977,-0.58028 1.976544,-1.2895 z m 5.815123,1.52562 c -0.943677,-0.94368 -0.409688,-2.23612 0.923882,-2.23612 0.931975,0 1.312004,0.36204 1.166667,1.11142 -0.237962,1.22699 -1.376001,1.83924 -2.090549,1.1247 z m 119.833526,-0.16901 c 0.24942,-0.40357 0.87423,-0.73377 1.38845,-0.73377 0.52005,0 1.22431,-1.10946 1.58696,-2.5 1.63681,-6.2761 2.73273,-10.7261 2.73273,-11.09623 0,-0.22208 -0.45,-0.40377 -1,-0.40377 -0.55,0 -1,-0.3 -1,-0.66667 0,-0.96724 9.34491,-0.80898 11.33333,0.19194 2.54065,1.27889 2.56603,4.01633 0.0545,5.87322 -1.96745,1.4546 -1.98739,1.52294 -0.7062,2.42032 1.81973,1.27459 1.64959,3.63743 -0.40072,5.56498 -1.52419,1.43293 -2.44057,1.64272 -8.08082,1.84998 -4.51063,0.16575 -6.22973,0.0203 -5.90818,-0.5 z m 11.74853,-2.10749 c 0.86866,-0.86866 1.29759,-2.03291 1.16666,-3.16667 -0.18794,-1.62743 -0.49559,-1.81155 -3.33276,-1.99447 -3.10604,-0.20025 -3.13013,-0.18558 -3.82961,2.33334 -1.09549,3.94497 -0.9761,4.20152 1.95532,4.20152 1.80391,0 3.11111,-0.44445 4.04039,-1.37372 z m 1.49116,-7.81458 c 0.70444,-0.63227 1.11654,-1.77663 1,-2.77692 -0.16935,-1.45368 -0.57506,-1.73234 -2.78607,-1.9136 -3.16325,-0.25932 -3.55249,0.098 -4.14476,3.80512 l -0.46753,2.9263 2.60007,-0.48271 c 1.43004,-0.26549 3.13927,-0.96667 3.79829,-1.55819 z M 21.843521,287.97233 c -1.809506,-1.26743 -2.106102,-4.9622 -0.398337,-4.9622 0.847168,0 0.996487,0.43423 0.684955,1.99189 -0.343891,1.71946 -0.171743,2.04877 1.258658,2.40778 0.942172,0.23647 2.084711,0.0609 2.648378,-0.40686 0.99921,-0.82926 1.348011,-4.9543 0.586683,-6.93828 -0.510677,-1.33081 -2.507558,-1.36523 -3.589249,-0.0619 -1.355563,1.63335 -2.006092,0.4844 -2.006092,-3.54311 v -3.8051 h 3.992593 c 3.868168,0 3.954593,0.038 2.773256,1.21933 -0.670634,0.67063 -2.167301,1.24629 -3.325925,1.27923 -1.818701,0.0517 -2.10659,0.30106 -2.10659,1.82458 0,1.61454 0.192965,1.74215 2.26802,1.4999 5.366935,-0.62656 7.24897,7.02431 2.350965,9.55717 -2.391987,1.23694 -3.29788,1.22593 -5.137315,-0.0625 z m 10.976663,-0.0594 c -0.943677,-0.9437 -0.409688,-2.23613 0.923882,-2.23613 0.931975,0 1.312004,0.36203 1.166667,1.11142 -0.237962,1.22698 -1.376001,1.83924 -2.090549,1.12469 z M 154.5439,286.84017 c 1.01678,-0.82318 3.71678,-4.61725 6,-8.43126 2.2832,-3.81402 4.45128,-6.96402 4.81795,-7 0.37064,-0.0364 0.99118,3.27293 1.39749,7.45279 0.5894,6.06338 0.97642,7.70409 2,8.4788 1.15751,0.87606 0.96123,0.96244 -2.23082,0.98178 -1.925,0.0117 -3.5,-0.2788 -3.5,-0.64546 0,-0.36667 0.45,-0.66667 1,-0.66667 0.66666,0 1,-0.66667 1,-2 0,-1.91815 -0.11964,-2 -2.92333,-2 -2.44001,0 -3.11824,0.29747 -4.10224,1.79925 -0.80549,1.22933 -0.93536,1.88044 -0.41001,2.05556 1.78938,0.59646 0.55536,1.47828 -2.06442,1.47521 l -2.83334,-0.003 1.84872,-1.4967 z m 9.81795,-8.16337 c 0,-1.65 -0.225,-2.99769 -0.5,-2.99487 -0.47825,0.005 -3.5,4.86297 -3.5,5.62695 0,0.20235 0.9,0.36792 2,0.36792 1.92593,0 2,-0.11112 2,-3 z m -3.33333,-30.96066 c 0,-9.92131 0.25226,-16.11656 0.66666,-16.37268 0.43754,-0.2704 0.66667,5.2153 0.66667,15.96066 0,10.47067 -0.24032,16.37268 -0.66667,16.37268 -0.42588,0 -0.66666,-5.76466 -0.66666,-15.96066 z M 22.361851,222.34346 c 0,-0.36666 0.45,-0.66666 1,-0.66666 0.555555,0 1,-0.5926 1,-1.33334 0,-1.1358 -0.444445,-1.33333 -3,-1.33333 -1.65,0 -3,-0.30249 -3,-0.67219 0,-0.92067 6.877224,-11.2941 7.5,-11.3128 0.275,-0.008 0.499999,2.39466 0.499999,5.3398 0,4.93006 0.118986,5.40265 1.5,5.95775 1.086806,0.43684 1.189466,0.61457 0.372678,0.64518 -1.912689,0.0717 -2.151526,1.49159 -0.468558,2.78558 l 1.59588,1.22703 -3.499999,0.0148 c -1.925,0.008 -3.5,-0.28515 -3.5,-0.65182 z m 2,-7.66666 c 0,-2.01667 -0.105158,-3.66667 -0.233683,-3.66667 -0.271328,0 -4.432984,6.61314 -4.432984,7.0443 0,0.15897 1.05,0.28903 2.333333,0.28903 h 2.333334 z m 7.791666,7.90278 c -0.943677,-0.94368 -0.409688,-2.23612 0.923883,-2.23612 0.931974,0 1.312003,0.36204 1.166666,1.11142 -0.237962,1.22699 -1.376001,1.83924 -2.090549,1.1247 z m 128.541663,-0.23612 c 0.22662,-0.36666 0.83276,-0.66666 1.34698,-0.66666 0.52005,0 1.22431,-1.10946 1.58696,-2.5 1.63681,-6.2761 2.73273,-10.7261 2.73273,-11.09623 0,-0.22208 -0.46771,-0.40377 -1.03935,-0.40377 -0.57164,0 -0.85393,-0.3 -0.62732,-0.66667 0.22761,-0.36827 3.22915,-0.66667 6.70602,-0.66667 h 6.29398 v 2.62732 c 0,1.44503 -0.3,2.81274 -0.66666,3.03935 -0.38694,0.23914 -0.66667,-0.41375 -0.66667,-1.55599 0,-2.23934 -0.90849,-2.77734 -4.68985,-2.77734 -2.4144,0 -2.62558,0.1612 -3.2751,2.5 -0.95808,3.44988 -0.94094,3.5 1.19641,3.5 1.29195,0 2.1482,-0.47903 2.68121,-1.5 0.67163,-1.28649 0.72872,-1.07298 0.40109,1.5 -0.41017,3.22115 -1.64709,5.32388 -1.64709,2.8 0,-1.17176 -0.38624,-1.46667 -1.92086,-1.46667 -1.71655,0 -2.00018,0.31503 -2.66667,2.96188 -0.41019,1.62903 -0.74581,3.12903 -0.74581,3.33333 0,0.50641 5.62906,0.47195 6.97014,-0.0427 0.59354,-0.22777 1.5402,-1.30565 2.10368,-2.39529 1.50299,-2.90647 2.00782,-1.66178 0.59592,1.46927 l -1.20557,2.67347 h -6.93809 c -4.45564,0 -6.79068,-0.23853 -6.52608,-0.66667 z m -3,-4 v -2.66666 h -6 c -3.55555,0 -6,-0.27161 -6,-0.66667 0,-0.4 2.66667,-0.66667 6.66667,-0.66667 h 6.66667 v 3.33334 c 0,1.83333 -0.3,3.33333 -0.66667,3.33333 -0.36667,0 -0.66667,-1.2 -0.66667,-2.66667 z M 95.384678,199.30509 c -4.12132,-4.44697 -4.577169,-13.58298 -0.96216,-19.28326 2.4589,-3.87729 3.87742,-3.94774 1.61078,-0.08 -3.08168,5.25848 -3.05309,13.51294 0.0627,18.10431 2.04718,3.0167 1.61939,3.77383 -0.71132,1.25895 z m 84.977172,1.41128 c 0,-0.27523 0.61392,-1.36259 1.36427,-2.41636 2.17374,-3.05274 3.06072,-8.57531 2.1077,-13.12321 -0.44181,-2.10834 -1.40374,-4.64619 -2.13763,-5.63968 -1.57066,-2.12625 -1.66618,-2.61248 -0.41919,-2.13397 0.50332,0.19315 1.70332,1.79933 2.66666,3.56929 3.20693,5.8922 2.15529,15.05584 -2.17754,18.97435 -0.77235,0.69849 -1.40427,1.04481 -1.40427,0.76958 z M 20.664881,194.04043 c -1.892572,-1.89257 -2.06544,-2.90749 -0.591552,-3.47308 1.50468,-0.5774 2.710534,0.79767 1.732718,1.97587 -0.935469,1.12716 -0.362093,1.80024 1.533582,1.80024 1.991548,0 3.022221,-1.25044 3.022221,-3.66666 0,-2.38846 -1.021594,-3.65809 -2.966666,-3.68694 -1.357707,-0.0201 -1.357925,-0.0251 -0.03333,-0.74955 2.908738,-1.59096 3.708383,-3.75989 2.011727,-5.45655 -1.542279,-1.54228 -3.541277,-0.69024 -3.152468,1.34369 0.257694,1.34803 0.08294,1.63568 -0.880291,1.44897 -1.770819,-0.34325 -1.913713,-1.63154 -0.353968,-3.19129 1.492127,-1.49213 4.041113,-1.779 6.085493,-0.68488 1.606504,0.85978 1.722237,4.11525 0.2004,5.63708 -1.007697,1.0077 -0.982781,1.16358 0.333334,2.08542 2.109284,1.47741 1.933716,5.08843 -0.334134,6.87233 -2.33017,1.83291 -4.607269,1.74515 -6.607063,-0.25465 z M 143.399,188.65549 c -1.72373,-3.86172 -2.99826,-7.38672 -2.83228,-7.83333 0.29909,-0.80484 5.79513,10.31124 5.79513,11.72102 0,1.39936 1.10045,-0.51648 3.6679,-6.38567 1.40811,-3.21894 2.80761,-5.60521 3.10999,-5.30282 0.55039,0.55039 -5.41122,14.81939 -6.19229,14.82117 -0.22793,5.2e-4 -1.82473,-3.15865 -3.54845,-7.02037 z m 21.86752,6.36025 c -3.70377,-1.49465 -4.76424,-7.37162 -2.05547,-11.39116 2.94126,-4.36454 8.66962,-6.61914 11.79511,-4.64238 0.62212,0.39347 1.29468,0.35521 1.84944,-0.1052 1.39044,-1.15396 1.62322,-0.25516 0.79046,3.05204 -0.87654,3.48106 -1.95088,4.08487 -1.95088,1.09646 0,-2.49702 -2.40225,-4.27446 -4.92222,-3.64199 -4.05306,1.01726 -7.84674,8.18397 -6.3776,12.04808 0.87627,2.30477 1.72842,2.88845 4.23638,2.90167 1.40304,0.007 2.64278,-0.73219 4.5,-2.68454 2.78882,-2.93164 3.1922,-2.9087 1.42607,0.0811 -1.86826,3.16272 -5.98705,4.61934 -9.29129,3.28592 z m 32.13248,-6.36025 c -1.72373,-3.86172 -2.99826,-7.38672 -2.83228,-7.83333 0.29909,-0.80484 5.79513,10.31124 5.79513,11.72102 0,1.39936 1.10045,-0.51648 3.6679,-6.38567 1.4081,-3.21894 2.8076,-5.60521 3.10999,-5.30282 0.55039,0.55039 -5.41122,14.81939 -6.19229,14.82117 -0.22793,5.2e-4 -1.82473,-3.15865 -3.54845,-7.02037 z m -165.245483,5.92409 c -0.943677,-0.94368 -0.409688,-2.23612 0.923883,-2.23612 0.931974,0 1.312003,0.36204 1.166666,1.11142 -0.237962,1.22699 -1.376001,1.83924 -2.090549,1.1247 z m 83.833523,-0.16901 c 0.24942,-0.40357 0.87423,-0.73377 1.38846,-0.73377 0.52004,0 1.2243,-1.10946 1.58696,-2.5 1.6368,-6.2761 2.73272,-10.7261 2.73272,-11.09623 0,-0.22208 -0.45,-0.40377 -1,-0.40377 -0.55,0 -1,-0.3 -1,-0.66667 0,-0.96724 9.34491,-0.80898 11.33334,0.19194 2.54064,1.27889 2.56602,4.01633 0.0545,5.87322 -1.96745,1.4546 -1.98739,1.52294 -0.7062,2.42032 1.81974,1.27459 1.6496,3.63743 -0.40072,5.56498 -1.52419,1.43293 -2.44056,1.64272 -8.08082,1.84998 -4.51062,0.16575 -6.22972,0.0203 -5.90818,-0.5 z m 11.74853,-2.10749 c 0.86866,-0.86866 1.29759,-2.03291 1.16667,-3.16667 -0.18794,-1.62743 -0.4956,-1.81155 -3.33276,-1.99447 -3.10605,-0.20025 -3.13014,-0.18558 -3.82962,2.33334 -1.09549,3.94497 -0.9761,4.20152 1.95532,4.20152 1.80391,0 3.11112,-0.44445 4.04039,-1.37372 z m 1.49117,-7.81458 c 0.70444,-0.63227 1.11654,-1.77663 1,-2.77692 -0.16936,-1.45368 -0.57507,-1.73234 -2.78608,-1.9136 -3.16325,-0.25932 -3.55248,0.098 -4.14476,3.80512 l -0.46752,2.9263 2.60006,-0.48271 c 1.43004,-0.26549 3.13928,-0.96667 3.7983,-1.55819 z m 86.13511,9.85496 c 0.22661,-0.36666 0.83275,-0.66666 1.34698,-0.66666 0.52004,0 1.2243,-1.10946 1.58696,-2.5 1.6368,-6.2761 2.73272,-10.7261 2.73272,-11.09623 0,-0.22208 -0.4677,-0.40377 -1.03934,-0.40377 -0.57164,0 -0.85394,-0.3 -0.62732,-0.66667 0.2276,-0.36827 3.22914,-0.66667 6.70601,-0.66667 h 6.29399 v 2.62732 c 0,1.44503 -0.3,2.81274 -0.66667,3.03935 -0.38694,0.23914 -0.66667,-0.41375 -0.66667,-1.55599 0,-2.23934 -0.90848,-2.77734 -4.68985,-2.77734 -2.41439,0 -2.62557,0.1612 -3.27509,2.5 -0.95808,3.44988 -0.94095,3.5 1.1964,3.5 1.29196,0 2.1482,-0.47903 2.68122,-1.5 0.67162,-1.28649 0.72871,-1.07298 0.40108,1.5 -0.41016,3.22115 -1.64709,5.32388 -1.64709,2.8 0,-1.17176 -0.38623,-1.46667 -1.92086,-1.46667 -1.71655,0 -2.00018,0.31503 -2.66667,2.96188 -0.41019,1.62903 -0.7458,3.12903 -0.7458,3.33333 0,0.50641 5.62906,0.47195 6.97013,-0.0427 0.59355,-0.22776 1.54021,-1.30564 2.10368,-2.39528 1.50299,-2.90648 2.00783,-1.66178 0.59592,1.46927 l -1.20557,2.67347 h -6.93809 c -4.45563,0 -6.79067,-0.23854 -6.52607,-0.66667 z m -103,-4 v -2.66666 h -6 c -3.55555,0 -6,-0.27161 -6,-0.66667 0,-0.4 2.66667,-0.66667 6.66667,-0.66667 h 6.66666 v 3.33334 c 0,1.83333 -0.3,3.33333 -0.66666,3.33333 -0.36667,0 -0.66667,-1.2 -0.66667,-2.66667 z m 7.02283,-19.70504 c -4.12132,-4.44697 -4.57717,-13.58297 -0.96216,-19.28326 2.4589,-3.87729 3.87742,-3.94774 1.61078,-0.08 -3.08168,5.25849 -3.05309,13.51295 0.0627,18.10431 2.04718,3.0167 1.61939,3.77384 -0.71132,1.25896 z m 70.3105,1.41128 c 0,-0.27522 0.61392,-1.36258 1.36428,-2.41636 2.17374,-3.05273 3.06071,-8.57531 2.10769,-13.12321 -0.44181,-2.10833 -1.40373,-4.64618 -2.13763,-5.63967 -1.57066,-2.12625 -1.66618,-2.61249 -0.41919,-2.13398 0.50333,0.19315 1.70333,1.79933 2.66667,3.5693 3.20692,5.89219 2.15528,15.05583 -2.17754,18.97434 -0.77236,0.6985 -1.40428,1.04481 -1.40428,0.76958 z m -61.762,-5.70062 c -3.70376,-1.49466 -4.76423,-7.37163 -2.05546,-11.39116 2.94126,-4.36454 8.66962,-6.61914 11.7951,-4.64238 0.62212,0.39346 1.29468,0.3552 1.84945,-0.10521 1.39043,-1.15396 1.62322,-0.25516 0.79045,3.05204 -0.87654,3.48106 -1.95087,4.08488 -1.95087,1.09646 0,-2.49701 -2.40225,-4.27446 -4.92222,-3.64198 -4.05307,1.01725 -7.84674,8.18396 -6.37761,12.04808 0.87628,2.30477 1.72843,2.88844 4.23639,2.90166 1.40304,0.007 2.64277,-0.73219 4.5,-2.68453 2.78881,-2.93165 3.19219,-2.90871 1.42607,0.0811 -1.86826,3.16271 -5.98705,4.61934 -9.2913,3.28591 z m 23.46582,-6.36026 c -1.72373,-3.86172 -2.99826,-7.38672 -2.83228,-7.83333 0.29909,-0.80483 5.79513,10.31125 5.79513,11.72102 0,1.39937 1.10045,-0.51648 3.6679,-6.38566 1.40811,-3.21894 2.80761,-5.60521 3.10999,-5.30283 0.55039,0.55039 -5.41122,14.8194 -6.19229,14.82117 -0.22793,5.2e-4 -1.82473,-3.15865 -3.54845,-7.02037 z m 57.29526,4.07989 c -0.97299,-1.66029 -1.57812,-3.32768 -1.34473,-3.70531 0.76576,-1.23903 2.11641,-0.72001 2.9633,1.13872 l 0.83168,1.82533 1.61961,-3.4077 c 1.72399,-3.62731 7.80863,-10.24295 9.42081,-10.24295 0.53128,0 -0.43088,1.35757 -2.13813,3.01682 -1.92745,1.87327 -3.86419,4.71622 -5.10934,7.5 -3.57104,7.98383 -3.76483,8.10411 -6.2432,3.87509 z m -188.999076,1.64688 c 0,-0.34533 1.5,-2.34201 3.333333,-4.43706 2.485669,-2.84051 3.333333,-4.34227 3.333333,-5.90546 0,-2.47019 -1.026297,-3.69627 -3.093988,-3.69627 -1.864415,0 -2.601533,1.09364 -1.572678,2.33333 0.906005,1.09167 0.352927,2.33333 -1.039345,2.33333 -0.618837,0 -0.960655,-0.69818 -0.960655,-1.96219 0,-3.78154 5.145338,-5.40979 7.88379,-2.49484 2.377148,2.53036 1.879584,4.74881 -1.980495,8.83027 l -3.430038,3.62676 h 2.661495 c 2.101277,0 2.813768,-0.31573 3.384918,-1.5 l 0.723422,-1.5 0.04512,1.44548 c 0.09721,3.11421 -0.525402,3.55452 -5.026205,3.55452 -2.344104,0 -4.262007,-0.28254 -4.262007,-0.62787 z m 12.458333,0.19732 c -0.943677,-0.94368 -0.409688,-2.23611 0.923883,-2.23611 0.931974,0 1.312003,0.36203 1.166666,1.11142 -0.237962,1.22699 -1.376001,1.83924 -2.090549,1.12469 z M 168.69518,165.6768 c 0.22662,-0.36667 0.83276,-0.66667 1.34698,-0.66667 0.52005,0 1.22431,-1.10945 1.58696,-2.5 1.63681,-6.2761 2.73273,-10.72609 2.73273,-11.09623 0,-0.22207 -0.45,-0.40377 -1,-0.40377 -0.55,0 -1,-0.33078 -1,-0.73508 0,-0.49631 1.83466,-0.65872 5.6484,-0.5 6.43678,0.26789 8.13613,1.29294 8.74489,5.27493 0.46199,3.02191 -1.96178,7.77444 -4.99188,9.7881 -1.90184,1.26387 -3.16486,1.50538 -7.87268,1.50538 -3.56852,0 -5.4576,-0.2424 -5.1954,-0.66666 z m 11.99088,-2.11194 c 3.52262,-2.77089 4.88124,-9.25717 2.40785,-11.49555 -0.8486,-0.76797 -2.10357,-1.07774 -3.79465,-0.93665 -2.52396,0.21057 -2.52796,0.21571 -3.65581,4.69981 -0.621,2.46895 -1.32699,5.54395 -1.56889,6.83333 l -0.4398,2.34433 h 2.60698 c 1.6648,0 3.27099,-0.52232 4.44432,-1.44527 z m -68.99088,-1.88806 v -2.66667 h -6 c -3.55555,0 -6.000002,-0.2716 -6.000002,-0.66667 0,-0.4 2.666672,-0.66666 6.666672,-0.66666 h 6.66667 v 3.33333 c 0,1.83333 -0.3,3.33333 -0.66667,3.33333 -0.36667,0 -0.66667,-1.2 -0.66667,-2.66666 z m 28.89196,-23.30719 c -2.78568,-1.1721 -2.64814,-4.23017 0.3107,-6.90788 1.03776,-0.93916 1.25074,-1.7624 0.97937,-3.78561 -0.46929,-3.4988 0.2088,-5.82192 1.85151,-6.3433 3.08789,-0.98006 4.36142,2.81453 1.96646,5.85923 -1.69472,2.15449 -1.68183,2.32904 0.39794,5.38969 l 1.73126,2.54778 1.60207,-2.35766 c 1.70757,-2.51291 2.0181,-3.76173 0.9354,-3.76173 -0.36667,0 -0.66667,-0.3 -0.66667,-0.66667 0,-0.36666 1.2,-0.66666 2.66667,-0.66666 2.73116,0 3.62972,0.92598 1.45134,1.49564 -0.66843,0.17479 -2.04104,1.7268 -3.05025,3.44889 -1.46593,2.50141 -1.67434,3.32457 -1.03638,4.09327 1.16954,1.40921 2.99074,1.17521 4.18568,-0.5378 0.57548,-0.825 1.06208,-1.125 1.08131,-0.66667 0.0193,0.45833 -0.59103,1.45933 -1.35614,2.22444 -1.06413,1.06413 -1.80845,1.27278 -3.16667,0.88769 -2.10498,-0.59682 -3.73013,-0.61085 -6.44222,-0.0556 -1.1,0.22519 -2.64862,0.13653 -3.44138,-0.19703 z m 5.00798,-1.28352 c 0.71158,-0.45095 0.48793,-1.13904 -1.06864,-3.28783 -2.14269,-2.9579 -3.49796,-2.74666 -3.49796,0.5452 0,2.82976 2.27398,4.19548 4.5666,2.74263 z m 0.10006,-12.82426 c 0,-1.22066 -0.34735,-1.91837 -0.95507,-1.91837 -1.19215,0 -1.94374,2.21833 -1.36712,4.0351 0.62088,1.95622 2.32219,0.40543 2.32219,-2.11673 z m 44.99908,11.80688 c -0.97299,-1.66029 -1.57812,-3.32768 -1.34473,-3.70531 0.76576,-1.23903 2.11641,-0.72 2.96331,1.13872 l 0.83167,1.82533 1.61961,-3.40769 c 1.72399,-3.62732 7.80864,-10.24296 9.42081,-10.24296 0.53128,0 -0.43088,1.35757 -2.13813,3.01682 -1.92745,1.87327 -3.86419,4.71622 -5.10934,7.5 -3.57104,7.98383 -3.76482,8.10411 -6.2432,3.87509 z m -170.999076,1.92492 c 0,-0.19241 0.75,-0.63498 1.666667,-0.9835 1.608208,-0.61144 1.666666,-0.84514 1.666666,-6.66287 v -6.0292 l -1.666666,0.41831 c -0.938684,0.23559 -1.666667,0.12949 -1.666667,-0.24292 0,-0.36367 0.675,-0.80761 1.5,-0.98654 0.825,-0.17892 2.025,-0.54599 2.666667,-0.81571 1.070519,-0.44997 1.166666,0.11984 1.166666,6.91427 0,6.96022 0.08003,7.40466 1.333333,7.40466 0.733334,0 1.333334,0.3 1.333334,0.66667 0,0.37037 -1.777778,0.66666 -4,0.66666 -2.2,0 -4,-0.15742 -4,-0.34983 z m 12.458333,-0.0807 c -0.943677,-0.94368 -0.409688,-2.23611 0.923883,-2.23611 0.931974,0 1.312003,0.36203 1.166666,1.11142 -0.237962,1.22699 -1.376001,1.83924 -2.090549,1.12469 z m 86.390383,-1.07276 c 1.01678,-0.82317 3.71678,-4.61724 6,-8.43126 2.2832,-3.81402 4.45128,-6.96402 4.81795,-7 0.37064,-0.0364 0.99118,3.27294 1.39749,7.45279 0.5894,6.06338 0.97642,7.70409 2,8.4788 1.15751,0.87606 0.96123,0.96245 -2.23082,0.98178 -1.925,0.0117 -3.5,-0.27879 -3.5,-0.64546 0,-0.36667 0.45,-0.66667 1,-0.66667 0.66666,0 1,-0.66666 1,-2 0,-1.91815 -0.11964,-2 -2.92333,-2 -2.44001,0 -3.11824,0.29748 -4.10224,1.79925 -0.80549,1.22933 -0.93536,1.88044 -0.41001,2.05556 1.78938,0.59646 0.55536,1.47828 -2.06442,1.47521 l -2.83334,-0.003 1.84872,-1.49668 z m 9.81795,-8.16335 c 0,-1.65 -0.225,-2.99769 -0.5,-2.99487 -0.47825,0.005 -3.5,4.86297 -3.5,5.62695 0,0.20235 0.9,0.36792 2,0.36792 1.92593,0 2,-0.11111 2,-3 z m 32.95853,9.06711 c 0.24942,-0.40358 0.87422,-0.73378 1.38845,-0.73378 0.52005,0 1.22431,-1.10945 1.58696,-2.5 1.63681,-6.2761 2.73273,-10.72609 2.73273,-11.09623 0,-0.22207 -0.45,-0.40377 -1,-0.40377 -0.55,0 -1,-0.3 -1,-0.66667 0,-0.96724 9.3449,-0.80897 11.33333,0.19195 2.54065,1.27889 2.56603,4.01632 0.0545,5.87321 -1.96746,1.4546 -1.9874,1.52295 -0.7062,2.42033 1.81973,1.27459 1.64959,3.63742 -0.40072,5.56497 -1.5242,1.43293 -2.44057,1.64272 -8.08082,1.84999 -4.51063,0.16575 -6.22973,0.0203 -5.90818,-0.5 z m 11.74852,-2.1075 c 0.86866,-0.86866 1.2976,-2.0329 1.16667,-3.16666 -0.18794,-1.62744 -0.49559,-1.81155 -3.33276,-1.99447 -3.10605,-0.20026 -3.13013,-0.18558 -3.82961,2.33333 -1.0955,3.94498 -0.9761,4.20152 1.95532,4.20152 1.8039,0 3.11111,-0.44444 4.04038,-1.37372 z m 1.49117,-7.81457 c 0.70444,-0.63227 1.11654,-1.77663 1,-2.77692 -0.16935,-1.45369 -0.57507,-1.73235 -2.78607,-1.9136 -3.16326,-0.25932 -3.55249,0.098 -4.14476,3.80511 l -0.46753,2.9263 2.60007,-0.48271 c 1.43004,-0.26549 3.13927,-0.96667 3.79829,-1.55818 z"
       id="path352" />
  </g>
</svg>
