<?xml version="1.0" encoding="UTF-8" standalone="no"?>
<svg
   xmlns:dc="http://purl.org/dc/elements/1.1/"
   xmlns:cc="http://creativecommons.org/ns#"
   xmlns:rdf="http://www.w3.org/1999/02/22-rdf-syntax-ns#"
   xmlns:svg="http://www.w3.org/2000/svg"
   xmlns="http://www.w3.org/2000/svg"
   xmlns:sodipodi="http://sodipodi.sourceforge.net/DTD/sodipodi-0.dtd"
   xmlns:inkscape="http://www.inkscape.org/namespaces/inkscape"
   version="1.1"
   id="svg504"
   width="255.30269"
   height="448.48303"
   viewBox="0 0 255.30269 448.48303"
   sodipodi:docname="5-2-example-5.svg"
   inkscape:version="1.0.1 (c497b03c, 2020-09-10)">
  <metadata
     id="metadata510">
    <rdf:RDF>
      <cc:Work
         rdf:about="">
        <dc:format>image/svg+xml</dc:format>
        <dc:type
           rdf:resource="http://purl.org/dc/dcmitype/StillImage" />
        <dc:title></dc:title>
      </cc:Work>
    </rdf:RDF>
  </metadata>
  <defs
     id="defs508" />
  <sodipodi:namedview
     pagecolor="#ffffff"
     bordercolor="#666666"
     borderopacity="1"
     objecttolerance="10"
     gridtolerance="10"
     guidetolerance="10"
     inkscape:pageopacity="0"
     inkscape:pageshadow="2"
     inkscape:window-width="740"
     inkscape:window-height="480"
     id="namedview506"
     showgrid="false"
     fit-margin-top="0"
     fit-margin-left="0"
     fit-margin-right="0"
     fit-margin-bottom="0"
     inkscape:pagecheckerboard="true"
     inkscape:zoom="0.49424478"
     inkscape:cx="282.49834"
     inkscape:cy="238.13279"
     inkscape:window-x="0"
     inkscape:window-y="25"
     inkscape:window-maximized="0"
     inkscape:current-layer="g512" />
  <g
     inkscape:groupmode="layer"
     inkscape:label="Image"
     id="g512"
     transform="translate(162.85583,-14.141944)">
    <path
       style="fill:#1b1b1b;stroke-width:0.666667"
       d="m -73.522493,462.17149 c 0,-0.25954 1.11089,-1.60954 2.46863,-3 l 2.46864,-2.52811 -2.59199,-2.65442 c -3.38165,-3.46313 -2.46283,-4.38194 1.00029,-1.0003 l 2.65443,2.59199 2.66667,-2.60393 c 3.16234,-3.08794 3.65189,-1.74664 0.53588,1.46826 l -2.13077,2.1984 2.13077,2.19841 c 3.11601,3.21489 2.62646,4.5562 -0.53588,1.46826 l -2.66667,-2.60393 -2.52811,2.46863 c -2.44671,2.38915 -3.47189,2.97875 -3.47189,1.99674 z m 59.33333,0 c 0,-0.25954 1.11089,-1.60954 2.46864,-3 l 2.4686303,-2.52811 -2.5919903,-2.65442 c -3.38164,-3.46313 -2.46283,-4.38194 1.0003,-1.0003 l 2.6544203,2.59199 2.66667,-2.60393 c 3.16234,-3.08794 3.65189,-1.74664 0.53589,1.46826 l -2.13078,2.1984 2.13078,2.19841 c 3.116,3.21489 2.62645,4.5562 -0.53589,1.46826 l -2.66667,-2.60393 -2.5281003,2.46863 c -2.44672,2.38915 -3.4719,2.97875 -3.4719,1.99674 z M -149.06117,433.29162 c -2.97985,-2.34395 -3.22661,-11.21628 -0.39081,-14.05208 1.64013,-1.64014 4.73777,-1.61465 6.24551,0.0514 2.71435,2.99931 2.50704,11.86719 -0.33114,14.16541 -1.90726,1.54441 -3.40763,1.49967 -5.52356,-0.16472 z m 4.84855,-1.27108 c 1.09661,-2.04902 0.85917,-10.17246 -0.34768,-11.89548 -1.23021,-1.75638 -1.84361,-1.83835 -3.24791,-0.43406 -1.30803,1.30804 -1.50608,11.56059 -0.24762,12.81905 1.20124,1.20124 3.06543,0.9638 3.84321,-0.48951 z m 131.594797,1.96179 c -3.70377,-1.49465 -4.76424,-7.37163 -2.05547,-11.39116 2.94126,-4.36454 8.6696203,-6.61914 11.7951103,-4.64238 0.62212,0.39347 1.29468,0.35521 1.84944,-0.10521 1.39044,-1.15396 1.62322,-0.25516 0.79046,3.05204 -0.90425,3.5911 -1.7784,3.98503 -2.0753,0.93523 -0.14383,-1.47738 -0.73828,-2.44151 -1.9082,-3.09489 -3.35839,-1.8756 -8.1715803,2.17075 -9.5492203,8.02782 -0.45561,1.93706 0.51842,5.21382 1.79022,6.0225 2.0363103,1.29479 4.6892603,0.49798 7.2281803,-2.17097 2.78882,-2.93165 3.1922,-2.90871 1.42607,0.0811 -1.86826,3.16271 -5.98705,4.61934 -9.2912903,3.28591 z m -149.571337,-0.35545 c 0,-0.1924 0.75,-0.63498 1.66666,-0.9835 1.60821,-0.61144 1.66667,-0.84514 1.66667,-6.66286 v -6.0292 l -1.66667,0.4183 c -0.93868,0.2356 -1.66666,0.12949 -1.66666,-0.24291 0,-0.36367 0.675,-0.80762 1.5,-0.98655 0.825,-0.17892 2.025,-0.54599 2.66666,-0.8157 1.07052,-0.44998 1.16667,0.11984 1.16667,6.91426 0,6.96022 0.08,7.40466 1.33333,7.40466 0.73334,0 1.33334,0.3 1.33334,0.66667 0,0.37037 -1.77778,0.66667 -4,0.66667 -2.2,0 -4,-0.15743 -4,-0.34984 z m 24.45833,-0.0807 c -0.94367,-0.94368 -0.40969,-2.23611 0.92388,-2.23611 0.93198,0 1.31201,0.36203 1.16667,1.11142 -0.23796,1.22699 -1.376,1.83924 -2.09055,1.12469 z m 69.166867,-0.169 c 0.24942,-0.40358 0.87422,-0.73378 1.38845,-0.73378 0.52005,0 1.22431,-1.10945 1.58696,-2.5 1.63681,-6.2761 2.73273,-10.72609 2.73273,-11.09622 0,-0.22208 -0.45,-0.40378 -1,-0.40378 -0.55,0 -1,-0.3 -1,-0.66666 0,-0.96724 9.3449,-0.80898 11.33333,0.19194 2.54065,1.27889 2.56603,4.01632 0.0545,5.87322 -1.96746,1.4546 -1.9874,1.52294 -0.7062,2.42032 1.81973,1.27459 1.64959,3.63742 -0.40072,5.56498 -1.5242,1.43292 -2.44057,1.64272 -8.08082,1.84998 -4.51063,0.16575 -6.22973,0.0203 -5.90818,-0.5 z m 11.74852,-2.1075 c 0.86866,-0.86866 1.2976,-2.0329 1.16667,-3.16666 -0.18794,-1.62744 -0.49559,-1.81155 -3.33276,-1.99447 -3.10605,-0.20025 -3.13013,-0.18558 -3.82961,2.33333 -1.0955,3.94498 -0.9761,4.20152 1.95532,4.20152 1.8039,0 3.11111,-0.44444 4.04038,-1.37372 z m 1.49117,-7.81457 c 0.70444,-0.63227 1.11654,-1.77663 1,-2.77692 -0.16935,-1.45369 -0.57507,-1.73235 -2.78607,-1.9136 -3.16326,-0.25932 -3.55249,0.098 -4.14476,3.80511 l -0.46753,2.9263 2.60007,-0.4827 c 1.43004,-0.2655 3.13927,-0.96668 3.79829,-1.55819 z m -16.19822,5.85496 v -2.66667 h -6 c -3.55555,0 -6,-0.2716 -6,-0.66666 0,-0.4 2.66667,-0.66667 6.66667,-0.66667 h 6.66666 v 3.33333 c 0,1.83334 -0.3,3.33334 -0.66666,3.33334 -0.36667,0 -0.66667,-1.2 -0.66667,-2.66667 z m 5.06334,-21.47191 c 7.01667,-8.13226 28.54044,-31.21235 28.96499,-31.05936 0.98102,0.35351 29.4715003,31.92032 29.1235703,32.26826 -0.18557,0.18557 -6.7274503,-6.65434 -14.5375203,-15.1998 -7.81006,-8.54545 -14.40033,-15.62286 -14.64505,-15.72757 -0.24472,-0.10471 -6.86292,6.86932 -14.70714,15.49784 -7.8442,8.62852 -14.53368,15.68919 -14.86552,15.69038 -0.33182,0.001 -0.0318,-0.6602 0.66667,-1.46975 z m 118.26999,-11 c 0,-0.25954 1.11089,-1.60954 2.46864,-3 l 2.46863,-2.52811 -2.59199,-2.65443 c -3.38164,-3.46312 -2.46283,-4.38194 1.0003,-1.00029 l 2.65443,2.59199 2.66666,-2.60394 c 3.16234,-3.08794 3.6519,-1.74663 0.53589,1.46826 l -2.13077,2.19841 2.13077,2.19841 c 3.11601,3.21489 2.62645,4.5562 -0.53589,1.46826 l -2.66666,-2.60394 -2.52811,2.46864 c -2.44672,2.38914 -3.4719,2.97874 -3.4719,1.99674 z M -160.50464,368.23267 c -1.29264,-1.29265 -1.02148,-2.50256 0.63273,-2.8232 0.93807,-0.18183 1.12521,0.0779 0.8405,1.16666 -0.26379,1.00874 -0.0573,1.39773 0.73799,1.39038 1.66459,-0.0154 2.61232,-0.81918 3.39588,-2.8801 0.97115,-2.5543 0.93389,-3.60188 -0.0916,-2.57636 -1.17734,1.17734 -4.17053,0.97327 -5.37806,-0.36667 -2.40943,-2.67361 -1.70558,-7.96786 1.20793,-9.08588 4.23163,-1.62383 6.97013,1.143 6.97013,7.04223 0,4.57097 -1.17828,7.28856 -3.64803,8.41386 -2.34092,1.06659 -3.38262,1.0039 -4.66744,-0.28092 z m 4.89656,-6.48616 c 2.17183,-2.6169 0.99511,-8.34012 -1.61807,-7.86983 -1.70682,0.30717 -2.27374,1.29345 -2.28614,3.97719 -0.0183,3.97085 2.09258,6.07551 3.90421,3.89264 z m 108.470797,0.57523 c -1.73183,-3.87987 -3.01298,-7.41972 -2.84701,-7.86633 0.29909,-0.80484 5.79513,10.31124 5.79513,11.72102 0,1.50218 1.24228,-0.65336 3.69094,-6.40431 1.41459,-3.32235 2.75128,-5.61985 3.07898,-5.29215 0.55456,0.55455 -4.58785,12.91468 -5.93262,14.25944 -0.4044,0.40441 -1.78524,-1.93661 -3.78542,-6.41767 z m 21.18612,6.32725 c -3.70376,-1.49465 -4.76423,-7.37162 -2.05546,-11.39116 2.94126,-4.36454 8.66962,-6.61914 11.7951,-4.64238 0.62212,0.39347 1.29468,0.35521 1.84945,-0.1052 1.39043,-1.15396 1.62322,-0.25516 0.79045,3.05204 -0.90424,3.5911 -1.77839,3.98502 -2.0753,0.93522 -0.14382,-1.47738 -0.73827,-2.44151 -1.90819,-3.09489 -3.35839,-1.87559 -8.17159,2.17075 -9.54923,8.02783 -0.4556,1.93705 0.51843,5.21381 1.79022,6.02249 2.03632,1.29479 4.68927,0.49799 7.22819,-2.17097 2.78881,-2.93164 3.19219,-2.9087 1.42607,0.0811 -1.86826,3.16271 -5.98705,4.61934 -9.2913,3.28591 z m 25.4277503,-2.28037 c -0.97299,-1.66029 -1.57812,-3.32767 -1.34473,-3.70531 0.76576,-1.23902 2.11641,-0.72 2.9633,1.13873 l 0.83168,1.82533 1.61961,-3.4077 c 1.72399,-3.62731 7.8086297,-10.24296 9.4208097,-10.24296 0.53128,0 -0.43088,1.35758 -2.13813,3.01682 -1.9274497,1.87328 -3.8641897,4.71622 -5.1093397,7.5 -3.57104,7.98383 -3.76483,8.10412 -6.2432,3.87509 z m -147.8740773,1.84421 c -0.94368,-0.94368 -0.40969,-2.23612 0.92388,-2.23612 0.93197,0 1.312,0.36204 1.16666,1.11142 -0.23796,1.22699 -1.376,1.83924 -2.09054,1.1247 z m 73.166857,-0.16901 c 0.24942,-0.40357 0.87423,-0.73377 1.38845,-0.73377 0.52005,0 1.22431,-1.10946 1.58696,-2.5 1.63681,-6.2761 2.73273,-10.7261 2.73273,-11.09623 0,-0.22208 -0.45,-0.40377 -1,-0.40377 -0.55,0 -1,-0.3 -1,-0.66667 0,-0.96724 9.34491,-0.80898 11.33333,0.19194 2.54065,1.27889 2.56603,4.01633 0.0545,5.87322 -1.96745,1.4546 -1.98739,1.52294 -0.7062,2.42032 1.81973,1.27459 1.64959,3.63743 -0.40072,5.56498 -1.52419,1.43293 -2.44057,1.64272 -8.08082,1.84998 -4.51063,0.16575 -6.22973,0.0203 -5.90818,-0.5 z m 11.74853,-2.10749 c 0.86866,-0.86866 1.29759,-2.03291 1.16666,-3.16667 -0.18794,-1.62743 -0.49559,-1.81155 -3.33276,-1.99447 -3.10604,-0.20025 -3.13013,-0.18558 -3.82961,2.33334 -1.09549,3.94497 -0.9761,4.20152 1.95532,4.20152 1.80391,0 3.11111,-0.44445 4.04039,-1.37372 z m 1.49116,-7.81458 c 0.70444,-0.63227 1.11654,-1.77663 1,-2.77692 -0.16935,-1.45368 -0.57506,-1.73234 -2.78607,-1.9136 -3.16325,-0.25932 -3.55249,0.098 -4.14476,3.80512 l -0.46753,2.9263 2.60007,-0.48271 c 1.43004,-0.26549 3.13927,-0.96667 3.79829,-1.55819 z m 110.80178,9.85496 c 0.22662,-0.36666 0.83276,-0.66666 1.34698,-0.66666 0.52005,0 1.22431,-1.10946 1.58696,-2.5 1.63681,-6.2761 2.73273,-10.7261 2.73273,-11.09623 0,-0.22208 -0.46771,-0.40377 -1.03935,-0.40377 -0.57164,0 -0.85393,-0.3 -0.62732,-0.66667 0.22761,-0.36827 3.22915,-0.66667 6.70602,-0.66667 h 6.29399 v 2.62732 c 0,1.44503 -0.3,2.81274 -0.66667,3.03935 -0.38694,0.23914 -0.66667,-0.41375 -0.66667,-1.55599 0,-2.23934 -0.90848,-2.77734 -4.68985,-2.77734 -2.41439,0 -2.62557,0.1612 -3.2751,2.5 -0.95808,3.44988 -0.94094,3.5 1.19641,3.5 1.29196,0 2.1482,-0.47903 2.68122,-1.5 0.67162,-1.28649 0.72871,-1.07298 0.40108,1.5 -0.41016,3.22115 -1.64709,5.32388 -1.64709,2.8 0,-1.17176 -0.38623,-1.46667 -1.92086,-1.46667 -1.71655,0 -2.00018,0.31503 -2.66667,2.96188 -0.41019,1.62903 -0.74581,3.12903 -0.74581,3.33333 0,0.50641 5.62907,0.47195 6.97014,-0.0427 0.59355,-0.22777 1.54021,-1.30565 2.10368,-2.39529 1.50299,-2.90647 2.00783,-1.66178 0.59592,1.46927 l -1.20557,2.67347 h -6.93809 c -4.45564,0 -6.79068,-0.23853 -6.52608,-0.66667 z m -127,-4 v -2.66666 h -6 c -3.55555,0 -6,-0.27161 -6,-0.66667 0,-0.4 2.66667,-0.66667 6.66667,-0.66667 h 6.66667 v 3.33334 c 0,1.83333 -0.3,3.33333 -0.66667,3.33333 -0.36667,0 -0.66667,-1.2 -0.66667,-2.66667 z m 112.33334,-35.3526 c -12.83334,-8.77153 -23.64701,-15.95554 -24.03039,-15.96448 -0.3833797,-0.009 -11.1539697,7.03816 -23.93464,15.66022 -12.78067,8.62206 -23.392,15.52206 -23.58073,15.33334 -0.18872,-0.18873 -0.21813,-0.44787 -0.0653,-0.57587 1.05406,-0.88311 46.4409303,-31.32527 47.0664803,-31.56872 0.8816697,-0.34314 48.2112797,31.60041 48.2112797,32.53863 0,0.32788 -0.075,0.58016 -0.16667,0.56063 -0.0917,-0.0195 -10.66667,-7.21223 -23.5,-15.98375 z M -160.5528,302.34035 c -1.99513,-1.99513 -2.04469,-2.99806 -0.26024,-5.26661 1.27083,-1.6156 1.29633,-1.86337 0.33333,-3.23825 -1.40164,-2.00113 -1.3128,-3.58876 0.29055,-5.19211 1.59464,-1.59464 4.82974,-1.74169 6.28571,-0.28571 1.3345,1.33449 1.34618,3.89192 0.0238,5.21428 -0.92063,0.92064 -0.88704,1.16058 0.33334,2.38096 1.34628,1.34628 1.78787,4.34815 0.84693,5.75734 -0.7321,1.09641 -3.21503,2.26646 -4.8096,2.26646 -0.77411,0 -2.14383,-0.73636 -3.04383,-1.63636 z m 6.33706,-0.66494 c 1.25052,-1.50679 0.56448,-3.17115 -1.90055,-4.61081 -2.19591,-1.28248 -2.28033,-1.28449 -3.16449,-0.0753 -1.12237,1.53493 -1.17272,3.78979 -0.10838,4.85412 1.10461,1.10461 4.2007,1.00409 5.17342,-0.16797 z m -0.77342,-8.4987 c 1.25758,-1.25758 0.94225,-3.74362 -0.57804,-4.55726 -1.07196,-0.57369 -1.7383,-0.50145 -3,0.32525 -2.07431,1.35914 -2.04029,1.94203 0.21137,3.62195 2.17122,1.61991 2.32835,1.64838 3.36667,0.61006 z m 6.59167,9.70278 c -0.94368,-0.94368 -0.40969,-2.23611 0.92388,-2.23611 0.93197,0 1.312,0.36203 1.16666,1.11142 -0.23796,1.22699 -1.376,1.83924 -2.09054,1.12469 z M 8.8108373,302.64338 c 0.22662,-0.36667 0.83276,-0.66667 1.3469797,-0.66667 0.52005,0 1.22431,-1.10945 1.58696,-2.5 1.63681,-6.2761 2.73273,-10.72609 2.73273,-11.09622 0,-0.22208 -0.45,-0.40378 -1,-0.40378 -0.55,0 -1,-0.33078 -1,-0.73508 0,-0.49631 1.83466,-0.65872 5.6484,-0.5 6.43678,0.2679 8.13613,1.29294 8.74489,5.27494 0.46199,3.02191 -1.96178,7.77444 -4.99188,9.7881 -1.90184,1.26386 -3.16486,1.50538 -7.87268,1.50538 -3.56852,0 -5.4575997,-0.24241 -5.1953997,-0.66667 z m 11.9908797,-2.11193 c 3.52262,-2.7709 4.88124,-9.25718 2.40785,-11.49556 -0.84865,-0.76802 -2.10361,-1.07775 -3.79507,-0.93665 l -2.52712,0.21081 -1.52183,6 c -0.837,3.3 -1.52922,6.375 -1.53827,6.83333 -0.0283,1.43669 4.92225,1.00232 6.97444,-0.61193 z M 5.1441773,298.64338 v -2.66667 h -6 c -3.55556,0 -6,-0.2716 -6,-0.66666 0,-0.4 2.66666,-0.66667 6.66666,-0.66667 h 6.66667 v 3.33333 c 0,1.83334 -0.3,3.33334 -0.66667,3.33334 -0.36666,0 -0.66666,-1.2 -0.66666,-2.66667 z M -159.29959,274.92935 c -0.66271,-1.727 0.903,-6.78526 3.11464,-10.06228 l 1.95068,-2.89036 h -3.27765 c -2.41827,0 -3.45582,0.3059 -3.95718,1.16667 -0.61221,1.0511 -0.68153,1.02348 -0.69979,-0.27881 -0.0439,-3.13076 0.44138,-3.41639 5.18701,-3.05294 2.45266,0.18783 4.57298,0.44041 4.71181,0.56128 0.13884,0.12088 -0.7342,1.75732 -1.9401,3.63654 -1.62482,2.53207 -2.29434,4.46674 -2.58576,7.47195 -0.39131,4.03538 -1.62583,5.73552 -2.50366,3.44795 z m 172.681767,0.38631 c -3.7037697,-1.49465 -4.7642397,-7.37163 -2.05547,-11.39116 2.94126,-4.36454 8.66962,-6.61914 11.79511,-4.64238 0.62212,0.39347 1.29468,0.35521 1.84944,-0.10521 1.39044,-1.15396 1.62322,-0.25516 0.79046,3.05204 -0.90425,3.5911 -1.7784,3.98503 -2.0753,0.93523 -0.14383,-1.47738 -0.73828,-2.44151 -1.9082,-3.09489 -3.35839,-1.8756 -8.17158,2.17075 -9.54922,8.02782 -0.45561,1.93706 0.51842,5.21382 1.79022,6.0225 2.03631,1.29479 4.68926,0.49798 7.22818,-2.17097 2.78882,-2.93165 3.1922,-2.90871 1.42607,0.0811 -1.86826,3.16271 -5.98705,4.61934 -9.29129,3.28591 z m -162.446337,-0.43617 c -0.94368,-0.94368 -0.40969,-2.23611 0.92388,-2.23611 0.93198,0 1.312,0.36203 1.16667,1.11142 -0.23796,1.22699 -1.376,1.83924 -2.09055,1.12469 z M 5.8108373,270.64338 v -2.66667 h -6 c -3.55555,0 -6,-0.2716 -6,-0.66666 0,-0.4 2.66667,-0.66667 6.66667,-0.66667 h 6.66667 v 3.33333 c 0,1.83334 -0.3,3.33334 -0.66667,3.33334 -0.36667,0 -0.66667,-1.2 -0.66667,-2.66667 z m 4.2890397,-36.33333 c -4.1e-4,-9.16667 0.0935,-13.00914 0.20865,-8.53882 0.11517,4.47033 0.1155,11.97033 6.7e-4,16.66667 -0.11469,4.69635 -0.20892,1.03881 -0.20932,-8.12785 z M -159.83273,209.06042 c -1.98033,-1.98033 -2.79257,-6.74217 -1.7097,-10.02329 1.25234,-3.79466 4.58236,-5.82604 7.63208,-4.65576 1.3933,0.53466 1.40404,3.59534 0.0126,3.59534 -0.68721,0 -0.9709,-0.48954 -0.83334,-1.43803 0.47986,-3.30844 -3.69211,-1.14569 -4.51995,2.34314 -0.41895,1.76565 -0.35136,1.85123 0.92328,1.16906 2.94654,-1.57695 6.13858,1.01303 6.13858,4.98077 0,2.283 -0.34862,3.12251 -1.75657,4.23001 -2.2911,1.80217 -3.93995,1.74581 -5.887,-0.20124 z m 4.95345,-1.03988 c 1.54873,-2.89383 0.34752,-7.37716 -1.97655,-7.37716 -1.5152,0 -2.66667,1.87113 -2.66667,4.33333 0,2.46221 1.15147,4.33334 2.66667,4.33334 0.70753,0 1.59698,-0.58028 1.97655,-1.28951 z m 6.48179,1.52562 c -0.94368,-0.94368 -0.40969,-2.23611 0.92388,-2.23611 0.93197,0 1.312,0.36203 1.16666,1.11142 -0.23796,1.22698 -1.376,1.83924 -2.09054,1.12469 z M 1.4360373,209.37715 c 0.24942,-0.40357 0.87422,-0.73377 1.38845,-0.73377 0.52005,0 1.22431,-1.10945 1.58696,-2.5 1.63681,-6.2761 2.73273,-10.72609 2.73273,-11.09623 0,-0.22208 -0.45,-0.40377 -1,-0.40377 -0.55,0 -1,-0.3 -1,-0.66667 0,-0.96724 9.3448997,-0.80898 11.3333297,0.19194 2.54065,1.2789 2.56603,4.01633 0.0545,5.87322 -1.96746,1.4546 -1.9874,1.52294 -0.7062,2.42032 1.81973,1.2746 1.64959,3.63743 -0.40072,5.56498 -1.5242,1.43293 -2.44057,1.64272 -8.0808197,1.84998 -4.51063,0.16576 -6.22973,0.0203 -5.90818,-0.5 z m 11.7485197,-2.10749 c 0.86866,-0.86866 1.2976,-2.03291 1.16667,-3.16667 -0.18794,-1.62743 -0.49559,-1.81154 -3.33276,-1.99446 -3.1060497,-0.20026 -3.1301297,-0.18558 -3.8296097,2.33333 -1.0955,3.94497 -0.9761,4.20152 1.95532,4.20152 1.8038997,0 3.1111097,-0.44445 4.0403797,-1.37372 z m 1.49117,-7.81457 c 0.70444,-0.63228 1.11654,-1.77664 1,-2.77692 -0.16935,-1.45369 -0.57507,-1.73235 -2.78607,-1.9136 -3.1632597,-0.25932 -3.5524897,0.098 -4.1447597,3.80511 l -0.46753,2.9263 2.6000697,-0.48271 c 1.43004,-0.26549 3.13927,-0.96667 3.79829,-1.55818 z M -160.04082,181.60558 c -1.80951,-1.26743 -2.10611,-4.9622 -0.39834,-4.9622 0.84717,0 0.99649,0.43423 0.68495,1.99189 -0.34389,1.71946 -0.17174,2.04877 1.25866,2.40778 0.94217,0.23647 2.08471,0.0609 2.64838,-0.40686 0.99921,-0.82926 1.34801,-4.9543 0.58668,-6.93828 -0.51068,-1.33081 -2.50756,-1.36523 -3.58925,-0.0619 -1.35556,1.63335 -2.00609,0.4844 -2.00609,-3.54311 v -3.8051 h 3.99259 c 3.86817,0 3.9546,0.038 2.77326,1.21933 -0.67063,0.67063 -2.1673,1.24629 -3.32593,1.27923 -1.8187,0.0517 -2.10659,0.30106 -2.10659,1.82458 0,1.61454 0.19297,1.74215 2.26803,1.4999 5.36693,-0.62656 7.24897,7.02431 2.35096,9.55717 -2.39199,1.23694 -3.29788,1.22593 -5.13731,-0.0625 z m 11.64333,-0.0594 c -0.94368,-0.94368 -0.40969,-2.23611 0.92388,-2.23611 0.93197,0 1.312,0.36203 1.16666,1.11142 -0.23796,1.22698 -1.376,1.83924 -2.09054,1.12469 z M 3.3262173,180.47342 c 1.01679,-0.82318 3.71679,-4.61725 6,-8.43126 2.2832097,-3.81402 4.4512897,-6.96402 4.8179597,-7 0.37064,-0.0364 0.99118,3.27293 1.39748,7.45279 0.58941,6.06338 0.97642,7.70409 2,8.4788 1.15752,0.87606 0.96124,0.96244 -2.23082,0.98178 -1.925,0.0117 -3.5,-0.2788 -3.5,-0.64546 0,-0.36667 0.45,-0.66667 1,-0.66667 0.66667,0 1,-0.66667 1,-2 0,-1.91815 -0.11963,-2 -2.92332,-2 -2.4400097,0 -3.1182397,0.29747 -4.1022397,1.79925 -0.80549,1.22933 -0.93536,1.88044 -0.41001,2.05556 1.78938,0.59646 0.55536,1.47828 -2.06443,1.47521 l -2.83333,-0.003 1.84871,-1.4967 z m 9.8179597,-8.16335 c 0,-1.65 -0.225,-2.99769 -0.5,-2.99487 -0.47826,0.005 -3.4999997,4.86297 -3.4999997,5.62695 0,0.20235 0.8999997,0.36792 1.9999997,0.36792 1.92592,0 2,-0.11112 2,-3 z m -3.04504,-31.66667 c 0,-8.98333 0.0944,-12.65833 0.2097,-8.16667 0.11534,4.49167 0.11534,11.84167 0,16.33334 -0.11534,4.49166 -0.2097,0.81666 -0.2097,-8.16667 z M -158.85583,115.97671 c 0,-0.36667 0.45,-0.66667 1,-0.66667 0.55556,0 1,-0.59259 1,-1.33333 0,-1.1358 -0.44444,-1.33333 -3,-1.33333 -1.65,0 -3,-0.30249 -3,-0.67219 0,-0.92067 6.87723,-11.2941 7.5,-11.3128 0.275,-0.008 0.5,2.39465 0.5,5.3398 0,4.89053 0.1258,5.40135 1.45084,5.89152 l 1.45084,0.5367 -1.45084,0.37941 c -1.60515,0.41975 -2.01317,2.50422 -0.49018,2.50422 0.52836,0 1.14606,0.3 1.37267,0.66667 0.25395,0.41089 -0.88196,0.66667 -2.96065,0.66667 -1.85497,0 -3.37268,-0.3 -3.37268,-0.66667 z m 2,-7.66667 c 0,-2.01666 -0.10516,-3.66666 -0.23368,-3.66666 -0.27133,0 -4.43299,6.61314 -4.43299,7.0443 0,0.15896 1.05,0.28903 2.33334,0.28903 h 2.33333 z m 7.79167,7.90278 c -0.94368,-0.94368 -0.40969,-2.23611 0.92388,-2.23611 0.93198,0 1.312,0.36203 1.16667,1.11142 -0.23796,1.22699 -1.376,1.83924 -2.09055,1.12469 z M 9.4775073,115.97671 c 0.22661,-0.36667 0.8327497,-0.66667 1.3469797,-0.66667 0.52005,0 1.22431,-1.10945 1.58696,-2.5 1.63681,-6.2761 2.73273,-10.72609 2.73273,-11.09622 0,-0.22208 -0.46771,-0.40378 -1.03935,-0.40378 -0.57164,0 -0.85393,-0.3 -0.62732,-0.66666 0.22761,-0.36828 3.22915,-0.666669 6.70601,-0.666669 h 6.29399 v 2.627319 c 0,1.44503 -0.3,2.81273 -0.66667,3.03935 -0.38694,0.23914 -0.66666,-0.41375 -0.66666,-1.556 0,-2.23933 -0.90849,-2.77734 -4.68986,-2.77734 -2.41439,0 -2.62557,0.16121 -3.27509,2.5 -0.95808,3.44988 -0.94095,3.5 1.19641,3.5 1.29195,0 2.1482,-0.47902 2.68121,-1.5 0.67163,-1.28648 0.72871,-1.07297 0.40109,1.5 -0.41017,3.22116 -1.6471,5.32389 -1.6471,2.8 0,-1.17175 -0.38623,-1.46666 -1.92086,-1.46666 -1.71654,0 -2.00018,0.31502 -2.66666,2.96188 -0.4102,1.62903 -0.74581,3.12903 -0.74581,3.33333 0,0.50641 5.62906,0.47195 6.97013,-0.0427 0.59355,-0.22776 1.54021,-1.30564 2.10368,-2.39528 1.503,-2.90648 2.00783,-1.66178 0.59592,1.46927 l -1.20556,2.67347 h -6.9381 c -4.45563,0 -6.7906697,-0.23854 -6.5260697,-0.66667 z m -3.66667,-4 v -2.66667 h -6 c -3.55555,0 -6,-0.2716 -6,-0.66666 0,-0.4 2.66667,-0.66667 6.66667,-0.66667 h 6.66667 v 3.33333 c 0,1.83334 -0.3,3.33334 -0.66667,3.33334 -0.36667,0 -0.66667,-1.2 -0.66667,-2.66667 z M -69.833003,92.271672 c -4.12132,-4.446973 -4.57716,-13.58298 -0.96215,-19.28326 2.4589,-3.877293 3.87742,-3.94774 1.61077,-0.08 -3.08167,5.25848 -3.05308,13.51294 0.0627,18.104307 2.04718,3.0167 1.61939,3.773833 -0.71132,1.258953 z m 84.31051,1.41128 c 0,-0.275226 0.61392,-1.362586 1.36427,-2.41636 2.17374,-3.05274 3.06072,-8.575313 2.1077,-13.123213 -0.44181,-2.108334 -1.40374,-4.646187 -2.13763,-5.639674 -1.57066,-2.126253 -1.66618,-2.612486 -0.41919,-2.133973 0.50332,0.193147 1.70332,1.799327 2.66666,3.569293 3.20693,5.892194 2.15529,15.055834 -2.17754,18.974347 -0.77235,0.698494 -1.40427,1.044807 -1.40427,0.76958 z m -175.696977,-6.67594 c -1.89257,-1.892566 -2.06543,-2.907493 -0.59155,-3.47308 1.50468,-0.5774 2.71054,0.797667 1.73272,1.975867 -0.93547,1.127167 -0.36209,1.800247 1.53358,1.800247 1.99155,0 3.02222,-1.250447 3.02222,-3.666667 0,-2.38846 -1.02159,-3.658087 -2.96666,-3.68694 -1.35771,-0.02013 -1.35793,-0.02507 -0.0333,-0.749547 2.90874,-1.59096 3.70838,-3.759893 2.01173,-5.456547 -1.54228,-1.54228 -3.54128,-0.69024 -3.15247,1.343687 0.25769,1.348033 0.0829,1.63568 -0.88029,1.448973 -1.77082,-0.343253 -1.91372,-1.631546 -0.35397,-3.191293 1.49213,-1.492127 4.04111,-1.779 6.08549,-0.68488 1.60651,0.85978 1.72224,4.115247 0.2004,5.63708 -1.00769,1.0077 -0.98278,1.16358 0.33334,2.08542 2.10928,1.477407 1.93371,5.088434 -0.33414,6.872327 -2.33017,1.832913 -4.60727,1.745153 -6.60706,-0.254647 z m 139.415527,-5.35194 c -1.73184,-3.879873 -3.01299,-7.41972 -2.84702,-7.866333 0.2991,-0.804834 5.79514,10.311246 5.79514,11.72102 0,1.502187 1.24228,-0.653354 3.69093,-6.404307 1.41459,-3.322347 2.75129,-5.619853 3.07899,-5.292153 0.55455,0.554553 -4.58786,12.91468 -5.93262,14.259447 -0.40441,0.404406 -1.78525,-1.936614 -3.78542,-6.417674 z m 21.1861203,6.327254 c -3.70377,-1.494654 -4.76424,-7.371627 -2.05547,-11.391161 2.94126,-4.36454 8.66962,-6.61914 11.79511,-4.64238 0.62212,0.393467 1.2946797,0.355207 1.8494397,-0.105206 1.39044,-1.15396 1.62322,-0.25516 0.79046,3.05204 -0.90425,3.5911 -1.7783997,3.985026 -2.0752997,0.935226 -0.14383,-1.47738 -0.73828,-2.441513 -1.9082,-3.094893 -3.35839,-1.875593 -8.17158,2.170753 -9.54922,8.027827 -0.45561,1.937053 0.51842,5.213813 1.79022,6.022493 2.03631,1.294794 4.68926,0.497987 7.22818,-2.170967 2.7888197,-2.931646 3.1921997,-2.908706 1.42607,0.08111 -1.86826,3.162714 -5.98705,4.61934 -9.29129,3.285914 z M 32.196057,81.655072 c -1.73184,-3.879873 -3.01299,-7.41972 -2.84702,-7.866333 0.2991,-0.804834 5.79514,10.311246 5.79514,11.72102 0,1.502187 1.24228,-0.653354 3.69093,-6.404307 1.41459,-3.322347 2.75129,-5.619853 3.07899,-5.292153 0.55455,0.554553 -4.58786,12.91468 -5.93262,14.259447 -0.40441,0.404406 -1.78525,-1.936614 -3.78542,-6.417674 z m 46.61387,4.04688 c -0.973,-1.660287 -1.57812,-3.327673 -1.34474,-3.705307 0.76576,-1.239026 2.11642,-0.72 2.96331,1.138727 l 0.83167,1.825327 1.61962,-3.407694 c 1.72398,-3.627313 7.80863,-10.24296 9.42081,-10.24296 0.53127,0 -0.43089,1.357574 -2.13813,3.01682 -1.92746,1.873274 -3.8642,4.71622 -5.10934,7.5 -3.57104,7.983827 -3.76483,8.104114 -6.2432,3.875087 z m -227.874087,1.844207 c -0.94368,-0.94368 -0.40969,-2.236113 0.92388,-2.236113 0.93198,0 1.312,0.362033 1.16667,1.11142 -0.23796,1.226986 -1.376,1.83924 -2.09055,1.124693 z m 99.166857,-0.169007 c 0.24942,-0.403573 0.87423,-0.733773 1.38846,-0.733773 0.52004,0 1.2243,-1.109453 1.58696,-2.5 1.6368,-6.2761 2.73272,-10.726094 2.73272,-11.096227 0,-0.22208 -0.45,-0.403773 -1,-0.403773 -0.55,0 -1,-0.3 -1,-0.666667 0,-0.96724 9.34491,-0.80898 11.33334,0.19194 2.54064,1.278893 2.56602,4.016327 0.0545,5.87322 -1.96745,1.4546 -1.98739,1.52294 -0.7062,2.42032 1.81974,1.274593 1.6496,3.637427 -0.40072,5.56498 -1.52419,1.432927 -2.44056,1.64272 -8.08082,1.84998 -4.51062,0.165754 -6.22972,0.02027 -5.90818,-0.5 z m 11.74853,-2.107493 c 0.86866,-0.86866 1.29759,-2.032907 1.16667,-3.166667 -0.18794,-1.627433 -0.4956,-1.811547 -3.33276,-1.994467 -3.10605,-0.200253 -3.13014,-0.18558 -3.82962,2.333334 -1.09549,3.944973 -0.9761,4.20152 1.95532,4.20152 1.80391,0 3.11112,-0.444447 4.04039,-1.37372 z m 1.49117,-7.814574 c 0.70444,-0.632273 1.11654,-1.776633 1,-2.77692 -0.16936,-1.453686 -0.57507,-1.732346 -2.78608,-1.9136 -3.16325,-0.25932 -3.55248,0.09801 -4.14476,3.805114 l -0.46752,2.9263 2.60006,-0.482707 c 1.43004,-0.265493 3.13928,-0.966673 3.7983,-1.558187 z m 86.13511,9.854961 c 0.22661,-0.366667 0.83275,-0.666667 1.34698,-0.666667 0.52005,0 1.22431,-1.109453 1.58696,-2.5 1.63681,-6.2761 2.73273,-10.726094 2.73273,-11.096227 0,-0.22208 -0.46771,-0.403773 -1.03935,-0.403773 -0.57164,0 -0.85393,-0.3 -0.62732,-0.666667 0.22761,-0.368273 3.22915,-0.666667 6.70602,-0.666667 h 6.29398 v 2.62732 c 0,1.445027 -0.3,2.812734 -0.66666,3.039347 -0.38694,0.23914 -0.66667,-0.413747 -0.66667,-1.555993 0,-2.239334 -0.90849,-2.77734 -4.68985,-2.77734 -2.4144,0 -2.62558,0.161206 -3.2751,2.5 -0.95808,3.44988 -0.94095,3.5 1.19641,3.5 1.29195,0 2.1482,-0.479027 2.68121,-1.5 0.67163,-1.286487 0.72872,-1.072974 0.40109,1.5 -0.41017,3.221153 -1.64709,5.323886 -1.64709,2.8 0,-1.171754 -0.38624,-1.466667 -1.92086,-1.466667 -1.71655,0 -2.00019,0.315027 -2.66667,2.96188 -0.4102,1.629033 -0.74581,3.129034 -0.74581,3.333334 0,0.506406 5.62906,0.471946 6.97014,-0.04267 0.59354,-0.227767 1.5402,-1.305647 2.10368,-2.395287 1.50299,-2.906473 2.00782,-1.66178 0.59592,1.469274 l -1.20557,2.673466 h -6.9381 c -4.45563,0 -6.79067,-0.238533 -6.52607,-0.666666 z m -102.33333,-4.000001 v -2.666666 h -6 c -3.55556,0 -6,-0.271607 -6,-0.666667 0,-0.4 2.66666,-0.666667 6.66666,-0.666667 h 6.66667 v 3.333334 c 0,1.833333 -0.3,3.333333 -0.66667,3.333333 -0.36666,0 -0.66666,-1.2 -0.66666,-2.666667 z m 20.35616,-19.038374 c -4.12132,-4.446974 -4.57717,-13.582977 -0.96216,-19.283259 2.4589,-3.87729 3.87742,-3.947743 1.61078,-0.08 -3.08168,5.258481 -3.05309,13.512944 0.0627,18.104311 2.04718,3.016698 1.61939,3.773831 -0.71132,1.25895 z m 70.3105,1.411281 c 0,-0.275227 0.61392,-1.362588 1.36428,-2.416358 2.17374,-3.052739 3.06071,-8.575314 2.10769,-13.123216 -0.44181,-2.108333 -1.40373,-4.646185 -2.13763,-5.639671 -1.57066,-2.126253 -1.66618,-2.612487 -0.41919,-2.133975 0.50333,0.193146 1.70333,1.799329 2.66667,3.569296 3.20692,5.892188 2.15528,15.055834 -2.17754,18.974344 -0.77236,0.698493 -1.40428,1.044807 -1.40428,0.76958 z m -61.762,-5.700628 c -3.70376,-1.494654 -4.76423,-7.371625 -2.05546,-11.391159 2.94126,-4.36454 8.66962,-6.619138 11.7951,-4.64238 0.62212,0.393467 1.29468,0.355207 1.84945,-0.105209 1.39043,-1.153959 1.62322,-0.255156 0.79045,3.052043 -0.90424,3.591099 -1.77839,3.985029 -2.0753,0.935223 -0.14382,-1.477378 -0.73827,-2.441511 -1.90819,-3.094887 -3.35839,-1.875599 -8.17159,2.170748 -9.54923,8.027825 -0.4556,1.93705 0.51843,5.213811 1.79022,6.022488 2.03632,1.2948 4.68927,0.497992 7.22819,-2.170961 2.78881,-2.931651 3.19219,-2.90871 1.42607,0.08111 -1.86826,3.162713 -5.98705,4.619342 -9.2913,3.285912 z m 23.4805503,-6.327251 c -1.73183,-3.879872 -3.01299,-7.419724 -2.84701,-7.866337 0.29909,-0.804832 5.79513,10.311248 5.79513,11.721021 0,1.502188 1.24228,-0.653352 3.69093,-6.404306 1.4146,-3.322345 2.75129,-5.619851 3.07899,-5.292155 0.55455,0.554558 -4.58785,12.914679 -5.93262,14.259452 -0.40441,0.404407 -1.78525,-1.936617 -3.78542,-6.417675 z m 57.2805297,4.04688 c -0.97299,-1.660287 -1.57812,-3.327675 -1.34473,-3.705306 0.76576,-1.239027 2.11642,-0.720005 2.96331,1.138724 l 0.83167,1.825325 1.61962,-3.407694 c 1.72398,-3.627314 7.80863,-10.242957 9.42081,-10.242957 0.53127,0 -0.43089,1.357571 -2.13813,3.016823 -1.92746,1.873267 -3.8642,4.716215 -5.10934,7.5 -3.57104,7.983825 -3.76483,8.104108 -6.24321,3.875085 z m -218.999077,1.646886 c 0,-0.345329 1.5,-2.342007 3.33333,-4.437059 2.48567,-2.840513 3.33333,-4.342269 3.33333,-5.905461 0,-2.470195 -1.02629,-3.696274 -3.09398,-3.696274 -1.86442,0 -2.60154,1.093639 -1.57268,2.333333 0.906,1.09167 0.35292,2.333334 -1.03935,2.333334 -0.61883,0 -0.96065,-0.698184 -0.96065,-1.962198 0,-3.781536 5.14534,-5.409784 7.88379,-2.494835 2.37715,2.530359 1.87958,4.748808 -1.9805,8.830273 l -3.43003,3.62676 h 2.66149 c 2.10128,0 2.81377,-0.315735 3.38492,-1.5 l 0.72342,-1.5 0.0451,1.445475 c 0.0972,3.114214 -0.5254,3.554525 -5.0262,3.554525 -2.34411,0 -4.26201,-0.282543 -4.26201,-0.627873 z m 13.125,0.197317 c -0.94368,-0.943677 -0.40969,-2.236111 0.92388,-2.236111 0.93198,0 1.312,0.362033 1.16667,1.111423 -0.23796,1.226986 -1.376,1.839237 -2.09055,1.124688 z M 16.810837,59.310045 c 0.22662,-0.366667 0.83276,-0.666667 1.34698,-0.666667 0.52005,0 1.22431,-1.109452 1.58696,-2.5 1.63681,-6.276102 2.73273,-10.726094 2.73273,-11.09623 0,-0.222073 -0.45,-0.40377 -1,-0.40377 -0.55,0 -1,-0.330784 -1,-0.735077 0,-0.496317 1.83466,-0.658722 5.6484,-0.5 6.43678,0.267888 8.13613,1.292939 8.74489,5.274931 0.46199,3.02191 -1.96178,7.774436 -4.99188,9.788099 -1.90184,1.263869 -3.16486,1.505381 -7.87268,1.505381 -3.56852,0 -5.4576,-0.242406 -5.1954,-0.666667 z m 11.99088,-2.111933 c 3.52262,-2.770894 4.88124,-9.257172 2.40785,-11.495551 -0.84865,-0.768023 -2.10361,-1.077757 -3.79507,-0.936658 l -2.52712,0.210809 -1.52183,6 c -0.837,3.3 -1.52922,6.375 -1.53827,6.833333 -0.0283,1.436685 4.92225,1.002322 6.97444,-0.611933 z m -68.99088,-1.888067 v -2.666667 h -6 c -3.55555,0 -6,-0.271604 -6,-0.666666 0,-0.4 2.66667,-0.666667 6.66667,-0.666667 h 6.66667 v 3.333333 c 0,1.833334 -0.3,3.333334 -0.66667,3.333334 -0.36667,0 -0.66667,-1.2 -0.66667,-2.666667 z m 28.89196,-23.973858 c -2.78568,-1.172098 -2.64814,-4.230168 0.3107,-6.90788 1.0377603,-0.93916 1.2507403,-1.7624 0.97937,-3.785606 -0.46929,-3.498796 0.2088003,-5.821924 1.8515103,-6.343302 3.08789,-0.980057 4.36142,2.81453 1.96646,5.859226 -1.69472,2.15449 -1.68183,2.329041 0.39794,5.38969 l 1.73126,2.547784 1.60207,-2.357658 c 1.70757,-2.512914 2.0181,-3.76173 0.9354,-3.76173 -0.36667,0 -0.66667,-0.3 -0.66667,-0.666666 0,-0.366667 1.2,-0.666667 2.66667,-0.666667 2.73116,0 3.62972,0.925981 1.45134,1.495639 -0.66843,0.174798 -2.04104,1.726798 -3.05025,3.44889 -1.46593,2.501411 -1.67434,3.324576 -1.03638,4.093274 1.16954,1.40921 2.99074,1.175212 4.18568,-0.537803 0.57548,-0.825 1.06208,-1.125 1.08131,-0.666667 0.0193,0.458334 -0.59103,1.459331 -1.35614,2.224439 -1.06413,1.064131 -1.80845,1.272779 -3.16667,0.887689 -2.10498,-0.596817 -3.73013,-0.61085 -6.44222,-0.05563 -1.1,0.225193 -2.6486203,0.136532 -3.4413803,-0.197025 z m 5.0079803,-1.283522 c 0.71158,-0.45094 0.48793,-1.139037 -1.06864,-3.287822 -2.14269,-2.957899 -3.4979603,-2.746663 -3.4979603,0.545202 0,2.829756 2.2739803,4.195473 4.5666003,2.74262 z m 0.10006,-12.82425 c 0,-1.220668 -0.34735,-1.91837 -0.95507,-1.91837 -1.19215,0 -1.94374,2.21833 -1.36712,4.0351 0.62088,1.956212 2.32219,0.405427 2.32219,-2.11673 z M 38.809917,29.035286 c -0.97299,-1.660287 -1.57812,-3.327675 -1.34473,-3.705306 0.76576,-1.239027 2.11641,-0.720005 2.96331,1.138724 l 0.83167,1.825325 1.61961,-3.407694 c 1.72399,-3.627314 7.80864,-10.242957 9.42082,-10.242957 0.53127,0 -0.43089,1.357571 -2.13814,3.016823 -1.92745,1.873267 -3.86419,4.716215 -5.10934,7.5 -3.57104,7.983825 -3.76482,8.104108 -6.2432,3.875085 z m -200.999077,1.924925 c 0,-0.192409 0.75,-0.634984 1.66666,-0.9835 1.60821,-0.611439 1.66667,-0.84514 1.66667,-6.662867 v -6.029202 l -1.66667,0.418307 c -0.93868,0.235594 -1.66666,0.129492 -1.66666,-0.242914 0,-0.363672 0.675,-0.807615 1.5,-0.986542 0.825,-0.178926 2.025,-0.545996 2.66666,-0.81571 1.07052,-0.449976 1.16667,0.119842 1.16667,6.914269 0,6.960215 0.08,7.404659 1.33333,7.404659 0.73334,0 1.33334,0.3 1.33334,0.666667 0,0.370371 -1.77778,0.666667 -4,0.666667 -2.2,0 -4,-0.157426 -4,-0.349834 z m 12.45833,-0.08072 c -0.94368,-0.943677 -0.40969,-2.236111 0.92388,-2.236111 0.93198,0 1.31201,0.362033 1.16667,1.111423 -0.23796,1.226986 -1.376,1.839236 -2.09055,1.124688 z m 116.390387,-1.072758 c 1.01678,-0.823178 3.71678,-4.617247 6,-8.431264 2.2832,-3.814016 4.45128,-6.964016 4.81795,-7 0.37064,-0.03637 0.99118,3.272936 1.39749,7.45279 0.5894,6.063376 0.97642,7.704095 2,8.478798 1.15751,0.876067 0.96123,0.962448 -2.23082,0.981786 -1.925,0.01166 -3.5,-0.278798 -3.5,-0.645465 0,-0.366667 0.45,-0.666667 1,-0.666667 0.66666,0 1,-0.666666 1,-2 0,-1.918154 -0.11964,-2 -2.92333,-2 -2.44001,0 -3.11824,0.297476 -4.10224,1.799253 -0.80549,1.229327 -0.93536,1.880438 -0.41001,2.055555 1.78938,0.596461 0.55536,1.478276 -2.06442,1.475214 l -2.83334,-0.0033 1.84872,-1.496689 z m 9.81795,-8.163355 c 0,-1.65 -0.225,-2.997689 -0.5,-2.994865 -0.47825,0.0049 -3.5,4.862969 -3.5,5.626944 0,0.202356 0.9,0.367921 2,0.367921 1.92593,0 2,-0.111111 2,-3 z m 32.9585303,9.067107 c 0.24942,-0.403576 0.8742197,-0.733774 1.3884497,-0.733774 0.52005,0 1.22431,-1.109452 1.58696,-2.5 1.63681,-6.276102 2.73273,-10.726094 2.73273,-11.09623 0,-0.222073 -0.45,-0.40377 -1,-0.40377 -0.55,0 -1,-0.3 -1,-0.666666 0,-0.967243 9.3449,-0.808977 11.33333,0.191942 2.54065,1.27889 2.56603,4.016327 0.0545,5.873216 -1.96746,1.4546 -1.9874,1.522942 -0.7062,2.420324 1.81973,1.274591 1.64959,3.637423 -0.40072,5.564975 -1.5242,1.43293 -2.44057,1.642719 -8.08082,1.849983 -4.51063,0.165753 -6.2297297,0.02027 -5.9081797,-0.5 z M 21.184557,28.602993 c 0.86866,-0.86866 1.2976,-2.032908 1.16667,-3.166666 -0.18794,-1.627438 -0.49559,-1.811552 -3.33276,-1.99447 -3.10605,-0.200254 -3.13013,-0.185576 -3.82961,2.333333 -1.0955,3.944977 -0.9761,4.201521 1.95532,4.201521 1.8039,0 3.11111,-0.444444 4.04038,-1.373718 z m 1.49117,-7.814573 c 0.70444,-0.632275 1.11654,-1.776636 1,-2.776925 -0.16935,-1.453684 -0.57507,-1.732344 -2.78607,-1.913598 -3.16326,-0.259318 -3.55249,0.09802 -4.14476,3.805115 l -0.46753,2.926301 2.60007,-0.48271 c 1.43004,-0.26549 3.13927,-0.966673 3.79829,-1.558183 z"
       id="path516" />
  </g>
</svg>
