<?xml version="1.0" encoding="UTF-8" standalone="no"?>
<svg
   xmlns:dc="http://purl.org/dc/elements/1.1/"
   xmlns:cc="http://creativecommons.org/ns#"
   xmlns:rdf="http://www.w3.org/1999/02/22-rdf-syntax-ns#"
   xmlns:svg="http://www.w3.org/2000/svg"
   xmlns="http://www.w3.org/2000/svg"
   xmlns:sodipodi="http://sodipodi.sourceforge.net/DTD/sodipodi-0.dtd"
   xmlns:inkscape="http://www.inkscape.org/namespaces/inkscape"
   version="1.1"
   id="svg744"
   width="139.86388"
   height="84.632996"
   viewBox="0 0 139.86388 84.632996"
   sodipodi:docname="5-3-interpretation-1.svg"
   inkscape:version="1.0.1 (c497b03c, 2020-09-10)">
  <metadata
     id="metadata750">
    <rdf:RDF>
      <cc:Work
         rdf:about="">
        <dc:format>image/svg+xml</dc:format>
        <dc:type
           rdf:resource="http://purl.org/dc/dcmitype/StillImage" />
        <dc:title></dc:title>
      </cc:Work>
    </rdf:RDF>
  </metadata>
  <defs
     id="defs748" />
  <sodipodi:namedview
     pagecolor="#ffffff"
     bordercolor="#666666"
     borderopacity="1"
     objecttolerance="10"
     gridtolerance="10"
     guidetolerance="10"
     inkscape:pageopacity="0"
     inkscape:pageshadow="2"
     inkscape:window-width="742"
     inkscape:window-height="480"
     id="namedview746"
     showgrid="false"
     fit-margin-top="0"
     fit-margin-left="0"
     fit-margin-right="0"
     fit-margin-bottom="0"
     inkscape:pagecheckerboard="true"
     inkscape:zoom="1.3915534"
     inkscape:cx="28.263052"
     inkscape:cy="74.108539"
     inkscape:window-x="0"
     inkscape:window-y="25"
     inkscape:window-maximized="0"
     inkscape:current-layer="g752" />
  <g
     inkscape:groupmode="layer"
     inkscape:label="Image"
     id="g752"
     transform="translate(-1.3083333,19.552948)">
    <path
       style="fill:#1b1b1b;stroke-width:0.666667"
       d="m 57.707119,62.477692 c -3.520268,-3.520263 -4.102988,-6.428983 -4.120421,-20.567657 -0.0124,-10.036486 -0.20214,-12.28364 -1.22768,-14.53812 -0.667174,-1.466666 -1.710587,-3.0784 -2.318694,-3.58163 -1.48164,-1.226106 -1.39254,-2.289436 0.319694,-3.815044 2.797533,-2.492625 3.241106,-4.873149 3.24504,-17.415246 0.002,-6.520111 0.326626,-13.017721 0.7213,-14.439135 0.880686,-3.17179 5.198691,-7.995454 6.854241,-7.656908 1.01545,0.20765 0.89428,0.560574 -0.86893,2.530983 -2.952265,3.299171 -3.369125,5.647149 -3.373278,18.999831 -0.0033,10.804623 -0.13948,12.236625 -1.413253,14.867893 -0.775247,1.601441 -2.140787,3.390843 -3.034534,3.97645 l -1.625,1.06474 2.000747,2.067366 c 3.652833,3.774467 4.06684,5.756387 4.08296,19.545954 0.01573,13.441826 0.570973,16.170833 3.891208,19.124743 0.78512,0.69849 1.42749,1.52349 1.42749,1.83333 0,1.33256 -2.1899,0.37345 -4.56089,-1.99755 z M 133.396,55.686822 c -2.97986,-2.343953 -3.22662,-11.216287 -0.39082,-14.052087 1.64014,-1.640133 4.73778,-1.614646 6.24552,0.0514 2.71434,2.999314 2.50704,11.867194 -0.33115,14.165414 -1.90726,1.544413 -3.40763,1.499666 -5.52355,-0.16472 z m 4.84855,-1.27108 c 1.0966,-2.04902 0.85917,-10.172467 -0.34768,-11.895487 -1.23021,-1.756373 -1.84362,-1.838346 -3.24791,-0.434053 -1.30804,1.308033 -1.50608,11.560587 -0.24762,12.819047 1.20124,1.20124 3.06542,0.9638 3.84321,-0.489507 z m -59.643211,1.289507 c 0.22661,-0.366667 0.83275,-0.666667 1.34698,-0.666667 0.52004,0 1.2243,-1.109453 1.58696,-2.5 1.6368,-6.2761 2.73272,-10.726093 2.73272,-11.096227 0,-0.22208 -0.45,-0.403773 -1,-0.403773 -0.55,0 -1,-0.318107 -1,-0.706913 0,-0.40546 1.02292,-0.618674 2.39882,-0.5 2.34367,0.20216 2.45355,0.340926 4.78054,6.037473 1.30996,3.206813 2.50345,5.708853 2.65221,5.560093 0.14876,-0.14876 0.82249,-2.416526 1.49718,-5.039493 1.03913,-4.0398 1.08231,-4.824427 0.28231,-5.131413 -1.84347,-0.707407 -0.90567,-1.55308 1.72228,-1.55308 2.75043,0 3.59582,0.94858 1.45183,1.629053 -0.91013,0.288867 -1.60803,2.051187 -2.78251,7.026353 -1.51412,6.41394 -2.31328,8.651147 -2.8548,7.991954 -0.14188,-0.172714 -1.57325,-3.42928 -3.18083,-7.236814 l -2.92287,-6.92278 -1.54751,6.16402 c -1.47965,5.89372 -1.49524,6.20368 -0.35541,7.068254 1.0569,0.801673 0.82851,0.906626 -2.01392,0.925426 -1.9723,0.01307 -3.04746,-0.23534 -2.79398,-0.645466 z m 28.333331,-3.333334 c 0,-0.4056 2.98689,-0.666666 7.62732,-0.666666 4.36576,0 7.80351,0.28508 8.03935,0.666666 0.26598,0.430367 -2.43752,0.666667 -7.62732,0.666667 -4.91512,0 -8.03935,-0.25908 -8.03935,-0.666667 z m 3.83333,-4.4936 c 2.29167,-0.13018 6.04167,-0.13018 8.33334,0 2.29166,0.13018 0.41666,0.236694 -4.16667,0.236694 -4.58333,0 -6.45833,-0.106514 -4.16667,-0.236694 z M 2.2282543,27.423582 c 1.267906,-0.702247 1.959822,-2.131381 3.135549,-6.476379 1.811493,-6.694527 1.893091,-7.908621 0.531524,-7.908621 -0.571639,0 -0.853935,-0.3 -0.627322,-0.666667 0.508014,-0.821983 6.9999997,-0.894095 6.9999997,-0.07775 0,0.323902 -0.529753,0.727446 -1.177228,0.896764 -0.869793,0.227456 -1.5689987,1.945246 -2.6773987,6.577755 -1.773036,7.410318 -1.764549,7.269898 -0.439362,7.269898 0.57164,0 0.853935,0.3 0.627322,0.666667 -0.226612,0.366666 -2.119317,0.656033 -4.206011,0.64304 -3.55064099,-0.02213 -3.68963799,-0.08141 -2.167073,-0.924707 z m 76.3730847,0.281667 c 0.22661,-0.366667 0.83275,-0.666667 1.34698,-0.666667 0.52004,0 1.2243,-1.109453 1.58696,-2.5 1.6368,-6.276102 2.73272,-10.726094 2.73272,-11.09623 0,-0.222073 -0.45,-0.40377 -1,-0.40377 -0.55,0 -1,-0.330785 -1,-0.735077 0,-0.496317 1.83466,-0.658722 5.6484,-0.5 6.43678,0.267888 8.13614,1.292938 8.7449,5.27493 0.46198,3.021911 -1.96178,7.774437 -4.99188,9.7881 -1.90184,1.263867 -3.16487,1.50538 -7.87268,1.50538 -3.56852,0 -5.45761,-0.242406 -5.1954,-0.666666 z m 11.99088,-2.111934 c 3.52262,-2.770893 4.88123,-9.257171 2.40784,-11.49555 -0.84865,-0.768024 -2.1036,-1.077757 -3.79506,-0.936658 l -2.52713,0.210808 -1.52183,6 c -0.837,3.3 -1.52922,6.375 -1.53826,6.833334 -0.0283,1.436686 4.92224,1.00232 6.97444,-0.611934 z m 40.342451,2.428767 c 0,-0.192407 0.75,-0.634987 1.66667,-0.9835 1.6082,-0.61144 1.66666,-0.84514 1.66666,-6.662867 v -6.029202 l -1.66666,0.418306 c -0.93868,0.235595 -1.66667,0.129492 -1.66667,-0.242914 0,-0.363671 0.675,-0.807614 1.5,-0.986541 0.825,-0.178926 2.025,-0.545996 2.66667,-0.815711 1.07052,-0.449976 1.16666,0.119842 1.16666,6.91427 0,6.960212 0.08,7.404659 1.33334,7.404659 0.73333,0 1.33333,0.3 1.33333,0.666667 0,0.370373 -1.77778,0.666666 -4,0.666666 -2.2,0 -4,-0.157426 -4,-0.349833 z M 20.934671,24.371915 c 0,-0.405598 2.986886,-0.666666 7.62732,-0.666666 4.36576,0 7.803514,0.285077 8.039347,0.666666 0.26598,0.430367 -2.43752,0.666667 -7.62732,0.666667 -4.915121,0 -8.039347,-0.259078 -8.039347,-0.666667 z m 84.666669,0 c 0,-0.405598 2.98688,-0.666666 7.62732,-0.666666 4.36576,0 7.80351,0.285077 8.03934,0.666666 0.26598,0.430367 -2.43752,0.666667 -7.62732,0.666667 -4.91512,0 -8.03934,-0.259078 -8.03934,-0.666667 z M 24.768005,19.878317 c 2.291666,-0.13018 6.041666,-0.13018 8.333333,0 2.291667,0.130181 0.416667,0.236692 -4.166667,0.236692 -4.583333,0 -6.458333,-0.106511 -4.166666,-0.236692 z m 84.666665,0 c 2.29167,-0.13018 6.04167,-0.13018 8.33333,0 2.29167,0.130181 0.41667,0.236692 -4.16666,0.236692 -4.58334,0 -6.45834,-0.106511 -4.16667,-0.236692 z M 130.06266,-0.31318096 C 127.08281,-2.657133 126.83605,-11.529467 129.67185,-14.365263 c 1.64013,-1.640137 4.73777,-1.614649 6.24551,0.05139 2.71435,2.999316 2.50704,11.867197 -0.33114,14.16541904 -1.90726,1.54440796 -3.40763,1.49966396 -5.52356,-0.164727 z m 4.84856,-1.27107604 c 1.0966,-2.04902 0.85916,-10.172469 -0.34768,-11.89549 -1.23022,-1.75637 -1.84362,-1.838346 -3.24792,-0.434052 -1.30803,1.308032 -1.50608,11.560591 -0.24762,12.819048 1.20124,1.20124104 3.06543,0.96380204 3.84322,-0.489506 z m -55.127841,0.452861 c 1.01679,-0.823179 3.71679,-4.617247 6,-8.431264 2.28321,-3.814016 4.45129,-6.964016 4.81796,-7 0.37064,-0.03637 0.99118,3.272936 1.39748,7.452789 0.58941,6.063377 0.97642,7.704096 2,8.47879804 1.15752,0.876068 0.96124,0.962449 -2.23082,0.981786 -1.925,0.01166 -3.5,-0.278798 -3.5,-0.645464 0,-0.366667 0.45,-0.666667 1,-0.666667 0.66667,0 1,-0.66666704 1,-2.00000004 0,-1.918155 -0.11963,-2 -2.92332,-2 -2.44001,0 -3.11824,0.297476 -4.10224,1.799253 -0.80549,1.229327 -0.93536,1.880438 -0.41001,2.055555 1.78938,0.59646104 0.55536,1.47827604 -2.06443,1.47521404 l -2.83333,-0.0033 1.84871,-1.49672204 z m 9.81796,-8.163355 c 0,-1.65 -0.225,-2.99769 -0.5,-2.994866 -0.47826,0.0049 -3.5,4.86297 -3.5,5.626944 0,0.202357 0.9,0.367922 2,0.367922 1.92592,0 2,-0.111112 2,-3 z m 13.333331,5.666666 c 0,-0.405598 2.98689,-0.666666 7.62732,-0.666666 4.36576,0 7.80351,0.285077 8.03935,0.666666 0.26598,0.430367 -2.43752,0.666667 -7.62732,0.666667 -4.91512,0 -8.03935,-0.259078 -8.03935,-0.666667 z m 3.83333,-4.493598 c 2.29167,-0.13018 6.04167,-0.13018 8.33334,0 2.29166,0.130181 0.41666,0.236692 -4.16667,0.236692 -4.58333,0 -6.45833,-0.106511 -4.16667,-0.236692 z"
       id="path756" />
  </g>
</svg>
