<?xml version="1.0" encoding="UTF-8" standalone="no"?>
<svg
   xmlns:dc="http://purl.org/dc/elements/1.1/"
   xmlns:cc="http://creativecommons.org/ns#"
   xmlns:rdf="http://www.w3.org/1999/02/22-rdf-syntax-ns#"
   xmlns:svg="http://www.w3.org/2000/svg"
   xmlns="http://www.w3.org/2000/svg"
   xmlns:sodipodi="http://sodipodi.sourceforge.net/DTD/sodipodi-0.dtd"
   xmlns:inkscape="http://www.inkscape.org/namespaces/inkscape"
   version="1.1"
   id="svg586"
   width="368.37833"
   height="305.31491"
   viewBox="0 0 368.37833 305.31491"
   sodipodi:docname="5-3-example-1.svg"
   inkscape:version="1.0.1 (c497b03c, 2020-09-10)">
  <metadata
     id="metadata592">
    <rdf:RDF>
      <cc:Work
         rdf:about="">
        <dc:format>image/svg+xml</dc:format>
        <dc:type
           rdf:resource="http://purl.org/dc/dcmitype/StillImage" />
        <dc:title></dc:title>
      </cc:Work>
    </rdf:RDF>
  </metadata>
  <defs
     id="defs590" />
  <sodipodi:namedview
     pagecolor="#ffffff"
     bordercolor="#666666"
     borderopacity="1"
     objecttolerance="10"
     gridtolerance="10"
     guidetolerance="10"
     inkscape:pageopacity="0"
     inkscape:pageshadow="2"
     inkscape:window-width="1091"
     inkscape:window-height="678"
     id="namedview588"
     showgrid="false"
     fit-margin-top="0"
     fit-margin-left="0"
     fit-margin-right="0"
     fit-margin-bottom="0"
     inkscape:pagecheckerboard="true"
     inkscape:zoom="0.80054431"
     inkscape:cx="148.63638"
     inkscape:cy="137.47169"
     inkscape:window-x="150"
     inkscape:window-y="25"
     inkscape:window-maximized="0"
     inkscape:current-layer="g594" />
  <g
     inkscape:groupmode="layer"
     inkscape:label="Image"
     id="g594"
     transform="translate(-23.333333,-13.333334)">
    <path
       style="fill:#1d1d1d;stroke-width:0.666667"
       d="m 145.33333,318.19478 c 0,-0.25954 1.11089,-1.60954 2.46864,-3 l 2.46863,-2.52811 -2.59199,-2.65442 c -3.38164,-3.46313 -2.46283,-4.38194 1.0003,-1.0003 l 2.65442,2.59199 L 154,309.00001 c 3.16373,-3.0893 3.65121,-1.74593 0.53364,1.47058 l -2.13303,2.20073 2.47992,2.53967 c 3.2372,3.3152 2.31018,4.23799 -1.0052,1.00061 l -2.542,-2.48219 -2.5281,2.46863 c -2.44672,2.38915 -3.4719,2.97875 -3.4719,1.99674 z M 26.347213,289.74116 c -5.349727,-5.34973 -0.572124,-17.16554 5.931596,-14.66983 1.393304,0.53466 1.404048,3.59534 0.01262,3.59534 -0.68721,0 -0.970902,-0.48954 -0.833334,-1.43803 0.479857,-3.30844 -3.692117,-1.14569 -4.519954,2.34314 -0.418954,1.76565 -0.351363,1.85123 0.923278,1.16906 C 30.807965,279.16389 34,281.75387 34,285.72161 c 0,2.283 -0.348617,3.12251 -1.756573,4.23001 -2.293841,1.80433 -3.940182,1.74557 -5.896214,-0.21046 z m 4.962664,-1.03066 c 1.548735,-2.89383 0.347529,-7.37716 -1.976544,-7.37716 -1.515202,0 -2.666666,1.87113 -2.666666,4.33333 0,2.46221 1.151464,4.33334 2.666666,4.33334 0.707532,0 1.596977,-0.58028 1.976544,-1.28951 z m 6.48179,1.52562 c -0.943677,-0.94368 -0.409688,-2.23611 0.923882,-2.23611 0.931975,0 1.312004,0.36203 1.166667,1.11142 -0.237962,1.22698 -1.376001,1.83924 -2.090549,1.12469 z m 103.875003,-0.23611 c 0.22661,-0.36667 0.83275,-0.66667 1.34698,-0.66667 0.52004,0 1.2243,-1.10945 1.58696,-2.5 1.6368,-6.2761 2.73272,-10.72609 2.73272,-11.09623 0,-0.22208 -0.45,-0.40377 -1,-0.40377 -0.55,0 -1,-0.31811 -1,-0.70691 0,-0.40546 1.02292,-0.61868 2.39882,-0.5 2.34367,0.20216 2.45355,0.34092 4.78054,6.03747 1.30996,3.20681 2.50345,5.70885 2.65221,5.56009 0.14876,-0.14876 0.82249,-2.41652 1.49718,-5.03949 1.03913,-4.0398 1.08231,-4.82443 0.28231,-5.13141 -1.84347,-0.70741 -0.90567,-1.55308 1.72228,-1.55308 2.75043,0 3.59582,0.94858 1.45183,1.62905 -0.91013,0.28887 -1.60803,2.05119 -2.78251,7.02635 -1.51412,6.41394 -2.31328,8.65115 -2.8548,7.99196 -0.14188,-0.17272 -1.57325,-3.42928 -3.18083,-7.23682 l -2.92287,-6.92278 -1.54751,6.16402 c -1.47965,5.89372 -1.49524,6.20368 -0.35541,7.06826 1.0569,0.80167 0.82851,0.90662 -2.01392,0.92542 -1.9723,0.0131 -3.04746,-0.23534 -2.79398,-0.64546 z m 71.18204,-0.83665 c 1.01679,-0.82318 3.71679,-4.61725 6,-8.43126 2.28321,-3.81402 4.45129,-6.96402 4.81796,-7 0.37064,-0.0364 0.99118,3.27293 1.39748,7.45279 0.58941,6.06338 0.97642,7.70409 2,8.4788 1.15752,0.87606 0.96124,0.96244 -2.23082,0.98178 -1.925,0.0117 -3.5,-0.2788 -3.5,-0.64546 0,-0.36667 0.45,-0.66667 1,-0.66667 0.66667,0 1,-0.66667 1,-2 0,-1.91815 -0.11963,-2 -2.92332,-2 -2.44001,0 -3.11824,0.29747 -4.10224,1.79925 -0.80549,1.22933 -0.93536,1.88044 -0.41001,2.05556 1.78938,0.59646 0.55536,1.47828 -2.06443,1.47521 l -2.83333,-0.003 1.84871,-1.4967 z m 9.81796,-8.16335 c 0,-1.65 -0.225,-2.99769 -0.5,-2.99487 -0.47826,0.005 -3.5,4.86297 -3.5,5.62695 0,0.20235 0.9,0.36792 2,0.36792 1.92592,0 2,-0.11112 2,-3 z m -14.66667,5 v -2.66667 h -6 c -3.55555,0 -6,-0.27161 -6,-0.66667 0,-0.4 2.66667,-0.66666 6.66667,-0.66666 h 6.66666 v 3.33333 c 0,1.83333 -0.3,3.33333 -0.66666,3.33333 -0.36667,0 -0.66667,-1.2 -0.66667,-2.66666 z m -56.66667,-20.22836 c 0,-0.67444 29.38556,-32.10961 30.18335,-32.28861 0.71657,-0.16076 28.54817,29.2049 30.06227,31.71928 1.63997,2.72343 -2.00906,-0.92811 -15.19188,-15.20232 -7.95785,-8.61666 -14.6277,-15.61682 -14.8219,-15.55589 -0.19419,0.0609 -6.80238,7.11093 -14.68485,15.66667 -13.05144,14.16619 -15.54699,16.68003 -15.54699,15.66087 z M 26.148337,224.9622 C 24.338831,223.69477 24.042235,220 25.75,220 c 0.847168,0 0.996487,0.43423 0.684955,1.99189 -0.343891,1.71946 -0.171743,2.04877 1.258658,2.40778 0.942172,0.23647 2.084711,0.0609 2.648378,-0.40685 0.99921,-0.82927 1.348012,-4.9543 0.586683,-6.93829 -0.510677,-1.33081 -2.507558,-1.36523 -3.589249,-0.0619 -1.355563,1.63336 -2.006092,0.4844 -2.006092,-3.54311 v -3.8051 h 3.992593 c 3.868168,0 3.954593,0.038 2.773257,1.21933 -0.670635,0.67064 -2.167302,1.24629 -3.325926,1.27924 -1.818701,0.0517 -2.10659,0.30105 -2.10659,1.82457 0,1.61454 0.192965,1.74215 2.26802,1.4999 5.366935,-0.62656 7.24897,7.02431 2.350966,9.55717 -2.391988,1.23694 -3.297881,1.22593 -5.137316,-0.0625 z m 11.64333,-0.0594 c -0.943677,-0.94368 -0.409688,-2.23611 0.923882,-2.23611 0.931975,0 1.312004,0.36203 1.166667,1.11142 -0.237962,1.22699 -1.376001,1.83924 -2.090549,1.12469 z M 179.66667,224.66667 C 179.89328,224.3 180.49942,224 181.01365,224 c 0.52004,0 1.2243,-1.10945 1.58696,-2.5 1.6368,-6.2761 2.73272,-10.72609 2.73272,-11.09622 0,-0.22208 -0.45,-0.40378 -1,-0.40378 -0.55,0 -1,-0.3181 -1,-0.70691 0,-0.40546 1.02292,-0.61867 2.39882,-0.5 2.34367,0.20216 2.45355,0.34093 4.78054,6.03747 1.30996,3.20682 2.50345,5.70886 2.65221,5.5601 0.14876,-0.14876 0.82249,-2.41653 1.49718,-5.0395 1.03913,-4.0398 1.08231,-4.82442 0.28231,-5.13141 -1.84347,-0.70741 -0.90567,-1.55308 1.72228,-1.55308 2.75043,0 3.59582,0.94858 1.45183,1.62905 -0.91013,0.28887 -1.60803,2.05119 -2.78251,7.02636 -1.51412,6.41394 -2.31328,8.65114 -2.8548,7.99195 -0.14188,-0.17271 -1.57325,-3.42928 -3.18083,-7.23681 l -2.92287,-6.92278 -1.54751,6.16402 c -1.47965,5.89372 -1.49524,6.20368 -0.35541,7.06825 1.0569,0.80167 0.82851,0.90663 -2.01392,0.92543 -1.9723,0.0131 -3.04746,-0.23534 -2.79398,-0.64547 z m -3.66667,-4 V 218 h -6 c -3.55555,0 -6,-0.2716 -6,-0.66666 0,-0.4 2.66667,-0.66667 6.66667,-0.66667 h 6.66666 V 220 c 0,1.83334 -0.3,3.33334 -0.66666,3.33334 -0.36667,0 -0.66667,-1.2 -0.66667,-2.66667 z m 3.03715,-30.35464 c -1.72373,-3.86172 -2.99826,-7.38672 -2.83228,-7.83333 0.29909,-0.80484 5.79513,10.31124 5.79513,11.72102 0,1.39936 1.10045,-0.51648 3.6679,-6.38567 1.40811,-3.21894 2.80761,-5.60521 3.10999,-5.30282 0.55039,0.55039 -5.41122,14.81939 -6.19229,14.82117 -0.22793,5.2e-4 -1.82473,-3.15865 -3.54845,-7.02037 z M 27.333333,196 c 0,-0.36666 0.45,-0.66666 1,-0.66666 0.555556,0 1,-0.5926 1,-1.33334 0,-1.1358 -0.444444,-1.33333 -3,-1.33333 -1.65,0 -3,-0.30249 -3,-0.67219 0,-0.92067 6.877224,-11.2941 7.5,-11.3128 0.275,-0.008 0.5,2.39466 0.5,5.3398 0,4.93006 0.118986,5.40265 1.5,5.95775 1.086806,0.43684 1.189466,0.61457 0.372678,0.64518 -1.912689,0.0717 -2.151526,1.49159 -0.468558,2.78558 l 1.59588,1.22703 -3.5,0.0148 c -1.925,0.008 -3.5,-0.28515 -3.5,-0.65182 z m 2,-7.66666 c 0,-2.01667 -0.105157,-3.66667 -0.233682,-3.66667 -0.271328,0 -4.432984,6.61314 -4.432984,7.0443 0,0.15897 1.05,0.28903 2.333333,0.28903 h 2.333333 z M 37.125,196.23612 C 36.181323,195.29244 36.715312,194 38.048883,194 c 0.931974,0 1.312003,0.36204 1.166666,1.11142 -0.237962,1.22699 -1.376001,1.83924 -2.090549,1.1247 z M 150.33333,196 c 0.22662,-0.36666 0.83276,-0.66666 1.34698,-0.66666 0.52005,0 1.22431,-1.10946 1.58696,-2.5 1.63681,-6.2761 2.73273,-10.7261 2.73273,-11.09623 0,-0.22208 -0.45,-0.40377 -1,-0.40377 -0.55,0 -1,-0.33079 -1,-0.73508 0,-0.49632 1.83466,-0.65872 5.6484,-0.5 6.43678,0.26789 8.13613,1.29294 8.74489,5.27493 0.46199,3.02191 -1.96178,7.77444 -4.99188,9.7881 -1.90184,1.26387 -3.16486,1.50538 -7.87268,1.50538 -3.56852,0 -5.4576,-0.24241 -5.1954,-0.66667 z m 11.99088,-2.11193 c 3.52262,-2.77089 4.88124,-9.25717 2.40785,-11.49555 -0.8486,-0.76798 -2.10357,-1.07775 -3.79465,-0.93666 -2.52396,0.21058 -2.52796,0.21572 -3.65581,4.69982 -0.621,2.46894 -1.32699,5.54394 -1.56889,6.83333 l -0.4398,2.34433 h 2.60698 c 1.6648,0 3.27099,-0.52232 4.44432,-1.44527 z m 35.85784,1.27529 c 1.01678,-0.82318 3.71678,-4.61725 6,-8.43126 2.2832,-3.81402 4.45128,-6.96402 4.81795,-7 0.37064,-0.0364 0.99118,3.27293 1.39749,7.45278 0.5894,6.06338 0.97642,7.7041 2,8.4788 1.15751,0.87607 0.96123,0.96245 -2.23082,0.98179 -1.925,0.0117 -3.5,-0.2788 -3.5,-0.64547 0,-0.36666 0.45,-0.66666 1,-0.66666 0.66666,0 1,-0.66667 1,-2 0,-1.91816 -0.11964,-2 -2.92333,-2 -2.44001,0 -3.11824,0.29747 -4.10224,1.79925 -0.80549,1.22933 -0.93536,1.88044 -0.41001,2.05555 1.78938,0.59646 0.55536,1.47828 -2.06442,1.47522 l -2.83334,-0.003 1.84872,-1.49669 z M 208,187 c 0,-1.65 -0.225,-2.99768 -0.5,-2.99486 -0.47825,0.005 -3.5,4.86297 -3.5,5.62694 0,0.20236 0.9,0.36792 2,0.36792 1.92593,0 2,-0.11111 2,-3 z m -26.38448,-28.66666 c 5.5e-4,-7.7 0.0976,-10.7587 0.21565,-6.7971 0.11808,3.96159 0.11763,10.26159 -6.6e-4,14 -0.11862,3.7384 -0.21522,0.4971 -0.21467,-7.2029 z m -36.59269,-23.37171 c -4.12132,-4.44697 -4.57717,-13.58298 -0.96216,-19.28326 2.4589,-3.87729 3.87742,-3.94774 1.61078,-0.08 -3.08168,5.25848 -3.05309,13.51294 0.0627,18.10431 2.04718,3.0167 1.61939,3.77383 -0.71132,1.25895 z m 86.3105,1.41128 c 0,-0.27523 0.61392,-1.36259 1.36428,-2.41636 2.17374,-3.05274 3.06071,-8.57531 2.10769,-13.12321 -0.44181,-2.10834 -1.40373,-4.64619 -2.13763,-5.63968 -1.57066,-2.12625 -1.66618,-2.61248 -0.41919,-2.13397 0.50333,0.19315 1.70333,1.79933 2.66667,3.56929 3.20692,5.8922 2.15528,15.05584 -2.17754,18.97435 -0.77236,0.69849 -1.40428,1.04481 -1.40428,0.76958 z M 24.969697,129.69697 c -1.892572,-1.89257 -2.06544,-2.90749 -0.591552,-3.47308 1.50468,-0.5774 2.710534,0.79767 1.732718,1.97587 C 25.175394,129.32692 25.74877,130 27.644445,130 c 1.991548,0 3.022222,-1.25044 3.022222,-3.66666 0,-2.38846 -1.021595,-3.65809 -2.966667,-3.68694 -1.357707,-0.0201 -1.357925,-0.0251 -0.03333,-0.74955 2.908738,-1.59096 3.708384,-3.75989 2.011727,-5.45655 -1.542279,-1.54228 -3.541277,-0.69024 -3.152468,1.34369 0.257694,1.34803 0.08294,1.63568 -0.880291,1.44897 -1.770819,-0.34325 -1.913713,-1.63154 -0.353968,-3.19129 1.492127,-1.49213 4.041113,-1.779 6.085494,-0.68488 1.606504,0.85978 1.722236,4.11525 0.2004,5.63708 -1.007698,1.0077 -0.982782,1.16358 0.333333,2.08542 2.109285,1.47741 1.933716,5.08843 -0.334133,6.87233 -2.330171,1.83291 -4.60727,1.74515 -6.607064,-0.25465 z m 167.922263,0.99584 c -2.78569,-1.17209 -2.64814,-4.23017 0.31069,-6.90788 1.03776,-0.93916 1.25074,-1.7624 0.97938,-3.78561 -0.46929,-3.49879 0.2088,-5.82192 1.85151,-6.3433 3.08789,-0.98005 4.36142,2.81454 1.96646,5.85923 -1.69472,2.15449 -1.68183,2.32904 0.39793,5.38969 l 1.73126,2.54778 1.60208,-2.35766 c 1.70756,-2.51291 2.0181,-3.76172 0.9354,-3.76172 -0.36667,0 -0.66667,-0.3 -0.66667,-0.66667 C 202,120.3 203.2,120 204.66667,120 c 2.73116,0 3.62972,0.92598 1.45134,1.49564 -0.66843,0.1748 -2.04104,1.7268 -3.05026,3.44889 -1.46592,2.50141 -1.67434,3.32458 -1.03638,4.09327 1.16954,1.40922 2.99074,1.17522 4.18568,-0.5378 0.57549,-0.825 1.06208,-1.125 1.08132,-0.66666 0.0193,0.45833 -0.59104,1.45933 -1.35614,2.22444 -1.06413,1.06412 -1.80845,1.27278 -3.16667,0.88768 -2.10498,-0.59681 -3.73013,-0.61084 -6.44223,-0.0556 -1.1,0.2252 -2.64862,0.13654 -3.44137,-0.19702 z m 5.00797,-1.28352 c 0.71159,-0.45094 0.48794,-1.13903 -1.06864,-3.28782 -2.14268,-2.9579 -3.49796,-2.74667 -3.49796,0.5452 0,2.82976 2.27399,4.19547 4.5666,2.74262 z M 198,116.58504 c 0,-1.22067 -0.34735,-1.91837 -0.95507,-1.91837 -1.19216,0 -1.94374,2.21833 -1.36712,4.0351 C 196.29869,120.65798 198,119.1072 198,116.58504 Z M 37.125,130.23612 C 36.181323,129.29244 36.715312,128 38.048883,128 c 0.931974,0 1.312003,0.36204 1.166666,1.11142 -0.237962,1.22699 -1.376001,1.83924 -2.090549,1.1247 z M 165,130 c 0.22661,-0.36666 0.83275,-0.66666 1.34698,-0.66666 0.52005,0 1.22431,-1.10946 1.58696,-2.5 1.63681,-6.2761 2.73273,-10.7261 2.73273,-11.09623 0,-0.22208 -0.45,-0.40377 -1,-0.40377 -0.55,0 -1,-0.31811 -1,-0.70692 0,-0.40546 1.02292,-0.61867 2.39881,-0.5 2.34367,0.20216 2.45355,0.34093 4.78055,6.03748 1.30995,3.20681 2.50344,5.70885 2.6522,5.56009 0.14876,-0.14876 0.8225,-2.41653 1.49718,-5.03949 1.03914,-4.0398 1.08231,-4.82443 0.28232,-5.13142 C 178.43425,114.84568 179.37205,114 182,114 c 2.75043,0 3.59582,0.94858 1.45183,1.62906 -0.91013,0.28886 -1.60803,2.05118 -2.7825,7.02635 -1.51413,6.41394 -2.31328,8.65115 -2.8548,7.99195 -0.14188,-0.17271 -1.57326,-3.42928 -3.18084,-7.23681 l -2.92286,-6.92278 -1.54752,6.16402 c -1.47965,5.89372 -1.49524,6.20368 -0.35541,7.06825 1.05691,0.80168 0.82851,0.90663 -2.01391,0.92543 C 165.82169,130.65854 164.74653,130.41013 165,130 Z m 49.18205,-0.83664 c 1.01678,-0.82318 3.71678,-4.61725 6,-8.43126 2.2832,-3.81402 4.45128,-6.96402 4.81795,-7 0.37064,-0.0364 0.99118,3.27293 1.39749,7.45278 0.5894,6.06338 0.97642,7.7041 2,8.4788 1.15751,0.87607 0.96123,0.96245 -2.23082,0.98179 -1.925,0.0117 -3.5,-0.2788 -3.5,-0.64547 0,-0.36666 0.45,-0.66666 1,-0.66666 0.66666,0 1,-0.66667 1,-2 0,-1.91816 -0.11964,-2 -2.92333,-2 -2.44001,0 -3.11824,0.29747 -4.10224,1.79925 -0.80549,1.22933 -0.93536,1.88044 -0.41001,2.05555 1.78938,0.59646 0.55536,1.47828 -2.06442,1.47522 l -2.83334,-0.003 1.84872,-1.49669 z M 224,121 c 0,-1.65 -0.225,-2.99768 -0.5,-2.99486 -0.47825,0.005 -3.5,4.86297 -3.5,5.62694 0,0.20236 0.9,0.36792 2,0.36792 1.92593,0 2,-0.11111 2,-3 z m -87.33333,5 v -2.66666 h -6 c -3.55556,0 -6,-0.27161 -6,-0.66667 0,-0.4 2.66666,-0.66667 6.66666,-0.66667 H 138 v 3.33334 c 0,1.83333 -0.3,3.33333 -0.66667,3.33333 -0.36666,0 -0.66666,-1.2 -0.66666,-2.66667 z M 162,126 v -2.66666 h -6 c -3.55555,0 -6,-0.27161 -6,-0.66667 0,-0.4 2.66667,-0.66667 6.66667,-0.66667 h 6.66666 v 3.33334 c 0,1.83333 -0.3,3.33333 -0.66666,3.33333 C 162.3,128.66667 162,127.46667 162,126 Z m -3.62952,-30.354638 c -1.72373,-3.86172 -2.99825,-7.38672 -2.83228,-7.833334 0.29909,-0.804833 5.79513,10.311247 5.79513,11.721021 0,1.399371 1.10046,-0.516474 3.6679,-6.385667 1.40811,-3.21894 2.80761,-5.605207 3.11,-5.30282 0.55038,0.550386 -5.41122,14.819398 -6.1923,14.821168 -0.22792,5.2e-4 -1.82472,-3.158648 -3.54845,-7.020368 z m 61.29527,4.07988 c -0.973,-1.660287 -1.57812,-3.327674 -1.34474,-3.705307 0.76576,-1.239027 2.11642,-0.72 2.96331,1.138727 l 0.83167,1.825327 1.61962,-3.407694 c 1.72398,-3.627313 7.80863,-10.24296 9.42081,-10.24296 0.53127,0 -0.43089,1.357573 -2.13813,3.01682 -1.92746,1.873273 -3.8642,4.71622 -5.10934,7.5 -3.57104,7.983825 -3.76483,8.104115 -6.2432,3.875087 z M 24,101.37213 c 0,-0.34533 1.5,-2.342008 3.333333,-4.437062 2.485669,-2.840513 3.333334,-4.342266 3.333334,-5.90546 0,-2.470193 -1.026298,-3.696273 -3.093989,-3.696273 -1.864415,0 -2.601533,1.09364 -1.572678,2.333333 0.906005,1.091667 0.352927,2.333334 -1.039345,2.333334 -0.618837,0 -0.960655,-0.698187 -0.960655,-1.9622 0,-3.781534 5.145338,-5.40978 7.883791,-2.494834 2.377148,2.53036 1.879584,4.748807 -1.980496,8.830274 L 26.473257,100 h 2.661495 c 2.101277,0 2.813769,-0.315731 3.384918,-1.499998 l 0.723423,-1.5 0.04512,1.445473 C 33.385423,101.55969 32.76281,102 28.262007,102 25.917903,102 24,101.71746 24,101.37213 Z m 13.125,0.19732 c -0.943677,-0.94368 -0.409688,-2.236115 0.923883,-2.236115 0.931974,0 1.312003,0.362034 1.166666,1.111425 -0.237962,1.22698 -1.376001,1.83924 -2.090549,1.12469 z m 90.54167,-0.23611 c 0.22661,-0.36667 0.83275,-0.66667 1.34698,-0.66667 0.52004,0 1.2243,-1.109455 1.58696,-2.500001 1.6368,-6.276101 2.73272,-10.726094 2.73272,-11.096227 0,-0.22208 -0.45,-0.403774 -1,-0.403774 -0.55,0 -1,-0.318106 -1,-0.706913 0,-0.40546 1.02292,-0.618673 2.39882,-0.5 2.34367,0.20216 2.45355,0.340927 4.78054,6.037473 1.30996,3.206814 2.50345,5.708854 2.65221,5.560094 0.14876,-0.14876 0.82249,-2.416527 1.49718,-5.039494 1.03913,-4.0398 1.08231,-4.824426 0.28231,-5.131413 -1.84347,-0.707407 -0.90567,-1.55308 1.72228,-1.55308 2.75043,0 3.59582,0.94858 1.45183,1.629053 -0.91013,0.288867 -1.60803,2.051187 -2.78251,7.026354 -1.51412,6.413938 -2.31328,8.651148 -2.8548,7.991958 -0.14188,-0.17272 -1.57325,-3.429285 -3.18083,-7.236818 l -2.92287,-6.92278 -1.54751,6.16402 c -1.47965,5.89372 -1.49524,6.203678 -0.35541,7.068258 1.0569,0.80167 0.82851,0.90662 -2.01392,0.92542 -1.9723,0.0131 -3.04746,-0.23534 -2.79398,-0.64546 z m 65.18204,-0.83665 c 1.01679,-0.823181 3.71679,-4.617248 6,-8.431262 2.28321,-3.81402 4.45129,-6.96402 4.81796,-7 0.37064,-0.0364 0.99118,3.272934 1.39748,7.452787 0.58941,6.06338 0.97642,7.704095 2,8.478805 1.15752,0.87606 0.96124,0.96244 -2.23082,0.98178 -1.925,0.0117 -3.5,-0.2788 -3.5,-0.64546 0,-0.36667 0.45,-0.66667 1,-0.66667 0.66667,0 1,-0.66667 1,-2.000001 0,-1.918154 -0.11963,-2.000001 -2.92332,-2.000001 -2.44001,0 -3.11824,0.297474 -4.10224,1.799254 -0.80549,1.229327 -0.93536,1.880438 -0.41001,2.055558 1.78938,0.59646 0.55536,1.47828 -2.06443,1.47521 l -2.83333,-0.003 1.84871,-1.4967 z m 9.81796,-8.163355 c 0,-1.65 -0.225,-2.997687 -0.5,-2.994867 -0.47826,0.0047 -3.5,4.862974 -3.5,5.626947 0,0.202353 0.9,0.36792 2,0.36792 1.92592,0 2,-0.111113 2,-3 z m -14.66667,5 v -2.666667 h -6 c -3.55555,0 -6,-0.271606 -6,-0.666666 0,-0.4 2.66667,-0.666667 6.66667,-0.666667 h 6.66666 v 3.333333 c 0,1.833334 -0.3,3.333332 -0.66666,3.333332 C 188.3,100 188,98.800002 188,97.333335 Z M 100.35616,78.294961 c -4.12132,-4.446973 -4.577167,-13.582978 -0.962153,-19.28326 2.458903,-3.87729 3.877423,-3.947743 1.610773,-0.08 -3.081673,5.258481 -3.053087,13.512941 0.0627,18.104308 2.04718,3.0167 1.6194,3.773834 -0.71132,1.258953 z m 68.97717,1.411281 c 0,-0.275227 0.61392,-1.362587 1.36428,-2.416361 2.17374,-3.05274 3.06071,-8.575313 2.10769,-13.123213 -0.44181,-2.108333 -1.40373,-4.646186 -2.13763,-5.639672 -1.57066,-2.126253 -1.66618,-2.612486 -0.41919,-2.133974 0.50333,0.193146 1.70333,1.799328 2.66667,3.569296 3.20692,5.892187 2.15528,15.05583 -2.17754,18.974343 -0.77236,0.698494 -1.40428,1.044807 -1.40428,0.769581 z M 133.70381,67.645361 c -1.72372,-3.861722 -2.99825,-7.386723 -2.83228,-7.833336 0.2991,-0.804832 5.79514,10.31125 5.79514,11.721023 0,1.399367 1.10045,-0.516473 3.6679,-6.385664 1.4081,-3.218939 2.8076,-5.60521 3.10999,-5.302824 0.55039,0.550386 -5.41122,14.819395 -6.19229,14.821168 -0.22793,5.2e-4 -1.82473,-3.158647 -3.54846,-7.020367 z m 50.52148,6.38078 c -2.78568,-1.172093 -2.64814,-4.230166 0.3107,-6.90788 1.03776,-0.939157 1.25074,-1.762397 0.97937,-3.785604 -0.46929,-3.498796 0.2088,-5.821924 1.85151,-6.343301 3.08789,-0.980058 4.36142,2.814529 1.96646,5.859226 -1.69472,2.15449 -1.68183,2.329041 0.39794,5.389693 l 1.73126,2.54778 1.60207,-2.35766 c 1.70757,-2.512911 2.0181,-3.761727 0.9354,-3.761727 -0.36667,0 -0.66667,-0.3 -0.66667,-0.666667 0,-0.366666 1.2,-0.666666 2.66667,-0.666666 2.73116,0 3.62972,0.925981 1.45134,1.495639 -0.66843,0.174797 -2.04104,1.726798 -3.05025,3.448887 -1.46593,2.501414 -1.67434,3.32458 -1.03638,4.093274 1.16954,1.409213 2.99074,1.175213 4.18568,-0.5378 0.57548,-0.825 1.06208,-1.125 1.08131,-0.666667 0.0193,0.458333 -0.59103,1.459333 -1.35614,2.22444 -1.06413,1.064127 -1.80845,1.27278 -3.16667,0.887687 -2.10498,-0.596814 -3.73013,-0.610847 -6.44222,-0.0556 -1.1,0.225193 -2.64862,0.136533 -3.44138,-0.197027 z m 5.00798,-1.28352 c 0.71158,-0.45094 0.48793,-1.139033 -1.06864,-3.28782 -2.14269,-2.9579 -3.49796,-2.746666 -3.49796,0.5452 0,2.82976 2.27398,4.195474 4.5666,2.74262 z m 0.10006,-12.82425 c 0,-1.220668 -0.34735,-1.91837 -0.95507,-1.91837 -1.19215,0 -1.94374,2.21833 -1.36712,4.0351 0.62088,1.956213 2.32219,0.405428 2.32219,-2.11673 z m 62.99908,11.80687 c -0.97299,-1.660286 -1.57812,-3.327673 -1.34473,-3.705306 0.76576,-1.239027 2.11641,-0.72 2.96331,1.138726 l 0.83167,1.825327 1.61961,-3.407693 c 1.72399,-3.627317 7.80864,-10.242961 9.42082,-10.242961 0.53127,0 -0.43089,1.357571 -2.13814,3.016824 -1.92745,1.873267 -3.86419,4.716215 -5.10934,7.499997 -3.57104,7.983826 -3.76482,8.104113 -6.2432,3.875086 z M 24,73.650168 c 0,-0.192407 0.75,-0.634987 1.666667,-0.9835 1.608208,-0.61144 1.666666,-0.84514 1.666666,-6.662867 v -6.029203 l -1.666666,0.418307 C 24.727983,60.6285 24,60.522397 24,60.149991 c 0,-0.363671 0.675,-0.807615 1.5,-0.986541 0.825,-0.178926 2.025,-0.545996 2.666667,-0.815711 1.070519,-0.449976 1.166666,0.119842 1.166666,6.91427 0,6.960212 0.08003,7.404659 1.333334,7.404659 0.733333,0 1.333333,0.3 1.333333,0.666667 0,0.370373 -1.777778,0.666666 -4,0.666666 -2.2,0 -4,-0.157426 -4,-0.349833 z m 12.458333,-0.08072 c -0.943676,-0.94368 -0.409688,-2.236113 0.923883,-2.236113 0.931975,0 1.312003,0.362033 1.166667,1.11142 -0.237962,1.226986 -1.376002,1.83924 -2.09055,1.124693 z m 67.874997,-0.236113 c 0.22662,-0.366667 0.83276,-0.666667 1.34698,-0.666667 0.52005,0 1.22431,-1.109453 1.58696,-2.5 C 108.90408,63.890566 110,59.440574 110,59.070438 c 0,-0.222074 -0.45,-0.40377 -1,-0.40377 -0.55,0 -1,-0.330785 -1,-0.735078 0,-0.496316 1.83466,-0.658722 5.6484,-0.5 6.43678,0.267888 8.13613,1.292939 8.74489,5.274931 0.46199,3.021911 -1.96178,7.77444 -4.99188,9.7881 -1.90184,1.263867 -3.16486,1.50538 -7.87268,1.50538 -3.56852,0 -5.4576,-0.242406 -5.1954,-0.666666 z m 11.99088,-2.111934 c 3.52262,-2.770893 4.88124,-9.257171 2.40785,-11.495551 -0.8486,-0.767976 -2.10357,-1.077748 -3.79465,-0.936658 -2.52396,0.210579 -2.52796,0.215712 -3.65581,4.699813 -0.621,2.468952 -1.32699,5.54395 -1.56889,6.833336 l -0.4398,2.344327 h 2.60698 c 1.6648,0 3.27099,-0.52232 4.44432,-1.445267 z m 35.85784,1.275287 c 1.01678,-0.82318 3.71678,-4.617247 6,-8.431262 2.2832,-3.814016 4.45128,-6.964016 4.81795,-7 0.37064,-0.03637 0.99118,3.272936 1.39749,7.452789 0.5894,6.06338 0.97642,7.704093 2,8.4788 1.15751,0.876066 0.96123,0.962446 -2.23082,0.981786 -1.925,0.01166 -3.5,-0.2788 -3.5,-0.645466 0,-0.366667 0.45,-0.666667 1,-0.666667 0.66666,0 1,-0.666667 1,-2 0,-1.918153 -0.11964,-2 -2.92333,-2 -2.44001,0 -3.11824,0.297473 -4.10224,1.799253 -0.80549,1.229327 -0.93536,1.88044 -0.41001,2.055554 1.78938,0.59646 0.55536,1.47828 -2.06442,1.475213 l -2.83334,-0.0033 1.84872,-1.496694 z M 162,64.333335 c 0,-1.65 -0.225,-2.99769 -0.5,-2.994866 -0.47825,0.0049 -3.5,4.86297 -3.5,5.626946 0,0.202353 0.9,0.36792 2,0.36792 1.92593,0 2,-0.111114 2,-3 z m 58.33333,9 c 0.22662,-0.366667 0.83276,-0.666667 1.34698,-0.666667 0.52005,0 1.22431,-1.109453 1.58696,-2.5 C 224.90408,63.890566 226,59.440574 226,59.070438 c 0,-0.222074 -0.45,-0.40377 -1,-0.40377 -0.55,0 -1,-0.31811 -1,-0.70691 0,-0.405464 1.02292,-0.618678 2.39881,-0.5 2.34368,0.202154 2.45356,0.34092 4.78055,6.037472 1.30995,3.206811 2.50345,5.708851 2.65221,5.560091 0.14876,-0.14876 0.82249,-2.416529 1.49718,-5.03949 1.03913,-4.039806 1.0823,-4.824432 0.28231,-5.131417 -1.84347,-0.707408 -0.90567,-1.55308 1.72227,-1.55308 2.75044,0 3.59582,0.948582 1.45184,1.629056 -0.91014,0.288866 -1.60804,2.051182 -2.78251,7.02635 -1.51413,6.413941 -2.31328,8.651148 -2.8548,7.991955 -0.14188,-0.172714 -1.57325,-3.42928 -3.18083,-7.236814 l -2.92287,-6.92278 -1.54751,6.164023 c -1.47966,5.893717 -1.49524,6.203677 -0.35542,7.068251 1.05691,0.801673 0.82852,0.906626 -2.01391,0.925426 -1.9723,0.01307 -3.04746,-0.23534 -2.79399,-0.645466 z m -3.66666,-4 v -2.666667 h -6 c -3.55556,0 -6,-0.271605 -6,-0.666667 0,-0.4 2.66666,-0.666666 6.66666,-0.666666 H 218 v 3.333333 c 0,1.833333 -0.3,3.333333 -0.66667,3.333333 -0.36666,0 -0.66666,-1.2 -0.66666,-2.666666 z M 28.997481,36.413931 C 28.042418,35.715572 27.671261,34.413098 27.453707,30.996474 27.218254,27.29875 26.944827,26.440244 25.916979,26.171456 24.283085,25.744183 24.322765,24.865668 26,24.333334 c 1.135948,-0.360536 1.333333,-1.00869 1.333333,-4.378259 0,-4.347675 1.404573,-6.621741 4.089906,-6.621741 1.345988,0 1.327895,0.075 -0.333333,1.38172 -1.532358,1.205352 -1.756573,1.869098 -1.756573,5.2 0,2.100054 -0.36,4.17828 -0.8,4.61828 -0.622222,0.622222 -0.622222,0.977778 0,1.6 0.44,0.44 0.8,2.514978 0.8,4.611062 0,3.381486 0.20665,3.965241 1.833334,5.17888 1.657894,1.236926 1.701986,1.369839 0.460753,1.388938 -0.754919,0.01161 -1.938392,-0.392611 -2.629939,-0.898283 z M 40.356157,35.628293 C 36.23484,31.181319 35.778993,22.045316 39.394004,16.345034 c 2.458905,-3.87729 3.877425,-3.947743 1.610778,-0.08 -3.081675,5.258481 -3.053089,13.512945 0.06269,18.104311 2.047185,3.016696 1.619394,3.773834 -0.711321,1.25895 z m 68.977173,1.41128 c 0,-0.275226 0.61392,-1.362587 1.36428,-2.416357 2.17374,-3.052739 3.06071,-8.575314 2.10769,-13.123216 -0.44181,-2.108333 -1.40373,-4.646185 -2.13763,-5.639671 -1.57066,-2.126253 -1.66618,-2.612487 -0.41919,-2.133975 0.50333,0.193146 1.70333,1.799329 2.66667,3.569296 3.20692,5.892188 2.15528,15.055834 -2.17754,18.974343 -0.77236,0.698495 -1.40428,1.044806 -1.40428,0.76958 z m 163.33334,-0.05607 c 0,-0.192408 0.7137,-0.621182 1.586,-0.952829 1.40493,-0.534155 1.61817,-1.108305 1.86783,-5.029139 0.17183,-2.698548 0.62822,-4.640222 1.16929,-4.974619 0.72349,-0.447141 0.68632,-0.835627 -0.20117,-2.102698 C 276.41745,22.965992 276,21.028978 276,18.872954 c 0,-3.12939 -0.19274,-3.6016 -1.83333,-4.491637 -1.77035,-0.960429 -1.7803,-0.995517 -0.28951,-1.021291 3.20418,-0.0554 4.12284,1.067756 4.12284,5.040591 0,4.032474 0.84009,6.26605 2.35679,6.26605 1.46591,0 1.17534,0.929947 -0.52346,1.675248 -1.28838,0.565242 -1.52794,1.243695 -1.69806,4.808944 -0.16099,3.373759 -0.46958,4.341032 -1.64834,5.166666 -1.38968,0.97337 -3.82026,1.397086 -3.82026,0.665974 z m -90.41001,-2.62671 c 1.34388,-2.051023 1.36854,-3.023455 0.0767,-3.023455 -0.55555,0 -1,-0.592593 -1,-1.333333 0,-0.888889 0.44445,-1.333334 1.33334,-1.333334 1.08404,0 1.33333,0.444445 1.33333,2.377161 0,2.626596 -0.98713,4.956173 -2.10013,4.956173 -0.4189,0 -0.26972,-0.68703 0.35679,-1.643212 z M 73.703813,24.978691 c -1.723726,-3.86172 -2.998253,-7.38672 -2.83228,-7.833333 0.299094,-0.804832 5.795134,10.311248 5.795134,11.721021 0,1.399371 1.100453,-0.516474 3.6679,-6.385663 1.408106,-3.218939 2.807606,-5.60521 3.109993,-5.302824 0.550387,0.550387 -5.41122,14.819397 -6.192293,14.821169 -0.227927,5.16e-4 -1.824727,-3.15865 -3.548454,-7.02037 z m 50.521477,6.380785 c -2.78568,-1.172097 -2.64814,-4.230168 0.3107,-6.90788 1.03776,-0.93916 1.25074,-1.7624 0.97937,-3.785606 -0.46929,-3.498796 0.2088,-5.821924 1.85151,-6.343302 3.08789,-0.980057 4.36142,2.81453 1.96646,5.859226 -1.69472,2.15449 -1.68183,2.329041 0.39794,5.38969 l 1.73126,2.547784 1.60207,-2.357658 C 134.77217,23.248816 135.0827,22 134,22 c -0.36667,0 -0.66667,-0.3 -0.66667,-0.666666 0,-0.366667 1.2,-0.666667 2.66667,-0.666667 2.73116,0 3.62972,0.925981 1.45134,1.495639 -0.66843,0.174798 -2.04104,1.726798 -3.05025,3.44889 -1.46593,2.501411 -1.67434,3.324577 -1.03638,4.093274 1.16954,1.409211 2.99074,1.175212 4.18568,-0.537803 0.57548,-0.825 1.06208,-1.125 1.08131,-0.666666 0.0193,0.458333 -0.59103,1.45933 -1.35614,2.224438 -1.06413,1.064131 -1.80845,1.272779 -3.16667,0.887689 -2.10498,-0.596817 -3.73013,-0.610849 -6.44222,-0.05563 -1.1,0.225194 -2.64862,0.136532 -3.44138,-0.197025 z m 5.00798,-1.283521 c 0.71158,-0.450941 0.48793,-1.139038 -1.06864,-3.287823 -2.14269,-2.957899 -3.49796,-2.746663 -3.49796,0.545202 0,2.829757 2.27398,4.195473 4.5666,2.742621 z m 0.10006,-12.824251 c 0,-1.220668 -0.34735,-1.91837 -0.95507,-1.91837 -1.19215,0 -1.94374,2.21833 -1.36712,4.0351 0.62088,1.956212 2.32219,0.405427 2.32219,-2.11673 z m 91.70382,7.726987 c -1.72373,-3.86172 -2.99826,-7.38672 -2.83228,-7.833333 C 218.50396,16.340526 224,27.456606 224,28.866379 c 0,1.399371 1.10045,-0.516474 3.6679,-6.385663 1.40811,-3.218939 2.80761,-5.60521 3.10999,-5.302824 0.55039,0.550387 -5.41122,14.819397 -6.19229,14.821169 -0.22793,5.16e-4 -1.82473,-3.15865 -3.54845,-7.02037 z m 133.85481,6.380785 c -2.78569,-1.172097 -2.64814,-4.230168 0.31069,-6.90788 1.03776,-0.93916 1.25074,-1.7624 0.97938,-3.785606 -0.46929,-3.498796 0.2088,-5.821924 1.85151,-6.343302 3.08789,-0.980057 4.36142,2.81453 1.96646,5.859226 -1.69472,2.15449 -1.68183,2.329041 0.39793,5.38969 l 1.73126,2.547784 1.60208,-2.357658 C 365.43883,23.248816 365.74937,22 364.66667,22 364.3,22 364,21.7 364,21.333334 c 0,-0.366667 1.2,-0.666667 2.66667,-0.666667 2.73116,0 3.62972,0.925981 1.45134,1.495639 -0.66843,0.174798 -2.04104,1.726798 -3.05026,3.44889 -1.46592,2.501411 -1.67434,3.324577 -1.03638,4.093274 1.16954,1.409211 2.99074,1.175212 4.18568,-0.537803 0.57549,-0.825 1.06208,-1.125 1.08132,-0.666666 0.0193,0.458333 -0.59104,1.45933 -1.35614,2.224438 -1.06413,1.064131 -1.80845,1.272779 -3.16667,0.887689 -2.10498,-0.596817 -3.73013,-0.610849 -6.44223,-0.05563 -1.1,0.225194 -2.64862,0.136532 -3.44137,-0.197025 z m 5.00797,-1.283521 c 0.71159,-0.450941 0.48794,-1.139038 -1.06864,-3.287823 -2.14268,-2.957899 -3.49796,-2.746663 -3.49796,0.545202 0,2.829757 2.27399,4.195473 4.5666,2.742621 z M 360,17.251704 c 0,-1.220668 -0.34735,-1.91837 -0.95507,-1.91837 -1.19216,0 -1.94374,2.21833 -1.36712,4.0351 C 358.29869,21.324646 360,19.773861 360,17.251704 Z M 45,30.666667 c 0.226613,-0.366666 0.832755,-0.666666 1.346982,-0.666666 0.520042,0 1.224304,-1.109453 1.586958,-2.5 1.636804,-6.276103 2.732727,-10.726095 2.732727,-11.096231 0,-0.222073 -0.45,-0.40377 -1,-0.40377 -0.55,0 -1,-0.330784 -1,-0.735077 0,-0.496317 1.834662,-0.658722 5.648403,-0.5 6.436779,0.267888 8.136129,1.292939 8.74489,5.274931 0.461985,3.02191 -1.961779,7.774437 -4.991882,9.788099 -1.901836,1.26387 -3.164867,1.505381 -7.872678,1.505381 -3.568519,0 -5.457608,-0.242405 -5.1954,-0.666667 z m 11.990881,-2.111933 c 3.522619,-2.770894 4.88123,-9.257172 2.407848,-11.495551 -0.848604,-0.767976 -2.103574,-1.077748 -3.794656,-0.936658 -2.523961,0.210579 -2.527954,0.215712 -3.655807,4.699812 -0.620997,2.468952 -1.326995,5.543952 -1.568885,6.833334 l -0.439798,2.34433 h 2.606969 c 1.664807,0 3.270994,-0.522322 4.444329,-1.445267 z m 35.857832,1.275289 c 1.016787,-0.823179 3.716787,-4.617248 6,-8.431265 2.283207,-3.814016 4.451287,-6.964016 4.817957,-7 0.37064,-0.03637 0.99118,3.272936 1.39748,7.45279 0.58941,6.063377 0.97642,7.704095 2,8.478798 1.15752,0.876067 0.96124,0.962449 -2.23082,0.981786 -1.925,0.01166 -3.5,-0.278798 -3.5,-0.645465 0,-0.366666 0.45,-0.666666 1,-0.666666 0.66667,0 1,-0.666667 1,-2 C 103.33333,26.081846 103.2137,26 100.41001,26 c -2.44001,0 -3.118243,0.297476 -4.102243,1.799253 -0.805487,1.229328 -0.93536,1.880438 -0.410007,2.055556 1.78938,0.59646 0.55536,1.478276 -2.064427,1.475214 L 91,31.326689 92.848713,29.830001 Z m 9.817957,-8.163356 c 0,-1.65 -0.225,-2.997689 -0.5,-2.994865 -0.47826,0.0049 -3.500003,4.862969 -3.500003,5.626944 0,0.202356 0.9,0.367921 2.000003,0.367921 1.92592,0 2,-0.111111 2,-3 z m 57.66666,9 c 0.22662,-0.366666 0.83276,-0.666666 1.34698,-0.666666 0.52005,0 1.22431,-1.109453 1.58696,-2.5 C 164.90408,21.223898 166,16.773906 166,16.40377 166,16.181697 165.55,16 165,16 c -0.55,0 -1,-0.318109 -1,-0.70691 0,-0.405464 1.02292,-0.618678 2.39881,-0.5 2.34368,0.202154 2.45356,0.340921 4.78055,6.037472 1.30995,3.20681 2.50345,5.708851 2.65221,5.560092 0.14876,-0.14876 0.82249,-2.41653 1.49718,-5.03949 1.03913,-4.039806 1.0823,-4.824432 0.28231,-5.131418 -1.84347,-0.707408 -0.90567,-1.553079 1.72227,-1.553079 2.75044,0 3.59582,0.948582 1.45184,1.629056 -0.91014,0.288866 -1.60804,2.051182 -2.78251,7.026349 -1.51413,6.413941 -2.31328,8.651151 -2.8548,7.991955 -0.14188,-0.172714 -1.57325,-3.429279 -3.18083,-7.23681 l -2.92287,-6.922783 -1.54751,6.164022 c -1.47966,5.893721 -1.49524,6.203676 -0.35542,7.068249 1.05691,0.801679 0.82852,0.906629 -2.01391,0.925427 -1.9723,0.01304 -3.04746,-0.235339 -2.79399,-0.645465 z m 30.66667,0 c 0.22661,-0.366666 0.83275,-0.666666 1.34698,-0.666666 0.52005,0 1.22431,-1.109453 1.58696,-2.5 1.63681,-6.276103 2.73273,-10.726095 2.73273,-11.096231 0,-0.222073 -0.45,-0.40377 -1,-0.40377 -0.55,0 -1,-0.318109 -1,-0.70691 0,-0.405464 1.02292,-0.618678 2.39881,-0.5 2.34367,0.202154 2.45355,0.340921 4.78055,6.037472 1.30995,3.20681 2.50344,5.708851 2.6522,5.560092 0.14876,-0.14876 0.8225,-2.41653 1.49718,-5.03949 1.03914,-4.039806 1.08231,-4.824432 0.28232,-5.131418 -1.84348,-0.707408 -0.90568,-1.553079 1.72227,-1.553079 2.75043,0 3.59582,0.948582 1.45183,1.629056 -0.91013,0.288866 -1.60803,2.051182 -2.7825,7.026349 -1.51413,6.413941 -2.31328,8.651151 -2.8548,7.991955 -0.14188,-0.172714 -1.57326,-3.429279 -3.18084,-7.23681 l -2.92286,-6.922783 -1.54752,6.164022 c -1.47965,5.893721 -1.49524,6.203676 -0.35541,7.068249 1.05691,0.801679 0.82851,0.906629 -2.01391,0.925427 -1.9723,0.01304 -3.04746,-0.235339 -2.79399,-0.645465 z m 65.18205,-0.836644 c 1.01678,-0.823179 3.71678,-4.617248 6,-8.431265 2.2832,-3.814016 4.45128,-6.964016 4.81795,-7 0.37064,-0.03637 0.99118,3.272936 1.39749,7.45279 0.5894,6.063377 0.97642,7.704095 2,8.478798 1.15751,0.876067 0.96123,0.962449 -2.23082,0.981786 -1.925,0.01166 -3.5,-0.278798 -3.5,-0.645465 0,-0.366666 0.45,-0.666666 1,-0.666666 0.66666,0 1,-0.666667 1,-2 0,-1.918155 -0.11964,-2.000001 -2.92333,-2.000001 -2.44001,0 -3.11824,0.297476 -4.10224,1.799253 -0.80549,1.229328 -0.93536,1.880438 -0.41001,2.055556 1.78938,0.59646 0.55536,1.478276 -2.06442,1.475214 l -2.83334,-0.0033 1.84872,-1.496688 z M 266,21.666667 c 0,-1.65 -0.225,-2.997689 -0.5,-2.994865 -0.47825,0.0049 -3.5,4.862969 -3.5,5.626944 0,0.202356 0.9,0.367921 2,0.367921 1.92593,0 2,-0.111111 2,-3 z M 291.33333,23 c 0,-5.438252 0.23568,-8.266366 0.66667,-8 0.36667,0.226613 0.66667,2.032185 0.66667,4.012384 v 3.60036 l 5.5,0.224598 5.5,0.224598 -5.5,0.135697 -5.5,0.135697 v 3.627322 c 0,1.995027 -0.3,3.812732 -0.66667,4.039345 C 291.56901,31.266367 291.33333,28.438253 291.33333,23 Z m 36.33334,7.666667 c 0.22661,-0.366666 0.83275,-0.666666 1.34698,-0.666666 0.52004,0 1.2243,-1.109453 1.58696,-2.5 1.6368,-6.276103 2.73272,-10.726095 2.73272,-11.096231 0,-0.222073 -0.45,-0.40377 -1,-0.40377 -0.55,0 -1,-0.318109 -1,-0.70691 0,-0.405464 1.02292,-0.618678 2.39882,-0.5 2.34367,0.202154 2.45355,0.340921 4.78054,6.037472 1.30996,3.20681 2.50345,5.708851 2.65221,5.560092 0.14876,-0.14876 0.82249,-2.41653 1.49718,-5.03949 1.03913,-4.039806 1.08231,-4.824432 0.28231,-5.131418 -1.84347,-0.707408 -0.90567,-1.553079 1.72228,-1.553079 2.75043,0 3.59582,0.948582 1.45183,1.629056 -0.91013,0.288866 -1.60803,2.051182 -2.78251,7.026349 -1.51412,6.413941 -2.31328,8.651151 -2.8548,7.991955 -0.14188,-0.172714 -1.57325,-3.429279 -3.18083,-7.23681 l -2.92287,-6.922783 -1.54751,6.164022 c -1.47965,5.893721 -1.49524,6.203676 -0.35541,7.068249 1.0569,0.801679 0.82851,0.906629 -2.01392,0.925427 -1.9723,0.01304 -3.04746,-0.235339 -2.79398,-0.645465 z m 49.18204,-0.836644 c 1.01679,-0.823179 3.71679,-4.617248 6,-8.431265 2.28321,-3.814016 4.45129,-6.964016 4.81796,-7 0.37064,-0.03637 0.99118,3.272936 1.39748,7.45279 0.58941,6.063377 0.97642,7.704095 2,8.478798 1.15752,0.876067 0.96124,0.962449 -2.23082,0.981786 -1.925,0.01166 -3.5,-0.278798 -3.5,-0.645465 0,-0.366666 0.45,-0.666666 1,-0.666666 0.66667,0 1,-0.666667 1,-2 C 387.33333,26.081846 387.2137,26 384.41001,26 c -2.44001,0 -3.11824,0.297476 -4.10224,1.799253 -0.80549,1.229328 -0.93536,1.880438 -0.41001,2.055556 1.78938,0.59646 0.55536,1.478276 -2.06443,1.475214 L 375,31.326689 l 1.84871,-1.496688 z m 9.81796,-8.163356 c 0,-1.65 -0.225,-2.997689 -0.5,-2.994865 -0.47826,0.0049 -3.5,4.862969 -3.5,5.626944 0,0.202356 0.9,0.367921 2,0.367921 1.92592,0 2,-0.111111 2,-3 z m -230,5 V 24 h -6 c -3.55556,0 -6,-0.271604 -6,-0.666666 0,-0.4 2.66666,-0.666667 6.66666,-0.666667 H 158 V 26 c 0,1.833334 -0.3,3.333334 -0.66667,3.333334 -0.36666,0 -0.66666,-1.2 -0.66666,-2.666667 z m 94.66666,0 V 24 h -6 c -3.55555,0 -6,-0.271604 -6,-0.666666 0,-0.4 2.66667,-0.666667 6.66667,-0.666667 h 6.66667 V 26 c 0,1.833334 -0.3,3.333334 -0.66667,3.333334 -0.36667,0 -0.66667,-1.2 -0.66667,-2.666667 z m 72.66667,0 V 24 h -6 c -3.55555,0 -6,-0.271604 -6,-0.666666 0,-0.4 2.66667,-0.666667 6.66667,-0.666667 h 6.66666 V 26 c 0,1.833334 -0.3,3.333334 -0.66666,3.333334 -0.36667,0 -0.66667,-1.2 -0.66667,-2.666667 z"
       id="path598" />
  </g>
</svg>
