<?xml version="1.0" encoding="UTF-8" standalone="no"?>
<svg
   xmlns:dc="http://purl.org/dc/elements/1.1/"
   xmlns:cc="http://creativecommons.org/ns#"
   xmlns:rdf="http://www.w3.org/1999/02/22-rdf-syntax-ns#"
   xmlns:svg="http://www.w3.org/2000/svg"
   xmlns="http://www.w3.org/2000/svg"
   xmlns:sodipodi="http://sodipodi.sourceforge.net/DTD/sodipodi-0.dtd"
   xmlns:inkscape="http://www.inkscape.org/namespaces/inkscape"
   version="1.1"
   id="svg666"
   width="368.37833"
   height="441.33334"
   viewBox="0 0 368.37833 441.33334"
   sodipodi:docname="5-3-example-2.svg"
   inkscape:version="1.0.1 (c497b03c, 2020-09-10)">
  <metadata
     id="metadata672">
    <rdf:RDF>
      <cc:Work
         rdf:about="">
        <dc:format>image/svg+xml</dc:format>
        <dc:type
           rdf:resource="http://purl.org/dc/dcmitype/StillImage" />
        <dc:title></dc:title>
      </cc:Work>
    </rdf:RDF>
  </metadata>
  <defs
     id="defs670" />
  <sodipodi:namedview
     pagecolor="#ffffff"
     bordercolor="#666666"
     borderopacity="1"
     objecttolerance="10"
     gridtolerance="10"
     guidetolerance="10"
     inkscape:pageopacity="0"
     inkscape:pageshadow="2"
     inkscape:window-width="740"
     inkscape:window-height="480"
     id="namedview668"
     showgrid="false"
     fit-margin-top="0"
     fit-margin-left="0"
     fit-margin-right="0"
     fit-margin-bottom="0"
     inkscape:pagecheckerboard="true"
     inkscape:zoom="0.61641873"
     inkscape:cx="155.89983"
     inkscape:cy="205.07522"
     inkscape:window-x="0"
     inkscape:window-y="25"
     inkscape:window-maximized="0"
     inkscape:current-layer="g674" />
  <g
     inkscape:groupmode="layer"
     inkscape:label="Image"
     id="g674"
     transform="translate(-28.666667,-16.666667)">
    <path
       style="fill:#1d1d1d;stroke-width:0.666667"
       d="m 252.66667,449.59 v -8.41001 l -1.7062,1.11794 c -0.93841,0.61488 -2.21341,1.00929 -2.83334,0.87648 -0.84091,-0.18016 -0.59284,-0.52534 0.9769,-1.35934 1.15722,-0.61482 2.50545,-2.02472 2.99607,-3.13312 1.09057,-2.46378 1.62416,-2.53799 2.18489,-0.30387 0.23625,0.94127 1.31687,2.21627 2.40139,2.83333 1.08452,0.61706 1.97375,1.34693 1.97607,1.62193 0.007,0.83495 -1.61164,0.56127 -3.18078,-0.5378 L 254,441.25773 v 8.37114 c 0,5.13632 -0.25762,8.37114 -0.66667,8.37114 -0.40921,0 -0.66666,-3.24778 -0.66666,-8.41001 z m 46,3.27145 c 0,-0.25954 1.11088,-1.60954 2.46863,-3 l 2.46863,-2.52811 -2.59198,-2.65443 c -3.38165,-3.46312 -2.46284,-4.38194 1.00029,-1.00029 l 2.65443,2.59199 2.66666,-2.60394 c 3.16373,-3.0893 3.65121,-1.74592 0.53364,1.47059 l -2.13303,2.20073 2.47993,2.53967 c 3.2372,3.31519 2.31017,4.23799 -1.00521,1.00061 l -2.54199,-2.4822 -2.52811,2.46864 c -2.44671,2.38914 -3.47189,2.97874 -3.47189,1.99674 z M 30.969697,423.69697 c -1.995132,-1.99512 -2.04469,-2.99805 -0.260242,-5.2666 1.270828,-1.6156 1.296332,-1.86338 0.333333,-3.23825 -1.401647,-2.00113 -1.312805,-3.58876 0.290545,-5.19211 1.59464,-1.59464 4.82974,-1.74169 6.285714,-0.28572 1.375279,1.37528 1.349588,4.71714 -0.04225,5.49605 -0.979325,0.54806 -0.945515,0.75428 0.333333,2.03313 1.40204,1.40204 1.87042,4.38952 0.912996,5.8234 -0.732098,1.09642 -3.215026,2.26647 -4.8096,2.26647 -0.774106,0 -2.143828,-0.73637 -3.043829,-1.63637 z m 6.337057,-0.66494 c 1.226847,-1.47826 0.577659,-3.16345 -1.740129,-4.51711 -1.92279,-1.12297 -2.183862,-1.13577 -3.164488,-0.15515 -1.261802,1.26181 -1.39783,3.71121 -0.268804,4.84024 1.104611,1.10461 4.200698,1.00408 5.173421,-0.16798 z m -0.773421,-8.49869 c 1.257579,-1.25758 0.942252,-3.74363 -0.578038,-4.55726 -1.071956,-0.57369 -1.7383,-0.50145 -3,0.32525 -2.074311,1.35914 -2.040294,1.94202 0.211372,3.62195 2.171214,1.61991 2.328346,1.64838 3.366666,0.61006 z m 6.591667,9.70278 c -0.943677,-0.94368 -0.409688,-2.23611 0.923883,-2.23611 0.931974,0 1.312003,0.36203 1.166666,1.11142 -0.237962,1.22698 -1.376001,1.83924 -2.090549,1.12469 z m 201.20833,-0.23611 c 0.22662,-0.36667 0.83276,-0.66667 1.34698,-0.66667 0.52005,0 1.22431,-1.10945 1.58696,-2.5 1.63681,-6.2761 2.73273,-10.72609 2.73273,-11.09623 0,-0.22208 -0.45,-0.40377 -1,-0.40377 -0.55,0 -1,-0.33079 -1,-0.73508 0,-0.49631 1.83466,-0.65872 5.6484,-0.5 6.43678,0.26789 8.13613,1.29294 8.74489,5.27493 0.46199,3.02192 -1.96178,7.77444 -4.99188,9.7881 -1.90184,1.26387 -3.16486,1.50538 -7.87268,1.50538 -3.56852,0 -5.4576,-0.2424 -5.1954,-0.66666 z m 11.99088,-2.11194 c 3.52262,-2.77089 4.88124,-9.25717 2.40785,-11.49555 -0.8486,-0.76797 -2.10357,-1.07775 -3.79465,-0.93665 -2.52396,0.21057 -2.52796,0.21571 -3.65581,4.69981 -0.621,2.46895 -1.32699,5.54395 -1.56889,6.83333 l -0.4398,2.34433 h 2.60698 c 1.6648,0 3.27099,-0.52232 4.44432,-1.44527 z m 41.85784,1.27529 c 1.01678,-0.82318 3.71678,-4.61725 6,-8.43126 2.2832,-3.81402 4.45128,-6.96402 4.81795,-7 0.37064,-0.0364 0.99118,3.27293 1.39749,7.45279 0.5894,6.06338 0.97642,7.70409 2,8.4788 1.15751,0.87606 0.96123,0.96244 -2.23082,0.98178 -1.925,0.0117 -3.5,-0.2788 -3.5,-0.64546 0,-0.36667 0.45,-0.66667 1,-0.66667 0.66666,0 1,-0.66667 1,-2 0,-1.91815 -0.11964,-2 -2.92333,-2 -2.44001,0 -3.11824,0.29747 -4.10224,1.79925 -0.80549,1.22933 -0.93536,1.88044 -0.41001,2.05556 1.78938,0.59646 0.55536,1.47828 -2.06442,1.47521 l -2.83334,-0.003 1.84872,-1.4967 z M 308,415.00001 c 0,-1.65 -0.225,-2.99769 -0.5,-2.99487 -0.47825,0.005 -3.5,4.86297 -3.5,5.62695 0,0.20235 0.9,0.36792 2,0.36792 1.92593,0 2,-0.11112 2,-3 z m -54.24308,-15.83334 c 1.27309,-2.11218 25.06947,-31.83333 25.48751,-31.83333 0.26004,0 5.86142,6.8012 12.44752,15.11377 13.8077,17.42726 13.90185,17.5529 13.15404,17.5529 -0.30962,0 -6.10164,-7.036 -12.87114,-15.63555 -6.7695,-8.59955 -12.45818,-15.64875 -12.64152,-15.66488 -0.18333,-0.0161 -5.88333,7.00781 -12.66666,15.60877 -6.78334,8.60097 -12.57604,15.65017 -12.87268,15.66489 -0.29664,0.0147 -0.31332,-0.34823 -0.0371,-0.80657 z m -58.42359,-11.63856 c 0,-0.25954 1.11089,-1.60954 2.46864,-3 l 2.46863,-2.5281 -2.59199,-2.65443 c -3.38164,-3.46313 -2.46283,-4.38194 1.0003,-1.00029 l 2.65442,2.59198 L 204,378.33334 c 3.16373,-3.0893 3.65121,-1.74593 0.53364,1.47059 l -2.13303,2.20072 2.47992,2.53968 c 3.2372,3.31519 2.31018,4.23798 -1.0052,1.0006 l -2.542,-2.48219 -2.5281,2.46863 c -2.44672,2.38915 -3.4719,2.97875 -3.4719,1.99674 z M 32.222909,358.95264 c -0.662712,-1.727 0.902999,-6.78526 3.114635,-10.06228 L 37.288222,346 h -3.277651 c -2.418263,0 -3.455819,0.3059 -3.957172,1.16667 -0.612209,1.0511 -0.681529,1.02348 -0.699793,-0.27881 -0.04391,-3.13076 0.441375,-3.41639 5.18701,-3.05294 2.452661,0.18783 4.572977,0.44041 4.711813,0.56128 0.138837,0.12088 -0.734208,1.75732 -1.940099,3.63654 -1.624829,2.53207 -2.294347,4.46674 -2.585763,7.47195 -0.391312,4.03538 -1.625834,5.73552 -2.503658,3.44795 z m 10.235424,-0.0499 c -0.943676,-0.94368 -0.409688,-2.23611 0.923883,-2.23611 0.931975,0 1.312003,0.36203 1.166667,1.11142 -0.237962,1.22699 -1.376002,1.83924 -2.09055,1.12469 z M 207.66667,358.66667 C 207.89328,358.3 208.49942,358 209.01365,358 c 0.52004,0 1.2243,-1.10945 1.58696,-2.5 1.6368,-6.2761 2.73272,-10.72609 2.73272,-11.09622 0,-0.22208 -0.45,-0.40378 -1,-0.40378 -0.55,0 -1,-0.3181 -1,-0.70691 0,-0.40546 1.02292,-0.61867 2.39882,-0.5 2.34367,0.20216 2.45355,0.34093 4.78054,6.03747 1.30996,3.20682 2.50345,5.70886 2.65221,5.5601 0.14876,-0.14876 0.82249,-2.41653 1.49718,-5.0395 1.03913,-4.0398 1.08231,-4.82442 0.28231,-5.13141 -1.84347,-0.70741 -0.90567,-1.55308 1.72228,-1.55308 2.75043,0 3.59582,0.94858 1.45183,1.62905 -0.91013,0.28887 -1.60803,2.05119 -2.78251,7.02636 -1.51412,6.41394 -2.31328,8.65114 -2.8548,7.99195 -0.14188,-0.17271 -1.57325,-3.42928 -3.18083,-7.23681 l -2.92287,-6.92278 -1.54751,6.16402 c -1.47965,5.89372 -1.49524,6.20368 -0.35541,7.06825 1.0569,0.80167 0.82851,0.90663 -2.01392,0.92543 -1.9723,0.0131 -3.04746,-0.23534 -2.79398,-0.64547 z m 72.51538,-0.83665 c 1.01678,-0.82318 3.71678,-4.61724 6,-8.43126 2.2832,-3.81402 4.45128,-6.96402 4.81795,-7 0.37064,-0.0364 0.99118,3.27294 1.39749,7.45279 0.5894,6.06338 0.97642,7.70409 2,8.4788 1.15751,0.87607 0.96123,0.96245 -2.23082,0.98179 -1.925,0.0117 -3.5,-0.2788 -3.5,-0.64547 0,-0.36667 0.45,-0.66667 1,-0.66667 0.66666,0 1,-0.66666 1,-2 0,-1.91815 -0.11964,-2 -2.92333,-2 -2.44001,0 -3.11824,0.29748 -4.10224,1.79926 -0.80549,1.22932 -0.93536,1.88044 -0.41001,2.05555 1.78938,0.59646 0.55536,1.47828 -2.06442,1.47521 l -2.83334,-0.003 1.84872,-1.49669 z M 290,349.66667 c 0,-1.65 -0.225,-2.99769 -0.5,-2.99487 -0.47825,0.005 -3.5,4.86298 -3.5,5.62695 0,0.20235 0.9,0.36792 2,0.36792 1.92593,0 2,-0.11111 2,-3 z m -102,5 V 352 h -6 c -3.55555,0 -6,-0.2716 -6,-0.66666 0,-0.4 2.66667,-0.66667 6.66667,-0.66667 h 6.66666 V 354 c 0,1.83334 -0.3,3.33334 -0.66666,3.33334 -0.36667,0 -0.66667,-1.2 -0.66667,-2.66667 z m 16,0 V 352 h -6 c -3.55555,0 -6,-0.2716 -6,-0.66666 0,-0.4 2.66667,-0.66667 6.66667,-0.66667 h 6.66666 V 354 c 0,1.83334 -0.3,3.33334 -0.66666,3.33334 -0.36667,0 -0.66667,-1.2 -0.66667,-2.66667 z m 71.33333,0 V 352 h -6 c -3.55555,0 -6,-0.2716 -6,-0.66666 0,-0.4 2.66667,-0.66667 6.66667,-0.66667 h 6.66667 V 354 c 0,1.83334 -0.3,3.33334 -0.66667,3.33334 -0.36667,0 -0.66667,-1.2 -0.66667,-2.66667 z M 201.7,334.09482 c 7.71368,-6.96478 38.62137,-32.1088 39.18569,-31.87833 0.78069,0.31884 34.94448,28.77821 37.42912,31.17949 0.72315,0.69888 1.02315,1.26729 0.66667,1.26314 -0.35648,-0.004 -8.89815,-6.93426 -18.98148,-15.40024 -10.08333,-8.46597 -18.68774,-15.53676 -19.1209,-15.71287 -0.43316,-0.17611 -9.21258,6.75399 -19.50983,15.40023 -10.29724,8.64624 -19.07784,15.72043 -19.51243,15.72043 -0.48722,0 -0.54735,-0.21925 -0.15684,-0.57185 z m -74.36667,-11.90004 c 0,-0.25954 1.11089,-1.60954 2.46864,-3 l 2.46863,-2.52811 -2.59199,-2.65443 c -3.38164,-3.46312 -2.46283,-4.38194 1.0003,-1.00029 l 2.65442,2.59199 L 136,313 c 3.16373,-3.0893 3.65121,-1.74592 0.53364,1.47059 l -2.13303,2.20073 2.47992,2.53967 c 3.2372,3.31519 2.31018,4.23799 -1.0052,1.00061 l -2.542,-2.4822 -2.5281,2.46864 c -2.44672,2.38914 -3.4719,2.97874 -3.4719,1.99674 z M 31.680546,293.07449 c -5.349727,-5.34973 -0.572123,-17.16554 5.931596,-14.66983 1.393305,0.53466 1.404048,3.59534 0.01262,3.59534 -0.687209,0 -0.970901,-0.48954 -0.833333,-1.43803 0.479856,-3.30844 -3.692118,-1.14569 -4.519954,2.34314 -0.418954,1.76565 -0.351364,1.85123 0.923278,1.16906 2.946545,-1.57695 6.13858,1.01303 6.13858,4.98077 0,2.283 -0.348616,3.12251 -1.756572,4.23001 -2.293842,1.80433 -3.940183,1.74557 -5.896215,-0.21046 z m 4.962665,-1.03066 C 38.191945,289.15 36.990739,284.66667 34.666667,284.66667 33.151464,284.66667 32,286.5378 32,289 c 0,2.46221 1.151464,4.33334 2.666667,4.33334 0.707532,0 1.596976,-0.58028 1.976544,-1.28951 z m 6.481789,1.52562 c -0.943677,-0.94368 -0.409688,-2.23611 0.923883,-2.23611 0.931974,0 1.312003,0.36203 1.166666,1.11142 -0.237962,1.22698 -1.376001,1.83924 -2.090549,1.12469 z m 80.54167,-0.23611 c 0.22661,-0.36667 0.83275,-0.66667 1.34698,-0.66667 0.52004,0 1.2243,-1.10945 1.58696,-2.5 1.6368,-6.2761 2.73272,-10.72609 2.73272,-11.09623 0,-0.22208 -0.45,-0.40377 -1,-0.40377 -0.55,0 -1,-0.31811 -1,-0.70691 0,-0.40546 1.02292,-0.61868 2.39882,-0.5 2.34367,0.20216 2.45355,0.34092 4.78054,6.03747 1.30996,3.20681 2.50345,5.70885 2.65221,5.56009 0.14876,-0.14876 0.82249,-2.41652 1.49718,-5.03949 1.03913,-4.0398 1.08231,-4.82443 0.28231,-5.13141 -1.84347,-0.70741 -0.90567,-1.55308 1.72228,-1.55308 2.75043,0 3.59582,0.94858 1.45183,1.62905 -0.91013,0.28887 -1.60803,2.05119 -2.78251,7.02635 -1.51412,6.41394 -2.31328,8.65115 -2.8548,7.99196 -0.14188,-0.17272 -1.57325,-3.42928 -3.18083,-7.23682 l -2.92287,-6.92278 -1.54751,6.16402 c -1.47965,5.89372 -1.49524,6.20368 -0.35541,7.06826 1.0569,0.80167 0.82851,0.90662 -2.01392,0.92542 -1.9723,0.0131 -3.04746,-0.23534 -2.79398,-0.64546 z m 117.84871,-0.83665 c 1.01679,-0.82318 3.71679,-4.61725 6,-8.43126 2.28321,-3.81402 4.45129,-6.96402 4.81795,-7 0.37064,-0.0364 0.99118,3.27293 1.39749,7.45279 0.58941,6.06338 0.97642,7.70409 2,8.4788 1.15751,0.87606 0.96123,0.96244 -2.23082,0.98178 -1.925,0.0117 -3.5,-0.2788 -3.5,-0.64546 0,-0.36667 0.45,-0.66667 1,-0.66667 0.66667,0 1,-0.66667 1,-2 0,-1.91815 -0.11963,-2 -2.92333,-2 -2.44,0 -3.11824,0.29747 -4.10224,1.79925 -0.80548,1.22933 -0.93536,1.88044 -0.41,2.05556 1.78938,0.59646 0.55536,1.47828 -2.06443,1.47521 l -2.83333,-0.003 1.84871,-1.4967 z m 9.81795,-8.16335 c 0,-1.65 -0.225,-2.99769 -0.5,-2.99487 -0.47825,0.005 -3.5,4.86297 -3.5,5.62695 0,0.20235 0.9,0.36792 2,0.36792 1.92593,0 2,-0.11112 2,-3 z m -14.66666,5 v -2.66667 h -6 c -3.55556,0 -6,-0.27161 -6,-0.66667 0,-0.4 2.66666,-0.66666 6.66666,-0.66666 H 238 v 3.33333 C 238,290.5 237.7,292 237.33333,292 c -0.36666,0 -0.66666,-1.2 -0.66666,-2.66666 z M 134.35166,268.42402 c 2.91363,-2.01476 52.23157,-31.75735 52.65873,-31.75735 0.94403,0 53.72023,32.31201 53.10899,32.51576 -0.35042,0.11681 -12.29563,-6.86451 -26.54492,-15.51404 -14.56243,-8.83961 -26.38643,-15.60351 -27.00079,-15.44575 -0.60116,0.15438 -12.531,7.21743 -26.51078,15.69568 -13.97978,8.47826 -25.77968,15.41502 -26.222,15.41502 -0.44233,0 -0.21248,-0.4092 0.51077,-0.90932 z M 31.481671,228.29554 c -1.809507,-1.26744 -2.106102,-4.9622 -0.398338,-4.9622 0.847168,0 0.996488,0.43422 0.684956,1.99188 -0.343892,1.71946 -0.171744,2.04878 1.258657,2.40778 0.942173,0.23648 2.084711,0.0609 2.648378,-0.40685 0.999211,-0.82927 1.348012,-4.9543 0.586683,-6.93829 -0.510677,-1.3308 -2.507558,-1.36522 -3.589248,-0.0619 -1.355564,1.63335 -2.006092,0.4844 -2.006092,-3.54312 v -3.8051 h 3.992592 c 3.868168,0 3.954594,0.038 2.773257,1.21934 -0.670635,0.67063 -2.167301,1.24628 -3.325926,1.27923 C 32.287889,215.52806 32,215.7774 32,217.30092 c 0,1.61454 0.192965,1.74216 2.268021,1.4999 5.366934,-0.62656 7.24897,7.02432 2.350965,9.55718 -2.391987,1.23694 -3.297881,1.22592 -5.137315,-0.0625 z M 43.125,228.23612 C 42.181323,227.29244 42.715312,226 44.048883,226 c 0.931974,0 1.312003,0.36204 1.166666,1.11142 -0.237962,1.22699 -1.376001,1.83924 -2.090549,1.1247 z M 185,228 c 0.22661,-0.36666 0.83275,-0.66666 1.34698,-0.66666 0.52005,0 1.22431,-1.10946 1.58696,-2.5 1.63681,-6.2761 2.73273,-10.7261 2.73273,-11.09623 0,-0.22208 -0.45,-0.40377 -1,-0.40377 -0.55,0 -1,-0.31811 -1,-0.70692 0,-0.40546 1.02292,-0.61867 2.39881,-0.5 2.34367,0.20216 2.45355,0.34093 4.78055,6.03748 1.30995,3.20681 2.50344,5.70885 2.6522,5.56009 0.14876,-0.14876 0.8225,-2.41653 1.49718,-5.03949 1.03914,-4.0398 1.08231,-4.82443 0.28232,-5.13142 C 198.43425,212.84568 199.37205,212 202,212 c 2.75043,0 3.59582,0.94858 1.45183,1.62906 -0.91013,0.28886 -1.60803,2.05118 -2.7825,7.02635 -1.51413,6.41394 -2.31328,8.65115 -2.8548,7.99195 -0.14188,-0.17271 -1.57326,-3.42928 -3.18084,-7.23681 l -2.92286,-6.92278 -1.54752,6.16402 c -1.47965,5.89372 -1.49524,6.20368 -0.35541,7.06825 1.05691,0.80168 0.82851,0.90663 -2.01391,0.92543 C 185.82169,228.65854 184.74653,228.41013 185,228 Z m -3.66667,-4 v -2.66666 h -6 c -3.55555,0 -6,-0.27161 -6,-0.66667 C 169.33333,220.26667 172,220 176,220 h 6.66667 v 3.33334 c 0,1.83333 -0.3,3.33333 -0.66667,3.33333 -0.36667,0 -0.66667,-1.2 -0.66667,-2.66667 z m -10.96285,-29.68797 c -1.72373,-3.86172 -2.99825,-7.38672 -2.83228,-7.83333 0.29909,-0.80484 5.79513,10.31124 5.79513,11.72102 0,1.39936 1.10046,-0.51648 3.6679,-6.38567 1.40811,-3.21894 2.80761,-5.60521 3.11,-5.30282 0.55038,0.55039 -5.41122,14.81939 -6.1923,14.82117 -0.22792,5.2e-4 -1.82472,-3.15865 -3.54845,-7.02037 z m 45.96193,4.07988 c -0.97299,-1.66029 -1.57812,-3.32767 -1.34473,-3.70531 0.76576,-1.23902 2.11641,-0.72 2.96331,1.13873 l 0.83167,1.82533 1.61961,-3.4077 C 222.12626,190.61565 228.21091,184 229.82309,184 c 0.53127,0 -0.43089,1.35758 -2.13814,3.01682 -1.92745,1.87328 -3.86419,4.71622 -5.10934,7.5 -3.57104,7.98383 -3.76482,8.10412 -6.2432,3.87509 z M 32.666667,200 c 0,-0.36666 0.45,-0.66666 1,-0.66666 0.555555,0 1,-0.5926 1,-1.33334 0,-1.1358 -0.444445,-1.33333 -3,-1.33333 -1.65,0 -3,-0.30249 -3,-0.67219 0,-0.92067 6.877224,-11.2941 7.5,-11.3128 0.275,-0.008 0.5,2.39466 0.5,5.3398 0,4.93006 0.118985,5.40265 1.5,5.95775 1.086806,0.43684 1.189465,0.61457 0.372678,0.64518 -1.91269,0.0717 -2.151527,1.49159 -0.468558,2.78558 l 1.59588,1.22703 -3.5,0.0148 c -1.925,0.008 -3.5,-0.28515 -3.5,-0.65182 z m 2,-7.66666 c 0,-2.01667 -0.105158,-3.66667 -0.233683,-3.66667 C 34.161656,188.66667 30,195.27981 30,195.71097 30,195.86994 31.05,196 32.333333,196 h 2.333334 z m 7.791666,7.90278 C 41.514657,199.29244 42.048645,198 43.382216,198 c 0.931975,0 1.312003,0.36204 1.166667,1.11142 -0.237962,1.22699 -1.376002,1.83924 -2.09055,1.1247 z M 141.66667,200 c 0.22661,-0.36666 0.83275,-0.66666 1.34698,-0.66666 0.52004,0 1.2243,-1.10946 1.58696,-2.5 1.6368,-6.2761 2.73272,-10.7261 2.73272,-11.09623 0,-0.22208 -0.45,-0.40377 -1,-0.40377 -0.55,0 -1,-0.33079 -1,-0.73508 0,-0.49632 1.83466,-0.65872 5.6484,-0.5 6.43678,0.26789 8.13614,1.29294 8.7449,5.27493 0.46198,3.02191 -1.96178,7.77444 -4.99188,9.7881 -1.90184,1.26387 -3.16487,1.50538 -7.87268,1.50538 -3.56852,0 -5.45761,-0.24241 -5.1954,-0.66667 z m 11.99088,-2.11193 c 3.52262,-2.77089 4.88123,-9.25717 2.40784,-11.49555 -0.8486,-0.76798 -2.10357,-1.07775 -3.79465,-0.93666 -2.52396,0.21058 -2.52795,0.21572 -3.65581,4.69982 -0.621,2.46894 -1.32699,5.54394 -1.56888,6.83333 l -0.4398,2.34433 h 2.60697 c 1.66481,0 3.27099,-0.52232 4.44433,-1.44527 z m 35.85783,1.27529 c 1.01679,-0.82318 3.71679,-4.61725 6,-8.43126 2.28321,-3.81402 4.45129,-6.96402 4.81795,-7 0.37064,-0.0364 0.99118,3.27293 1.39749,7.45278 0.58941,6.06338 0.97642,7.7041 2,8.4788 1.15751,0.87607 0.96123,0.96245 -2.23082,0.98179 -1.925,0.0117 -3.5,-0.2788 -3.5,-0.64547 0,-0.36666 0.45,-0.66666 1,-0.66666 0.66667,0 1,-0.66667 1,-2 0,-1.91816 -0.11963,-2 -2.92333,-2 -2.44,0 -3.11824,0.29747 -4.10224,1.79925 -0.80548,1.22933 -0.93536,1.88044 -0.41,2.05555 1.78938,0.59646 0.55536,1.47828 -2.06443,1.47522 l -2.83333,-0.003 1.84871,-1.49669 z M 199.33333,191 c 0,-1.65 -0.225,-2.99768 -0.5,-2.99486 -0.47825,0.005 -3.5,4.86297 -3.5,5.62694 0,0.20236 0.9,0.36792 2,0.36792 1.92593,0 2,-0.11111 2,-3 z m -12.38349,-29 c 0,-7.88333 0.0964,-11.10833 0.2143,-7.16666 0.11787,3.94166 0.11787,10.39166 0,14.33333 -0.11786,3.94167 -0.2143,0.71667 -0.2143,-7.16667 z m -50.59368,-23.70504 c -4.12132,-4.44697 -4.57717,-13.58298 -0.96215,-19.28326 2.4589,-3.87729 3.87742,-3.94774 1.61077,-0.08 -3.08167,5.25848 -3.05309,13.51294 0.0627,18.10431 2.04718,3.0167 1.6194,3.77383 -0.71132,1.25895 z m 86.31051,1.41128 c 0,-0.27522 0.61392,-1.36258 1.36427,-2.41636 2.17374,-3.05274 3.06071,-8.57531 2.10769,-13.12321 -0.4418,-2.10834 -1.40373,-4.64619 -2.13762,-5.63968 -1.57066,-2.12625 -1.66618,-2.61248 -0.4192,-2.13397 0.50333,0.19315 1.70333,1.79933 2.66667,3.56929 3.20693,5.8922 2.15529,15.05584 -2.17754,18.97435 -0.77235,0.6985 -1.40427,1.04481 -1.40427,0.76958 z M 30.30303,133.0303 c -1.892572,-1.89256 -2.065439,-2.90749 -0.591552,-3.47308 1.50468,-0.5774 2.710534,0.79767 1.732718,1.97587 -0.935469,1.12717 -0.362093,1.80025 1.533582,1.80025 1.991549,0 3.022222,-1.25045 3.022222,-3.66667 0,-2.38846 -1.021595,-3.65809 -2.966667,-3.68694 -1.357706,-0.0201 -1.357924,-0.0251 -0.03333,-0.74955 2.908739,-1.59096 3.708384,-3.75989 2.011727,-5.45655 -1.542278,-1.54228 -3.541277,-0.69024 -3.152468,1.34369 0.257694,1.34804 0.08294,1.63568 -0.880291,1.44898 -1.770819,-0.34326 -1.913713,-1.63155 -0.353968,-3.1913 1.492127,-1.49213 4.041113,-1.779 6.085494,-0.68488 1.606504,0.85978 1.722237,4.11525 0.2004,5.63708 -1.007697,1.0077 -0.982781,1.16358 0.333333,2.08542 2.109285,1.47741 1.933716,5.08844 -0.334133,6.87233 -2.330171,1.83291 -4.607269,1.74515 -6.607064,-0.25465 z m 153.92226,0.99584 c -2.78568,-1.17209 -2.64814,-4.23016 0.3107,-6.90788 1.03776,-0.93916 1.25074,-1.7624 0.97937,-3.7856 -0.46929,-3.4988 0.2088,-5.82193 1.85151,-6.34331 3.08789,-0.98005 4.36142,2.81454 1.96646,5.85923 -1.69472,2.1545 -1.68183,2.32904 0.39794,5.3897 l 1.73126,2.54778 1.60207,-2.35766 c 1.70757,-2.51292 2.0181,-3.76173 0.9354,-3.76173 -0.36667,0 -0.66667,-0.3 -0.66667,-0.66667 0,-0.36666 1.2,-0.66666 2.66667,-0.66666 2.73116,0 3.62972,0.92598 1.45134,1.49564 -0.66843,0.1748 -2.04104,1.7268 -3.05025,3.44888 -1.46593,2.50142 -1.67434,3.32458 -1.03638,4.09328 1.16954,1.40921 2.99074,1.17521 4.18568,-0.5378 0.57548,-0.825 1.06208,-1.125 1.08131,-0.66667 0.0193,0.45833 -0.59103,1.45933 -1.35614,2.22444 -1.06413,1.06413 -1.80845,1.27278 -3.16667,0.88769 -2.10498,-0.59682 -3.73013,-0.61085 -6.44222,-0.0556 -1.1,0.22519 -2.64862,0.13653 -3.44138,-0.19703 z m 5.00798,-1.28352 c 0.71158,-0.45094 0.48793,-1.13903 -1.06864,-3.28782 -2.14269,-2.9579 -3.49796,-2.74666 -3.49796,0.5452 0,2.82976 2.27398,4.19548 4.5666,2.74262 z m 0.10006,-12.82425 c 0,-1.22067 -0.34735,-1.91837 -0.95507,-1.91837 -1.19215,0 -1.94374,2.21833 -1.36712,4.0351 0.62088,1.95622 2.32219,0.40543 2.32219,-2.11673 z m 52.99908,11.80687 c -0.97299,-1.66028 -1.57812,-3.32767 -1.34473,-3.7053 0.76576,-1.23903 2.11641,-0.72 2.96331,1.13872 l 0.83167,1.82533 1.61961,-3.40769 c 1.72399,-3.62732 7.80864,-10.24297 9.42082,-10.24297 0.53127,0 -0.43089,1.35758 -2.13814,3.01682 -1.92745,1.87328 -3.86419,4.71623 -5.10934,7.50001 -3.57104,7.98382 -3.76482,8.10411 -6.2432,3.87508 z m -199.874077,1.84421 c -0.943676,-0.94368 -0.409688,-2.23611 0.923883,-2.23611 0.931975,0 1.312003,0.36203 1.166667,1.11142 -0.237962,1.22698 -1.376002,1.83924 -2.09055,1.12469 z M 157,133.33334 c 0.22661,-0.36667 0.83275,-0.66667 1.34698,-0.66667 0.52005,0 1.22431,-1.10945 1.58696,-2.5 1.63681,-6.2761 2.73273,-10.7261 2.73273,-11.09623 0,-0.22208 -0.45,-0.40377 -1,-0.40377 -0.55,0 -1,-0.31811 -1,-0.70692 0,-0.40546 1.02292,-0.61867 2.39881,-0.5 2.34367,0.20216 2.45355,0.34093 4.78055,6.03748 1.30995,3.20681 2.50344,5.70885 2.6522,5.56009 0.14876,-0.14876 0.8225,-2.41652 1.49718,-5.03949 1.03914,-4.0398 1.08231,-4.82443 0.28232,-5.13142 -1.84348,-0.7074 -0.90568,-1.55308 1.72227,-1.55308 2.75043,0 3.59582,0.94858 1.45183,1.62906 -0.91013,0.28886 -1.60803,2.05118 -2.7825,7.02635 -1.51413,6.41394 -2.31328,8.65115 -2.8548,7.99196 -0.14188,-0.17272 -1.57326,-3.42928 -3.18084,-7.23682 l -2.92286,-6.92278 -1.54752,6.16402 c -1.47965,5.89372 -1.49524,6.20368 -0.35541,7.06826 1.05691,0.80167 0.82851,0.90662 -2.01391,0.92542 -1.9723,0.0131 -3.04746,-0.23534 -2.79399,-0.64546 z m 49.18205,-0.83665 c 1.01678,-0.82318 3.71678,-4.61725 6,-8.43126 2.2832,-3.81402 4.45128,-6.96402 4.81795,-7 0.37064,-0.0364 0.99118,3.27293 1.39749,7.45279 0.5894,6.06338 0.97642,7.70409 2,8.4788 1.15751,0.87606 0.96123,0.96244 -2.23082,0.98178 -1.925,0.0117 -3.5,-0.2788 -3.5,-0.64546 0,-0.36667 0.45,-0.66667 1,-0.66667 0.66666,0 1,-0.66667 1,-2 0,-1.91815 -0.11964,-2 -2.92333,-2 -2.44001,0 -3.11824,0.29747 -4.10224,1.79925 -0.80549,1.22933 -0.93536,1.88044 -0.41001,2.05556 1.78938,0.59646 0.55536,1.47828 -2.06442,1.47521 l -2.83334,-0.003 1.84872,-1.4967 z M 216,124.33334 c 0,-1.65 -0.225,-2.99769 -0.5,-2.99487 -0.47825,0.005 -3.5,4.86297 -3.5,5.62695 0,0.20235 0.9,0.36792 2,0.36792 1.92593,0 2,-0.11112 2,-3 z m -87.33333,5 v -2.66667 h -6 c -3.55556,0 -6,-0.27161 -6,-0.66667 0,-0.4 2.66666,-0.66666 6.66666,-0.66666 H 130 v 3.33333 C 130,130.5 129.7,132 129.33333,132 c -0.36666,0 -0.66666,-1.2 -0.66666,-2.66666 z m 24.66666,0 v -2.66667 h -6 c -3.55555,0 -6,-0.27161 -6,-0.66667 0,-0.4 2.66667,-0.66666 6.66667,-0.66666 h 6.66667 v 3.33333 c 0,1.83333 -0.3,3.33333 -0.66667,3.33333 -0.36667,0 -0.66667,-1.2 -0.66667,-2.66666 z m 10.37048,-29.687979 c -1.72372,-3.86172 -2.99825,-7.38672 -2.83228,-7.833333 0.2991,-0.804833 5.79514,10.311242 5.79514,11.721022 0,1.39936 1.10045,-0.51648 3.6679,-6.385669 1.4081,-3.21894 2.8076,-5.605206 3.10999,-5.30282 0.55039,0.550387 -5.41122,14.819389 -6.19229,14.821169 -0.22793,5.2e-4 -1.82473,-3.15865 -3.54846,-7.020369 z m 61.29527,4.079879 c -0.97299,-1.66029 -1.57812,-3.32767 -1.34473,-3.70531 0.76576,-1.239022 2.11641,-0.719995 2.9633,1.13873 l 0.83168,1.82533 1.61961,-3.407695 c 1.72399,-3.627314 7.80863,-10.24296 9.42081,-10.24296 0.53128,0 -0.43088,1.357573 -2.13813,3.01682 -1.92745,1.873273 -3.86419,4.71622 -5.10934,7.5 -3.57104,7.983825 -3.76483,8.104115 -6.2432,3.875085 z m -195.665747,1.64689 c 0,-0.34533 1.5,-2.34201 3.333334,-4.43706 C 35.152335,98.094555 36,96.592801 36,95.029608 c 0,-2.470193 -1.026297,-3.696273 -3.093989,-3.696273 -1.864414,0 -2.601532,1.09364 -1.572678,2.333333 0.906006,1.091667 0.352927,2.333333 -1.039344,2.333333 -0.618838,0 -0.960656,-0.698186 -0.960656,-1.9622 0,-3.781533 5.145338,-5.40978 7.883791,-2.494833 2.377148,2.53036 1.879584,4.748807 -1.980495,8.830272 L 31.806591,104 h 2.661494 c 2.101278,0 2.813769,-0.31573 3.384918,-1.5 l 0.723423,-1.5 0.04512,1.44547 C 38.718756,105.55969 38.096143,106 33.595341,106 c -2.344104,0 -4.262008,-0.28254 -4.262008,-0.62787 z m 13.125,0.19732 c -0.943676,-0.94368 -0.409688,-2.23612 0.923883,-2.23612 0.931975,0 1.312003,0.36204 1.166667,1.11142 -0.237962,1.22699 -1.376002,1.83924 -2.09055,1.1247 z M 133,105.33333 c 0.22661,-0.36666 0.83275,-0.66666 1.34698,-0.66666 0.52005,0 1.22431,-1.10946 1.58696,-2.5 1.63681,-6.276102 2.73273,-10.726095 2.73273,-11.096229 0,-0.22208 -0.45,-0.403773 -1,-0.403773 -0.55,0 -1,-0.318107 -1,-0.706913 0,-0.40546 1.02292,-0.618674 2.39881,-0.5 2.34367,0.20216 2.45355,0.340926 4.78055,6.037473 1.30995,3.206813 2.50344,5.708852 2.6522,5.560092 0.14876,-0.14876 0.8225,-2.416525 1.49718,-5.039492 1.03914,-4.0398 1.08231,-4.824427 0.28232,-5.131413 -1.84348,-0.707407 -0.90568,-1.55308 1.72227,-1.55308 2.75043,0 3.59582,0.94858 1.45183,1.629053 -0.91013,0.288867 -1.60803,2.051187 -2.7825,7.026353 -1.51413,6.413939 -2.31328,8.651149 -2.8548,7.991949 -0.14188,-0.17271 -1.57326,-3.42928 -3.18084,-7.236809 l -2.92286,-6.92278 -1.54752,6.16402 c -1.47965,5.893719 -1.49524,6.203679 -0.35541,7.068249 1.05691,0.80168 0.82851,0.90663 -2.01391,0.92543 -1.9723,0.0131 -3.04746,-0.23534 -2.79399,-0.64547 z m 65.18205,-0.83664 c 1.01678,-0.82318 3.71678,-4.617249 6,-8.431262 2.2832,-3.81402 4.45128,-6.96402 4.81795,-7 0.37064,-0.0364 0.99118,3.272933 1.39749,7.452787 0.5894,6.063375 0.97642,7.704095 2,8.478795 1.15751,0.87607 0.96123,0.96245 -2.23082,0.98179 -1.925,0.0117 -3.5,-0.2788 -3.5,-0.64547 0,-0.36666 0.45,-0.66666 1,-0.66666 0.66666,0 1,-0.66667 1,-2 0,-1.91816 -0.11964,-2 -2.92333,-2 -2.44001,0 -3.11824,0.29747 -4.10224,1.79925 -0.80549,1.22933 -0.93536,1.88044 -0.41001,2.05555 1.78938,0.59646 0.55536,1.47828 -2.06442,1.47522 l -2.83334,-0.003 1.84872,-1.49669 z M 208,96.333335 c 0,-1.65 -0.225,-2.997687 -0.5,-2.994867 -0.47825,0.0047 -3.5,4.862973 -3.5,5.626947 0,0.202353 0.9,0.36792 2,0.36792 1.92593,0 2,-0.111114 2,-3 z m -14.66667,4.999995 v -2.666662 h -6 c -3.55555,0 -6,-0.271607 -6,-0.666667 0,-0.4 2.66667,-0.666666 6.66667,-0.666666 h 6.66667 v 3.333335 c 0,1.83333 -0.3,3.33333 -0.66667,3.33333 -0.36667,0 -0.66667,-1.2 -0.66667,-2.66667 z M 105.68949,81.628294 c -4.12132,-4.446973 -4.57716,-13.58298 -0.96215,-19.28326 2.4589,-3.87729 3.87742,-3.947743 1.61077,-0.08 -3.08167,5.258481 -3.05308,13.512941 0.0627,18.104308 2.04718,3.0167 1.61939,3.773833 -0.71132,1.258953 z m 68.97718,1.41128 c 0,-0.275226 0.61392,-1.362586 1.36427,-2.41636 2.17374,-3.05274 3.06071,-8.575313 2.10769,-13.123213 -0.4418,-2.108333 -1.40373,-4.646185 -2.13762,-5.639671 -1.57066,-2.126254 -1.66618,-2.612487 -0.4192,-2.133975 0.50333,0.193146 1.70333,1.799329 2.66667,3.569296 3.20693,5.89219 2.15529,15.05583 -2.17754,18.974343 -0.77235,0.698494 -1.40427,1.044807 -1.40427,0.76958 z m -35.62952,-12.06088 c -1.72373,-3.86172 -2.99826,-7.386722 -2.83228,-7.833336 C 136.50396,62.340526 142,73.456608 142,74.866381 c 0,1.399367 1.10045,-0.516473 3.6679,-6.385667 1.40811,-3.218936 2.80761,-5.605207 3.10999,-5.302821 0.55039,0.550387 -5.41122,14.819395 -6.19229,14.821168 -0.22793,5.2e-4 -1.82473,-3.158647 -3.54845,-7.020367 z m 50.52148,6.38078 c -2.78569,-1.172093 -2.64814,-4.230166 0.31069,-6.90788 1.03776,-0.93916 1.25074,-1.7624 0.97937,-3.785604 -0.46928,-3.498796 0.2088,-5.821924 1.85152,-6.343301 3.08788,-0.980058 4.36142,2.814529 1.96646,5.859226 -1.69472,2.154493 -1.68184,2.329039 0.39793,5.389693 l 1.73126,2.54778 1.60207,-2.35766 c 1.70757,-2.512914 2.0181,-3.761727 0.9354,-3.761727 -0.36666,0 -0.66666,-0.3 -0.66666,-0.666667 0,-0.366666 1.2,-0.666666 2.66666,-0.666666 2.73116,0 3.62972,0.92598 1.45134,1.49564 -0.66842,0.1748 -2.04104,1.7268 -3.05025,3.448886 -1.46593,2.501414 -1.67434,3.32458 -1.03638,4.093274 1.16954,1.409213 2.99074,1.175213 4.18568,-0.5378 0.57549,-0.825 1.06208,-1.125 1.08131,-0.666667 0.0193,0.458333 -0.59103,1.459333 -1.35614,2.22444 -1.06412,1.064127 -1.80844,1.27278 -3.16666,0.887687 -2.10498,-0.596814 -3.73014,-0.610847 -6.44223,-0.0556 -1.1,0.225193 -2.64862,0.136533 -3.44137,-0.197027 z m 5.00797,-1.28352 c 0.71159,-0.45094 0.48793,-1.139033 -1.06864,-3.28782 -2.14269,-2.9579 -3.49796,-2.746666 -3.49796,0.5452 0,2.82976 2.27399,4.195474 4.5666,2.74262 z m 0.10007,-12.82425 c 0,-1.220668 -0.34736,-1.91837 -0.95508,-1.91837 -1.19215,0 -1.94374,2.21833 -1.36712,4.0351 0.62088,1.956214 2.3222,0.405428 2.3222,-2.11673 z m 62.99908,11.80687 c -0.973,-1.660286 -1.57812,-3.327673 -1.34474,-3.705306 0.76576,-1.239027 2.11642,-0.72 2.96331,1.138726 l 0.83167,1.825327 1.61962,-3.407693 c 1.72398,-3.627314 7.80863,-10.242961 9.42081,-10.242961 0.53127,0 -0.43089,1.357571 -2.13813,3.016824 -1.92746,1.873267 -3.8642,4.716217 -5.10934,7.499997 -3.57104,7.983826 -3.76483,8.104113 -6.2432,3.875086 z M 29.333333,76.983501 c 0,-0.192407 0.75,-0.634987 1.666667,-0.9835 1.608208,-0.61144 1.666667,-0.84514 1.666667,-6.662867 V 63.307932 L 31,63.726238 c -0.938683,0.235595 -1.666667,0.129492 -1.666667,-0.242914 0,-0.363671 0.675,-0.807614 1.5,-0.986541 0.825,-0.178926 2.025,-0.545996 2.666667,-0.815711 1.070519,-0.449976 1.166667,0.119842 1.166667,6.914269 0,6.960213 0.08003,7.40466 1.333333,7.40466 0.733333,0 1.333333,0.3 1.333333,0.666667 0,0.370373 -1.777778,0.666666 -4,0.666666 -2.2,0 -4,-0.157426 -4,-0.349833 z m 12.458334,-0.08072 c -0.943677,-0.94368 -0.409688,-2.236113 0.923882,-2.236113 0.931975,0 1.312004,0.362033 1.166667,1.11142 -0.237962,1.226986 -1.376001,1.83924 -2.090549,1.124693 z m 67.875003,-0.236113 c 0.22661,-0.366667 0.83275,-0.666667 1.34698,-0.666667 0.52004,0 1.2243,-1.109453 1.58696,-2.5 1.6368,-6.2761 2.73272,-10.726094 2.73272,-11.09623 0,-0.222073 -0.45,-0.40377 -1,-0.40377 -0.55,0 -1,-0.330785 -1,-0.735077 0,-0.496317 1.83466,-0.658723 5.6484,-0.500001 6.43678,0.267888 8.13614,1.292939 8.7449,5.274931 0.46198,3.021914 -1.96178,7.77444 -4.99188,9.7881 -1.90184,1.263867 -3.16487,1.50538 -7.87268,1.50538 -3.56852,0 -5.45761,-0.242406 -5.1954,-0.666666 z m 11.99088,-2.111934 c 3.52262,-2.770893 4.88123,-9.257171 2.40784,-11.49555 -0.8486,-0.767976 -2.10357,-1.077748 -3.79465,-0.936658 -2.52396,0.210578 -2.52795,0.215712 -3.65581,4.699815 -0.621,2.468947 -1.32699,5.543947 -1.56888,6.833333 l -0.4398,2.344327 h 2.60697 c 1.66481,0 3.27099,-0.52232 4.44433,-1.445267 z m 35.85783,1.275287 c 1.01679,-0.82318 3.71679,-4.617247 6,-8.43126 2.28321,-3.814018 4.45129,-6.964018 4.81795,-7.000002 0.37064,-0.03637 0.99118,3.272936 1.39749,7.452789 0.58941,6.06338 0.97642,7.704093 2,8.4788 1.15751,0.876066 0.96123,0.962446 -2.23082,0.981786 -1.925,0.01166 -3.5,-0.2788 -3.5,-0.645466 0,-0.366667 0.45,-0.666667 1,-0.666667 0.66667,0 1,-0.666667 1,-2 0,-1.918153 -0.11963,-2 -2.92333,-2 -2.44,0 -3.11824,0.297473 -4.10224,1.799253 -0.80548,1.229327 -0.93536,1.88044 -0.41,2.055554 1.78938,0.59646 0.55536,1.47828 -2.06443,1.475213 l -2.83333,-0.0033 1.84871,-1.496694 z m 9.81795,-8.163353 c 0,-1.65 -0.225,-2.99769 -0.5,-2.994866 -0.47825,0.0049 -3.5,4.862972 -3.5,5.626946 0,0.202353 0.9,0.36792 2,0.36792 1.92593,0 2,-0.111114 2,-3 z m 58.33334,9 c 0.22661,-0.366667 0.83275,-0.666667 1.34698,-0.666667 0.52004,0 1.2243,-1.109453 1.58696,-2.5 1.6368,-6.2761 2.73272,-10.726094 2.73272,-11.09623 0,-0.222073 -0.45,-0.40377 -1,-0.40377 -0.55,0 -1,-0.318109 -1,-0.70691 0,-0.405464 1.02292,-0.618678 2.39882,-0.5 2.34367,0.202154 2.45355,0.34092 4.78054,6.03747 1.30996,3.206813 2.50345,5.708853 2.65221,5.560093 0.14876,-0.14876 0.82249,-2.416526 1.49718,-5.039493 1.03913,-4.039803 1.08231,-4.824429 0.28231,-5.131414 -1.84347,-0.707408 -0.90567,-1.55308 1.72228,-1.55308 2.75043,0 3.59582,0.948583 1.45183,1.629057 -0.91013,0.288866 -1.60803,2.051182 -2.78251,7.02635 -1.51412,6.41394 -2.31328,8.651147 -2.8548,7.991954 -0.14188,-0.172714 -1.57325,-3.42928 -3.18083,-7.236814 l -2.92287,-6.92278 -1.54751,6.16402 c -1.47965,5.89372 -1.49524,6.20368 -0.35541,7.068254 1.0569,0.801673 0.82851,0.906626 -2.01392,0.925426 -1.9723,0.01307 -3.04746,-0.23534 -2.79398,-0.645466 z m -3.66667,-4 v -2.666667 h -6 c -3.55555,0 -6,-0.271607 -6,-0.666667 0,-0.4 2.66667,-0.666666 6.66667,-0.666666 h 6.66666 v 3.333333 c 0,1.833333 -0.3,3.333333 -0.66666,3.333333 -0.36667,0 -0.66667,-1.2 -0.66667,-2.666666 z M 34.330814,39.747264 c -0.955063,-0.698359 -1.326219,-2.000833 -1.543773,-5.417457 -0.235454,-3.697724 -0.508881,-4.556229 -1.536728,-4.825017 -1.633894,-0.427274 -1.594215,-1.305789 0.08302,-1.838123 1.135948,-0.360536 1.333334,-1.008689 1.333334,-4.378259 0,-4.347674 1.404572,-6.621741 4.089906,-6.621741 1.345987,0 1.327894,0.075 -0.333334,1.38172 -1.532358,1.205353 -1.756572,1.869098 -1.756572,5.2 0,2.100054 -0.36,4.17828 -0.8,4.61828 -0.622222,0.622222 -0.622222,0.977778 0,1.6 0.44,0.44 0.8,2.514978 0.8,4.611062 0,3.381486 0.20665,3.965241 1.833333,5.17888 1.657895,1.236926 1.701986,1.369839 0.460753,1.388938 -0.754919,0.01161 -1.938392,-0.392611 -2.629939,-0.898283 z M 45.68949,38.961627 c -4.121317,-4.446975 -4.577164,-13.582978 -0.962153,-19.28326 2.458905,-3.87729 3.877426,-3.947743 1.610778,-0.08 -3.081674,5.25848 -3.053089,13.512944 0.06269,18.10431 2.047184,3.016696 1.619394,3.773834 -0.711322,1.258951 z m 68.97718,1.411279 c 0,-0.275226 0.61392,-1.362587 1.36427,-2.416357 2.17374,-3.052739 3.06071,-8.575314 2.10769,-13.123215 -0.4418,-2.108334 -1.40373,-4.646186 -2.13762,-5.639672 -1.57066,-2.126253 -1.66618,-2.612486 -0.4192,-2.133974 0.50333,0.193146 1.70333,1.799328 2.66667,3.569296 3.20693,5.892187 2.15529,15.055833 -2.17754,18.974342 -0.77235,0.698495 -1.40427,1.044806 -1.40427,0.76958 z M 278,40.316833 c 0,-0.192409 0.7137,-0.621182 1.586,-0.95283 1.40493,-0.534155 1.61817,-1.108304 1.86783,-5.029139 0.17184,-2.698548 0.62822,-4.640222 1.16929,-4.974618 0.72349,-0.447142 0.68633,-0.835628 -0.20117,-2.102698 -0.67116,-0.958223 -1.08862,-2.895236 -1.08862,-5.05126 0,-3.129391 -0.19274,-3.601601 -1.83333,-4.491638 -1.77035,-0.960429 -1.78029,-0.995516 -0.28951,-1.021291 3.20418,-0.0554 4.12284,1.067756 4.12284,5.040591 0,4.032474 0.8401,6.26605 2.35679,6.26605 1.46591,0 1.17534,0.929947 -0.52345,1.675248 -1.28838,0.565242 -1.52795,1.243695 -1.69807,4.808944 -0.16099,3.373759 -0.46958,4.341032 -1.64834,5.166667 C 280.43058,40.624229 278,41.047945 278,40.316833 Z m -90.41001,-2.62671 c 1.34388,-2.051024 1.36854,-3.023456 0.0767,-3.023456 -0.55556,0 -1,-0.592593 -1,-1.333333 C 186.66667,32.444445 187.11111,32 188,32 c 1.08405,0 1.33333,0.444445 1.33333,2.377161 0,2.626596 -0.98713,4.956173 -2.10012,4.956173 -0.4189,0 -0.26973,-0.68703 0.35678,-1.643211 z M 79.037147,28.312024 C 77.31342,24.450304 76.038893,20.925304 76.204867,20.478691 76.50396,19.673859 82,30.789939 82,32.199712 c 0,1.399371 1.100453,-0.516474 3.6679,-6.385662 1.408107,-3.21894 2.807607,-5.60521 3.109993,-5.302824 0.550387,0.550386 -5.41122,14.819396 -6.192293,14.821168 -0.227927,5.16e-4 -1.824727,-3.15865 -3.548453,-7.02037 z m 50.521483,6.380785 c -2.78569,-1.172097 -2.64814,-4.230168 0.31069,-6.907879 1.03776,-0.93916 1.25074,-1.7624 0.97937,-3.785607 -0.46928,-3.498796 0.2088,-5.821924 1.85152,-6.343301 3.08788,-0.980058 4.36142,2.814529 1.96646,5.859226 -1.69472,2.15449 -1.68184,2.32904 0.39793,5.38969 l 1.73126,2.547783 1.60207,-2.357658 c 1.70757,-2.512913 2.0181,-3.761729 0.9354,-3.761729 -0.36666,0 -0.66666,-0.3 -0.66666,-0.666667 0,-0.366667 1.2,-0.666667 2.66666,-0.666667 2.73116,0 3.62972,0.925982 1.45134,1.49564 -0.66842,0.174797 -2.04104,1.726798 -3.05025,3.44889 -1.46593,2.50141 -1.67434,3.324576 -1.03638,4.093273 1.16954,1.409211 2.99074,1.175212 4.18568,-0.537803 0.57549,-0.825 1.06208,-1.125 1.08131,-0.666666 0.0193,0.458333 -0.59103,1.45933 -1.35614,2.224438 -1.06412,1.064131 -1.80844,1.272779 -3.16666,0.887689 -2.10498,-0.596817 -3.73014,-0.610849 -6.44223,-0.05563 -1.1,0.225194 -2.64862,0.136532 -3.44137,-0.197025 z m 5.00797,-1.283521 c 0.71159,-0.450941 0.48793,-1.139038 -1.06864,-3.287823 C 131.35527,27.163566 130,27.374802 130,30.666667 c 0,2.829757 2.27399,4.195473 4.5666,2.742621 z m 0.10007,-12.824251 c 0,-1.220668 -0.34736,-1.91837 -0.95508,-1.91837 -1.19215,0 -1.94374,2.21833 -1.36712,4.0351 0.62088,1.956213 2.3222,0.405427 2.3222,-2.11673 z m 91.70381,7.726987 c -1.72373,-3.86172 -2.99825,-7.38672 -2.83228,-7.833333 0.29909,-0.804832 5.79513,10.311248 5.79513,11.721021 0,1.399371 1.10046,-0.516474 3.6679,-6.385662 1.40811,-3.21894 2.80761,-5.60521 3.11,-5.302824 0.55038,0.550386 -5.41122,14.819396 -6.1923,14.821168 -0.22792,5.16e-4 -1.82472,-3.15865 -3.54845,-7.02037 z m 133.85481,6.380785 c -2.78568,-1.172097 -2.64814,-4.230168 0.3107,-6.907879 1.03776,-0.93916 1.25074,-1.7624 0.97937,-3.785607 -0.46929,-3.498796 0.2088,-5.821924 1.85151,-6.343301 3.08789,-0.980058 4.36142,2.814529 1.96646,5.859226 -1.69472,2.15449 -1.68183,2.32904 0.39794,5.38969 l 1.73126,2.547783 1.60207,-2.357658 c 1.70757,-2.512913 2.0181,-3.761729 0.9354,-3.761729 -0.36667,0 -0.66667,-0.3 -0.66667,-0.666667 C 369.33333,24.3 370.53333,24 372,24 c 2.73116,0 3.62972,0.925982 1.45134,1.49564 -0.66843,0.174797 -2.04104,1.726798 -3.05025,3.44889 -1.46593,2.50141 -1.67434,3.324576 -1.03638,4.093273 1.16954,1.409211 2.99074,1.175212 4.18568,-0.537803 0.57548,-0.825 1.06208,-1.125 1.08131,-0.666666 0.0193,0.458333 -0.59103,1.45933 -1.35614,2.224438 -1.06413,1.064131 -1.80845,1.272779 -3.16667,0.887689 -2.10498,-0.596817 -3.73013,-0.610849 -6.44222,-0.05563 -1.1,0.225194 -2.64862,0.136532 -3.44138,-0.197025 z m 5.00798,-1.283521 c 0.71158,-0.450941 0.48793,-1.139038 -1.06864,-3.287823 -2.14269,-2.957899 -3.49796,-2.746663 -3.49796,0.545202 0,2.829757 2.27398,4.195473 4.5666,2.742621 z m 0.10006,-12.824251 c 0,-1.220668 -0.34735,-1.91837 -0.95507,-1.91837 -1.19215,0 -1.94374,2.21833 -1.36712,4.0351 0.62088,1.956213 2.32219,0.405427 2.32219,-2.11673 z M 50.333333,34 c 0.226613,-0.366666 0.832755,-0.666666 1.346982,-0.666666 0.520042,0 1.224304,-1.109453 1.586958,-2.5 C 54.904077,24.557232 56,20.10724 56,19.737104 c 0,-0.222074 -0.45,-0.40377 -1,-0.40377 -0.55,0 -1,-0.330785 -1,-0.735078 0,-0.496316 1.834663,-0.658722 5.648403,-0.5 6.43678,0.267888 8.13613,1.292939 8.74489,5.274931 0.461987,3.021911 -1.961779,7.774437 -4.991882,9.788099 -1.901836,1.26387 -3.164866,1.505381 -7.872678,1.505381 -3.568519,0 -5.457608,-0.242405 -5.1954,-0.666667 z m 11.990881,-2.111933 c 3.522619,-2.770893 4.881233,-9.257171 2.407849,-11.495551 -0.848604,-0.767976 -2.103575,-1.077748 -3.794657,-0.936658 -2.523961,0.210579 -2.527954,0.215712 -3.655807,4.699812 -0.620996,2.468952 -1.326995,5.543952 -1.568884,6.833334 l -0.439799,2.34433 h 2.606969 c 1.664808,0 3.270994,-0.522322 4.444329,-1.445267 z m 35.857833,1.275289 c 1.016786,-0.823179 3.716783,-4.617248 6.000003,-8.431264 2.2832,-3.814016 4.45128,-6.964016 4.81795,-7 0.37064,-0.03637 0.99118,3.272936 1.39749,7.452789 0.5894,6.063377 0.97642,7.704095 2,8.478798 1.15751,0.876067 0.96123,0.962449 -2.23082,0.981786 -1.925,0.01166 -3.5,-0.278798 -3.5,-0.645465 0,-0.366666 0.45,-0.666666 1,-0.666666 0.66666,0 1,-0.666667 1,-2 0,-1.918155 -0.11964,-2 -2.92333,-2 -2.44001,0 -3.11824,0.297476 -4.10224,1.799252 -0.80549,1.229328 -0.93536,1.880438 -0.41001,2.055556 1.78938,0.59646 0.55536,1.478276 -2.064423,1.475214 l -2.833334,-0.0033 1.848714,-1.496688 z M 108,25 c 0,-1.65 -0.225,-2.997689 -0.5,-2.994865 -0.47825,0.0049 -3.5,4.862969 -3.5,5.626944 C 104,27.834436 104.9,28 106,28 c 1.92593,0 2,-0.111111 2,-3 z m 57.66667,9 c 0.22661,-0.366666 0.83275,-0.666666 1.34698,-0.666666 0.52004,0 1.2243,-1.109453 1.58696,-2.5 1.6368,-6.276102 2.73272,-10.726094 2.73272,-11.09623 0,-0.222074 -0.45,-0.40377 -1,-0.40377 -0.55,0 -1,-0.31811 -1,-0.70691 0,-0.405464 1.02292,-0.618678 2.39882,-0.5 2.34367,0.202154 2.45355,0.34092 4.78054,6.037472 1.30996,3.206809 2.50345,5.70885 2.65221,5.560091 0.14876,-0.148759 0.82249,-2.416529 1.49718,-5.03949 1.03913,-4.039806 1.08231,-4.824432 0.28231,-5.131417 C 179.10092,18.845672 180.03872,18 182.66667,18 c 2.75043,0 3.59582,0.948582 1.45183,1.629056 -0.91013,0.288866 -1.60803,2.051182 -2.78251,7.02635 -1.51412,6.41394 -2.31328,8.65115 -2.8548,7.991954 -0.14188,-0.172714 -1.57325,-3.429279 -3.18083,-7.23681 l -2.92287,-6.922783 -1.54751,6.164023 c -1.47965,5.89372 -1.49524,6.203675 -0.35541,7.068248 1.0569,0.801679 0.82851,0.906629 -2.01392,0.925427 -1.9723,0.01304 -3.04746,-0.235339 -2.79398,-0.645465 z m 30.66666,0 c 0.22662,-0.366666 0.83276,-0.666666 1.34698,-0.666666 0.52005,0 1.22431,-1.109453 1.58696,-2.5 C 200.90408,24.557232 202,20.10724 202,19.737104 c 0,-0.222074 -0.45,-0.40377 -1,-0.40377 -0.55,0 -1,-0.31811 -1,-0.70691 0,-0.405464 1.02292,-0.618678 2.39881,-0.5 2.34368,0.202154 2.45356,0.34092 4.78055,6.037472 1.30995,3.206809 2.50345,5.70885 2.65221,5.560091 0.14876,-0.148759 0.82249,-2.416529 1.49718,-5.03949 1.03913,-4.039806 1.0823,-4.824432 0.28231,-5.131417 C 209.76759,18.845672 210.70539,18 213.33333,18 c 2.75044,0 3.59582,0.948582 1.45184,1.629056 -0.91014,0.288866 -1.60804,2.051182 -2.78251,7.02635 -1.51413,6.41394 -2.31328,8.65115 -2.8548,7.991954 -0.14188,-0.172714 -1.57325,-3.429279 -3.18083,-7.23681 l -2.92287,-6.922783 -1.54751,6.164023 c -1.47966,5.89372 -1.49524,6.203675 -0.35542,7.068248 1.05691,0.801679 0.82852,0.906629 -2.01391,0.925427 -1.9723,0.01304 -3.04746,-0.235339 -2.79399,-0.645465 z m 65.18205,-0.836644 c 1.01679,-0.823179 3.71679,-4.617248 6,-8.431264 2.28321,-3.814016 4.45129,-6.964016 4.81795,-7 0.37064,-0.03637 0.99118,3.272936 1.39749,7.452789 0.58941,6.063377 0.97642,7.704095 2,8.478798 1.15751,0.876067 0.96123,0.962449 -2.23082,0.981786 C 271.575,34.657126 270,34.366667 270,34 c 0,-0.366666 0.45,-0.666666 1,-0.666666 0.66667,0 1,-0.666667 1,-2 0,-1.918155 -0.11963,-2 -2.92333,-2 -2.44,0 -3.11824,0.297476 -4.10224,1.799252 -0.80548,1.229328 -0.93536,1.880438 -0.41,2.055556 1.78938,0.59646 0.55536,1.478276 -2.06443,1.475214 l -2.83333,-0.0033 1.84871,-1.496688 z M 271.33333,25 c 0,-1.65 -0.225,-2.997689 -0.5,-2.994865 -0.47825,0.0049 -3.5,4.862969 -3.5,5.626944 0,0.202357 0.9,0.367921 2,0.367921 1.92593,0 2,-0.111111 2,-3 z m 25.33334,1.333334 c 0,-5.438253 0.23567,-8.266367 0.66666,-8 C 297.7,18.559946 298,20.365518 298,22.345717 v 3.60036 l 5.5,0.224598 5.5,0.224598 -5.5,0.135697 -5.5,0.135697 v 3.627322 c 0,1.995027 -0.3,3.812732 -0.66667,4.039345 -0.43099,0.266366 -0.66666,-2.561748 -0.66666,-8 z M 333,34 c 0.22661,-0.366666 0.83275,-0.666666 1.34698,-0.666666 0.52005,0 1.22431,-1.109453 1.58696,-2.5 1.63681,-6.276102 2.73273,-10.726094 2.73273,-11.09623 0,-0.222074 -0.45,-0.40377 -1,-0.40377 -0.55,0 -1,-0.31811 -1,-0.70691 0,-0.405464 1.02292,-0.618678 2.39881,-0.5 2.34367,0.202154 2.45355,0.34092 4.78055,6.037472 1.30995,3.206809 2.50344,5.70885 2.6522,5.560091 0.14876,-0.148759 0.8225,-2.416529 1.49718,-5.03949 1.03914,-4.039806 1.08231,-4.824432 0.28232,-5.131417 C 346.43425,18.845672 347.37205,18 350,18 c 2.75043,0 3.59582,0.948582 1.45183,1.629056 -0.91013,0.288866 -1.60803,2.051182 -2.7825,7.02635 -1.51413,6.41394 -2.31328,8.65115 -2.8548,7.991954 -0.14188,-0.172714 -1.57326,-3.429279 -3.18084,-7.23681 l -2.92286,-6.922783 -1.54752,6.164023 c -1.47965,5.89372 -1.49524,6.203675 -0.35541,7.068248 1.05691,0.801679 0.82851,0.906629 -2.01391,0.925427 C 333.82169,34.658508 332.74653,34.410126 333,34 Z m 49.18205,-0.836644 c 1.01678,-0.823179 3.71678,-4.617248 6,-8.431264 2.2832,-3.814016 4.45128,-6.964016 4.81795,-7 0.37064,-0.03637 0.99118,3.272936 1.39749,7.452789 0.5894,6.063377 0.97642,7.704095 2,8.478798 1.15751,0.876067 0.96123,0.962449 -2.23082,0.981786 -1.925,0.01166 -3.5,-0.278798 -3.5,-0.645465 0,-0.366666 0.45,-0.666666 1,-0.666666 0.66666,0 1,-0.666667 1,-2 0,-1.918155 -0.11964,-2 -2.92333,-2 -2.44001,0 -3.11824,0.297476 -4.10224,1.799252 -0.80549,1.229328 -0.93536,1.880438 -0.41001,2.055556 1.78938,0.59646 0.55536,1.478276 -2.06442,1.475214 l -2.83334,-0.0033 1.84872,-1.496688 z M 392,25 c 0,-1.65 -0.225,-2.997689 -0.5,-2.994865 -0.47825,0.0049 -3.5,4.862969 -3.5,5.626944 C 388,27.834436 388.9,28 390,28 c 1.92593,0 2,-0.111111 2,-3 z m -230,5 v -2.666666 h -6 c -3.55555,0 -6,-0.271605 -6,-0.666667 C 150,26.266667 152.66667,26 156.66667,26 h 6.66666 v 3.333334 c 0,1.833333 -0.3,3.333333 -0.66666,3.333333 C 162.3,32.666667 162,31.466667 162,30 Z m 94.66667,0 v -2.666666 h -6 c -3.55556,0 -6,-0.271605 -6,-0.666667 0,-0.4 2.66666,-0.666667 6.66666,-0.666667 H 258 v 3.333334 c 0,1.833333 -0.3,3.333333 -0.66667,3.333333 -0.36666,0 -0.66666,-1.2 -0.66666,-2.666667 z m 72.66666,0 v -2.666666 h -6 c -3.55555,0 -6,-0.271605 -6,-0.666667 C 317.33333,26.266667 320,26 324,26 h 6.66667 v 3.333334 c 0,1.833333 -0.3,3.333333 -0.66667,3.333333 -0.36667,0 -0.66667,-1.2 -0.66667,-2.666667 z"
       id="path678" />
  </g>
</svg>
