<?xml version="1.0" encoding="UTF-8" standalone="no"?>
<svg
   xmlns:dc="http://purl.org/dc/elements/1.1/"
   xmlns:cc="http://creativecommons.org/ns#"
   xmlns:rdf="http://www.w3.org/1999/02/22-rdf-syntax-ns#"
   xmlns:svg="http://www.w3.org/2000/svg"
   xmlns="http://www.w3.org/2000/svg"
   xmlns:sodipodi="http://sodipodi.sourceforge.net/DTD/sodipodi-0.dtd"
   xmlns:inkscape="http://www.inkscape.org/namespaces/inkscape"
   version="1.1"
   id="svg858"
   width="384.00351"
   height="323.2757"
   viewBox="0 0 384.00351 323.2757"
   sodipodi:docname="5-4-example-1.svg"
   inkscape:version="1.0.1 (c497b03c, 2020-09-10)">
  <metadata
     id="metadata864">
    <rdf:RDF>
      <cc:Work
         rdf:about="">
        <dc:format>image/svg+xml</dc:format>
        <dc:type
           rdf:resource="http://purl.org/dc/dcmitype/StillImage" />
        <dc:title></dc:title>
      </cc:Work>
    </rdf:RDF>
  </metadata>
  <defs
     id="defs862" />
  <sodipodi:namedview
     pagecolor="#ffffff"
     bordercolor="#666666"
     borderopacity="1"
     objecttolerance="10"
     gridtolerance="10"
     guidetolerance="10"
     inkscape:pageopacity="0"
     inkscape:pageshadow="2"
     inkscape:window-width="740"
     inkscape:window-height="480"
     id="namedview860"
     showgrid="false"
     fit-margin-top="0"
     fit-margin-left="0"
     fit-margin-right="0"
     fit-margin-bottom="0"
     inkscape:pagecheckerboard="true"
     inkscape:zoom="0.8156263"
     inkscape:cx="86.937726"
     inkscape:cy="163.46001"
     inkscape:window-x="0"
     inkscape:window-y="25"
     inkscape:window-maximized="0"
     inkscape:current-layer="g866" />
  <g
     inkscape:groupmode="layer"
     inkscape:label="Image"
     id="g866"
     transform="translate(-98.704848,25.618718)">
    <path
       style="fill:#1c1c1c;stroke-width:0.666667"
       d="m 255.39272,297.43708 c -0.0117,-0.29911 0.27331,-1.09412 0.63326,-1.76669 0.49752,-0.92962 0.39085,-1.32402 -0.44481,-1.6447 -0.78719,-0.30207 -0.89485,-0.62625 -0.37921,-1.14188 0.92774,-0.92775 2.16956,-0.1594 2.16956,1.34236 0,1.14094 -1.93696,4.28397 -1.9788,3.21091 z m 9.6052,-3.30196 c -1.88722,-1.03175 -2.27148,-1.84631 -2.28286,-4.83921 -0.0122,-3.20473 1.31782,-5.33514 3.70468,-5.9342 1.69675,-0.42586 3.61845,0.47742 3.61845,1.70082 0,1.01832 -1.89246,0.63122 -2.11779,-0.43318 -0.19168,-0.9055 -0.3816,-0.90132 -1.71554,0.0378 -1.90868,1.34374 -2.00379,2.98734 -0.14475,2.50118 1.83761,-0.48054 3.97808,1.58254 3.97808,3.83426 0,2.71828 -2.71339,4.40464 -5.04027,3.13252 z m 3.30228,-1.54207 c 0.96523,-2.51536 -0.52974,-5.31254 -2.44626,-4.5771 -1.14747,0.44032 -1.66221,4.2296 -0.70464,5.18718 0.82409,0.82408 2.74314,0.45252 3.1509,-0.61008 z m -20.09534,1.26164 c 2.22537,-0.58155 1.31358,-2.20712 -1.238,-2.20712 -1.78826,0 -2.31276,-0.23946 -2.04618,-0.93417 0.64031,-1.66861 5.22534,-7.73249 5.84672,-7.73249 0.33226,0 0.60412,1.775 0.60412,3.94444 0,2.53178 0.29846,4.06488 0.83334,4.2807 0.66666,0.26901 0.66666,0.34678 0,0.38889 -0.45834,0.0289 -0.83334,0.47763 -0.83334,0.99708 0,0.51944 0.375,1.09576 0.83334,1.2807 0.45833,0.18494 -0.51667,0.32514 -2.16667,0.31155 -1.65,-0.0136 -2.475,-0.1619 -1.83333,-0.32958 z m 1.14269,-5.37378 -0.024,-2.5 -1.63938,2 c -2.06227,2.51592 -2.05894,3 0.0207,3 1.48574,0 1.66406,-0.27139 1.64269,-2.5 z m -58.6427,-19.24334 v -8.41001 l -1.7062,1.11794 c -0.9384,0.61487 -2.2134,1.00929 -2.83333,0.87647 -0.84091,-0.18015 -0.59284,-0.52534 0.97689,-1.35933 1.15722,-0.61482 2.50546,-2.02473 2.99608,-3.13313 1.09057,-2.46378 1.62416,-2.53798 2.18489,-0.30386 0.23625,0.94127 1.31687,2.21627 2.40139,2.83333 1.08452,0.61706 1.97375,1.34693 1.97607,1.62193 0.007,0.83495 -1.61164,0.56126 -3.18078,-0.5378 l -1.48167,-1.03781 v 8.37114 c 0,5.13631 -0.25762,8.37113 -0.66667,8.37113 -0.40921,0 -0.66667,-3.24778 -0.66667,-8.41 z m 60.66667,3.27144 c 0,-0.25954 1.11089,-1.60954 2.46864,-3 l 2.46863,-2.5281 -2.59199,-2.65443 c -3.38164,-3.46313 -2.46283,-4.38194 1.0003,-1.00029 l 2.65442,2.59198 2.66667,-2.60393 c 3.16234,-3.08794 3.65189,-1.74663 0.53589,1.46826 l -2.13078,2.19841 2.13078,2.1984 c 3.116,3.2149 2.62645,4.5562 -0.53589,1.46826 l -2.66667,-2.60393 -2.5281,2.46863 c -2.44672,2.38915 -3.4719,2.97875 -3.4719,1.99674 z m -148.97691,-28.4444 c -1.98033,-1.98033 -2.792569,-6.74216 -1.7097,-10.02329 1.25235,-3.79465 4.58236,-5.82604 7.63208,-4.65575 1.3933,0.53466 1.40405,3.59534 0.0126,3.59534 -0.68721,0 -0.9709,-0.48955 -0.83333,-1.43804 0.47985,-3.30844 -3.69212,-1.14569 -4.51996,2.34314 -0.41895,1.76565 -0.35136,1.85123 0.92328,1.16906 2.94655,-1.57694 6.13858,1.01304 6.13858,4.98078 0,2.283 -0.34862,3.1225 -1.75657,4.23 -2.2911,1.80218 -3.93994,1.74582 -5.887,-0.20124 z m 4.95345,-1.03988 c 1.54873,-2.89383 0.34753,-7.37716 -1.97655,-7.37716 -1.5152,0 -2.66666,1.87113 -2.66666,4.33334 0,2.4622 1.15146,4.33333 2.66666,4.33333 0.70754,0 1.59698,-0.58028 1.97655,-1.28951 z m 95.4078,1.68429 c -0.42842,-0.5162 -0.7053,-2.18651 -0.6153,-3.71179 0.17574,-2.9785 -0.64018,-3.98806 -3.2377,-4.00612 -1.13266,-0.008 -1.6275,0.56176 -2.16295,2.4898 -0.91939,3.31056 -0.89619,3.53872 0.46495,4.57196 1.01326,0.76918 0.65746,0.88842 -2.70602,0.90684 -2.41686,0.0132 -3.71779,-0.22942 -3.46065,-0.64547 0.22661,-0.36667 0.83275,-0.66667 1.34698,-0.66667 0.52005,0 1.22431,-1.10945 1.58696,-2.5 1.63681,-6.2761 2.73273,-10.72609 2.73273,-11.09622 0,-0.22208 -0.45,-0.40378 -1,-0.40378 -0.55,0 -1,-0.3 -1,-0.66666 0,-1.0188 7.7352,-0.7952 10.35474,0.29931 1.93263,0.80751 2.31192,1.30477 2.31192,3.03101 0,1.59616 -0.45314,2.32288 -1.99578,3.20068 -2.10727,1.1991 -2.4296,1.79408 -1.33755,2.469 0.36667,0.22661 0.66667,1.74432 0.66667,3.37268 0,3.09104 0.5894,3.66031 2.01337,1.94454 0.46381,-0.55886 0.99871,-0.8607 1.18865,-0.67076 0.58745,0.58745 -2.00924,3.0202 -3.22372,3.0202 -0.63161,0 -1.4989,-0.42234 -1.9273,-0.93855 z m 0.0304,-9.10503 c 1.72105,-0.92108 2.60242,-3.28982 1.79618,-4.8274 -0.46818,-0.89285 -1.25646,-1.15147 -3.04813,-1 -2.27676,0.19249 -2.46319,0.38762 -3.22066,3.37098 l -0.80401,3.16667 h 1.97475 c 1.08611,0 2.57195,-0.31961 3.30187,-0.71025 z m 65.96956,9.10503 c -0.42841,-0.5162 -0.70529,-2.18651 -0.6153,-3.71179 0.17575,-2.9785 -0.64017,-3.98806 -3.2377,-4.00612 -1.13265,-0.008 -1.6275,0.56176 -2.16294,2.4898 -0.91939,3.31056 -0.89619,3.53872 0.46494,4.57196 1.01327,0.76918 0.65747,0.88842 -2.70601,0.90684 -2.41686,0.0132 -3.71779,-0.22942 -3.46065,-0.64547 0.22661,-0.36667 0.83275,-0.66667 1.34698,-0.66667 0.52004,0 1.2243,-1.10945 1.58696,-2.5 1.63684,-6.2761 2.73276,-10.72609 2.73276,-11.09622 0,-0.22208 -0.45,-0.40378 -1,-0.40378 -0.55,0 -1,-0.3 -1,-0.66666 0,-1.0188 7.7352,-0.7952 10.35474,0.29931 1.93263,0.80751 2.31192,1.30477 2.31192,3.03101 0,1.59616 -0.45314,2.32288 -1.99578,3.20068 -2.10727,1.1991 -2.4296,1.79408 -1.33755,2.469 0.36667,0.22661 0.66667,1.74432 0.66667,3.37268 0,3.09104 0.5894,3.66031 2.01337,1.94454 0.46381,-0.55886 0.99871,-0.8607 1.18865,-0.67076 0.58745,0.58745 -2.00924,3.0202 -3.22372,3.0202 -0.63161,0 -1.4989,-0.42234 -1.9273,-0.93855 z m 0.0304,-9.10503 c 1.72106,-0.92108 2.60243,-3.28982 1.79619,-4.8274 -0.46818,-0.89285 -1.25647,-1.15147 -3.04813,-1 -2.27676,0.19249 -2.46319,0.38762 -3.22066,3.37098 l -0.80402,3.16667 h 1.97476 c 1.08611,0 2.57195,-0.31961 3.30186,-0.71025 z m -155.62304,8.94636 c -0.94368,-0.94368 -0.40969,-2.23611 0.92388,-2.23611 0.93198,0 1.31201,0.36203 1.16667,1.11142 -0.23796,1.22699 -1.376,1.83924 -2.09055,1.12469 z m 74.20834,-4.23611 v -2.66667 h -6 c -3.55555,0 -6,-0.2716 -6,-0.66666 0,-0.4 2.66667,-0.66667 6.66667,-0.66667 h 6.66666 v 3.33333 c 0,1.83334 -0.3,3.33334 -0.66666,3.33334 -0.36667,0 -0.66667,-1.2 -0.66667,-2.66667 z m 66.66667,0 v -2.66667 h -6 c -3.55555,0 -6,-0.2716 -6,-0.66666 0,-0.4 2.66667,-0.66667 6.66667,-0.66667 h 6.66666 v 3.33333 c 0,1.83334 -0.3,3.33334 -0.66666,3.33334 -0.36667,0 -0.66667,-1.2 -0.66667,-2.66667 z M 102.18652,215.94311 c -1.80951,-1.26744 -2.1061,-4.9622 -0.39834,-4.9622 0.84717,0 0.99649,0.43422 0.68496,1.99188 -0.34389,1.71946 -0.17175,2.04878 1.25865,2.40778 0.94218,0.23648 2.08472,0.0609 2.64838,-0.40685 0.99921,-0.82927 1.34801,-4.9543 0.58669,-6.93829 -0.51068,-1.3308 -2.50756,-1.36522 -3.58925,-0.0619 -1.35557,1.63339 -2.0061,0.48444 -2.0061,-3.54308 v -3.8051 h 3.9926 c 3.86817,0 3.95459,0.038 2.77325,1.21934 -0.67063,0.67063 -2.1673,1.24628 -3.32592,1.27923 -1.8187,0.0517 -2.10659,0.30105 -2.10659,1.82457 0,1.61454 0.19296,1.74216 2.26802,1.4999 5.36693,-0.62656 7.24897,7.02432 2.35096,9.55718 -2.39198,1.23694 -3.29788,1.22592 -5.13731,-0.0625 z m 341.48804,-0.59857 c -1.89257,-1.89257 -2.06544,-2.90749 -0.59155,-3.47308 1.50468,-0.5774 2.71053,0.79767 1.73271,1.97587 -0.93547,1.12716 -0.36209,1.80024 1.53359,1.80024 1.99154,0 3.02222,-1.25044 3.02222,-3.66666 0,-2.38846 -1.0216,-3.65809 -2.96667,-3.68694 -1.35771,-0.0201 -1.35793,-0.0251 -0.0333,-0.74955 2.90874,-1.59096 3.70838,-3.75989 2.01172,-5.45655 -1.54228,-1.54228 -3.54127,-0.69024 -3.15246,1.34369 0.25769,1.34803 0.0829,1.63568 -0.8803,1.44897 -1.77082,-0.34325 -1.91371,-1.63154 -0.35396,-3.19129 1.49212,-1.49213 4.04111,-1.779 6.08549,-0.68488 1.60651,0.85978 1.72224,4.11525 0.2004,5.63708 -1.0077,1.0077 -0.98278,1.16358 0.33333,2.08542 2.10929,1.47741 1.93372,5.08843 -0.33413,6.87233 -2.33017,1.83291 -4.60727,1.74515 -6.60706,-0.25465 z m 24.58893,0.99584 c -2.78569,-1.17209 -2.64814,-4.23017 0.31069,-6.90788 1.03776,-0.93916 1.25074,-1.7624 0.97937,-3.78561 -0.46928,-3.49879 0.2088,-5.82192 1.85152,-6.3433 3.08788,-0.98005 4.36142,2.81454 1.96646,5.85923 -1.69472,2.15449 -1.68184,2.32904 0.39793,5.38969 l 1.73126,2.54778 1.60207,-2.35766 c 1.70757,-2.51291 2.0181,-3.76172 0.9354,-3.76172 -0.36666,0 -0.66666,-0.3 -0.66666,-0.66667 0,-0.36667 1.2,-0.66667 2.66666,-0.66667 2.73116,0 3.62972,0.92598 1.45134,1.49564 -0.66842,0.1748 -2.04104,1.7268 -3.05025,3.44889 -1.46593,2.50141 -1.67434,3.32458 -1.03638,4.09327 1.16954,1.40922 2.99074,1.17522 4.18568,-0.5378 0.57549,-0.825 1.06208,-1.125 1.08131,-0.66666 0.0193,0.45833 -0.59103,1.45933 -1.35614,2.22444 -1.06412,1.06412 -1.80844,1.27278 -3.16666,0.88768 -2.10498,-0.59681 -3.73014,-0.61084 -6.44223,-0.0556 -1.1,0.2252 -2.64862,0.13654 -3.44137,-0.19702 z m 5.00797,-1.28352 c 0.71159,-0.45094 0.48793,-1.13903 -1.06864,-3.28782 -2.14269,-2.9579 -3.49796,-2.74667 -3.49796,0.5452 0,2.82976 2.27399,4.19547 4.5666,2.74262 z m 0.10007,-12.82425 c 0,-1.22067 -0.34736,-1.91837 -0.95508,-1.91837 -1.19215,0 -1.94374,2.21833 -1.36712,4.0351 0.62088,1.95621 2.3222,0.40543 2.3222,-2.11673 z m -360.20835,13.65108 c -0.94368,-0.94368 -0.40969,-2.23612 0.92388,-2.23612 0.93198,0 1.31201,0.36204 1.16667,1.11142 -0.23796,1.22699 -1.376,1.83924 -2.09055,1.1247 z m 68.54167,-0.23612 c 0.22662,-0.36666 0.83276,-0.66666 1.34698,-0.66666 0.52005,0 1.22431,-1.10946 1.58696,-2.5 1.63681,-6.2761 2.73273,-10.7261 2.73273,-11.09623 0,-0.22208 -0.45,-0.40377 -1,-0.40377 -0.55,0 -1,-0.33079 -1,-0.73508 0,-0.49632 1.83466,-0.65872 5.6484,-0.5 6.43678,0.26789 8.13614,1.29294 8.7449,5.27493 0.46198,3.02191 -1.96178,7.77444 -4.99188,9.7881 -1.90184,1.26387 -3.16487,1.50538 -7.87269,1.50538 -3.56852,0 -5.4576,-0.24241 -5.1954,-0.66667 z m 11.99089,-2.11193 c 3.52262,-2.77089 4.88123,-9.25717 2.40784,-11.49555 -0.84865,-0.76802 -2.1036,-1.07776 -3.79507,-0.93666 l -2.52712,0.21081 -1.52183,6 c -0.837,3.3 -1.52922,6.375 -1.53827,6.83333 -0.0283,1.43669 4.92225,1.00232 6.97445,-0.61193 z m 54.67578,2.11193 c 0.22662,-0.36666 0.83276,-0.66666 1.34698,-0.66666 0.52005,0 1.22431,-1.10946 1.58696,-2.5 1.63681,-6.2761 2.73273,-10.7261 2.73273,-11.09623 0,-0.22208 -0.45,-0.40377 -1,-0.40377 -0.55,0 -1,-0.33079 -1,-0.73508 0,-0.49632 1.83466,-0.65872 5.6484,-0.5 6.43678,0.26789 8.13613,1.29294 8.74489,5.27493 0.46199,3.02191 -1.96178,7.77444 -4.99188,9.7881 -1.90184,1.26387 -3.16486,1.50538 -7.87268,1.50538 -3.56852,0 -5.4576,-0.24241 -5.1954,-0.66667 z m 11.99088,-2.11193 c 3.52262,-2.77089 4.88124,-9.25717 2.40785,-11.49555 -0.84865,-0.76802 -2.10361,-1.07776 -3.79507,-0.93666 l -2.52712,0.21081 -1.52183,6 c -0.837,3.3 -1.52922,6.375 -1.53827,6.83333 -0.0283,1.43669 4.92225,1.00232 6.97444,-0.61193 z m 53.69699,-9.43189 c -0.0117,-0.29911 0.27331,-1.09412 0.63326,-1.7667 0.49751,-0.92962 0.39085,-1.32402 -0.44481,-1.64469 -0.78719,-0.30207 -0.89485,-0.62625 -0.37922,-1.14189 0.92775,-0.92774 2.16957,-0.1594 2.16957,1.34236 0,1.14095 -1.93696,4.28398 -1.9788,3.21092 z m -8.79825,-3.38633 c -1.67582,-0.83549 -2.07822,-2.45142 -0.72295,-2.90318 0.48889,-0.16296 0.83333,0.29629 0.83333,1.11111 0,1.83474 3.06204,1.96059 3.63686,0.14948 0.58797,-1.85253 -0.26505,-3.42726 -1.85652,-3.42726 -1.40547,0 -1.40522,-0.003 0.0713,-1.0378 1.49986,-1.05054 1.9875,-3.23756 0.87517,-3.92502 -1.01844,-0.62942 -2.66556,0.34677 -2.28007,1.35133 0.22018,0.57377 -0.0582,0.94483 -0.70876,0.94483 -1.67238,0 -1.2573,-1.94386 0.59534,-2.78797 3.21288,-1.46389 6.54944,1.63853 4.24286,3.94511 -0.56508,0.56508 -0.48053,1.03376 0.33333,1.84762 1.30595,1.30596 1.37893,2.3796 0.25714,3.78271 -1.16479,1.45689 -3.43829,1.86576 -5.27705,0.94904 z m 19.61038,-0.19607 c 2.22538,-0.58154 1.31358,-2.20711 -1.23799,-2.20711 -1.78827,0 -2.31277,-0.23946 -2.04618,-0.93417 0.64031,-1.66862 5.22534,-7.7325 5.84671,-7.7325 0.33227,0 0.60413,1.775 0.60413,3.94445 0,2.53177 0.29845,4.06487 0.83333,4.2807 0.66667,0.26901 0.66667,0.34678 0,0.38889 -0.45833,0.0289 -0.83333,0.47763 -0.83333,0.99708 0,0.51944 0.375,1.09576 0.83333,1.2807 0.45834,0.18494 -0.51666,0.32514 -2.16666,0.31155 -1.65,-0.0136 -2.475,-0.1619 -1.83334,-0.32959 z m 1.1427,-5.37378 -0.024,-2.5 -1.63938,2 c -2.06228,2.51593 -2.05894,3 0.0207,3 1.48575,0 1.66407,-0.27138 1.6427,-2.5 z m -135.30937,-17.5 c 0,-8.88888 0.24339,-14 0.66667,-14 0.42328,0 0.66667,5.11112 0.66667,14 0,8.88889 -0.24339,14 -0.66667,14 -0.42328,0 -0.66667,-5.11111 -0.66667,-14 z m 66.95571,-2.33333 c -4.1e-4,-9.16667 0.0935,-13.00913 0.20865,-8.53881 0.11517,4.47032 0.1155,11.97032 6.7e-4,16.66666 -0.11469,4.69635 -0.20892,1.03882 -0.20932,-8.12785 z m 116.37763,0.58999 v -8.41 l -1.7062,1.11794 c -0.93841,0.61487 -2.21341,1.00928 -2.83333,0.87647 -0.84092,-0.18015 -0.59284,-0.52534 0.97689,-1.35933 1.15722,-0.61482 2.50545,-2.02473 2.99607,-3.13313 1.09058,-2.46378 1.62416,-2.53799 2.1849,-0.30387 0.23624,0.94128 1.31686,2.21628 2.40138,2.83334 1.08452,0.61706 1.97376,1.34692 1.97608,1.62192 0.007,0.83496 -1.61164,0.56127 -3.18078,-0.5378 l -1.48168,-1.0378 v 8.37114 c 0,5.13631 -0.25762,8.37113 -0.66666,8.37113 -0.40922,0 -0.66667,-3.24778 -0.66667,-8.41001 z m -64,3.27145 c 0,-0.25954 1.11089,-1.60954 2.46863,-3 l 2.46864,-2.52811 -2.59199,-2.65442 c -3.38165,-3.46313 -2.46283,-4.38194 1.00029,-1.0003 l 2.65443,2.59199 2.66667,-2.60393 c 3.16234,-3.08794 3.65189,-1.74664 0.53588,1.46826 l -2.13077,2.1984 2.13077,2.19841 c 3.11601,3.21489 2.62646,4.5562 -0.53588,1.46826 l -2.66667,-2.60393 -2.52811,2.46863 c -2.44671,2.38915 -3.47189,2.97875 -3.47189,1.99674 z M 199.1493,155.20313 c -0.24444,-0.24444 -0.44444,-1.1061 -0.44444,-1.9148 0,-1.19786 -0.49013,-1.54872 -2.64478,-1.89326 -3.62683,-0.57996 -5.35523,-2.5938 -5.35523,-6.23964 0,-5.63296 3.93081,-10.17142 9.25243,-10.68276 2.90089,-0.27874 3.52908,-0.1042 5.03117,1.39789 2.53002,2.53002 2.42329,7.26781 -0.24677,10.95371 -1.07974,1.49054 -2.5968,2.91118 -3.37124,3.15698 -0.8035,0.25502 -1.32024,0.89966 -1.2035,1.50137 0.32359,1.66787 1.63224,1.69908 3.14528,0.075 1.90202,-2.04159 1.9112,-0.0825 0.0109,2.33335 -1.31626,1.67335 -3.21553,2.27043 -4.17383,1.31213 z m -0.44444,-5.93777 c 0,-0.62083 -0.45358,-0.96092 -1.11142,-0.83333 -1.67252,0.32436 -1.90217,1.88221 -0.27747,1.88221 0.81889,0 1.38889,-0.43046 1.38889,-1.04888 z m -1.35498,-2.28445 c 0.32619,0 1.10324,0.51016 1.72677,1.1337 1.06715,1.06715 1.22513,1.0274 2.69145,-0.6773 1.83538,-2.13376 3.19615,-6.66548 2.65222,-8.83264 -0.48887,-1.94784 -2.154,-3.62448 -3.59642,-3.62127 -4.66496,0.0104 -9.74122,9.05411 -7.46714,13.30325 l 0.79668,1.48862 1.30168,-1.39718 c 0.71592,-0.76845 1.56856,-1.39718 1.89476,-1.39718 z m 127.13276,8.22222 c -0.24445,-0.24444 -0.44445,-1.1061 -0.44445,-1.9148 0,-1.19786 -0.49013,-1.54872 -2.64477,-1.89326 -3.62683,-0.57996 -5.35523,-2.5938 -5.35523,-6.23964 0,-5.63296 3.93081,-10.17142 9.25243,-10.68276 2.90088,-0.27874 3.52907,-0.1042 5.03116,1.39789 2.53002,2.53002 2.42329,7.26781 -0.24676,10.95371 -1.07974,1.49054 -2.5968,2.91118 -3.37125,3.15698 -0.80349,0.25502 -1.32023,0.89966 -1.20349,1.50137 0.32358,1.66787 1.63224,1.69908 3.14527,0.075 1.90203,-2.04159 1.9112,-0.0825 0.0109,2.33335 -1.31626,1.67335 -3.21553,2.27043 -4.17383,1.31213 z m -0.44445,-5.93777 c 0,-0.62083 -0.45358,-0.96092 -1.11142,-0.83333 -1.67251,0.32436 -1.90217,1.88221 -0.27747,1.88221 0.81889,0 1.38889,-0.43046 1.38889,-1.04888 z m -1.35498,-2.28445 c 0.32619,0 1.10324,0.51016 1.72677,1.1337 1.06716,1.06715 1.22514,1.0274 2.69146,-0.6773 1.83538,-2.13376 3.19614,-6.66548 2.65222,-8.83264 -0.48888,-1.94784 -2.15401,-3.62448 -3.59642,-3.62127 -4.66496,0.0104 -9.74122,9.05411 -7.46714,13.30325 l 0.79668,1.48862 1.30168,-1.39718 c 0.71592,-0.76845 1.56856,-1.39718 1.89475,-1.39718 z m -61.92735,3.72811 c -0.42842,-0.5162 -0.7053,-2.18651 -0.6153,-3.71179 0.17574,-2.9785 -0.64018,-3.98806 -3.2377,-4.00612 -1.13266,-0.008 -1.6275,0.56176 -2.16295,2.4898 -0.91939,3.31056 -0.89619,3.53872 0.46495,4.57196 1.01326,0.76918 0.65746,0.88842 -2.70602,0.90684 -2.41686,0.0132 -3.71778,-0.22942 -3.46065,-0.64547 0.22661,-0.36667 0.83275,-0.66667 1.34698,-0.66667 0.52005,0 1.22431,-1.10945 1.58696,-2.5 1.63681,-6.2761 2.73273,-10.72609 2.73273,-11.09622 0,-0.22208 -0.45,-0.40378 -1,-0.40378 -0.55,0 -1,-0.3 -1,-0.66666 0,-1.0188 7.7352,-0.7952 10.35474,0.29931 1.93263,0.80751 2.31192,1.30477 2.31192,3.03101 0,1.59616 -0.45314,2.32288 -1.99578,3.20068 -2.10727,1.1991 -2.4296,1.79408 -1.33755,2.469 0.36667,0.22661 0.66667,1.74432 0.66667,3.37268 0,3.09104 0.5894,3.66031 2.01337,1.94454 0.46381,-0.55886 0.99871,-0.8607 1.18865,-0.67076 0.58745,0.58745 -2.00924,3.0202 -3.22372,3.0202 -0.63161,0 -1.4989,-0.42234 -1.9273,-0.93855 z m 0.0304,-9.10503 c 1.72105,-0.92108 2.60242,-3.28982 1.79618,-4.8274 -0.46818,-0.89285 -1.25646,-1.15147 -3.04813,-1 -2.27676,0.19249 -2.46319,0.38762 -3.22066,3.37098 l -0.80401,3.16667 h 1.97475 c 1.08611,0 2.57195,-0.31961 3.30187,-0.71025 z m 117.96956,9.10503 c -0.42841,-0.5162 -0.70529,-2.18651 -0.6153,-3.71179 0.17575,-2.9785 -0.64017,-3.98806 -3.2377,-4.00612 -1.13265,-0.008 -1.6275,0.56176 -2.16294,2.4898 -0.91939,3.31056 -0.89619,3.53872 0.46494,4.57196 1.01327,0.76918 0.65747,0.88842 -2.70601,0.90684 -2.41686,0.0132 -3.71779,-0.22942 -3.46065,-0.64547 0.22661,-0.36667 0.83275,-0.66667 1.34698,-0.66667 0.52004,0 1.2243,-1.10945 1.58696,-2.5 1.63684,-6.2761 2.73276,-10.72609 2.73276,-11.09622 0,-0.22208 -0.45,-0.40378 -1,-0.40378 -0.55,0 -1,-0.3 -1,-0.66666 0,-1.0188 7.7352,-0.7952 10.35474,0.29931 1.93263,0.80751 2.31192,1.30477 2.31192,3.03101 0,1.59616 -0.45314,2.32288 -1.99578,3.20068 -2.10727,1.1991 -2.4296,1.79408 -1.33755,2.469 0.36667,0.22661 0.66667,1.74432 0.66667,3.37268 0,3.09104 0.5894,3.66031 2.01337,1.94454 0.46381,-0.55886 0.99871,-0.8607 1.18865,-0.67076 0.58745,0.58745 -2.00924,3.0202 -3.22372,3.0202 -0.63161,0 -1.4989,-0.42234 -1.9273,-0.93855 z m 0.0304,-9.10503 c 1.72106,-0.92108 2.60243,-3.28982 1.79619,-4.8274 -0.46818,-0.89285 -1.25647,-1.15147 -3.04813,-1 -2.27676,0.19249 -2.46319,0.38762 -3.22066,3.37098 l -0.80402,3.16667 h 1.97476 c 1.08611,0 2.57195,-0.31961 3.30186,-0.71025 z m 86.97045,3.05528 c -1.73183,-3.87988 -3.01298,-7.41972 -2.84701,-7.86634 0.29909,-0.80483 5.79513,10.31125 5.79513,11.72102 0,1.50219 1.24228,-0.65335 3.69094,-6.4043 1.41459,-3.32235 2.75128,-5.61986 3.07898,-5.29216 0.55456,0.55456 -4.58785,12.91468 -5.93262,14.25945 -0.4044,0.40441 -1.78524,-1.93661 -3.78542,-6.41767 z m -363.05182,5.65497 c 0,-0.36667 0.45,-0.66667 1,-0.66667 0.55555,0 1,-0.59259 1,-1.33333 0,-1.1358 -0.44445,-1.33333 -3,-1.33333 -1.65,0 -3.000002,-0.30249 -3.000002,-0.67219 0,-0.92067 6.877222,-11.2941 7.500002,-11.3128 0.275,-0.008 0.5,2.39465 0.5,5.3398 0,4.89053 0.12579,5.40135 1.45084,5.89152 l 1.45084,0.5367 -1.45084,0.37941 c -1.60515,0.41975 -2.01317,2.50422 -0.49019,2.50422 0.52836,0 1.14607,0.3 1.37268,0.66667 0.25394,0.41089 -0.88196,0.66667 -2.96065,0.66667 -1.85498,0 -3.37268,-0.3 -3.37268,-0.66667 z m 2,-7.66667 c 0,-2.01666 -0.10516,-3.66666 -0.23368,-3.66666 -0.27133,0 -4.43299,6.61314 -4.43299,7.0443 0,0.15896 1.05,0.28903 2.33333,0.28903 h 2.33334 z m 7.79166,7.90278 c -0.94367,-0.94368 -0.40968,-2.23611 0.92389,-2.23611 0.93197,0 1.312,0.36203 1.16666,1.11142 -0.23796,1.22699 -1.376,1.83924 -2.09055,1.12469 z m 330.20835,-0.19732 c 0,-0.34532 1.5,-2.342 3.33333,-4.43706 2.48567,-2.84051 3.33334,-4.34226 3.33334,-5.90546 0,-2.47019 -1.0263,-3.69627 -3.09399,-3.69627 -1.86442,0 -2.60153,1.09364 -1.57268,2.33333 0.90601,1.09167 0.35293,2.33334 -1.03935,2.33334 -0.61883,0 -0.96065,-0.69819 -0.96065,-1.9622 0,-3.78154 5.14534,-5.40978 7.88379,-2.49484 2.37715,2.53036 1.87958,4.74881 -1.9805,8.83028 l -3.43003,3.62676 h 2.66149 c 2.10128,0 2.81377,-0.31574 3.38492,-1.5 l 0.72342,-1.5 0.0451,1.44547 c 0.0972,3.11421 -0.52542,3.55453 -5.02622,3.55453 -2.3441,0 -4.26201,-0.28254 -4.26201,-0.62788 z m -255.33334,-4.03879 v -2.66667 h -6 c -3.55555,0 -6,-0.2716 -6,-0.66666 0,-0.4 2.66667,-0.66667 6.66667,-0.66667 h 6.66666 v 3.33333 c 0,1.83334 -0.3,3.33334 -0.66666,3.33334 -0.36667,0 -0.66667,-1.2 -0.66667,-2.66667 z m 124.66667,0 v -2.66667 h -6 c -3.55555,0 -6,-0.2716 -6,-0.66666 0,-0.4 2.66667,-0.66667 6.66667,-0.66667 h 6.66666 v 3.33333 c 0,1.83334 -0.3,3.33334 -0.66666,3.33334 -0.36667,0 -0.66667,-1.2 -0.66667,-2.66667 z M 207.65122,109.94683 c 9.13718,-8.9646 16.78718,-16.286937 17,-16.271897 0.21284,0.0151 7.88697,7.384757 17.05364,16.377137 9.16666,8.99238 16.29844,16.25506 15.8484,16.1393 -0.45004,-0.11575 -8.03058,-7.21434 -16.84565,-15.77462 l -16.02739,-15.564167 -8.48768,8.017107 c -4.66823,4.40942 -11.93279,11.48829 -16.14348,15.73084 -4.21068,4.24254 -7.96069,7.69837 -8.33333,7.67963 -0.37265,-0.0187 6.79833,-7.36875 15.93549,-16.33333 z m 111.8144,12.83679 c 2.06842,-1.90816 8.76373,-8.21261 14.87848,-14.00989 6.11474,-5.79728 11.39047,-10.447277 11.72384,-10.333327 1.11848,0.3823 29.36416,27.368827 29.01317,27.719807 -0.19066,0.19066 -4.12119,-3.22169 -8.73453,-7.583 -4.61333,-4.3613 -11.07006,-10.43125 -14.34828,-13.48878 l -5.9604,-5.559137 -2.16652,1.815917 c -1.19159,0.99876 -7.67751,7.02537 -14.41316,13.39248 -6.73565,6.3671 -12.58565,11.56277 -13,11.54593 -0.41435,-0.0169 0.93898,-1.59184 3.0074,-3.5 z m 26.35035,-32.247157 c -0.24445,-0.24444 -0.44445,-1.1061 -0.44445,-1.91479 0,-1.19787 -0.49012,-1.54873 -2.64477,-1.89327 -3.62683,-0.57995 -5.35523,-2.59379 -5.35523,-6.23964 0,-5.63295 3.93081,-10.17142 9.25243,-10.68276 2.90089,-0.27874 3.52907,-0.1042 5.03117,1.39789 2.53002,2.53002 2.42328,7.26781 -0.24677,10.95371 -1.07974,1.49054 -2.5968,2.91119 -3.37125,3.15699 -0.80349,0.25502 -1.32023,0.89965 -1.20349,1.50136 0.32359,1.66787 1.63224,1.69908 3.14527,0.075 1.90203,-2.0416 1.9112,-0.0825 0.0109,2.33334 -1.31626,1.67336 -3.21554,2.27044 -4.17384,1.31213 z m -0.44445,-5.93777 c 0,-0.62082 -0.45358,-0.96092 -1.11142,-0.83333 -1.67251,0.32437 -1.90216,1.88221 -0.27746,1.88221 0.81888,0 1.38888,-0.43046 1.38888,-1.04888 z m -1.35498,-2.28445 c 0.3262,0 1.10324,0.51017 1.72678,1.1337 1.06715,1.06715 1.22513,1.0274 2.69145,-0.6773 1.83538,-2.13376 3.19615,-6.66548 2.65222,-8.83264 -0.48887,-1.94784 -2.15401,-3.62448 -3.59642,-3.62127 -4.66496,0.0104 -9.74122,9.05411 -7.46714,13.30326 l 0.79668,1.48862 1.30168,-1.39718 c 0.71592,-0.76846 1.56856,-1.39719 1.89475,-1.39719 z m -243.00866,3.0303 c -1.892574,-1.89257 -2.065442,-2.90749 -0.59155,-3.47308 1.50468,-0.5774 2.71053,0.79767 1.73271,1.97587 -0.93546,1.12716 -0.36209,1.80024 1.53359,1.80024 1.99154,0 3.02222,-1.25044 3.02222,-3.66666 0,-2.38846 -1.0216,-3.65809 -2.96667,-3.68694 -1.35771,-0.0201 -1.35792,-0.0251 -0.0333,-0.74955 2.90874,-1.59096 3.70839,-3.75989 2.01173,-5.45655 -1.54228,-1.54228 -3.54128,-0.69024 -3.15247,1.34369 0.25769,1.34803 0.0829,1.63568 -0.88029,1.44897 -1.77082,-0.34325 -1.913714,-1.63154 -0.35397,-3.19129 1.49213,-1.49213 4.04111,-1.779 6.0855,-0.68488 1.6065,0.85978 1.72223,4.11525 0.2004,5.63708 -1.0077,1.0077 -0.98279,1.16358 0.33333,2.08542 2.10928,1.47741 1.93371,5.08843 -0.33413,6.87233 -2.33018,1.83291 -4.60727,1.74515 -6.60707,-0.25465 z m 96.58894,0.99584 c -2.78569,-1.17209 -2.64814,-4.23017 0.31069,-6.90788 1.03776,-0.93916 1.25074,-1.7624 0.97937,-3.78561 -0.46928,-3.49879 0.2088,-5.82192 1.85152,-6.3433 3.08788,-0.98005 4.36142,2.81454 1.96646,5.85923 -1.69472,2.15449 -1.68184,2.32904 0.39793,5.38969 l 1.73126,2.54778 1.60207,-2.35766 c 1.70757,-2.51291 2.0181,-3.76172 0.9354,-3.76172 -0.36666,0 -0.66666,-0.3 -0.66666,-0.66667 0,-0.36667 1.2,-0.66667 2.66666,-0.66667 2.73116,0 3.62972,0.92598 1.45134,1.49564 -0.66842,0.1748 -2.04104,1.7268 -3.05025,3.44889 -1.46593,2.50141 -1.67434,3.32458 -1.03638,4.09327 1.16954,1.40922 2.99074,1.17522 4.18568,-0.5378 0.57549,-0.825 1.06208,-1.125 1.08131,-0.66666 0.0193,0.45833 -0.59103,1.45933 -1.35614,2.22444 -1.06412,1.06412 -1.80844,1.27278 -3.16666,0.88768 -2.10498,-0.59681 -3.73014,-0.61084 -6.44223,-0.0556 -1.1,0.2252 -2.64862,0.13654 -3.44137,-0.19702 z m 5.00797,-1.28352 c 0.71159,-0.45094 0.48793,-1.13903 -1.06864,-3.28782 -2.14269,-2.9579 -3.49796,-2.74667 -3.49796,0.5452 0,2.82976 2.27399,4.19547 4.5666,2.74262 z m 0.10007,-12.82425 c 0,-1.22067 -0.34736,-1.91837 -0.95508,-1.91837 -1.19215,0 -1.94374,2.21833 -1.36712,4.0351 0.62088,1.95621 2.3222,0.40543 2.3222,-2.11673 z m 42.71766,13.80974 c -0.42841,-0.5162 -0.70529,-2.1865 -0.6153,-3.71178 0.17575,-2.9785 -0.64017,-3.98806 -3.2377,-4.00612 -1.13265,-0.008 -1.6275,0.56175 -2.16294,2.48979 -0.91939,3.31056 -0.89619,3.53872 0.46494,4.57197 1.01327,0.76918 0.65747,0.88841 -2.70601,0.90683 -2.41686,0.0132 -3.71779,-0.22941 -3.46065,-0.64547 0.22661,-0.36666 0.83275,-0.66666 1.34698,-0.66666 0.52004,0 1.2243,-1.10946 1.58696,-2.5 1.6368,-6.2761 2.73272,-10.7261 2.73272,-11.09623 0,-0.22208 -0.45,-0.40377 -1,-0.40377 -0.55,0 -1,-0.3 -1,-0.66667 0,-1.01879 7.73521,-0.7952 10.35475,0.29931 1.93263,0.80751 2.31192,1.30477 2.31192,3.03101 0,1.59616 -0.45315,2.32288 -1.99579,3.20069 -2.10726,1.1991 -2.42959,1.79407 -1.33754,2.46899 0.36666,0.22661 0.66666,1.74432 0.66666,3.37268 0,3.09105 0.58941,3.66031 2.01338,1.94454 0.46381,-0.55886 0.9987,-0.8607 1.18865,-0.67075 0.58745,0.58744 -2.00925,3.0202 -3.22372,3.0202 -0.63161,0 -1.4989,-0.42235 -1.92731,-0.93856 z m 0.0304,-9.10502 c 1.72106,-0.92108 2.60243,-3.28983 1.79619,-4.8274 -0.46818,-0.89286 -1.25647,-1.15148 -3.04813,-1 -2.27676,0.19248 -2.46319,0.38761 -3.22066,3.37098 l -0.80402,3.16666 h 1.97476 c 1.08611,0 2.57195,-0.31961 3.30186,-0.71024 z m 16.91765,7.10215 c -0.97299,-1.66029 -1.57812,-3.32767 -1.34473,-3.70531 0.76576,-1.23902 2.11641,-0.72 2.9633,1.13873 l 0.83168,1.82533 1.61961,-3.4077 c 1.72402,-3.62731 7.80867,-10.24296 9.42085,-10.24296 0.53127,0 -0.43089,1.35758 -2.13814,3.01682 -1.92745,1.87328 -3.86419,4.71622 -5.10934,7.5 -3.57104,7.98383 -3.76482,8.10412 -6.2432,3.87509 z m 203.38614,-4.04688 c -1.73184,-3.87987 -3.01299,-7.41972 -2.84702,-7.86633 0.2991,-0.80484 5.79514,10.31124 5.79514,11.72102 0,1.50218 1.24228,-0.65336 3.69093,-6.40431 1.41459,-3.32235 2.75129,-5.61985 3.07899,-5.29215 0.55455,0.55455 -4.58786,12.91468 -5.93262,14.25944 -0.40441,0.40441 -1.78525,-1.93661 -3.78542,-6.41767 z m -353.2602,5.89109 c -0.94367,-0.94368 -0.40968,-2.23612 0.92389,-2.23612 0.93197,0 1.312,0.36204 1.16666,1.11142 -0.23796,1.22699 -1.376,1.83924 -2.09055,1.1247 z m 58.54168,-0.23612 c 0.22661,-0.36666 0.83275,-0.66666 1.34698,-0.66666 0.52004,0 1.2243,-1.10946 1.58696,-2.5 1.6368,-6.2761 2.73272,-10.7261 2.73272,-11.09623 0,-0.22208 -0.45,-0.40377 -1,-0.40377 -0.55,0 -1,-0.33079 -1,-0.73508 0,-0.49632 1.83466,-0.65872 5.6484,-0.5 6.43678,0.26789 8.13614,1.29294 8.7449,5.27493 0.46198,3.02191 -1.96178,7.77444 -4.99188,9.7881 -1.90184,1.26387 -3.16487,1.50538 -7.87268,1.50538 -3.56852,0 -5.45761,-0.24241 -5.1954,-0.66667 z m 11.99088,-2.11193 c 3.52262,-2.77089 4.88123,-9.25717 2.40784,-11.49555 -0.84865,-0.76802 -2.1036,-1.07776 -3.79506,-0.93666 l -2.52713,0.21081 -1.52183,6 c -0.837,3.3 -1.52922,6.375 -1.53826,6.83333 -0.0283,1.43669 4.92224,1.00232 6.97444,-0.61193 z m 260.34246,2.42877 c 0,-0.19241 0.75,-0.63499 1.66666,-0.9835 1.60821,-0.61144 1.66667,-0.84514 1.66667,-6.66287 v -6.0292 l -1.66667,0.41831 c -0.93868,0.23559 -1.66666,0.12948 -1.66666,-0.24292 0,-0.36367 0.675,-0.80762 1.5,-0.98654 0.825,-0.17893 2.025,-0.546 2.66666,-0.81571 1.07052,-0.44998 1.16667,0.11984 1.16667,6.91427 0,6.96021 0.08,7.40466 1.33333,7.40466 0.73334,0 1.33334,0.3 1.33334,0.66666 0,0.37038 -1.77778,0.66667 -4,0.66667 -2.2,0 -4,-0.15743 -4,-0.34983 z m -213.33334,-4.31684 v -2.66666 h -6 c -3.55555,0 -6,-0.27161 -6,-0.66667 0,-0.4 2.66667,-0.66667 6.66667,-0.66667 h 6.66666 v 3.33334 c 0,1.83333 -0.3,3.33333 -0.66666,3.33333 -0.36667,0 -0.66667,-1.2 -0.66667,-2.66667 z M 315.10876,47.67371 285.17933,33.823243 277.4421,37.345676 c -4.25548,1.937334 -17.62112,8.047807 -29.7014,13.578834 -20.44448,9.360603 -24.31336,10.978323 -22.66918,9.478783 0.7666,-0.69915 59.29637,-27.41973 60.08086,-27.428697 1.04442,-0.01193 60.86637,27.673197 60.87609,28.172977 0.005,0.275 -0.21528,0.47224 -0.49028,0.4383 -0.275,-0.0339 -13.96824,-6.29441 -30.42943,-13.912163 z M 257.1493,24.536465 c -0.24444,-0.244444 -0.44444,-1.106102 -0.44444,-1.914794 0,-1.197866 -0.49013,-1.548725 -2.64478,-1.893267 -3.62682,-0.579953 -5.35522,-2.593796 -5.35522,-6.239642 0,-5.6329523 3.9308,-10.1714193 9.25242,-10.6827603 2.90089,-0.278738 3.52908,-0.104198 5.03117,1.397898 2.53002,2.530018 2.42329,7.2678043 -0.24677,10.9537033 -1.07974,1.490543 -2.5968,2.911185 -3.37124,3.156984 -0.8035,0.25502 -1.32024,0.899657 -1.2035,1.50137 0.32359,1.667864 1.63224,1.699082 3.14528,0.07503 1.90202,-2.041589 1.9112,-0.08246 0.0109,2.333349 -1.31626,1.673355 -3.21553,2.270433 -4.17383,1.312128 z m -0.44444,-5.937771 c 0,-0.620826 -0.45358,-0.960916 -1.11142,-0.833334 -1.67252,0.324368 -1.90217,1.882216 -0.27747,1.882216 0.81889,0 1.38889,-0.430459 1.38889,-1.048882 z m -1.35498,-2.284451 c 0.32619,0 1.10324,0.510165 1.72677,1.133699 1.06715,1.067154 1.22513,1.027399 2.69145,-0.677297 1.83538,-2.133759 3.19615,-6.66548 2.65222,-8.8326423 -0.48887,-1.947843 -2.154,-3.62448 -3.59642,-3.621268 -4.66496,0.01039 -9.74122,9.0541093 -7.46714,13.3032573 l 0.79668,1.48862 1.30168,-1.397184 c 0.71592,-0.768452 1.56856,-1.397185 1.89476,-1.397185 z m 20.40686,-2.321639 c -1.73184,-3.879872 -3.01299,-7.4197243 -2.84702,-7.8663373 0.2991,-0.804832 5.79514,10.3112483 5.79514,11.7210213 0,1.502188 1.24228,-0.653352 3.69093,-6.404306 1.41459,-3.3223443 2.75129,-5.6198513 3.07899,-5.2921553 0.55455,0.554559 -4.58786,12.9146793 -5.93262,14.2594523 -0.40441,0.404407 -1.78525,-1.936617 -3.78542,-6.417675 z m 28.99912,6.049754 c -0.42842,-0.516204 -0.7053,-2.186509 -0.6153,-3.71179 0.17574,-2.978499 -0.64018,-3.988062 -3.2377,-4.006116 -1.13266,-0.0079 -1.6275,0.561749 -2.16295,2.489791 -0.91939,3.310563 -0.89619,3.538723 0.46495,4.571969 1.01326,0.76918 0.65746,0.888414 -2.70602,0.906829 -2.41686,0.01323 -3.71778,-0.229411 -3.46065,-0.645465 0.22661,-0.366666 0.83275,-0.666666 1.34698,-0.666666 0.52005,0 1.22431,-1.109453 1.58696,-2.5 1.63681,-6.276102 2.73273,-10.7260943 2.73273,-11.0962303 0,-0.222074 -0.45,-0.40377 -1,-0.40377 -0.55,0 -1,-0.3 -1,-0.666667 0,-1.018793 7.7352,-0.795199 10.35474,0.299315 1.93263,0.807505 2.31192,1.304768 2.31192,3.031008 0,1.596156 -0.45314,2.322878 -1.99578,3.2006843 -2.10727,1.199099 -2.4296,1.794073 -1.33755,2.468993 0.36667,0.226613 0.66667,1.744317 0.66667,3.372678 0,3.091051 0.5894,3.660313 2.01337,1.944545 0.46381,-0.558861 0.99871,-0.8607 1.18865,-0.670754 0.58745,0.587446 -2.00924,3.020198 -3.22372,3.020198 -0.63161,0 -1.4989,-0.422348 -1.9273,-0.938552 z m 0.0304,-9.10503 c 1.72105,-0.921082 2.60242,-3.2898283 1.79618,-4.8273963 -0.46818,-0.892859 -1.25646,-1.151473 -3.04813,-1 -2.27676,0.192484 -2.46319,0.387614 -3.22066,3.370978 l -0.80401,3.1666663 h 1.97475 c 1.08611,0 2.57195,-0.319611 3.30187,-0.710248 z m 16.91764,7.102156 c -0.97299,-1.660287 -1.57812,-3.327675 -1.34473,-3.705306 0.76576,-1.239026 2.11641,-0.720004 2.96331,1.138724 l 0.83167,1.825326 1.61961,-3.407694 c 1.72402,-3.627314 7.80867,-10.2429583 9.42085,-10.2429583 0.53127,0 -0.43089,1.357571 -2.13813,3.016824 -1.92746,1.873266 -3.8642,4.7162143 -5.10934,7.5000003 -3.57104,7.983824 -3.76483,8.104107 -6.2432,3.875084 z M 100.03818,19.68637 c 0,-0.345329 1.5,-2.342006 3.33333,-4.437059 2.48567,-2.840513 3.33334,-4.342269 3.33334,-5.9054613 0,-2.470194 -1.0263,-3.696274 -3.09399,-3.696274 -1.86442,0 -2.60153,1.09364 -1.57268,2.333334 0.90601,1.091669 0.35293,2.3333333 -1.03934,2.3333333 -0.61884,0 -0.96066,-0.6981833 -0.96066,-1.9621973 0,-3.781536 5.14534,-5.409785 7.88379,-2.494836 2.37715,2.530359 1.87959,4.7488083 -1.98049,8.8302743 l -3.43004,3.626759 h 2.66149 c 2.10128,0 2.81377,-0.315735 3.38492,-1.5 l 0.72342,-1.5 0.0451,1.445475 c 0.0972,3.114214 -0.5254,3.554525 -5.0262,3.554525 -2.34411,0 -4.26201,-0.282543 -4.26201,-0.627873 z m 12.45833,0.197318 c -0.94367,-0.943678 -0.40968,-2.236112 0.92389,-2.236112 0.93197,0 1.312,0.362034 1.16666,1.111423 -0.23796,1.226986 -1.376,1.839237 -2.09055,1.124689 z M 244.70486,15.647576 V 12.98091 h -6 c -3.55556,0 -6,-0.271605 -6,-0.666667 0,-0.4 2.66666,-0.666667 6.66666,-0.666667 h 6.66667 v 3.333334 c 0,1.833333 -0.3,3.333333 -0.66667,3.333333 -0.36666,0 -0.66666,-1.2 -0.66666,-2.666667 z M 205.06102,-3.3907983 c -4.12132,-4.446974 -4.57717,-13.5829767 -0.96216,-19.2832587 2.4589,-3.87729 3.87742,-3.947743 1.61078,-0.08 -3.08168,5.25848 -3.05309,13.5129437 0.0627,18.1043097 2.04718,3.016696 1.61939,3.77383402 -0.71132,1.25895 z m 84.97717,1.41128 c 0,-0.275226 0.61392,-1.362587 1.36427,-2.416357 2.17374,-3.052739 3.06072,-8.5753137 2.1077,-13.1232147 -0.44181,-2.108334 -1.40374,-4.646186 -2.13763,-5.639672 -1.57066,-2.126253 -1.66618,-2.612486 -0.41919,-2.133974 0.50332,0.193146 1.70332,1.799328 2.66666,3.569296 3.20693,5.892187 2.15529,15.0558327 -2.17754,18.9743417 -0.77235,0.698495 -1.40427,1.044806 -1.40427,0.76958 z m 43.77778,-1.484017 c -0.24445,-0.244444 -0.44445,-1.106102 -0.44445,-1.914794 0,-1.197866 -0.49012,-1.548725 -2.64477,-1.893267 -3.62683,-0.579953 -5.35523,-2.593796 -5.35523,-6.2396417 0,-5.632952 3.93081,-10.171419 9.25243,-10.68276 2.90089,-0.278738 3.52907,-0.104198 5.03117,1.397898 2.53002,2.530018 2.42328,7.267804 -0.24677,10.953703 -1.07974,1.490543 -2.5968,2.9111847 -3.37125,3.1569837 -0.80349,0.25502 -1.32023,0.899657 -1.20349,1.50137 0.32359,1.667864 1.63224,1.699082 3.14527,0.07503 1.90203,-2.041589 1.9112,-0.08246 0.0109,2.333349 -1.31626,1.673355 -3.21554,2.270429 -4.17384,1.312128 z m -0.44445,-5.937771 c 0,-0.6208257 -0.45358,-0.9609157 -1.11142,-0.8333337 -1.67251,0.3243677 -1.90216,1.8822157 -0.27746,1.8822157 0.81888,0 1.38888,-0.430459 1.38888,-1.048882 z m -1.35498,-2.2844507 c 0.3262,0 1.10324,0.510165 1.72678,1.133699 1.06715,1.0671537 1.22513,1.0273987 2.69145,-0.677297 1.83538,-2.133759 3.19615,-6.66548 2.65222,-8.832642 -0.48887,-1.947843 -2.15401,-3.62448 -3.59642,-3.621268 -4.66496,0.01039 -9.74122,9.054109 -7.46714,13.303257 l 0.79668,1.4886197 1.30168,-1.3971837 c 0.71592,-0.768452 1.56856,-1.397185 1.89475,-1.397185 z m -96.41972,4.0261417 c -2.78569,-1.172097 -2.64814,-4.2301677 0.31069,-6.9078787 1.03776,-0.93916 1.25074,-1.7624 0.97937,-3.785607 -0.46928,-3.498796 0.2088,-5.821924 1.85152,-6.343301 3.08788,-0.980058 4.36142,2.814529 1.96646,5.859226 -1.69472,2.15449 -1.68184,2.32904 0.39793,5.38969 l 1.73126,2.547783 1.60207,-2.357658 c 1.70757,-2.512913 2.0181,-3.761729 0.9354,-3.761729 -0.36666,0 -0.66666,-0.3 -0.66666,-0.666667 0,-0.366667 1.2,-0.666667 2.66666,-0.666667 2.73116,0 3.62972,0.925982 1.45134,1.49564 -0.66842,0.174797 -2.04104,1.726798 -3.05025,3.44889 -1.46593,2.50141 -1.67434,3.324576 -1.03638,4.0932727 1.16954,1.409211 2.99074,1.175212 4.18568,-0.537803 0.57549,-0.8249997 1.06208,-1.1249997 1.08131,-0.6666657 0.0193,0.458333 -0.59103,1.4593297 -1.35614,2.2244377 -1.06412,1.064131 -1.80844,1.272779 -3.16666,0.887689 -2.10498,-0.596817 -3.73014,-0.610849 -6.44223,-0.05563 -1.1,0.225194 -2.64862,0.136532 -3.44137,-0.197026 z m 5.00797,-1.283521 c 0.71159,-0.450941 0.48793,-1.1390377 -1.06864,-3.2878227 -2.14269,-2.957899 -3.49796,-2.746663 -3.49796,0.545202 0,2.8297567 2.27399,4.1954727 4.5666,2.7426207 z m 0.10007,-12.8242507 c 0,-1.220668 -0.34736,-1.91837 -0.95508,-1.91837 -1.19215,0 -1.94374,2.21833 -1.36712,4.0351 0.62088,1.956213 2.3222,0.405427 2.3222,-2.11673 z m 42.71766,13.8097447 c -0.42841,-0.516204 -0.70529,-2.1865087 -0.6153,-3.7117897 0.17575,-2.978499 -0.64017,-3.988062 -3.2377,-4.006116 -1.13265,-0.0079 -1.6275,0.561749 -2.16294,2.489791 -0.91939,3.3105627 -0.89619,3.5387227 0.46494,4.5719687 1.01327,0.76918 0.65747,0.888414 -2.70601,0.906829 -2.41686,0.01323 -3.71779,-0.229411 -3.46065,-0.645465 0.22661,-0.366666 0.83275,-0.666666 1.34698,-0.666666 0.52004,0 1.2243,-1.1094527 1.58696,-2.4999997 1.6368,-6.276102 2.73272,-10.726094 2.73272,-11.09623 0,-0.222074 -0.45,-0.40377 -1,-0.40377 -0.55,0 -1,-0.3 -1,-0.666667 0,-1.018793 7.73521,-0.795199 10.35475,0.299315 1.93263,0.807505 2.31192,1.304768 2.31192,3.031008 0,1.596156 -0.45315,2.322878 -1.99579,3.200684 -2.10726,1.199099 -2.42959,1.794073 -1.33754,2.468993 0.36666,0.226613 0.66666,1.744317 0.66666,3.372678 0,3.0910507 0.58941,3.6603127 2.01338,1.9445447 0.46381,-0.558861 0.9987,-0.8606997 1.18865,-0.6707537 0.58745,0.5874457 -2.00925,3.0201977 -3.22372,3.0201977 -0.63161,0 -1.4989,-0.422348 -1.92731,-0.938552 z m 0.0304,-9.1050297 c 1.72106,-0.921082 2.60243,-3.289828 1.79619,-4.827396 -0.46818,-0.892859 -1.25647,-1.151473 -3.04813,-1 -2.27676,0.192484 -2.46319,0.387614 -3.22066,3.370978 l -0.80402,3.166666 h 1.97476 c 1.08611,0 2.57195,-0.319611 3.30186,-0.710248 z m 24.30378,3.055276 c -1.7318,-3.879872 -3.01295,-7.419724 -2.84698,-7.866337 0.2991,-0.804832 5.79514,10.311248 5.79514,11.721021 0,1.5021877 1.24228,-0.653352 3.69093,-6.404306 1.41459,-3.322344 2.75129,-5.619851 3.07899,-5.292155 0.55455,0.554559 -4.58786,12.9146787 -5.93262,14.2594517 -0.40441,0.404407 -1.78525,-1.936617 -3.78542,-6.4176747 z m 46.61387,4.0468797 c -0.97299,-1.6602867 -1.57812,-3.3276747 -1.34473,-3.7053057 0.76576,-1.239026 2.11641,-0.720004 2.9633,1.138724 l 0.83168,1.825326 1.61961,-3.407694 c 1.72402,-3.627314 7.80867,-10.242958 9.42085,-10.242958 0.53127,0 -0.43089,1.357571 -2.13814,3.016824 -1.92745,1.873266 -3.86419,4.716214 -5.10934,7.5 -3.57104,7.9838237 -3.76482,8.1041067 -6.2432,3.8750837 z m -254.33239,1.924925 c 0,-0.192409 0.75,-0.634983 1.66667,-0.983499 1.60821,-0.61144 1.66666,-0.845141 1.66666,-6.6628677 v -6.029202 l -1.66666,0.418307 c -0.93869,0.235595 -1.66667,0.129492 -1.66667,-0.242914 0,-0.363671 0.675,-0.807615 1.5,-0.986541 0.825,-0.178926 2.025,-0.545996 2.66667,-0.815711 1.07052,-0.449976 1.16666,0.119842 1.16666,6.914269 0,6.9602147 0.08,7.4046597 1.33334,7.4046597 0.73333,0 1.33333,0.3 1.33333,0.666666 0,0.370371 -1.77778,0.666667 -4,0.666667 -2.2,0 -4,-0.157425 -4,-0.349834 z m 12.45833,-0.08072 c -0.94367,-0.943678 -0.40968,-2.2361117 0.92389,-2.2361117 0.93197,0 1.312,0.3620337 1.16666,1.1114227 -0.23796,1.226986 -1.376,1.839237 -2.09055,1.124689 z m 97.20835,-0.236112 c 0.22661,-0.366666 0.83275,-0.666666 1.34698,-0.666666 0.52004,0 1.2243,-1.1094527 1.58696,-2.4999997 1.6368,-6.276102 2.73272,-10.726094 2.73272,-11.09623 0,-0.222074 -0.45,-0.40377 -1,-0.40377 -0.55,0 -1,-0.330785 -1,-0.735078 0,-0.496316 1.83466,-0.658722 5.6484,-0.5 6.43678,0.267888 8.13614,1.292939 8.7449,5.274931 0.46198,3.021911 -1.96178,7.774437 -4.99188,9.7880987 -1.90184,1.263869 -3.16487,1.50538 -7.87268,1.50538 -3.56852,0 -5.45761,-0.242405 -5.1954,-0.666666 z m 11.99088,-2.1119337 c 3.52262,-2.770893 4.88123,-9.257171 2.40784,-11.495551 -0.84865,-0.768023 -2.1036,-1.077756 -3.79506,-0.936658 l -2.52713,0.210809 -1.52183,6 c -0.837,3.3 -1.52922,6.375 -1.53826,6.8333327 -0.0283,1.436685 4.92224,1.002322 6.97444,-0.6119327 z m 46.34245,-1.888067 v -2.666666 h -6 c -3.55555,0 -6,-0.271605 -6,-0.666667 0,-0.4 2.66667,-0.666667 6.66667,-0.666667 h 6.66666 v 3.333334 c 0,1.833333 -0.3,3.3333327 -0.66666,3.3333327 -0.36667,0 -0.66667,-1.1999997 -0.66667,-2.6666667 z"
       id="path870" />
  </g>
</svg>
