<?xml version="1.0" encoding="UTF-8" standalone="no"?>
<svg
   xmlns:dc="http://purl.org/dc/elements/1.1/"
   xmlns:cc="http://creativecommons.org/ns#"
   xmlns:rdf="http://www.w3.org/1999/02/22-rdf-syntax-ns#"
   xmlns:svg="http://www.w3.org/2000/svg"
   xmlns="http://www.w3.org/2000/svg"
   xmlns:sodipodi="http://sodipodi.sourceforge.net/DTD/sodipodi-0.dtd"
   xmlns:inkscape="http://www.inkscape.org/namespaces/inkscape"
   version="1.1"
   id="svg942"
   width="406.78229"
   height="195.94235"
   viewBox="0 0 406.78228 195.94235"
   sodipodi:docname="5-5-example-1.svg"
   inkscape:version="1.0.1 (c497b03c, 2020-09-10)">
  <metadata
     id="metadata948">
    <rdf:RDF>
      <cc:Work
         rdf:about="">
        <dc:format>image/svg+xml</dc:format>
        <dc:type
           rdf:resource="http://purl.org/dc/dcmitype/StillImage" />
        <dc:title></dc:title>
      </cc:Work>
    </rdf:RDF>
  </metadata>
  <defs
     id="defs946" />
  <sodipodi:namedview
     pagecolor="#ffffff"
     bordercolor="#666666"
     borderopacity="1"
     objecttolerance="10"
     gridtolerance="10"
     guidetolerance="10"
     inkscape:pageopacity="0"
     inkscape:pageshadow="2"
     inkscape:window-width="740"
     inkscape:window-height="480"
     id="namedview944"
     showgrid="false"
     fit-margin-top="0"
     fit-margin-left="0"
     fit-margin-right="0"
     fit-margin-bottom="0"
     inkscape:pagecheckerboard="true"
     inkscape:zoom="0.65746435"
     inkscape:cx="298.91582"
     inkscape:cy="143.17802"
     inkscape:window-x="0"
     inkscape:window-y="25"
     inkscape:window-maximized="0"
     inkscape:current-layer="g950" />
  <g
     inkscape:groupmode="layer"
     inkscape:label="Image"
     id="g950"
     transform="translate(-28.271642,11.789876)">
    <path
       style="fill:#1b1b1b;stroke-width:0.666667"
       d="m 175.59144,182.84161 c 0.63459,-1.19052 0.66426,-1.70385 0.10914,-1.88888 -1.12382,-0.37461 -0.92764,-2.14298 0.23774,-2.14298 1.38964,0 1.30733,3.58321 -0.10915,4.7517 -1.01422,0.83666 -1.03457,0.77505 -0.23773,-0.71984 z m 177.36808,1.09098 c -0.0117,-0.29911 0.2733,-1.09412 0.63326,-1.7667 0.49751,-0.92962 0.39085,-1.32402 -0.44482,-1.64469 -0.78718,-0.30207 -0.89484,-0.62625 -0.37921,-1.14189 0.92775,-0.92774 2.16957,-0.1594 2.16957,1.34236 0,1.14095 -1.93696,4.28398 -1.9788,3.21092 z m -8.68787,-3.09532 c -1.07434,-0.26784 -1.74583,-0.96529 -1.88943,-1.96244 -0.15281,-1.06112 0.0565,-1.44954 0.66666,-1.23684 0.48919,0.17054 0.79631,0.82564 0.68248,1.45576 -0.16228,0.89837 0.19748,1.0993 1.66667,0.93083 1.58253,-0.18145 1.87362,-0.52089 1.87362,-2.18478 0,-1.54684 -0.35796,-2.05852 -1.66667,-2.38237 -1.62572,-0.40231 -1.63133,-0.42414 -0.22825,-0.88878 1.87777,-0.62182 2.52818,-2.41136 1.31673,-3.62282 -1.07268,-1.07267 -2.42181,-0.56948 -2.42181,0.90326 0,1.072 -1.04795,1.29509 -1.63345,0.34774 -0.58945,-0.95376 1.55367,-2.72042 3.30012,-2.72042 1.54404,0 3.66666,1.54373 3.66666,2.66667 0,0.31429 -0.50418,1.07561 -1.1204,1.69183 -1.04942,1.04943 -1.04942,1.16012 0,1.74742 0.61622,0.34485 1.1204,1.32536 1.1204,2.17892 0,2.42805 -2.39401,3.8088 -5.33333,3.07602 z m -179.33333,-0.55889 c 0,-0.29225 1.21284,-1.71568 2.6952,-3.16317 3.3019,-3.22422 3.47533,-5.83814 0.41062,-6.18895 -1.65158,-0.18905 -1.83794,-0.0397 -1.45508,1.16667 0.31692,0.99852 0.14835,1.38348 -0.60582,1.38348 -1.34504,0 -1.34357,-1.60611 0.003,-2.95238 1.32789,-1.32788 2.91759,-1.33114 4.80404,-0.01 2.21544,1.55176 1.88529,3.91664 -0.85164,6.10045 -1.28332,1.02397 -2.33332,2.08675 -2.33333,2.36175 -4e-5,1.01612 3.29016,0.46034 3.94658,-0.66666 0.58094,-0.99741 0.68246,-0.90069 0.69979,0.66666 0.0197,1.78024 -0.0859,1.83334 -3.64639,1.83334 -2.01667,0 -3.66667,-0.23912 -3.66667,-0.53137 z m 21.5,-0.1887 c 1.95602,-1.13928 1.31088,-1.9466 -1.55556,-1.9466 -1.49722,0 -2.62222,-0.23748 -2.5,-0.52773 0.56956,-1.35258 5.61258,-8.12404 6.05556,-8.13104 0.275,-0.005 0.5,1.7701 0.5,3.94322 0,3.20238 0.22108,4.00889 1.16666,4.256 1.11112,0.29036 1.11112,0.30856 0,0.38222 -0.64166,0.0425 -1.16666,0.36242 -1.16666,0.71087 0,0.34845 0.525,0.93933 1.16666,1.31306 0.9164,0.53375 0.52312,0.67952 -1.83333,0.67952 -2.35645,0 -2.74973,-0.14577 -1.83333,-0.67952 z m 1.15184,-5.4466 -0.0148,-2.83333 -1.33748,1.66666 c -2.78936,3.47591 -2.87536,4 -0.65633,4 1.93841,0 2.02283,-0.11907 2.00863,-2.83333 z m 176.18149,5.4466 c 1.95603,-1.13928 1.31089,-1.9466 -1.55555,-1.9466 -1.49723,0 -2.62223,-0.23748 -2.5,-0.52773 0.56955,-1.35258 5.61257,-8.12404 6.05555,-8.13104 0.275,-0.005 0.5,1.7701 0.5,3.94322 0,3.20238 0.22109,4.00889 1.16667,4.256 1.11111,0.29036 1.11111,0.30856 0,0.38222 -0.64167,0.0425 -1.16667,0.36242 -1.16667,0.71087 0,0.34845 0.525,0.93933 1.16667,1.31306 0.9164,0.53375 0.52312,0.67952 -1.83333,0.67952 -2.35646,0 -2.74974,-0.14577 -1.83334,-0.67952 z m 1.15184,-5.4466 -0.0148,-2.83333 -1.33748,1.66666 c -2.78936,3.47591 -2.87536,4 -0.65632,4 1.93841,0 2.02283,-0.11907 2.00862,-2.83333 z M 171.60498,159.00452 c 0,-0.25954 1.11089,-1.60954 2.46864,-3 l 2.46863,-2.52811 -2.59199,-2.65442 c -3.38164,-3.46313 -2.46283,-4.38194 1.0003,-1.0003 l 2.65442,2.59199 2.66667,-2.60393 c 3.16234,-3.08794 3.65189,-1.74664 0.53589,1.46826 l -2.13078,2.1984 2.13078,2.19841 c 3.116,3.21489 2.62645,4.5562 -0.53589,1.46826 l -2.66667,-2.60393 -2.5281,2.46863 c -2.44672,2.38915 -3.4719,2.97875 -3.4719,1.99674 z m 177.33334,0 c 0,-0.25954 1.11088,-1.60954 2.46863,-3 l 2.46864,-2.52811 -2.59199,-2.65442 c -3.38165,-3.46313 -2.46284,-4.38194 1.00029,-1.0003 l 2.65443,2.59199 2.66667,-2.60393 c 3.16234,-3.08794 3.65189,-1.74664 0.53588,1.46826 l -2.13077,2.1984 2.13077,2.19841 c 3.11601,3.21489 2.62646,4.5562 -0.53588,1.46826 l -2.66667,-2.60393 -2.52811,2.46863 c -2.44671,2.38915 -3.47189,2.97875 -3.47189,1.99674 z M 136.62781,135.10471 c -4.12132,-4.44698 -4.57717,-13.58298 -0.96215,-19.28326 2.4589,-3.8773 3.87742,-3.94774 1.61077,-0.08 -3.08167,5.25848 -3.05309,13.51294 0.0627,18.1043 2.04718,3.0167 1.6194,3.77384 -0.71132,1.25896 z m 95.64384,1.41128 c 0,-0.27523 0.61392,-1.36259 1.36427,-2.41636 2.17374,-3.05274 3.06072,-8.57532 2.1077,-13.12322 -0.44181,-2.10833 -1.40374,-4.64618 -2.13763,-5.63967 -1.57066,-2.12625 -1.66618,-2.61249 -0.41919,-2.13397 0.50332,0.19314 1.70332,1.79932 2.66666,3.56929 3.20693,5.89219 2.15529,15.05583 -2.17754,18.97435 -0.77235,0.69849 -1.40427,1.0448 -1.40427,0.76958 z m 45.68949,-1.41128 c -4.12132,-4.44698 -4.57716,-13.58298 -0.96215,-19.28326 2.4589,-3.8773 3.87742,-3.94774 1.61077,-0.08 -3.08167,5.25848 -3.05308,13.51294 0.0627,18.1043 2.04718,3.0167 1.61939,3.77384 -0.71132,1.25896 z m 74.66667,0 c -4.12132,-4.44698 -4.57717,-13.58298 -0.96215,-19.28326 2.4589,-3.8773 3.87742,-3.94774 1.61077,-0.08 -3.08167,5.25848 -3.05309,13.51294 0.0627,18.1043 2.04719,3.0167 1.6194,3.77384 -0.71132,1.25896 z m 68.31051,1.41128 c 0,-0.27523 0.61392,-1.36259 1.36427,-2.41636 2.17374,-3.05274 3.06072,-8.57532 2.1077,-13.12322 -0.44181,-2.10833 -1.40374,-4.64618 -2.13763,-5.63967 -1.57066,-2.12625 -1.66618,-2.61249 -0.41919,-2.13397 0.50332,0.19314 1.70332,1.79932 2.66666,3.56929 3.20693,5.89219 2.15529,15.05583 -2.17754,18.97435 -0.77235,0.69849 -1.40427,1.0448 -1.40427,0.76958 z m 8.66667,0 c 0,-0.27523 0.61392,-1.36259 1.36427,-2.41636 2.17374,-3.05274 3.06071,-8.57532 2.10769,-13.12322 -0.4418,-2.10833 -1.40373,-4.64618 -2.13762,-5.63967 -1.57066,-2.12625 -1.66618,-2.61249 -0.4192,-2.13397 0.50333,0.19314 1.70333,1.79932 2.66667,3.56929 3.20693,5.89219 2.15529,15.05583 -2.17754,18.97435 -0.77235,0.69849 -1.40427,1.0448 -1.40427,0.76958 z m -63.55556,-1.48402 c -0.24444,-0.24444 -0.44444,-1.1061 -0.44444,-1.9148 0,-1.19786 -0.49013,-1.54872 -2.64478,-1.89326 -3.62682,-0.57996 -5.35522,-2.5938 -5.35522,-6.23964 0,-5.63296 3.9308,-10.17142 9.25242,-10.68276 2.90089,-0.27874 3.52908,-0.1042 5.03117,1.39789 2.53002,2.53002 2.42329,7.26781 -0.24677,10.95371 -1.07974,1.49054 -2.5968,2.91118 -3.37124,3.15698 -0.8035,0.25502 -1.32024,0.89966 -1.2035,1.50137 0.32359,1.66787 1.63224,1.69908 3.14528,0.075 1.90202,-2.04159 1.9112,-0.0825 0.0109,2.33335 -1.31626,1.67335 -3.21553,2.27043 -4.17383,1.31213 z m -0.44444,-5.93777 c 0,-0.62083 -0.45358,-0.96092 -1.11142,-0.83333 -1.67252,0.32436 -1.90217,1.88221 -0.27747,1.88221 0.81889,0 1.38889,-0.43046 1.38889,-1.04888 z m -1.35498,-2.28445 c 0.32619,0 1.10324,0.51016 1.72677,1.1337 1.06715,1.06715 1.22513,1.0274 2.69145,-0.6773 1.83538,-2.13376 3.19615,-6.66548 2.65222,-8.83264 -0.48887,-1.94784 -2.154,-3.62448 -3.59642,-3.62127 -4.66496,0.0104 -9.74122,9.05411 -7.46714,13.30325 l 0.79668,1.48862 1.30168,-1.39718 c 0.71592,-0.76845 1.56856,-1.39718 1.89476,-1.39718 z m -191.31169,3.83162 c 0,-2.05216 0.85378,-5.16496 1.41666,-5.16496 0.32084,0 0.58334,0.73945 0.58334,1.64322 0,3.30721 4.57792,3.97432 6.79682,0.99045 1.69199,-2.27532 0.97591,-3.79729 -2.18737,-4.64907 -4.18404,-1.12665 -5.03058,-3.92286 -2.20445,-7.28153 1.62158,-1.92713 2.00371,-2.05543 5.68862,-1.9099 l 3.95027,0.15601 -0.43179,2.02541 c -0.66878,3.13707 -1.56729,4.40127 -1.59183,2.2397 -0.0406,-3.57427 -3.52086,-5.04703 -6.02027,-2.54762 -2.27163,2.27163 -1.49773,4.09803 2.12133,5.00636 4.36911,1.09658 4.92689,5.43213 1.11184,8.64229 -2.15976,1.81731 -3.8835,2.09713 -5.98628,0.97176 -0.96982,-0.51904 -1.59251,-0.49684 -2.28951,0.0816 -0.75958,0.6304 -0.95738,0.5883 -0.95738,-0.20374 z m 21.55862,0.19452 c -2.78568,-1.1721 -2.64814,-4.23017 0.3107,-6.90788 1.03776,-0.93916 1.25074,-1.7624 0.97937,-3.78561 -0.46929,-3.49879 0.2088,-5.82192 1.85151,-6.3433 3.08789,-0.98005 4.36142,2.81453 1.96646,5.85923 -1.69472,2.15449 -1.68183,2.32904 0.39794,5.38969 l 1.73126,2.54778 1.60207,-2.35766 c 1.70757,-2.51291 2.0181,-3.76173 0.9354,-3.76173 -0.36667,0 -0.66667,-0.3 -0.66667,-0.66666 0,-0.36667 1.2,-0.66667 2.66667,-0.66667 2.73116,0 3.62972,0.92598 1.45134,1.49564 -0.66843,0.1748 -2.04104,1.7268 -3.05025,3.44889 -1.46593,2.50141 -1.67434,3.32458 -1.03638,4.09327 1.16954,1.40921 2.99074,1.17521 4.18568,-0.5378 0.57548,-0.825 1.06208,-1.125 1.08131,-0.66667 0.0193,0.45834 -0.59103,1.45934 -1.35614,2.22444 -1.06413,1.06413 -1.80845,1.27278 -3.16667,0.88769 -2.10498,-0.59681 -3.73013,-0.61085 -6.44222,-0.0556 -1.1,0.22519 -2.64862,0.13653 -3.44138,-0.19703 z m 5.00798,-1.28352 c 0.71158,-0.45094 0.48793,-1.13904 -1.06864,-3.28782 -2.14269,-2.9579 -3.49796,-2.74667 -3.49796,0.5452 0,2.82976 2.27398,4.19547 4.5666,2.74262 z m 0.10006,-12.82425 c 0,-1.22067 -0.34735,-1.91837 -0.95507,-1.91837 -1.19215,0 -1.94374,2.21832 -1.36712,4.0351 0.62088,1.95621 2.32219,0.40542 2.32219,-2.11673 z m 185.05189,7.75999 c -1.73184,-3.87988 -3.01299,-7.41972 -2.84702,-7.86634 0.2991,-0.80483 5.79514,10.31125 5.79514,11.72102 0,1.50219 1.24228,-0.65335 3.69093,-6.4043 1.41459,-3.32235 2.75129,-5.61986 3.07899,-5.29216 0.55455,0.55456 -4.58786,12.91468 -5.93262,14.25945 -0.40441,0.40441 -1.78525,-1.93661 -3.78542,-6.41767 z m 28.99912,6.04975 c -0.42842,-0.5162 -0.7053,-2.18651 -0.6153,-3.71179 0.17574,-2.9785 -0.64018,-3.98806 -3.2377,-4.00612 -1.13266,-0.008 -1.6275,0.56176 -2.16295,2.4898 -0.91939,3.31056 -0.89619,3.53872 0.46495,4.57196 1.01326,0.76918 0.65746,0.88842 -2.70602,0.90684 -2.41686,0.0132 -3.71778,-0.22942 -3.46065,-0.64547 0.22661,-0.36667 0.83275,-0.66667 1.34698,-0.66667 0.52005,0 1.22431,-1.10945 1.58696,-2.5 1.63681,-6.2761 2.73273,-10.72609 2.73273,-11.09622 0,-0.22208 -0.45,-0.40378 -1,-0.40378 -0.55,0 -1,-0.3 -1,-0.66666 0,-1.0188 7.7352,-0.7952 10.35474,0.29931 1.93263,0.80751 2.31192,1.30477 2.31192,3.03101 0,1.59616 -0.45314,2.32288 -1.99578,3.20068 -2.10727,1.1991 -2.4296,1.79408 -1.33755,2.469 0.36667,0.22661 0.66667,1.74432 0.66667,3.37268 0,3.09104 0.5894,3.66031 2.01337,1.94454 0.46381,-0.55886 0.99871,-0.8607 1.18865,-0.67076 0.58745,0.58745 -2.00924,3.0202 -3.22372,3.0202 -0.63161,0 -1.4989,-0.42234 -1.9273,-0.93855 z m 0.0305,-9.10503 c 1.72106,-0.92108 2.60243,-3.28982 1.79619,-4.8274 -0.46818,-0.89285 -1.25647,-1.15147 -3.04813,-1 -2.27676,0.19249 -2.46319,0.38762 -3.22066,3.37098 l -0.80406,3.16667 h 1.97476 c 1.08611,0 2.57195,-0.31961 3.30186,-0.71025 z m -381.414848,8.71025 c 0,-0.36667 0.45,-0.66667 1,-0.66667 0.555555,0 1,-0.59259 1,-1.33333 0,-1.1358 -0.444445,-1.33333 -3,-1.33333 -1.65,0 -3,-0.30249 -3,-0.67219 0,-0.92067 6.877224,-11.2941 7.5,-11.3128 0.275,-0.008 0.5,2.39465 0.5,5.3398 0,4.89053 0.125795,5.40135 1.450841,5.89152 l 1.45084,0.5367 -1.45084,0.37941 c -1.60515,0.41975 -2.013171,2.50422 -0.490186,2.50422 0.528361,0 1.146066,0.3 1.372678,0.66667 0.253943,0.41089 -0.881966,0.66667 -2.960655,0.66667 -1.854973,0 -3.372678,-0.3 -3.372678,-0.66667 z m 2,-7.66667 c 0,-2.01666 -0.105157,-3.66666 -0.233683,-3.66666 -0.271328,0 -4.432984,6.61314 -4.432984,7.0443 0,0.15896 1.05,0.28903 2.333334,0.28903 h 2.333333 z m 7.791667,7.90278 c -0.943677,-0.94368 -0.409688,-2.23611 0.923883,-2.23611 0.931974,0 1.312003,0.36203 1.166666,1.11142 -0.237962,1.22699 -1.376001,1.83924 -2.090549,1.12469 z m 172.875011,-0.23611 c 0,-0.36667 0.73844,-0.66667 1.64097,-0.66667 1.75247,0 1.5683,0.42036 3.98533,-9.09622 1.29732,-5.10796 1.31135,-4.90378 -0.3368,-4.90378 -2.0457,0 -3.80888,1.14155 -4.91697,3.18343 -1.20953,2.2288 -1.43371,0.41183 -0.26552,-2.15206 0.7598,-1.66758 0.90327,-1.69803 8,-1.69803 7.86698,0 7.87117,0.003 6.73399,4 -0.44624,1.56867 -0.4947,1.52947 -0.82423,-0.66667 -0.32202,-2.14615 -0.53391,-2.33333 -2.64137,-2.33333 h -2.29128 l -1.52562,6 c -1.87386,7.36954 -1.88258,7.66666 -0.22517,7.66666 0.73333,0 1.33333,0.3 1.33333,0.66667 0,0.37607 -1.88888,0.66667 -4.33333,0.66667 -2.44445,0 -4.33333,-0.2906 -4.33333,-0.66667 z m 83.66666,0 c 0.22662,-0.36667 0.83276,-0.66667 1.34698,-0.66667 0.52005,0 1.22431,-1.10945 1.58696,-2.5 1.63681,-6.2761 2.73273,-10.72609 2.73273,-11.09622 0,-0.22208 -0.45,-0.40378 -1,-0.40378 -0.55,0 -1,-0.3 -1,-0.66666 0,-0.90227 7.93531,-0.85226 10.5712,0.0666 5.81427,2.02686 1.59209,8.60004 -5.52409,8.60004 -2.16194,0 -2.38177,0.19579 -3.06384,2.72882 -0.64108,2.38079 -0.5806,2.84572 0.4743,3.64546 1.07086,0.81185 0.76633,0.91908 -2.66358,0.93786 -2.41686,0.0132 -3.71779,-0.22942 -3.46066,-0.64547 z m 13.29554,-9.48167 c 1.57895,-2.25428 1.33075,-4.4194 -0.56106,-4.89422 -3.41581,-0.85731 -4.60186,-0.15995 -5.45816,3.20922 l -0.80484,3.16667 h 2.89313 c 2.23393,0 3.12959,-0.3376 3.93093,-1.48167 z m 11.70446,8.815 c 0,-0.40758 3.12423,-0.66666 8.03935,-0.66666 5.1898,0 7.8933,0.2363 7.62732,0.66666 -0.23583,0.38159 -3.67359,0.66667 -8.03935,0.66667 -4.64043,0 -7.62732,-0.26107 -7.62732,-0.66667 z m -195.33333,-3.33333 v -2.66667 h -6 c -3.55556,0 -6,-0.2716 -6,-0.66666 0,-0.4 2.66666,-0.66667 6.66667,-0.66667 h 6.66666 v 3.33333 c 0,1.83334 -0.3,3.33334 -0.66666,3.33334 -0.36667,0 -0.66667,-1.2 -0.66667,-2.66667 z m 25.33333,0 v -2.66667 h -6 c -3.55555,0 -6,-0.2716 -6,-0.66666 0,-0.4 2.66667,-0.66667 6.66667,-0.66667 h 6.66667 v 3.33333 c 0,1.83334 -0.3,3.33334 -0.66667,3.33334 -0.36667,0 -0.66667,-1.2 -0.66667,-2.66667 z m 15.33334,0 v -2.66667 h -6 c -3.55556,0 -6,-0.2716 -6,-0.66666 0,-0.4 2.66666,-0.66667 6.66666,-0.66667 h 6.66667 v 3.33333 c 0,1.83334 -0.3,3.33334 -0.66667,3.33334 -0.36666,0 -0.66666,-1.2 -0.66666,-2.66667 z m 126,0 v -2.66667 h -6 c -3.55556,0 -6,-0.2716 -6,-0.66666 0,-0.4 2.66666,-0.66667 6.66666,-0.66667 h 6.66667 v 3.33333 c 0,1.83334 -0.3,3.33334 -0.66667,3.33334 -0.36666,0 -0.66666,-1.2 -0.66666,-2.66667 z m 28.66666,-1.33333 c 0,-0.40741 3.11112,-0.66667 8,-0.66667 4.88889,0 8,0.25926 8,0.66667 0,0.4074 -3.11111,0.66666 -8,0.66666 -4.88888,0 -8,-0.25926 -8,-0.66666 z m 0,-4.66667 c 0,-0.40741 3.11112,-0.66667 8,-0.66667 4.88889,0 8,0.25926 8,0.66667 0,0.40741 -3.11111,0.66667 -8,0.66667 -4.88888,0 -8,-0.25926 -8,-0.66667 z M 177.97165,104.22006 c 0.34833,-0.32433 9.63333,-3.35841 20.63333,-6.742405 11,-3.384 30.51929,-9.41864 43.37619,-13.41031 12.85691,-3.99168 23.96018,-7.25759 24.67395,-7.25759 0.71376,0 11.94448,3.30563 24.95714,7.34584 52.88467,16.419815 63.00495,19.583855 63.27051,19.781135 0.15277,0.11349 0.12707,0.35705 -0.0571,0.54124 -0.18418,0.18419 -8.85919,-2.32978 -19.27778,-5.586595 -10.41861,-3.25682 -30.19291,-9.41669 -43.94291,-13.68858 l -25,-7.7671 -23.33333,7.26591 c -47.51311,14.7954 -64.7788,20.108145 -65.34868,20.108145 -0.32156,0 -0.29965,-0.26536 0.0487,-0.58969 z m 19.32283,-37.115348 c -4.12132,-4.446974 -4.57717,-13.58298 -0.96216,-19.28326 2.4589,-3.877294 3.87742,-3.94774 1.61078,-0.08 -3.08168,5.25848 -3.05309,13.51294 0.0627,18.104306 2.04718,3.0167 1.61939,3.773834 -0.71132,1.258954 z m 74.66666,0 c -4.12132,-4.446974 -4.57716,-13.58298 -0.96215,-19.28326 2.4589,-3.877294 3.87742,-3.94774 1.61077,-0.08 -3.08167,5.25848 -3.05308,13.51294 0.0627,18.104306 2.04718,3.0167 1.61939,3.773834 -0.71132,1.258954 z m 67.64384,1.41128 c 0,-0.275227 0.61392,-1.362587 1.36428,-2.41636 2.17374,-3.05274 3.06071,-8.575314 2.10769,-13.123214 -0.44181,-2.108333 -1.40373,-4.646186 -2.13763,-5.639673 -1.57066,-2.126253 -1.66618,-2.612487 -0.41919,-2.133973 0.50333,0.193146 1.70333,1.799326 2.66667,3.569293 3.20692,5.892193 2.15528,15.055833 -2.17754,18.974347 -0.77236,0.698493 -1.40428,1.044806 -1.40428,0.76958 z m 9.33334,0 c 0,-0.275227 0.61392,-1.362587 1.36427,-2.41636 2.17374,-3.05274 3.06071,-8.575314 2.10769,-13.123214 -0.4418,-2.108333 -1.40373,-4.646186 -2.13762,-5.639673 -1.57066,-2.126253 -1.66618,-2.612487 -0.4192,-2.133973 0.50333,0.193146 1.70333,1.799326 2.66667,3.569293 3.20693,5.892193 2.15529,15.055833 -2.17754,18.974347 -0.77235,0.698493 -1.40427,1.044806 -1.40427,0.76958 z m -63.55556,-1.48402 c -0.24444,-0.24444 -0.44444,-1.1061 -0.44444,-1.914794 0,-1.197866 -0.49013,-1.548726 -2.64478,-1.893266 -3.62682,-0.579954 -5.35522,-2.593794 -5.35522,-6.23964 0,-5.632954 3.9308,-10.17142 9.25242,-10.68276 2.90089,-0.27874 3.52908,-0.1042 5.03117,1.397893 2.53002,2.53002 2.42329,7.267807 -0.24677,10.953707 -1.07974,1.49054 -2.5968,2.911186 -3.37124,3.156986 -0.8035,0.25502 -1.32024,0.899654 -1.2035,1.501367 0.32359,1.667867 1.63224,1.69908 3.14528,0.07503 1.90202,-2.041593 1.9112,-0.08247 0.0109,2.333347 -1.31626,1.673353 -3.21553,2.270433 -4.17383,1.312127 z m -0.44444,-5.937767 c 0,-0.620827 -0.45358,-0.96092 -1.11142,-0.833333 -1.67252,0.324366 -1.90217,1.882213 -0.27747,1.882213 0.81889,0 1.38889,-0.43046 1.38889,-1.04888 z m -1.35498,-2.284453 c 0.32619,0 1.10324,0.510166 1.72677,1.1337 1.06715,1.067153 1.22513,1.0274 2.69145,-0.6773 1.83538,-2.13376 3.19615,-6.66548 2.65222,-8.83264 -0.48887,-1.94784 -2.154,-3.62448 -3.59642,-3.621267 -4.66496,0.0104 -9.74122,9.054107 -7.46714,13.303253 l 0.79668,1.48862 1.30168,-1.39718 c 0.71592,-0.768453 1.56856,-1.397186 1.89476,-1.397186 z m -253.675335,3.0303 c -1.892572,-1.892567 -2.065439,-2.907494 -0.591552,-3.47308 1.50468,-0.5774 2.710534,0.797666 1.732718,1.975866 -0.935468,1.127167 -0.362092,1.800247 1.533582,1.800247 1.991549,0 3.022222,-1.250447 3.022222,-3.666667 0,-2.38846 -1.021594,-3.658086 -2.966666,-3.68694 -1.357707,-0.02013 -1.357925,-0.02507 -0.03333,-0.749546 2.908739,-1.59096 3.708384,-3.759894 2.011728,-5.456547 -1.542279,-1.54228 -3.541278,-0.69024 -3.152468,1.343687 0.257694,1.348033 0.08294,1.63568 -0.880292,1.448973 -1.770818,-0.343253 -1.913712,-1.631547 -0.353968,-3.191293 1.492128,-1.492127 4.041114,-1.779 6.085494,-0.68488 1.606504,0.85978 1.722237,4.115246 0.2004,5.63708 -1.007697,1.0077 -0.982781,1.16358 0.333334,2.08542 2.109284,1.477406 1.933716,5.088433 -0.334134,6.872326 -2.33017,1.832914 -4.607269,1.745154 -6.607064,-0.254646 z M 303.9902,56.488112 c -1.73184,-3.879874 -3.01299,-7.41972 -2.84702,-7.866334 0.2991,-0.804833 5.79514,10.311247 5.79514,11.72102 0,1.502187 1.24228,-0.653353 3.69093,-6.404306 1.41459,-3.322347 2.75129,-5.619854 3.07899,-5.292154 0.55455,0.554554 -4.58786,12.91468 -5.93262,14.259447 -0.40441,0.404407 -1.78525,-1.936613 -3.78542,-6.417673 z m 28.99912,6.049753 c -0.42842,-0.5162 -0.7053,-2.186507 -0.6153,-3.711787 0.17574,-2.9785 -0.64018,-3.98806 -3.2377,-4.00612 -1.13266,-0.0079 -1.6275,0.561754 -2.16295,2.489794 -0.91939,3.31056 -0.89619,3.53872 0.46495,4.571966 1.01326,0.76918 0.65746,0.888414 -2.70602,0.906834 -2.41686,0.0132 -3.71778,-0.229414 -3.46065,-0.645467 0.22661,-0.366667 0.83275,-0.666667 1.34698,-0.666667 0.52005,0 1.22431,-1.109453 1.58696,-2.5 1.63681,-6.2761 2.73273,-10.726093 2.73273,-11.096226 0,-0.22208 -0.45,-0.403774 -1,-0.403774 -0.55,0 -1,-0.3 -1,-0.666666 0,-1.018794 7.7352,-0.7952 10.35474,0.299313 1.93263,0.807507 2.31192,1.304767 2.31192,3.031007 0,1.59616 -0.45314,2.32288 -1.99578,3.200686 -2.10727,1.1991 -2.4296,1.794074 -1.33755,2.468994 0.36667,0.226613 0.66667,1.74432 0.66667,3.37268 0,3.091046 0.5894,3.660313 2.01337,1.94454 0.46381,-0.55886 0.99871,-0.8607 1.18865,-0.670754 0.58745,0.587447 -2.00924,3.0202 -3.22372,3.0202 -0.63161,0 -1.4989,-0.422346 -1.9273,-0.938553 z m 0.0304,-9.105027 c 1.72105,-0.92108 2.60242,-3.289826 1.79618,-4.8274 -0.46818,-0.892853 -1.25646,-1.151473 -3.04813,-1 -2.27676,0.192487 -2.46319,0.387614 -3.22066,3.37098 l -0.80401,3.166667 h 1.97475 c 1.08611,0 2.57195,-0.319613 3.30187,-0.710247 z m -290.956411,8.94636 c -0.943677,-0.94368 -0.409688,-2.236113 0.923883,-2.236113 0.931974,0 1.312003,0.362033 1.166666,1.11142 -0.237962,1.226987 -1.376001,1.83924 -2.090549,1.124693 z M 217.27165,62.143085 c 0.22661,-0.366667 0.83275,-0.666667 1.34698,-0.666667 0.52005,0 1.22431,-1.109453 1.58696,-2.5 1.63681,-6.2761 2.73273,-10.726093 2.73273,-11.096226 0,-0.22208 -0.45,-0.403774 -1,-0.403774 -0.55,0 -1,-0.3 -1,-0.666666 0,-0.902267 7.93531,-0.85226 10.5712,0.0666 5.81426,2.02686 1.59209,8.600046 -5.5241,8.600046 -2.16194,0 -2.38176,0.195787 -3.06384,2.728814 -0.64108,2.380793 -0.58059,2.84572 0.4743,3.645466 1.07086,0.811847 0.76634,0.919074 -2.66358,0.937854 -2.41686,0.0132 -3.71778,-0.229414 -3.46065,-0.645467 z m 13.29553,-9.481673 c 1.57896,-2.254274 1.33076,-4.4194 -0.56106,-4.894214 -3.4158,-0.857313 -4.60185,-0.159953 -5.45816,3.20922 l -0.80483,3.166667 h 2.89313 c 2.23392,0 3.12958,-0.3376 3.93092,-1.481673 z m 12.37114,8.815006 c 0,-0.407586 3.12422,-0.666666 8.03934,-0.666666 5.1898,0 7.8933,0.2363 7.62732,0.666666 -0.23583,0.381587 -3.67358,0.666667 -8.03934,0.666667 -4.64044,0 -7.62732,-0.261067 -7.62732,-0.666667 z m -54,-3.333333 v -2.666667 h -6 c -3.55556,0 -6,-0.271606 -6,-0.666666 0,-0.4 2.66666,-0.666667 6.66666,-0.666667 h 6.66667 v 3.333333 c 0,1.833334 -0.3,3.333334 -0.66667,3.333334 -0.36666,0 -0.66666,-1.2 -0.66666,-2.666667 z m 25.33333,0 v -2.666667 h -6 c -3.55555,0 -6,-0.271606 -6,-0.666666 0,-0.4 2.66667,-0.666667 6.66667,-0.666667 h 6.66666 v 3.333333 c 0,1.833334 -0.3,3.333334 -0.66666,3.333334 -0.36667,0 -0.66667,-1.2 -0.66667,-2.666667 z m 28.66667,-1.333333 c 0,-0.407407 3.11111,-0.666667 8,-0.666667 4.88888,0 8,0.25926 8,0.666667 0,0.407406 -3.11112,0.666666 -8,0.666666 -4.88889,0 -8,-0.25926 -8,-0.666666 z m 0,-4.666667 c 0,-0.407407 3.11111,-0.666667 8,-0.666667 4.88888,0 8,0.25926 8,0.666667 0,0.407407 -3.11112,0.666667 -8,0.666667 -4.88889,0 -8,-0.25926 -8,-0.666667 z m 10.66666,-17.501703 c 0,-2.052172 0.85379,-5.164964 1.41667,-5.164964 0.32083,0 0.58333,0.739445 0.58333,1.643211 0,3.307215 4.57793,3.974327 6.79682,0.990457 1.692,-2.275321 0.97592,-3.79729 -2.18736,-4.649073 -4.18404,-1.126646 -5.03058,-3.922858 -2.20445,-7.28153 1.62157,-1.927125 2.00371,-2.055423 5.68861,-1.909899 l 3.95028,0.156005 -0.4318,2.025415 c -0.66878,3.137066 -1.56728,4.401267 -1.59182,2.2397 -0.0406,-3.574274 -3.52086,-5.047036 -6.02028,-2.547619 -2.27162,2.271626 -1.49772,4.098036 2.12134,5.006362 4.36911,1.096577 4.92688,5.432131 1.11184,8.642283 -2.15976,1.817316 -3.8835,2.097133 -5.98628,0.971759 -0.96982,-0.519031 -1.59251,-0.49683 -2.28951,0.08163 -0.75958,0.630394 -0.95739,0.588299 -0.95739,-0.203737 z m 21.55863,0.194512 c -2.78569,-1.172098 -2.64814,-4.230168 0.31069,-6.90788 1.03776,-0.93916 1.25074,-1.7624 0.97938,-3.785606 -0.46929,-3.498796 0.2088,-5.821924 1.85151,-6.343302 3.08789,-0.980057 4.36142,2.81453 1.96646,5.859226 -1.69472,2.15449 -1.68183,2.329041 0.39793,5.38969 l 1.73126,2.547784 1.60208,-2.357658 c 1.70756,-2.512914 2.0181,-3.76173 0.9354,-3.76173 -0.36667,0 -0.66667,-0.3 -0.66667,-0.666666 0,-0.366667 1.2,-0.666667 2.66667,-0.666667 2.73116,0 3.62972,0.925981 1.45134,1.495639 -0.66843,0.174798 -2.04104,1.726798 -3.05026,3.44889 -1.46592,2.501411 -1.67434,3.324576 -1.03638,4.093274 1.16954,1.40921 2.99074,1.175212 4.18568,-0.537803 0.57549,-0.825 1.06208,-1.125 1.08132,-0.666667 0.0193,0.458334 -0.59104,1.459331 -1.35614,2.224439 -1.06413,1.064131 -1.80845,1.272779 -3.16667,0.887689 -2.10498,-0.596817 -3.73013,-0.61085 -6.44223,-0.05563 -1.1,0.225193 -2.64862,0.136532 -3.44137,-0.197026 z m 5.00797,-1.283522 c 0.71159,-0.45094 0.48794,-1.139037 -1.06864,-3.287822 -2.14268,-2.957899 -3.49796,-2.746663 -3.49796,0.545202 0,2.829756 2.27399,4.195473 4.5666,2.74262 z m 0.10007,-12.82425 c 0,-1.220668 -0.34735,-1.91837 -0.95507,-1.91837 -1.19216,0 -1.94374,2.21833 -1.36712,4.0351 0.62088,1.956212 2.32219,0.405427 2.32219,-2.11673 z M 28.938309,34.181879 c 0,-0.345329 1.5,-2.342007 3.333333,-4.437059 2.485669,-2.840513 3.333333,-4.342269 3.333333,-5.905461 0,-2.470195 -1.026297,-3.696274 -3.093988,-3.696274 -1.864415,0 -2.601533,1.093639 -1.572678,2.333333 0.906005,1.09167 0.352926,2.333334 -1.039345,2.333334 -0.618837,0 -0.960655,-0.698184 -0.960655,-1.962198 0,-3.781536 5.145338,-5.409784 7.88379,-2.494835 2.377148,2.530359 1.879584,4.748808 -1.980495,8.830273 l -3.430038,3.62676 h 2.661495 c 2.101277,0 2.813768,-0.315735 3.384918,-1.5 l 0.723422,-1.5 0.04512,1.445475 c 0.09721,3.114214 -0.525402,3.554525 -5.026205,3.554525 -2.344104,0 -4.262007,-0.282543 -4.262007,-0.627873 z m 13.125,0.197317 c -0.943677,-0.943677 -0.409688,-2.236111 0.923883,-2.236111 0.931974,0 1.312003,0.362033 1.166666,1.111423 -0.237962,1.226986 -1.376001,1.839236 -2.090549,1.124688 z M 295.60498,34.143085 c 0,-0.366667 0.73844,-0.666667 1.64098,-0.666667 1.75246,0 1.5683,0.420354 3.98532,-9.09623 1.29733,-5.107958 1.31136,-4.90377 -0.33679,-4.90377 -2.04571,0 -3.80889,1.141548 -4.91697,3.183428 -1.20953,2.2288 -1.43371,0.411824 -0.26552,-2.152059 0.7598,-1.667583 0.90326,-1.698035 8,-1.698035 7.86698,0 7.87117,0.0025 6.73399,4 -0.44625,1.568672 -0.49471,1.529474 -0.82423,-0.666667 -0.32202,-2.146151 -0.53392,-2.333333 -2.64138,-2.333333 h -2.29127 l -1.52562,6 c -1.87386,7.369548 -1.88259,7.666666 -0.22517,7.666666 0.73333,0 1.33333,0.3 1.33333,0.666667 0,0.376069 -1.88889,0.666667 -4.33333,0.666667 -2.44445,0 -4.33334,-0.290598 -4.33334,-0.666667 z m -61.33333,-4 v -2.666667 h -6 c -3.55555,0 -6,-0.271604 -6,-0.666666 0,-0.4 2.66667,-0.666667 6.66667,-0.666667 h 6.66666 v 3.333333 c 0,1.833334 -0.3,3.333334 -0.66666,3.333334 -0.36667,0 -0.66667,-1.2 -0.66667,-2.666667 z m 16,0 v -2.666667 h -6 c -3.55555,0 -6,-0.271604 -6,-0.666666 0,-0.4 2.66667,-0.666667 6.66667,-0.666667 h 6.66666 v 3.333333 c 0,1.833334 -0.3,3.333334 -0.66666,3.333334 -0.36667,0 -0.66667,-1.2 -0.66667,-2.666667 z M 105.29447,10.438044 c -4.12132,-4.4469743 -4.57717,-13.5829773 -0.96215,-19.2832593 2.4589,-3.8772897 3.87742,-3.9477427 1.61077,-0.08 -3.08167,5.25848 -3.05309,13.512944 0.0627,18.10431 2.04719,3.0166963 1.6194,3.7738343 -0.71132,1.2589503 z m 95.64385,1.41128 c 0,-0.275226 0.61392,-1.362587 1.36427,-2.4163573 2.17374,-3.052739 3.06071,-8.575314 2.10769,-13.123215 -0.4418,-2.108334 -1.40373,-4.646186 -2.13762,-5.639672 -1.57066,-2.1262527 -1.66618,-2.6124857 -0.4192,-2.1339737 0.50333,0.193146 1.70333,1.7993277 2.66667,3.5692957 3.20693,5.892187 2.15529,15.055833 -2.17754,18.9743423 -0.77235,0.698495 -1.40427,1.044806 -1.40427,0.76958 z m 45.02282,-1.41128 c -4.12132,-4.4469743 -4.57716,-13.5829773 -0.96215,-19.2832593 2.4589,-3.8772897 3.87742,-3.9477427 1.61077,-0.08 -3.08167,5.25848 -3.05308,13.512944 0.0627,18.10431 2.04718,3.0166963 1.61939,3.7738343 -0.71132,1.2589503 z m 74.66667,0 c -4.12132,-4.4469743 -4.57717,-13.5829773 -0.96215,-19.2832593 2.4589,-3.8772897 3.87742,-3.9477427 1.61077,-0.08 -3.08167,5.25848 -3.05309,13.512944 0.0627,18.10431 2.04718,3.0166963 1.6194,3.7738343 -0.71132,1.2589503 z m 67.64384,1.41128 c 0,-0.275226 0.61392,-1.362587 1.36428,-2.4163573 2.17374,-3.052739 3.06071,-8.575314 2.10769,-13.123215 -0.44181,-2.108334 -1.40373,-4.646186 -2.13763,-5.639672 -1.57066,-2.1262527 -1.66618,-2.6124857 -0.41919,-2.1339737 0.50333,0.193146 1.70333,1.7993277 2.66667,3.5692957 3.20692,5.892187 2.15528,15.055833 -2.17754,18.9743423 -0.77236,0.698495 -1.40428,1.044806 -1.40428,0.76958 z m 9.33334,0 c 0,-0.275226 0.61392,-1.362587 1.36427,-2.4163573 2.17374,-3.052739 3.06071,-8.575314 2.10769,-13.123215 -0.4418,-2.108334 -1.40373,-4.646186 -2.13762,-5.639672 -1.57066,-2.1262527 -1.66618,-2.6124857 -0.4192,-2.1339737 0.50333,0.193146 1.70333,1.7993277 2.66667,3.5692957 3.20693,5.892187 2.15529,15.055833 -2.17754,18.9743423 -0.77235,0.698495 -1.40427,1.044806 -1.40427,0.76958 z m -64.22223,-1.484017 c -0.24444,-0.244444 -0.44444,-1.1061023 -0.44444,-1.9147943 0,-1.197866 -0.49013,-1.548725 -2.64478,-1.893267 -3.62682,-0.579953 -5.35522,-2.593796 -5.35522,-6.239642 0,-5.632952 3.9308,-10.171419 9.25242,-10.6827597 2.90089,-0.278738 3.52908,-0.104198 5.03117,1.3978977 2.53002,2.530018 2.42329,7.267804 -0.24677,10.953703 -1.07974,1.490543 -2.5968,2.911185 -3.37124,3.156984 -0.8035,0.25502 -1.32024,0.899657 -1.2035,1.50137 0.32359,1.667864 1.63224,1.699082 3.14528,0.07503 1.90202,-2.041589 1.9112,-0.08246 0.0109,2.333349 -1.31626,1.6733553 -3.21553,2.2704293 -4.17383,1.3121283 z m -0.44444,-5.9377713 c 0,-0.620826 -0.45358,-0.960916 -1.11142,-0.833334 -1.67252,0.324368 -1.90217,1.882216 -0.27747,1.882216 0.81889,0 1.38889,-0.430459 1.38889,-1.048882 z m -1.35498,-2.284451 c 0.32619,0 1.10324,0.510165 1.72677,1.133699 1.06715,1.067154 1.22513,1.027399 2.69145,-0.677297 1.83538,-2.133759 3.19615,-6.66548 2.65222,-8.832642 -0.48887,-1.947843 -2.154,-3.62448 -3.59642,-3.621268 -4.66496,0.01039 -9.74122,9.054109 -7.46714,13.303257 l 0.79668,1.48862 1.30168,-1.397184 c 0.71592,-0.768452 1.56856,-1.397185 1.89476,-1.397185 z m -189.97836,3.83163 c 0,-2.052171 0.85379,-5.164963 1.41667,-5.164963 0.32083,0 0.58333,0.739444 0.58333,1.64321 0,3.307215 4.57793,3.974327 6.79682,0.990458 1.692,-2.275322 0.97592,-3.79729 -2.18736,-4.649074 -4.18404,-1.126646 -5.03058,-3.922858 -2.20445,-7.28153 1.62157,-1.9271237 2.00371,-2.0554227 5.68861,-1.9098977 l 3.95028,0.156004 -0.4318,2.0254147 c -0.66878,3.137066 -1.56728,4.401267 -1.59182,2.239701 -0.0406,-3.574275 -3.52086,-5.0470357 -6.02028,-2.54762 -2.27162,2.271626 -1.49772,4.098036 2.12134,5.006362 4.36911,1.096578 4.92688,5.432132 1.11184,8.642284 -2.15976,1.817316 -3.8835,2.097132 -5.98628,0.971758 -0.96982,-0.51903 -1.59251,-0.49683 -2.28951,0.08163 -0.75958,0.630394 -0.95739,0.5883 -0.95739,-0.203737 z m 21.55863,0.194512 c -2.78569,-1.172097 -2.64814,-4.230168 0.31069,-6.907879 1.03776,-0.93916 1.25074,-1.7624 0.97938,-3.785607 -0.46929,-3.498796 0.2088,-5.8219237 1.85151,-6.3433007 3.08789,-0.980058 4.36142,2.8145287 1.96646,5.8592257 -1.69472,2.15449 -1.68183,2.32904 0.39793,5.38969 l 1.73126,2.547783 1.60208,-2.357658 c 1.70756,-2.512913 2.0181,-3.761729 0.9354,-3.761729 -0.36667,0 -0.66667,-0.3 -0.66667,-0.666667 0,-0.366667 1.2,-0.666667 2.66667,-0.666667 2.73116,0 3.62972,0.925982 1.45134,1.49564 -0.66843,0.174797 -2.04104,1.726798 -3.05026,3.44889 -1.46592,2.50141 -1.67434,3.324576 -1.03638,4.093273 1.16954,1.409211 2.99074,1.175212 4.18568,-0.537803 0.57549,-0.825 1.06208,-1.125 1.08132,-0.666666 0.0193,0.458333 -0.59104,1.45933 -1.35614,2.224438 -1.06413,1.064131 -1.80845,1.272779 -3.16667,0.887689 -2.10498,-0.596817 -3.73013,-0.610849 -6.44223,-0.05563 -1.1,0.225194 -2.64862,0.136532 -3.44137,-0.197025 z m 5.00797,-1.283521 c 0.71159,-0.450941 0.48794,-1.139038 -1.06864,-3.287823 -2.14268,-2.957899 -3.49796,-2.746663 -3.49796,0.545202 0,2.829757 2.27399,4.195473 4.5666,2.742621 z m 0.10007,-12.824251 c 0,-1.220668 -0.34735,-1.91837 -0.95507,-1.91837 -1.19216,0 -1.94374,2.21833 -1.36712,4.0351 0.62088,1.956213 2.32219,0.405427 2.32219,-2.11673 z m 53.05029,14.069433 c 5.39876,-0.569777 7.25102,-1.496282 8.36422,-4.183791 0.64166,-1.54909 0.58922,-2.314057 -0.2842,-4.145629 -1.21744,-2.553002 -4.00412,-3.648451 -9.29698,-3.654665 -1.74166,-0.002 -3.16666,-0.303718 -3.16666,-0.670385 0,-0.878399 6.31723,-0.84883 9.53468,0.04463 4.37703,1.215467 6.33042,6.05419 4.0218,9.962368 -1.55309,2.629179 -3.55003,3.340207 -9.08785,3.235816 l -4.80197,-0.090521 z m 130.66826,-6.309442 c -1.73184,-3.879872 -3.01299,-7.419724 -2.84702,-7.866337 0.2991,-0.804832 5.79514,10.311248 5.79514,11.721021 0,1.502188 1.24228,-0.653352 3.69093,-6.404306 1.4146,-3.322344 2.75129,-5.619851 3.07899,-5.292155 0.55455,0.554559 -4.58785,12.914679 -5.93262,14.259452 -0.40441,0.404407 -1.78525,-1.936617 -3.78542,-6.417675 z m 29.66579,6.049754 c -0.42842,-0.516204 -0.7053,-2.186509 -0.6153,-3.71179 0.17574,-2.978499 -0.64018,-3.988062 -3.2377,-4.006116 -1.13266,-0.0079 -1.6275,0.561749 -2.16295,2.489791 -0.91939,3.310563 -0.89619,3.538723 0.46495,4.571969 1.01326,0.76918 0.65746,0.888414 -2.70602,0.906829 -2.41686,0.01323 -3.71778,-0.229411 -3.46065,-0.645465 0.22661,-0.366666 0.83275,-0.666666 1.34698,-0.666666 0.52005,0 1.22431,-1.109453 1.58696,-2.5 1.63681,-6.276102 2.73273,-10.726094 2.73273,-11.09623 0,-0.222074 -0.45,-0.40377 -1,-0.40377 -0.55,0 -1,-0.3 -1,-0.666667 0,-1.0187927 7.7352,-0.7951987 10.35474,0.299315 1.93263,0.807505 2.31192,1.304768 2.31192,3.031008 0,1.596156 -0.45314,2.322878 -1.99578,3.200684 -2.10727,1.199099 -2.4296,1.794073 -1.33755,2.468993 0.36667,0.226613 0.66667,1.744317 0.66667,3.372678 0,3.091051 0.5894,3.660313 2.01337,1.944545 0.46381,-0.558861 0.99871,-0.8607 1.18865,-0.670754 0.58745,0.587446 -2.00924,3.020198 -3.22372,3.020198 -0.63161,0 -1.4989,-0.422348 -1.9273,-0.938552 z m 0.0305,-9.10503 c 1.72106,-0.921082 2.60243,-3.289828 1.79619,-4.827396 -0.46818,-0.892859 -1.25647,-1.151473 -3.04813,-1 -2.27676,0.192484 -2.46319,0.387614 -3.22066,3.370978 l -0.80402,3.166666 h 1.97476 c 1.08611,0 2.57195,-0.319611 3.30186,-0.710248 z m 34.91765,7.102156 c -0.97299,-1.660287 -1.57812,-3.327675 -1.34473,-3.705306 0.76576,-1.239026 2.11641,-0.720004 2.9633,1.138724 l 0.83168,1.825326 1.61961,-3.407694 c 1.72395,-3.627314 7.8086,-10.2429577 9.42078,-10.2429577 0.53127,0 -0.43089,1.3575707 -2.13813,3.0168237 -1.92746,1.873266 -3.8642,4.716214 -5.10934,7.5 -3.57104,7.983824 -3.76483,8.104107 -6.2432,3.875084 z M 28.938309,5.7932507 c 0,-0.192409 0.75,-0.634983 1.666666,-0.983499 1.608208,-0.61144 1.666667,-0.845141 1.666667,-6.662868 v -6.029202 l -1.666667,0.418307 c -0.938683,0.235595 -1.666666,0.129492 -1.666666,-0.242914 0,-0.363671 0.675,-0.807615 1.5,-0.986541 0.825,-0.178926 2.025,-0.545996 2.666666,-0.815711 1.07052,-0.449976 1.166667,0.119842 1.166667,6.914269 0,6.960215 0.08003,7.40466 1.333333,7.40466 0.733334,0 1.333334,0.3 1.333334,0.666666 0,0.370371 -1.777778,0.666667 -4,0.666667 -2.2,0 -4,-0.157425 -4,-0.349834 z m 12.458333,-0.08072 c -0.943677,-0.943678 -0.409688,-2.236112 0.923883,-2.236112 0.931975,0 1.312003,0.362034 1.166667,1.111423 -0.237962,1.226986 -1.376002,1.839237 -2.09055,1.124689 z M 183.60498,5.4764177 c 0,-0.366666 0.73844,-0.666666 1.64098,-0.666666 1.75246,0 1.5683,0.420354 3.98532,-9.09623 1.29733,-5.107959 1.31136,-4.90377 -0.33679,-4.90377 -2.04571,0 -3.80889,1.141547 -4.91697,3.183427 -1.20953,2.228801 -1.43371,0.411824 -0.26552,-2.152059 0.7598,-1.667583 0.90326,-1.698035 8,-1.698035 7.86698,0 7.87117,0.0025 6.73399,4 -0.44625,1.568672 -0.49471,1.529474 -0.82423,-0.666667 -0.32202,-2.146151 -0.53392,-2.333333 -2.64138,-2.333333 h -2.29127 l -1.52562,6 c -1.87386,7.369549 -1.88259,7.666667 -0.22517,7.666667 0.73333,0 1.33333,0.3 1.33333,0.666666 0,0.376069 -1.88889,0.666667 -4.33333,0.666667 -2.44445,0 -4.33334,-0.290598 -4.33334,-0.666667 z m 82.33334,0 c 0.22661,-0.366666 0.83275,-0.666666 1.34698,-0.666666 0.52004,0 1.2243,-1.109453 1.58696,-2.5 1.6368,-6.276102 2.73272,-10.726094 2.73272,-11.09623 0,-0.222074 -0.45,-0.40377 -1,-0.40377 -0.55,0 -1,-0.3 -1,-0.666667 0,-0.9022657 7.93532,-0.8522587 10.5712,0.06662 5.81427,2.026861 1.5921,8.600047 -5.52409,8.600047 -2.16194,0 -2.38177,0.195788 -3.06384,2.728812 -0.64108,2.380792 -0.58059,2.845718 0.4743,3.645464 1.07086,0.811851 0.76633,0.919076 -2.66358,0.937855 -2.41686,0.01323 -3.71779,-0.229411 -3.46065,-0.645465 z m 13.29553,-9.48167 c 1.57895,-2.254277 1.33075,-4.419401 -0.56106,-4.894215 -3.41581,-0.857313 -4.60185,-0.159957 -5.45816,3.209219 l -0.80483,3.166666 h 2.89312 c 2.23393,0 3.12959,-0.337598 3.93093,-1.48167 z m 12.37113,8.815004 c 0,-0.407589 3.12423,-0.666667 8.03935,-0.666667 5.1898,0 7.8933,0.2363 7.62732,0.666667 -0.23583,0.381589 -3.67359,0.666666 -8.03935,0.666666 -4.64043,0 -7.62732,-0.261068 -7.62732,-0.666666 z M 122.27165,1.4764177 v -2.666666 h -6 c -3.55556,0 -6,-0.271605 -6,-0.666667 0,-0.4 2.66666,-0.666667 6.66666,-0.666667 h 6.66667 v 3.333334 c 0,1.833333 -0.3,3.333333 -0.66666,3.333333 -0.36667,0 -0.66667,-1.2 -0.66667,-2.666667 z m 15.33333,0 v -2.666666 h -6 c -3.55555,0 -6,-0.271605 -6,-0.666667 0,-0.4 2.66667,-0.666667 6.66667,-0.666667 h 6.66667 v 3.333334 c 0,1.833333 -0.3,3.333333 -0.66667,3.333333 -0.36667,0 -0.66667,-1.2 -0.66667,-2.666667 z m 124.66667,0 v -2.666666 h -6 c -3.55555,0 -6,-0.271605 -6,-0.666667 0,-0.4 2.66667,-0.666667 6.66667,-0.666667 h 6.66666 v 3.333334 c 0,1.833333 -0.3,3.333333 -0.66666,3.333333 -0.36667,0 -0.66667,-1.2 -0.66667,-2.666667 z m 29.33333,-1.333333 c 0,-0.407407 3.11112,-0.666667 8,-0.666667 4.88889,0 8,0.25926 8,0.666667 0,0.407407 -3.11111,0.666667 -8,0.666667 -4.88888,0 -8,-0.25926 -8,-0.666667 z m 0,-4.666667 c 0,-0.407407 3.11112,-0.666666 8,-0.666666 4.88889,0 8,0.259259 8,0.666666 0,0.407408 -3.11111,0.666667 -8,0.666667 -4.88888,0 -8,-0.259259 -8,-0.666667 z"
       id="path954" />
  </g>
</svg>
