<?xml version="1.0" encoding="UTF-8" standalone="no"?>
<svg
   xmlns:dc="http://purl.org/dc/elements/1.1/"
   xmlns:cc="http://creativecommons.org/ns#"
   xmlns:rdf="http://www.w3.org/1999/02/22-rdf-syntax-ns#"
   xmlns:svg="http://www.w3.org/2000/svg"
   xmlns="http://www.w3.org/2000/svg"
   xmlns:sodipodi="http://sodipodi.sourceforge.net/DTD/sodipodi-0.dtd"
   xmlns:inkscape="http://www.inkscape.org/namespaces/inkscape"
   version="1.1"
   id="svg1020"
   width="510.00345"
   height="360.59961"
   viewBox="0 0 510.00345 360.59961"
   sodipodi:docname="5-7-example-1.svg"
   inkscape:version="1.0.1 (c497b03c, 2020-09-10)">
  <metadata
     id="metadata1026">
    <rdf:RDF>
      <cc:Work
         rdf:about="">
        <dc:format>image/svg+xml</dc:format>
        <dc:type
           rdf:resource="http://purl.org/dc/dcmitype/StillImage" />
        <dc:title></dc:title>
      </cc:Work>
    </rdf:RDF>
  </metadata>
  <defs
     id="defs1024" />
  <sodipodi:namedview
     pagecolor="#ffffff"
     bordercolor="#666666"
     borderopacity="1"
     objecttolerance="10"
     gridtolerance="10"
     guidetolerance="10"
     inkscape:pageopacity="0"
     inkscape:pageshadow="2"
     inkscape:window-width="740"
     inkscape:window-height="480"
     id="namedview1022"
     showgrid="false"
     fit-margin-top="0"
     fit-margin-left="0"
     fit-margin-right="0"
     fit-margin-bottom="0"
     inkscape:pagecheckerboard="true"
     inkscape:zoom="0.52912449"
     inkscape:cx="177.84835"
     inkscape:cy="178.16872"
     inkscape:window-x="0"
     inkscape:window-y="25"
     inkscape:window-maximized="0"
     inkscape:current-layer="g1028" />
  <g
     inkscape:groupmode="layer"
     inkscape:label="Image"
     id="g1028"
     transform="translate(-265.79896,-10.953876)">
    <path
       style="fill:#1d1d1d;stroke-width:0.666667"
       d="m 397.13229,363.14349 v -8.41001 l -1.7062,1.11794 c -0.93841,0.61488 -2.21341,1.00929 -2.83334,0.87648 -0.84091,-0.18016 -0.59284,-0.52534 0.9769,-1.35934 1.15722,-0.61482 2.50545,-2.02472 2.99607,-3.13312 1.09057,-2.46378 1.62416,-2.53799 2.18489,-0.30387 0.23625,0.94127 1.31687,2.21627 2.40139,2.83333 1.08452,0.61706 1.97375,1.34693 1.97607,1.62193 0.007,0.83495 -1.61164,0.56127 -3.18078,-0.5378 l -1.48167,-1.03781 v 8.37114 c 0,5.13632 -0.25762,8.37114 -0.66667,8.37114 -0.40921,0 -0.66666,-3.24778 -0.66666,-8.41001 z m 46,3.27145 c 0,-0.25954 1.11088,-1.60954 2.46863,-3 l 2.46863,-2.52811 -2.59198,-2.65443 c -3.38165,-3.46312 -2.46284,-4.38194 1.00029,-1.00029 l 2.65443,2.59199 2.66666,-2.60394 c 3.16373,-3.0893 3.65121,-1.74592 0.53364,1.47059 l -2.13303,2.20073 2.47993,2.53967 c 3.23719,3.31519 2.31017,4.23799 -1.00521,1.00061 l -2.54199,-2.4822 -2.52811,2.46864 c -2.44671,2.38914 -3.47189,2.97874 -3.47189,1.99674 z m 50.66666,0 c 0,-0.25954 1.11089,-1.60954 2.46863,-3 l 2.46864,-2.52811 -2.59199,-2.65443 c -3.38165,-3.46312 -2.46283,-4.38194 1.00029,-1.00029 l 2.65443,2.59199 2.66667,-2.60394 c 3.16372,-3.0893 3.6512,-1.74592 0.53364,1.47059 l -2.13304,2.20073 2.47993,2.53967 c 3.2372,3.31519 2.31017,4.23799 -1.00521,1.00061 l -2.54199,-2.4822 -2.52811,2.46864 c -2.44671,2.38914 -3.47189,2.97874 -3.47189,1.99674 z m 50.66666,0 c 0,-0.25954 1.11089,-1.60954 2.46864,-3 l 2.46863,-2.52811 -2.59199,-2.65443 c -3.38164,-3.46312 -2.46283,-4.38194 1.0003,-1.00029 l 2.65442,2.59199 2.66667,-2.60394 c 3.16373,-3.0893 3.65121,-1.74592 0.53364,1.47059 l -2.13303,2.20073 2.47992,2.53967 c 3.2372,3.31519 2.31018,4.23799 -1.0052,1.00061 l -2.542,-2.4822 -2.5281,2.46864 c -2.44672,2.38914 -3.4719,2.97874 -3.4719,1.99674 z m 51.33334,0 c 0,-0.25954 1.11088,-1.60954 2.46863,-3 l 2.46863,-2.52811 -2.59198,-2.65443 c -3.38165,-3.46312 -2.46284,-4.38194 1.00029,-1.00029 l 2.65443,2.59199 2.66666,-2.60394 c 3.16373,-3.0893 3.65121,-1.74592 0.53364,1.47059 l -2.13303,2.20073 2.47993,2.53967 c 3.2372,3.31519 2.31017,4.23799 -1.00521,1.00061 l -2.54199,-2.4822 -2.52811,2.46864 c -2.44671,2.38914 -3.47189,2.97874 -3.47189,1.99674 z m 50.66666,0 c 0,-0.25954 1.11089,-1.60954 2.46863,-3 l 2.46864,-2.52811 -2.59199,-2.65443 c -3.38165,-3.46312 -2.46283,-4.38194 1.00029,-1.00029 l 2.65443,2.59199 2.66667,-2.60394 c 3.16372,-3.0893 3.6512,-1.74592 0.53364,1.47059 l -2.13304,2.20073 2.47993,2.53967 c 3.2372,3.31519 2.31017,4.23799 -1.00521,1.00061 l -2.54199,-2.4822 -2.52811,2.46864 c -2.44671,2.38914 -3.47189,2.97874 -3.47189,1.99674 z M 268.76866,337.25046 c -1.99513,-1.99512 -2.04469,-2.99805 -0.26024,-5.2666 1.27082,-1.6156 1.29633,-1.86338 0.33333,-3.23825 -1.40165,-2.00113 -1.31281,-3.58876 0.29054,-5.19211 1.59464,-1.59464 4.82974,-1.74169 6.28572,-0.28572 1.37528,1.37528 1.34958,4.71714 -0.0422,5.49605 -0.97933,0.54806 -0.94552,0.75428 0.33333,2.03313 1.40204,1.40204 1.87042,4.38952 0.913,5.8234 -0.7321,1.09642 -3.21503,2.26647 -4.8096,2.26647 -0.77411,0 -2.14383,-0.73637 -3.04383,-1.63637 z m 6.33705,-0.66494 c 1.22685,-1.47826 0.57766,-3.16345 -1.74013,-4.51711 -1.92278,-1.12297 -2.18386,-1.13577 -3.16448,-0.15515 -1.2618,1.26181 -1.39783,3.71121 -0.26881,4.84024 1.10461,1.10461 4.2007,1.00408 5.17342,-0.16798 z m -0.77342,-8.49869 c 1.25758,-1.25758 0.94225,-3.74363 -0.57804,-4.55726 -1.07195,-0.57369 -1.73829,-0.50145 -2.99999,0.32525 -2.07432,1.35914 -2.0403,1.94202 0.21137,3.62195 2.17121,1.61991 2.32834,1.64838 3.36666,0.61006 z m 447.10302,9.16363 c -1.89258,-1.89256 -2.06544,-2.90749 -0.59156,-3.47308 1.50468,-0.5774 2.71054,0.79767 1.73272,1.97587 -0.93547,1.12717 -0.3621,1.80025 1.53358,1.80025 1.99155,0 3.02222,-1.25045 3.02222,-3.66667 0,-2.38846 -1.02159,-3.65809 -2.96666,-3.68694 -1.35771,-0.0201 -1.35793,-0.0251 -0.0333,-0.74955 2.90874,-1.59096 3.70839,-3.75989 2.01173,-5.45654 -1.54228,-1.54228 -3.54127,-0.69024 -3.15247,1.34368 0.2577,1.34804 0.0829,1.63568 -0.88029,1.44898 -1.77082,-0.34326 -1.91371,-1.63155 -0.35397,-3.1913 1.49213,-1.49212 4.04112,-1.779 6.0855,-0.68488 1.6065,0.85978 1.72224,4.11525 0.2004,5.63708 -1.0077,1.0077 -0.98278,1.16358 0.33333,2.08542 2.10929,1.47741 1.93372,5.08844 -0.33413,6.87233 -2.33018,1.83291 -4.60727,1.74515 -6.60706,-0.25465 z m 22.06744,-5.38494 c -1.72372,-3.86172 -2.99825,-7.38672 -2.83228,-7.83333 0.2991,-0.80483 5.79514,10.31125 5.79514,11.72102 0,1.39937 1.10045,-0.51647 3.6679,-6.38567 1.4081,-3.21894 2.8076,-5.6052 3.10999,-5.30282 0.55039,0.55039 -5.41122,14.8194 -6.19229,14.82117 -0.22793,5.2e-4 -1.82473,-3.15865 -3.54846,-7.02037 z m -463.24546,5.92409 c -0.94367,-0.94368 -0.40968,-2.23611 0.92389,-2.23611 0.93197,0 1.312,0.36203 1.16666,1.11142 -0.23796,1.22698 -1.376,1.83924 -2.09055,1.12469 z m 111.05704,-1.07276 c 1.01679,-0.82318 3.71679,-4.61725 6,-8.43126 2.28321,-3.81402 4.45129,-6.96402 4.81796,-7 0.37064,-0.0364 0.99118,3.27293 1.39748,7.45279 0.58941,6.06338 0.97642,7.70409 2,8.4788 1.15752,0.87606 0.96124,0.96244 -2.23082,0.98178 -1.925,0.0117 -3.5,-0.2788 -3.5,-0.64546 0,-0.36667 0.45,-0.66667 1,-0.66667 0.66667,0 1,-0.66667 1,-2 0,-1.91815 -0.11963,-2 -2.92332,-2 -2.44001,0 -3.11824,0.29747 -4.10224,1.79925 -0.80549,1.22933 -0.93536,1.88044 -0.41001,2.05556 1.78938,0.59646 0.55536,1.47828 -2.06443,1.47521 l -2.83333,-0.003 1.84871,-1.4967 z m 9.81796,-8.16335 c 0,-1.65 -0.225,-2.99769 -0.5,-2.99487 -0.47826,0.005 -3.5,4.86297 -3.5,5.62695 0,0.20235 0.9,0.36792 2,0.36792 1.92592,0 2,-0.11112 2,-3 z m 38.95852,9.0671 c 0.24942,-0.40357 0.87423,-0.73377 1.38846,-0.73377 0.52004,0 1.2243,-1.10945 1.58696,-2.5 1.6368,-6.2761 2.73272,-10.72609 2.73272,-11.09623 0,-0.22208 -0.45,-0.40377 -1,-0.40377 -0.55,0 -1,-0.3 -1,-0.66667 0,-0.96724 9.34491,-0.80898 11.33333,0.19194 2.54065,1.2789 2.56603,4.01633 0.0545,5.87322 -1.96745,1.4546 -1.98739,1.52294 -0.7062,2.42032 1.81973,1.2746 1.64959,3.63743 -0.40072,5.56498 -1.52419,1.43293 -2.44056,1.64272 -8.08082,1.84998 -4.51062,0.16576 -6.22972,0.0203 -5.90818,-0.5 z m 11.74853,-2.10749 c 0.86866,-0.86866 1.29759,-2.03291 1.16666,-3.16667 -0.18793,-1.62743 -0.49559,-1.81154 -3.33275,-1.99446 -3.10605,-0.20026 -3.13014,-0.18558 -3.82962,2.33333 -1.09549,3.94497 -0.9761,4.20152 1.95532,4.20152 1.80391,0 3.11112,-0.44445 4.04039,-1.37372 z m 1.49116,-7.81457 c 0.70444,-0.63228 1.11654,-1.77664 1,-2.77692 -0.16935,-1.45369 -0.57506,-1.73235 -2.78607,-1.9136 -3.16325,-0.25932 -3.55248,0.098 -4.14476,3.80511 l -0.46752,2.9263 2.60006,-0.48271 c 1.43004,-0.26549 3.13928,-0.96667 3.79829,-1.55818 z m 39.98383,9.01831 c 1.01679,-0.82318 3.71679,-4.61725 6,-8.43126 2.28321,-3.81402 4.45129,-6.96402 4.81795,-7 0.37064,-0.0364 0.99118,3.27293 1.39749,7.45279 0.58941,6.06338 0.97642,7.70409 2,8.4788 1.15751,0.87606 0.96123,0.96244 -2.23082,0.98178 -1.925,0.0117 -3.5,-0.2788 -3.5,-0.64546 0,-0.36667 0.45,-0.66667 1,-0.66667 0.66667,0 1,-0.66667 1,-2 0,-1.91815 -0.11963,-2 -2.92333,-2 -2.44,0 -3.11824,0.29747 -4.10224,1.79925 -0.80548,1.22933 -0.93536,1.88044 -0.41,2.05556 1.78938,0.59646 0.55536,1.47828 -2.06443,1.47521 l -2.83333,-0.003 1.84871,-1.4967 z m 9.81795,-8.16335 c 0,-1.65 -0.225,-2.99769 -0.5,-2.99487 -0.47825,0.005 -3.5,4.86297 -3.5,5.62695 0,0.20235 0.9,0.36792 2,0.36792 1.92593,0 2,-0.11112 2,-3 z m 38.95853,9.0671 c 0.24942,-0.40357 0.87422,-0.73377 1.38845,-0.73377 0.52005,0 1.22431,-1.10945 1.58696,-2.5 1.63681,-6.2761 2.73273,-10.72609 2.73273,-11.09623 0,-0.22208 -0.45,-0.40377 -1,-0.40377 -0.55,0 -1,-0.3 -1,-0.66667 0,-0.96724 9.3449,-0.80898 11.33333,0.19194 2.54065,1.2789 2.56603,4.01633 0.0545,5.87322 -1.96746,1.4546 -1.9874,1.52294 -0.7062,2.42032 1.81973,1.2746 1.64959,3.63743 -0.40072,5.56498 -1.5242,1.43293 -2.44057,1.64272 -8.08082,1.84998 -4.51063,0.16576 -6.22973,0.0203 -5.90818,-0.5 z m 11.74852,-2.10749 c 0.86866,-0.86866 1.2976,-2.03291 1.16667,-3.16667 -0.18794,-1.62743 -0.49559,-1.81154 -3.33276,-1.99446 -3.10605,-0.20026 -3.13013,-0.18558 -3.82961,2.33333 -1.0955,3.94497 -0.9761,4.20152 1.95532,4.20152 1.8039,0 3.11111,-0.44445 4.04038,-1.37372 z m 1.49117,-7.81457 c 0.70444,-0.63228 1.11654,-1.77664 1,-2.77692 -0.16935,-1.45369 -0.57507,-1.73235 -2.78607,-1.9136 -3.16326,-0.25932 -3.55249,0.098 -4.14476,3.80511 l -0.46753,2.9263 2.60007,-0.48271 c 1.43004,-0.26549 3.13927,-0.96667 3.79829,-1.55818 z m 39.31716,9.01831 c 1.01679,-0.82318 3.71679,-4.61725 6,-8.43126 2.28321,-3.81402 4.45129,-6.96402 4.81795,-7 0.37064,-0.0364 0.99118,3.27293 1.39749,7.45279 0.58941,6.06338 0.97642,7.70409 2,8.4788 1.15751,0.87606 0.96123,0.96244 -2.23082,0.98178 -1.925,0.0117 -3.5,-0.2788 -3.5,-0.64546 0,-0.36667 0.45,-0.66667 1,-0.66667 0.66667,0 1,-0.66667 1,-2 0,-1.91815 -0.11963,-2 -2.92333,-2 -2.44,0 -3.11824,0.29747 -4.10224,1.79925 -0.80548,1.22933 -0.93536,1.88044 -0.41,2.05556 1.78938,0.59646 0.55536,1.47828 -2.06443,1.47521 l -2.83333,-0.003 1.84871,-1.4967 z m 9.81795,-8.16335 c 0,-1.65 -0.225,-2.99769 -0.5,-2.99487 -0.47825,0.005 -3.5,4.86297 -3.5,5.62695 0,0.20235 0.9,0.36792 2,0.36792 1.92593,0 2,-0.11112 2,-3 z m 39.62519,9.0671 c 0.24942,-0.40357 0.87423,-0.73377 1.38846,-0.73377 0.52004,0 1.2243,-1.10945 1.58696,-2.5 1.6368,-6.2761 2.73272,-10.72609 2.73272,-11.09623 0,-0.22208 -0.45,-0.40377 -1,-0.40377 -0.55,0 -1,-0.3 -1,-0.66667 0,-0.96724 9.34491,-0.80898 11.33334,0.19194 2.54064,1.2789 2.56602,4.01633 0.0545,5.87322 -1.96745,1.4546 -1.98739,1.52294 -0.7062,2.42032 1.81974,1.2746 1.6496,3.63743 -0.40072,5.56498 -1.52419,1.43293 -2.44056,1.64272 -8.08082,1.84998 -4.51062,0.16576 -6.22972,0.0203 -5.90818,-0.5 z m 11.74853,-2.10749 c 0.86866,-0.86866 1.29759,-2.03291 1.16667,-3.16667 -0.18794,-1.62743 -0.4956,-1.81154 -3.33276,-1.99446 -3.10605,-0.20026 -3.13014,-0.18558 -3.82962,2.33333 -1.09549,3.94497 -0.9761,4.20152 1.95532,4.20152 1.80391,0 3.11112,-0.44445 4.04039,-1.37372 z m 1.49117,-7.81457 c 0.70444,-0.63228 1.11654,-1.77664 1,-2.77692 -0.16936,-1.45369 -0.57507,-1.73235 -2.78608,-1.9136 -3.16325,-0.25932 -3.55248,0.098 -4.14476,3.80511 l -0.46752,2.9263 2.60006,-0.48271 c 1.43004,-0.26549 3.13928,-0.96667 3.7983,-1.55818 z M 398.59449,312.35116 c 3.93266,-5.42782 24.73664,-31.46433 25.14098,-31.46433 0.28405,0 5.73954,6.66034 12.1233,14.80074 13.75408,17.53883 13.49934,17.19567 13.078,17.617 -0.18234,0.18233 -5.83794,-6.72615 -12.568,-15.35219 -6.73006,-8.62604 -12.39139,-15.69463 -12.58072,-15.70796 -0.18934,-0.0133 -5.85897,7.02575 -12.59918,15.64241 -6.74022,8.61667 -12.52732,15.66667 -12.86023,15.66667 -0.33291,0 -0.21328,-0.54105 0.26585,-1.20234 z m 101.67133,0.28515 c 1.53255,-2.63656 24.63211,-31.68578 25.1998,-31.6904 0.86505,-0.007 25.85965,31.97015 25.37103,32.45877 -0.20407,0.20407 -0.47636,0.24604 -0.60509,0.0933 -0.12873,-0.15278 -5.69793,-7.25862 -12.37599,-15.79076 -6.67805,-8.53214 -12.35443,-15.38165 -12.61417,-15.22112 -0.25974,0.16053 -5.86555,7.20713 -12.45735,15.65911 -6.59181,8.45197 -12.22501,15.37647 -12.51823,15.38777 -0.29322,0.0113 -0.29322,-0.39218 0,-0.89663 z m 101.66156,0.46608 c 0.30188,-1.15573 24.68542,-32.21556 25.29084,-32.21556 0.42592,0 5.30853,6.11314 25.42552,31.83333 0.39708,0.50768 0.40564,0.83334 0.0219,0.83334 -0.34645,0 -6.13646,-7.05 -12.8667,-15.66667 -6.73024,-8.61666 -12.40852,-15.65503 -12.6184,-15.64081 -0.20988,0.0142 -5.09546,6.08923 -10.85685,13.5 -11.0206,14.17562 -14.73528,18.65409 -14.39632,17.35637 z M 341.79896,301.0816 c 0,-0.25954 1.11088,-1.60954 2.46863,-2.99999 l 2.46863,-2.52811 -2.59198,-2.65443 c -3.38165,-3.46312 -2.46284,-4.38194 1.00029,-1.00029 l 2.65443,2.59199 2.66666,-2.60394 c 3.16373,-3.0893 3.65121,-1.74592 0.53364,1.47059 l -2.13303,2.20073 2.47993,2.53967 c 3.2372,3.31519 2.31017,4.23798 -1.00521,1.0006 l -2.54199,-2.48219 -2.52811,2.46863 c -2.44671,2.38915 -3.47189,2.97875 -3.47189,1.99674 z m -71.77709,-28.57546 c -0.66271,-1.72701 0.903,-6.78526 3.11463,-10.06229 l 1.95068,-2.89035 h -3.27765 c -2.41826,0 -3.45582,0.30589 -3.95717,1.16667 -0.61221,1.0511 -0.68153,1.02348 -0.69979,-0.27881 -0.0439,-3.13077 0.44137,-3.41639 5.18701,-3.05295 2.45266,0.18784 4.57297,0.44042 4.71181,0.56129 0.13884,0.12087 -0.73421,1.75731 -1.9401,3.63653 -1.62483,2.53208 -2.29435,4.46675 -2.58576,7.47196 -0.39131,4.03538 -1.62584,5.73552 -2.50366,3.44795 z m 73.34842,0.38631 c -3.70377,-1.49466 -4.76423,-7.37163 -2.05547,-11.39116 2.94126,-4.36454 8.66962,-6.61914 11.79511,-4.64238 0.62212,0.39346 1.29468,0.3552 1.84945,-0.10521 1.39043,-1.15396 1.62322,-0.25516 0.79045,3.05204 -0.87654,3.48106 -1.95087,4.08487 -1.95087,1.09646 0,-2.49701 -2.40226,-4.27445 -4.92222,-3.64199 -4.05307,1.01726 -7.84674,8.18397 -6.37761,12.04808 0.87627,2.30478 1.72843,2.88845 4.23639,2.90167 1.40304,0.007 2.64277,-0.73219 4.5,-2.68453 2.78881,-2.93165 3.19219,-2.90871 1.42606,0.0811 -1.86826,3.16272 -5.98704,4.61934 -9.29129,3.28592 z m 83.33333,0 c -3.70377,-1.49466 -4.76423,-7.37163 -2.05547,-11.39116 2.94126,-4.36454 8.66962,-6.61914 11.79511,-4.64238 0.62212,0.39346 1.29468,0.3552 1.84945,-0.10521 1.39043,-1.15396 1.62322,-0.25516 0.79045,3.05204 -0.87654,3.48106 -1.95087,4.08487 -1.95087,1.09646 0,-2.49701 -2.40226,-4.27445 -4.92222,-3.64199 -4.05307,1.01726 -7.84674,8.18397 -6.37761,12.04808 0.87627,2.30478 1.72843,2.88845 4.23639,2.90167 1.40304,0.007 2.64277,-0.73219 4.5,-2.68453 2.78881,-2.93165 3.19219,-2.90871 1.42606,0.0811 -1.86826,3.16272 -5.98704,4.61934 -9.29129,3.28592 z m 94,0 c -3.70377,-1.49466 -4.76424,-7.37163 -2.05547,-11.39116 2.94126,-4.36454 8.66962,-6.61914 11.79511,-4.64238 0.62212,0.39346 1.29468,0.3552 1.84944,-0.10521 1.39044,-1.15396 1.62322,-0.25516 0.79046,3.05204 -0.87654,3.48106 -1.95088,4.08487 -1.95088,1.09646 0,-2.49701 -2.40225,-4.27445 -4.92222,-3.64199 -4.05306,1.01726 -7.84674,8.18397 -6.3776,12.04808 0.87627,2.30478 1.72842,2.88845 4.23638,2.90167 1.40304,0.007 2.64278,-0.73219 4.5,-2.68453 2.78882,-2.93165 3.1922,-2.90871 1.42607,0.0811 -1.86826,3.16272 -5.98705,4.61934 -9.29129,3.28592 z m 109.99999,0 c -3.70377,-1.49466 -4.76423,-7.37163 -2.05547,-11.39116 2.94126,-4.36454 8.66962,-6.61914 11.79511,-4.64238 0.62212,0.39346 1.29468,0.3552 1.84945,-0.10521 1.39043,-1.15396 1.62322,-0.25516 0.79045,3.05204 -0.87654,3.48106 -1.95087,4.08487 -1.95087,1.09646 0,-2.49701 -2.40226,-4.27445 -4.92222,-3.64199 -4.05307,1.01726 -7.84674,8.18397 -6.37761,12.04808 0.87627,2.30478 1.72843,2.88845 4.23639,2.90167 1.40304,0.007 2.64277,-0.73219 4.5,-2.68453 2.78881,-2.93165 3.19219,-2.90871 1.42606,0.0811 -1.86826,3.16272 -5.98704,4.61934 -9.29129,3.28592 z m -351.11298,-0.43617 c -0.94368,-0.94368 -0.40969,-2.23611 0.92388,-2.23611 0.93197,0 1.312,0.36203 1.16667,1.11142 -0.23797,1.22698 -1.37601,1.83924 -2.09055,1.12469 z m 140.20832,-4.23611 v -2.66667 h -6 c -3.55555,0 -6,-0.27161 -6,-0.66667 0,-0.4 2.66667,-0.66666 6.66667,-0.66666 h 6.66667 v 3.33333 c 0,1.83333 -0.3,3.33333 -0.66667,3.33333 -0.36667,0 -0.66667,-1.2 -0.66667,-2.66666 z m 203.33333,0 v -2.66667 h -6 c -3.55555,0 -6,-0.27161 -6,-0.66667 0,-0.4 2.66667,-0.66666 6.66667,-0.66666 h 6.66666 v 3.33333 c 0,1.83333 -0.3,3.33333 -0.66667,3.33333 -0.36666,0 -0.66666,-1.2 -0.66666,-2.66666 z M 269.47951,243.96132 c -5.34973,-5.34973 -0.57213,-17.16554 5.93159,-14.66983 1.39331,0.53466 1.40405,3.59534 0.0126,3.59534 -0.68721,0 -0.9709,-0.48954 -0.83333,-1.43803 0.47986,-3.30844 -3.69212,-1.14569 -4.51995,2.34314 -0.41896,1.76565 -0.35137,1.85123 0.92327,1.16906 2.94655,-1.57695 6.13858,1.01303 6.13858,4.98077 0,2.283 -0.34861,3.12251 -1.75657,4.23001 -2.29384,1.80433 -3.94018,1.74557 -5.89621,-0.21046 z m 4.96266,-1.03066 c 1.54874,-2.89383 0.34753,-7.37716 -1.97654,-7.37716 -1.51521,0 -2.66667,1.87113 -2.66667,4.33333 0,2.46221 1.15146,4.33334 2.66667,4.33334 0.70753,0 1.59697,-0.58028 1.97654,-1.28951 z m 5.81512,1.52562 c -0.94367,-0.94368 -0.40968,-2.23611 0.92389,-2.23611 0.93197,0 1.312,0.36203 1.16666,1.11142 -0.23796,1.22698 -1.376,1.83924 -2.09055,1.12469 z m 57.875,-0.23611 c 0.22661,-0.36667 0.83275,-0.66667 1.34698,-0.66667 0.52005,0 1.22431,-1.10945 1.58696,-2.5 1.63681,-6.2761 2.73273,-10.72609 2.73273,-11.09623 0,-0.22208 -0.45,-0.40377 -1,-0.40377 -0.55,0 -1,-0.33079 -1,-0.73508 0,-0.49631 1.83466,-0.65872 5.6484,-0.5 6.43678,0.26789 8.13613,1.29294 8.74489,5.27493 0.46199,3.02192 -1.96178,7.77444 -4.99188,9.7881 -1.90184,1.26387 -3.16487,1.50538 -7.87268,1.50538 -3.56852,0 -5.45761,-0.2424 -5.1954,-0.66666 z m 11.99088,-2.11194 c 3.52262,-2.77089 4.88123,-9.25717 2.40785,-11.49555 -0.8486,-0.76797 -2.10358,-1.07775 -3.79466,-0.93665 -2.52396,0.21057 -2.52795,0.21571 -3.6558,4.69981 -0.621,2.46895 -1.327,5.54395 -1.56889,6.83333 l -0.4398,2.34433 h 2.60697 c 1.66481,0 3.271,-0.52232 4.44433,-1.44527 z m 72.00912,2.11194 c 0.22661,-0.36667 0.83275,-0.66667 1.34698,-0.66667 0.52004,0 1.2243,-1.10945 1.58696,-2.5 1.6368,-6.2761 2.73272,-10.72609 2.73272,-11.09623 0,-0.22208 -0.45,-0.40377 -1,-0.40377 -0.55,0 -1,-0.33079 -1,-0.73508 0,-0.49631 1.83466,-0.65872 5.6484,-0.5 6.43678,0.26789 8.13614,1.29294 8.7449,5.27493 0.46198,3.02192 -1.96178,7.77444 -4.99188,9.7881 -1.90184,1.26387 -3.16487,1.50538 -7.87268,1.50538 -3.56852,0 -5.45761,-0.2424 -5.1954,-0.66666 z m 11.99088,-2.11194 c 3.52262,-2.77089 4.88123,-9.25717 2.40784,-11.49555 -0.8486,-0.76797 -2.10357,-1.07775 -3.79465,-0.93665 -2.52396,0.21057 -2.52795,0.21571 -3.65581,4.69981 -0.621,2.46895 -1.32699,5.54395 -1.56888,6.83333 l -0.4398,2.34433 h 2.60697 c 1.66481,0 3.27099,-0.52232 4.44433,-1.44527 z m 82.00911,2.11194 c 0.22662,-0.36667 0.83276,-0.66667 1.34698,-0.66667 0.52005,0 1.22431,-1.10945 1.58696,-2.5 1.63681,-6.2761 2.73273,-10.72609 2.73273,-11.09623 0,-0.22208 -0.45,-0.40377 -1,-0.40377 -0.55,0 -1,-0.33079 -1,-0.73508 0,-0.49631 1.83466,-0.65872 5.6484,-0.5 6.43678,0.26789 8.13613,1.29294 8.74489,5.27493 0.46199,3.02192 -1.96178,7.77444 -4.99188,9.7881 -1.90184,1.26387 -3.16486,1.50538 -7.87268,1.50538 -3.56852,0 -5.4576,-0.2424 -5.1954,-0.66666 z m 11.99088,-2.11194 c 3.52262,-2.77089 4.88124,-9.25717 2.40785,-11.49555 -0.8486,-0.76797 -2.10357,-1.07775 -3.79465,-0.93665 -2.52396,0.21057 -2.52796,0.21571 -3.65581,4.69981 -0.621,2.46895 -1.32699,5.54395 -1.56889,6.83333 l -0.4398,2.34433 h 2.60698 c 1.6648,0 3.27099,-0.52232 4.44432,-1.44527 z m 97.34245,2.11194 c 0.22661,-0.36667 0.83275,-0.66667 1.34698,-0.66667 0.52005,0 1.22431,-1.10945 1.58696,-2.5 1.63681,-6.2761 2.73273,-10.72609 2.73273,-11.09623 0,-0.22208 -0.45,-0.40377 -1,-0.40377 -0.55,0 -1,-0.33079 -1,-0.73508 0,-0.49631 1.83466,-0.65872 5.6484,-0.5 6.43678,0.26789 8.13613,1.29294 8.74489,5.27493 0.46199,3.02192 -1.96178,7.77444 -4.99188,9.7881 -1.90184,1.26387 -3.16487,1.50538 -7.87268,1.50538 -3.56852,0 -5.45761,-0.2424 -5.1954,-0.66666 z m 11.99088,-2.11194 c 3.52262,-2.77089 4.88123,-9.25717 2.40785,-11.49555 -0.8486,-0.76797 -2.10358,-1.07775 -3.79466,-0.93665 -2.52396,0.21057 -2.52795,0.21571 -3.6558,4.69981 -0.621,2.46895 -1.327,5.54395 -1.56889,6.83333 l -0.4398,2.34433 h 2.60697 c 1.66481,0 3.271,-0.52232 4.44433,-1.44527 z m 83.00912,2.15073 c 0,-0.34533 1.5,-2.34201 3.33333,-4.43706 2.48567,-2.84051 3.33333,-4.34227 3.33333,-5.90546 0,-2.47019 -1.0263,-3.69627 -3.09398,-3.69627 -1.86442,0 -2.60154,1.09364 -1.57268,2.33333 0.906,1.09167 0.35292,2.33333 -1.03935,2.33333 -0.61883,0 -0.96065,-0.69818 -0.96065,-1.9622 0,-3.78153 5.14534,-5.40978 7.88379,-2.49483 2.37715,2.53036 1.87958,4.74881 -1.9805,8.83027 l -3.43003,3.62676 h 2.66149 c 2.10127,0 2.81377,-0.31573 3.38492,-1.5 l 0.72342,-1.5 0.0451,1.44548 c 0.0972,3.11421 -0.52541,3.55452 -5.02622,3.55452 -2.3441,0 -4.262,-0.28254 -4.262,-0.62787 z m 20,-0.70546 c 0,-0.40759 3.12422,-0.66667 8.03934,-0.66667 5.1898,0 7.8933,0.2363 7.62732,0.66667 -0.23583,0.38159 -3.67358,0.66667 -8.03934,0.66667 -4.64044,0 -7.62732,-0.26107 -7.62732,-0.66667 z m -321.99999,-3.33333 v -2.66667 h -6 c -3.55555,0 -6,-0.27161 -6,-0.66667 0,-0.4 2.66667,-0.66666 6.66667,-0.66666 h 6.66666 v 3.33333 c 0,1.83333 -0.3,3.33333 -0.66666,3.33333 -0.36667,0 -0.66667,-1.2 -0.66667,-2.66666 z m 203.99999,0 v -2.66667 h -6 c -3.55555,0 -6,-0.27161 -6,-0.66667 0,-0.4 2.66667,-0.66666 6.66667,-0.66666 h 6.66666 v 3.33333 c 0,1.83333 -0.3,3.33333 -0.66666,3.33333 -0.36667,0 -0.66667,-1.2 -0.66667,-2.66666 z m 118,-1.33334 c 0,-0.4074 3.11111,-0.66666 8,-0.66666 4.88888,0 8,0.25926 8,0.66666 0,0.40741 -3.11112,0.66667 -8,0.66667 -4.88889,0 -8,-0.25926 -8,-0.66667 z m 0,-4.66666 c 0,-0.40741 3.11111,-0.66667 8,-0.66667 4.88888,0 8,0.25926 8,0.66667 0,0.4074 -3.11112,0.66666 -8,0.66666 -4.88889,0 -8,-0.25926 -8,-0.66666 z M 347.87914,219.71825 c 0.37414,-1.01611 36.52025,-31.79459 37.63613,-32.04724 0.73826,-0.16716 16.3088,12.69962 37.9059,31.3237 0.34223,0.29511 0.4498,0.70899 0.23906,0.91974 -0.21074,0.21074 -8.83023,-6.84682 -19.15442,-15.68346 l -18.77126,-16.06661 -18.13447,15.55785 c -18.43887,15.81902 -20.174,17.22641 -19.72094,15.99602 z m 177.25314,0.29424 c 0,-0.52803 49.33121,-31.9166 50.74013,-32.28504 0.80084,-0.20942 9.77816,5.13228 26.07395,15.51458 27.84514,17.74057 25.52215,16.19746 25.06773,16.65188 -0.18723,0.18723 -11.65981,-6.87428 -25.49462,-15.69224 l -25.15422,-16.03265 -24.68362,15.73893 c -23.93712,15.26293 -26.54935,16.84748 -26.54935,16.10454 z M 269.28063,179.18237 c -1.80951,-1.26744 -2.1061,-4.9622 -0.39834,-4.9622 0.84717,0 0.99649,0.43422 0.68496,1.99188 -0.34389,1.71946 -0.17174,2.04878 1.25866,2.40778 0.94217,0.23648 2.08471,0.0609 2.64837,-0.40685 0.99921,-0.82927 1.34802,-4.9543 0.58669,-6.93829 -0.51068,-1.3308 -2.50756,-1.36522 -3.58925,-0.0619 -1.35556,1.63335 -2.00609,0.4844 -2.00609,-3.54312 v -3.8051 h 3.99259 c 3.86817,0 3.95459,0.038 2.77326,1.21934 -0.67064,0.67063 -2.1673,1.24628 -3.32593,1.27923 -1.8187,0.0517 -2.10659,0.30105 -2.10659,1.82457 0,1.61454 0.19297,1.74216 2.26802,1.4999 5.36694,-0.62656 7.24897,7.02432 2.35097,9.55718 -2.39199,1.23694 -3.29788,1.22592 -5.13732,-0.0625 z m 119.42299,0.37674 c -3.70377,-1.49465 -4.76423,-7.37162 -2.05547,-11.39116 2.94126,-4.36454 8.66962,-6.61914 11.79511,-4.64238 0.62212,0.39347 1.29468,0.35521 1.84945,-0.1052 1.39043,-1.15396 1.62322,-0.25516 0.79045,3.05204 -0.87654,3.48106 -1.95087,4.08487 -1.95087,1.09646 0,-2.49702 -2.40226,-4.27446 -4.92222,-3.64199 -4.05307,1.01726 -7.84674,8.18397 -6.37761,12.04808 0.87627,2.30477 1.72843,2.88845 4.23639,2.90167 1.40304,0.007 2.64277,-0.73219 4.5,-2.68454 2.78881,-2.93164 3.19219,-2.9087 1.42606,0.0811 -1.86826,3.16271 -5.98704,4.61934 -9.29129,3.28591 z m 372.65395,0.0205 c -2.78569,-1.1721 -2.64814,-4.23017 0.31069,-6.90788 1.03776,-0.93916 1.25074,-1.7624 0.97937,-3.78561 -0.46928,-3.49879 0.2088,-5.82192 1.85152,-6.3433 3.08788,-0.98005 4.36142,2.81453 1.96646,5.85923 -1.69472,2.15449 -1.68184,2.32904 0.39793,5.38969 l 1.73126,2.54778 1.60207,-2.35766 c 1.70757,-2.51292 2.0181,-3.76173 0.9354,-3.76173 -0.36666,0 -0.66666,-0.3 -0.66666,-0.66667 0,-0.36667 1.2,-0.66667 2.66666,-0.66667 2.73116,0 3.62972,0.92598 1.45134,1.49564 -0.66842,0.1748 -2.04104,1.7268 -3.05025,3.44889 -1.46593,2.50141 -1.67434,3.32458 -1.03638,4.09327 1.16954,1.40922 2.99074,1.17522 4.18568,-0.5378 0.57549,-0.825 1.06208,-1.125 1.08131,-0.66666 0.0193,0.45833 -0.59103,1.45933 -1.35614,2.22444 -1.06412,1.06412 -1.80844,1.27278 -3.16666,0.88768 -2.10498,-0.59681 -3.73014,-0.61084 -6.44223,-0.0556 -1.1,0.2252 -2.64862,0.13654 -3.44137,-0.19702 z m 5.00797,-1.28352 c 0.71159,-0.45094 0.48793,-1.13904 -1.06864,-3.28782 -2.14269,-2.95791 -3.49796,-2.74668 -3.49796,0.54519 0,2.82976 2.27399,4.19547 4.5666,2.74262 z m 0.10007,-12.82426 c 0,-1.22067 -0.34736,-1.91837 -0.95508,-1.91837 -1.19215,0 -1.94374,2.21833 -1.36712,4.0351 0.62088,1.95621 2.3222,0.40543 2.3222,-2.11673 z m -486.20832,13.65112 c -0.94367,-0.94368 -0.40968,-2.23612 0.92389,-2.23612 0.93197,0 1.312,0.36204 1.16666,1.11142 -0.23796,1.22699 -1.376,1.83924 -2.09055,1.1247 z m 297.05704,-1.07276 c 1.01678,-0.82318 3.71678,-4.61725 6,-8.43126 2.2832,-3.81402 4.45128,-6.96402 4.81795,-7 0.37064,-0.0364 0.99118,3.27293 1.39749,7.45278 0.5894,6.06338 0.97642,7.7041 2,8.4788 1.15751,0.87607 0.96123,0.96245 -2.23082,0.98179 -1.925,0.0117 -3.5,-0.2788 -3.5,-0.64547 0,-0.36666 0.45,-0.66666 1,-0.66666 0.66666,0 1,-0.66667 1,-2 0,-1.91816 -0.11964,-2 -2.92333,-2 -2.44001,0 -3.11824,0.29747 -4.10224,1.79925 -0.80549,1.22933 -0.93536,1.88044 -0.41001,2.05555 1.78938,0.59646 0.55536,1.47828 -2.06442,1.47522 l -2.83334,-0.003 1.84872,-1.49669 z m 9.81795,-8.16336 c 0,-1.65 -0.225,-2.99768 -0.5,-2.99486 -0.47825,0.005 -3.5,4.86297 -3.5,5.62694 0,0.20236 0.9,0.36792 2,0.36792 1.92593,0 2,-0.11111 2,-3 z m 133.99999,9.31684 c 0,-0.19241 0.75,-0.63499 1.66667,-0.9835 1.60821,-0.61144 1.66667,-0.84514 1.66667,-6.66287 v -6.0292 l -1.66667,0.41831 c -0.93868,0.23559 -1.66667,0.12948 -1.66667,-0.24292 0,-0.36367 0.675,-0.80762 1.5,-0.98654 0.825,-0.17893 2.025,-0.546 2.66667,-0.81571 1.07052,-0.44998 1.16667,0.11984 1.16667,6.91427 0,6.96021 0.08,7.40466 1.33333,7.40466 0.73333,0 1.33333,0.3 1.33333,0.66666 0,0.37038 -1.77778,0.66667 -4,0.66667 -2.2,0 -4,-0.15743 -4,-0.34983 z m -339.33332,-4.31684 v -2.66666 h -6 c -3.55555,0 -6,-0.27161 -6,-0.66667 0,-0.4 2.66667,-0.66667 6.66667,-0.66667 h 6.66667 v 3.33334 c 0,1.83333 -0.3,3.33333 -0.66667,3.33333 -0.36667,0 -0.66667,-1.2 -0.66667,-2.66667 z m 190.66666,0 v -2.66666 h -6 c -3.55555,0 -6,-0.27161 -6,-0.66667 0,-0.4 2.66667,-0.66667 6.66667,-0.66667 h 6.66667 v 3.33334 c 0,1.83333 -0.3,3.33333 -0.66667,3.33333 -0.36667,0 -0.66667,-1.2 -0.66667,-2.66667 z m 180,0 v -2.66666 h -6 c -3.55556,0 -6,-0.27161 -6,-0.66667 0,-0.4 2.66666,-0.66667 6.66666,-0.66667 h 6.66667 v 3.33334 c 0,1.83333 -0.3,3.33333 -0.66667,3.33333 -0.36666,0 -0.66666,-1.2 -0.66666,-2.66667 z M 386.16562,154.31841 c 0.81061,-0.72754 93.23916,-32.1612 94.7985,-32.23966 0.87122,-0.0439 89.07593,29.6276 94.83483,31.90176 0.57303,0.22628 0.69389,0.51123 0.28306,0.66736 -0.39432,0.14986 -21.93439,-6.95953 -47.86682,-15.79864 l -47.14989,-16.07112 -47.13317,16.0586 c -25.92324,8.83224 -47.41818,16.0567 -47.76651,16.05436 -0.4,-0.003 -0.4,-0.21366 0,-0.57266 z M 269.79896,113.5535 c 0,-0.36667 0.45,-0.66667 1,-0.66667 0.55556,0 1,-0.59259 1,-1.33333 0,-1.1358 -0.44444,-1.33333 -3,-1.33333 -1.65,0 -3,-0.30249 -3,-0.67219 0,-0.92067 6.87722,-11.294099 7.5,-11.312799 0.275,-0.008 0.5,2.394649 0.5,5.339799 0,4.93005 0.11899,5.40265 1.5,5.95775 1.08681,0.43684 1.18947,0.61456 0.37268,0.64518 -1.91269,0.0717 -2.15153,1.49158 -0.46856,2.78558 l 1.59588,1.22703 -3.5,0.0148 c -1.925,0.008 -3.5,-0.28515 -3.5,-0.65182 z m 2,-7.66667 c 0,-2.01666 -0.10516,-3.66666 -0.23368,-3.66666 -0.27133,0 -4.43299,6.61314 -4.43299,7.0443 0,0.15896 1.05,0.28903 2.33334,0.28903 h 2.33333 z m 7.79167,7.90278 c -0.94368,-0.94368 -0.40969,-2.23611 0.92388,-2.23611 0.93197,0 1.312,0.36203 1.16667,1.11142 -0.23797,1.22699 -1.37601,1.83924 -2.09055,1.12469 z m 200.50018,-0.169 c 0.24942,-0.40358 0.87423,-0.73378 1.38845,-0.73378 0.52005,0 1.22431,-1.10945 1.58696,-2.5 1.63681,-6.2761 2.73273,-10.726089 2.73273,-11.096219 0,-0.22208 -0.45,-0.40378 -1,-0.40378 -0.55,0 -1,-0.3 -1,-0.66666 0,-0.96724 9.34491,-0.80898 11.33333,0.19194 2.54065,1.27889 2.56603,4.016319 0.0545,5.873219 -1.96745,1.4546 -1.98739,1.52294 -0.7062,2.42032 1.81973,1.27459 1.64959,3.63742 -0.40072,5.56498 -1.52419,1.43292 -2.44057,1.64272 -8.08082,1.84998 -4.51063,0.16575 -6.22973,0.0203 -5.90818,-0.5 z m 11.74853,-2.1075 c 0.86866,-0.86866 1.29759,-2.0329 1.16666,-3.16666 -0.18794,-1.62744 -0.49559,-1.81155 -3.33276,-1.99447 -3.10604,-0.20025 -3.13013,-0.18558 -3.82961,2.33333 -1.09549,3.94498 -0.9761,4.20152 1.95532,4.20152 1.80391,0 3.11111,-0.44444 4.04039,-1.37372 z m 1.49116,-7.81457 c 0.70444,-0.63227 1.11654,-1.77663 1,-2.77692 -0.16935,-1.453689 -0.57506,-1.732349 -2.78607,-1.913599 -3.16325,-0.25932 -3.55249,0.098 -4.14476,3.805109 l -0.46753,2.9263 2.60007,-0.4827 c 1.43004,-0.2655 3.13927,-0.96668 3.79829,-1.55819 z m -16.86488,5.85496 v -2.66667 h -6 c -3.55556,0 -6,-0.2716 -6,-0.66666 0,-0.4 2.66666,-0.66667 6.66666,-0.66667 h 6.66667 v 3.33333 c 0,1.83334 -0.3,3.33334 -0.66667,3.33334 -0.36666,0 -0.66666,-1.2 -0.66666,-2.66667 z M 268.10199,84.583803 c -1.89257,-1.892567 -2.06544,-2.907493 -0.59155,-3.47308 1.50468,-0.5774 2.71053,0.797667 1.73272,1.975867 -0.93547,1.127166 -0.3621,1.800246 1.53358,1.800246 1.99155,0 3.02222,-1.250446 3.02222,-3.666666 0,-2.38846 -1.02159,-3.658087 -2.96667,-3.68694 -1.3577,-0.02013 -1.35792,-0.02507 -0.0333,-0.749547 2.90874,-1.59096 3.70839,-3.759893 2.01173,-5.456547 -1.54228,-1.54228 -3.54128,-0.69024 -3.15247,1.343687 0.2577,1.348033 0.0829,1.63568 -0.88029,1.448973 -1.77082,-0.343253 -1.91371,-1.631546 -0.35397,-3.191293 1.49213,-1.492127 4.04112,-1.779 6.0855,-0.68488 1.6065,0.85978 1.72223,4.115247 0.2004,5.63708 -1.0077,1.0077 -0.98278,1.16358 0.33333,2.08542 2.10929,1.477407 1.93372,5.088433 -0.33413,6.872327 -2.33017,1.832913 -4.60727,1.745153 -6.60707,-0.254647 z m 194.73411,-5.38494 c -1.72373,-3.86172 -2.99826,-7.38672 -2.83228,-7.833333 0.29909,-0.804834 5.79513,10.311246 5.79513,11.72102 0,1.399366 1.10045,-0.516474 3.6679,-6.385667 1.40811,-3.21894 2.80761,-5.605207 3.10999,-5.30282 0.55039,0.550387 -5.41122,14.819393 -6.19229,14.821167 -0.22793,5.2e-4 -1.82473,-3.158647 -3.54845,-7.020367 z m 47.29526,4.07988 c -0.97299,-1.660287 -1.57812,-3.327673 -1.34473,-3.705307 0.76576,-1.239026 2.11641,-0.72 2.96331,1.138727 l 0.83167,1.825327 1.61961,-3.407694 c 1.72399,-3.627313 7.80864,-10.24296 9.42082,-10.24296 0.53127,0 -0.43089,1.357574 -2.13814,3.01682 -1.92745,1.873274 -3.86419,4.71622 -5.10934,7.5 -3.57104,7.983827 -3.76482,8.104113 -6.2432,3.875087 z M 279.59063,85.12295 c -0.94368,-0.94368 -0.40969,-2.236114 0.92388,-2.236114 0.93197,0 1.312,0.362034 1.16667,1.11142 -0.23797,1.226987 -1.37601,1.83924 -2.09055,1.124694 z m 157.7237,-1.07276 c 1.01679,-0.82318 3.71679,-4.617247 6,-8.43126 2.28321,-3.81402 4.45129,-6.96402 4.81796,-7 0.37064,-0.0364 0.99118,3.272933 1.39748,7.452786 0.58941,6.06338 0.97642,7.704094 2,8.4788 1.15752,0.876067 0.96124,0.962447 -2.23082,0.981787 -1.925,0.01166 -3.5,-0.2788 -3.5,-0.645467 0,-0.366666 0.45,-0.666666 1,-0.666666 0.66667,0 1,-0.666667 1,-2 0,-1.918154 -0.11963,-2 -2.92332,-2 -2.44001,0 -3.11824,0.297473 -4.10224,1.799253 -0.80549,1.229327 -0.93536,1.88044 -0.41001,2.055553 1.78938,0.59646 0.55536,1.47828 -2.06443,1.475214 l -2.83333,-0.0033 1.84871,-1.496693 z m 9.81796,-8.163354 c 0,-1.65 -0.225,-2.997686 -0.5,-2.994866 -0.47826,0.0047 -3.5,4.862973 -3.5,5.626946 0,0.202354 0.9,0.36792 2,0.36792 1.92592,0 2,-0.111113 2,-3 z m 32.95852,9.067107 c 0.24942,-0.403573 0.87423,-0.733773 1.38845,-0.733773 0.52005,0 1.22431,-1.109454 1.58696,-2.5 1.63681,-6.2761 2.73273,-10.726094 2.73273,-11.096227 0,-0.22208 -0.45,-0.403773 -1,-0.403773 -0.55,0 -1,-0.3 -1,-0.666667 0,-0.96724 9.34491,-0.80898 11.33333,0.19194 2.54065,1.278893 2.56603,4.016327 0.0545,5.87322 -1.96745,1.4546 -1.98739,1.52294 -0.7062,2.42032 1.81973,1.274593 1.64959,3.637427 -0.40072,5.56498 -1.52419,1.432927 -2.44057,1.64272 -8.08082,1.84998 -4.51063,0.165753 -6.22973,0.02027 -5.90818,-0.5 z m 11.74853,-2.107493 c 0.86866,-0.86866 1.29759,-2.032907 1.16666,-3.166667 -0.18794,-1.627433 -0.49559,-1.811547 -3.33276,-1.994467 -3.10604,-0.200253 -3.13013,-0.18558 -3.82961,2.333334 -1.09549,3.944973 -0.9761,4.20152 1.95532,4.20152 1.80391,0 3.11111,-0.444447 4.04039,-1.37372 z m 1.49116,-7.814574 c 0.70444,-0.632273 1.11654,-1.776633 1,-2.77692 -0.16935,-1.453686 -0.57506,-1.732346 -2.78607,-1.9136 -3.16325,-0.25932 -3.55249,0.09801 -4.14476,3.805114 l -0.46753,2.9263 2.60007,-0.482707 c 1.43004,-0.265493 3.13927,-0.966673 3.79829,-1.558187 z m -4.62688,-17.47276 c -3.70377,-1.494655 -4.76424,-7.371625 -2.05547,-11.391159 2.94126,-4.36454 8.66962,-6.619138 11.79511,-4.64238 0.62212,0.393467 1.29468,0.355207 1.84944,-0.105209 1.39044,-1.153959 1.62322,-0.255156 0.79046,3.052043 -0.87654,3.48106 -1.95088,4.084874 -1.95088,1.096461 0,-2.497013 -2.40225,-4.274458 -4.92222,-3.641987 -4.05306,1.017257 -7.84674,8.183964 -6.3776,12.04808 0.87627,2.304771 1.72842,2.888442 4.23638,2.901663 1.40304,0.0074 2.64278,-0.732185 4.5,-2.684529 2.78882,-2.931652 3.1922,-2.90871 1.42607,0.0811 -1.86826,3.162714 -5.98705,4.619342 -9.29129,3.285913 z m 24.76108,-2.280371 c -0.973,-1.660288 -1.57812,-3.327676 -1.34474,-3.705306 0.76576,-1.239027 2.11642,-0.720005 2.96331,1.138724 l 0.83167,1.825325 1.61962,-3.407694 c 1.72398,-3.627314 7.80863,-10.242957 9.42081,-10.242957 0.53127,0 -0.43089,1.357571 -2.13813,3.016823 -1.92746,1.873267 -3.8642,4.716215 -5.10934,7.5 -3.57104,7.983825 -3.76483,8.104107 -6.2432,3.875085 z m -246.33241,1.646886 c 0,-0.34533 1.5,-2.342007 3.33334,-4.43706 2.48567,-2.840512 3.33333,-4.342268 3.33333,-5.90546 0,-2.470195 -1.0263,-3.696274 -3.09399,-3.696274 -1.86441,0 -2.60153,1.093639 -1.57268,2.333333 0.90601,1.09167 0.35293,2.333333 -1.03934,2.333333 -0.61884,0 -0.96066,-0.698183 -0.96066,-1.962197 0,-3.781536 5.14534,-5.409784 7.88379,-2.494835 2.37715,2.530359 1.87959,4.748808 -1.98049,8.830273 l -3.43004,3.626759 h 2.6615 c 2.10127,0 2.81376,-0.315734 3.38491,-1.5 l 0.72343,-1.5 0.0451,1.445476 c 0.0972,3.114214 -0.52541,3.554524 -5.02621,3.554524 -2.3441,0 -4.26201,-0.282542 -4.26201,-0.627872 z m 12.45834,0.197317 c -0.94368,-0.943677 -0.40969,-2.236111 0.92388,-2.236111 0.93197,0 1.312,0.362033 1.16667,1.111422 -0.23797,1.226986 -1.37601,1.839237 -2.09055,1.124689 z m 153.20832,-0.236111 c 0.22662,-0.366667 0.83276,-0.666667 1.34698,-0.666667 0.52005,0 1.22431,-1.109453 1.58696,-2.5 1.63681,-6.276102 2.73273,-10.726094 2.73273,-11.09623 0,-0.222073 -0.45,-0.40377 -1,-0.40377 -0.55,0 -1,-0.330784 -1,-0.735077 0,-0.496317 1.83466,-0.658722 5.6484,-0.5 6.43678,0.267888 8.13613,1.292939 8.74489,5.274931 0.46199,3.02191 -1.96178,7.774436 -4.99188,9.788099 -1.90184,1.263869 -3.16486,1.50538 -7.87268,1.50538 -3.56852,0 -5.4576,-0.242405 -5.1954,-0.666666 z m 11.99088,-2.111934 c 3.52262,-2.770893 4.88124,-9.257171 2.40785,-11.49555 -0.8486,-0.767976 -2.10357,-1.077748 -3.79465,-0.936658 -2.52396,0.210579 -2.52796,0.215712 -3.65581,4.699812 -0.621,2.468952 -1.32699,5.543952 -1.56889,6.833333 l -0.4398,2.34433 h 2.60698 c 1.6648,0 3.27099,-0.522321 4.44432,-1.445267 z m 15.00912,1.445267 c 0,-0.407589 3.12423,-0.666667 8.03935,-0.666667 5.1898,0 7.8933,0.2363 7.62732,0.666667 -0.23584,0.381589 -3.67359,0.666667 -8.03935,0.666667 -4.64043,0 -7.62732,-0.261069 -7.62732,-0.666667 z m 0,-4.666667 c 0,-0.407407 3.11111,-0.666666 8,-0.666666 4.88889,0 8,0.259259 8,0.666666 0,0.407408 -3.11111,0.666667 -8,0.666667 -4.88889,0 -8,-0.259259 -8,-0.666667 z m 0,-4.666666 c 0,-0.407407 3.11111,-0.666667 8,-0.666667 4.88889,0 8,0.25926 8,0.666667 0,0.407407 -3.11111,0.666666 -8,0.666666 -4.88889,0 -8,-0.259259 -8,-0.666666 z M 440.15511,33.181796 c -4.12132,-4.446974 -4.57716,-13.582977 -0.96215,-19.283259 2.4589,-3.87729 3.87742,-3.9477419 1.61077,-0.08 -3.08167,5.258481 -3.05308,13.512944 0.0627,18.10431 2.04718,3.016696 1.61939,3.773834 -0.71132,1.258949 z m 66.97717,1.41128 c 0,-0.275226 0.61392,-1.362587 1.36428,-2.416357 2.17374,-3.052739 3.06071,-8.575314 2.10769,-13.123215 -0.44181,-2.108333 -1.40373,-4.646185 -2.13763,-5.639671 -1.57066,-2.126254 -1.66618,-2.612487 -0.41919,-2.133975 0.50333,0.193146 1.70333,1.799329 2.66667,3.569296 3.20692,5.892187 2.15528,15.055833 -2.17754,18.974342 -0.77236,0.698495 -1.40428,1.044806 -1.40428,0.76958 z M 448.70362,28.89245 c -3.70377,-1.494655 -4.76423,-7.371625 -2.05547,-11.391159 2.94126,-4.36454 8.66962,-6.619138 11.79511,-4.64238 0.62212,0.393466 1.29468,0.355206 1.84944,-0.105209 1.39044,-1.153959 1.62322,-0.255157 0.79046,3.052043 -0.87654,3.48106 -1.95088,4.084874 -1.95088,1.096461 0,-2.497013 -2.40225,-4.274458 -4.92222,-3.641987 -4.05306,1.017256 -7.84673,8.183964 -6.3776,12.04808 0.87627,2.304771 1.72843,2.888442 4.23639,2.901663 1.40303,0.0074 2.64277,-0.732185 4.49999,-2.684529 2.78882,-2.931652 3.1922,-2.90871 1.42607,0.0811 -1.86826,3.162713 -5.98704,4.619342 -9.29129,3.285913 z m 19.98729,0.02053 c -2.78569,-1.172097 -2.64814,-4.230167 0.31069,-6.907879 1.03776,-0.93916 1.25074,-1.7624 0.97938,-3.785606 -0.46929,-3.498796 0.2088,-5.821924 1.85151,-6.343302 3.08789,-0.980057 4.36142,2.81453 1.96646,5.859226 -1.69472,2.15449 -1.68183,2.329041 0.39793,5.38969 l 1.73126,2.547784 1.60208,-2.357658 c 1.70756,-2.512911 2.0181,-3.761727 0.9354,-3.761727 -0.36667,0 -0.66667,-0.3 -0.66667,-0.666667 0,-0.366666 1.2,-0.666666 2.66667,-0.666666 2.73116,0 3.62972,0.925981 1.45134,1.495639 -0.66843,0.174797 -2.04104,1.726798 -3.05026,3.44889 -1.46592,2.501411 -1.67434,3.324576 -1.03638,4.093273 1.16954,1.409211 2.99074,1.175212 4.18568,-0.537803 0.57549,-0.824999 1.06208,-1.124999 1.08132,-0.666666 0.0193,0.458333 -0.59104,1.45933 -1.35614,2.224438 -1.06413,1.064131 -1.80845,1.272779 -3.16667,0.887689 -2.10498,-0.596817 -3.73013,-0.610849 -6.44223,-0.05563 -1.1,0.225194 -2.64862,0.136532 -3.44137,-0.197026 z m 5.00797,-1.283521 c 0.71159,-0.450941 0.48794,-1.139037 -1.06864,-3.287822 -2.14268,-2.957896 -3.49796,-2.74666 -3.49796,0.545204 0,2.829757 2.27399,4.195473 4.5666,2.742621 z m 0.10007,-12.824248 c 0,-1.220668 -0.34735,-1.91837 -0.95507,-1.91837 -1.19216,0 -1.94374,2.21833 -1.36712,4.0351 0.62088,1.956213 2.32219,0.405428 2.32219,-2.11673 z m 52.99908,11.806871 c -0.97299,-1.660287 -1.57812,-3.327675 -1.34473,-3.705305 0.76576,-1.239027 2.11641,-0.720005 2.9633,1.138724 l 0.83168,1.825325 1.61961,-3.407694 c 1.72399,-3.627318 7.80863,-10.242961 9.42081,-10.242961 0.53127,0 -0.43089,1.35757 -2.13813,3.016823 -1.92745,1.873267 -3.86419,4.716215 -5.10934,7.5 -3.57104,7.983824 -3.76483,8.104107 -6.2432,3.875084 z m -259.66574,1.924921 c 0,-0.192409 0.75,-0.634983 1.66667,-0.983499 1.60821,-0.61144 1.66667,-0.845141 1.66667,-6.662867 v -6.029202 l -1.66667,0.418306 c -0.93868,0.235595 -1.66667,0.129492 -1.66667,-0.242914 0,-0.363671 0.675,-0.807614 1.5,-0.986541 0.825,-0.178926 2.025,-0.545996 2.66667,-0.815711 1.07052,-0.449976 1.16667,0.119842 1.16667,6.91427 0,6.960214 0.08,7.404659 1.33333,7.404659 0.73333,0 1.33333,0.3 1.33333,0.666666 0,0.370371 -1.77777,0.666667 -4,0.666667 -2.2,0 -4,-0.157425 -4,-0.349834 z m 12.45834,-0.08072 c -0.94368,-0.943679 -0.40969,-2.236112 0.92388,-2.236112 0.93197,0 1.312,0.362033 1.16667,1.111422 -0.23797,1.226986 -1.37601,1.839237 -2.09055,1.12469 z m 211.05703,-1.072757 c 1.01679,-0.823179 3.71679,-4.617247 6,-8.431264 2.28321,-3.814016 4.45129,-6.964016 4.81796,-7 0.37064,-0.03637 0.99118,3.272936 1.39748,7.452789 0.58941,6.063377 0.97642,7.704095 2,8.478798 1.15752,0.876067 0.96124,0.962449 -2.23082,0.981786 -1.925,0.01166 -3.5,-0.278798 -3.5,-0.645465 0,-0.366666 0.45,-0.666666 1,-0.666666 0.66667,0 1,-0.666667 1,-2 0,-1.918155 -0.11963,-2 -2.92332,-2 -2.44001,0 -3.11824,0.297476 -4.10224,1.799253 -0.80549,1.229327 -0.93536,1.880437 -0.41001,2.055555 1.78938,0.59646 0.55536,1.478276 -2.06443,1.475214 l -2.83333,-0.0033 1.84871,-1.496688 z m 9.81796,-8.163355 c 0,-1.65 -0.225,-2.99769 -0.5,-2.994866 -0.47826,0.0049 -3.5,4.86297 -3.5,5.626944 0,0.202357 0.9,0.367922 2,0.367922 1.92592,0 2,-0.111112 2,-3 z m -68.66667,5 v -2.666667 h -6 c -3.55555,0 -6,-0.271605 -6,-0.666667 0,-0.4 2.66667,-0.666666 6.66667,-0.666666 h 6.66667 v 3.333333 c 0,1.833333 -0.3,3.333333 -0.66667,3.333333 -0.36667,0 -0.66667,-1.2 -0.66667,-2.666666 z"
       id="path1032" />
  </g>
</svg>
