<?xml version="1.0" encoding="UTF-8" standalone="no"?>
<svg
   xmlns:dc="http://purl.org/dc/elements/1.1/"
   xmlns:cc="http://creativecommons.org/ns#"
   xmlns:rdf="http://www.w3.org/1999/02/22-rdf-syntax-ns#"
   xmlns:svg="http://www.w3.org/2000/svg"
   xmlns="http://www.w3.org/2000/svg"
   xmlns:sodipodi="http://sodipodi.sourceforge.net/DTD/sodipodi-0.dtd"
   xmlns:inkscape="http://www.inkscape.org/namespaces/inkscape"
   version="1.1"
   id="svg1170"
   width="384.67017"
   height="360.59961"
   viewBox="0 0 384.67017 360.59961"
   sodipodi:docname="5-7-example-2.svg"
   inkscape:version="1.0.1 (c497b03c, 2020-09-10)">
  <metadata
     id="metadata1176">
    <rdf:RDF>
      <cc:Work
         rdf:about="">
        <dc:format>image/svg+xml</dc:format>
        <dc:type
           rdf:resource="http://purl.org/dc/dcmitype/StillImage" />
        <dc:title></dc:title>
      </cc:Work>
    </rdf:RDF>
  </metadata>
  <defs
     id="defs1174" />
  <sodipodi:namedview
     pagecolor="#ffffff"
     bordercolor="#666666"
     borderopacity="1"
     objecttolerance="10"
     gridtolerance="10"
     guidetolerance="10"
     inkscape:pageopacity="0"
     inkscape:pageshadow="2"
     inkscape:window-width="740"
     inkscape:window-height="480"
     id="namedview1172"
     showgrid="false"
     fit-margin-top="0"
     fit-margin-left="0"
     fit-margin-right="0"
     fit-margin-bottom="0"
     inkscape:pagecheckerboard="true"
     inkscape:zoom="0.55882163"
     inkscape:cx="168.41093"
     inkscape:cy="180.88293"
     inkscape:window-x="0"
     inkscape:window-y="25"
     inkscape:window-maximized="0"
     inkscape:current-layer="g1178" />
  <g
     inkscape:groupmode="layer"
     inkscape:label="Image"
     id="g1178"
     transform="translate(-30,-14.067039)">
    <path
       style="fill:#1c1c1c;stroke-width:0.666667"
       d="m 171.33333,366.25665 v -8.41 l -1.7062,1.11794 c -0.9384,0.61487 -2.2134,1.00928 -2.83333,0.87647 -0.84091,-0.18015 -0.59284,-0.52534 0.97689,-1.35933 1.15722,-0.61482 2.50546,-2.02473 2.99608,-3.13313 1.09057,-2.46378 1.62416,-2.53799 2.18489,-0.30387 0.23625,0.94128 1.31687,2.21628 2.40139,2.83334 1.08452,0.61706 1.97375,1.34692 1.97607,1.62192 0.007,0.83496 -1.61164,0.56127 -3.18078,-0.5378 l -1.48167,-1.0378 v 8.37114 c 0,5.13631 -0.25762,8.37113 -0.66667,8.37113 -0.40921,0 -0.66667,-3.24778 -0.66667,-8.41001 z m -66,3.27145 c 0,-0.25954 1.11089,-1.60954 2.46864,-3 l 2.46863,-2.52811 -2.59199,-2.65442 c -3.38164,-3.46313 -2.46283,-4.38194 1.0003,-1.0003 l 2.65442,2.59199 L 114,360.33333 c 3.16234,-3.08794 3.65189,-1.74664 0.53589,1.46826 l -2.13078,2.1984 2.13078,2.19841 c 3.116,3.21489 2.62645,4.5562 -0.53589,1.46826 l -2.66667,-2.60393 -2.5281,2.46863 c -2.44672,2.38915 -3.4719,2.97875 -3.4719,1.99674 z m -73.0303,-29.16447 c -1.995131,-1.99513 -2.044689,-2.99806 -0.260242,-5.26661 1.270828,-1.6156 1.296333,-1.86337 0.333333,-3.23825 -1.401647,-2.00113 -1.312804,-3.58876 0.290546,-5.19211 1.594639,-1.59464 4.829739,-1.74169 6.285714,-0.28571 1.334497,1.33449 1.346174,3.89192 0.02381,5.21428 -0.920635,0.92064 -0.887043,1.16058 0.333333,2.38096 1.346281,1.34628 1.787872,4.34815 0.846934,5.75734 -0.732097,1.09641 -3.215026,2.26646 -4.8096,2.26646 -0.774105,0 -2.143828,-0.73636 -3.043828,-1.63636 z m 6.337057,-0.66494 c 1.250524,-1.50679 0.564485,-3.17115 -1.900546,-4.61081 -2.195912,-1.28248 -2.280336,-1.28449 -3.164488,-0.0753 -1.122372,1.53493 -1.17272,3.78979 -0.108386,4.85412 1.10461,1.10461 4.200698,1.00409 5.17342,-0.16797 z m -0.77342,-8.4987 c 1.257578,-1.25758 0.942251,-3.74362 -0.578039,-4.55726 -1.071956,-0.57369 -1.738299,-0.50145 -3,0.32525 -2.074311,1.35914 -2.040294,1.94203 0.211372,3.62195 2.171215,1.61991 2.328347,1.64838 3.366667,0.61006 z m 69.038003,10.13895 c -3.70377,-1.49465 -4.76424,-7.37163 -2.05547,-11.39116 2.94126,-4.36454 8.66962,-6.61914 11.79511,-4.64238 0.62212,0.39347 1.29468,0.35521 1.84944,-0.10521 1.39044,-1.15396 1.62322,-0.25516 0.79046,3.05204 -0.90425,3.5911 -1.7784,3.98503 -2.0753,0.93523 -0.14383,-1.47738 -0.73828,-2.44151 -1.9082,-3.09489 -3.35839,-1.8756 -8.17158,2.17075 -9.54922,8.02782 -0.45561,1.93706 0.51842,5.21382 1.79022,6.0225 2.03631,1.29479 4.68926,0.49798 7.22818,-2.17097 2.78882,-2.93165 3.1922,-2.90871 1.42607,0.0811 -1.86826,3.16271 -5.98705,4.61934 -9.29129,3.28591 z m 68.66666,0 c -3.70376,-1.49465 -4.76423,-7.37163 -2.05546,-11.39116 2.94126,-4.36454 8.66962,-6.61914 11.7951,-4.64238 0.62212,0.39347 1.29468,0.35521 1.84945,-0.10521 1.39043,-1.15396 1.62322,-0.25516 0.79045,3.05204 -0.90424,3.5911 -1.77839,3.98503 -2.0753,0.93523 -0.14382,-1.47738 -0.73827,-2.44151 -1.90819,-3.09489 -3.35839,-1.8756 -8.17159,2.17075 -9.54923,8.02782 -0.4556,1.93706 0.51843,5.21382 1.79022,6.0225 2.03632,1.29479 4.68927,0.49798 7.22819,-2.17097 2.78881,-2.93165 3.19219,-2.90871 1.42607,0.0811 -1.86826,3.16271 -5.98705,4.61934 -9.2913,3.28591 z M 44.458333,340.90277 c -0.943676,-0.94368 -0.409688,-2.23611 0.923883,-2.23611 0.931975,0 1.312003,0.36203 1.166667,1.11142 -0.237962,1.22699 -1.376002,1.83924 -2.09055,1.12469 z M 168,336.66666 v -2.66667 h -6 c -3.55555,0 -6,-0.2716 -6,-0.66666 0,-0.4 2.66667,-0.66667 6.66667,-0.66667 h 6.66666 v 3.33333 c 0,1.83334 -0.3,3.33334 -0.66666,3.33334 -0.36667,0 -0.66667,-1.2 -0.66667,-2.66667 z M 33.556243,312.28597 c -0.662713,-1.72701 0.902998,-6.78526 3.114634,-10.06229 l 1.950678,-2.89035 h -3.277651 c -2.418263,0 -3.455819,0.30589 -3.957171,1.16667 -0.61221,1.0511 -0.68153,1.02348 -0.699794,-0.27881 -0.04391,-3.13077 0.441376,-3.41639 5.18701,-3.05295 2.452662,0.18784 4.572978,0.44042 4.711814,0.56129 0.138836,0.12087 -0.734208,1.75731 -1.9401,3.63653 -1.624828,2.53208 -2.294346,4.46675 -2.585762,7.47195 -0.391313,4.03538 -1.625834,5.73552 -2.503658,3.44796 z m 10.235424,-0.0499 c -0.943677,-0.94368 -0.409688,-2.23612 0.923882,-2.23612 0.931975,0 1.312004,0.36204 1.166667,1.11142 -0.237962,1.22699 -1.376001,1.83924 -2.090549,1.1247 z m 58.541663,-0.23612 c 0.22662,-0.36666 0.83276,-0.66666 1.34698,-0.66666 0.52005,0 1.22431,-1.10946 1.58696,-2.5 C 106.90408,302.55723 108,298.10724 108,297.7371 c 0,-0.22208 -0.45,-0.40377 -1,-0.40377 -0.55,0 -1,-0.33079 -1,-0.73508 0,-0.49631 1.83466,-0.65872 5.6484,-0.5 6.43678,0.26789 8.13613,1.29294 8.74489,5.27493 0.46199,3.02192 -1.96178,7.77444 -4.99188,9.7881 -1.90184,1.26387 -3.16486,1.50538 -7.87268,1.50538 -3.56852,0 -5.4576,-0.24241 -5.1954,-0.66667 z m 11.99088,-2.11193 c 3.52262,-2.77089 4.88124,-9.25717 2.40785,-11.49555 -0.84865,-0.76802 -2.10361,-1.07775 -3.79507,-0.93665 l -2.52712,0.2108 -1.52183,6 c -0.837,3.3 -1.52922,6.375 -1.53827,6.83333 -0.0283,1.43669 4.92225,1.00232 6.97444,-0.61193 z m 56.00912,2.11193 c 0.22662,-0.36666 0.83276,-0.66666 1.34698,-0.66666 0.52005,0 1.22431,-1.10946 1.58696,-2.5 C 174.90408,302.55723 176,298.10724 176,297.7371 c 0,-0.22208 -0.45,-0.40377 -1,-0.40377 -0.55,0 -1,-0.33079 -1,-0.73508 0,-0.49631 1.83466,-0.65872 5.6484,-0.5 6.43678,0.26789 8.13613,1.29294 8.74489,5.27493 0.46199,3.02192 -1.96178,7.77444 -4.99188,9.7881 -1.90184,1.26387 -3.16486,1.50538 -7.87268,1.50538 -3.56852,0 -5.4576,-0.24241 -5.1954,-0.66667 z m 11.99088,-2.11193 c 3.52262,-2.77089 4.88124,-9.25717 2.40785,-11.49555 -0.84865,-0.76802 -2.10361,-1.07775 -3.79507,-0.93665 l -2.52712,0.2108 -1.52183,6 c -0.837,3.3 -1.52922,6.375 -1.53827,6.83333 -0.0283,1.43669 4.92225,1.00232 6.97444,-0.61193 z m 177.00912,2.15073 c 0,-0.34533 1.5,-2.34201 3.33334,-4.43706 C 365.15233,304.76122 366,303.25946 366,301.69627 366,299.22608 364.9737,298 362.90601,298 c -1.86442,0 -2.60153,1.09364 -1.57268,2.33333 0.90601,1.09167 0.35293,2.33333 -1.03934,2.33333 -0.61884,0 -0.96066,-0.69818 -0.96066,-1.9622 0,-3.78153 5.14534,-5.40978 7.8838,-2.49483 2.37714,2.53036 1.87958,4.74881 -1.9805,8.83027 l -3.43004,3.62676 h 2.6615 c 2.10127,0 2.81376,-0.31573 3.38492,-1.5 l 0.72342,-1.5 0.0451,1.44547 c 0.0972,3.11422 -0.52541,3.55453 -5.02622,3.55453 -2.3441,0 -4.26201,-0.28254 -4.26201,-0.62787 z m 19.33334,-0.70546 c 0,-0.40759 3.12422,-0.66667 8.03934,-0.66667 5.1898,0 7.8933,0.2363 7.62732,0.66667 -0.23583,0.38158 -3.67358,0.66666 -8.03934,0.66666 -4.64044,0 -7.62732,-0.26106 -7.62732,-0.66666 z M 167.33333,308 v -2.66667 h -6 c -3.55555,0 -6,-0.27161 -6,-0.66667 C 155.33333,304.26666 158,304 162,304 h 6.66667 v 3.33333 c 0,1.83333 -0.3,3.33333 -0.66667,3.33333 -0.36667,0 -0.66667,-1.2 -0.66667,-2.66666 z m 211.33334,-1.33334 c 0,-0.4074 3.11111,-0.66666 8,-0.66666 4.88888,0 8,0.25926 8,0.66666 0,0.40741 -3.11112,0.66667 -8,0.66667 -4.88889,0 -8,-0.25926 -8,-0.66667 z m 0,-4.66666 c 0,-0.40741 3.11111,-0.66667 8,-0.66667 4.88888,0 8,0.25926 8,0.66667 0,0.4074 -3.11112,0.66666 -8,0.66666 -4.88889,0 -8,-0.25926 -8,-0.66666 z M 113.72663,285.16666 c 11.74412,-12.45832 22.57638,-24.03303 25.02162,-26.7366 l 2.92733,-3.23661 6.052,6.23661 C 159.85985,273.93239 172.78813,288 172.14565,288 c -0.36229,0 -4.95039,-4.575 -10.19578,-10.16667 -5.24539,-5.59167 -11.92578,-12.619 -14.8453,-15.61629 l -5.30824,-5.44963 -6.44066,6.78296 c -3.54236,3.73063 -10.14343,10.75796 -14.66904,15.61629 -4.5256,4.85834 -8.54394,8.83334 -8.92964,8.83334 -0.3857,0 0.50064,-1.275 1.96964,-2.83334 z m 111.6067,-9.63856 c 0,-0.25954 1.11089,-1.60954 2.46864,-3 L 230.2706,270 l -2.59199,-2.65443 c -3.38164,-3.46313 -2.46283,-4.38194 1.0003,-1.00029 l 2.65442,2.59198 L 234,266.33333 c 3.16234,-3.08794 3.65189,-1.74663 0.53589,1.46826 L 232.40511,270 l 2.13078,2.1984 c 3.116,3.2149 2.62645,4.5562 -0.53589,1.46826 l -2.66667,-2.60393 -2.5281,2.46863 c -2.44672,2.38915 -3.4719,2.97875 -3.4719,1.99674 z M 33.023098,247.0837 c -1.980331,-1.98033 -2.792571,-6.74216 -1.709703,-10.02329 1.252348,-3.79465 4.58236,-5.82604 7.63208,-4.65575 1.393305,0.53466 1.404048,3.59534 0.01262,3.59534 -0.687209,0 -0.970901,-0.48955 -0.833333,-1.43804 0.479857,-3.30844 -3.692117,-1.14569 -4.519954,2.34314 -0.418954,1.76565 -0.351363,1.85123 0.923278,1.16906 2.946545,-1.57694 6.138581,1.01304 6.138581,4.98078 0,2.283 -0.348617,3.1225 -1.756573,4.23 -2.291094,1.80218 -3.939943,1.74582 -5.886996,-0.20124 z m 4.953446,-1.03988 c 1.548735,-2.89383 0.347529,-7.37716 -1.976544,-7.37716 -1.515203,0 -2.666667,1.87113 -2.666667,4.33334 0,2.4622 1.151464,4.33333 2.666667,4.33333 0.707532,0 1.596977,-0.58028 1.976544,-1.28951 z m 106.928126,1.96179 c -3.70377,-1.49465 -4.76424,-7.37163 -2.05547,-11.39116 2.94126,-4.36454 8.66962,-6.61914 11.79511,-4.64238 0.62212,0.39347 1.29468,0.35521 1.84944,-0.10521 1.39044,-1.15396 1.62322,-0.25516 0.79046,3.05204 -0.90425,3.5911 -1.7784,3.98503 -2.0753,0.93523 -0.14383,-1.47738 -0.73828,-2.44151 -1.9082,-3.09489 -3.35839,-1.8756 -8.17158,2.17075 -9.54922,8.02782 -0.45561,1.93706 0.51842,5.21382 1.79022,6.0225 2.03631,1.29479 4.68926,0.49798 7.22818,-2.17097 2.78882,-2.93165 3.1922,-2.90871 1.42607,0.0811 -1.86826,3.16271 -5.98705,4.61934 -9.29129,3.28591 z m 255.32062,0.0205 c -2.78568,-1.17209 -2.64814,-4.23016 0.3107,-6.90788 1.03776,-0.93916 1.25074,-1.7624 0.97937,-3.7856 -0.46929,-3.4988 0.2088,-5.82192 1.85151,-6.3433 3.08789,-0.98006 4.36142,2.81453 1.96646,5.85922 -1.69472,2.1545 -1.68183,2.32904 0.39794,5.3897 l 1.73126,2.54778 1.60207,-2.35766 c 1.70757,-2.51292 2.0181,-3.76174 0.9354,-3.76174 -0.36667,0 -0.66667,-0.3 -0.66667,-0.66666 0,-0.36667 1.2,-0.66667 2.66667,-0.66667 2.73116,0 3.62972,0.92598 1.45134,1.49564 -0.66843,0.1748 -2.04104,1.7268 -3.05025,3.44889 -1.46593,2.50141 -1.67434,3.32458 -1.03638,4.09327 1.16954,1.40921 2.99074,1.17521 4.18568,-0.5378 0.57548,-0.825 1.06208,-1.125 1.08131,-0.66667 0.0193,0.45834 -0.59103,1.45934 -1.35614,2.22444 -1.06413,1.06413 -1.80845,1.27278 -3.16667,0.88769 -2.10498,-0.59681 -3.73013,-0.61085 -6.44222,-0.0556 -1.1,0.22519 -2.64862,0.13653 -3.44138,-0.19703 z m 5.00798,-1.28352 c 0.71158,-0.45094 0.48793,-1.13903 -1.06864,-3.28782 -2.14269,-2.9579 -3.49796,-2.74667 -3.49796,0.5452 0,2.82976 2.27398,4.19547 4.5666,2.74262 z m 0.10006,-12.82425 c 0,-1.22067 -0.34735,-1.91837 -0.95507,-1.91837 -1.19215,0 -1.94374,2.21832 -1.36712,4.0351 0.62088,1.95621 2.32219,0.40542 2.32219,-2.11673 z m -360.874997,13.6511 c -0.943676,-0.94368 -0.409688,-2.23611 0.923883,-2.23611 0.931975,0 1.312003,0.36203 1.166667,1.11142 -0.237962,1.22699 -1.376002,1.83924 -2.09055,1.12469 z m 188.390377,-1.07276 c 1.01679,-0.82318 3.71679,-4.61724 6,-8.43126 2.28321,-3.81402 4.45129,-6.96402 4.81796,-7 0.37064,-0.0364 0.99118,3.27294 1.39748,7.45279 0.58941,6.06338 0.97642,7.70409 2,8.4788 1.15752,0.87607 0.96124,0.96245 -2.23082,0.98179 -1.925,0.0117 -3.5,-0.2788 -3.5,-0.64547 0,-0.36667 0.45,-0.66667 1,-0.66667 0.66667,0 1,-0.66666 1,-2 0,-1.91815 -0.11963,-2 -2.92332,-2 -2.44001,0 -3.11824,0.29748 -4.10224,1.79926 -0.80549,1.22932 -0.93536,1.88044 -0.41001,2.05555 1.78938,0.59646 0.55536,1.47828 -2.06443,1.47521 l -2.83333,-0.003 1.84871,-1.49669 z m 9.81796,-8.16335 c 0,-1.65 -0.225,-2.99769 -0.5,-2.99487 -0.47826,0.005 -3.5,4.86298 -3.5,5.62695 0,0.20235 0.9,0.36792 2,0.36792 1.92592,0 2,-0.11111 2,-3 z M 360,247.65016 c 0,-0.1924 0.75,-0.63498 1.66667,-0.9835 1.6082,-0.61144 1.66666,-0.84514 1.66666,-6.66286 v -6.0292 l -1.66666,0.4183 C 360.72799,234.6285 360,234.52239 360,234.14999 c 0,-0.36367 0.675,-0.80762 1.5,-0.98655 0.825,-0.17892 2.025,-0.54599 2.66667,-0.8157 1.07052,-0.44998 1.16666,0.11984 1.16666,6.91426 0,6.96022 0.08,7.40466 1.33334,7.40466 0.73333,0 1.33333,0.3 1.33333,0.66667 0,0.37037 -1.77778,0.66667 -4,0.66667 -2.2,0 -4,-0.15743 -4,-0.34984 z m -222,-4.31683 v -2.66667 h -6 c -3.55555,0 -6,-0.2716 -6,-0.66666 0,-0.4 2.66667,-0.66667 6.66667,-0.66667 h 6.66666 v 3.33333 c 0,1.83334 -0.3,3.33334 -0.66666,3.33334 C 138.3,246 138,244.8 138,243.33333 Z m 90,0 v -2.66667 h -6 c -3.55555,0 -6,-0.2716 -6,-0.66666 0,-0.4 2.66667,-0.66667 6.66667,-0.66667 h 6.66666 v 3.33333 c 0,1.83334 -0.3,3.33334 -0.66666,3.33334 C 228.3,246 228,244.8 228,243.33333 Z m 162.66667,0 v -2.66667 h -6 c -3.55556,0 -6,-0.2716 -6,-0.66666 0,-0.4 2.66666,-0.66667 6.66666,-0.66667 H 392 v 3.33333 C 392,244.5 391.7,246 391.33333,246 c -0.36666,0 -0.66666,-1.2 -0.66666,-2.66667 z M 142.08018,222.8025 c 0.13923,-0.39404 10.25209,-7.93918 22.47301,-16.76699 l 22.21984,-16.05057 2.11349,1.48109 c 2.30563,1.61575 42.60583,30.60639 43.05793,30.97447 0.15277,0.12439 0.10966,0.39428 -0.0958,0.59976 -0.20548,0.20548 -10.08048,-6.63608 -21.94445,-15.20344 -11.86397,-8.56738 -21.93596,-15.79709 -22.38221,-16.06603 -0.49906,-0.30077 -9.14652,5.528 -22.46595,15.14305 -24.30165,17.54292 -23.32067,16.86453 -22.97584,15.88866 z M 284,210.19477 c 0,-0.25954 1.11089,-1.60954 2.46863,-3 l 2.46864,-2.52811 -2.59199,-2.65442 c -3.38165,-3.46313 -2.46283,-4.38194 1.00029,-1.0003 L 290,203.60393 292.66667,201 c 3.16234,-3.08794 3.65189,-1.74664 0.53588,1.46826 l -2.13077,2.1984 2.13077,2.19841 c 3.11601,3.21489 2.62646,4.5562 -0.53588,1.46826 L 290,205.7294 l -2.52811,2.46863 C 285.02518,210.58718 284,211.17678 284,210.19477 Z M 32.815004,182.29553 c -1.809507,-1.26743 -2.106102,-4.9622 -0.398337,-4.9622 0.847168,0 0.996487,0.43423 0.684955,1.99189 -0.343891,1.71946 -0.171743,2.04877 1.258657,2.40778 0.942173,0.23647 2.084712,0.0609 2.648378,-0.40686 0.999211,-0.82926 1.348012,-4.9543 0.586684,-6.93828 -0.510678,-1.33081 -2.507558,-1.36523 -3.589249,-0.0619 C 32.650529,175.95934 32,174.81039 32,170.78288 v -3.8051 h 3.992593 c 3.868168,0 3.954593,0.038 2.773256,1.21933 -0.670634,0.67063 -2.167301,1.24629 -3.325926,1.27923 -1.8187,0.0517 -2.10659,0.30106 -2.10659,1.82458 0,1.61454 0.192966,1.74215 2.268021,1.4999 5.366935,-0.62656 7.24897,7.02431 2.350965,9.55717 -2.391987,1.23694 -3.29788,1.22593 -5.137315,-0.0625 z m 327.488026,-0.59857 c -1.89257,-1.89256 -2.06544,-2.90749 -0.59155,-3.47308 1.50468,-0.5774 2.71053,0.79767 1.73271,1.97587 C 360.50873,181.32692 361.0821,182 362.97778,182 364.96933,182 366,180.74955 366,178.33333 c 0,-2.38846 -1.02159,-3.65809 -2.96667,-3.68694 -1.3577,-0.0201 -1.35792,-0.0251 -0.0333,-0.74955 2.90874,-1.59096 3.70839,-3.75989 2.01173,-5.45654 -1.54228,-1.54228 -3.54128,-0.69024 -3.15247,1.34368 0.25769,1.34804 0.0829,1.63568 -0.88029,1.44898 -1.77082,-0.34326 -1.91372,-1.63155 -0.35397,-3.1913 1.49213,-1.49212 4.04111,-1.779 6.08549,-0.68488 1.60651,0.85978 1.72224,4.11525 0.2004,5.63708 -1.0077,1.0077 -0.98278,1.16358 0.33334,2.08542 2.10928,1.47741 1.93372,5.08844 -0.33414,6.87233 -2.33017,1.83291 -4.60726,1.74515 -6.60706,-0.25465 z m 21.41552,-5.35194 c -1.73184,-3.87987 -3.01299,-7.41972 -2.84702,-7.86633 0.2991,-0.80483 5.79514,10.31125 5.79514,11.72102 0,1.50219 1.24228,-0.65335 3.69093,-6.40431 1.41459,-3.32234 2.75129,-5.61985 3.07899,-5.29215 0.55455,0.55455 -4.58786,12.91468 -5.93262,14.25945 -0.40441,0.4044 -1.78525,-1.93662 -3.78542,-6.41768 z M 44.458333,182.23611 C 43.514657,181.29243 44.048645,180 45.382216,180 c 0.931975,0 1.312003,0.36203 1.166667,1.11142 -0.237962,1.22698 -1.376002,1.83924 -2.09055,1.12469 z m 135.057047,-1.07276 c 1.01679,-0.82318 3.71679,-4.61725 6,-8.43126 2.28321,-3.81402 4.45129,-6.96402 4.81795,-7 0.37064,-0.0364 0.99118,3.27293 1.39749,7.45279 0.58941,6.06338 0.97642,7.70409 2,8.4788 1.15751,0.87606 0.96123,0.96244 -2.23082,0.98178 -1.925,0.0117 -3.5,-0.2788 -3.5,-0.64546 0,-0.36667 0.45,-0.66667 1,-0.66667 0.66667,0 1,-0.66667 1,-2 0,-1.91815 -0.11963,-2 -2.92333,-2 -2.44,0 -3.11824,0.29747 -4.10224,1.79925 -0.80548,1.22933 -0.93536,1.88044 -0.41,2.05556 1.78938,0.59646 0.55536,1.47828 -2.06443,1.47521 l -2.83333,-0.003 1.84871,-1.4967 z M 189.33333,173 c 0,-1.65 -0.225,-2.99769 -0.5,-2.99487 -0.47825,0.005 -3.5,4.86297 -3.5,5.62695 0,0.20235 0.9,0.36792 2,0.36792 1.92593,0 2,-0.11112 2,-3 z m 92.29186,9.0671 c 0.24942,-0.40357 0.87423,-0.73377 1.38846,-0.73377 0.52004,0 1.2243,-1.10945 1.58696,-2.5 1.6368,-6.2761 2.73272,-10.72609 2.73272,-11.09623 0,-0.22208 -0.45,-0.40377 -1,-0.40377 -0.55,0 -1,-0.3 -1,-0.66667 0,-0.96724 9.34491,-0.80898 11.33334,0.19194 2.54064,1.2789 2.56602,4.01633 0.0545,5.87322 -1.96745,1.4546 -1.98739,1.52294 -0.7062,2.42032 1.81974,1.2746 1.6496,3.63743 -0.40072,5.56498 -1.52419,1.43293 -2.44056,1.64272 -8.08082,1.84998 -4.51062,0.16576 -6.22972,0.0203 -5.90818,-0.5 z m 11.74853,-2.10749 c 0.86866,-0.86866 1.29759,-2.03291 1.16667,-3.16667 -0.18794,-1.62743 -0.4956,-1.81154 -3.33276,-1.99446 -3.10605,-0.20026 -3.13014,-0.18558 -3.82962,2.33333 -1.09549,3.94497 -0.9761,4.20152 1.95532,4.20152 1.80391,0 3.11112,-0.44445 4.04039,-1.37372 z m 1.49117,-7.81457 c 0.70444,-0.63228 1.11654,-1.77664 1,-2.77692 -0.16936,-1.45369 -0.57507,-1.73235 -2.78608,-1.9136 -3.16325,-0.25932 -3.55248,0.098 -4.14476,3.80511 l -0.46752,2.9263 2.60006,-0.48271 c 1.43004,-0.26549 3.13928,-0.96667 3.7983,-1.55818 z M 187.35714,157.07409 c 0.53691,-0.50925 12.27589,-8.0132 26.08662,-16.67544 l 25.11043,-15.74953 25.54697,16.05506 c 27.34045,17.18218 26.26998,16.48024 25.81953,16.93068 -0.16583,0.16584 -11.54083,-6.78348 -25.27777,-15.44294 -13.73694,-8.65945 -25.42625,-15.75817 -25.97625,-15.77492 -0.55,-0.0167 -12.31828,7.08257 -26.15174,15.77627 C 198.68147,150.88697 187.14219,158 186.87207,158 c -0.27012,0 -0.0518,-0.41666 0.48507,-0.92591 z M 34,116.66666 C 34,116.3 34.45,116 35,116 c 0.555555,0 1,-0.5926 1,-1.33334 0,-1.1358 -0.444445,-1.33333 -3,-1.33333 -1.65,0 -3,-0.30249 -3,-0.67219 0,-0.92067 6.877224,-11.29409 7.5,-11.31279 0.275,-0.008 0.5,2.39465 0.5,5.33979 0,4.89054 0.125795,5.40136 1.450841,5.89152 l 1.45084,0.5367 -1.45084,0.37941 C 37.845691,113.91552 37.43767,116 38.960655,116 c 0.528361,0 1.146066,0.3 1.372678,0.66666 0.253943,0.41089 -0.881966,0.66667 -2.960655,0.66667 -1.854973,0 -3.372678,-0.3 -3.372678,-0.66667 z M 36,109 c 0,-2.01667 -0.105157,-3.66667 -0.233683,-3.66667 -0.271328,0 -4.432984,6.61314 -4.432984,7.0443 0,0.15897 1.05,0.28903 2.333334,0.28903 H 36 Z m 7.791667,7.90278 c -0.943677,-0.94368 -0.409688,-2.23612 0.923882,-2.23612 0.931975,0 1.312004,0.36204 1.166667,1.11142 -0.237962,1.22699 -1.376001,1.83924 -2.090549,1.1247 z M 237.62519,116.73377 C 237.87461,116.3302 238.49942,116 239.01365,116 c 0.52004,0 1.2243,-1.10946 1.58696,-2.5 1.6368,-6.2761 2.73272,-10.7261 2.73272,-11.09623 0,-0.22208 -0.45,-0.40377 -1,-0.40377 -0.55,0 -1,-0.3 -1,-0.66667 0,-0.96724 9.34491,-0.80898 11.33334,0.19194 2.54064,1.27889 2.56602,4.01633 0.0545,5.87322 -1.96745,1.4546 -1.98739,1.52294 -0.7062,2.42032 1.81974,1.27459 1.6496,3.63743 -0.40072,5.56498 -1.52419,1.43293 -2.44056,1.64272 -8.08082,1.84998 -4.51062,0.16575 -6.22972,0.0203 -5.90818,-0.5 z m 11.74853,-2.10749 c 0.86866,-0.86866 1.29759,-2.03291 1.16667,-3.16667 -0.18794,-1.62743 -0.4956,-1.81155 -3.33276,-1.99447 -3.10605,-0.20025 -3.13014,-0.18558 -3.82962,2.33334 -1.09549,3.94497 -0.9761,4.20152 1.95532,4.20152 1.80391,0 3.11112,-0.44445 4.04039,-1.37372 z m 1.49117,-7.81458 c 0.70444,-0.63227 1.11654,-1.77663 1,-2.77692 -0.16936,-1.45368 -0.57507,-1.73234 -2.78608,-1.91359 -3.16325,-0.25932 -3.55248,0.098 -4.14476,3.80511 l -0.46752,2.9263 2.60006,-0.48271 c 1.43004,-0.26549 3.13928,-0.96667 3.7983,-1.55819 z M 234,112.66666 V 110 h -6 c -3.55555,0 -6,-0.27161 -6,-0.66667 0,-0.4 2.66667,-0.66667 6.66667,-0.66667 h 6.66666 V 112 c 0,1.83333 -0.3,3.33333 -0.66666,3.33333 -0.36667,0 -0.66667,-1.2 -0.66667,-2.66667 z M 31.636363,87.696965 c -1.892572,-1.892566 -2.065439,-2.907493 -0.591552,-3.47308 1.50468,-0.5774 2.710534,0.797667 1.732718,1.975867 -0.935468,1.127167 -0.362092,1.800247 1.533582,1.800247 1.991549,0 3.022222,-1.250447 3.022222,-3.666667 0,-2.38846 -1.021594,-3.658087 -2.966666,-3.68694 -1.357707,-0.02013 -1.357925,-0.02507 -0.03333,-0.749547 2.908739,-1.59096 3.708384,-3.759893 2.011728,-5.456546 -1.542279,-1.54228 -3.541278,-0.69024 -3.152468,1.343686 0.257694,1.348034 0.08294,1.63568 -0.880292,1.448974 -1.770818,-0.343254 -1.913712,-1.631547 -0.353968,-3.191294 1.492128,-1.492126 4.041114,-1.779 6.085494,-0.68488 1.606504,0.85978 1.722237,4.115247 0.2004,5.63708 -1.007697,1.0077 -0.982781,1.16358 0.333334,2.08542 2.109284,1.477407 1.933716,5.088434 -0.334134,6.872327 -2.33017,1.832913 -4.607269,1.745153 -6.607064,-0.254647 z m 188.748847,-5.35194 c -1.73183,-3.879873 -3.01298,-7.41972 -2.84701,-7.866333 0.29909,-0.804833 5.79513,10.311247 5.79513,11.72102 0,1.502187 1.24228,-0.653353 3.69094,-6.404307 1.41459,-3.322346 2.75128,-5.619853 3.07898,-5.292153 0.55456,0.554553 -4.58785,12.91468 -5.93262,14.259447 -0.4044,0.404406 -1.78524,-1.936614 -3.78542,-6.417674 z m 47.28054,4.04688 c -0.973,-1.660286 -1.57812,-3.327673 -1.34474,-3.705306 0.76576,-1.239027 2.11642,-0.72 2.96331,1.138726 l 0.83167,1.825327 1.61962,-3.407693 c 1.72398,-3.627314 7.80863,-10.24296 9.42081,-10.24296 0.53127,0 -0.43089,1.357573 -2.13813,3.01682 -1.92746,1.873273 -3.8642,4.71622 -5.10934,7.5 -3.57104,7.983826 -3.76483,8.104113 -6.2432,3.875086 z M 43.791667,88.236112 c -0.943677,-0.94368 -0.409688,-2.236113 0.923882,-2.236113 0.931975,0 1.312004,0.362033 1.166667,1.11142 -0.237962,1.226986 -1.376001,1.83924 -2.090549,1.124693 z m 151.057043,-1.07276 c 1.01679,-0.82318 3.71679,-4.617247 6,-8.43126 2.28321,-3.81402 4.45129,-6.96402 4.81796,-7 0.37064,-0.0364 0.99118,3.272933 1.39748,7.452787 0.58941,6.06338 0.97642,7.704093 2,8.4788 1.15752,0.876066 0.96124,0.962446 -2.23082,0.981786 -1.925,0.01166 -3.5,-0.2788 -3.5,-0.645466 0,-0.366667 0.45,-0.666667 1,-0.666667 0.66667,0 1,-0.666667 1,-2 0,-1.918153 -0.11963,-2 -2.92332,-2 -2.44001,0 -3.11824,0.297473 -4.10224,1.799253 -0.80549,1.229327 -0.93536,1.88044 -0.41001,2.055554 1.78938,0.59646 0.55536,1.47828 -2.06443,1.475213 L 193,88.660019 l 1.84871,-1.496694 z m 9.81796,-8.163353 c 0,-1.65 -0.225,-2.997687 -0.5,-2.994867 -0.47826,0.0047 -3.5,4.862973 -3.5,5.626947 0,0.202353 0.9,0.36792 2,0.36792 1.92592,0 2,-0.111114 2,-3 z m 32.95852,9.067106 c 0.24942,-0.403573 0.87423,-0.733773 1.38846,-0.733773 0.52004,0 1.2243,-1.109453 1.58696,-2.5 1.6368,-6.2761 2.73272,-10.726093 2.73272,-11.096227 0,-0.22208 -0.45,-0.403773 -1,-0.403773 -0.55,0 -1,-0.3 -1,-0.666667 0,-0.967239 9.34491,-0.808979 11.33334,0.19194 2.54064,1.278894 2.56602,4.016327 0.0545,5.87322 -1.96745,1.4546 -1.98739,1.52294 -0.7062,2.42032 1.81974,1.274594 1.6496,3.637427 -0.40072,5.56498 -1.52419,1.432927 -2.44056,1.64272 -8.08082,1.84998 -4.51062,0.165754 -6.22972,0.02027 -5.90818,-0.5 z m 11.74853,-2.107493 c 0.86866,-0.86866 1.29759,-2.032907 1.16667,-3.166667 -0.18794,-1.627433 -0.4956,-1.811546 -3.33276,-1.994466 -3.10605,-0.200254 -3.13014,-0.18558 -3.82962,2.333333 -1.09549,3.944973 -0.9761,4.20152 1.95532,4.20152 1.80391,0 3.11112,-0.444447 4.04039,-1.37372 z m 1.49117,-7.814573 c 0.70444,-0.632274 1.11654,-1.776634 1,-2.77692 -0.16936,-1.453687 -0.57507,-1.732347 -2.78608,-1.9136 -3.16325,-0.25932 -3.55248,0.09801 -4.14476,3.805113 l -0.46752,2.9263 2.60006,-0.482707 c 1.43004,-0.265493 3.13928,-0.966673 3.7983,-1.558186 z M 246.238,60.672278 c -3.70377,-1.494654 -4.76423,-7.371625 -2.05547,-11.391159 2.94126,-4.36454 8.66962,-6.619138 11.79511,-4.64238 0.62212,0.393467 1.29468,0.355207 1.84945,-0.105208 1.39043,-1.15396 1.62322,-0.255157 0.79045,3.052042 -0.90425,3.591099 -1.77839,3.985029 -2.0753,0.935224 -0.14383,-1.477379 -0.73827,-2.441512 -1.90819,-3.094888 -3.3584,-1.875598 -8.17159,2.170748 -9.54923,8.027825 -0.45561,1.93705 0.51843,5.213811 1.79022,6.022488 2.03631,1.2948 4.68927,0.497992 7.22819,-2.170961 2.78881,-2.931651 3.19219,-2.90871 1.42606,0.08111 -1.86826,3.162713 -5.98704,4.619342 -9.29129,3.285912 z m 24.76108,-2.280371 c -0.97299,-1.660287 -1.57812,-3.327675 -1.34473,-3.705306 0.76576,-1.239027 2.11641,-0.720005 2.9633,1.138724 l 0.83168,1.825325 1.61961,-3.407694 c 1.72399,-3.627313 7.80863,-10.242957 9.42081,-10.242957 0.53128,0 -0.43088,1.357571 -2.13813,3.016824 -1.92745,1.873266 -3.86419,4.716214 -5.10934,7.499999 -3.57104,7.983825 -3.76483,8.104108 -6.2432,3.875085 z M 30.666667,60.038793 c 0,-0.345329 1.5,-2.342007 3.333333,-4.437059 2.485669,-2.840513 3.333333,-4.342269 3.333333,-5.905461 0,-2.470194 -1.026297,-3.696274 -3.093988,-3.696274 -1.864415,0 -2.601533,1.09364 -1.572678,2.333334 0.906005,1.091669 0.352926,2.333333 -1.039345,2.333333 -0.618837,0 -0.960655,-0.698183 -0.960655,-1.962197 0,-3.781536 5.145338,-5.409785 7.88379,-2.494836 2.377148,2.530359 1.879584,4.748808 -1.980495,8.830273 l -3.430038,3.62676 h 2.661495 c 2.101277,0 2.813768,-0.315735 3.384918,-1.5 l 0.723422,-1.5 0.04512,1.445475 c 0.09721,3.114214 -0.525402,3.554525 -5.026205,3.554525 -2.344104,0 -4.262007,-0.282543 -4.262007,-0.627873 z m 13.125,0.197317 c -0.943677,-0.943677 -0.409688,-2.236111 0.923882,-2.236111 0.931975,0 1.312004,0.362033 1.166667,1.111423 -0.237962,1.226986 -1.376001,1.839236 -2.090549,1.124688 z M 190.33333,59.999999 c 0.22662,-0.366667 0.83276,-0.666667 1.34698,-0.666667 0.52005,0 1.22431,-1.109452 1.58696,-2.5 C 194.90408,50.557231 196,46.107239 196,45.737103 c 0,-0.222074 -0.45,-0.40377 -1,-0.40377 -0.55,0 -1,-0.330785 -1,-0.735078 0,-0.496316 1.83466,-0.658722 5.6484,-0.5 6.43678,0.267888 8.13613,1.292939 8.74489,5.274931 0.46199,3.02191 -1.96178,7.774436 -4.99188,9.788099 -1.90184,1.263869 -3.16486,1.505381 -7.87268,1.505381 -3.56852,0 -5.4576,-0.242406 -5.1954,-0.666667 z m 11.99088,-2.111933 c 3.52262,-2.770894 4.88124,-9.257171 2.40785,-11.495551 -0.84865,-0.768023 -2.10361,-1.077756 -3.79507,-0.936658 l -2.52712,0.210809 -1.52183,6 c -0.837,3.3 -1.52922,6.375 -1.53827,6.833333 -0.0283,1.436685 4.92225,1.002322 6.97444,-0.611933 z m 15.00912,1.445266 c 0,-0.407588 3.12423,-0.666666 8.03935,-0.666666 5.1898,0 7.8933,0.2363 7.62732,0.666666 -0.23583,0.38159 -3.67359,0.666667 -8.03935,0.666667 -4.64043,0 -7.62732,-0.261069 -7.62732,-0.666667 z m 0,-4.666666 c 0,-0.407408 3.11112,-0.666667 8,-0.666667 4.88889,0 8,0.259259 8,0.666667 0,0.407407 -3.11111,0.666666 -8,0.666666 -4.88888,0 -8,-0.259259 -8,-0.666666 z m 0,-4.666667 c 0,-0.407407 3.11112,-0.666666 8,-0.666666 4.88889,0 8,0.259259 8,0.666666 0,0.407408 -3.11111,0.666667 -8,0.666667 -4.88888,0 -8,-0.259259 -8,-0.666667 z m -19.64384,-13.70504 c -4.12132,-4.446974 -4.57716,-13.582977 -0.96215,-19.283259 2.4589,-3.87729 3.87742,-3.947743 1.61077,-0.08 -3.08167,5.258481 -3.05308,13.512944 0.0627,18.10431 2.04718,3.016696 1.61939,3.773834 -0.71132,1.258951 z m 66.97718,1.411279 c 0,-0.275226 0.61392,-1.362587 1.36427,-2.416357 2.17374,-3.052739 3.06071,-8.575313 2.10769,-13.123215 -0.4418,-2.108333 -1.40373,-4.646185 -2.13762,-5.639671 -1.57066,-2.126253 -1.66618,-2.612487 -0.4192,-2.133975 0.50333,0.193146 1.70333,1.799329 2.66667,3.569296 3.20693,5.892188 2.15529,15.055833 -2.17754,18.974342 -0.77235,0.698495 -1.40427,1.044806 -1.40427,0.76958 z M 206.238,32.005612 c -3.70377,-1.494654 -4.76423,-7.371625 -2.05547,-11.391159 2.94126,-4.36454 8.66962,-6.619138 11.79511,-4.64238 0.62212,0.393467 1.29468,0.355207 1.84945,-0.105209 1.39043,-1.153959 1.62322,-0.255156 0.79045,3.052043 -0.90425,3.591099 -1.77839,3.985029 -2.0753,0.935223 -0.14383,-1.477378 -0.73827,-2.441511 -1.90819,-3.094887 -3.3584,-1.875599 -8.17159,2.170748 -9.54923,8.027825 -0.45561,1.93705 0.51843,5.213811 1.79022,6.022488 2.03631,1.294799 4.68927,0.497992 7.22819,-2.170961 2.78881,-2.931651 3.19219,-2.90871 1.42606,0.08111 -1.86826,3.162713 -5.98704,4.619341 -9.29129,3.285912 z m 19.98729,0.02053 c -2.78568,-1.172098 -2.64814,-4.230168 0.3107,-6.907879 1.03776,-0.93916 1.25074,-1.7624 0.97937,-3.785607 -0.46929,-3.498796 0.2088,-5.821924 1.85151,-6.343301 3.08789,-0.980058 4.36142,2.814529 1.96646,5.859226 -1.69472,2.15449 -1.68183,2.32904 0.39794,5.38969 l 1.73126,2.547783 1.60207,-2.357658 c 1.70757,-2.512911 2.0181,-3.761727 0.9354,-3.761727 -0.36667,0 -0.66667,-0.3 -0.66667,-0.666666 0,-0.366667 1.2,-0.666667 2.66667,-0.666667 2.73116,0 3.62972,0.925981 1.45134,1.495639 -0.66843,0.174798 -2.04104,1.726798 -3.05025,3.44889 -1.46593,2.501411 -1.67434,3.324576 -1.03638,4.093274 1.16954,1.40921 2.99074,1.175211 4.18568,-0.537803 0.57548,-0.825 1.06208,-1.125 1.08131,-0.666667 0.0193,0.458334 -0.59103,1.459331 -1.35614,2.224439 -1.06413,1.06413 -1.80845,1.272778 -3.16667,0.887688 -2.10498,-0.596816 -3.73013,-0.610849 -6.44222,-0.05563 -1.1,0.225193 -2.64862,0.136532 -3.44138,-0.197026 z m 5.00798,-1.283521 c 0.71158,-0.450941 0.48793,-1.139038 -1.06864,-3.287823 -2.14269,-2.957896 -3.49796,-2.74666 -3.49796,0.545205 0,2.829756 2.27398,4.195473 4.5666,2.74262 z m 0.10006,-12.824248 c 0,-1.220668 -0.34735,-1.91837 -0.95507,-1.91837 -1.19215,0 -1.94374,2.21833 -1.36712,4.0351 0.62088,1.956212 2.32219,0.405427 2.32219,-2.11673 z m 52.99908,11.806871 c -0.97299,-1.660287 -1.57812,-3.327675 -1.34473,-3.705306 0.76576,-1.239027 2.11641,-0.720005 2.96331,1.138724 l 0.83167,1.825325 1.61961,-3.407694 c 1.72399,-3.627314 7.80864,-10.242957 9.42082,-10.242957 0.53127,0 -0.43089,1.357571 -2.13814,3.016823 -1.92745,1.873267 -3.86419,4.716215 -5.10934,7.5 -3.57104,7.983825 -3.76482,8.104107 -6.2432,3.875085 z M 30.666667,31.650165 c 0,-0.192408 0.75,-0.634983 1.666666,-0.983499 C 33.941541,30.055227 34,29.821526 34,24.003799 v -6.029202 l -1.666667,0.418307 c -0.938683,0.235594 -1.666666,0.129492 -1.666666,-0.242914 0,-0.363672 0.675,-0.807615 1.5,-0.986542 0.825,-0.178926 2.025,-0.545996 2.666666,-0.81571 C 35.903853,15.897762 36,16.46758 36,23.262007 c 0,6.960215 0.08003,7.404659 1.333333,7.404659 0.733334,0 1.333334,0.3 1.333334,0.666667 0,0.37037 -1.777778,0.666666 -4,0.666666 -2.2,0 -4,-0.157425 -4,-0.349834 z M 43.125,31.569444 c -0.943677,-0.943677 -0.409688,-2.236111 0.923883,-2.236111 0.931974,0 1.312003,0.362033 1.166666,1.111423 -0.237962,1.226985 -1.376001,1.839236 -2.090549,1.124688 z m 205.05705,-1.072756 c 1.01678,-0.823178 3.71678,-4.617247 6,-8.431264 2.2832,-3.814016 4.45128,-6.964016 4.81795,-7 0.37064,-0.03637 0.99118,3.272936 1.39749,7.45279 0.5894,6.063376 0.97642,7.704095 2,8.478797 1.15751,0.876068 0.96123,0.962449 -2.23082,0.981786 -1.925,0.01166 -3.5,-0.278798 -3.5,-0.645464 0,-0.366667 0.45,-0.666667 1,-0.666667 0.66666,0 1,-0.666666 1,-2 0,-1.918154 -0.11964,-2 -2.92333,-2 -2.44001,0 -3.11824,0.297476 -4.10224,1.799253 -0.80549,1.229327 -0.93536,1.880438 -0.41001,2.055555 1.78938,0.596461 0.55536,1.478276 -2.06442,1.475214 l -2.83334,-0.0033 1.84872,-1.496689 z M 258,22.333333 c 0,-1.65 -0.225,-2.997689 -0.5,-2.994865 -0.47825,0.0049 -3.5,4.862969 -3.5,5.626944 0,0.202356 0.9,0.367921 2,0.367921 1.92593,0 2,-0.111111 2,-3 z m -68.66667,5 v -2.666667 h -6 c -3.55555,0 -6,-0.271604 -6,-0.666666 0,-0.4 2.66667,-0.666667 6.66667,-0.666667 h 6.66667 v 3.333333 C 190.66667,28.5 190.36667,30 190,30 c -0.36667,0 -0.66667,-1.2 -0.66667,-2.666667 z"
       id="path1182" />
  </g>
</svg>
