<?xml version="1.0" encoding="UTF-8" standalone="no"?>
<svg
   xmlns:dc="http://purl.org/dc/elements/1.1/"
   xmlns:cc="http://creativecommons.org/ns#"
   xmlns:rdf="http://www.w3.org/1999/02/22-rdf-syntax-ns#"
   xmlns:svg="http://www.w3.org/2000/svg"
   xmlns="http://www.w3.org/2000/svg"
   xmlns:sodipodi="http://sodipodi.sourceforge.net/DTD/sodipodi-0.dtd"
   xmlns:inkscape="http://www.inkscape.org/namespaces/inkscape"
   version="1.1"
   id="svg1098"
   width="138.53055"
   height="113.29966"
   viewBox="0 0 138.53055 113.29966"
   sodipodi:docname="5-7-interpretation-1.svg"
   inkscape:version="1.0.1 (c497b03c, 2020-09-10)">
  <metadata
     id="metadata1104">
    <rdf:RDF>
      <cc:Work
         rdf:about="">
        <dc:format>image/svg+xml</dc:format>
        <dc:type
           rdf:resource="http://purl.org/dc/dcmitype/StillImage" />
        <dc:title></dc:title>
      </cc:Work>
    </rdf:RDF>
  </metadata>
  <defs
     id="defs1102" />
  <sodipodi:namedview
     pagecolor="#ffffff"
     bordercolor="#666666"
     borderopacity="1"
     objecttolerance="10"
     gridtolerance="10"
     guidetolerance="10"
     inkscape:pageopacity="0"
     inkscape:pageshadow="2"
     inkscape:window-width="740"
     inkscape:window-height="480"
     id="namedview1100"
     showgrid="false"
     fit-margin-top="0"
     fit-margin-left="0"
     fit-margin-right="0"
     fit-margin-bottom="0"
     inkscape:pagecheckerboard="true"
     inkscape:zoom="1.2197581"
     inkscape:cx="51.102353"
     inkscape:cy="124.54392"
     inkscape:window-x="182"
     inkscape:window-y="25"
     inkscape:window-maximized="0"
     inkscape:current-layer="g1106" />
  <g
     inkscape:groupmode="layer"
     inkscape:label="Image"
     id="g1106"
     transform="translate(-87.245665,47.239771)">
    <path
       style="fill:#1a1a1a;stroke-width:0.666667"
       d="m 143.64445,63.457545 c -3.78433,-3.78434 -4.10363,-5.92058 -4.12042,-27.56766 -0.0131,-16.806551 -0.14737,-19.163245 -1.22768,-21.538125 -0.66717,-1.466667 -1.71059,-3.0784 -2.31869,-3.581627 -1.48164,-1.226113 -1.39254,-2.28944 0.31969,-3.815046 3.01487,-2.686274 3.2411,-4.411614 3.24504,-24.748581 0.002,-11.642615 0.2859,-20.204358 0.7213,-21.772469 0.88069,-3.17179 5.19869,-7.995454 6.85424,-7.656908 1.01545,0.20765 0.89428,0.560574 -0.86893,2.530983 -1.12691,1.259328 -2.34607,3.359328 -2.70924,4.666666 -0.36556,1.315906 -0.66198,10.987747 -0.66404,21.666499 -0.003,18.270443 -0.0782,19.443343 -1.41325,22.20123 -0.77525,1.60144 -2.14079,3.39084 -3.03453,3.976446 l -1.625,1.06474 2.00074,2.067367 c 3.89941,4.029253 4.0669,5.11816 4.08296,26.545955 0.0131,17.51175 0.14071,19.79594 1.23918,22.18808 0.6735,1.46667 1.86691,3.23816 2.65203,3.93666 0.78512,0.69849 1.42749,1.52349 1.42749,1.83333 0,1.33256 -2.1899,0.37345 -4.56089,-1.99754 z M 218,56.666665 c -2.99874,-2.3588 -3.2367,-10.84898 -0.38972,-13.90485 1.65352,-1.77485 4.68286,-1.82135 6.24442,-0.0958 2.71434,2.99931 2.50704,11.86719 -0.33115,14.16541 -1.90726,1.54442 -3.40763,1.49967 -5.52355,-0.16472 z m 4.84855,-1.27108 c 1.0966,-2.04902 0.85917,-10.17246 -0.34768,-11.89548 -1.23021,-1.75638 -1.84362,-1.83835 -3.24791,-0.43406 -1.30804,1.30804 -1.50608,11.56059 -0.24762,12.81905 1.20124,1.20124 3.06542,0.9638 3.84321,-0.48951 z m -58.30988,1.28951 c 0.22661,-0.36667 0.83275,-0.66667 1.34698,-0.66667 0.52005,0 1.22431,-1.10945 1.58696,-2.5 1.63681,-6.2761 2.73273,-10.72609 2.73273,-11.09622 0,-0.22208 -0.45,-0.40378 -1,-0.40378 -0.55,0 -1,-0.33078 -1,-0.73508 0,-0.49631 1.83466,-0.65872 5.6484,-0.5 6.43678,0.2679 8.13613,1.29294 8.74489,5.27494 0.46199,3.02191 -1.96178,7.77444 -4.99188,9.7881 -1.90184,1.26386 -3.16487,1.50538 -7.87268,1.50538 -3.56852,0 -5.45761,-0.24241 -5.1954,-0.66667 z m 11.99088,-2.11193 c 3.52262,-2.7709 4.88123,-9.25718 2.40785,-11.49556 -0.84866,-0.76802 -2.10361,-1.07775 -3.79507,-0.93665 l -2.52713,0.21081 -1.52182,6 c -0.837,3.3 -1.52922,6.375 -1.53827,6.83333 -0.0283,1.43669 4.92225,1.00232 6.97444,-0.61193 z m 15.00912,-1.2214 c 0,-0.4056 2.98689,-0.66667 7.62732,-0.66667 4.36576,0 7.80351,0.28508 8.03935,0.66667 0.26598,0.43036 -2.43752,0.66666 -7.62732,0.66666 -4.91512,0 -8.03935,-0.25908 -8.03935,-0.66666 z m 3.83333,-4.4936 c 2.29167,-0.13018 6.04167,-0.13018 8.33334,0 2.29166,0.13018 0.41666,0.23669 -4.16667,0.23669 -4.58333,0 -6.45833,-0.10651 -4.16667,-0.23669 z m -26.92866,-19.46975 c -3.71434,-1.57963 -4.76264,-7.40503 -2.05547,-11.422201 2.94126,-4.364541 8.66962,-6.619141 11.79511,-4.642381 0.62212,0.393467 1.29468,0.355207 1.84944,-0.105206 1.39044,-1.15396 1.62322,-0.25516 0.79046,3.05204 -0.90425,3.5911 -1.7784,3.985028 -2.0753,0.935227 -0.14383,-1.477381 -0.73828,-2.441514 -1.9082,-3.094894 -3.35839,-1.875593 -8.17158,2.170754 -9.54922,8.027825 -0.45561,1.93706 0.51842,5.21382 1.79022,6.0225 2.03631,1.29479 4.68926,0.49798 7.22818,-2.17097 1.4099,-1.48211 2.56344,-2.3777 2.56344,-1.99021 0,0.38749 -0.975,1.76052 -2.16666,3.05118 -2.31832,2.5109 -5.64235,3.45118 -8.262,2.33709 z m 48.22332,-0.72175 c -2.99873,-2.3588 -3.23669,-10.848985 -0.38972,-13.904852 1.65353,-1.774853 4.68286,-1.821346 6.24442,-0.09584 2.71435,2.999314 2.50704,11.867192 -0.33114,14.165412 -1.90726,1.54442 -3.40763,1.49967 -5.52356,-0.16472 z m 4.84856,-1.27108 c 1.0966,-2.04902 0.85916,-10.172465 -0.34768,-11.895485 -1.23022,-1.756373 -1.84362,-1.838347 -3.24792,-0.434053 -1.30803,1.308033 -1.50608,11.560588 -0.24762,12.819048 1.20124,1.20124 3.06543,0.9638 3.84322,-0.48951 z m -31.30988,-2.04382 c 0,-0.4056 2.98688,-0.66667 7.62732,-0.66667 4.36576,0 7.80351,0.28508 8.03934,0.66667 0.26598,0.43036 -2.43752,0.66666 -7.62732,0.66666 -4.91512,0 -8.03934,-0.25908 -8.03934,-0.66666 z m 3.83333,-4.4936 c 2.29167,-0.13018 6.04167,-0.13018 8.33333,0 2.29167,0.13018 0.41667,0.23669 -4.16666,0.23669 -4.58334,0 -6.45834,-0.10651 -4.16667,-0.23669 z M 88.165586,14.403427 c 1.267906,-0.702247 1.959823,-2.13138 3.135549,-6.47638 1.811494,-6.694527 1.893091,-7.90862 0.531524,-7.90862 -0.571639,0 -0.853934,-0.3 -0.627322,-0.666667 0.508014,-0.821987 7,-0.894094 7,-0.07775 0,0.3239 -0.529752,0.727446 -1.177228,0.896766 -0.869792,0.227454 -1.568999,1.94524 -2.677399,6.577754 -1.773035,7.41032 -1.764549,7.2699 -0.439361,7.2699 0.571639,0 0.853934,0.3 0.627322,0.666666 -0.226613,0.366667 -2.119318,0.656034 -4.206012,0.64304 -3.550641,-0.02213 -3.689638,-0.08141 -2.167073,-0.924706 z M 106.872,11.35176 c 0,-0.4056 2.98689,-0.666667 7.62733,-0.666667 4.36575,0 7.80351,0.28508 8.03934,0.666667 0.26598,0.430367 -2.43752,0.666667 -7.62732,0.666667 -4.91512,0 -8.03935,-0.25908 -8.03935,-0.666667 z m 3.83334,-4.4936 c 2.29166,-0.13018 6.04166,-0.13018 8.33333,0 2.29167,0.13018 0.41667,0.236693 -4.16667,0.236693 -4.58333,0 -6.45833,-0.106513 -4.16666,-0.236693 z M 217.33333,0 c -2.99873,-2.358807 -3.23669,-10.848987 -0.38972,-13.904851 1.65353,-1.774853 4.68286,-1.821351 6.24442,-0.09584 2.71435,2.999316 2.50704,11.867196 -0.33115,14.165416 -1.90726,1.544413 -3.40762,1.499667 -5.52355,-0.16472 z m 4.84855,-1.27108 c 1.0966,-2.04902 0.85917,-10.172467 -0.34768,-11.895487 -1.23021,-1.756373 -1.84362,-1.838349 -3.24791,-0.434054 -1.30803,1.308034 -1.50608,11.560587 -0.24762,12.819048 1.20124,1.20124 3.06543,0.9638 3.84321,-0.489507 z M 164.4972,0.085533 c 0.24942,-0.403573 0.87422,-0.733773 1.38845,-0.733773 0.52005,0 1.22431,-1.109454 1.58696,-2.5 1.63681,-6.2761 2.73273,-10.726094 2.73273,-11.09623 0,-0.222074 -0.46771,-0.40377 -1.03935,-0.40377 -0.57164,0 -0.85393,-0.3 -0.62732,-0.666667 0.58922,-0.953374 9.01685,-0.806318 11,0.191942 2.54065,1.27889 2.56603,4.016325 0.0545,5.873218 -1.96746,1.4546 -1.9874,1.52294 -0.7062,2.42032 1.81973,1.274593 1.64959,3.637427 -0.40072,5.56498 -1.5242,1.432927 -2.44057,1.64272 -8.08082,1.84998 -4.51063,0.165754 -6.22973,0.02027 -5.90818,-0.5 z m 11.59726,-1.797813 c 1.13851,-0.797447 1.46799,-1.590867 1.315,-3.166667 -0.1939,-1.99736 -0.36061,-2.112713 -3.32983,-2.304147 -3.10605,-0.200253 -3.13013,-0.18558 -3.82961,2.333334 -0.38716,1.394166 -0.70559,2.909853 -0.70763,3.368186 -0.005,1.215667 4.72487,1.049107 6.55207,-0.230706 z m 1.64243,-8.124254 c 0.70444,-0.632273 1.11654,-1.776633 1,-2.77692 -0.16935,-1.453686 -0.57507,-1.732346 -2.78607,-1.9136 -3.16326,-0.259319 -3.55249,0.09802 -4.14476,3.805114 l -0.46753,2.9263 2.60007,-0.482707 c 1.43004,-0.265493 3.13927,-0.966673 3.79829,-1.558187 z m 12.46845,6.521627 c 0,-0.4056 2.98688,-0.666667 7.62732,-0.666667 4.36576,0 7.80351,0.28508 8.03934,0.666667 0.26598,0.430367 -2.43752,0.666667 -7.62732,0.666667 -4.91512,0 -8.03934,-0.25908 -8.03934,-0.666667 z m 3.83333,-4.4936 c 2.29167,-0.13018 6.04167,-0.13018 8.33333,0 2.29167,0.13018 0.41667,0.236693 -4.16666,0.236693 -4.58334,0 -6.45834,-0.106513 -4.16667,-0.236693 z m -28.31795,-21.676378 c 1.01678,-0.823179 3.71678,-4.617248 6,-8.431265 2.2832,-3.814016 4.45128,-6.964016 4.81795,-7 0.37064,-0.03637 0.99118,3.272936 1.39749,7.45279 0.5894,6.063377 0.97642,7.704095 2,8.478798 1.15751,0.876067 0.96123,0.962449 -2.23082,0.981786 -1.925,0.01166 -3.5,-0.278798 -3.5,-0.645465 0,-0.366666 0.45,-0.666666 1,-0.666666 0.66666,0 1,-0.666667 1,-2 0,-1.918155 -0.11964,-2 -2.92333,-2 -2.44001,0 -3.11824,0.297476 -4.10224,1.799252 -0.80549,1.229328 -0.93536,1.880438 -0.41001,2.055556 1.78938,0.59646 0.55536,1.478276 -2.06442,1.475214 l -2.83334,-0.0033 1.84872,-1.496688 z m 9.81795,-8.163356 c 0,-1.65 -0.225,-2.997689 -0.5,-2.994865 -0.47825,0.0049 -3.5,4.862969 -3.5,5.626944 0,0.202357 0.9,0.367921 2,0.367921 1.92593,0 2,-0.111111 2,-3 z m 39.33333,9.316833 c 0,-0.192409 0.75,-0.634983 1.66667,-0.983499 1.60821,-0.61144 1.66667,-0.845141 1.66667,-6.662868 v -6.029202 l -1.66667,0.418307 c -0.93868,0.235594 -1.66667,0.129492 -1.66667,-0.242914 0,-0.363672 0.675,-0.807615 1.5,-0.986542 0.825,-0.178926 2.025,-0.545996 2.66667,-0.81571 1.07052,-0.449976 1.16667,0.119842 1.16667,6.914269 0,6.960215 0.08,7.40466 1.33333,7.40466 0.73333,0 1.33333,0.3 1.33333,0.666666 0,0.370371 -1.77778,0.666667 -4,0.666667 -2.2,0 -4,-0.157425 -4,-0.349834 z m -26,-3.650166 c 0,-0.405598 2.98689,-0.666667 7.62732,-0.666667 4.36576,0 7.80352,0.285078 8.03935,0.666667 0.26598,0.430367 -2.43752,0.666667 -7.62732,0.666667 -4.91512,0 -8.03935,-0.259078 -8.03935,-0.666667 z m 3.83334,-4.493598 c 2.29166,-0.130181 6.04166,-0.130181 8.33333,0 2.29167,0.13018 0.41667,0.236692 -4.16667,0.236692 -4.58333,0 -6.45833,-0.106512 -4.16666,-0.236692 z"
       id="path1110" />
  </g>
</svg>
