<?xml version="1.0" encoding="UTF-8" standalone="no"?>
<svg
   xmlns:dc="http://purl.org/dc/elements/1.1/"
   xmlns:cc="http://creativecommons.org/ns#"
   xmlns:rdf="http://www.w3.org/1999/02/22-rdf-syntax-ns#"
   xmlns:svg="http://www.w3.org/2000/svg"
   xmlns="http://www.w3.org/2000/svg"
   xmlns:sodipodi="http://sodipodi.sourceforge.net/DTD/sodipodi-0.dtd"
   xmlns:inkscape="http://www.inkscape.org/namespaces/inkscape"
   version="1.1"
   id="svg1474"
   width="64.339149"
   height="82.564537"
   viewBox="0 0 64.339149 82.564537"
   sodipodi:docname="A1.svg"
   inkscape:version="1.0.1 (c497b03c, 2020-09-10)">
  <metadata
     id="metadata1480">
    <rdf:RDF>
      <cc:Work
         rdf:about="">
        <dc:format>image/svg+xml</dc:format>
        <dc:type
           rdf:resource="http://purl.org/dc/dcmitype/StillImage" />
        <dc:title></dc:title>
      </cc:Work>
    </rdf:RDF>
  </metadata>
  <defs
     id="defs1478" />
  <sodipodi:namedview
     pagecolor="#ffffff"
     bordercolor="#666666"
     borderopacity="1"
     objecttolerance="10"
     gridtolerance="10"
     guidetolerance="10"
     inkscape:pageopacity="0"
     inkscape:pageshadow="2"
     inkscape:window-width="743"
     inkscape:window-height="480"
     id="namedview1476"
     showgrid="false"
     inkscape:pagecheckerboard="true"
     fit-margin-top="0"
     fit-margin-left="0"
     fit-margin-right="0"
     fit-margin-bottom="0"
     inkscape:zoom="1.4210561"
     inkscape:cx="118.15199"
     inkscape:cy="64.862184"
     inkscape:window-x="0"
     inkscape:window-y="25"
     inkscape:window-maximized="0"
     inkscape:current-layer="g1482" />
  <g
     inkscape:groupmode="layer"
     inkscape:label="Image"
     id="g1482"
     transform="translate(82.449956,2.7496816)">
    <path
       style="fill:#1f1f1f;stroke-width:0.666667"
       d="m -81.110812,79.148187 c 0,-0.366666 0.75,-0.666666 1.666667,-0.666666 2.335342,0 2.050845,-1.47476 -0.514428,-2.666667 -4.05912,-1.886 -2.982265,-6.52416 1.952265,-8.40868 2.775234,-1.059867 3.983818,-2.924653 1.895497,-2.924653 -0.55,0 -1.000001,-0.3 -1.000001,-0.666667 0,-0.370373 1.777779,-0.666667 4.000001,-0.666667 2.222222,0 4,0.296294 4,0.666667 0,0.366667 -0.75,0.666667 -1.666667,0.666667 -1.94104,0 -2.310317,1.813586 -0.5,2.455586 2.026716,0.718754 3.5,2.36508 3.5,3.9111 0,1.865647 -2.524992,4.35442 -5.399826,5.322367 -2.529943,0.851827 -3.364898,2.310947 -1.322396,2.310947 0.763889,0 1.388889,0.3 1.388889,0.666666 0,0.370374 -1.777778,0.666667 -4.000001,0.666667 -2.222222,0 -4,-0.296293 -4,-0.666667 z m 4.619967,-7.051726 c 0.457677,-2.045114 0.68111,-3.86942 0.496518,-4.054014 -0.708522,-0.70852 -2.971289,1.145734 -3.779645,3.097274 -0.735352,1.7753 -0.69019,2.214693 0.345224,3.358813 0.65519,0.723973 1.397018,1.31632 1.648508,1.31632 0.25149,0 0.831718,-1.673273 1.289395,-3.718393 z m 5.138074,1.339166 c 1.28067,-1.954546 0.952466,-5.204546 -0.55443,-5.490173 -0.838159,-0.158873 -1.321556,0.527887 -1.873014,2.660967 -0.40881,1.581306 -0.88776,3.37524 -1.064332,3.986513 -0.479907,1.661393 2.23434,0.761787 3.491776,-1.157307 z m 37.908627,5.71256 c 0.226614,-0.366666 0.994319,-0.666666 1.706013,-0.666666 1.764927,0 1.626013,-1.2136 -0.313559,-2.739274 -1.320467,-1.038673 -1.647874,-1.983086 -1.833334,-5.288306 -0.207913,-3.70532 -0.120246,-4.008594 1.107547,-3.831454 1.184707,0.170927 1.308173,0.611214 1.10762,3.949867 -0.141234,2.3512 0.06247,3.93562 0.54436,4.23342 0.423533,0.26176 0.92306,0.322927 1.11006,0.135927 0.25824,-0.25824 2.833313,-9.41992 2.8932,-10.293514 0.0063,-0.09167 -0.588574,-0.166666 -1.321907,-0.166666 -0.733333,0 -1.333333,-0.3 -1.333333,-0.666667 0,-0.370373 1.77778,-0.666667 4,-0.666667 3.847791,0 5.592881,1.014187 2.501227,1.453634 -1.2086,0.171786 -1.714554,0.987453 -2.61332,4.213033 -0.613,2.2 -1.138548,4.591667 -1.167895,5.314813 -0.05107,1.258634 0.0093,1.252127 1.413668,-0.1522 0.80686,-0.806853 1.938667,-2.74852 2.515127,-4.314813 0.873474,-2.373293 1.378834,-2.884333 3.032984,-3.06704 l 1.98488,-0.21924 -1.44058,1.356513 c -0.79231,0.74608 -1.63937,2.261627 -1.88234,3.367887 -0.45125,2.05452 -3.742138,5.380747 -5.323578,5.380747 -0.482633,0 -1.050201,0.45 -1.26126,1 -0.261013,0.680193 0.036,1 0.928674,1 0.721826,0 1.312413,0.3 1.312413,0.666666 0,0.371094 -1.790893,0.666667 -4.039348,0.666667 -2.523132,0 -3.884686,-0.25024 -3.627319,-0.666667 z M -74.928425,54.407041 c 0.406261,-1.17444 23.712014,-32.592187 24.176961,-32.592187 0.617513,0 24.377966,32.120327 24.182387,32.69072 -0.157154,0.458333 -14.069934,-17.553269 -23.60462,-30.558731 -0.599567,-0.817819 -1.308261,-0.175848 -3.977621,3.603112 -4.940947,6.994813 -19.006573,25.800139 -20.143728,26.931566 -0.893625,0.889126 -0.96385,0.880866 -0.633379,-0.07448 z m 17.817614,-39.707644 c -1.253691,-0.465438 -2.666667,-2.210894 -2.666667,-3.294146 0,-0.451786 0.825,-1.8020018 1.833334,-3.0004788 1.563481,-1.85831 1.802613,-2.675395 1.624624,-5.55115 -0.254475,-4.111549 1.083082,-6.473997 3.002996,-5.304016 1.749466,1.066109 1.862913,3.499676 0.263973,5.662357 -1.75154,2.369089 -1.747387,2.436448 0.339673,5.507828 l 1.73126,2.5477838 1.602074,-2.3576578 c 1.707567,-2.512914 2.0181,-3.76173 0.9354,-3.76173 -0.366668,0 -0.666667,-0.3 -0.666667,-0.666666 0,-0.366667 1.2,-0.666667 2.666667,-0.666667 2.73116,0 3.62972,0.925981 1.45134,1.495639 -0.668427,0.174798 -2.04104,1.726798 -3.050253,3.44889 -1.465927,2.5014108 -1.67434,3.3245758 -1.03638,4.0932738 1.16954,1.40921 2.99074,1.175212 4.18568,-0.537803 0.575486,-0.825 1.06208,-1.125 1.081312,-0.666667 0.0192,0.458334 -0.591032,1.459331 -1.356139,2.224439 -1.064127,1.064131 -1.808447,1.272779 -3.166667,0.887689 -2.15016,-0.609625 -3.894267,-0.637188 -6.108893,-0.09654 -0.916667,0.223782 -2.116667,0.239812 -2.666667,0.03562 z m 3.922393,-1.489138 c 0.743847,-0.471099 0.56818,-1.04857 -0.907506,-2.983295 -2.027454,-2.6581288 -3.014887,-2.6055398 -3.014887,0.160568 0,2.84698 1.818153,4.155403 3.922393,2.822727 z m 0.07761,-12.8103678 c 0,-1.220668 -0.347353,-1.91837 -0.955073,-1.91837 -1.192154,0 -1.94374,2.21833 -1.36712,4.0351 0.62088,1.956212 2.322193,0.405427 2.322193,-2.11673 z M -78.444145,13.814854 c 0,-0.366667 0.75,-0.666667 1.666667,-0.666667 2.335342,0 2.050845,-1.474756 -0.514428,-2.666666 -4.05912,-1.8859988 -2.982265,-6.5241628 1.952265,-8.4086768 2.775234,-1.059872 3.983818,-2.924657 1.895496,-2.924657 -0.55,0 -1,-0.3 -1,-0.666666 0,-0.370371 1.777778,-0.666667 4,-0.666667 2.222222,0 4,0.296296 4,0.666667 0,0.366666 -0.75,0.666666 -1.666666,0.666666 -1.94104,0 -2.310317,1.813584 -0.5,2.45559 2.026716,0.718748 3.5,2.365078 3.5,3.911096 0,1.865648 -2.524992,4.354421 -5.399826,5.3223688 -2.529943,0.851824 -3.364898,2.310945 -1.322396,2.310945 0.763888,0 1.388888,0.3 1.388888,0.666667 0,0.370371 -1.777778,0.666667 -4,0.666667 -2.222222,0 -4,-0.296296 -4,-0.666667 z m 4.619967,-7.0517248 c 0.457677,-2.045115 0.681109,-3.869421 0.496517,-4.054013 -0.708521,-0.708521 -2.971288,1.145731 -3.779645,3.097274 -0.735352,1.775296 -0.69019,2.214691 0.345225,3.358811 0.65519,0.723976 1.397018,1.3163198 1.648508,1.3163198 0.25149,0 0.831718,-1.6732758 1.289395,-3.7183918 z m 5.138074,1.339166 c 1.28067,-1.954548 0.952465,-5.204548 -0.554431,-5.490176 -0.838158,-0.15887 -1.321556,0.527887 -1.873014,2.660967 -0.408809,1.581305 -0.887759,3.375239 -1.064332,3.986517 -0.479906,1.6613878 2.23434,0.7617838 3.491777,-1.157308 z m 31.908627,5.7125588 c 0.226613,-0.366667 0.99432,-0.666667 1.706013,-0.666667 1.764927,0 1.626014,-1.213602 -0.31356,-2.73927 -1.320466,-1.0386768 -1.647873,-1.9830898 -1.833333,-5.2883118 -0.207914,-3.705319 -0.120248,-4.00859 1.107547,-3.83145 1.184705,0.170923 1.308173,0.61121 1.107619,3.949863 -0.141233,2.351199 0.06247,3.93562 0.54436,4.233424 0.423533,0.261759 0.923061,0.322927 1.110061,0.135927 0.258239,-0.258239 2.833313,-9.419922 2.8932,-10.293515 0.0063,-0.09167 -0.588574,-0.166667 -1.321907,-0.166667 -0.733333,0 -1.333333,-0.3 -1.333333,-0.666666 0,-0.370371 1.77778,-0.666667 3.999999,-0.666667 3.847794,0 5.59288,1.014189 2.501227,1.453633 -1.2086,0.171789 -1.714553,0.987456 -2.61332,4.213034 -0.613,2.2 -1.138546,4.591666 -1.167893,5.314814 -0.05107,1.2586318 0.0093,1.2521288 1.413666,-0.152198 0.80686,-0.806858 1.938666,-2.748525 2.515127,-4.314816 0.873474,-2.373296 1.378834,-2.884331 3.032987,-3.067042 l 1.984871,-0.219242 -1.440571,1.356515 c -0.792313,0.746083 -1.639374,2.261632 -1.882347,3.367887 -0.451246,2.054519 -3.742133,5.3807478 -5.323573,5.3807478 -0.482633,0 -1.0502,0.45 -1.261261,1 -0.261013,0.680193 0.036,1 0.928674,1 0.721826,0 1.312413,0.3 1.312413,0.666667 0,0.371092 -1.790893,0.666667 -4.039346,0.666667 -2.523134,0 -3.884687,-0.250241 -3.62732,-0.666667 z"
       id="path1486" />
  </g>
</svg>
