<?xml version="1.0" encoding="UTF-8" standalone="no"?>
<svg
   xmlns:dc="http://purl.org/dc/elements/1.1/"
   xmlns:cc="http://creativecommons.org/ns#"
   xmlns:rdf="http://www.w3.org/1999/02/22-rdf-syntax-ns#"
   xmlns:svg="http://www.w3.org/2000/svg"
   xmlns="http://www.w3.org/2000/svg"
   xmlns:sodipodi="http://sodipodi.sourceforge.net/DTD/sodipodi-0.dtd"
   xmlns:inkscape="http://www.inkscape.org/namespaces/inkscape"
   version="1.1"
   id="svg1558"
   width="57.672478"
   height="82.501434"
   viewBox="0 0 57.672477 82.501434"
   sodipodi:docname="A2.svg"
   inkscape:version="1.0.1 (c497b03c, 2020-09-10)">
  <metadata
     id="metadata1564">
    <rdf:RDF>
      <cc:Work
         rdf:about="">
        <dc:format>image/svg+xml</dc:format>
        <dc:type
           rdf:resource="http://purl.org/dc/dcmitype/StillImage" />
        <dc:title></dc:title>
      </cc:Work>
    </rdf:RDF>
  </metadata>
  <defs
     id="defs1562" />
  <sodipodi:namedview
     pagecolor="#ffffff"
     bordercolor="#666666"
     borderopacity="1"
     objecttolerance="10"
     gridtolerance="10"
     guidetolerance="10"
     inkscape:pageopacity="0"
     inkscape:pageshadow="2"
     inkscape:window-width="747"
     inkscape:window-height="480"
     id="namedview1560"
     showgrid="false"
     fit-margin-top="0"
     fit-margin-left="0"
     fit-margin-right="0"
     fit-margin-bottom="0"
     inkscape:pagecheckerboard="true"
     inkscape:zoom="1.1804384"
     inkscape:cx="152.75757"
     inkscape:cy="52.10671"
     inkscape:window-x="0"
     inkscape:window-y="25"
     inkscape:window-maximized="0"
     inkscape:current-layer="g1566" />
  <g
     inkscape:groupmode="layer"
     inkscape:label="Image"
     id="g1566"
     transform="translate(-28.660857,-11.498566)">
    <path
       style="fill:#212121;stroke-width:0.666667"
       d="m 51.333334,93.333333 c 0,-0.366666 0.75,-0.666666 1.666667,-0.666666 2.335342,0 2.050845,-1.47476 -0.514428,-2.666667 -4.05912,-1.886 -2.982265,-6.52416 1.952264,-8.40868 2.775234,-1.059867 3.983818,-2.924653 1.895497,-2.924653 -0.55,0 -1,-0.3 -1,-0.666667 0,-0.370373 1.777778,-0.666667 4,-0.666667 2.222222,0 4,0.296294 4,0.666667 0,0.366667 -0.75,0.666667 -1.666666,0.666667 -1.94104,0 -2.310317,1.813586 -0.5,2.455586 2.026715,0.718754 3.5,2.36508 3.5,3.9111 0,1.865647 -2.524992,4.35442 -5.399826,5.322367 -2.529943,0.851827 -3.364899,2.310947 -1.322397,2.310947 0.763889,0 1.388889,0.3 1.388889,0.666666 0,0.370374 -1.777778,0.666667 -4,0.666667 -2.222222,0 -4,-0.296293 -4,-0.666667 z m 4.619967,-7.051726 c 0.457676,-2.045114 0.681109,-3.86942 0.496517,-4.054014 -0.748164,-0.74816 -3.022875,1.211374 -3.716725,3.201754 -0.612072,1.755793 -0.548507,2.3363 0.366536,3.347406 C 53.708491,89.44954 54.412415,90 54.663906,90 c 0.25149,0 0.831718,-1.673273 1.289395,-3.718393 z m 5.138073,1.339166 c 1.280671,-1.954546 0.952465,-5.204546 -0.55443,-5.490173 -0.838158,-0.158873 -1.321556,0.527887 -1.873014,2.660967 -0.408809,1.581306 -0.887759,3.37524 -1.064332,3.986513 -0.479907,1.661393 2.23434,0.761787 3.491776,-1.157307 z M 56.666667,53 c 0,-10.444445 0.240363,-16.333333 0.666667,-16.333333 0.426304,0 0.666667,5.888888 0.666667,16.333333 0,10.444445 -0.240363,16.333333 -0.666667,16.333333 -0.426304,0 -0.666667,-5.888888 -0.666667,-16.333333 z M 50.225294,28.692809 c -2.785686,-1.172098 -2.648144,-4.230168 0.310695,-6.90788 1.03776,-0.93916 1.25074,-1.7624 0.97937,-3.785606 -0.469286,-3.498796 0.2088,-5.821924 1.851516,-6.343302 3.087888,-0.980057 4.361417,2.81453 1.966459,5.859226 -1.694722,2.15449 -1.681835,2.329041 0.39793,5.38969 l 1.731263,2.547784 1.602071,-2.357658 c 1.707569,-2.512914 2.018103,-3.76173 0.935403,-3.76173 -0.366667,0 -0.666667,-0.3 -0.666667,-0.666666 0,-0.366667 1.2,-0.666667 2.666667,-0.666667 2.731161,0 3.629716,0.925981 1.451343,1.495639 -0.668428,0.174798 -2.041044,1.726798 -3.050256,3.44889 -1.465924,2.501411 -1.674342,3.324576 -1.03638,4.093274 1.169541,1.40921 2.990739,1.175212 4.185677,-0.537803 0.575491,-0.825 1.062083,-1.125 1.081315,-0.666667 0.01923,0.458334 -0.591031,1.459331 -1.356139,2.224439 -1.064129,1.064131 -1.808445,1.272779 -3.166665,0.887689 -2.104985,-0.596817 -3.730136,-0.61085 -6.442229,-0.05563 -1.1,0.225193 -2.648618,0.136532 -3.441373,-0.197025 z m 5.007971,-1.283522 c 0.711587,-0.45094 0.487936,-1.139037 -1.068636,-3.287822 -2.142691,-2.957899 -3.497962,-2.746663 -3.497962,0.545202 0,2.829756 2.273985,4.195473 4.566598,2.74262 z m 0.100069,-12.82425 c 0,-1.220668 -0.347356,-1.91837 -0.955075,-1.91837 -1.192154,0 -1.943738,2.21833 -1.367118,4.0351 0.620878,1.956212 2.322193,0.405427 2.322193,-2.11673 z M 30.000001,28 c 0,-0.366667 0.75,-0.666667 1.666667,-0.666667 2.335342,0 2.050845,-1.474756 -0.514428,-2.666666 -4.05912,-1.885999 -2.982265,-6.524163 1.952264,-8.408677 2.775234,-1.059872 3.983818,-2.924657 1.895497,-2.924657 -0.55,0 -1,-0.3 -1,-0.666666 0,-0.370371 1.777778,-0.666667 4,-0.666667 C 40.222223,12 42,12.296296 42,12.666667 c 0,0.366666 -0.75,0.666666 -1.666666,0.666666 -1.94104,0 -2.310316,1.813584 -0.499999,2.45559 2.026716,0.718748 3.499999,2.365078 3.499999,3.911096 0,1.865648 -2.524991,4.354421 -5.399825,5.322369 -2.529944,0.851824 -3.364899,2.310945 -1.322397,2.310945 0.763888,0 1.388889,0.3 1.388889,0.666667 0,0.370371 -1.777778,0.666667 -4,0.666667 -2.222222,0 -4,-0.296296 -4,-0.666667 z m 4.619967,-7.051725 c 0.457676,-2.045115 0.681109,-3.869421 0.496517,-4.054013 -0.748164,-0.748165 -3.022875,1.211373 -3.716725,3.201753 -0.612072,1.755789 -0.548507,2.336295 0.366536,3.347406 0.608862,0.672785 1.312786,1.223246 1.564277,1.223246 0.25149,0 0.831718,-1.673276 1.289395,-3.718392 z m 5.138074,1.339166 c 1.280669,-1.954548 0.952465,-5.204548 -0.554431,-5.490176 -0.838158,-0.15887 -1.321556,0.527887 -1.873014,2.660967 -0.408809,1.581305 -0.887759,3.375239 -1.064332,3.986517 -0.479907,1.661388 2.23434,0.761784 3.491777,-1.157308 z M 71,28 c 0.226614,-0.366667 0.99432,-0.666667 1.706014,-0.666667 1.764926,0 1.626013,-1.213602 -0.31356,-2.73927 -1.320466,-1.038677 -1.647874,-1.98309 -1.833333,-5.288312 -0.207914,-3.705319 -0.120247,-4.00859 1.107546,-3.83145 1.183787,0.17079 1.308913,0.614363 1.115607,3.954798 -0.13462,2.326392 0.07315,3.9422 0.544353,4.233424 0.419147,0.259045 0.91508,0.317992 1.10208,0.130992 C 74.686947,23.535276 77.26202,14.373593 77.321907,13.5 77.328207,13.40833 76.733334,13.333333 76,13.333333 c -0.733333,0 -1.333333,-0.3 -1.333333,-0.666666 0,-0.370371 1.77778,-0.666667 4,-0.666667 3.847794,0 5.59288,1.014189 2.501227,1.453633 -1.2086,0.171789 -1.714554,0.987456 -2.61332,4.213034 -0.613,2.2 -1.138547,4.591666 -1.167894,5.314814 -0.05107,1.258632 0.0093,1.252129 1.413667,-0.152198 0.80686,-0.806858 1.938667,-2.748525 2.515127,-4.314816 0.873473,-2.373296 1.378833,-2.884331 3.032987,-3.067042 l 1.984875,-0.219242 -1.440575,1.356515 c -0.792314,0.746083 -1.639374,2.261632 -1.882347,3.367887 -0.451247,2.054519 -3.742134,5.380748 -5.323574,5.380748 -0.482633,0 -1.0502,0.45 -1.26126,1 -0.261013,0.680193 0.036,1 0.928674,1 0.721826,0 1.312413,0.3 1.312413,0.666667 0,0.371092 -1.790893,0.666667 -4.039347,0.666667 C 72.104187,28.666667 70.742634,28.416426 71,28 Z"
       id="path1570" />
  </g>
</svg>
