<?xml version="1.0" encoding="UTF-8" standalone="no"?>
<svg
   xmlns:dc="http://purl.org/dc/elements/1.1/"
   xmlns:cc="http://creativecommons.org/ns#"
   xmlns:rdf="http://www.w3.org/1999/02/22-rdf-syntax-ns#"
   xmlns:svg="http://www.w3.org/2000/svg"
   xmlns="http://www.w3.org/2000/svg"
   xmlns:sodipodi="http://sodipodi.sourceforge.net/DTD/sodipodi-0.dtd"
   xmlns:inkscape="http://www.inkscape.org/namespaces/inkscape"
   version="1.1"
   id="svg1660"
   width="57.672482"
   height="110.50143"
   viewBox="0 0 57.672482 110.50144"
   sodipodi:docname="A3.svg"
   inkscape:version="1.0.1 (c497b03c, 2020-09-10)">
  <metadata
     id="metadata1666">
    <rdf:RDF>
      <cc:Work
         rdf:about="">
        <dc:format>image/svg+xml</dc:format>
        <dc:type
           rdf:resource="http://purl.org/dc/dcmitype/StillImage" />
        <dc:title></dc:title>
      </cc:Work>
    </rdf:RDF>
  </metadata>
  <defs
     id="defs1664" />
  <sodipodi:namedview
     pagecolor="#ffffff"
     bordercolor="#666666"
     borderopacity="1"
     objecttolerance="10"
     gridtolerance="10"
     guidetolerance="10"
     inkscape:pageopacity="0"
     inkscape:pageshadow="2"
     inkscape:window-width="731"
     inkscape:window-height="480"
     id="namedview1662"
     showgrid="false"
     fit-margin-top="0"
     fit-margin-left="0"
     fit-margin-right="0"
     fit-margin-bottom="0"
     inkscape:pagecheckerboard="true"
     inkscape:zoom="1.1083674"
     inkscape:cx="-66.574789"
     inkscape:cy="100.45211"
     inkscape:window-x="0"
     inkscape:window-y="25"
     inkscape:window-maximized="0"
     inkscape:current-layer="g1668" />
  <g
     inkscape:groupmode="layer"
     inkscape:label="Image"
     id="g1668"
     transform="translate(-130.69264,-42.134297)">
    <path
       style="fill:#202020;stroke-width:0.666667"
       d="m 159.69845,151.96906 c 0.22661,-0.36667 0.99432,-0.66667 1.70601,-0.66667 1.76493,0 1.62602,-1.2136 -0.31356,-2.73927 -1.32046,-1.03867 -1.64787,-1.98309 -1.83333,-5.28831 -0.20791,-3.70532 -0.12025,-4.00859 1.10755,-3.83145 1.18471,0.17093 1.30817,0.61121 1.10762,3.94987 -0.14123,2.3512 0.0625,3.93562 0.54436,4.23342 0.42353,0.26176 0.92306,0.32292 1.11006,0.13592 0.25824,-0.25824 2.83331,-9.41992 2.8932,-10.29351 0.006,-0.0917 -0.58857,-0.16667 -1.32191,-0.16667 -0.73333,0 -1.33333,-0.3 -1.33333,-0.66666 0,-0.37038 1.77778,-0.66667 4,-0.66667 3.84779,0 5.59288,1.01419 2.50122,1.45363 -1.2086,0.17179 -1.71455,0.98746 -2.61331,4.21304 -0.613,2.2 -1.13855,4.59166 -1.1679,5.31481 -0.0511,1.25863 0.009,1.25213 1.41367,-0.1522 0.80686,-0.80685 1.93866,-2.74852 2.51512,-4.31481 0.87348,-2.3733 1.37884,-2.88434 3.03299,-3.06704 l 1.98488,-0.21924 -1.44058,1.35651 c -0.79231,0.74608 -1.63937,2.26163 -1.88234,3.36789 -0.45125,2.05452 -3.74214,5.38074 -5.32358,5.38074 -0.48263,0 -1.0502,0.45 -1.26126,1 -0.26101,0.6802 0.036,1 0.92868,1 0.72182,0 1.31241,0.3 1.31241,0.66667 0,0.37109 -1.79089,0.66667 -4.03935,0.66667 -2.52313,0 -3.88468,-0.25024 -3.62732,-0.66667 z m -3.66667,-4 v -2.66667 h -5.99999 c -3.55556,0 -6,-0.2716 -6,-0.66666 0,-0.4 2.66666,-0.66667 6.66666,-0.66667 h 6.66667 v 3.33333 c 0,1.83334 -0.3,3.33334 -0.66667,3.33334 -0.36666,0 -0.66667,-1.2 -0.66667,-2.66667 z m -2.66666,-24 c 0,-0.36666 0.75,-0.66666 1.66667,-0.66666 2.33534,0 2.05084,-1.47476 -0.51443,-2.66667 -4.05912,-1.886 -2.98227,-6.52416 1.95226,-8.40868 2.77524,-1.05987 3.98382,-2.92465 1.8955,-2.92465 -0.55,0 -1,-0.3 -1,-0.66667 0,-0.37037 1.77778,-0.66667 4,-0.66667 2.22222,0 4,0.2963 4,0.66667 0,0.36667 -0.75,0.66667 -1.66667,0.66667 -1.94104,0 -2.31031,1.81358 -0.5,2.45558 2.02672,0.71876 3.5,2.36508 3.5,3.9111 0,1.86565 -2.52499,4.35442 -5.39982,5.32237 -2.52995,0.85183 -3.3649,2.31095 -1.3224,2.31095 0.76389,0 1.38889,0.3 1.38889,0.66666 0,0.37038 -1.77778,0.66667 -4,0.66667 -2.22222,0 -4,-0.29629 -4,-0.66667 z m 4.61997,-7.05172 c 0.45767,-2.04512 0.6811,-3.86942 0.49651,-4.05402 -0.70852,-0.70852 -2.97129,1.14574 -3.77964,3.09728 -0.73536,1.7753 -0.69019,2.21469 0.34522,3.35881 0.65519,0.72397 1.39702,1.31632 1.64851,1.31632 0.25149,0 0.83172,-1.67327 1.2894,-3.71839 z m 5.13807,1.33916 c 1.28067,-1.95454 0.95246,-5.20454 -0.55443,-5.49017 -0.83816,-0.15887 -1.32156,0.52789 -1.87302,2.66097 -0.4088,1.5813 -0.88775,3.37524 -1.06433,3.98651 -0.4799,1.66139 2.23434,0.76179 3.49178,-1.15731 z m -4.42471,-34.954103 c 0,-10.222222 0.24074,-16 0.66667,-16 0.42592,0 0.66667,5.777778 0.66667,16 0,10.222222 -0.24075,16 -0.66667,16 -0.42593,0 -0.66667,-5.777778 -0.66667,-16 z m -6.44137,-23.973858 c -2.78569,-1.172097 -2.64814,-4.230168 0.31069,-6.907879 1.03776,-0.93916 1.25074,-1.7624 0.97937,-3.785607 -0.46928,-3.498796 0.2088,-5.821924 1.85152,-6.343301 3.08789,-0.980057 4.36142,2.814529 1.96646,5.859226 -1.69472,2.15449 -1.68184,2.329041 0.39793,5.38969 l 1.73126,2.547783 1.60207,-2.357658 c 1.70757,-2.512913 2.01811,-3.761729 0.93541,-3.761729 -0.36667,0 -0.66667,-0.3 -0.66667,-0.666667 0,-0.366666 1.2,-0.666666 2.66667,-0.666666 2.73116,0 3.62971,0.925981 1.45134,1.495639 -0.66843,0.174797 -2.04105,1.726798 -3.05026,3.44889 -1.46592,2.501411 -1.67434,3.324576 -1.03638,4.093273 1.16954,1.409211 2.99074,1.175212 4.18568,-0.537802 0.57549,-0.825 1.06208,-1.125 1.08131,-0.666667 0.0192,0.458333 -0.59103,1.459331 -1.35613,2.224439 -1.06413,1.06413 -1.80845,1.272778 -3.16667,0.887688 -2.10498,-0.596816 -3.73014,-0.610849 -6.44223,-0.05563 -1.1,0.225193 -2.64862,0.136532 -3.44137,-0.197026 z m 5.00797,-1.283521 c 0.71159,-0.450941 0.48794,-1.139037 -1.06864,-3.287823 -2.14269,-2.957898 -3.49796,-2.746662 -3.49796,0.545202 0,2.829757 2.27399,4.195474 4.5666,2.742621 z m 0.10007,-12.824251 c 0,-1.220668 -0.34736,-1.91837 -0.95508,-1.91837 -1.19215,0 -1.94373,2.21833 -1.36711,4.0351 0.62087,1.956213 2.32219,0.405428 2.32219,-2.11673 z m -25.33334,13.414964 c 0,-0.366667 0.75,-0.666667 1.66667,-0.666667 2.33534,0 2.05085,-1.474757 -0.51443,-2.666667 -4.05912,-1.885998 -2.98226,-6.524162 1.95227,-8.408676 2.77523,-1.059872 3.98382,-2.924657 1.89549,-2.924657 -0.55,0 -1,-0.3 -1,-0.666667 0,-0.37037 1.77778,-0.666666 4,-0.666666 2.22223,0 4.00001,0.296296 4.00001,0.666666 0,0.366667 -0.75,0.666667 -1.66667,0.666667 -1.94104,0 -2.31032,1.813584 -0.5,2.455589 2.02671,0.718749 3.5,2.365079 3.5,3.911096 0,1.865649 -2.52499,4.354422 -5.39983,5.32237 -2.52994,0.851824 -3.3649,2.310945 -1.32239,2.310945 0.76388,0 1.38888,0.3 1.38888,0.666667 0,0.37037 -1.77777,0.666666 -4,0.666666 -2.22222,0 -4,-0.296296 -4,-0.666666 z m 4.61997,-7.051725 c 0.45768,-2.045115 0.68111,-3.869421 0.49652,-4.054013 -0.70852,-0.708522 -2.97129,1.14573 -3.77965,3.097274 -0.73535,1.775296 -0.69019,2.21469 0.34523,3.358811 0.65519,0.723975 1.39702,1.316319 1.64851,1.316319 0.25149,0 0.83171,-1.673276 1.28939,-3.718391 z m 5.13807,1.339166 c 1.28068,-1.954549 0.95247,-5.204549 -0.55443,-5.490176 -0.83815,-0.15887 -1.32155,0.527887 -1.87301,2.660967 -0.40881,1.581305 -0.88776,3.375238 -1.06433,3.986517 -0.47991,1.661388 2.23434,0.761783 3.49177,-1.157308 z m 31.24197,5.712559 c 0.22661,-0.366667 0.99431,-0.666667 1.70601,-0.666667 1.76493,0 1.62601,-1.213603 -0.31356,-2.73927 -1.32047,-1.038677 -1.64787,-1.983091 -1.83334,-5.288313 -0.20791,-3.705318 -0.12024,-4.008589 1.10755,-3.83145 1.18471,0.170924 1.30818,0.611211 1.10762,3.949864 -0.14123,2.351199 0.0625,3.93562 0.54436,4.233424 0.42354,0.261759 0.92306,0.322926 1.11006,0.135926 0.25824,-0.258238 2.83332,-9.419921 2.8932,-10.293514 0.006,-0.09167 -0.58857,-0.166667 -1.3219,-0.166667 -0.73334,0 -1.33334,-0.3 -1.33334,-0.666667 0,-0.37037 1.77778,-0.666666 4,-0.666666 3.8478,0 5.59288,1.014188 2.50123,1.453632 -1.2086,0.17179 -1.71455,0.987456 -2.61332,4.213034 -0.613,2.2 -1.13855,4.591667 -1.16789,5.314815 -0.0511,1.258632 0.009,1.252129 1.41366,-0.152199 0.80686,-0.806858 1.93867,-2.748524 2.51513,-4.314815 0.87347,-2.373296 1.37883,-2.884331 3.03299,-3.067042 l 1.98487,-0.219242 -1.44057,1.356515 c -0.79232,0.746082 -1.63938,2.261632 -1.88235,3.367886 -0.45125,2.05452 -3.74213,5.380749 -5.32357,5.380749 -0.48264,0 -1.0502,0.45 -1.26126,1 -0.26102,0.680193 0.036,1 0.92867,1 0.72183,0 1.31241,0.3 1.31241,0.666667 0,0.371092 -1.79089,0.666666 -4.03934,0.666666 -2.52314,0 -3.88469,-0.25024 -3.62732,-0.666666 z"
       id="path1672" />
  </g>
</svg>
