<?xml version="1.0" encoding="UTF-8" standalone="no"?>
<svg
   xmlns:dc="http://purl.org/dc/elements/1.1/"
   xmlns:cc="http://creativecommons.org/ns#"
   xmlns:rdf="http://www.w3.org/1999/02/22-rdf-syntax-ns#"
   xmlns:svg="http://www.w3.org/2000/svg"
   xmlns="http://www.w3.org/2000/svg"
   xmlns:sodipodi="http://sodipodi.sourceforge.net/DTD/sodipodi-0.dtd"
   xmlns:inkscape="http://www.inkscape.org/namespaces/inkscape"
   version="1.1"
   id="svg1768"
   width="57.672478"
   height="110.66667"
   viewBox="0 0 57.672477 110.66667"
   sodipodi:docname="A4.svg"
   inkscape:version="1.0.1 (c497b03c, 2020-09-10)">
  <metadata
     id="metadata1774">
    <rdf:RDF>
      <cc:Work
         rdf:about="">
        <dc:format>image/svg+xml</dc:format>
        <dc:type
           rdf:resource="http://purl.org/dc/dcmitype/StillImage" />
        <dc:title></dc:title>
      </cc:Work>
    </rdf:RDF>
  </metadata>
  <defs
     id="defs1772" />
  <sodipodi:namedview
     pagecolor="#ffffff"
     bordercolor="#666666"
     borderopacity="1"
     objecttolerance="10"
     gridtolerance="10"
     guidetolerance="10"
     inkscape:pageopacity="0"
     inkscape:pageshadow="2"
     inkscape:window-width="742"
     inkscape:window-height="480"
     id="namedview1770"
     showgrid="false"
     inkscape:pagecheckerboard="true"
     fit-margin-top="0"
     fit-margin-left="0"
     fit-margin-right="0"
     fit-margin-bottom="0"
     inkscape:zoom="1.1561251"
     inkscape:cx="124.5597"
     inkscape:cy="106.59905"
     inkscape:window-x="0"
     inkscape:window-y="25"
     inkscape:window-maximized="0"
     inkscape:current-layer="g1776" />
  <g
     inkscape:groupmode="layer"
     inkscape:label="Image"
     id="g1776"
     transform="translate(20.3546,-15.856417)">
    <path
       style="fill:#202020;stroke-width:0.666667"
       d="m 1.3178796,125.85642 c 0.226611,-0.36667 0.994317,-0.66667 1.706011,-0.66667 1.764931,0 1.626013,-1.2136 -0.31356,-2.73927 -1.320464,-1.03867 -1.64787,-1.98309 -1.83333298,-5.28831 -0.207914,-3.70532 -0.120249,-4.00859 1.10754798,-3.83145 1.184708,0.17093 1.308174,0.61121 1.107623,3.94987 -0.141236,2.3512 0.0625,3.93562 0.544355,4.23342 0.423535,0.26176 0.923064,0.32292 1.110063,0.13592 0.258239,-0.25824 2.833313,-9.41992 2.893199,-10.29351 0.00629,-0.0917 -0.588573,-0.16667 -1.321906,-0.16667 -0.733334,0 -1.333334,-0.3 -1.333334,-0.66666 0,-0.37038 1.777778,-0.66667 4,-0.66667 3.8477944,0 5.5928814,1.01419 2.5012274,1.45363 -1.2086,0.17179 -1.7145534,0.98746 -2.6133204,4.21304 -0.613,2.2 -1.138547,4.59166 -1.167893,5.31481 -0.05107,1.25863 0.0093,1.25213 1.413666,-0.1522 0.80686,-0.80685 1.9386674,-2.74852 2.5151274,-4.31481 0.873473,-2.3733 1.378833,-2.88434 3.032987,-3.06704 l 1.984873,-0.21924 -1.440573,1.35651 c -0.792313,0.74608 -1.639374,2.26163 -1.882347,3.36789 -0.451247,2.05452 -3.7421334,5.38074 -5.3235734,5.38074 -0.482634,0 -1.050203,0.45 -1.261258,1 -0.261014,0.6802 0.03598,1 0.928671,1 0.721827,0 1.312413,0.3 1.312413,0.66667 0,0.37109 -1.790893,0.66667 -4.039344,0.66667 -2.523134,0 -3.884688,-0.25024 -3.627322,-0.66667 z m 0.999999,-28.666668 c 0,-0.366667 0.75,-0.666667 1.666666,-0.666667 2.335343,0 2.050846,-1.47476 -0.514427,-2.666666 -4.05911998,-1.886 -2.98226498,-6.52416 1.952265,-8.408681 2.775237,-1.059866 3.983817,-2.924653 1.895497,-2.924653 -0.55,0 -1,-0.3 -1,-0.666667 0,-0.370373 1.77778,-0.666666 4.0000004,-0.666666 2.22222,0 4,0.296293 4,0.666666 0,0.366667 -0.75,0.666667 -1.666667,0.666667 -1.94104,0 -2.31032,1.813587 -0.5,2.455587 2.026713,0.718753 3.5,2.36508 3.5,3.9111 0,1.865647 -2.524993,4.35442 -5.399827,5.322367 -2.5299404,0.851826 -3.3648974,2.310946 -1.3223934,2.310946 0.763887,0 1.3888874,0.3 1.3888874,0.666667 0,0.370373 -1.7777804,0.666667 -4.0000004,0.666667 -2.222222,0 -4.000001,-0.296294 -4.000001,-0.666667 z m 4.619967,-7.051727 c 0.457674,-2.045113 0.681107,-3.86942 0.49652,-4.054013 -0.708524,-0.70852 -2.971291,1.145733 -3.779647,3.097273 -0.735353,1.7753 -0.69019,2.214694 0.345224,3.358814 0.65519,0.723973 1.397018,1.31632 1.648509,1.31632 0.25149,0 0.831718,-1.673274 1.289394,-3.718394 z m 5.1380744,1.339167 c 1.280673,-1.954547 0.952466,-5.204547 -0.554434,-5.490173 -0.838153,-0.158874 -1.321553,0.527886 -1.8730134,2.660966 -0.408807,1.581307 -0.887753,3.37524 -1.064327,3.986514 -0.479906,1.661393 2.2343404,0.761786 3.4917744,-1.157307 z M 7.6512126,57.189751 c 0,-10.222222 0.24074,-16 0.666667,-16 0.425926,0 0.666666,5.777778 0.666666,16 0,10.222222 -0.24074,16.000001 -0.666666,16.000001 -0.425927,0 -0.666667,-5.777779 -0.666667,-16.000001 z m -3.629521,-31.02131 c -1.723728,-3.86172 -2.998254,-7.38672 -2.832281,-7.833333 0.299097,-0.804832 5.795135,10.311248 5.795135,11.721021 0,1.399371 1.100454,-0.516474 3.6679004,-6.385663 1.408107,-3.218939 2.807607,-5.60521 3.109994,-5.302824 0.550386,0.550387 -5.4112204,14.819397 -6.1922944,14.821169 -0.227926,5.16e-4 -1.824727,-3.15865 -3.548454,-7.02037 z m -23.0371466,5.687976 c 0,-0.366666 0.75,-0.666666 1.666666,-0.666666 2.335342,0 2.050846,-1.474757 -0.514428,-2.666667 -4.05912,-1.885999 -2.982264,-6.524163 1.952265,-8.408677 2.775234,-1.059872 3.983818,-2.924657 1.895497,-2.924657 -0.55,0 -1,-0.3 -1,-0.666666 0,-0.370371 1.777778,-0.666667 4,-0.666667 2.2222216,0 3.9999996,0.296296 3.9999996,0.666667 0,0.366666 -0.75,0.666666 -1.666667,0.666666 -1.9410396,0 -2.3103156,1.813584 -0.5,2.45559 2.026716,0.718748 3.5,2.365078 3.5,3.911096 0,1.865648 -2.524992,4.354421 -5.3998256,5.322369 -2.529943,0.851824 -3.364898,2.310946 -1.322396,2.310946 0.763889,0 1.388889,0.3 1.388889,0.666666 0,0.370371 -1.777778,0.666667 -4,0.666667 -2.222222,0 -4,-0.296296 -4,-0.666667 z m 4.619966,-7.051725 c 0.457677,-2.045115 0.68111,-3.869421 0.496518,-4.054013 -0.708522,-0.708521 -2.971289,1.145731 -3.779645,3.097274 -0.735352,1.775296 -0.69019,2.214691 0.345225,3.358812 0.655189,0.723975 1.397017,1.316319 1.648508,1.316319 0.25149,0 0.831718,-1.673276 1.289394,-3.718392 z m 5.1380746,1.339166 c 1.28067,-1.954548 0.952465,-5.204548 -0.554431,-5.490176 -0.8381586,-0.15887 -1.3215556,0.527887 -1.8730136,2.660967 -0.408809,1.581305 -0.88776,3.375239 -1.064332,3.986518 -0.479907,1.661388 2.23434,0.761783 3.4917766,-1.157309 z m 31.2419614,5.712559 c 0.226613,-0.366666 0.99432,-0.666666 1.706013,-0.666666 1.764927,0 1.626013,-1.213603 -0.31356,-2.73927 -1.320467,-1.038678 -1.647873,-1.983091 -1.833333,-5.288313 -0.207914,-3.705319 -0.120247,-4.00859 1.107546,-3.83145 1.184707,0.170923 1.308174,0.61121 1.10762,3.949863 -0.141233,2.351199 0.06247,3.93562 0.54436,4.233424 0.423534,0.26176 0.92306,0.322927 1.11006,0.135927 0.25824,-0.258239 2.833314,-9.419922 2.893201,-10.293515 0.0063,-0.09167 -0.588573,-0.166667 -1.321907,-0.166667 -0.733334,0 -1.333334,-0.3 -1.333334,-0.666666 0,-0.370371 1.77778,-0.666667 4.000001,-0.666667 3.847793,0 5.59288,1.014189 2.501226,1.453633 -1.2086,0.171789 -1.714553,0.987456 -2.61332,4.213034 -0.613,2.2 -1.138545,4.591666 -1.167893,5.314814 -0.05107,1.258633 0.0093,1.252129 1.413668,-0.152198 0.806859,-0.806858 1.938665,-2.748525 2.515125,-4.314816 0.873474,-2.373296 1.378835,-2.884331 3.032987,-3.067042 l 1.984872,-0.219242 -1.440571,1.356515 c -0.792314,0.746083 -1.639374,2.261632 -1.882348,3.367887 -0.451245,2.054519 -3.742133,5.380749 -5.323573,5.380749 -0.482633,0 -1.0502,0.45 -1.261259,1 -0.261015,0.680192 0.036,1 0.928672,1 0.721827,0 1.312414,0.3 1.312414,0.666666 0,0.371092 -1.790894,0.666667 -4.039347,0.666667 -2.523134,0 -3.884687,-0.250241 -3.62732,-0.666667 z"
       id="path1780" />
  </g>
</svg>
