<?xml version="1.0" encoding="UTF-8" standalone="no"?>
<svg
   xmlns:dc="http://purl.org/dc/elements/1.1/"
   xmlns:cc="http://creativecommons.org/ns#"
   xmlns:rdf="http://www.w3.org/1999/02/22-rdf-syntax-ns#"
   xmlns:svg="http://www.w3.org/2000/svg"
   xmlns="http://www.w3.org/2000/svg"
   xmlns:sodipodi="http://sodipodi.sourceforge.net/DTD/sodipodi-0.dtd"
   xmlns:inkscape="http://www.inkscape.org/namespaces/inkscape"
   version="1.1"
   id="svg1852"
   width="155.67247"
   height="82.458023"
   viewBox="0 0 155.67247 82.458022"
   sodipodi:docname="A5.svg"
   inkscape:version="1.0.1 (c497b03c, 2020-09-10)">
  <metadata
     id="metadata1858">
    <rdf:RDF>
      <cc:Work
         rdf:about="">
        <dc:format>image/svg+xml</dc:format>
        <dc:type
           rdf:resource="http://purl.org/dc/dcmitype/StillImage" />
        <dc:title></dc:title>
      </cc:Work>
    </rdf:RDF>
  </metadata>
  <defs
     id="defs1856" />
  <sodipodi:namedview
     pagecolor="#ffffff"
     bordercolor="#666666"
     borderopacity="1"
     objecttolerance="10"
     gridtolerance="10"
     guidetolerance="10"
     inkscape:pageopacity="0"
     inkscape:pageshadow="2"
     inkscape:window-width="731"
     inkscape:window-height="480"
     id="namedview1854"
     showgrid="false"
     inkscape:pagecheckerboard="true"
     fit-margin-top="0"
     fit-margin-left="0"
     fit-margin-right="0"
     fit-margin-bottom="0"
     inkscape:zoom="1.1025112"
     inkscape:cx="257.18669"
     inkscape:cy="47.895436"
     inkscape:window-x="0"
     inkscape:window-y="25"
     inkscape:window-maximized="0"
     inkscape:current-layer="g1860" />
  <g
     inkscape:groupmode="layer"
     inkscape:label="Image"
     id="g1860"
     transform="translate(124.5724,-33.92405)">
    <path
       style="fill:#1e1e1e;stroke-width:0.666667"
       d="m -5.00798,115.95019 c -2.78567,-1.17209 -2.64813,-4.23017 0.31071,-6.90788 1.03775,-0.93916 1.25073,-1.7624 0.97936,-3.78561 -0.46929,-3.49879 0.20881,-5.821915 1.85152,-6.343295 3.08789,-0.980053 4.36142,2.814535 1.96645,5.859225 -1.69472,2.15449 -1.68182,2.32904 0.39795,5.38969 l 1.73125,2.54778 1.60207,-2.35766 c 1.70757,-2.51291 2.01811,-3.76172 0.9354,-3.76172 -0.36666,0 -0.66667,-0.3 -0.66667,-0.66667 0,-0.36667 1.20001,-0.66667 2.66668,-0.66667 2.73116,0 3.62972,0.92598 1.45133,1.49564 -0.66843,0.1748 -2.04103,1.7268 -3.05025,3.44889 -1.46593,2.50141 -1.67433,3.32458 -1.03638,4.09327 1.16955,1.40921 2.99075,1.17521 4.18568,-0.5378 0.57548,-0.825 1.06208,-1.125 1.08131,-0.66666 0.0193,0.45833 -0.59102,1.45933 -1.35613,2.22443 -1.06414,1.06413 -1.80845,1.27278 -3.16668,0.88769 -2.10498,-0.59681 -3.73013,-0.61085 -6.44222,-0.0556 -1.09999,0.22519 -2.64861,0.13653 -3.44138,-0.19703 z M 0,114.66667 c 0.71159,-0.45094 0.48794,-1.13903 -1.06864,-3.28782 -2.14269,-2.9579 -3.49795,-2.74667 -3.49795,0.5452 0,2.82976 2.27398,4.19547 4.56659,2.74262 z m 0.10006,-12.82425 c 0,-1.22067 -0.34735,-1.918368 -0.95506,-1.918368 -1.19215,0 -1.94374,2.218328 -1.36712,4.035098 0.62087,1.95621 2.32218,0.40543 2.32218,-2.11673 z m -123.33332,13.41496 c 0,-0.36666 0.75,-0.66666 1.66667,-0.66666 2.33534,0 2.05085,-1.47476 -0.51443,-2.66667 -4.05912,-1.886 -2.98226,-6.52416 1.95227,-8.40868 2.77523,-1.05987 3.98381,-2.92465 1.89549,-2.92465 -0.55,0 -1,-0.3 -1,-0.666668 0,-0.370374 1.77778,-0.666667 4,-0.666667 2.22223,0 4,0.296293 4,0.666667 0,0.366668 -0.75,0.666668 -1.66666,0.666668 -1.94104,0 -2.31032,1.81358 -0.5,2.45558 2.02671,0.71876 3.5,2.36508 3.5,3.9111 0,1.86565 -2.525,4.35442 -5.39983,5.32237 -2.52994,0.85183 -3.3649,2.31095 -1.3224,2.31095 0.76389,0 1.38889,0.3 1.38889,0.66666 0,0.37037 -1.77777,0.66667 -4,0.66667 -2.22222,0 -4,-0.2963 -4,-0.66667 z m 4.61997,-7.05172 c 0.45768,-2.04512 0.68111,-3.86942 0.49652,-4.05402 -0.70852,-0.70852 -2.97129,1.14574 -3.77965,3.09728 -0.73535,1.7753 -0.69019,2.21469 0.34523,3.35881 0.65519,0.72397 1.39701,1.31632 1.64851,1.31632 0.25149,0 0.83171,-1.67327 1.28939,-3.71839 z m 5.13807,1.33916 c 1.28067,-1.95454 0.95247,-5.20454 -0.55443,-5.49017 -0.83816,-0.15887 -1.32155,0.52789 -1.87301,2.66097 -0.40881,1.5813 -0.88776,3.37524 -1.06433,3.98651 -0.47991,1.66139 2.23434,0.76179 3.49177,-1.15731 z m 38.575295,5.71256 c 0.226614,-0.36666 0.994319,-0.66666 1.706013,-0.66666 1.764928,0 1.626013,-1.2136 -0.31356,-2.73928 -1.31804,-1.03676 -1.648213,-1.98474 -1.833333,-5.26382 -0.194821,-3.45081 -0.0658,-3.99916 0.94088,-3.99812 1.305647,0.001 1.398267,0.36979 1.196868,4.7607 -0.126568,2.75939 0.765952,4.66658 1.731839,3.7007 0.25824,-0.25824 2.833313,-9.41992 2.893201,-10.29352 0.0063,-0.0917 -0.588575,-0.16666 -1.321909,-0.16666 -0.733332,0 -1.333331,-0.3 -1.333331,-0.666668 0,-0.370374 1.777779,-0.666667 3.999999,-0.666667 3.847792,0 5.592879,1.014185 2.501227,1.453635 -1.208601,0.17178 -1.714555,0.98745 -2.61332,4.21303 -0.613,2.2 -1.138547,4.59167 -1.167894,5.31481 -0.05107,1.25864 0.0093,1.25213 1.413666,-0.1522 0.806861,-0.80685 1.938667,-2.74852 2.515127,-4.31481 0.873474,-2.37329 1.378833,-2.88433 3.032987,-3.06704 l 1.984874,-0.21924 -1.440575,1.35651 c -0.792312,0.74608 -1.639372,2.26163 -1.882346,3.36789 -0.451246,2.05452 -3.742133,5.38075 -5.323573,5.38075 -0.482633,0 -1.0502,0.45 -1.26126,1 -0.261013,0.68019 0.036,1 0.928673,1 0.721827,0 1.312414,0.3 1.312414,0.66666 0,0.37109 -1.790893,0.66667 -4.039347,0.66667 -2.523133,0 -3.884687,-0.25024 -3.62732,-0.66667 z m 48.999995,0 c 0,-0.36666 0.75,-0.66666 1.66667,-0.66666 2.33534,0 2.05085,-1.47476 -0.51443,-2.66667 -4.05912,-1.886 -2.98226,-6.52416 1.95226,-8.40868 2.77524,-1.05987 3.98382,-2.92465 1.8955,-2.92465 -0.55,0 -1,-0.3 -1,-0.666668 0,-0.370374 1.77778,-0.666667 4,-0.666667 2.22222,0 4,0.296293 4,0.666667 0,0.366668 -0.75,0.666668 -1.66666,0.666668 -1.94104,0 -2.31032,1.81358 -0.5,2.45558 2.02671,0.71876 3.5,2.36508 3.5,3.9111 0,1.86565 -2.525,4.35442 -5.39983,5.32237 -2.52994,0.85183 -3.3649,2.31095 -1.32239,2.31095 0.76388,0 1.38888,0.3 1.38888,0.66666 0,0.37037 -1.77778,0.66667 -4,0.66667 -2.22222,0 -4,-0.2963 -4,-0.66667 z m 4.61997,-7.05172 c 0.45767,-2.04512 0.68111,-3.86942 0.49652,-4.05402 -0.70853,-0.70852 -2.97129,1.14574 -3.77965,3.09728 -0.73535,1.7753 -0.69019,2.21469 0.34523,3.35881 0.65519,0.72397 1.39701,1.31632 1.64851,1.31632 0.25148,0 0.83171,-1.67327 1.28939,-3.71839 z m 5.13807,1.33916 c 1.28068,-1.95454 0.95247,-5.20454 -0.55443,-5.49017 -0.83815,-0.15887 -1.32155,0.52789 -1.87301,2.66097 -0.40881,1.5813 -0.88776,3.37524 -1.06433,3.98651 -0.47991,1.66139 2.23434,0.76179 3.49177,-1.15731 z m 31.90863,5.71256 c 0.2266,-0.36666 0.99431,-0.66666 1.70601,-0.66666 1.76492,0 1.62601,-1.2136 -0.31357,-2.73928 -1.31804,-1.03676 -1.64821,-1.98474 -1.83332,-5.26382 -0.19483,-3.45081 -0.0658,-3.99916 0.94087,-3.99812 1.30565,0.001 1.39828,0.36979 1.19687,4.7607 -0.12657,2.75939 0.76595,4.66658 1.73184,3.7007 0.25824,-0.25824 2.83331,-9.41992 2.8932,-10.29352 0.006,-0.0917 -0.58858,-0.16666 -1.32191,-0.16666 -0.73333,0 -1.33333,-0.3 -1.33333,-0.666668 0,-0.370374 1.77778,-0.666667 4,-0.666667 3.84779,0 5.59288,1.014185 2.50122,1.453635 -1.2086,0.17178 -1.71455,0.98745 -2.61332,4.21303 -0.613,2.2 -1.13854,4.59167 -1.16789,5.31481 -0.0511,1.25864 0.009,1.25213 1.41367,-0.1522 0.80686,-0.80685 1.93866,-2.74852 2.51512,-4.31481 0.87348,-2.37329 1.37884,-2.88433 3.03299,-3.06704 l 1.98488,-0.21924 -1.44058,1.35651 c -0.79231,0.74608 -1.63937,2.26163 -1.88235,3.36789 -0.45124,2.05452 -3.74213,5.38075 -5.32357,5.38075 -0.48263,0 -1.0502,0.45 -1.26126,1 -0.26101,0.68019 0.036,1 0.92867,1 0.72183,0 1.31242,0.3 1.31242,0.66666 0,0.37109 -1.7909,0.66667 -4.03935,0.66667 -2.52313,0 -3.88469,-0.25024 -3.62731,-0.66667 z M -116.56659,90.631211 c 5.64517,-3.305986 59.052198,-32.040494 59.551654,-32.040494 0.36547,0 2.94086,1.316402 5.72309,2.925337 2.78222,1.608935 14.65859,8.094931 26.391916,14.413325 C 0.86718,89.804951 2.29877,90.614251 1.85733,91.055671 1.66627,91.246751 -11.58451,84.297518 -27.58881,75.61294 -43.593126,66.928362 -56.769306,59.92058 -56.869206,60.040091 c -0.0999,0.119511 -2.497645,7.192293 -5.328306,15.717293 -2.830659,8.525001 -5.398287,15.500001 -5.705846,15.500001 -0.307553,0 1.69924,-6.768158 4.459546,-15.04035 2.760313,-8.272192 4.869413,-15.18968 4.6869,-15.372195 -0.18252,-0.182515 -13.063039,6.585642 -28.623393,15.04035 -15.560345,8.454707 -28.717855,15.363075 -29.238915,15.351921 -0.78101,-0.01671 -0.77177,-0.123113 0.0526,-0.6059 z m 55.085598,-46.286588 c -2.973519,-6.661666 -3.815033,-9.421106 -2.456093,-8.053906 0.346227,0.348333 1.817914,3.304768 3.270406,6.569856 l 2.640907,5.936524 1.410896,-3.269857 c 3.02535,-7.011504 4.60997,-9.932268 4.66754,-8.60319 0.064,1.477711 -5.332483,14.333334 -6.016796,14.333334 -0.237199,0 -1.819786,-3.110742 -3.51686,-6.912761 z m -23.752266,5.579427 c 0,-0.366666 0.750001,-0.666666 1.666667,-0.666666 2.335341,0 2.050846,-1.474757 -0.514427,-2.666667 -4.059119,-1.885999 -2.982266,-6.524163 1.95226,-8.408677 2.77524,-1.059872 3.983821,-2.924657 1.895501,-2.924657 -0.55,0 -1.000001,-0.3 -1.000001,-0.666667 0,-0.37037 1.777781,-0.666666 4.000001,-0.666666 2.22222,0 3.999999,0.296296 3.999999,0.666666 0,0.366667 -0.75,0.666667 -1.666667,0.666667 -1.941039,0 -2.310319,1.813584 -0.499999,2.45559 2.026714,0.718748 3.499999,2.365078 3.499999,3.911096 0,1.865648 -2.524993,4.354421 -5.399826,5.322369 -2.529939,0.851824 -3.364899,2.310946 -1.322394,2.310946 0.763888,0 1.388888,0.3 1.388888,0.666666 0,0.370371 -1.777781,0.666667 -4.000001,0.666667 -2.22222,0 -4,-0.296296 -4,-0.666667 z m 4.619967,-7.051725 c 0.457674,-2.045115 0.681106,-3.869421 0.49652,-4.054013 -0.708527,-0.708521 -2.971293,1.145731 -3.779646,3.097274 -0.735353,1.775296 -0.690194,2.214691 0.345227,3.358811 0.655185,0.723976 1.397012,1.31632 1.648506,1.31632 0.251486,0 0.831713,-1.673276 1.289393,-3.718392 z m 5.138073,1.339166 c 1.280673,-1.954548 0.952468,-5.204548 -0.554433,-5.490176 -0.838154,-0.15887 -1.321555,0.527887 -1.873013,2.660967 -0.408807,1.581305 -0.887754,3.375239 -1.064327,3.986517 -0.479907,1.661388 2.234341,0.761784 3.491773,-1.157308 z m 31.908632,5.712559 c 0.22661,-0.366666 0.99432,-0.666666 1.70601,-0.666666 1.76493,0 1.62601,-1.213603 -0.31356,-2.739271 -1.31804,-1.03677 -1.64821,-1.98475 -1.83333,-5.263828 -0.19482,-3.450808 -0.0658,-3.999164 0.94088,-3.998116 1.30564,0.0013 1.39826,0.369788 1.19686,4.760698 -0.12656,2.75939 0.76596,4.666583 1.73184,3.700698 0.25824,-0.258239 2.83332,-9.419922 2.8932,-10.293515 0.006,-0.09167 -0.58857,-0.166667 -1.3219,-0.166667 -0.73334,0 -1.33334,-0.3 -1.33334,-0.666667 0,-0.37037 1.77778,-0.666666 3.999996,-0.666666 3.8478,0 5.59288,1.014188 2.50123,1.453632 -1.2086,0.17179 -1.71455,0.987457 -2.61332,4.213035 -0.612996,2.2 -1.138546,4.591666 -1.167886,5.314814 -0.0511,1.258632 0.009,1.252129 1.413656,-0.152198 0.80686,-0.806858 1.93867,-2.748525 2.51513,-4.314816 0.87347,-2.373296 1.37883,-2.884331 3.03299,-3.067042 l 1.98487,-0.219242 -1.44057,1.356515 c -0.79232,0.746083 -1.63938,2.261632 -1.88235,3.367887 -0.45125,2.054519 -3.74213,5.380748 -5.323566,5.380748 -0.48264,0 -1.0502,0.450001 -1.26126,1.000001 -0.26102,0.680192 0.036,1 0.92867,1 0.72183,0 1.312406,0.3 1.312406,0.666666 0,0.371092 -1.790886,0.666667 -4.039336,0.666667 -2.52314,0 -3.88469,-0.250241 -3.62732,-0.666667 z"
       id="path1864" />
  </g>
</svg>
