<?xml version="1.0" encoding="UTF-8" standalone="no"?>
<svg
   xmlns:dc="http://purl.org/dc/elements/1.1/"
   xmlns:cc="http://creativecommons.org/ns#"
   xmlns:rdf="http://www.w3.org/1999/02/22-rdf-syntax-ns#"
   xmlns:svg="http://www.w3.org/2000/svg"
   xmlns="http://www.w3.org/2000/svg"
   xmlns:sodipodi="http://sodipodi.sourceforge.net/DTD/sodipodi-0.dtd"
   xmlns:inkscape="http://www.inkscape.org/namespaces/inkscape"
   version="1.1"
   id="svg62"
   width="121.33332"
   height="82.665726"
   viewBox="0 0 121.33332 82.665727"
   sodipodi:docname="A6.svg"
   inkscape:version="1.0.1 (c497b03c, 2020-09-10)">
  <metadata
     id="metadata68">
    <rdf:RDF>
      <cc:Work
         rdf:about="">
        <dc:format>image/svg+xml</dc:format>
        <dc:type
           rdf:resource="http://purl.org/dc/dcmitype/StillImage" />
        <dc:title></dc:title>
      </cc:Work>
    </rdf:RDF>
  </metadata>
  <defs
     id="defs66" />
  <sodipodi:namedview
     pagecolor="#ffffff"
     bordercolor="#666666"
     borderopacity="1"
     objecttolerance="10"
     gridtolerance="10"
     guidetolerance="10"
     inkscape:pageopacity="0"
     inkscape:pageshadow="2"
     inkscape:window-width="738"
     inkscape:window-height="480"
     id="namedview64"
     showgrid="false"
     fit-margin-top="0"
     fit-margin-left="0"
     fit-margin-right="0"
     fit-margin-bottom="0"
     inkscape:pagecheckerboard="true"
     inkscape:zoom="1.2040503"
     inkscape:cx="167.22997"
     inkscape:cy="11.17522"
     inkscape:window-x="0"
     inkscape:window-y="25"
     inkscape:window-maximized="0"
     inkscape:current-layer="g70" />
  <g
     inkscape:groupmode="layer"
     inkscape:label="Image"
     id="g70"
     transform="translate(106.22936,-73.984456)">
    <path
       style="fill:#1e1e1e;stroke-width:0.666667"
       d="m -17.192218,149.62981 c -1.72373,-3.86172 -2.99826,-7.38672 -2.83228,-7.83333 0.29909,-0.80483 5.79513,10.31125 5.79513,11.72102 0,1.39937 1.10045,-0.51647 3.6679,-6.38567 1.4081103,-3.21894 2.8076103,-5.6052 3.1099903,-5.30281 0.55039,0.55038 -5.4112203,14.81939 -6.1922903,14.82116 -0.22793,5.2e-4 -1.82473,-3.15865 -3.54845,-7.02037 z m -73.037147,5.68798 c 0,-0.36667 0.75,-0.66667 1.666666,-0.66667 2.335342,0 2.050845,-1.47476 -0.514428,-2.66667 -4.05912,-1.886 -2.982264,-6.52416 1.952265,-8.40868 2.775234,-1.05986 3.983818,-2.92465 1.895496,-2.92465 -0.55,0 -1,-0.3 -1,-0.66666 0,-0.37038 1.777778,-0.66667 4,-0.66667 2.222222,0 4,0.29629 4,0.66667 0,0.36666 -0.75,0.66666 -1.666666,0.66666 -1.94104,0 -2.310317,1.81359 -0.5,2.45559 2.026716,0.71875 3.5,2.36508 3.5,3.9111 0,1.86564 -2.524992,4.35442 -5.399826,5.32236 -2.529943,0.85183 -3.364898,2.31095 -1.322396,2.31095 0.763888,0 1.388888,0.3 1.388888,0.66667 0,0.37037 -1.777778,0.66667 -4,0.66667 -2.222221,0 -3.999999,-0.2963 -3.999999,-0.66667 z m 4.619966,-7.05173 c 0.457677,-2.04511 0.681109,-3.86942 0.496517,-4.05401 -0.708521,-0.70852 -2.971288,1.14573 -3.779644,3.09727 -0.735352,1.7753 -0.69019,2.21469 0.345225,3.35881 0.655189,0.72398 1.397017,1.31632 1.648507,1.31632 0.25149,0 0.831718,-1.67327 1.289395,-3.71839 z m 5.138074,1.33917 c 1.28067,-1.95455 0.952465,-5.20455 -0.554431,-5.49018 -0.838158,-0.15887 -1.321556,0.52789 -1.873014,2.66097 -0.408809,1.58131 -0.887759,3.37524 -1.064332,3.98651 -0.479906,1.6614 2.23434,0.76179 3.491777,-1.1573 z m 38.575292,5.71256 c 0.226613,-0.36667 0.99432,-0.66667 1.706013,-0.66667 1.764927,0 1.626013,-1.2136 -0.31356,-2.73927 -1.31804,-1.03677 -1.648213,-1.98475 -1.833333,-5.26383 -0.19482,-3.45081 -0.0658,-3.99916 0.94088,-3.99811 1.305647,0.001 1.398267,0.36978 1.196867,4.7607 -0.126567,2.75938 0.765953,4.66658 1.731839,3.70069 0.25824,-0.25824 2.833314,-9.41992 2.8932,-10.29351 0.0063,-0.0917 -0.588573,-0.16667 -1.321906,-0.16667 -0.733334,0 -1.333334,-0.3 -1.333334,-0.66666 0,-0.37038 1.77778,-0.66667 4,-0.66667 3.847794,0 5.592879,1.01419 2.501227,1.45363 -1.2086,0.17179 -1.714553,0.98746 -2.61332,4.21303 -0.613,2.2 -1.138547,4.59167 -1.167893,5.31482 -0.05107,1.25863 0.0093,1.25212 1.413666,-0.1522 0.80686,-0.80686 1.938667,-2.74852 2.515127,-4.31482 0.873473,-2.37329 1.378833,-2.88433 3.032982,-3.06704 l 1.98488,-0.21924 -1.44058,1.35652 c -0.79231,0.74608 -1.639369,2.26162 -1.882342,3.36788 -0.451247,2.05452 -3.742133,5.38075 -5.323573,5.38075 -0.482634,0 -1.0502,0.45 -1.26126,1 -0.261014,0.6802 0.036,1 0.928673,1 0.721827,0 1.312413,0.3 1.312413,0.66667 0,0.37109 -1.790893,0.66667 -4.039346,0.66667 -2.523133,0 -3.884687,-0.25024 -3.62732,-0.66667 z m 43.6666653,0 c 0,-0.36667 0.75,-0.66667 1.66667,-0.66667 2.33534,0 2.05084,-1.47476 -0.51443,-2.66667 -4.05912,-1.886 -2.98227002,-6.52416 1.95226,-8.40868 2.77524,-1.05986 3.98382,-2.92465 1.8955,-2.92465 -0.55,0 -1,-0.3 -1,-0.66666 0,-0.37038 1.77778,-0.66667 4,-0.66667 2.2222197,0 3.9999997,0.29629 3.9999997,0.66667 0,0.36666 -0.75,0.66666 -1.66667,0.66666 -1.94104,0 -2.3103197,1.81359 -0.5,2.45559 2.02672,0.71875 3.5,2.36508 3.5,3.9111 0,1.86564 -2.52499,4.35442 -5.3998197,5.32236 -2.52994,0.85183 -3.3649,2.31095 -1.3224,2.31095 0.76389,0 1.38889,0.3 1.38889,0.66667 0,0.37037 -1.77778,0.66667 -4,0.66667 -2.22222,0 -4,-0.2963 -4,-0.66667 z m 4.61997,-7.05173 c 0.45767,-2.04511 0.6811,-3.86942 0.49652,-4.05401 -0.70853,-0.70852 -2.9713,1.14573 -3.77965,3.09727 -0.73535,1.7753 -0.69019,2.21469 0.34523,3.35881 0.65518,0.72398 1.39701,1.31632 1.6485,1.31632 0.25149,0 0.83172,-1.67327 1.2894,-3.71839 z m 5.1380697,1.33917 c 1.28067,-1.95455 0.95247,-5.20455 -0.55443,-5.49018 -0.83816,-0.15887 -1.3215597,0.52789 -1.8730197,2.66097 -0.4088,1.58131 -0.88775,3.37524 -1.06432,3.98651 -0.47991,1.6614 2.2343397,0.76179 3.4917697,-1.1573 z m -105.758037,1.71256 v -2.66667 h -5.999995 c -3.55556,0 -6,-0.27161 -6,-0.66667 0,-0.4 2.66666,-0.66666 6.666661,-0.66666 h 6.666667 v 3.33333 c 0,1.83333 -0.3,3.33333 -0.666667,3.33333 -0.366666,0 -0.666666,-1.2 -0.666666,-2.66666 z m 2.712333,-20.85453 c 0.575117,-0.44668 9.365759,-7.56214 19.53476,-15.81214 10.168999,-8.25 18.759612,-14.999998 19.090246,-14.999998 0.330626,0 8.74088,6.599998 18.689446,14.666668 9.948562,8.06667 18.737402,15.18499 19.530752,15.81851 0.79335,0.63351 1.09381,1.15851 0.66769,1.16666 -0.42612,0.008 -9.27612,-6.88215 -19.666662,-15.31179 -10.390546,-8.42964 -19.0419,-15.32311 -19.225233,-15.31883 -0.183333,0.004 -8.820173,6.90127 -19.192975,15.32662 -10.372803,8.42536 -19.222803,15.30929 -19.666666,15.29763 -0.508582,-0.0133 -0.420331,-0.32153 0.238642,-0.83333 z m 35.004626,-39.824334 c 5.398753,-0.569777 7.25102,-1.496282 8.36422,-4.183791 0.641653,-1.54909 0.589213,-2.314058 -0.2842,-4.145629 -1.217447,-2.553002 -4.00412,-3.648451 -9.29698,-3.654665 -1.741667,-0.002 -3.166667,-0.303718 -3.166667,-0.670385 0,-0.878399 6.317233,-0.84883 9.53468,0.04463 4.377033,1.215467 6.33042,6.05419 4.021807,9.962368 -1.553094,2.629179 -3.550034,3.340207 -9.087853,3.235816 l -4.801967,-0.09052 z m -27.050293,-0.65447 c 0,-0.366667 0.75,-0.666667 1.666667,-0.666667 2.335342,0 2.050845,-1.474756 -0.514428,-2.666666 -4.05912,-1.885999 -2.982265,-6.524163 1.952264,-8.408677 2.775234,-1.059872 3.983818,-2.924656 1.895497,-2.924656 -0.55,0 -1,-0.3 -1,-0.666667 0,-0.370371 1.777778,-0.666667 4,-0.666667 2.222222,0 4,0.296296 4,0.666667 0,0.366667 -0.75,0.666667 -1.666667,0.666667 -1.94104,0 -2.310316,1.813584 -0.5,2.455589 2.026716,0.718749 3.5,2.365079 3.5,3.911096 0,1.865648 -2.524992,4.354421 -5.399826,5.322369 -2.529942,0.851824 -3.364898,2.310945 -1.322396,2.310945 0.763889,0 1.388889,0.3 1.388889,0.666667 0,0.370371 -1.777778,0.666667 -4,0.666667 -2.222222,0 -4,-0.296296 -4,-0.666667 z m 4.619967,-7.051724 c 0.457676,-2.045116 0.681109,-3.869422 0.496517,-4.054014 -0.708521,-0.708521 -2.971289,1.145731 -3.779645,3.097274 -0.735352,1.775296 -0.69019,2.214691 0.345225,3.358811 0.655189,0.723976 1.397017,1.31632 1.648508,1.31632 0.25149,0 0.831718,-1.673276 1.289395,-3.718391 z m 5.138074,1.339165 c 1.28067,-1.954548 0.952465,-5.204548 -0.554431,-5.490175 -0.838159,-0.15887 -1.321556,0.527886 -1.873014,2.660966 -0.408809,1.581306 -0.887759,3.375239 -1.064332,3.986517 -0.479907,1.661388 2.23434,0.761784 3.491777,-1.157308 z m 37.241958,5.712559 c 0.226613,-0.366667 0.99432,-0.666667 1.706013,-0.666667 1.764927,0 1.626014,-1.213602 -0.31356,-2.73927 -1.31804,-1.03677 -1.648213,-1.98475 -1.833333,-5.263828 -0.19482,-3.450808 -0.0658,-3.999164 0.94088,-3.998116 1.305647,0.0013 1.398267,0.369788 1.196867,4.760699 -0.126567,2.759389 0.765953,4.666582 1.73184,3.700697 0.25824,-0.258239 2.833313,-9.419921 2.8932,-10.293515 0.0063,-0.09167 -0.588574,-0.166666 -1.321907,-0.166666 -0.733333,0 -1.333333,-0.3 -1.333333,-0.666667 0,-0.370371 1.77778,-0.666667 3.999995,-0.666667 3.8478,0 5.59288,1.014189 2.50123,1.453633 -1.2086,0.171789 -1.71455,0.987456 -2.61332,4.213034 -0.612999,2.2 -1.138545,4.591666 -1.167892,5.314814 -0.05107,1.258632 0.0093,1.252129 1.413662,-0.152198 0.80686,-0.806858 1.93867,-2.748525 2.51513,-4.314815 0.87347,-2.373296 1.37883,-2.884332 3.03299,-3.067042 l 1.98487,-0.219242 -1.44057,1.356514 c -0.79232,0.746083 -1.63938,2.261632 -1.88235,3.367887 -0.45125,2.054519 -3.74213,5.380748 -5.323572,5.380748 -0.482633,0 -1.0502,0.45 -1.26126,1 -0.261013,0.680193 0.036,1 0.928673,1 0.721829,0 1.312409,0.3 1.312409,0.666667 0,0.371092 -1.790889,0.666667 -4.039342,0.666667 -2.523133,0 -3.884687,-0.250241 -3.62732,-0.666667 z"
       id="path74" />
  </g>
</svg>
