<?xml version="1.0" encoding="UTF-8" standalone="no"?>
<svg
   xmlns:dc="http://purl.org/dc/elements/1.1/"
   xmlns:cc="http://creativecommons.org/ns#"
   xmlns:rdf="http://www.w3.org/1999/02/22-rdf-syntax-ns#"
   xmlns:svg="http://www.w3.org/2000/svg"
   xmlns="http://www.w3.org/2000/svg"
   xmlns:sodipodi="http://sodipodi.sourceforge.net/DTD/sodipodi-0.dtd"
   xmlns:inkscape="http://www.inkscape.org/namespaces/inkscape"
   version="1.1"
   id="svg62"
   width="72.581558"
   height="82.140953"
   viewBox="0 0 72.581559 82.140954"
   sodipodi:docname="A7.svg"
   inkscape:version="1.0.1 (c497b03c, 2020-09-10)">
  <metadata
     id="metadata68">
    <rdf:RDF>
      <cc:Work
         rdf:about="">
        <dc:format>image/svg+xml</dc:format>
        <dc:type
           rdf:resource="http://purl.org/dc/dcmitype/StillImage" />
        <dc:title></dc:title>
      </cc:Work>
    </rdf:RDF>
  </metadata>
  <defs
     id="defs66" />
  <sodipodi:namedview
     pagecolor="#ffffff"
     bordercolor="#666666"
     borderopacity="1"
     objecttolerance="10"
     gridtolerance="10"
     guidetolerance="10"
     inkscape:pageopacity="0"
     inkscape:pageshadow="2"
     inkscape:window-width="738"
     inkscape:window-height="480"
     id="namedview64"
     showgrid="false"
     inkscape:pagecheckerboard="true"
     fit-margin-top="0"
     fit-margin-left="0"
     fit-margin-right="0"
     fit-margin-bottom="0"
     inkscape:zoom="1.8809149"
     inkscape:cx="53.860168"
     inkscape:cy="32.304593"
     inkscape:window-x="0"
     inkscape:window-y="25"
     inkscape:window-maximized="0"
     inkscape:current-layer="g70" />
  <g
     inkscape:groupmode="layer"
     inkscape:label="Image"
     id="g70"
     transform="translate(-31.333333,-12.666666)">
    <path
       style="fill:#1b1b1b;stroke-width:0.666667"
       d="m 71.051879,88.345024 c -1.731834,-3.879873 -3.012987,-7.41972 -2.847014,-7.866333 0.299094,-0.804833 5.795133,10.311246 5.795133,11.72102 0,1.502186 1.24228,-0.653354 3.690934,-6.404307 1.414593,-3.322346 2.751286,-5.619853 3.078986,-5.292153 0.554554,0.554553 -4.587853,12.91468 -5.93262,14.259446 -0.404406,0.404407 -1.785246,-1.936613 -3.785419,-6.417673 z m -23.718547,5.654973 c 0,-0.366666 0.75,-0.666666 1.666667,-0.666666 2.335342,0 2.050845,-1.47476 -0.514428,-2.666667 -4.05912,-1.886 -2.982265,-6.52416 1.952265,-8.40868 2.775234,-1.059866 3.983818,-2.924653 1.895496,-2.924653 -0.55,0 -1,-0.3 -1,-0.666667 0,-0.370373 1.777778,-0.666666 4,-0.666666 2.222222,0 4,0.296293 4,0.666666 0,0.366667 -0.75,0.666667 -1.666667,0.666667 -1.941039,0 -2.310316,1.813587 -0.5,2.455587 2.026716,0.718753 3.5,2.36508 3.5,3.911099 0,1.865647 -2.524992,4.35442 -5.399825,5.322367 -2.529943,0.851827 -3.364898,2.310947 -1.322396,2.310947 0.763888,0 1.388888,0.3 1.388888,0.666666 0,0.370374 -1.777778,0.666667 -4,0.666667 -2.222222,0 -4,-0.296293 -4,-0.666667 z m 4.619967,-7.051726 c 0.457677,-2.045113 0.681109,-3.86942 0.496517,-4.054013 -0.708521,-0.70852 -2.971288,1.145733 -3.779644,3.097273 -0.735352,1.7753 -0.69019,2.214693 0.345224,3.358813 0.65519,0.723973 1.397018,1.31632 1.648508,1.31632 0.25149,0 0.831718,-1.673273 1.289395,-3.718393 z m 5.138074,1.339166 c 1.28067,-1.954546 0.952465,-5.204546 -0.554431,-5.490173 -0.838158,-0.158873 -1.321556,0.527887 -1.873014,2.660967 -0.408809,1.581306 -0.887759,3.37524 -1.064332,3.986513 -0.479906,1.661393 2.23434,0.761787 3.491777,-1.157307 z m 31.908625,5.71256 c 0.226613,-0.366666 0.99432,-0.666666 1.706013,-0.666666 1.764927,0 1.626014,-1.2136 -0.31356,-2.739274 -1.31804,-1.036766 -1.648213,-1.984746 -1.833333,-5.263826 -0.19482,-3.450807 -0.0658,-3.99916 0.94088,-3.998113 1.305647,0.0013 1.398267,0.369786 1.196867,4.760699 -0.126567,2.759387 0.765953,4.66658 1.73184,3.700694 0.25824,-0.25824 2.833313,-9.41992 2.8932,-10.293513 0.0063,-0.09167 -0.588574,-0.166667 -1.321907,-0.166667 -0.733333,0 -1.333333,-0.3 -1.333333,-0.666667 0,-0.370373 1.77778,-0.666666 4,-0.666666 3.838015,0 5.591815,1.011346 2.520773,1.453633 -1.22938,0.177053 -1.721207,1.0857 -2.91188,5.3797 -0.78796,2.841666 -1.218807,5.166666 -0.957433,5.166666 0.957573,0 3.035966,-2.872806 4.027313,-5.566653 0.842502,-2.289393 1.360562,-2.805073 3.003022,-2.989246 1.91752,-0.215014 1.94414,-0.18108 0.78448,1 -0.66021,0.672413 -1.86021,2.572566 -2.66666,4.222566 -0.956469,1.956933 -2.211855,3.347687 -3.610642,4 -2.55288,1.190507 -3.38398,2.666667 -1.501387,2.666667 0.721827,0 1.312414,0.3 1.312414,0.666666 0,0.371094 -1.790894,0.666667 -4.039347,0.666667 -2.523133,0 -3.884687,-0.25024 -3.62732,-0.666667 z m -45.666666,-4 v -2.666666 h -5.999999 c -3.555556,0 -6,-0.271607 -6,-0.666667 0,-0.4 2.666666,-0.666667 6.666666,-0.666667 h 6.666667 v 3.333334 c 0,1.833333 -0.3,3.333333 -0.666667,3.333333 -0.366667,0 -0.666667,-1.2 -0.666667,-2.666667 z m 24.2875,-35.666665 c 4.4e-4,-8.8 0.0953,-12.307795 0.210807,-7.795101 0.115506,4.512694 0.115153,11.712694 -6.67e-4,16 -0.116067,4.287307 -0.210573,0.5951 -0.21014,-8.204899 z M 63.716961,29.321136 c 5.398751,-0.569778 7.251018,-1.496282 8.364218,-4.183791 0.641653,-1.54909 0.589213,-2.314058 -0.2842,-4.14563 -1.217447,-2.553002 -4.00412,-3.64845 -9.29698,-3.654664 -1.741667,-0.002 -3.166667,-0.303718 -3.166667,-0.670385 0,-0.878399 6.317232,-0.84883 9.53468,0.04463 4.377033,1.215466 6.33042,6.05419 4.021806,9.962368 -1.553093,2.629179 -3.550033,3.340207 -9.087855,3.235815 l -4.801964,-0.09052 z m -26.383628,-0.65447 c 0,-0.366667 0.75,-0.666667 1.666666,-0.666667 2.335342,0 2.050845,-1.474756 -0.514428,-2.666666 -4.05912,-1.885999 -2.982264,-6.524163 1.952265,-8.408677 C 43.21307,15.864784 44.421654,14 42.333332,14 c -0.55,0 -1,-0.3 -1,-0.666667 0,-0.370371 1.777778,-0.666667 4,-0.666667 2.222222,0 4,0.296296 4,0.666667 0,0.366667 -0.75,0.666667 -1.666666,0.666667 -1.94104,0 -2.310317,1.813584 -0.5,2.455589 2.026716,0.718748 3.5,2.365078 3.5,3.911096 0,1.865648 -2.524992,4.354421 -5.399826,5.322369 -2.529943,0.851824 -3.364898,2.310945 -1.322396,2.310945 0.763888,0 1.388888,0.3 1.388888,0.666667 0,0.37037 -1.777778,0.666666 -4,0.666666 -2.222221,0 -3.999999,-0.296296 -3.999999,-0.666666 z m 4.619966,-7.051725 c 0.457677,-2.045115 0.681109,-3.869421 0.496517,-4.054013 -0.708521,-0.708521 -2.971288,1.145731 -3.779644,3.097274 -0.735352,1.775296 -0.69019,2.214691 0.345225,3.358811 0.655189,0.723976 1.397017,1.31632 1.648507,1.31632 0.25149,0 0.831718,-1.673276 1.289395,-3.718392 z m 5.138074,1.339166 c 1.28067,-1.954548 0.952465,-5.204548 -0.554431,-5.490176 -0.838158,-0.15887 -1.321556,0.527887 -1.873014,2.660967 -0.408809,1.581305 -0.887759,3.375239 -1.064332,3.986517 -0.479906,1.661388 2.23434,0.761784 3.491777,-1.157308 z m 37.241959,5.712559 c 0.226613,-0.366667 0.99432,-0.666667 1.706013,-0.666667 1.764927,0 1.626013,-1.213602 -0.31356,-2.73927 -1.31804,-1.03677 -1.648213,-1.98475 -1.833333,-5.263828 -0.19482,-3.450808 -0.0658,-3.999164 0.94088,-3.998116 1.305646,0.0013 1.398266,0.369788 1.196866,4.760698 -0.126566,2.75939 0.765954,4.666583 1.73184,3.700698 0.25824,-0.258239 2.833313,-9.419921 2.8932,-10.293515 C 90.661525,14.075 90.066665,14 89.333331,14 c -0.733333,0 -1.333333,-0.3 -1.333333,-0.666667 0,-0.370371 1.77778,-0.666667 4,-0.666667 3.83802,0 5.59182,1.011349 2.520773,1.453633 -1.22938,0.177052 -1.721206,1.085704 -2.91188,5.3797 -0.78796,2.841667 -1.218806,5.166667 -0.957433,5.166667 0.957573,0 3.035967,-2.872809 4.027313,-5.566655 0.8425,-2.289392 1.36056,-2.805073 3.00302,-2.989245 1.91752,-0.215015 1.94414,-0.18108 0.784487,0.999999 -0.660213,0.672412 -1.860213,2.572568 -2.666667,4.222568 -0.956466,1.95693 -2.211853,3.34769 -3.61064,4 -2.55288,1.190508 -3.38398,2.666666 -1.501386,2.666666 0.721826,0 1.312413,0.3 1.312413,0.666667 0,0.371092 -1.790893,0.666666 -4.039346,0.666666 -2.523134,0 -3.884687,-0.25024 -3.62732,-0.666666 z"
       id="path74" />
  </g>
</svg>
