<?xml version="1.0" encoding="UTF-8" standalone="no"?>
<svg
   xmlns:dc="http://purl.org/dc/elements/1.1/"
   xmlns:cc="http://creativecommons.org/ns#"
   xmlns:rdf="http://www.w3.org/1999/02/22-rdf-syntax-ns#"
   xmlns:svg="http://www.w3.org/2000/svg"
   xmlns="http://www.w3.org/2000/svg"
   xmlns:sodipodi="http://sodipodi.sourceforge.net/DTD/sodipodi-0.dtd"
   xmlns:inkscape="http://www.inkscape.org/namespaces/inkscape"
   version="1.1"
   id="svg62"
   width="63.78548"
   height="110"
   viewBox="0 0 63.785481 110"
   sodipodi:docname="A8.svg"
   inkscape:version="1.0.1 (c497b03c, 2020-09-10)">
  <metadata
     id="metadata68">
    <rdf:RDF>
      <cc:Work
         rdf:about="">
        <dc:format>image/svg+xml</dc:format>
        <dc:type
           rdf:resource="http://purl.org/dc/dcmitype/StillImage" />
        <dc:title></dc:title>
      </cc:Work>
    </rdf:RDF>
  </metadata>
  <defs
     id="defs66" />
  <sodipodi:namedview
     pagecolor="#ffffff"
     bordercolor="#666666"
     borderopacity="1"
     objecttolerance="10"
     gridtolerance="10"
     guidetolerance="10"
     inkscape:pageopacity="0"
     inkscape:pageshadow="2"
     inkscape:window-width="748"
     inkscape:window-height="480"
     id="namedview64"
     showgrid="false"
     fit-margin-top="0"
     fit-margin-left="0"
     fit-margin-right="0"
     fit-margin-bottom="0"
     inkscape:pagecheckerboard="true"
     inkscape:zoom="2.5138551"
     inkscape:cx="11.338784"
     inkscape:cy="33.557431"
     inkscape:window-x="0"
     inkscape:window-y="25"
     inkscape:window-maximized="0"
     inkscape:current-layer="g70" />
  <g
     inkscape:groupmode="layer"
     inkscape:label="Image"
     id="g70"
     transform="translate(-29.214519,-18)">
    <path
       style="fill:#1a1a1a;stroke-width:0.666667"
       d="m 53.666665,127.33334 c 0.226613,-0.36667 0.994318,-0.66667 1.706012,-0.66667 1.764931,0 1.626012,-1.2136 -0.31356,-2.73927 -1.318038,-1.03677 -1.64821,-1.98475 -1.833333,-5.26383 -0.194818,-3.45081 -0.06577,-3.99916 0.940881,-3.99811 1.305645,0.001 1.39827,0.36978 1.196868,4.7607 -0.126567,2.75938 0.765954,4.66658 1.73184,3.70069 0.258239,-0.25824 2.833315,-9.41992 2.8932,-10.29351 0.0063,-0.0917 -0.588575,-0.16667 -1.321908,-0.16667 -0.733333,0 -1.333333,-0.3 -1.333333,-0.66667 0,-0.37037 1.777778,-0.66666 4,-0.66666 3.838022,0 5.59182,1.01134 2.520773,1.45363 -1.229379,0.17705 -1.721207,1.0857 -2.911882,5.3797 -0.787961,2.84167 -1.218805,5.16667 -0.957432,5.16667 0.957577,0 3.035971,-2.87281 4.027313,-5.56666 0.842502,-2.28939 1.36056,-2.80507 3.003021,-2.98924 1.91752,-0.21502 1.94414,-0.18108 0.784487,1 -0.660214,0.67241 -1.860214,2.57256 -2.666667,4.22256 -0.956469,1.95694 -2.211853,3.34769 -3.61064,4 -2.552877,1.19051 -3.383982,2.66667 -1.501383,2.66667 0.721825,0 1.31241,0.3 1.31241,0.66667 0,0.37109 -1.790893,0.66666 -4.039345,0.66666 -2.523134,0 -3.884687,-0.25024 -3.627322,-0.66666 z m 1,-28.000004 c 0,-0.366667 0.75,-0.666667 1.666667,-0.666667 2.335342,0 2.050845,-1.47476 -0.514428,-2.666667 -4.05912,-1.886 -2.982265,-6.52416 1.952265,-8.40868 2.775233,-1.059867 3.983817,-2.924653 1.895496,-2.924653 -0.55,0 -1,-0.3 -1,-0.666667 0,-0.370373 1.777778,-0.666667 4,-0.666667 2.222222,0 4,0.296294 4,0.666667 0,0.366667 -0.75,0.666667 -1.666667,0.666667 -1.94104,0 -2.310316,1.813586 -0.5,2.455586 2.026716,0.718754 3.5,2.36508 3.5,3.9111 0,1.865647 -2.524992,4.354421 -5.399826,5.322367 -2.529942,0.851827 -3.364898,2.310947 -1.322396,2.310947 0.763889,0 1.388889,0.3 1.388889,0.666667 0,0.370373 -1.777778,0.666664 -4,0.666664 -2.222222,0 -4,-0.296291 -4,-0.666664 z m 4.619967,-7.051727 c 0.457676,-2.045114 0.681109,-3.86942 0.496517,-4.054014 -0.708521,-0.70852 -2.971288,1.145734 -3.779644,3.097274 -0.735352,1.7753 -0.69019,2.214693 0.345224,3.358813 0.65519,0.723974 1.397018,1.31632 1.648508,1.31632 0.25149,0 0.831718,-1.673273 1.289395,-3.718393 z m 5.138074,1.339166 c 1.28067,-1.954546 0.952465,-5.204546 -0.554431,-5.490173 -0.838159,-0.158873 -1.321556,0.527887 -1.873014,2.660967 -0.408809,1.581306 -0.887759,3.37524 -1.064332,3.986513 -0.479907,1.661394 2.23434,0.761787 3.491777,-1.157307 z M 60.955701,59.000001 c -4.07e-4,-9.166667 0.09349,-13.009131 0.208653,-8.53881 0.115166,4.470321 0.115499,11.970321 7.33e-4,16.666664 -0.114752,4.696347 -0.208979,1.038813 -0.209386,-8.127854 z m -30.289035,-25 c 0,-0.366667 0.75,-0.666667 1.666666,-0.666667 2.335342,0 2.050846,-1.474757 -0.514427,-2.666667 -4.05912,-1.885998 -2.982265,-6.524162 1.952264,-8.408676 2.775234,-1.059873 3.983818,-2.924657 1.895497,-2.924657 -0.55,0 -1,-0.3 -1,-0.666667 0,-0.370371 1.777778,-0.666667 4,-0.666667 2.222222,0 4,0.296296 4,0.666667 0,0.366667 -0.75,0.666667 -1.666667,0.666667 -1.94104,0 -2.310317,1.813584 -0.5,2.455589 2.026716,0.718749 3.5,2.365079 3.5,3.911096 0,1.865649 -2.524992,4.354422 -5.399826,5.32237 -2.529943,0.851824 -3.364898,2.310945 -1.322396,2.310945 0.763889,0 1.388889,0.3 1.388889,0.666667 0,0.37037 -1.777778,0.666666 -4,0.666666 -2.222222,0 -4,-0.296296 -4,-0.666666 z m 4.619966,-7.051725 c 0.457677,-2.045115 0.68111,-3.869421 0.496518,-4.054013 -0.708522,-0.708522 -2.971289,1.14573 -3.779645,3.097274 -0.735352,1.775296 -0.69019,2.21469 0.345225,3.358811 0.655189,0.723975 1.397017,1.316319 1.648508,1.316319 0.25149,0 0.831718,-1.673276 1.289394,-3.718391 z m 5.138074,1.339166 c 1.28067,-1.954549 0.952466,-5.204549 -0.55443,-5.490176 -0.838159,-0.15887 -1.321556,0.527887 -1.873014,2.660967 -0.40881,1.581305 -0.88776,3.375238 -1.064332,3.986517 -0.479907,1.661388 2.23434,0.761783 3.491776,-1.157308 z m 37.241959,5.712559 c 0.226613,-0.366667 0.99432,-0.666667 1.706013,-0.666667 1.764927,0 1.626013,-1.213603 -0.31356,-2.73927 -1.31804,-1.03677 -1.648213,-1.984751 -1.833333,-5.263829 -0.19482,-3.450808 -0.0658,-3.999164 0.94088,-3.998116 1.305646,0.0013 1.398266,0.369788 1.196866,4.760699 -0.126566,2.759389 0.765954,4.666583 1.73184,3.700697 0.25824,-0.258238 2.833314,-9.419921 2.8932,-10.293515 0.0063,-0.09167 -0.588573,-0.166666 -1.321906,-0.166666 -0.733334,0 -1.333334,-0.3 -1.333334,-0.666667 0,-0.370371 1.77778,-0.666667 4,-0.666667 3.83802,0 5.59182,1.011349 2.520773,1.453633 -1.22938,0.177052 -1.721206,1.085704 -2.91188,5.379701 -0.78796,2.841667 -1.218806,5.166667 -0.957433,5.166667 0.957573,0 3.035967,-2.872809 4.027313,-5.566656 0.8425,-2.289392 1.36056,-2.805073 3.00302,-2.989245 1.91752,-0.215015 1.94414,-0.18108 0.784487,1 -0.660213,0.672412 -1.860213,2.572567 -2.666667,4.222567 -0.956466,1.95693 -2.211853,3.34769 -3.61064,4 -2.552879,1.190508 -3.383979,2.666667 -1.501386,2.666667 0.721826,0 1.312413,0.3 1.312413,0.666667 0,0.371092 -1.790893,0.666666 -4.039346,0.666666 -2.523134,0 -3.884687,-0.25024 -3.62732,-0.666666 z M 51.999999,33.333334 c 0,-0.407589 3.124226,-0.666667 8.039344,-0.666667 5.189801,0 7.893302,0.2363 7.627322,0.666667 -0.235833,0.381589 -3.673589,0.666667 -8.039345,0.666667 -4.640436,0 -7.627321,-0.261069 -7.627321,-0.666667 z m 0,-4.666667 c 0,-0.407407 3.111111,-0.666666 7.999999,-0.666666 4.888889,0 8,0.259259 8,0.666666 0,0.407408 -3.111111,0.666667 -8,0.666667 -4.888888,0 -7.999999,-0.259259 -7.999999,-0.666667 z m 0,-4.666666 c 0,-0.407408 3.111111,-0.666667 7.999999,-0.666667 4.888889,0 8,0.259259 8,0.666667 0,0.407407 -3.111111,0.666666 -8,0.666666 -4.888888,0 -7.999999,-0.259259 -7.999999,-0.666666 z"
       id="path85468" />
    <path
       style="fill:#1a1a1a;stroke-width:0.666667"
       d="m 57.293987,128 c -2.523134,0 -3.884687,-0.25024 -3.627322,-0.66666 0.226613,-0.36667 0.994318,-0.66667 1.706012,-0.66667 0.711694,0 1.293988,-0.33183 1.293988,-0.73739 0,-0.40556 -0.723396,-1.30641 -1.607548,-2.00188 -1.318038,-1.03677 -1.64821,-1.98475 -1.833333,-5.26383 -0.194818,-3.45081 -0.06577,-3.99916 0.940881,-3.99811 0.641667,6.6e-4 1.205381,0.37621 1.252698,0.83454 0.04732,0.45834 0.02219,2.2251 -0.05583,3.92616 -0.08079,1.7613 0.18828,3.29685 0.624989,3.56675 0.421768,0.26067 0.919851,0.32094 1.10685,0.13394 0.186999,-0.187 0.911899,-2.54204 1.610887,-5.23342 0.698989,-2.69139 1.27603,-4.96843 1.282313,-5.06009 0.0063,-0.0917 -0.588578,-0.16667 -1.321911,-0.16667 -0.733333,0 -1.333333,-0.3 -1.333333,-0.66667 0,-0.37037 1.777778,-0.66666 4,-0.66666 2.2,0 4,0.27913 4,0.6203 0,0.34116 -0.665652,0.71616 -1.479227,0.83333 -1.229379,0.17705 -1.721207,1.0857 -2.911882,5.3797 -0.787961,2.84167 -1.218805,5.16667 -0.957432,5.16667 0.261373,0 1.045361,-0.63 1.742196,-1.39999 0.696835,-0.76999 1.725137,-2.64499 2.285117,-4.16667 0.842502,-2.28939 1.36056,-2.80507 3.003021,-2.98924 1.91752,-0.21502 1.94414,-0.18108 0.784487,1 -0.660214,0.67241 -1.860214,2.57256 -2.666667,4.22256 -0.956469,1.95694 -2.211853,3.34769 -3.61064,4 -1.179398,0.55 -2.294983,1.375 -2.479077,1.83334 -0.199951,0.49781 0.193694,0.83333 0.977694,0.83333 0.721825,0 1.31241,0.3 1.31241,0.66667 0,0.37109 -1.790893,0.66666 -4.039345,0.66666 z m 1.372678,-28 c -2.222222,0 -4,-0.296291 -4,-0.666664 0,-0.366667 0.75,-0.666667 1.666667,-0.666667 0.916667,0 1.660174,-0.375 1.652239,-0.833333 -0.0079,-0.458334 -0.982936,-1.283334 -2.166667,-1.833334 -1.389273,-0.6455 -2.232381,-1.56702 -2.378311,-2.599493 -0.12434,-0.87972 0.147687,-2.297874 0.604504,-3.15144 0.456816,-0.853567 2.133548,-2.049554 3.726072,-2.657747 1.592523,-0.608187 2.895496,-1.51504 2.895496,-2.015227 0,-0.500186 -0.45,-0.909426 -1,-0.909426 -0.55,0 -1,-0.3 -1,-0.666667 0,-0.370373 1.777778,-0.666667 4,-0.666667 2.222222,0 4,0.296294 4,0.666667 0,0.366667 -0.75,0.666667 -1.666667,0.666667 -1.052218,0 -1.666666,0.37638 -1.666666,1.02092 0,0.561513 0.525,1.207113 1.166666,1.434666 0.641667,0.22756 1.691667,0.86464 2.333334,1.41574 0.641666,0.551094 1.166666,1.674007 1.166666,2.49536 0,0.821354 -0.723033,2.18926 -1.606738,3.0398 -0.883706,0.850534 -2.590596,1.877694 -3.793088,2.282567 -1.202492,0.404874 -2.304459,1.090474 -2.448817,1.52354 -0.145816,0.437454 0.354813,0.787407 1.126421,0.787407 0.763889,0 1.388889,0.3 1.388889,0.666667 0,0.370373 -1.777778,0.666664 -4,0.666664 z m -0.669428,-3.999998 c 0.25149,0 0.831718,-1.673273 1.289395,-3.718393 0.457676,-2.045114 0.681109,-3.86942 0.496517,-4.054014 -0.184592,-0.184593 -0.920171,-0.0228 -1.634619,0.35958 -0.714449,0.38236 -1.67971,1.614327 -2.145025,2.737694 -0.735352,1.7753 -0.69019,2.214693 0.345224,3.358813 0.65519,0.723974 1.397018,1.31632 1.648508,1.31632 z m 4.018307,-0.477566 c 0.772011,-0.201887 1.856134,-1.057634 2.409162,-1.901661 0.553028,-0.844026 0.908707,-2.37642 0.790398,-3.405313 -0.128204,-1.114967 -0.671508,-1.957233 -1.344829,-2.08486 -0.838159,-0.158873 -1.321556,0.527887 -1.873014,2.660967 -0.408809,1.581306 -0.887759,3.37524 -1.064332,3.986513 -0.247305,0.856147 0.0013,1.027114 1.082615,0.744354 z m -0.85045,-28.394581 c -0.114759,4.696347 -0.208986,1.038813 -0.209393,-8.127854 -4.07e-4,-9.166667 0.09349,-13.009131 0.208653,-8.53881 0.115166,4.470321 0.115499,11.970321 7.33e-4,16.666664 z M 34.666666,34.666667 c -2.222222,0 -4,-0.296296 -4,-0.666666 0,-0.366667 0.75,-0.666667 1.666666,-0.666667 0.916667,0 1.660174,-0.375 1.652239,-0.833333 -0.0079,-0.458334 -0.982936,-1.283334 -2.166666,-1.833334 -1.389273,-0.645501 -2.232381,-1.567018 -2.378311,-2.599494 -0.12434,-0.879722 0.147687,-2.297869 0.604503,-3.151438 0.456816,-0.85357 2.133549,-2.049554 3.726072,-2.657744 1.592523,-0.608191 2.895497,-1.515044 2.895497,-2.015229 0,-0.500186 -0.45,-0.909428 -1,-0.909428 -0.55,0 -1,-0.3 -1,-0.666667 0,-0.370371 1.777778,-0.666667 4,-0.666667 2.222222,0 4,0.296296 4,0.666667 0,0.366667 -0.75,0.666667 -1.666667,0.666667 -1.052218,0 -1.666667,0.376382 -1.666667,1.020923 0,0.561507 0.525,1.207107 1.166667,1.434666 0.641667,0.227559 1.691667,0.86464 2.333333,1.415736 0.641667,0.551096 1.166667,1.674008 1.166667,2.49536 0,0.821353 -0.723032,2.189263 -1.606739,3.0398 -0.883706,0.850538 -2.590595,1.877694 -3.793087,2.28257 -1.202492,0.404875 -2.304459,1.090468 -2.448817,1.523541 -0.145816,0.437448 0.354813,0.787404 1.126421,0.787404 0.763889,0 1.388889,0.3 1.388889,0.666667 0,0.37037 -1.777778,0.666666 -4,0.666666 z m -0.669428,-4 c 0.25149,0 0.831718,-1.673276 1.289394,-3.718391 0.457677,-2.045115 0.68111,-3.869421 0.496518,-4.054013 -0.184592,-0.184593 -0.920172,-0.02278 -1.63462,0.35958 -0.714448,0.382361 -1.67971,1.614323 -2.145025,2.737694 -0.735352,1.775296 -0.69019,2.21469 0.345225,3.358811 0.655189,0.723975 1.397017,1.316319 1.648508,1.316319 z m 4.018306,-0.477566 c 0.772012,-0.201885 1.856134,-1.057632 2.409162,-1.901659 0.553028,-0.844027 0.908708,-2.37642 0.790399,-3.405317 -0.128204,-1.114962 -0.671508,-1.957233 -1.344829,-2.084859 -0.838159,-0.15887 -1.321556,0.527887 -1.873014,2.660967 -0.40881,1.581305 -0.88776,3.375238 -1.064332,3.986517 -0.247305,0.856142 0.0013,1.027107 1.082614,0.744351 z m 43.278441,4.477566 c -2.523134,0 -3.884687,-0.25024 -3.62732,-0.666666 0.226613,-0.366667 0.99432,-0.666667 1.706013,-0.666667 0.711693,0 1.293987,-0.331824 1.293987,-0.737387 0,-0.405562 -0.723394,-1.30641 -1.607547,-2.001883 -1.31804,-1.03677 -1.648213,-1.984751 -1.833333,-5.263829 -0.19482,-3.450808 -0.0658,-3.999164 0.94088,-3.998116 0.641666,6.67e-4 1.20538,0.376215 1.2527,0.834548 0.04733,0.458334 0.0222,2.225102 -0.05587,3.926151 -0.08079,1.761312 0.18828,3.296855 0.624993,3.566757 0.421767,0.260667 0.919847,0.32094 1.106847,0.13394 0.187,-0.186999 0.9119,-2.54204 1.610887,-5.233423 0.699026,-2.691384 1.276066,-4.968425 1.282346,-5.060092 0.0063,-0.09167 -0.588573,-0.166666 -1.321906,-0.166666 -0.733334,0 -1.333334,-0.3 -1.333334,-0.666667 0,-0.370371 1.77778,-0.666667 4,-0.666667 2.2,0 4,0.279135 4,0.6203 0,0.341164 -0.665653,0.716164 -1.479227,0.833333 -1.22938,0.177052 -1.721206,1.085704 -2.91188,5.379701 -0.78796,2.841667 -1.218806,5.166667 -0.957433,5.166667 0.261373,0 1.04536,-0.629995 1.742193,-1.399989 0.696834,-0.769993 1.72514,-2.644993 2.28512,-4.166667 0.8425,-2.289392 1.36056,-2.805073 3.00302,-2.989245 1.91752,-0.215015 1.94414,-0.18108 0.784487,1 -0.660213,0.672412 -1.860213,2.572567 -2.666667,4.222567 -0.956466,1.95693 -2.211853,3.34769 -3.61064,4 -1.1794,0.55 -2.294979,1.375 -2.479079,1.833334 -0.199947,0.497811 0.1937,0.833333 0.977693,0.833333 0.721826,0 1.312413,0.3 1.312413,0.666667 0,0.371092 -1.790893,0.666666 -4.039346,0.666666 z M 59.62732,34.000001 c -4.640436,0 -7.627321,-0.261069 -7.627321,-0.666667 0,-0.407589 3.124226,-0.666667 8.039344,-0.666667 5.189801,0 7.893302,0.2363 7.627322,0.666667 -0.235833,0.381589 -3.673589,0.666667 -8.039345,0.666667 z m 0.372678,-4.666667 c -4.888888,0 -7.999999,-0.259259 -7.999999,-0.666667 0,-0.407407 3.111111,-0.666666 7.999999,-0.666666 4.888889,0 8,0.259259 8,0.666666 0,0.407408 -3.111111,0.666667 -8,0.666667 z m 0,-4.666667 c -4.888888,0 -7.999999,-0.259259 -7.999999,-0.666666 0,-0.407408 3.111111,-0.666667 7.999999,-0.666667 4.888889,0 8,0.259259 8,0.666667 0,0.407407 -3.111111,0.666666 -8,0.666666 z"
       id="path85464" />
    <path
       style="fill:#1a1a1a;stroke-width:0.666667"
       d="m 57.293987,128 h -4.039344 l 0.412022,-0.66666 0.412023,-0.66667 h 1.293989 1.293988 v -0.73739 -0.73738 l -1.607548,-1.2645 -1.607547,-1.2645 -0.225786,-3.99933 -0.225785,-3.99933 1.166666,10e-4 1.166667,0.001 0.08603,0.83333 0.08603,0.83334 -0.141861,3.09282 -0.141861,3.09281 0.766851,0.47394 0.76685,0.47394 0.34,-0.34 0.339999,-0.34 1.270888,-4.89342 1.270888,-4.89343 0.01143,-0.16666 0.01142,-0.16691 H 58.666665 57.333332 V 112 111.33334 h 4 4 v 0.6203 0.6203 l -1.479227,0.21303 -1.479226,0.21303 -1.432656,5.16667 -1.432656,5.16667 h 0.475224 0.475224 l 1.266972,-1.39999 1.266972,-1.39999 1.018145,-2.76668 1.018145,-2.76668 1.984876,-0.22256 1.984873,-0.22257 -1.200386,1.22257 -1.200388,1.22256 -1.466279,3 -1.46628,3 -2.14436,1 -2.14436,1 -0.334717,0.83334 -0.334716,0.83333 h 1.31241 1.31241 V 127.33334 128 Z m 1.372678,-28 h -4 v -0.666664 -0.666667 h 1.666667 1.666667 l -0.01443,-0.833333 -0.01443,-0.833334 -2.152241,-1 -2.152239,-1 -0.226072,-1.599493 -0.226072,-1.599494 0.830576,-1.551946 0.830574,-1.55194 2.895498,-1.105807 2.895496,-1.1058 v -0.909427 -0.909426 h -1 -1 v -0.666667 -0.666667 h 4 4 v 0.666667 0.666667 h -1.666667 -1.666666 v 1.02092 1.020926 l 1.166666,0.41374 1.166667,0.413747 1.166667,1.001993 1.166666,1.001994 v 1.493366 1.493367 l -1.606738,1.546433 -1.606738,1.546434 -2.18635,0.736133 -2.186348,0.73614 -0.262469,0.7874 -0.262468,0.787407 h 1.388889 1.388889 V 99.333336 100 Z m -0.669428,-3.999998 h 0.457255 l 0.83214,-3.718393 0.832139,-3.718387 -0.335622,-0.335627 -0.335622,-0.33562 -1.298997,0.6952 -1.298997,0.695207 -0.846028,2.042487 -0.846028,2.042493 1.191252,1.31632 1.191253,1.31632 z m 4.018307,-0.477566 1.403657,-0.367067 1.005505,-1.534594 1.005505,-1.534593 -0.215107,-1.87072 -0.215106,-1.870727 -1.129723,-0.214133 -1.129724,-0.214133 -0.74329,2.8751 -0.74329,2.8751 -0.321042,1.111413 -0.321043,1.11142 z m -0.85045,-28.394581 -0.208653,8.538813 -7.33e-4,-16.666667 -7.34e-4,-16.666667 0.209393,8.127857 0.209393,8.127856 -0.208652,8.538808 z M 34.666666,34.666667 h -4 v -0.666666 -0.666667 h 1.666666 1.666667 l -0.01443,-0.833333 -0.01443,-0.833334 -2.152237,-1 -2.152239,-1 -0.226072,-1.599494 -0.226072,-1.599494 0.830575,-1.551944 0.830575,-1.551944 2.895497,-1.1058 2.895497,-1.105801 v -0.909428 -0.909428 h -1 -1 V 18.666667 18 h 4 4 v 0.666667 0.666667 h -1.666667 -1.666667 v 1.020923 1.020923 l 1.166667,0.413743 1.166667,0.413744 1.166666,1.001992 1.166667,1.001992 v 1.493368 1.493368 l -1.606739,1.546432 -1.606738,1.546432 -2.186349,0.736138 -2.186349,0.736136 -0.262468,0.787405 -0.262468,0.787404 h 1.388889 1.388889 v 0.666667 0.666666 z m -0.669428,-4 h 0.457254 l 0.83214,-3.718391 0.83214,-3.718391 -0.335622,-0.335622 -0.335622,-0.335623 -1.298998,0.695203 -1.298997,0.695202 -0.846028,2.042492 -0.846028,2.042492 1.191253,1.316319 1.191252,1.316319 z m 4.018306,-0.477566 1.403658,-0.367064 1.005504,-1.534595 1.005506,-1.534595 -0.215107,-1.870722 -0.215106,-1.870724 -1.129723,-0.214135 -1.129724,-0.214135 -0.74329,2.875102 -0.74329,2.875101 -0.321042,1.111416 -0.321043,1.111416 z m 43.278441,4.477566 h -4.03934 l 0.41202,-0.666666 0.41202,-0.666667 h 1.293993 1.293987 v -0.737387 -0.737386 l -1.607547,-1.264497 -1.607547,-1.264497 -0.225786,-3.999332 -0.225787,-3.999331 1.166667,0.0012 1.166666,0.0012 0.08603,0.833333 0.08603,0.833334 -0.14186,3.092817 -0.14186,3.092817 0.766854,0.47394 0.766846,0.47394 0.34,-0.34 0.34,-0.339999 1.270887,-4.893424 1.270887,-4.893425 0.01143,-0.166667 0.01143,-0.166666 h -1.33334 -1.333334 V 18.666667 18 h 4 4 v 0.6203 0.620299 l -1.479227,0.213034 -1.479226,0.213034 -1.432654,5.166667 -1.432659,5.166667 h 0.475226 0.47522 l 1.266973,-1.399989 1.266974,-1.399988 1.018146,-2.766679 1.018147,-2.766678 1.984873,-0.222567 1.984874,-0.222568 -1.200387,1.222568 -1.200387,1.222567 -1.46628,3 -1.46628,3 -2.14436,1 -2.144359,1 -0.33472,0.833334 -0.334714,0.833333 h 1.312407 1.312413 v 0.666667 0.666666 z M 59.62732,34.000001 h -7.627321 v -0.666667 -0.666667 h 8.039344 8.039342 l -0.41202,0.666667 -0.41202,0.666667 z m 0.372678,-4.666667 h -7.999999 v -0.666667 -0.666666 h 7.999999 8 v 0.666666 0.666667 z m 0,-4.666667 h -7.999999 v -0.666666 -0.666667 h 7.999999 8 v 0.666667 0.666666 z"
       id="path85462" />
  </g>
</svg>
