<?xml version="1.0" encoding="UTF-8" standalone="no"?>
<svg
   xmlns:dc="http://purl.org/dc/elements/1.1/"
   xmlns:cc="http://creativecommons.org/ns#"
   xmlns:rdf="http://www.w3.org/1999/02/22-rdf-syntax-ns#"
   xmlns:svg="http://www.w3.org/2000/svg"
   xmlns="http://www.w3.org/2000/svg"
   xmlns:sodipodi="http://sodipodi.sourceforge.net/DTD/sodipodi-0.dtd"
   xmlns:inkscape="http://www.inkscape.org/namespaces/inkscape"
   version="1.1"
   id="svg85540"
   width="116.00547"
   height="82"
   viewBox="0 0 116.00547 82.000001"
   sodipodi:docname="A9.svg"
   inkscape:version="1.0.1 (c497b03c, 2020-09-10)">
  <metadata
     id="metadata85546">
    <rdf:RDF>
      <cc:Work
         rdf:about="">
        <dc:format>image/svg+xml</dc:format>
        <dc:type
           rdf:resource="http://purl.org/dc/dcmitype/StillImage" />
        <dc:title></dc:title>
      </cc:Work>
    </rdf:RDF>
  </metadata>
  <defs
     id="defs85544" />
  <sodipodi:namedview
     pagecolor="#ffffff"
     bordercolor="#666666"
     borderopacity="1"
     objecttolerance="10"
     gridtolerance="10"
     guidetolerance="10"
     inkscape:pageopacity="0"
     inkscape:pageshadow="2"
     inkscape:window-width="731"
     inkscape:window-height="480"
     id="namedview85542"
     showgrid="false"
     inkscape:pagecheckerboard="true"
     fit-margin-top="0"
     fit-margin-left="0"
     fit-margin-right="0"
     fit-margin-bottom="0"
     inkscape:zoom="1.0507666"
     inkscape:cx="135.8739"
     inkscape:cy="36.338827"
     inkscape:window-x="0"
     inkscape:window-y="25"
     inkscape:window-maximized="0"
     inkscape:current-layer="g85548" />
  <g
     inkscape:groupmode="layer"
     inkscape:label="Image"
     id="g85548"
     transform="translate(109.80704,-10.193256)">
    <path
       style="fill:#1e1e1e;stroke-width:0.666667"
       d="m -108.4679,91.526587 c 0,-0.366667 0.75,-0.666667 1.66667,-0.666667 2.33534,0 2.05084,-1.47476 -0.51443,-2.666667 -4.05912,-1.886 -2.98226,-6.52416 1.95227,-8.408679 2.77523,-1.059867 3.98381,-2.924654 1.89549,-2.924654 -0.55,0 -1,-0.3 -1,-0.666666 0,-0.370374 1.77778,-0.666667 4,-0.666667 2.222225,0 4.000003,0.296293 4.000003,0.666667 0,0.366666 -0.75,0.666666 -1.666667,0.666666 -1.941036,0 -2.310316,1.813587 -0.499999,2.455587 2.026716,0.718753 3.499999,2.36508 3.499999,3.9111 0,1.865646 -2.524991,4.35442 -5.399826,5.322366 -2.52994,0.851827 -3.3649,2.310947 -1.3224,2.310947 0.76389,0 1.38889,0.3 1.38889,0.666667 0,0.370373 -1.77778,0.666666 -4,0.666666 -2.22222,0 -4,-0.296293 -4,-0.666666 z m 4.61997,-7.051727 c 0.45768,-2.045113 0.68111,-3.86942 0.49652,-4.054013 -0.70852,-0.70852 -2.97129,1.145733 -3.77965,3.097273 -0.73535,1.7753 -0.69019,2.214693 0.34523,3.358813 0.65519,0.723974 1.39701,1.31632 1.6485,1.31632 0.25149,0 0.83172,-1.673273 1.2894,-3.718393 z m 5.138074,1.339167 c 1.280669,-1.954547 0.952464,-5.204547 -0.554431,-5.490173 -0.838163,-0.158874 -1.321553,0.527886 -1.873013,2.660966 -0.40881,1.581307 -0.88776,3.37524 -1.06433,3.986513 -0.47991,1.661394 2.234337,0.761787 3.491774,-1.157306 z m 37.908626,5.71256 c 0.226612,-0.366667 0.99432,-0.666667 1.706012,-0.666667 1.764927,0 1.626014,-1.2136 -0.31356,-2.739273 -1.318039,-1.036767 -1.648213,-1.984747 -1.833332,-5.263827 -0.194821,-3.450806 -0.0658,-3.99916 0.94088,-3.998113 1.305646,0.0013 1.398266,0.369787 1.196867,4.7607 -0.126567,2.759386 0.765952,4.66658 1.731839,3.700693 0.25824,-0.25824 2.833314,-9.41992 2.8932,-10.293513 0.0063,-0.09167 -0.588573,-0.166667 -1.321907,-0.166667 -0.733333,0 -1.333333,-0.3 -1.333333,-0.666666 0,-0.370374 1.777781,-0.666667 4,-0.666667 3.847794,0 5.59288,1.014187 2.501226,1.453633 -1.208599,0.171787 -1.714552,0.987454 -2.61332,4.213033 -0.612999,2.2 -1.138546,4.591667 -1.167893,5.314814 -0.05107,1.258633 0.0093,1.252126 1.413667,-0.1522 0.80686,-0.806854 1.938666,-2.74852 2.515126,-4.314814 0.873474,-2.373293 1.378834,-2.884333 3.032988,-3.067039 l 1.984872,-0.21924 -1.440572,1.356513 c -0.792314,0.74608 -1.639373,2.261626 -1.882348,3.367886 -0.451245,2.05452 -3.742132,5.380747 -5.323572,5.380747 -0.482633,0 -1.0502,0.45 -1.261261,1 -0.261013,0.680193 0.036,1 0.928673,1 0.721828,0 1.312414,0.3 1.312414,0.666667 0,0.371093 -1.790894,0.666666 -4.039347,0.666666 -2.523132,0 -3.884686,-0.25024 -3.627319,-0.666666 z m 50.41067,-1.5 c 0.0425,-1.191667 0.21453,-1.641667 0.38222,-1 0.3647196,1.395693 2.8737796,1.5791 2.8737796,0.210066 0,-0.526133 -0.32585,-1.801133 -0.7241,-2.833333 -2.3470596,-6.08312 1.28513,-10.876733 8.24145005,-10.876733 2.18701995,0 3.27960995,0.386087 4.36643995,1.542967 2.48723,2.64754 1.83897,5.316493 -2.45779,10.118846 -2.09913995,2.346147 -2.23131995,2.690753 -1.11452,2.905827 0.69688,0.134206 1.66188,-0.295947 2.14445,-0.9559 1.04868,-1.434154 1.18945,-0.107154 0.18728,1.76542 -0.47845,0.893993 -1.3986,1.289506 -2.99999995,1.289506 -1.27043,0 -2.30988005,-0.199406 -2.30988005,-0.443126 0,-0.24372 1.20000005,-2.629587 2.66667005,-5.301934 3.17093995,-5.777619 3.45265995,-8.592066 0.97313995,-9.721813 -2.21852995,-1.010833 -4.74496,-0.105846 -6.57171,2.35402 -1.20869,1.627607 -1.3754,2.659087 -1.21213,7.5 l 0.18932,5.612853 h -2.35598 c -2.2294396,0 -2.3518196,-0.116366 -2.2786396,-2.166666 z m -92.04938,-23 c 0.0154,-0.275 11.266774,-7.794716 25.003098,-16.71048 L -52.46171,34.105626 -27.63147,50.257542 C 0.74365965,68.715394 -2.1435304,66.757774 -2.6092204,67.223474 -2.8091804,67.423427 -13.83808,60.502328 -27.1179,51.843254 -40.39771,43.184181 -51.435151,36.271618 -51.645537,36.482003 c -0.210381,0.210386 -0.567241,7.117244 -0.793014,15.348573 -0.225772,8.23133 -0.65912,15.205291 -0.96298,15.497698 -0.303867,0.292407 -0.33454,-6.593353 -0.06816,-15.301686 0.266374,-8.708333 0.297293,-15.833333 0.06871,-15.833333 -0.22858,0 -11.227693,7.05 -24.442474,15.666666 -13.214777,8.616666 -24.161325,15.666666 -24.325655,15.666666 -0.16433,0 -0.2862,-0.225 -0.27082,-0.5 z m 45.675857,-46.521308 c -1.723728,-3.86172 -2.998254,-7.386719 -2.83228,-7.833333 0.299093,-0.804832 5.795133,10.311248 5.795133,11.721021 0,1.399371 1.100452,-0.516474 3.667899,-6.385662 1.408107,-3.21894 2.807608,-5.60521 3.109993,-5.302824 0.550387,0.550386 -5.41122,14.819395 -6.192293,14.821167 -0.227926,5.17e-4 -1.824727,-3.158649 -3.548452,-7.020369 z m -23.703815,5.687976 c 0,-0.366667 0.750001,-0.666667 1.666667,-0.666667 2.335342,0 2.050846,-1.474756 -0.514427,-2.666666 -4.05912,-1.885999 -2.982265,-6.524163 1.952265,-8.408677 2.775236,-1.059872 3.983816,-2.924656 1.895496,-2.924656 -0.550001,0 -1.000001,-0.3 -1.000001,-0.666667 0,-0.37037 1.777781,-0.666666 4.000001,-0.666666 2.222219,0 4,0.296296 4,0.666666 0,0.366667 -0.75,0.666667 -1.666666,0.666667 -1.941041,0 -2.310321,1.813584 -0.500001,2.455589 2.026713,0.718749 3.5,2.365079 3.5,3.911096 0,1.865649 -2.524994,4.354421 -5.399826,5.322369 -2.52994,0.851824 -3.364898,2.310945 -1.322393,2.310945 0.763886,0 1.388886,0.3 1.388886,0.666667 0,0.370371 -1.77778,0.666667 -4.000001,0.666667 -2.222222,0 -4,-0.296296 -4,-0.666667 z m 4.619968,-7.051724 c 0.457677,-2.045116 0.681109,-3.869422 0.496516,-4.054014 -0.70852,-0.708521 -2.971287,1.145731 -3.779644,3.097274 -0.735351,1.775296 -0.690189,2.214691 0.345225,3.358812 0.655189,0.723975 1.397018,1.316319 1.648508,1.316319 0.25149,0 0.831718,-1.673276 1.289395,-3.718391 z m 5.138073,1.339166 c 1.280674,-1.954549 0.952466,-5.204549 -0.554433,-5.490176 -0.838154,-0.15887 -1.321553,0.527886 -1.873013,2.660966 -0.408807,1.581306 -0.887754,3.375239 -1.064327,3.986518 -0.479908,1.661388 2.23434,0.761783 3.491773,-1.157308 z m 31.908627,5.712558 c 0.22661,-0.366667 0.99432,-0.666667 1.70601,-0.666667 1.76493,0 1.62602,-1.213602 -0.31356,-2.739269 -1.31804,-1.03677 -1.64821,-1.984751 -1.83333,-5.263829 -0.19482,-3.450808 -0.0658,-3.999164 0.94088,-3.998116 1.30565,0.0013 1.39827,0.369788 1.19687,4.760699 -0.12657,2.759389 0.76595,4.666582 1.73184,3.700697 0.25824,-0.258239 2.83331,-9.419921 2.8932,-10.293514 0.006,-0.09167 -0.58858,-0.166667 -1.32191,-0.166667 -0.73333,0 -1.33333,-0.3 -1.33333,-0.666667 0,-0.37037 1.77778,-0.666666 4,-0.666666 3.84779,0 5.59288,1.014188 2.50122,1.453632 -1.2086,0.17179 -1.71455,0.987456 -2.61332,4.213034 -0.613,2.2 -1.13854,4.591667 -1.16789,5.314815 -0.0511,1.258632 0.009,1.252128 1.41367,-0.152199 0.80686,-0.806858 1.93866,-2.748525 2.51512,-4.314815 0.87348,-2.373296 1.37884,-2.884332 3.03299,-3.067042 l 1.98487,-0.219242 -1.44057,1.356514 c -0.79231,0.746083 -1.63937,2.261632 -1.88235,3.367887 -0.45124,2.054519 -3.74213,5.380749 -5.32357,5.380749 -0.48263,0 -1.0502,0.45 -1.26126,0.999999 -0.26101,0.680193 0.036,1 0.92867,1 0.72183,0 1.31242,0.3 1.31242,0.666667 0,0.371092 -1.7909,0.666667 -4.03935,0.666667 -2.52313,0 -3.88469,-0.250241 -3.62732,-0.666667 z"
       id="path85552" />
  </g>
</svg>
