<?xml version="1.0" encoding="UTF-8" standalone="no"?>
<svg
   xmlns:dc="http://purl.org/dc/elements/1.1/"
   xmlns:cc="http://creativecommons.org/ns#"
   xmlns:rdf="http://www.w3.org/1999/02/22-rdf-syntax-ns#"
   xmlns:svg="http://www.w3.org/2000/svg"
   xmlns="http://www.w3.org/2000/svg"
   xmlns:sodipodi="http://sodipodi.sourceforge.net/DTD/sodipodi-0.dtd"
   xmlns:inkscape="http://www.inkscape.org/namespaces/inkscape"
   version="1.1"
   id="svg68"
   width="58.339146"
   height="110"
   viewBox="0 0 58.339145 110"
   sodipodi:docname="resRuleDisAlt.svg"
   inkscape:version="1.0.1 (c497b03c, 2020-09-10)">
  <metadata
     id="metadata74">
    <rdf:RDF>
      <cc:Work
         rdf:about="">
        <dc:format>image/svg+xml</dc:format>
        <dc:type
           rdf:resource="http://purl.org/dc/dcmitype/StillImage" />
        <dc:title></dc:title>
      </cc:Work>
    </rdf:RDF>
  </metadata>
  <defs
     id="defs72" />
  <sodipodi:namedview
     pagecolor="#ffffff"
     bordercolor="#666666"
     borderopacity="1"
     objecttolerance="10"
     gridtolerance="10"
     guidetolerance="10"
     inkscape:pageopacity="0"
     inkscape:pageshadow="2"
     inkscape:window-width="1155"
     inkscape:window-height="830"
     id="namedview70"
     showgrid="false"
     inkscape:pagecheckerboard="true"
     fit-margin-top="0"
     fit-margin-left="0"
     fit-margin-right="0"
     fit-margin-bottom="0"
     inkscape:zoom="2.0284623"
     inkscape:cx="112.55463"
     inkscape:cy="96.422988"
     inkscape:window-x="0"
     inkscape:window-y="25"
     inkscape:window-maximized="0"
     inkscape:current-layer="g76" />
  <g
     inkscape:groupmode="layer"
     inkscape:label="Image"
     id="g76"
     transform="translate(86.680007,52.440624)">
    <path
       style="fill:#202020;stroke-width:0.666667"
       d="m -64.340862,56.892716 c 0.226614,-0.36667 0.99432,-0.66667 1.706014,-0.66667 1.764926,0 1.626013,-1.2136 -0.31356,-2.73927 -1.320467,-1.03868 -1.647874,-1.98309 -1.833334,-5.28831 -0.207913,-3.70532 -0.120246,-4.00859 1.107547,-3.83145 1.184707,0.17092 1.308173,0.61121 1.10762,3.94986 -0.141233,2.3512 0.06247,3.93562 0.54436,4.23342 0.423533,0.26176 0.92306,0.32293 1.11006,0.13593 0.25824,-0.25824 2.833313,-9.41992 2.8932,-10.29351 0.0063,-0.0917 -0.588573,-0.16667 -1.321907,-0.16667 -0.733333,0 -1.333333,-0.3 -1.333333,-0.66667 0,-0.37037 1.77778,-0.66666 4,-0.66666 3.847793,0 5.59288,1.01418 2.501227,1.45363 -1.2086,0.17179 -1.714554,0.98745 -2.61332,4.21303 -0.613,2.2 -1.138547,4.59167 -1.167894,5.31482 -0.05107,1.25863 0.0093,1.25212 1.413667,-0.1522 0.80686,-0.80686 1.938667,-2.74852 2.515127,-4.31482 0.873473,-2.37329 1.378833,-2.88433 3.032986,-3.06704 l 1.984874,-0.21924 -1.440573,1.35652 c -0.792314,0.74608 -1.639374,2.26162 -1.882347,3.36788 -0.451247,2.05452 -3.742134,5.38075 -5.323574,5.38075 -0.482633,0 -1.0502,0.45 -1.26126,1 -0.261013,0.68019 0.036,1 0.928674,1 0.721826,0 1.312413,0.3 1.312413,0.66667 0,0.37109 -1.790893,0.66666 -4.039347,0.66666 -2.523133,0 -3.884686,-0.25024 -3.62732,-0.66666 z m 1,-28 c 0,-0.36667 0.75,-0.66667 1.666667,-0.66667 2.33534,0 2.050847,-1.47476 -0.514427,-2.66667 -4.05912,-1.885998 -2.982266,-6.524158 1.95226,-8.408678 2.77524,-1.059867 3.98382,-2.924653 1.8955,-2.924653 -0.55,0 -1,-0.3 -1,-0.666667 0,-0.370373 1.77778,-0.666667 4,-0.666667 2.22222,0 4,0.296294 4,0.666667 0,0.366667 -0.75,0.666667 -1.666666,0.666667 -1.94104,0 -2.31032,1.813586 -0.5,2.455586 2.026713,0.718754 3.5,2.36508 3.5,3.9111 0,1.865647 -2.524994,4.35442 -5.399827,5.322365 -2.52994,0.85183 -3.3649,2.31095 -1.322393,2.31095 0.763886,0 1.388886,0.3 1.388886,0.66667 0,0.37037 -1.77778,0.66666 -4,0.66666 -2.22222,0 -4,-0.29629 -4,-0.66666 z m 4.619967,-7.051731 c 0.457673,-2.045114 0.681107,-3.86942 0.49652,-4.054014 -0.708527,-0.70852 -2.971293,1.145734 -3.779647,3.097274 -0.735353,1.7753 -0.690193,2.214693 0.345227,3.358813 0.655187,0.723973 1.397013,1.316318 1.648507,1.316318 0.251486,0 0.831713,-1.673271 1.289393,-3.718391 z m 5.138073,1.339166 c 1.280674,-1.954546 0.952467,-5.204546 -0.554433,-5.490173 -0.838153,-0.158873 -1.321553,0.527887 -1.873013,2.660967 -0.408807,1.581306 -0.887754,3.37524 -1.064327,3.986513 -0.479907,1.661398 2.23434,0.761787 3.491773,-1.157307 z m -4.424706,-34.954107 c 0,-10.222222 0.24074,-16 0.666666,-16 0.425927,0 0.666667,5.777778 0.666667,16 0,10.2222204 -0.24074,16.0000004 -0.666667,16.0000004 -0.425926,0 -0.666666,-5.77778 -0.666666,-16.0000004 z m -3.62952,-30.354643 c -1.723727,-3.86172 -2.998254,-7.38672 -2.83228,-7.833334 0.299093,-0.804832 5.795133,10.311248 5.795133,11.721022 0,1.39937 1.100453,-0.516475 3.6679,-6.385663 1.408107,-3.218939 2.807607,-5.60521 3.109993,-5.302824 0.550387,0.550387 -5.41122,14.819396 -6.192293,14.821168 -0.227927,5.17e-4 -1.824727,-3.158649 -3.548453,-7.020369 z m -23.703814,5.687976 c 0,-0.366667 0.75,-0.666667 1.666666,-0.666667 2.335343,0 2.050846,-1.474757 -0.514428,-2.666667 -4.05912,-1.885998 -2.982264,-6.524162 1.952265,-8.408676 2.775234,-1.059872 3.983818,-2.924657 1.895497,-2.924657 -0.55,0 -1,-0.3 -1,-0.666667 0,-0.370371 1.777778,-0.666667 4,-0.666667 2.222222,0 4,0.296296 4,0.666667 0,0.366667 -0.75,0.666667 -1.666667,0.666667 -1.94104,0 -2.310316,1.813584 -0.5,2.455589 2.026716,0.718749 3.5,2.365079 3.5,3.911096 0,1.865649 -2.524992,4.354422 -5.399826,5.32237 -2.529942,0.851824 -3.364898,2.310945 -1.322396,2.310945 0.763889,0 1.388889,0.3 1.388889,0.666667 0,0.37037 -1.777778,0.666667 -4,0.666667 -2.222222,0 -4,-0.296297 -4,-0.666667 z m 4.619967,-7.051725 c 0.457676,-2.045115 0.681109,-3.869421 0.496517,-4.054013 -0.708521,-0.708522 -2.971289,1.14573 -3.779645,3.097274 -0.735352,1.775296 -0.69019,2.21469 0.345225,3.358811 0.655189,0.723975 1.397017,1.316319 1.648508,1.316319 0.25149,0 0.831718,-1.673276 1.289395,-3.718391 z m 5.138074,1.339166 c 1.28067,-1.954549 0.952465,-5.204549 -0.554431,-5.490176 -0.838159,-0.15887 -1.321556,0.527887 -1.873014,2.660967 -0.408809,1.581305 -0.887759,3.375238 -1.064332,3.986517 -0.479907,1.661388 2.23434,0.761783 3.491777,-1.157308 z m 31.908626,5.712559 c 0.226614,-0.366667 0.99432,-0.666667 1.706014,-0.666667 1.764926,0 1.626013,-1.213603 -0.31356,-2.73927 -1.320467,-1.038677 -1.647874,-1.983091 -1.833334,-5.288313 -0.207913,-3.705318 -0.120246,-4.008589 1.107547,-3.83145 1.184707,0.170924 1.308173,0.611211 1.10762,3.949864 -0.141233,2.351199 0.06247,3.93562 0.54436,4.233424 0.423533,0.261759 0.92306,0.322926 1.11006,0.135926 0.258238,-0.258238 2.833318,-9.419921 2.893198,-10.293514 0.006,-0.09167 -0.58857,-0.166667 -1.3219,-0.166667 -0.73334,0 -1.33334,-0.3 -1.33334,-0.666667 0,-0.370371 1.77778,-0.666667 4,-0.666667 3.8478,0 5.59288,1.014189 2.50123,1.453633 -1.2086,0.17179 -1.71455,0.987456 -2.61332,4.213034 -0.613,2.2 -1.13855,4.591667 -1.16789,5.314815 -0.0511,1.258632 0.009,1.252129 1.41366,-0.152199 0.80686,-0.806858 1.93867,-2.748524 2.51513,-4.314815 0.87347,-2.373296 1.37883,-2.884331 3.03299,-3.067042 l 1.98487,-0.219242 -1.44057,1.356515 c -0.79232,0.746082 -1.63938,2.261632 -1.88235,3.367886 -0.45125,2.05452 -3.74213,5.380749 -5.32357,5.380749 -0.48264,0 -1.0502,0.45 -1.26126,1 -0.26102,0.680193 0.036,1 0.92867,1 0.72183,0 1.31241,0.3 1.31241,0.666667 0,0.371092 -1.79089,0.666667 -4.039345,0.666667 -2.523133,0 -3.884686,-0.250241 -3.62732,-0.666667 z"
       id="path80" />
  </g>
</svg>
