<?xml version="1.0" encoding="UTF-8" standalone="no"?>
<svg
   xmlns:dc="http://purl.org/dc/elements/1.1/"
   xmlns:cc="http://creativecommons.org/ns#"
   xmlns:rdf="http://www.w3.org/1999/02/22-rdf-syntax-ns#"
   xmlns:svg="http://www.w3.org/2000/svg"
   xmlns="http://www.w3.org/2000/svg"
   xmlns:sodipodi="http://sodipodi.sourceforge.net/DTD/sodipodi-0.dtd"
   xmlns:inkscape="http://www.inkscape.org/namespaces/inkscape"
   version="1.1"
   id="svg410"
   width="94.999992"
   height="84.599625"
   viewBox="0 0 94.999993 84.599624"
   sodipodi:docname="resRuleNegCon.svg"
   inkscape:version="1.0.1 (c497b03c, 2020-09-10)">
  <metadata
     id="metadata416">
    <rdf:RDF>
      <cc:Work
         rdf:about="">
        <dc:format>image/svg+xml</dc:format>
        <dc:type
           rdf:resource="http://purl.org/dc/dcmitype/StillImage" />
        <dc:title></dc:title>
      </cc:Work>
    </rdf:RDF>
  </metadata>
  <defs
     id="defs414" />
  <sodipodi:namedview
     pagecolor="#ffffff"
     bordercolor="#666666"
     borderopacity="1"
     objecttolerance="10"
     gridtolerance="10"
     guidetolerance="10"
     inkscape:pageopacity="0"
     inkscape:pageshadow="2"
     inkscape:window-width="1055"
     inkscape:window-height="785"
     id="namedview412"
     showgrid="false"
     inkscape:pagecheckerboard="true"
     fit-margin-top="0"
     fit-margin-left="0"
     fit-margin-right="0"
     fit-margin-bottom="0"
     inkscape:zoom="2.051659"
     inkscape:cx="44.939085"
     inkscape:cy="33.947798"
     inkscape:window-x="0"
     inkscape:window-y="25"
     inkscape:window-maximized="0"
     inkscape:current-layer="g418" />
  <g
     inkscape:groupmode="layer"
     inkscape:label="Image"
     id="g418"
     transform="translate(-54.666666,-25.400373)">
    <path
       style="fill:#1d1d1d;stroke-width:0.666667"
       d="m 70.666666,109.33334 c 0,-0.36667 0.75,-0.66667 1.666666,-0.66667 2.33534,0 2.050847,-1.47476 -0.514426,-2.66667 -4.05912,-1.886 -2.982267,-6.524158 1.95226,-8.408678 2.77524,-1.059866 3.983819,-2.924653 1.8955,-2.924653 -0.55,0 -1,-0.3 -1,-0.666667 0,-0.370373 1.77778,-0.666666 3.999999,-0.666666 2.22222,0 4,0.296293 4,0.666666 0,0.366667 -0.75,0.666667 -1.666666,0.666667 -1.94104,0 -2.31032,1.813587 -0.5,2.455587 2.026713,0.718753 3.5,2.36508 3.5,3.911104 0,1.86564 -2.524994,4.35442 -5.399827,5.32236 -2.52994,0.85183 -3.3649,2.31095 -1.322393,2.31095 0.763886,0 1.388886,0.3 1.388886,0.66667 0,0.37037 -1.777779,0.66666 -3.999999,0.66666 -2.22222,0 -4,-0.29629 -4,-0.66666 z m 4.619966,-7.05173 c 0.457674,-2.04511 0.681107,-3.869421 0.49652,-4.054014 -0.708526,-0.70852 -2.971293,1.145733 -3.779646,3.097274 -0.735354,1.7753 -0.690194,2.21469 0.345226,3.35881 0.655187,0.72398 1.397014,1.31632 1.648507,1.31632 0.251487,0 0.831713,-1.67327 1.289393,-3.71839 z m 5.138073,1.33917 c 1.280674,-1.95455 0.952467,-5.204551 -0.554433,-5.490178 -0.838153,-0.158873 -1.321553,0.527887 -1.873013,2.660968 -0.408807,1.58131 -0.887753,3.37524 -1.064327,3.98651 -0.479906,1.6614 2.23434,0.76179 3.491773,-1.1573 z m 53.908625,5.71256 c 0.22661,-0.36667 0.99432,-0.66667 1.70601,-0.66667 1.76493,0 1.62602,-1.2136 -0.31356,-2.73927 -1.31804,-1.03677 -1.64821,-1.98475 -1.83333,-5.26383 -0.19482,-3.450808 -0.0658,-3.999161 0.94088,-3.998114 1.30565,0.0013 1.39827,0.369786 1.19687,4.760704 -0.12657,2.75938 0.76595,4.66658 1.73184,3.70069 0.25824,-0.25824 2.83331,-9.419921 2.8932,-10.293514 0.006,-0.09167 -0.58858,-0.166667 -1.32191,-0.166667 -0.73333,0 -1.33333,-0.3 -1.33333,-0.666667 0,-0.370373 1.77778,-0.666666 4,-0.666666 3.84779,0 5.59288,1.014186 2.50122,1.453633 -1.2086,0.171787 -1.71455,0.987453 -2.61332,4.213033 -0.613,2.199998 -1.13854,4.591668 -1.16789,5.314818 -0.0511,1.25863 0.009,1.25212 1.41367,-0.1522 0.80686,-0.80686 1.93866,-2.74852 2.51512,-4.314818 0.87348,-2.373293 1.37884,-2.884333 3.03299,-3.06704 l 1.98487,-0.21924 -1.44057,1.356514 c -0.79231,0.74608 -1.63937,2.261624 -1.88235,3.367884 -0.45124,2.05452 -3.74213,5.38075 -5.32357,5.38075 -0.48263,0 -1.0502,0.45 -1.26126,1 -0.26101,0.68019 0.036,1 0.92867,1 0.72183,0 1.31242,0.3 1.31242,0.66667 0,0.37109 -1.7909,0.66666 -4.03935,0.66666 -2.52313,0 -3.88469,-0.25024 -3.62732,-0.66666 z m -67.666664,-4 v -2.66667 h -6 c -3.555556,0 -6,-0.27161 -6,-0.66667 0,-0.4 2.666666,-0.66666 6.666666,-0.66666 h 6.666667 v 3.33333 c 0,1.83333 -0.3,3.33333 -0.666667,3.33333 -0.366666,0 -0.666666,-1.2 -0.666666,-2.66666 z m 63.999994,0 v -2.66667 h -6 c -3.55555,0 -6,-0.27161 -6,-0.66667 0,-0.4 2.66667,-0.66666 6.66667,-0.66666 H 132 v 3.33333 C 132,106.5 131.7,108 131.33333,108 c -0.36667,0 -0.66667,-1.2 -0.66667,-2.66666 z M 69.391586,84.869262 c 0.411793,-1.19372 31.209964,-27.535927 32.193804,-27.535927 0.98616,0 31.94581,26.348227 32.35635,27.536887 0.357,1.033607 0.3151,0.99976 -16.27178,-13.14576 -7.70181,-6.568216 -14.47729,-12.343553 -15.05661,-12.834082 -0.91717,-0.776587 -2.991092,0.767084 -16.044358,11.942208 -18.227,15.604447 -17.518526,15.025514 -17.177406,14.036674 z m 6.964573,-37.240968 c -4.12132,-4.446974 -4.577167,-13.582978 -0.962153,-19.28326 2.458899,-3.87729 3.877419,-3.947743 1.610773,-0.08 -3.081673,5.25848 -3.053087,13.512944 0.06267,18.10431 2.047179,3.016696 1.619393,3.773834 -0.71132,1.258951 z M 140,49.039573 c 0,-0.275226 0.61392,-1.362587 1.36427,-2.416357 2.17374,-3.052739 3.06071,-8.575314 2.10769,-13.123215 -0.4418,-2.108334 -1.40373,-4.646186 -2.13762,-5.639672 -1.57066,-2.126253 -1.66618,-2.612486 -0.4192,-2.133974 0.50333,0.193146 1.70333,1.799328 2.66667,3.569296 3.20693,5.892187 2.15529,15.055833 -2.17754,18.974342 C 140.63192,48.968488 140,49.314799 140,49.039573 Z m -37.77471,-5.680097 c -2.785685,-1.172097 -2.648138,-4.230168 0.3107,-6.907879 1.03776,-0.93916 1.25074,-1.7624 0.97937,-3.785607 -0.46929,-3.498796 0.2088,-5.821924 1.85151,-6.343301 3.08789,-0.980058 4.36142,2.814529 1.96646,5.859226 -1.69472,2.15449 -1.68183,2.32904 0.39794,5.38969 l 1.73126,2.547783 1.60207,-2.357658 c 1.70756,-2.512913 2.0181,-3.761729 0.9354,-3.761729 -0.36667,0 -0.66667,-0.3 -0.66667,-0.666667 0,-0.366667 1.2,-0.666667 2.66667,-0.666667 2.73116,0 3.62972,0.925982 1.45134,1.49564 -0.66843,0.174797 -2.04104,1.726798 -3.05026,3.44889 -1.46592,2.501411 -1.67434,3.324576 -1.03638,4.093273 1.16954,1.409211 2.99074,1.175212 4.18568,-0.537802 0.57549,-0.825 1.06208,-1.125 1.08132,-0.666667 0.0193,0.458333 -0.59104,1.459331 -1.35614,2.224439 -1.06413,1.06413 -1.80845,1.272778 -3.16667,0.887688 -2.10498,-0.596816 -3.73013,-0.610849 -6.44222,-0.05563 -1.1,0.225193 -2.64862,0.136532 -3.44138,-0.197026 z m 5.00798,-1.283521 c 0.71158,-0.450941 0.48793,-1.139037 -1.06864,-3.287823 -2.14269,-2.957898 -3.49796,-2.746662 -3.49796,0.545202 0,2.829757 2.27398,4.195474 4.5666,2.742621 z m 0.10006,-12.824251 c 0,-1.220668 -0.34735,-1.91837 -0.95507,-1.91837 -1.19215,0 -1.94374,2.21833 -1.36712,4.0351 0.62088,1.956213 2.32219,0.405427 2.32219,-2.11673 z M 81.333332,42.666668 c 0,-0.366667 0.75,-0.666667 1.666667,-0.666667 2.33534,0 2.050846,-1.474757 -0.514427,-2.666667 -4.05912,-1.885998 -2.982267,-6.524163 1.95226,-8.408677 2.77524,-1.059872 3.98382,-2.924656 1.8955,-2.924656 -0.55,0 -1,-0.3 -1,-0.666667 0,-0.370371 1.77778,-0.666667 4,-0.666667 2.22222,0 4,0.296296 4,0.666667 0,0.366667 -0.75,0.666667 -1.666667,0.666667 -1.94104,0 -2.31032,1.813584 -0.5,2.455589 2.026714,0.718749 3.5,2.365079 3.5,3.911096 0,1.865649 -2.524993,4.354422 -5.399826,5.32237 -2.52994,0.851824 -3.3649,2.310945 -1.322394,2.310945 0.763887,0 1.388887,0.3 1.388887,0.666667 0,0.37037 -1.77778,0.666666 -4,0.666666 -2.22222,0 -4,-0.296296 -4,-0.666666 z m 4.619967,-7.051725 c 0.457673,-2.045116 0.681106,-3.869422 0.49652,-4.054014 -0.708527,-0.708521 -2.971294,1.145731 -3.779647,3.097274 -0.735353,1.775297 -0.690193,2.214691 0.345227,3.358812 0.655186,0.723975 1.397013,1.316319 1.648506,1.316319 0.251487,0 0.831714,-1.673276 1.289394,-3.718391 z m 5.138073,1.339166 c 1.280673,-1.954549 0.952467,-5.204549 -0.554433,-5.490176 -0.838154,-0.15887 -1.321554,0.527886 -1.873014,2.660966 -0.408806,1.581306 -0.887753,3.375239 -1.064326,3.986518 -0.479907,1.661388 2.23434,0.761783 3.491773,-1.157308 z m 32.575288,5.712559 c 0.22662,-0.366667 0.99432,-0.666667 1.70602,-0.666667 1.76492,0 1.62601,-1.213603 -0.31356,-2.73927 -1.31804,-1.03677 -1.64822,-1.984751 -1.83334,-5.263829 -0.19482,-3.450808 -0.0658,-3.999164 0.94088,-3.998116 1.30565,0.0013 1.39827,0.369788 1.19687,4.760699 -0.12657,2.759389 0.76595,4.666583 1.73184,3.700697 0.25824,-0.258238 2.83331,-9.419921 2.8932,-10.293515 0.006,-0.09167 -0.58857,-0.166666 -1.32191,-0.166666 -0.73333,0 -1.33333,-0.3 -1.33333,-0.666667 0,-0.370371 1.77778,-0.666667 4,-0.666667 3.84779,0 5.59288,1.014189 2.50123,1.453633 -1.2086,0.171789 -1.71456,0.987456 -2.61332,4.213034 -0.613,2.2 -1.13855,4.591667 -1.1679,5.314815 -0.0511,1.258632 0.009,1.252129 1.41367,-0.152199 0.80686,-0.806858 1.93867,-2.748525 2.51513,-4.314815 0.87347,-2.373296 1.37883,-2.884332 3.03298,-3.067042 L 139,29.894851 l -1.44058,1.356514 c -0.79231,0.746083 -1.63937,2.261632 -1.88234,3.367887 -0.45125,2.05452 -3.74214,5.380749 -5.32358,5.380749 -0.48263,0 -1.0502,0.45 -1.26126,1 -0.26101,0.680193 0.036,1 0.92868,1 0.72182,0 1.31241,0.3 1.31241,0.666667 0,0.371092 -1.79089,0.666666 -4.03935,0.666666 -2.52313,0 -3.88468,-0.25024 -3.62732,-0.666666 z m -55.666661,-4 v -2.666667 h -6 c -3.555555,0 -6,-0.271605 -6,-0.666667 0,-0.4 2.666667,-0.666667 6.666667,-0.666667 h 6.666666 v 3.333334 c 0,1.833333 -0.3,3.333333 -0.666666,3.333333 -0.366667,0 -0.666667,-1.2 -0.666667,-2.666666 z"
       id="path422" />
  </g>
</svg>
