<?xml version="1.0" encoding="UTF-8" standalone="no"?>
<svg
   xmlns:dc="http://purl.org/dc/elements/1.1/"
   xmlns:cc="http://creativecommons.org/ns#"
   xmlns:rdf="http://www.w3.org/1999/02/22-rdf-syntax-ns#"
   xmlns:svg="http://www.w3.org/2000/svg"
   xmlns="http://www.w3.org/2000/svg"
   xmlns:sodipodi="http://sodipodi.sourceforge.net/DTD/sodipodi-0.dtd"
   xmlns:inkscape="http://www.inkscape.org/namespaces/inkscape"
   version="1.1"
   id="svg398"
   width="94.666672"
   height="112.59962"
   viewBox="0 0 94.666671 112.59962"
   sodipodi:docname="resRuleNegCond.svg"
   inkscape:version="1.0.1 (c497b03c, 2020-09-10)">
  <metadata
     id="metadata404">
    <rdf:RDF>
      <cc:Work
         rdf:about="">
        <dc:format>image/svg+xml</dc:format>
        <dc:type
           rdf:resource="http://purl.org/dc/dcmitype/StillImage" />
        <dc:title></dc:title>
      </cc:Work>
    </rdf:RDF>
  </metadata>
  <defs
     id="defs402" />
  <sodipodi:namedview
     pagecolor="#ffffff"
     bordercolor="#666666"
     borderopacity="1"
     objecttolerance="10"
     gridtolerance="10"
     guidetolerance="10"
     inkscape:pageopacity="0"
     inkscape:pageshadow="2"
     inkscape:window-width="738"
     inkscape:window-height="678"
     id="namedview400"
     showgrid="false"
     showguides="false"
     inkscape:pagecheckerboard="true"
     fit-margin-top="0"
     fit-margin-left="0"
     fit-margin-right="0"
     fit-margin-bottom="0"
     inkscape:zoom="2.0582107"
     inkscape:cx="37.151818"
     inkscape:cy="118.221"
     inkscape:window-x="36"
     inkscape:window-y="25"
     inkscape:window-maximized="0"
     inkscape:current-layer="g406" />
  <g
     inkscape:groupmode="layer"
     inkscape:label="Image"
     id="g406"
     transform="translate(-103.55761,45.964324)">
    <path
       style="fill:#1f1f1f;stroke-width:0.666667"
       d="m 151.89094,65.968634 c 0.22662,-0.36666 0.99432,-0.66666 1.70602,-0.66666 1.76493,0 1.62601,-1.2136 -0.31356,-2.73928 -1.32047,-1.03867 -1.64788,-1.98308 -1.83334,-5.2883 -0.20791,-3.70532 -0.12024,-4.0086 1.10755,-3.83146 1.18471,0.17093 1.30818,0.61122 1.10762,3.94987 -0.14123,2.3512 0.0625,3.93562 0.54436,4.23342 0.42354,0.26176 0.92306,0.32293 1.11006,0.13593 0.25824,-0.25824 2.83332,-9.41992 2.8932,-10.29352 0.006,-0.0917 -0.58857,-0.16666 -1.3219,-0.16666 -0.73334,0 -1.33334,-0.3 -1.33334,-0.66667 0,-0.37037 1.77778,-0.66667 4,-0.66667 3.8478,0 5.59288,1.01419 2.50123,1.45364 -1.2086,0.17178 -1.71455,0.98745 -2.61332,4.21303 -0.613,2.2 -1.13855,4.59167 -1.16789,5.31481 -0.0511,1.25864 0.009,1.25213 1.41366,-0.1522 0.80686,-0.80685 1.93867,-2.74852 2.51513,-4.31481 0.87347,-2.37329 1.37883,-2.88433 3.03299,-3.06704 l 1.98487,-0.21924 -1.44057,1.35651 c -0.79232,0.74608 -1.63938,2.26163 -1.88235,3.36789 -0.45125,2.05452 -3.74213,5.38075 -5.32357,5.38075 -0.48264,0 -1.0502,0.45 -1.26126,1 -0.26102,0.68019 0.036,1 0.92867,1 0.72183,0 1.31241,0.3 1.31241,0.66666 0,0.3711 -1.79089,0.66667 -4.03934,0.66667 -2.52314,0 -3.88469,-0.25024 -3.62733,-0.66667 z m -3.66666,-4 v -2.66666 h -6 c -3.55556,0 -6,-0.27161 -6,-0.66667 0,-0.4 2.66666,-0.66667 6.66666,-0.66667 h 6.66667 v 3.33334 c 0,1.83333 -0.3,3.33333 -0.66667,3.33333 -0.36666,0 -0.66666,-1.2 -0.66666,-2.66667 z m -2.66667,-24.66666 c 0,-0.36667 0.75,-0.66667 1.66667,-0.66667 2.33534,0 2.05084,-1.47476 -0.51443,-2.66667 -4.05912,-1.886 -2.98227,-6.52416 1.95226,-8.408677 2.77524,-1.059866 3.98382,-2.924653 1.8955,-2.924653 -0.55,0 -1,-0.3 -1,-0.666667 0,-0.370373 1.77778,-0.666666 4,-0.666666 2.22222,0 4,0.296293 4,0.666666 0,0.366667 -0.75,0.666667 -1.66666,0.666667 -1.94104,0 -2.31032,1.813587 -0.5,2.455587 2.02671,0.718753 3.5,2.365083 3.5,3.911103 0,1.86564 -2.525,4.35442 -5.39983,5.32236 -2.52994,0.85183 -3.3649,2.31095 -1.3224,2.31095 0.76389,0 1.38889,0.3 1.38889,0.66667 0,0.37037 -1.77778,0.66666 -4,0.66666 -2.22222,0 -4,-0.29629 -4,-0.66666 z m 4.61997,-7.05173 c 0.45767,-2.04511 0.6811,-3.86942 0.49652,-4.054013 -0.70853,-0.70852 -2.9713,1.145733 -3.77965,3.097273 -0.73535,1.7753 -0.69019,2.21469 0.34523,3.35881 0.65518,0.72398 1.39701,1.31632 1.6485,1.31632 0.25149,0 0.83172,-1.67327 1.2894,-3.71839 z m 5.13807,1.33917 c 1.28068,-1.95455 0.95247,-5.20455 -0.55443,-5.490177 -0.83815,-0.158873 -1.32155,0.527887 -1.87302,2.660967 -0.4088,1.58131 -0.88775,3.37524 -1.06432,3.98651 -0.47991,1.6614 2.23434,0.76179 3.49177,-1.1573 z m -4.42471,-31.95411035 c 0,-8.66666695 0.2439,-13.66666665 0.66667,-13.66666665 0.42277,0 0.66667,4.9999997 0.66667,13.66666665 0,8.66666705 -0.2439,13.66666735 -0.66667,13.66666735 -0.42277,0 -0.66667,-5.0000003 -0.66667,-13.66666735 z M 123.2471,-23.736403 c -4.12132,-4.446974 -4.57716,-13.582978 -0.96215,-19.28326 2.4589,-3.87729 3.87742,-3.947742 1.61077,-0.08 -3.08167,5.258481 -3.05308,13.512944 0.0627,18.10431 2.04718,3.016696 1.6194,3.773834 -0.71132,1.258951 z m 69.64385,1.411279 c 0,-0.275226 0.61392,-1.362587 1.36427,-2.416357 0.75035,-1.05377 1.71228,-3.575081 2.13763,-5.602914 0.93082,-4.43776 -0.0549,-10.30012 -2.22626,-13.239374 -1.7083,-2.312489 -1.25614,-3.086493 0.62408,-1.068308 2.47286,2.654294 3.43361,5.615059 3.43361,10.581359 0,3.354737 -0.37253,5.489042 -1.26239,7.232581 -1.21401,2.378634 -4.07094,5.545809 -4.07094,4.513013 z m -36.94971,-5.718435 c 5.39875,-0.569778 7.25102,-1.496282 8.36422,-4.183792 0.64165,-1.54909 0.58921,-2.314057 -0.2842,-4.145629 -1.21745,-2.553002 -4.00412,-3.648451 -9.29698,-3.654665 -1.74167,-0.002 -3.16667,-0.303718 -3.16667,-0.670384 0,-0.8784 6.31724,-0.84883 9.53468,0.04463 4.37704,1.215467 6.33042,6.05419 4.02181,9.962368 -1.55309,2.62918 -3.55003,3.340208 -9.08785,3.235816 l -4.80197,-0.09052 z m -27.0503,-0.65447 c 0,-0.366667 0.75,-0.666667 1.66667,-0.666667 2.33534,0 2.05085,-1.474757 -0.51443,-2.666667 -4.05912,-1.885998 -2.98226,-6.524162 1.95226,-8.408676 2.77524,-1.059872 3.98382,-2.924657 1.8955,-2.924657 -0.55,0 -1,-0.3 -1,-0.666667 0,-0.37037 1.77778,-0.666666 4,-0.666666 2.22222,0 4,0.296296 4,0.666666 0,0.366667 -0.75,0.666667 -1.66666,0.666667 -1.94104,0 -2.31032,1.813584 -0.5,2.455589 2.02671,0.718749 3.5,2.365079 3.5,3.911096 0,1.865649 -2.525,4.354422 -5.39983,5.32237 -2.52994,0.851824 -3.3649,2.310945 -1.32239,2.310945 0.76388,0 1.38888,0.3 1.38888,0.666667 0,0.37037 -1.77778,0.666666 -4,0.666666 -2.22222,0 -4,-0.296296 -4,-0.666666 z m 4.61997,-7.051725 c 0.45767,-2.045115 0.68111,-3.869421 0.49652,-4.054013 -0.70853,-0.708522 -2.97129,1.14573 -3.77965,3.097274 -0.73535,1.775296 -0.69019,2.21469 0.34523,3.358811 0.65519,0.723975 1.39701,1.316319 1.64851,1.316319 0.25148,0 0.83171,-1.673276 1.28939,-3.718391 z m 5.13807,1.339166 c 1.28068,-1.954549 0.95247,-5.204549 -0.55443,-5.490176 -0.83815,-0.15887 -1.32155,0.527887 -1.87301,2.660967 -0.40881,1.581305 -0.88776,3.375238 -1.06433,3.986517 -0.47991,1.661388 2.23434,0.761783 3.49177,-1.157308 z m 37.24197,5.712559 c 0.22661,-0.366667 0.99432,-0.666667 1.70601,-0.666667 1.76493,0 1.62601,-1.213603 -0.31356,-2.73927 -1.32047,-1.038677 -1.64787,-1.983091 -1.83333,-5.288313 -0.20792,-3.705318 -0.12025,-4.008589 1.10754,-3.83145 1.18471,0.170924 1.30818,0.611211 1.10762,3.949864 -0.14123,2.351199 0.0625,3.93562 0.54436,4.233424 0.42354,0.261759 0.92306,0.322926 1.11006,0.135926 0.25824,-0.258238 2.83332,-9.419921 2.8932,-10.293514 0.006,-0.09167 -0.58857,-0.166667 -1.3219,-0.166667 -0.73334,0 -1.33334,-0.3 -1.33334,-0.666667 0,-0.37037 1.77778,-0.666666 4,-0.666666 3.8478,0 5.59288,1.014188 2.50123,1.453632 -1.2086,0.17179 -1.71455,0.987456 -2.61332,4.213034 -0.613,2.2 -1.13855,4.591667 -1.16789,5.314815 -0.0511,1.258632 0.009,1.252129 1.41366,-0.152199 0.80686,-0.806858 1.93867,-2.748524 2.51513,-4.314815 0.87347,-2.373296 1.37883,-2.884331 3.03299,-3.067042 l 1.98487,-0.219242 -1.44057,1.356515 c -0.79232,0.746082 -1.63938,2.261632 -1.88235,3.367886 -0.45125,2.05452 -3.74213,5.380749 -5.32357,5.380749 -0.48264,0 -1.0502,0.45 -1.26126,1 -0.26102,0.680193 0.036,1 0.92867,1 0.72183,0 1.31241,0.3 1.31241,0.666667 0,0.371092 -1.79089,0.666666 -4.03934,0.666666 -2.52314,0 -3.88469,-0.25024 -3.62732,-0.666666 z m -60.33334,-4 v -2.666667 h -6 c -3.55555,0 -6,-0.271605 -6,-0.666667 0,-0.4 2.66667,-0.666666 6.66667,-0.666666 h 6.66666 v 3.333333 c 0,1.833333 -0.3,3.333333 -0.66666,3.333333 -0.36667,0 -0.66667,-1.2 -0.66667,-2.666666 z"
       id="path410" />
  </g>
</svg>
