<?xml version="1.0" encoding="UTF-8" standalone="no"?>
<svg
   xmlns:dc="http://purl.org/dc/elements/1.1/"
   xmlns:cc="http://creativecommons.org/ns#"
   xmlns:rdf="http://www.w3.org/1999/02/22-rdf-syntax-ns#"
   xmlns:svg="http://www.w3.org/2000/svg"
   xmlns="http://www.w3.org/2000/svg"
   xmlns:sodipodi="http://sodipodi.sourceforge.net/DTD/sodipodi-0.dtd"
   xmlns:inkscape="http://www.inkscape.org/namespaces/inkscape"
   version="1.1"
   id="svg170"
   width="79.666672"
   height="82"
   viewBox="0 0 79.666672 81.999999"
   sodipodi:docname="resRulCond.svg"
   inkscape:version="1.0.1 (c497b03c, 2020-09-10)">
  <metadata
     id="metadata176">
    <rdf:RDF>
      <cc:Work
         rdf:about="">
        <dc:format>image/svg+xml</dc:format>
        <dc:type
           rdf:resource="http://purl.org/dc/dcmitype/StillImage" />
        <dc:title></dc:title>
      </cc:Work>
    </rdf:RDF>
  </metadata>
  <defs
     id="defs174" />
  <sodipodi:namedview
     pagecolor="#ffffff"
     bordercolor="#666666"
     borderopacity="1"
     objecttolerance="10"
     gridtolerance="10"
     guidetolerance="10"
     inkscape:pageopacity="0"
     inkscape:pageshadow="2"
     inkscape:window-width="731"
     inkscape:window-height="480"
     id="namedview172"
     showgrid="false"
     inkscape:pagecheckerboard="true"
     fit-margin-top="0"
     fit-margin-left="0"
     fit-margin-right="0"
     fit-margin-bottom="0"
     inkscape:zoom="1.1825236"
     inkscape:cx="176.72785"
     inkscape:cy="75.775594"
     inkscape:window-x="0"
     inkscape:window-y="25"
     inkscape:window-maximized="0"
     inkscape:current-layer="g178" />
  <g
     inkscape:groupmode="layer"
     inkscape:label="Image"
     id="g178"
     transform="translate(57.773467,-8.013125)">
    <path
       style="fill:#1e1e1e;stroke-width:0.666667"
       d="m -41.773467,89.346464 c 0,-0.36667 0.75,-0.66667 1.666667,-0.66667 2.33534,0 2.050846,-1.47476 -0.514427,-2.66667 -4.05912,-1.886 -2.982267,-6.52416 1.95226,-8.408678 2.77524,-1.059866 3.98382,-2.924653 1.8955,-2.924653 -0.55,0 -1,-0.3 -1,-0.666667 0,-0.370373 1.77778,-0.666667 4,-0.666667 2.22222,0 4,0.296294 4,0.666667 0,0.366667 -0.75,0.666667 -1.666667,0.666667 -1.94104,0 -2.31032,1.813587 -0.5,2.455587 2.026714,0.718753 3.5,2.365084 3.5,3.911104 0,1.86564 -2.524993,4.35442 -5.399826,5.32236 -2.52994,0.85183 -3.3649,2.31095 -1.322394,2.31095 0.763887,0 1.388887,0.3 1.388887,0.66667 0,0.37037 -1.77778,0.66666 -4,0.66666 -2.22222,0 -4,-0.29629 -4,-0.66666 z m 4.619967,-7.05173 c 0.457673,-2.04511 0.681106,-3.86942 0.49652,-4.05401 -0.708527,-0.708524 -2.971294,1.14573 -3.779647,3.09727 -0.735353,1.7753 -0.690193,2.21469 0.345227,3.35881 0.655186,0.72398 1.397013,1.31632 1.648506,1.31632 0.251487,0 0.831714,-1.67327 1.289394,-3.71839 z m 5.138073,1.33917 c 1.280673,-1.95455 0.952467,-5.20455 -0.554433,-5.49018 -0.838154,-0.158871 -1.321554,0.52789 -1.873014,2.66097 -0.408806,1.58131 -0.887753,3.37524 -1.064326,3.98651 -0.479907,1.6614 2.23434,0.76179 3.491773,-1.1573 z m 38.5752897,5.71256 c 0.22662,-0.36667 0.99432,-0.66667 1.70602,-0.66667 1.7649203,0 1.62601,-1.2136 -0.31356,-2.73927 -1.31804,-1.03677 -1.64822,-1.98475 -1.83334,-5.26383 -0.19482,-3.450808 -0.0658,-3.999161 0.94088,-3.998114 1.30565,0.0013 1.39827,0.369786 1.19687,4.760704 -0.12657,2.75938 0.76595,4.66658 1.73184,3.70069 0.2582403,-0.25824 2.8333103,-9.419921 2.8932003,-10.293515 0.006,-0.09167 -0.58857,-0.166666 -1.32191,-0.166666 -0.73333,0 -1.33333,-0.3 -1.33333,-0.666667 0,-0.370373 1.77778,-0.666667 4,-0.666667 3.84779,0 5.59288,1.014187 2.50123,1.453634 -1.2086,0.171786 -1.71456,0.987453 -2.61332,4.213031 -0.613,2.2 -1.13855,4.59167 -1.1679,5.31482 -0.0511,1.25863 0.009,1.25212 1.41367,-0.1522 0.80686,-0.80686 1.93867,-2.74852 2.51513,-4.31482 0.87347,-2.373291 1.37883,-2.884331 3.03298,-3.067038 l 1.98488,-0.21924 -1.44058,1.356514 c -0.79231,0.746084 -1.63937,2.261624 -1.88234,3.367884 -0.45125,2.05452 -3.74214,5.38075 -5.32358,5.38075 -0.48263,0 -1.0502,0.45 -1.26126,1 -0.26101,0.68019 0.036,1 0.92868,1 0.72182,0 1.31241,0.3 1.31241,0.66667 0,0.37109 -1.79089,0.66666 -4.03935,0.66666 -2.5231303,0 -3.8846803,-0.25024 -3.6273203,-0.66666 z m -52.3333297,-4 v -2.66667 h -6 c -3.555555,0 -6,-0.27161 -6,-0.66667 0,-0.4 2.666667,-0.66666 6.666667,-0.66666 h 6.666666 v 3.33333 c 0,1.83333 -0.3,3.33333 -0.666666,3.33333 -0.366667,0 -0.666667,-1.2 -0.666667,-2.66666 z m 7.446587,-26.166672 c 3.085933,-3.391666 9.46036,-10.441666 14.165393,-15.666667 4.70504,-5.225 8.89707,-9.5 9.31564,-9.5 0.70159,0 26.67546,28.333628 27.98466,30.527094 1.64058,2.748694 -1.85748,-0.83012 -13.54769031,-13.860427 C -7.4814573,42.796459 -13.620367,35.968618 -14.050907,35.506813 c -0.61492,-0.659568 -3.74652,2.450233 -14.601673,14.499999 -7.600374,8.436807 -14.14876,15.339647 -14.551974,15.339647 -0.403206,0 1.79174,-2.775 4.877674,-6.166667 z m 19.603703,-34.512197 c 5.39876,-0.569777 7.25102,-1.496282 8.36422,-4.183791 0.6416597,-1.54909 0.5892197,-2.314058 -0.2842,-4.14563 -1.21744,-2.553002 -4.00412,-3.648451 -9.29698,-3.654665 -1.74166,-0.002 -3.166663,-0.303718 -3.166663,-0.670384 0,-0.8784 6.317233,-0.84883 9.534683,0.04463 4.3770297,1.215467 6.3304197,6.054191 4.0217997,9.962369 -1.5530897,2.629179 -3.5500297,3.340207 -9.0878497,3.235816 l -4.801967,-0.09052 z M -45.1068,24.013125 c 0,-0.366667 0.75,-0.666667 1.666666,-0.666667 2.33534,0 2.050847,-1.474756 -0.514426,-2.666666 -4.05912,-1.885999 -2.982267,-6.524163 1.95226,-8.408677 2.77524,-1.059872 3.98382,-2.924657 1.8955,-2.924657 -0.55,0 -1,-0.3 -1,-0.666667 0,-0.37037 1.77778,-0.666666 4,-0.666666 2.22222,0 4,0.296296 4,0.666666 0,0.366667 -0.75,0.666667 -1.666667,0.666667 -1.94104,0 -2.31032,1.813584 -0.5,2.455589 2.026713,0.718749 3.5,2.365079 3.5,3.911097 0,1.865648 -2.524993,4.354421 -5.399827,5.322369 -2.52994,0.851824 -3.3649,2.310945 -1.322393,2.310945 0.763887,0 1.388887,0.3 1.388887,0.666667 0,0.370371 -1.77778,0.666667 -4,0.666667 -2.22222,0 -4,-0.296296 -4,-0.666667 z m 4.619966,-7.051725 c 0.457674,-2.045115 0.681107,-3.869421 0.49652,-4.054013 -0.708526,-0.708522 -2.971293,1.14573 -3.779646,3.097274 -0.735354,1.775296 -0.690194,2.214691 0.345226,3.358811 0.655187,0.723976 1.397014,1.31632 1.648507,1.31632 0.251487,0 0.831713,-1.673276 1.289393,-3.718392 z m 5.138074,1.339166 c 1.280673,-1.954548 0.952466,-5.204549 -0.554434,-5.490176 -0.838153,-0.15887 -1.321553,0.527887 -1.873013,2.660967 -0.408807,1.581305 -0.887753,3.375239 -1.064327,3.986517 -0.479906,1.661388 2.23434,0.761784 3.491774,-1.157308 z m 37.2419627,5.712559 c 0.22661,-0.366667 0.99432,-0.666667 1.70601,-0.666667 1.76493,0 1.62601,-1.213602 -0.31356,-2.73927 -1.31804,-1.03677 -1.64821,-1.98475 -1.83333,-5.263829 -0.19482,-3.450808 -0.0658,-3.999164 0.94088,-3.998116 1.30564,0.0013 1.39826,0.369788 1.19686,4.760699 -0.12656,2.75939 0.76596,4.666583 1.73184,3.700698 0.25824,-0.258239 2.83332,-9.419922 2.8932,-10.293515 0.006,-0.09167 -0.58857,-0.166667 -1.3219,-0.166667 -0.73334,0 -1.33334,-0.3 -1.33334,-0.666667 0,-0.37037 1.77778,-0.666666 4,-0.666666 3.8478003,0 5.5928803,1.014188 2.5012303,1.453632 -1.2086,0.17179 -1.71455,0.987456 -2.6133203,4.213034 -0.613,2.200001 -1.13855,4.591667 -1.16789,5.314815 -0.0511,1.258632 0.009,1.252129 1.41366,-0.152198 0.8068603,-0.806858 1.9386703,-2.748525 2.5151303,-4.314816 0.87347,-2.373296 1.37883,-2.884331 3.03299,-3.067042 l 1.98487,-0.219242 -1.44057,1.356515 c -0.79232,0.746082 -1.63938,2.261632 -1.88235,3.367887 -0.45125,2.054519 -3.74213,5.380748 -5.3235703,5.380748 -0.48264,0 -1.0502,0.45 -1.26126,1 -0.26102,0.680193 0.036,1 0.92867,1 0.72183,0 1.31241,0.3 1.31241,0.666667 0,0.371092 -1.79089,0.666667 -4.03934,0.666667 -2.52314,0 -3.88469,-0.250241 -3.62732,-0.666667 z"
       id="path182" />
  </g>
</svg>
