<?xml version="1.0" encoding="UTF-8" standalone="no"?>
<svg
   xmlns:dc="http://purl.org/dc/elements/1.1/"
   xmlns:cc="http://creativecommons.org/ns#"
   xmlns:rdf="http://www.w3.org/1999/02/22-rdf-syntax-ns#"
   xmlns:svg="http://www.w3.org/2000/svg"
   xmlns="http://www.w3.org/2000/svg"
   xmlns:sodipodi="http://sodipodi.sourceforge.net/DTD/sodipodi-0.dtd"
   xmlns:inkscape="http://www.inkscape.org/namespaces/inkscape"
   version="1.1"
   id="svg514"
   width="80.517624"
   height="109.99999"
   viewBox="0 0 80.517625 109.99999"
   sodipodi:docname="resRuleBi.svg"
   inkscape:version="1.0.1 (c497b03c, 2020-09-10)">
  <metadata
     id="metadata520">
    <rdf:RDF>
      <cc:Work
         rdf:about="">
        <dc:format>image/svg+xml</dc:format>
        <dc:type
           rdf:resource="http://purl.org/dc/dcmitype/StillImage" />
        <dc:title></dc:title>
      </cc:Work>
    </rdf:RDF>
  </metadata>
  <defs
     id="defs518" />
  <sodipodi:namedview
     pagecolor="#ffffff"
     bordercolor="#666666"
     borderopacity="1"
     objecttolerance="10"
     gridtolerance="10"
     guidetolerance="10"
     inkscape:pageopacity="0"
     inkscape:pageshadow="2"
     inkscape:window-width="1174"
     inkscape:window-height="717"
     id="namedview516"
     showgrid="false"
     inkscape:pagecheckerboard="true"
     fit-margin-top="0"
     fit-margin-left="0"
     fit-margin-right="0"
     fit-margin-bottom="0"
     inkscape:zoom="2.3121293"
     inkscape:cx="178.80668"
     inkscape:cy="77.343078"
     inkscape:window-x="0"
     inkscape:window-y="25"
     inkscape:window-maximized="0"
     inkscape:current-layer="g522" />
  <g
     inkscape:groupmode="layer"
     inkscape:label="Image"
     id="g522"
     transform="translate(53.105646,-2.0140656)">
    <path
       style="fill:#1d1d1d;stroke-width:0.666667"
       d="m -52.58802,111.3474 c 0.226613,-0.36667 0.99432,-0.66667 1.706013,-0.66667 1.764927,0 1.626013,-1.2136 -0.31356,-2.73927 -1.31804,-1.03677 -1.648213,-1.98475 -1.833333,-5.26383 -0.19482,-3.45081 -0.0658,-3.99916 0.94088,-3.99811 1.305646,0.001 1.398266,0.36978 1.196866,4.7607 -0.126566,2.75938 0.765954,4.66658 1.73184,3.70069 0.25824,-0.25824 2.833314,-9.41992 2.8932,-10.29351 0.0063,-0.0917 -0.588573,-0.16667 -1.321906,-0.16667 -0.733334,0 -1.333334,-0.3 -1.333334,-0.66667 0,-0.37037 1.77778,-0.66666 4,-0.66666 3.847794,0 5.59288,1.01418 2.501227,1.45363 -1.2086,0.17179 -1.714553,0.98745 -2.61332,4.21303 -0.613,2.2 -1.138547,4.59167 -1.167893,5.31482 -0.05107,1.25863 0.0093,1.25212 1.413666,-0.1522 0.80686,-0.80686 1.938667,-2.74852 2.515127,-4.31482 0.873473,-2.37329 1.378833,-2.88433 3.032987,-3.06704 l 1.984873,-0.21924 -1.440573,1.35652 c -0.792314,0.74608 -1.639374,2.26162 -1.882347,3.36788 -0.451247,2.05452 -3.742133,5.38075 -5.323573,5.38075 -0.482634,0 -1.0502,0.45 -1.26126,1 -0.261014,0.68019 0.036,1 0.928673,1 0.721827,0 1.312413,0.3 1.312413,0.66667 0,0.37109 -1.790893,0.66666 -4.039346,0.66666 -2.523134,0 -3.884687,-0.25024 -3.62732,-0.66666 z m 64.666661,0 c 0.22662,-0.36667 0.99432,-0.66667 1.70602,-0.66667 1.76492,0 1.62601,-1.2136 -0.31356,-2.73927 -1.31804,-1.03677 -1.64822,-1.98475 -1.83334,-5.26383 -0.19482,-3.45081 -0.0658,-3.99916 0.94088,-3.99811 1.30565,0.001 1.39827,0.36978 1.19687,4.7607 -0.12657,2.75938 0.76595,4.66658 1.73184,3.70069 0.25824,-0.25824 2.83331,-9.41992 2.8932,-10.29351 0.006,-0.0917 -0.58857,-0.16667 -1.32191,-0.16667 -0.73333,0 -1.33333,-0.3 -1.33333,-0.66667 0,-0.37037 1.77778,-0.66666 4,-0.66666 3.84779,0 5.59288,1.01418 2.50123,1.45363 -1.2086,0.17179 -1.71456,0.98745 -2.61332,4.21303 -0.613,2.2 -1.13855,4.59167 -1.1679,5.31482 -0.0511,1.25863 0.009,1.25212 1.41367,-0.1522 0.80686,-0.80686 1.93867,-2.74852 2.51513,-4.31482 0.87347,-2.37329 1.37883,-2.88433 3.03298,-3.06704 l 1.98488,-0.21924 -1.44058,1.35652 c -0.79231,0.74608 -1.63937,2.26162 -1.88234,3.36788 -0.45125,2.05452 -3.74214,5.38075 -5.32358,5.38075 -0.48263,0 -1.0502,0.45 -1.26126,1 -0.26101,0.68019 0.036,1 0.92868,1 0.72182,0 1.31241,0.3 1.31241,0.66667 0,0.37109 -1.79089,0.66666 -4.03935,0.66666 -2.52313,0 -3.88468,-0.25024 -3.62732,-0.66666 z m -3.6666604,-4 v -2.66667 h -6 c -3.55556,0 -6,-0.27161 -6,-0.66667 0,-0.4 2.66666001,-0.66666 6.66666,-0.66666 h 6.66667 v 3.33333 c 0,1.83333 -0.3,3.33333 -0.66667,3.33333 -0.36666,0 -0.66666,-1.2 -0.66666,-2.66666 z m -60.0000006,-24 c 0,-0.36667 0.75,-0.66667 1.666666,-0.66667 2.33534,0 2.050847,-1.47476 -0.514426,-2.66667 -4.05912,-1.886 -2.982267,-6.524155 1.95226,-8.408675 2.77524,-1.059867 3.98382,-2.924654 1.8955,-2.924654 -0.55,0 -1,-0.3 -1,-0.666666 0,-0.370374 1.77778,-0.666667 4,-0.666667 2.22222,0 4,0.296293 4,0.666667 0,0.366666 -0.75,0.666666 -1.666667,0.666666 -1.94104,0 -2.31032,1.813587 -0.5,2.455587 2.026713,0.718753 3.5,2.36508 3.5,3.9111 0,1.865642 -2.524993,4.354422 -5.399827,5.322362 -2.52994,0.85183 -3.3649,2.31095 -1.322393,2.31095 0.763887,0 1.388887,0.3 1.388887,0.66667 0,0.37037 -1.77778,0.66666 -4,0.66666 -2.22222,0 -4,-0.29629 -4,-0.66666 z m 4.619966,-7.05173 c 0.457674,-2.045112 0.681107,-3.869419 0.49652,-4.054012 -0.708526,-0.70852 -2.971293,1.145733 -3.779646,3.097273 -0.735354,1.775299 -0.690194,2.214689 0.345226,3.358809 0.655187,0.72398 1.397014,1.31632 1.648507,1.31632 0.251487,0 0.831713,-1.67327 1.289393,-3.71839 z m 5.138074,1.33917 c 1.280673,-1.95455 0.952466,-5.204549 -0.554434,-5.490175 -0.838153,-0.158874 -1.321553,0.527886 -1.873013,2.660966 -0.408807,1.581309 -0.887753,3.375239 -1.064327,3.986509 -0.479906,1.6614 2.23434,0.76179 3.491774,-1.1573 z m 54.908621,5.71256 c 0,-0.36667 0.75,-0.66667 1.66667,-0.66667 2.33534,0 2.05085,-1.47476 -0.51443,-2.66667 -4.05912,-1.886 -2.98226,-6.524155 1.95226,-8.408675 2.77524,-1.059867 3.98382,-2.924654 1.8955,-2.924654 -0.55,0 -1,-0.3 -1,-0.666666 0,-0.370374 1.77778,-0.666667 4,-0.666667 2.22222,0 4,0.296293 4,0.666667 0,0.366666 -0.75,0.666666 -1.66666,0.666666 -1.94104,0 -2.31032,1.813587 -0.5,2.455587 2.02671,0.718753 3.5,2.36508 3.5,3.9111 0,1.865642 -2.525,4.354422 -5.39983,5.322362 -2.52994,0.85183 -3.3649,2.31095 -1.32239,2.31095 0.76388,0 1.38888,0.3 1.38888,0.66667 0,0.37037 -1.77778,0.66666 -4,0.66666 -2.22222,0 -4,-0.29629 -4,-0.66666 z m 4.61997,-7.05173 c 0.45767,-2.045112 0.68111,-3.869419 0.49652,-4.054012 -0.70853,-0.70852 -2.97129,1.145733 -3.77965,3.097273 -0.73535,1.775299 -0.69019,2.214689 0.34523,3.358809 0.65519,0.72398 1.39701,1.31632 1.64851,1.31632 0.25148,0 0.83171,-1.67327 1.28939,-3.71839 z m 5.13807,1.33917 c 1.28068,-1.95455 0.95247,-5.204549 -0.55443,-5.490175 -0.83815,-0.158874 -1.32155,0.527886 -1.87301,2.660966 -0.40881,1.581309 -0.88776,3.375239 -1.06433,3.986509 -0.47991,1.6614 2.23434,0.76179 3.49177,-1.1573 z M 9.0786406,79.3474 v -2.66667 h -6 c -3.55554999,0 -6,-0.27161 -6,-0.66667 0,-0.4 2.66667001,-0.666662 6.66667,-0.666662 h 6.6666704 v 3.333332 c 0,1.83333 -0.3,3.33333 -0.6666704,3.33333 -0.36667,0 -0.66667,-1.2 -0.66667,-2.66666 z M -45.5781,58.891538 c -0.01184,-0.941846 27.864331,-32.544139 28.706961,-32.544139 1.10346,0 29.03695,32.135053 28.44663,32.725373 -0.16891,0.16892 -1.7748104,-1.41928 -3.5686504,-3.529327 -6.11668,-7.19488 -24.4863196,-27.862349 -24.8744996,-27.986003 -0.31166,-0.09928 -16.366355,17.817063 -26.543775,29.62171 -1.186213,1.375866 -2.161213,2.14644 -2.166666,1.712386 z m -2.00992,-40.877472 c 0,-0.366667 0.75,-0.666667 1.666666,-0.666667 2.33534,0 2.050847,-1.474756 -0.514426,-2.666666 -4.05912,-1.885999 -2.982267,-6.5241634 1.95226,-8.4086774 2.77524,-1.059872 3.98382,-2.924657 1.8955,-2.924657 -0.55,0 -1,-0.3 -1,-0.666666 0,-0.370371 1.77778,-0.666667 4,-0.666667 2.22222,0 4,0.296296 4,0.666667 0,0.366666 -0.75,0.666666 -1.666667,0.666666 -1.94104,0 -2.31032,1.813584 -0.5,2.45559 2.026713,0.718748 3.5,2.365078 3.5,3.911096 0,1.8656484 -2.524993,4.3544214 -5.399827,5.3223694 -2.52994,0.851824 -3.3649,2.310945 -1.322393,2.310945 0.763887,0 1.388887,0.3 1.388887,0.666667 0,0.37037 -1.77778,0.666666 -4,0.666666 -2.22222,0 -4,-0.296296 -4,-0.666666 z m 4.619966,-7.051725 c 0.457674,-2.0451154 0.681107,-3.8694214 0.49652,-4.0540134 -0.708526,-0.708521 -2.971293,1.145731 -3.779646,3.0972744 -0.735354,1.775296 -0.690194,2.214691 0.345226,3.358811 0.655187,0.723976 1.397014,1.31632 1.648507,1.31632 0.251487,0 0.831713,-1.673276 1.289393,-3.718392 z m 5.138074,1.339166 c 1.280673,-1.954548 0.952466,-5.2045484 -0.554434,-5.4901764 -0.838153,-0.15887 -1.321553,0.527887 -1.873013,2.660967 -0.408807,1.5813054 -0.887753,3.3752394 -1.064327,3.9865174 -0.479906,1.661388 2.23434,0.761784 3.491774,-1.157308 z m 37.24196061,5.712559 c 0.22661,-0.366667 0.99432,-0.666667 1.70600999,-0.666667 1.76493,0 1.62601,-1.213602 -0.31355999,-2.73927 -1.31804,-1.03677 -1.64821,-1.98475 -1.83333001,-5.2638284 -0.19482,-3.450808 -0.0658,-3.999164 0.94088001,-3.998116 1.30563999,0.0013 1.39825999,0.369788 1.19685999,4.7606984 -0.12655999,2.75939 0.76596,4.666583 1.73184,3.700698 0.25824,-0.258239 2.83332,-9.4199224 2.8932,-10.2935154 0.006,-0.09167 -0.58857,-0.166667 -1.3219,-0.166667 -0.73334,0 -1.33334,-0.3 -1.33334,-0.666666 0,-0.370371 1.77778,-0.666667 4,-0.666667 3.8478004,0 5.5928804,1.014189 2.50123,1.453633 -1.2086,0.171789 -1.71455,0.987456 -2.61332,4.213034 -0.613,2.2 -1.13855,4.5916664 -1.16789,5.3148144 -0.0511,1.258632 0.009,1.252129 1.41366,-0.152198 0.80686,-0.806858 1.93867,-2.748525 2.51513,-4.3148164 0.8734704,-2.373296 1.3788304,-2.884331 3.0329904,-3.067042 l 1.98487,-0.219242 -1.44057,1.356515 c -0.79232,0.746083 -1.63938,2.261632 -1.88235,3.367887 -0.45125,2.0545194 -3.7421304,5.3807484 -5.3235704,5.3807484 -0.48264,0 -1.0502,0.45 -1.26126,1 -0.26102,0.680193 0.036,1 0.92867,1 0.72183,0 1.31241,0.3 1.31241,0.666667 0,0.371092 -1.79089,0.666666 -4.03934,0.666666 -2.52313999,0 -3.88468999,-0.25024 -3.62731999,-0.666666 z M -25.588019,17.347399 c 0,-0.407589 3.12423,-0.666667 8.03934,-0.666667 5.1898,0 7.8932996,0.2363 7.6273196,0.666667 -0.2358296,0.381589 -3.6735796,0.666667 -8.0393396,0.666667 -4.64043,0 -7.62732,-0.261069 -7.62732,-0.666667 z m 0,-4.666666 c 0,-0.407408 3.11111,-0.666667 8,-0.666667 4.88888,0 7.9999996,0.259259 7.9999996,0.666667 0,0.407407 -3.1111196,0.666666 -7.9999996,0.666666 -4.88889,0 -8,-0.259259 -8,-0.666666 z m 0,-4.6666674 c 0,-0.407407 3.11111,-0.666667 8,-0.666667 4.88888,0 7.9999996,0.25926 7.9999996,0.666667 0,0.407407 -3.1111196,0.666667 -7.9999996,0.666667 -4.88889,0 -8,-0.25926 -8,-0.666667 z"
       id="path526" />
  </g>
</svg>
