<?xml version="1.0" encoding="UTF-8" standalone="no"?>
<svg
   xmlns:dc="http://purl.org/dc/elements/1.1/"
   xmlns:cc="http://creativecommons.org/ns#"
   xmlns:rdf="http://www.w3.org/1999/02/22-rdf-syntax-ns#"
   xmlns:svg="http://www.w3.org/2000/svg"
   xmlns="http://www.w3.org/2000/svg"
   xmlns:sodipodi="http://sodipodi.sourceforge.net/DTD/sodipodi-0.dtd"
   xmlns:inkscape="http://www.inkscape.org/namespaces/inkscape"
   version="1.1"
   id="svg706"
   width="45.333328"
   height="82"
   viewBox="0 0 45.333329 82"
   sodipodi:docname="resRuleNegNeg.svg"
   inkscape:version="1.0.1 (c497b03c, 2020-09-10)">
  <metadata
     id="metadata712">
    <rdf:RDF>
      <cc:Work
         rdf:about="">
        <dc:format>image/svg+xml</dc:format>
        <dc:type
           rdf:resource="http://purl.org/dc/dcmitype/StillImage" />
        <dc:title></dc:title>
      </cc:Work>
    </rdf:RDF>
  </metadata>
  <defs
     id="defs710" />
  <sodipodi:namedview
     pagecolor="#ffffff"
     bordercolor="#666666"
     borderopacity="1"
     objecttolerance="10"
     gridtolerance="10"
     guidetolerance="10"
     inkscape:pageopacity="0"
     inkscape:pageshadow="2"
     inkscape:window-width="731"
     inkscape:window-height="480"
     id="namedview708"
     showgrid="false"
     inkscape:pagecheckerboard="true"
     fit-margin-top="0"
     fit-margin-left="0"
     fit-margin-right="0"
     fit-margin-bottom="0"
     inkscape:zoom="1.7392168"
     inkscape:cx="52.856406"
     inkscape:cy="20.389879"
     inkscape:window-x="0"
     inkscape:window-y="25"
     inkscape:window-maximized="0"
     inkscape:current-layer="g714" />
  <g
     inkscape:groupmode="layer"
     inkscape:label="Image"
     id="g714"
     transform="translate(-108.95676,-46.765868)">
    <path
       style="fill:#232323;stroke-width:0.666667"
       d="m 125.62343,128.0992 c 0,-0.36667 0.75,-0.66667 1.66667,-0.66667 2.33534,0 2.05084,-1.47476 -0.51443,-2.66666 -4.05912,-1.886 -2.98227,-6.52416 1.95226,-8.40868 2.77524,-1.05987 3.98382,-2.92466 1.8955,-2.92466 -0.55,0 -1,-0.3 -1,-0.66666 0,-0.37038 1.77778,-0.66667 4,-0.66667 2.22222,0 4,0.29629 4,0.66667 0,0.36666 -0.75,0.66666 -1.66667,0.66666 -1.94104,0 -2.31032,1.81359 -0.5,2.45559 2.02672,0.71875 3.5,2.36508 3.5,3.9111 0,1.86565 -2.52499,4.35442 -5.39982,5.32237 -2.52994,0.85182 -3.3649,2.31094 -1.3224,2.31094 0.76389,0 1.38889,0.3 1.38889,0.66667 0,0.37037 -1.77778,0.66667 -4,0.66667 -2.22222,0 -4,-0.2963 -4,-0.66667 z m 4.61997,-7.05173 c 0.45767,-2.04511 0.6811,-3.86942 0.49652,-4.05401 -0.74817,-0.74816 -3.02288,1.21137 -3.71673,3.20175 -0.61207,1.7558 -0.54851,2.3363 0.36653,3.34741 0.60887,0.67279 1.31279,1.22325 1.56428,1.22325 0.25149,0 0.83172,-1.67328 1.2894,-3.7184 z m 5.13807,1.33917 c 1.28067,-1.95455 0.95247,-5.20455 -0.55443,-5.49017 -0.83816,-0.15888 -1.32156,0.52788 -1.87302,2.66096 -0.4088,1.58131 -0.88775,3.37524 -1.06432,3.98652 -0.47991,1.66139 2.23434,0.76178 3.49177,-1.15731 z m -4.42471,-34.954106 c 0,-10.222222 0.24074,-16 0.66667,-16 0.42593,0 0.66667,5.777778 0.66667,16 0,10.22222 -0.24074,15.999996 -0.66667,15.999996 -0.42593,0 -0.66667,-5.777776 -0.66667,-15.999996 z m 10,-24.666666 c 0,-0.366667 0.75,-0.666667 1.66667,-0.666667 2.33534,0 2.05085,-1.474757 -0.51443,-2.666667 -4.05912,-1.885998 -2.98226,-6.524162 1.95226,-8.408676 2.77524,-1.059872 3.98382,-2.924657 1.8955,-2.924657 -0.55,0 -1,-0.3 -1,-0.666667 0,-0.37037 1.77778,-0.666666 4,-0.666666 2.22222,0 4,0.296296 4,0.666666 0,0.366667 -0.75,0.666667 -1.66666,0.666667 -1.94104,0 -2.31032,1.813584 -0.5,2.455589 2.02671,0.718749 3.49999,2.365079 3.49999,3.911096 0,1.865649 -2.52499,4.354422 -5.39982,5.32237 -2.52994,0.851824 -3.3649,2.310945 -1.32239,2.310945 0.76388,0 1.38888,0.3 1.38888,0.666667 0,0.37037 -1.77778,0.666666 -4,0.666666 -2.22222,0 -4,-0.296296 -4,-0.666666 z m 4.61997,-7.051725 c 0.45767,-2.045115 0.68111,-3.869421 0.49652,-4.054013 -0.74817,-0.748165 -3.02288,1.211373 -3.71673,3.201753 -0.61207,1.755789 -0.5485,2.336295 0.36654,3.347405 0.60886,0.672786 1.31278,1.223246 1.56428,1.223246 0.25148,0 0.83171,-1.673276 1.28939,-3.718391 z m 5.13807,1.339166 c 1.28068,-1.954549 0.95247,-5.204549 -0.55443,-5.490176 -0.83815,-0.15887 -1.32155,0.527887 -1.87301,2.660967 -0.40881,1.581305 -0.88776,3.375238 -1.06433,3.986517 -0.47991,1.661388 2.23434,0.761783 3.49177,-1.157308 z m -29.75804,1.712559 v -2.666667 h -6 c -3.55555,0 -6,-0.271605 -6,-0.666667 0,-0.4 2.66667,-0.666666 6.66667,-0.666666 h 6.66667 v 3.333333 c 0,1.833333 -0.3,3.333333 -0.66667,3.333333 -0.36667,0 -0.66667,-1.2 -0.66667,-2.666666 z m 16,0 v -2.666667 h -6 c -3.55555,0 -6,-0.271605 -6,-0.666667 0,-0.4 2.66667,-0.666666 6.66667,-0.666666 h 6.66667 v 3.333333 c 0,1.833333 -0.3,3.333333 -0.66667,3.333333 -0.36667,0 -0.66667,-1.2 -0.66667,-2.666666 z"
       id="path718" />
  </g>
</svg>
