<?xml version="1.0" encoding="UTF-8" standalone="no"?>
<svg
   xmlns:dc="http://purl.org/dc/elements/1.1/"
   xmlns:cc="http://creativecommons.org/ns#"
   xmlns:rdf="http://www.w3.org/1999/02/22-rdf-syntax-ns#"
   xmlns:svg="http://www.w3.org/2000/svg"
   xmlns="http://www.w3.org/2000/svg"
   xmlns:sodipodi="http://sodipodi.sourceforge.net/DTD/sodipodi-0.dtd"
   xmlns:inkscape="http://www.inkscape.org/namespaces/inkscape"
   version="1.1"
   id="svg62"
   width="65.005806"
   height="82"
   viewBox="0 0 65.005806 81.999999"
   sodipodi:docname="test1.svg"
   inkscape:version="1.0.1 (c497b03c, 2020-09-10)">
  <sodipodi:namedview
     pagecolor="#ffffff"
     bordercolor="#666666"
     borderopacity="1"
     objecttolerance="10"
     gridtolerance="10"
     guidetolerance="10"
     inkscape:pageopacity="0"
     inkscape:pageshadow="2"
     inkscape:window-width="1210"
     inkscape:window-height="795"
     id="namedview15"
     showgrid="false"
     inkscape:pagecheckerboard="true"
     inkscape:zoom="2.2418053"
     inkscape:cx="74.038879"
     inkscape:cy="73.280885"
     inkscape:window-x="0"
     inkscape:window-y="25"
     inkscape:window-maximized="0"
     inkscape:current-layer="svg62"
     inkscape:document-rotation="0"
     fit-margin-top="0"
     fit-margin-left="0"
     fit-margin-right="0"
     fit-margin-bottom="0" />
  <metadata
     id="metadata68">
    <rdf:RDF>
      <cc:Work
         rdf:about="">
        <dc:format>image/svg+xml</dc:format>
        <dc:type
           rdf:resource="http://purl.org/dc/dcmitype/StillImage" />
        <dc:title></dc:title>
      </cc:Work>
    </rdf:RDF>
  </metadata>
  <defs
     id="defs66" />
  <g
     id="g70"
     inkscape:export-xdpi="176.78049"
     inkscape:export-ydpi="176.78049"
     transform="translate(137.36229,-55.234149)">
    <path
       style="fill:#1e1e1e;stroke-width:0.666667"
       d="m -136.02315,136.56748 c 0,-0.36666 0.75,-0.66666 1.66666,-0.66666 2.33534,0 2.05085,-1.47476 -0.51442,-2.66667 -4.05912,-1.886 -2.98227,-6.52416 1.95226,-8.40868 2.77524,-1.05987 3.98382,-2.92465 1.8955,-2.92465 -0.55,0 -1,-0.3 -1,-0.66667 0,-0.37037 1.77778,-0.66667 4,-0.66667 2.22222,0 4,0.2963 4,0.66667 0,0.36667 -0.75,0.66667 -1.66667,0.66667 -1.94104,0 -2.31032,1.81358 -0.5,2.45558 2.02671,0.71876 3.5,2.36508 3.5,3.9111 0,1.86565 -2.52499,4.35442 -5.39983,5.32237 -2.52994,0.85183 -3.3649,2.31095 -1.32239,2.31095 0.76389,0 1.38889,0.3 1.38889,0.66666 0,0.37038 -1.77778,0.66667 -4,0.66667 -2.22222,0 -4,-0.29629 -4,-0.66667 z m 4.61996,-7.05172 c 0.45768,-2.04512 0.68111,-3.86942 0.49652,-4.05402 -0.70852,-0.70852 -2.97129,1.14574 -3.77964,3.09728 -0.73536,1.7753 -0.6902,2.21469 0.34522,3.35881 0.65519,0.72397 1.39702,1.31632 1.64851,1.31632 0.25149,0 0.83171,-1.67327 1.28939,-3.71839 z m 5.13808,1.33916 c 1.28067,-1.95454 0.95246,-5.20454 -0.55444,-5.49017 -0.83815,-0.15887 -1.32155,0.52789 -1.87301,2.66097 -0.40881,1.5813 -0.88775,3.37524 -1.06433,3.98651 -0.4799,1.66139 2.23434,0.76179 3.49178,-1.15731 z m 38.57529,5.71256 c 0.22661,-0.36666 0.99432,-0.66666 1.70601,-0.66666 1.76493,0 1.62602,-1.2136 -0.31356,-2.73928 -1.31804,-1.03676 -1.64821,-1.98474 -1.83333,-5.26382 -0.19482,-3.45081 -0.0658,-3.99916 0.94088,-3.99812 1.30565,10e-4 1.39827,0.36979 1.19687,4.7607 -0.12657,2.75939 0.76595,4.66658 1.73184,3.7007 0.25824,-0.25824 2.83331,-9.41992 2.8932,-10.29352 0.006,-0.0917 -0.58858,-0.16666 -1.32191,-0.16666 -0.73333,0 -1.33333,-0.3 -1.33333,-0.66667 0,-0.37037 1.77778,-0.66667 4,-0.66667 3.84779,0 5.59288,1.01419 2.50122,1.45364 -1.2086,0.17178 -1.71455,0.98745 -2.61332,4.21303 -0.613,2.2 -1.13854,4.59167 -1.16789,5.31481 -0.0511,1.25864 0.009,1.25213 1.41367,-0.1522 0.80686,-0.80685 1.93866,-2.74852 2.51512,-4.31481 0.87348,-2.37329 1.37884,-2.88433 3.03299,-3.06704 l 1.98487,-0.21924 -1.44057,1.35651 c -0.79231,0.74608 -1.63937,2.26163 -1.88235,3.36789 -0.45124,2.05452 -3.74213,5.38075 -5.32357,5.38075 -0.48263,0 -1.0502,0.45 -1.26126,1 -0.26101,0.68019 0.036,1 0.92867,1 0.72183,0 1.31242,0.3 1.31242,0.66666 0,0.3711 -1.7909,0.66667 -4.03935,0.66667 -2.52313,0 -3.88469,-0.25024 -3.62732,-0.66667 z m -40.55767,-26.5677 c 10.62042,-14.420936 22.68883,-30.029233 23.22434,-30.036473 0.36666,-0.0049 5.61666,6.599278 11.66666,14.676083 13.3948,17.88217 12.92668,17.22364 12.52736,17.62296 -0.17915,0.17915 -5.63447,-6.72891 -12.12293,-15.35124 -6.48847,-8.622327 -11.93155,-15.67696 -12.09573,-15.67696 -0.16418,0 -5.5879,7.05 -12.05268,15.666667 -6.4648,8.616663 -12.04304,15.666663 -12.3961,15.666663 -0.35306,0 0.20902,-1.15546 1.24908,-2.5677 z m 18.59482,-44.453606 c -1.72373,-3.86172 -2.99826,-7.386721 -2.83228,-7.833334 0.29909,-0.804832 5.79513,10.311248 5.79513,11.721022 0,1.39937 1.10045,-0.516475 3.6679,-6.385663 1.40811,-3.21894 2.80761,-5.60521 3.10999,-5.302824 0.55039,0.550386 -5.41122,14.819396 -6.19229,14.821168 -0.22793,5.17e-4 -1.82473,-3.158649 -3.54845,-7.020369 z m -23.03715,5.687976 c 0,-0.366667 0.75,-0.666667 1.66667,-0.666667 2.33534,0 2.05084,-1.474757 -0.51443,-2.666667 -4.05912,-1.885998 -2.98227,-6.524162 1.95226,-8.408677 2.77524,-1.059872 3.98382,-2.924656 1.8955,-2.924656 -0.55,0 -1,-0.3 -1,-0.666667 0,-0.370371 1.77778,-0.666667 4,-0.666667 2.22222,0 4,0.296296 4,0.666667 0,0.366667 -0.75,0.666667 -1.66667,0.666667 -1.94104,0 -2.31032,1.813584 -0.5,2.455589 2.02672,0.718749 3.5,2.365079 3.5,3.911096 0,1.865649 -2.52499,4.354422 -5.39982,5.32237 -2.52994,0.851824 -3.3649,2.310945 -1.3224,2.310945 0.76389,0 1.38889,0.3 1.38889,0.666667 0,0.37037 -1.77778,0.666666 -4,0.666666 -2.22222,0 -4,-0.296296 -4,-0.666666 z m 4.61997,-7.051725 c 0.45767,-2.045115 0.6811,-3.869422 0.49652,-4.054014 -0.70853,-0.708521 -2.9713,1.145731 -3.77965,3.097275 -0.73535,1.775296 -0.69019,2.21469 0.34523,3.358811 0.65518,0.723975 1.39701,1.316319 1.6485,1.316319 0.25149,0 0.83172,-1.673276 1.2894,-3.718391 z m 5.13807,1.339166 c 1.28067,-1.954549 0.95247,-5.204549 -0.55443,-5.490176 -0.83816,-0.15887 -1.32156,0.527886 -1.87302,2.660967 -0.4088,1.581305 -0.88775,3.375238 -1.06432,3.986517 -0.47991,1.661388 2.23434,0.761783 3.49177,-1.157308 z m 31.90863,5.712559 c 0.22661,-0.366667 0.99432,-0.666667 1.70601,-0.666667 1.76493,0 1.62601,-1.213603 -0.31356,-2.73927 -1.31804,-1.03677 -1.64821,-1.984751 -1.83333,-5.263829 -0.19482,-3.450808 -0.0658,-3.999164 0.94088,-3.998116 1.30564,0.0013 1.39826,0.369788 1.19686,4.760699 -0.12656,2.759389 0.76596,4.666583 1.73184,3.700697 0.25824,-0.258238 2.83332,-9.419921 2.8932,-10.293515 0.006,-0.09167 -0.58857,-0.166666 -1.3219,-0.166666 -0.73334,0 -1.33334,-0.3 -1.33334,-0.666667 0,-0.370371 1.77778,-0.666667 4,-0.666667 3.8478,0 5.59288,1.014189 2.50123,1.453633 -1.2086,0.171789 -1.71455,0.987456 -2.61332,4.213034 -0.613,2.2 -1.13855,4.591667 -1.16789,5.314815 -0.0511,1.258632 0.009,1.252129 1.41366,-0.152199 0.80686,-0.806858 1.93867,-2.748524 2.51513,-4.314815 0.87347,-2.373296 1.37883,-2.884332 3.03299,-3.067042 l 1.98487,-0.219242 -1.44057,1.356514 c -0.79232,0.746083 -1.63938,2.261633 -1.88235,3.367887 -0.45125,2.05452 -3.74213,5.380749 -5.32357,5.380749 -0.48264,0 -1.0502,0.45 -1.26126,1 -0.26102,0.680193 0.036,1 0.92867,1 0.72183,0 1.31241,0.3 1.31241,0.666667 0,0.371092 -1.79089,0.666666 -4.03934,0.666666 -2.52314,0 -3.88469,-0.25024 -3.62732,-0.666666 z"
       id="path27"
       inkscape:export-xdpi="96"
       inkscape:export-ydpi="96" />
  </g>
</svg>
