<?xml version="1.0" encoding="UTF-8" standalone="no"?>
<svg
   xmlns:dc="http://purl.org/dc/elements/1.1/"
   xmlns:cc="http://creativecommons.org/ns#"
   xmlns:rdf="http://www.w3.org/1999/02/22-rdf-syntax-ns#"
   xmlns:svg="http://www.w3.org/2000/svg"
   xmlns="http://www.w3.org/2000/svg"
   xmlns:sodipodi="http://sodipodi.sourceforge.net/DTD/sodipodi-0.dtd"
   xmlns:inkscape="http://www.inkscape.org/namespaces/inkscape"
   version="1.1"
   id="svg1150"
   width="64.517624"
   height="110.50143"
   viewBox="0 0 64.517624 110.50143"
   sodipodi:docname="resRuleConjAlt2.svg"
   inkscape:version="1.0.1 (c497b03c, 2020-09-10)">
  <metadata
     id="metadata1156">
    <rdf:RDF>
      <cc:Work
         rdf:about="">
        <dc:format>image/svg+xml</dc:format>
        <dc:type
           rdf:resource="http://purl.org/dc/dcmitype/StillImage" />
        <dc:title></dc:title>
      </cc:Work>
    </rdf:RDF>
  </metadata>
  <defs
     id="defs1154" />
  <sodipodi:namedview
     pagecolor="#ffffff"
     bordercolor="#666666"
     borderopacity="1"
     objecttolerance="10"
     gridtolerance="10"
     guidetolerance="10"
     inkscape:pageopacity="0"
     inkscape:pageshadow="2"
     inkscape:window-width="731"
     inkscape:window-height="480"
     id="namedview1152"
     showgrid="false"
     inkscape:pagecheckerboard="true"
     fit-margin-top="0"
     fit-margin-left="0"
     fit-margin-right="0"
     fit-margin-bottom="0"
     inkscape:zoom="1.3962657"
     inkscape:cx="149.06459"
     inkscape:cy="61.841978"
     inkscape:window-x="0"
     inkscape:window-y="25"
     inkscape:window-maximized="0"
     inkscape:current-layer="g1158" />
  <g
     inkscape:groupmode="layer"
     inkscape:label="Image"
     id="g1158"
     transform="translate(30.184289,3.0864699)">
    <path
       style="fill:#1e1e1e;stroke-width:0.666667"
       d="m -29.666667,106.74829 c 0.226613,-0.36667 0.99432,-0.66667 1.706013,-0.66667 1.764927,0 1.626014,-1.2136 -0.31356,-2.73927 -1.31804,-1.03677 -1.648213,-1.98475 -1.833334,-5.263826 -0.194818,-3.4508 -0.06577,-3.99916 0.940881,-3.99811 1.305647,10e-4 1.398267,0.36979 1.196867,4.7607 -0.126567,2.759386 0.765953,4.666576 1.73184,3.700686 0.25824,-0.25824 2.833313,-9.419916 2.8932,-10.293506 0.0063,-0.0917 -0.588574,-0.16667 -1.321907,-0.16667 -0.733333,0 -1.333333,-0.3 -1.333333,-0.66666 0,-0.37038 1.77778,-0.66667 4,-0.66667 3.847793,0 5.592879,1.01419 2.501226,1.45363 -1.2086,0.17179 -1.714553,0.98746 -2.61332,4.21304 -0.613,2.2 -1.138546,4.591656 -1.167893,5.314806 -0.05107,1.25863 0.0093,1.25213 1.413667,-0.1522 0.80686,-0.80685 1.938666,-2.748516 2.515126,-4.314806 0.873474,-2.3733 1.378834,-2.88434 3.032987,-3.06704 l 1.984873,-0.21924 -1.440573,1.35651 c -0.792313,0.74608 -1.639373,2.26163 -1.882347,3.36789 -0.451246,2.054516 -3.742133,5.380736 -5.323573,5.380736 -0.482633,0 -1.0502,0.45 -1.26126,1 -0.261013,0.6802 0.036,1 0.928673,1 0.721827,0 1.312414,0.3 1.312414,0.66667 0,0.37109 -1.790894,0.66667 -4.039347,0.66667 -2.523133,0 -3.884687,-0.25024 -3.62732,-0.66667 z m 1,-28.666666 c 0,-0.36666 0.75,-0.66666 1.666667,-0.66666 2.33534,0 2.050846,-1.47476 -0.514427,-2.66667 -4.059121,-1.886 -2.982266,-6.52416 1.95226,-8.408679 2.77524,-1.059866 3.98382,-2.924653 1.8955,-2.924653 -0.55,0 -1,-0.3 -1,-0.666667 0,-0.370373 1.77778,-0.666666 4,-0.666666 2.22222,0 4,0.296293 4,0.666666 0,0.366667 -0.75,0.666667 -1.666667,0.666667 -1.94104,0 -2.31032,1.813587 -0.5,2.455587 2.026714,0.718753 3.5,2.365075 3.5,3.911095 0,1.86565 -2.524993,4.35442 -5.399826,5.32237 -2.52994,0.85183 -3.3649,2.31095 -1.322394,2.31095 0.763887,0 1.388887,0.3 1.388887,0.66666 0,0.37038 -1.77778,0.66667 -4,0.66667 -2.22222,0 -4,-0.29629 -4,-0.66667 z m 4.619967,-7.05172 c 0.457673,-2.04512 0.681106,-3.869422 0.49652,-4.054015 -0.708527,-0.70852 -2.971294,1.145735 -3.779647,3.097275 -0.735353,1.7753 -0.690193,2.21469 0.345227,3.35881 0.655186,0.72397 1.397013,1.31632 1.648506,1.31632 0.251487,0 0.831714,-1.67327 1.289394,-3.71839 z m 5.138073,1.33916 c 1.280673,-1.95454 0.952467,-5.204542 -0.554433,-5.490169 -0.838154,-0.158873 -1.321554,0.527887 -1.873014,2.660969 -0.408806,1.5813 -0.887753,3.37524 -1.064326,3.98651 -0.479907,1.66139 2.23434,0.76179 3.491773,-1.15731 z m 37.90863,5.71256 c 0.22661,-0.36666 0.99432,-0.66666 1.70601,-0.66666 1.76493,0 1.62601,-1.2136 -0.31356,-2.73928 -1.31804,-1.03676 -1.64821,-1.98474 -1.83333,-5.26382 -0.19482,-3.450809 -0.0658,-3.999162 0.94088,-3.998115 1.30564,0.0013 1.39826,0.369786 1.19686,4.760695 -0.12656,2.75939 0.76596,4.66658 1.73184,3.7007 0.25824,-0.25824 2.83332,-9.419922 2.8932,-10.293515 0.006,-0.09167 -0.58857,-0.166667 -1.3219,-0.166667 -0.73334,0 -1.33334,-0.3 -1.33334,-0.666667 0,-0.370373 1.77778,-0.666666 4,-0.666666 3.8478,0 5.59288,1.014186 2.50123,1.453633 -1.2086,0.171787 -1.71455,0.987453 -2.61332,4.213032 -0.613,2.2 -1.13855,4.59167 -1.16789,5.31481 -0.0511,1.25864 0.009,1.25213 1.41366,-0.1522 0.80686,-0.80685 1.93867,-2.74852 2.51513,-4.31481 0.87347,-2.373292 1.37883,-2.884332 3.03299,-3.067039 l 1.98487,-0.21924 -1.44057,1.356514 c -0.79232,0.74608 -1.63938,2.261625 -1.88235,3.367885 -0.45125,2.05452 -3.74213,5.38075 -5.32357,5.38075 -0.48264,0 -1.0502,0.45 -1.26126,1 -0.26102,0.68019 0.036,1 0.92867,1 0.72183,0 1.31241,0.3 1.31241,0.66666 0,0.3711 -1.79089,0.66667 -4.03934,0.66667 -2.52314,0 -3.88469,-0.25024 -3.62732,-0.66667 z m -41.66667,-24.321955 c 0,-0.700907 24.133992,-32.011373 24.674247,-32.011373 0.317786,0 4.656423,5.372973 9.641423,11.939941 10.62038,13.990732 15.31888,20.609032 14.40399,20.289459 -0.3612,-0.126174 -5.49553,-6.6794 -11.40961,-14.562733 C 8.729293,31.531629 3.390133,24.576361 2.778579,23.95881 1.738439,22.908466 0.913612,23.842077 -10,38.422736 -20.26642,52.138742 -22.666667,55.044989 -22.666667,53.759669 Z M -5.10804,14.107772 c -2.785687,-1.172098 -2.64814,-4.230168 0.310693,-6.907879 1.03776,-0.93916 1.250739,-1.7624 0.979372,-3.785607 C -4.28726,-0.08451 -3.609174,-2.407638 -1.966461,-2.929015 1.121426,-3.909073 2.39496,-0.114486 0,2.930211 c -1.69472,2.15449 -1.681835,2.32904 0.397933,5.38969 l 1.73126,2.547783 1.60207,-2.357658 c 1.70757,-2.512913 2.0181,-3.761729 0.9354,-3.761729 -0.36666,0 -0.66666,-0.3 -0.66666,-0.666667 0,-0.366667 1.2,-0.666667 2.66666,-0.666667 2.73116,0 3.62972,0.925982 1.45134,1.49564 -0.66842,0.174797 -2.04104,1.726798 -3.05025,3.44889 -1.46593,2.50141 -1.67434,3.324575 -1.03638,4.093273 1.16954,1.40921 2.99074,1.175212 4.18568,-0.537803 0.57549,-0.825 1.06208,-1.125 1.08131,-0.666667 0.0193,0.458334 -0.59103,1.459331 -1.35614,2.224439 -1.06412,1.064131 -1.80844,1.272779 -3.16666,0.887689 -2.104984,-0.596817 -3.730137,-0.61085 -6.44223,-0.05563 -1.100001,0.225193 -2.64862,0.136532 -3.441373,-0.197025 z M -0.100067,12.82425 C 0.61152,12.37331 0.387865,11.685213 -1.168707,9.536428 -3.311394,6.578529 -4.666668,6.789765 -4.666668,10.08163 c 0,2.829756 2.273988,4.195473 4.566601,2.74262 z M 0,0 c 0,-1.220668 -0.347354,-1.91837 -0.955075,-1.91837 -1.192152,0 -1.94374,2.21833 -1.36712,4.0351 C -1.701315,4.072943 0,2.522157 0,0 Z m -26,13.414963 c 0,-0.366667 0.75,-0.666667 1.666666,-0.666667 2.33534,0 2.050847,-1.474756 -0.514426,-2.666666 -4.05912,-1.885999 -2.982267,-6.524163 1.95226,-8.408677 2.77524,-1.059872 3.98382,-2.924656 1.8955,-2.924656 -0.55,0 -1,-0.3 -1,-0.666667 0,-0.370371 1.77778,-0.666667 4,-0.666667 2.22222,0 4,0.296296 4,0.666667 0,0.366667 -0.75,0.666667 -1.666667,0.666667 -1.94104,0 -2.31032,1.813584 -0.5,2.455589 2.026712,0.718749 3.499999,2.365079 3.499999,3.911096 0,1.865649 -2.524992,4.354421 -5.399826,5.322369 -2.52994,0.851824 -3.3649,2.310945 -1.322393,2.310945 0.763887,0 1.388887,0.3 1.388887,0.666667 0,0.370371 -1.77778,0.666667 -4,0.666667 -2.22222,0 -4,-0.296296 -4,-0.666667 z m 4.619966,-7.051724 c 0.457674,-2.045116 0.681107,-3.869422 0.49652,-4.054014 -0.708526,-0.708521 -2.971293,1.145731 -3.779646,3.097274 -0.735354,1.775296 -0.690194,2.214691 0.345226,3.358812 0.655187,0.723975 1.397014,1.316319 1.648507,1.316319 0.251487,0 0.831713,-1.673276 1.289393,-3.718391 z m 5.138073,1.339166 c 1.280674,-1.954549 0.952467,-5.204549 -0.554433,-5.490176 -0.838153,-0.15887 -1.321553,0.527886 -1.873013,2.660966 -0.408807,1.581306 -0.887753,3.375239 -1.064327,3.986518 -0.479906,1.661387 2.23434,0.761783 3.491773,-1.157308 z m 31.908624,5.712558 c 0.22662,-0.366667 0.99432,-0.666667 1.70602,-0.666667 1.76492,0 1.62601,-1.213602 -0.31356,-2.73927 -1.31804,-1.036769 -1.64822,-1.98475 -1.83334,-5.263828 -0.19482,-3.450808 -0.0658,-3.999164 0.94088,-3.998116 1.30565,0.0013 1.39827,0.369788 1.19687,4.760699 -0.12657,2.759389 0.76595,4.666582 1.73184,3.700697 0.25824,-0.258239 2.83331,-9.419921 2.8932,-10.293515 0.006,-0.09167 -0.58857,-0.166666 -1.32191,-0.166666 -0.73333,0 -1.33333,-0.3 -1.33333,-0.666667 0,-0.370371 1.77778,-0.666667 4,-0.666667 3.84779,0 5.59288,1.014189 2.50123,1.453633 -1.2086,0.171789 -1.71456,0.987456 -2.61332,4.213034 -0.613,2.2 -1.13855,4.591667 -1.1679,5.314815 -0.0511,1.258632 0.009,1.252128 1.41367,-0.152199 0.80686,-0.806858 1.93867,-2.748525 2.51513,-4.314815 0.87347,-2.373296 1.37883,-2.884332 3.03298,-3.067042 l 1.98488,-0.219242 -1.44058,1.356514 c -0.79231,0.746083 -1.63937,2.261632 -1.88234,3.367887 -0.45125,2.054519 -3.74214,5.380748 -5.32358,5.380748 -0.48263,0 -1.0502,0.45 -1.26126,1 -0.26101,0.680193 0.036,1 0.92868,1 0.72182,0 1.31241,0.3 1.31241,0.666667 0,0.371092 -1.79089,0.666667 -4.03935,0.666667 -2.52313,0 -3.88468,-0.250241 -3.62732,-0.666667 z"
       id="path1162" />
  </g>
</svg>
