<?xml version="1.0" encoding="UTF-8" standalone="no"?>
<svg
   xmlns:dc="http://purl.org/dc/elements/1.1/"
   xmlns:cc="http://creativecommons.org/ns#"
   xmlns:rdf="http://www.w3.org/1999/02/22-rdf-syntax-ns#"
   xmlns:svg="http://www.w3.org/2000/svg"
   xmlns="http://www.w3.org/2000/svg"
   xmlns:sodipodi="http://sodipodi.sourceforge.net/DTD/sodipodi-0.dtd"
   xmlns:inkscape="http://www.inkscape.org/namespaces/inkscape"
   version="1.1"
   id="svg622"
   width="94.115593"
   height="112.59963"
   viewBox="0 0 94.115594 112.59963"
   sodipodi:docname="resRuleNegBi.svg"
   inkscape:version="1.0.1 (c497b03c, 2020-09-10)">
  <metadata
     id="metadata628">
    <rdf:RDF>
      <cc:Work
         rdf:about="">
        <dc:format>image/svg+xml</dc:format>
        <dc:type
           rdf:resource="http://purl.org/dc/dcmitype/StillImage" />
        <dc:title></dc:title>
      </cc:Work>
    </rdf:RDF>
  </metadata>
  <defs
     id="defs626" />
  <sodipodi:namedview
     pagecolor="#ffffff"
     bordercolor="#666666"
     borderopacity="1"
     objecttolerance="10"
     gridtolerance="10"
     guidetolerance="10"
     inkscape:pageopacity="0"
     inkscape:pageshadow="2"
     inkscape:window-width="731"
     inkscape:window-height="675"
     id="namedview624"
     showgrid="false"
     inkscape:pagecheckerboard="true"
     fit-margin-top="0"
     fit-margin-left="0"
     fit-margin-right="0"
     fit-margin-bottom="0"
     inkscape:zoom="1.5877815"
     inkscape:cx="-3.884462"
     inkscape:cy="107.22019"
     inkscape:window-x="0"
     inkscape:window-y="25"
     inkscape:window-maximized="0"
     inkscape:current-layer="g630" />
  <g
     inkscape:groupmode="layer"
     inkscape:label="Image"
     id="g630"
     transform="translate(-148.13325,39.986015)">
    <path
       style="fill:#1d1d1d;stroke-width:0.666667"
       d="m 167.79991,71.946946 c 0.22662,-0.36667 0.99432,-0.66667 1.70602,-0.66667 1.76492,0 1.62601,-1.2136 -0.31356,-2.73927 -1.31804,-1.03677 -1.64822,-1.98475 -1.83334,-5.26383 -0.19482,-3.4508 -0.0658,-3.99916 0.94088,-3.99811 1.30565,10e-4 1.39827,0.36979 1.19687,4.7607 -0.12657,2.75939 0.76595,4.66658 1.73184,3.70069 0.25824,-0.25824 2.83331,-9.41992 2.8932,-10.29351 0.006,-0.0917 -0.58857,-0.16667 -1.32191,-0.16667 -0.73333,0 -1.33333,-0.3 -1.33333,-0.66666 0,-0.37038 1.77778,-0.66667 4,-0.66667 3.84779,0 5.59288,1.01419 2.50123,1.45363 -1.2086,0.17179 -1.71456,0.98746 -2.61332,4.21304 -0.613,2.2 -1.13855,4.59166 -1.1679,5.31481 -0.0511,1.25863 0.009,1.25213 1.41367,-0.1522 0.80686,-0.80685 1.93867,-2.74852 2.51513,-4.31481 0.87347,-2.3733 1.37883,-2.88434 3.03298,-3.06704 l 1.98488,-0.21924 -1.44058,1.35651 c -0.79231,0.74608 -1.63937,2.26163 -1.88234,3.36789 -0.45125,2.05452 -3.74214,5.38074 -5.32358,5.38074 -0.48263,0 -1.0502,0.45 -1.26126,1 -0.26101,0.6802 0.036,1 0.92868,1 0.72182,0 1.31241,0.3 1.31241,0.66667 0,0.37109 -1.79089,0.66667 -4.03935,0.66667 -2.52313,0 -3.88468,-0.25024 -3.62732,-0.66667 z m 49.66667,0 c 0,-0.36667 0.6,-0.66667 1.33333,-0.66667 1.69233,0 1.72607,-1.434 0.0583,-2.47558 -0.99934,-0.62409 -1.32373,-1.74036 -1.5,-5.16176 -0.16324,-3.16839 0.003,-4.36507 0.60842,-4.36406 0.96115,0.001 1.05747,0.53266 0.86353,4.76089 -0.12657,2.75939 0.76595,4.66658 1.73184,3.70069 0.25824,-0.25824 2.83331,-9.41992 2.8932,-10.29351 0.006,-0.0917 -0.58859,-0.16667 -1.32193,-0.16667 -0.73333,0 -1.33333,-0.3 -1.33333,-0.66666 0,-0.37038 1.77778,-0.66667 4,-0.66667 3.84779,0 5.59288,1.01419 2.50123,1.45363 -1.2086,0.17179 -1.71456,0.98746 -2.61332,4.21304 -0.613,2.2 -1.13855,4.59166 -1.1679,5.31481 -0.0511,1.25863 0.009,1.25213 1.41367,-0.1522 0.80686,-0.80685 1.93867,-2.74852 2.51513,-4.31481 0.87347,-2.3733 1.37883,-2.88434 3.03298,-3.06704 l 1.98485,-0.21924 -1.44058,1.35651 c -0.79231,0.74608 -1.63937,2.26163 -1.88234,3.36789 -0.45125,2.05452 -3.74214,5.38074 -5.32358,5.38074 -0.48263,0 -1.0502,0.45 -1.26126,1 -0.26101,0.6802 0.036,1 0.92868,1 0.72182,0 1.31241,0.3 1.31241,0.66667 0,0.36667 -1.65,0.66667 -3.66667,0.66667 -2.01666,0 -3.66666,-0.3 -3.66666,-0.66667 z m -53.33333,-4 v -2.66667 h -6 c -3.55556,0 -6,-0.2716 -6,-0.66666 0,-0.4 2.66666,-0.66667 6.66666,-0.66667 h 6.66667 v 3.33333 c 0,1.83334 -0.3,3.33334 -0.66667,3.33334 -0.36666,0 -0.66666,-1.2 -0.66666,-2.66667 z m -2.66667,-24 c 0,-0.366667 0.75,-0.666667 1.66667,-0.666667 2.33534,0 2.05084,-1.47476 -0.51443,-2.666666 -4.05912,-1.886 -2.98227,-6.52416 1.95226,-8.40868 2.77524,-1.059867 3.98382,-2.924654 1.8955,-2.924654 -0.55,0 -1,-0.3 -1,-0.666666 0,-0.370374 1.77778,-0.666667 4,-0.666667 2.22222,0 4,0.296293 4,0.666667 0,0.366666 -0.75,0.666666 -1.66667,0.666666 -1.94104,0 -2.31032,1.813587 -0.5,2.455587 2.02672,0.718753 3.5,2.36508 3.5,3.9111 0,1.865647 -2.52499,4.35442 -5.39982,5.322367 -2.52994,0.851826 -3.3649,2.310946 -1.3224,2.310946 0.76389,0 1.38889,0.3 1.38889,0.666667 0,0.37037 -1.77778,0.66667 -4,0.66667 -2.22222,0 -4,-0.2963 -4,-0.66667 z m 4.61997,-7.051727 c 0.45767,-2.045113 0.6811,-3.86942 0.49652,-4.054013 -0.70853,-0.70852 -2.9713,1.145733 -3.77965,3.097273 -0.73535,1.7753 -0.69019,2.214694 0.34523,3.358814 0.65518,0.723973 1.39701,1.31632 1.6485,1.31632 0.25149,0 0.83172,-1.673274 1.2894,-3.718394 z m 5.13807,1.339167 c 1.28067,-1.954547 0.95247,-5.204547 -0.55443,-5.490173 -0.83816,-0.158874 -1.32156,0.527886 -1.87302,2.660966 -0.4088,1.581307 -0.88775,3.37524 -1.06432,3.986514 -0.47991,1.661393 2.23434,0.761786 3.49177,-1.157307 z m 54.90862,5.71256 c 0,-0.366667 0.75,-0.666667 1.66667,-0.666667 2.33534,0 2.05085,-1.47476 -0.51443,-2.666666 -4.05912,-1.886 -2.98226,-6.52416 1.95226,-8.40868 2.77524,-1.059867 3.98382,-2.924654 1.8955,-2.924654 -0.55,0 -1,-0.3 -1,-0.666666 0,-0.370374 1.77778,-0.666667 4,-0.666667 2.22222,0 4,0.296293 4,0.666667 0,0.366666 -0.75,0.666666 -1.66666,0.666666 -1.94104,0 -2.31032,1.813587 -0.5,2.455587 2.02671,0.718753 3.5,2.36508 3.5,3.9111 0,1.865647 -2.525,4.35442 -5.39983,5.322367 -2.52994,0.851826 -3.3649,2.310946 -1.32239,2.310946 0.76388,0 1.38888,0.3 1.38888,0.666667 0,0.37037 -1.77778,0.66667 -4,0.66667 -2.22222,0 -4,-0.2963 -4,-0.66667 z m 4.61997,-7.051727 c 0.45767,-2.045113 0.68111,-3.86942 0.49652,-4.054013 -0.70853,-0.70852 -2.97129,1.145733 -3.77965,3.097273 -0.73535,1.7753 -0.69019,2.214694 0.34523,3.358814 0.65519,0.723973 1.39701,1.31632 1.64851,1.31632 0.25148,0 0.83171,-1.673274 1.28939,-3.718394 z m 5.13807,1.339167 c 1.28068,-1.954547 0.95247,-5.204547 -0.55443,-5.490173 -0.83815,-0.158874 -1.32155,0.527886 -1.87301,2.660966 -0.40881,1.581307 -0.88776,3.37524 -1.06433,3.986514 -0.47991,1.661393 2.23434,0.761786 3.49177,-1.157307 z m -14.4247,1.71256 v -2.666667 h -5.66667 c -3.33333,0 -5.66667,-0.274506 -5.66667,-0.666666 0,-0.39766 2.55556,-0.666667 6.33334,-0.666667 h 6.33333 v 3.333333 c 0,1.833334 -0.3,3.333334 -0.66667,3.333334 -0.36666,0 -0.66666,-1.2 -0.66666,-2.666667 z m -54,-20.492667 c 0,-1.17214 27.94473,-27.6165919 28.94631,-27.3922699 1.32083,0.295823 28.60067,27.2268369 28.09337,27.7341439 -0.2212,0.221193 -6.17061,-5.349367 -13.22093,-12.3790259 -7.05031,-7.02966 -13.44555,-13.219466 -14.21163,-13.755126 -1.30499,-0.912482 -1.62045,-0.741594 -4.99999,2.70864 -7.4944,7.651144 -24.60713,23.7043779 -24.60713,23.0836379 z m 0.35616,-37.212374 c -4.12132,-4.446974 -4.57717,-13.582977 -0.96215,-19.283259 2.4589,-3.87729 3.87742,-3.947743 1.61077,-0.08 -3.08167,5.25848 -3.05309,13.512944 0.0627,18.10431 2.04718,3.016696 1.61939,3.773834 -0.71132,1.258949 z m 68.97717,1.41128 c 0,-0.275226 0.61392,-1.362587 1.36427,-2.416357 2.17374,-3.052739 3.06072,-8.575314 2.1077,-13.123215 -0.44181,-2.108334 -1.40374,-4.646186 -2.13763,-5.639672 -1.57066,-2.126253 -1.66618,-2.612486 -0.41919,-2.133974 0.50332,0.193146 1.70332,1.799328 2.66666,3.569296 3.20693,5.892187 2.15529,15.055833 -2.17754,18.974342 -0.77235,0.698495 -1.40427,1.044806 -1.40427,0.76958 z m -63.33333,-6.372906 c 0,-0.366666 0.75,-0.666666 1.66667,-0.666666 2.33534,0 2.05084,-1.474757 -0.51443,-2.666667 -4.05912,-1.885999 -2.98227,-6.524163 1.95226,-8.408677 2.77524,-1.059872 3.98382,-2.924656 1.8955,-2.924656 -0.55,0 -1,-0.3 -1,-0.666667 0,-0.370371 1.77778,-0.666667 4,-0.666667 2.22222,0 4,0.296296 4,0.666667 0,0.366667 -0.75,0.666667 -1.66667,0.666667 -1.94104,0 -2.31032,1.813584 -0.5,2.455589 2.02672,0.718749 3.5,2.365079 3.5,3.911096 0,1.865649 -2.52499,4.354421 -5.39982,5.322369 -2.52994,0.851824 -3.3649,2.310946 -1.3224,2.310946 0.76389,0 1.38889,0.3 1.38889,0.666666 0,0.370371 -1.77778,0.666667 -4,0.666667 -2.22222,0 -4,-0.296296 -4,-0.666667 z m 4.61997,-7.051724 c 0.45767,-2.045116 0.6811,-3.869422 0.49652,-4.054014 -0.70853,-0.708521 -2.9713,1.145731 -3.77965,3.097274 -0.73535,1.775296 -0.69019,2.214691 0.34523,3.358812 0.65518,0.723975 1.39701,1.316319 1.6485,1.316319 0.25149,0 0.83172,-1.673276 1.2894,-3.718391 z m 5.13807,1.339166 c 1.28067,-1.954549 0.95247,-5.204549 -0.55443,-5.490176 -0.83816,-0.15887 -1.32156,0.527886 -1.87302,2.660966 -0.4088,1.581306 -0.88775,3.375239 -1.06432,3.986518 -0.47991,1.661388 2.23434,0.761783 3.49177,-1.157308 z m 36.57529,5.712558 c 0.22661,-0.366666 0.99432,-0.666666 1.70601,-0.666666 1.76493,0 1.62602,-1.213603 -0.31356,-2.73927 -1.31804,-1.03677 -1.64821,-1.984751 -1.83333,-5.263829 -0.19482,-3.450808 -0.0658,-3.999164 0.94088,-3.998116 1.30565,0.0013 1.39827,0.369788 1.19687,4.760699 -0.12657,2.759389 0.76595,4.666582 1.73184,3.700697 0.25824,-0.258239 2.83331,-9.419921 2.8932,-10.293515 0.006,-0.09167 -0.58858,-0.166666 -1.32191,-0.166666 -0.73333,0 -1.33333,-0.3 -1.33333,-0.666667 0,-0.370371 1.77778,-0.666667 4,-0.666667 3.84779,0 5.59288,1.014189 2.50122,1.453633 -1.2086,0.171789 -1.71455,0.987456 -2.61332,4.213034 -0.613,2.2 -1.13854,4.591667 -1.16789,5.314815 -0.0511,1.258632 0.009,1.252128 1.41367,-0.152199 0.80686,-0.806858 1.93866,-2.748525 2.51512,-4.314815 0.87348,-2.373296 1.37884,-2.884332 3.03299,-3.067042 l 1.98487,-0.219242 -1.44057,1.356514 c -0.79231,0.746083 -1.63937,2.261632 -1.88235,3.367887 -0.45124,2.054519 -3.74213,5.380749 -5.32357,5.380749 -0.48263,0 -1.0502,0.45 -1.26126,1 -0.26101,0.680192 0.036,1 0.92867,1 0.72183,0 1.31242,0.3 1.31242,0.666666 0,0.371092 -1.7909,0.666667 -4.03935,0.666667 -2.52313,0 -3.88469,-0.250241 -3.62732,-0.666667 z m -25,-0.666666 c 0,-0.407589 3.12423,-0.666667 8.03935,-0.666667 5.1898,0 7.8933,0.2363 7.62732,0.666667 -0.23584,0.381589 -3.67359,0.666666 -8.03935,0.666666 -4.64043,0 -7.62732,-0.261068 -7.62732,-0.666666 z m -34.66666,-3.333334 v -2.666666 h -6 c -3.55556,0 -6,-0.271605 -6,-0.666667 0,-0.4 2.66666,-0.666667 6.66666,-0.666667 h 6.66667 v 3.333334 c 0,1.833333 -0.3,3.333333 -0.66667,3.333333 -0.36666,0 -0.66666,-1.2 -0.66666,-2.666667 z m 34.66666,-1.333333 c 0,-0.407407 3.11111,-0.666667 8,-0.666667 4.88889,0 8,0.25926 8,0.666667 0,0.407407 -3.11111,0.666667 -8,0.666667 -4.88889,0 -8,-0.25926 -8,-0.666667 z m 0,-4.666667 c 0,-0.407407 3.11111,-0.666666 8,-0.666666 4.88889,0 8,0.259259 8,0.666666 0,0.407408 -3.11111,0.666667 -8,0.666667 -4.88889,0 -8,-0.259259 -8,-0.666667 z"
       id="path634" />
  </g>
</svg>
