<?xml version="1.0" encoding="UTF-8" standalone="no"?>
<svg
   xmlns:dc="http://purl.org/dc/elements/1.1/"
   xmlns:cc="http://creativecommons.org/ns#"
   xmlns:rdf="http://www.w3.org/1999/02/22-rdf-syntax-ns#"
   xmlns:svg="http://www.w3.org/2000/svg"
   xmlns="http://www.w3.org/2000/svg"
   xmlns:sodipodi="http://sodipodi.sourceforge.net/DTD/sodipodi-0.dtd"
   xmlns:inkscape="http://www.inkscape.org/namespaces/inkscape"
   version="1.1"
   id="svg62"
   width="88.782265"
   height="112.59962"
   viewBox="0 0 88.782265 112.59963"
   sodipodi:docname="resRuleNegDis.svg"
   inkscape:version="1.0.1 (c497b03c, 2020-09-10)">
  <metadata
     id="metadata68">
    <rdf:RDF>
      <cc:Work
         rdf:about="">
        <dc:format>image/svg+xml</dc:format>
        <dc:type
           rdf:resource="http://purl.org/dc/dcmitype/StillImage" />
        <dc:title></dc:title>
      </cc:Work>
    </rdf:RDF>
  </metadata>
  <defs
     id="defs66" />
  <sodipodi:namedview
     pagecolor="#ffffff"
     bordercolor="#666666"
     borderopacity="1"
     objecttolerance="10"
     gridtolerance="10"
     guidetolerance="10"
     inkscape:pageopacity="0"
     inkscape:pageshadow="2"
     inkscape:window-width="1066"
     inkscape:window-height="747"
     id="namedview64"
     showgrid="false"
     inkscape:pagecheckerboard="true"
     fit-margin-top="0"
     fit-margin-left="0"
     fit-margin-right="0"
     fit-margin-bottom="0"
     inkscape:zoom="1.6151786"
     inkscape:cx="154.17182"
     inkscape:cy="100.91547"
     inkscape:window-x="0"
     inkscape:window-y="25"
     inkscape:window-maximized="0"
     inkscape:current-layer="g70" />
  <g
     inkscape:groupmode="layer"
     inkscape:label="Image"
     id="g70"
     transform="translate(85.114426,-20.876325)">
    <path
       style="fill:#1e1e1e;stroke-width:0.666667"
       d="m -39.447758,132.80928 c 0.22661,-0.36666 0.99432,-0.66666 1.70601,-0.66666 1.76493,0 1.62601,-1.2136 -0.31356,-2.73928 -1.31804,-1.03676 -1.64821,-1.98474 -1.83333,-5.26382 -0.19482,-3.45081 -0.0658,-3.99916 0.94088,-3.99812 1.30564,10e-4 1.39826,0.36979 1.19686,4.7607 -0.12656,2.75939 0.76596,4.66658 1.73184,3.7007 0.25824,-0.25824 2.83332,-9.41992 2.8932,-10.29352 0.0063,-0.0917 -0.58857,-0.16666 -1.3219,-0.16666 -0.73334,0 -1.33334,-0.3 -1.33334,-0.66667 0,-0.37037 1.77778,-0.66667 4,-0.66667 3.8478,0 5.59288,1.01419 2.50123,1.45364 -1.2086,0.17178 -1.71455,0.98745 -2.61332,4.21303 -0.613,2.2 -1.13855,4.59167 -1.16789,5.31481 -0.0511,1.25864 0.009,1.25213 1.41366,-0.1522 0.80686,-0.80685 1.93867,-2.74852 2.51513,-4.31481 0.87347,-2.37329 1.37883,-2.88433 3.03299,-3.06704 l 1.98487,-0.21924 -1.44057,1.35651 c -0.79232,0.74608 -1.63938,2.26163 -1.88235,3.36789 -0.45125,2.05452 -3.74213,5.38075 -5.32357,5.38075 -0.48264,0 -1.0502,0.45 -1.26126,1 -0.26102,0.68019 0.036,1 0.92867,1 0.72183,0 1.31241,0.3 1.31241,0.66666 0,0.3711 -1.79089,0.66667 -4.03934,0.66667 -2.52314,0 -3.88469,-0.25024 -3.62732,-0.66667 z m -3.66667,-4 v -2.66666 h -6 c -3.555551,0 -5.999998,-0.27161 -5.999998,-0.66667 0,-0.4 2.666667,-0.66667 6.666668,-0.66667 h 6.66667 v 3.33334 c 0,1.83333 -0.3,3.33333 -0.66667,3.33333 -0.36667,0 -0.66667,-1.2 -0.66667,-2.66667 z m 4.66667,-24.66666 c 0,-0.36667 0.75,-0.66667 1.66666,-0.66667 2.33534,0 2.05085,-1.47476 -0.51442,-2.66667 -4.05912,-1.886 -2.98227,-6.524155 1.95226,-8.408675 2.77524,-1.059867 3.98382,-2.924653 1.8955,-2.924653 -0.55,0 -1,-0.3 -1,-0.666667 0,-0.370373 1.77778,-0.666667 4,-0.666667 2.22222,0 4,0.296294 4,0.666667 0,0.366667 -0.75,0.666667 -1.66667,0.666667 -1.94104,0 -2.31032,1.813586 -0.5,2.455586 2.02671,0.718754 3.5,2.36508 3.5,3.9111 0,1.865647 -2.52499,4.354422 -5.39983,5.322362 -2.52994,0.85183 -3.3649,2.31095 -1.32239,2.31095 0.76389,0 1.38889,0.3 1.38889,0.66667 0,0.37037 -1.77778,0.66666 -4,0.66666 -2.22222,0 -4,-0.29629 -4,-0.66666 z m 4.61996,-7.051729 c 0.45768,-2.045113 0.68111,-3.869419 0.49652,-4.054013 -0.70852,-0.70852 -2.97129,1.145734 -3.77964,3.097273 -0.73536,1.7753 -0.6902,2.214689 0.34522,3.358809 0.65519,0.72398 1.39702,1.31632 1.64851,1.31632 0.25149,0 0.83171,-1.67327 1.28939,-3.718389 z m 5.13808,1.339169 c 1.28067,-1.954549 0.95246,-5.204548 -0.55444,-5.490175 -0.83815,-0.158873 -1.32155,0.527887 -1.87301,2.660967 -0.40881,1.581306 -0.88775,3.375238 -1.06433,3.986508 -0.4799,1.6614 2.23434,0.76179 3.49178,-1.1573 z m -13.75804,1.71256 v -2.666669 h -6 c -3.555555,0 -6.000001,-0.271606 -6.000001,-0.666666 0,-0.4 2.666666,-0.666667 6.666671,-0.666667 h 6.66666 v 3.333332 c 0,1.83333 -0.3,3.33333 -0.66666,3.33333 -0.36667,0 -0.66667,-1.2 -0.66667,-2.66666 z m 2,-34.039348 c 0,-9.189798 0.23029,-13.897019 0.66667,-13.62732 0.40926,0.252939 0.66666,5.67359 0.66666,14.039347 0,8.640433 -0.24397,13.627319 -0.66666,13.627319 -0.42334,0 -0.66667,-5.124226 -0.66667,-14.039346 z M -65.424933,43.104245 c -4.12132,-4.446974 -4.577166,-13.582977 -0.962153,-19.283259 2.4589,-3.87729 3.87742,-3.947742 1.610773,-0.08 -3.081673,5.25848 -3.053086,13.512944 0.06273,18.10431 2.04718,3.016695 1.619393,3.773833 -0.71132,1.25895 z m 63.6438346,1.411279 c 0,-0.275226 0.61392,-1.362586 1.36427995,-2.416356 2.17374005,-3.052739 3.06071005,-8.575314 2.10769005,-13.123215 -0.44181,-2.108334 -1.40373005,-4.646185 -2.13763005,-5.639671 -1.57065995,-2.126254 -1.66617995,-2.612487 -0.41919,-2.133975 0.50333,0.193146 1.70333,1.799329 2.66667005,3.569296 3.20692,5.892187 2.15528,15.055833 -2.17754005,18.974341 -0.77235995,0.698496 -1.40427995,1.044806 -1.40427995,0.76958 z M -36.743948,32.454643 c -1.72373,-3.86172 -2.99825,-7.38672 -2.83228,-7.833333 0.29909,-0.804832 5.79513,10.311248 5.79513,11.721021 0,1.399371 1.10046,-0.516474 3.6679,-6.385662 1.40811,-3.21894 2.80761,-5.60521 3.11,-5.302824 0.55038,0.550386 -5.41122,14.819396 -6.1923,14.821168 -0.22792,5.16e-4 -1.82472,-3.15865 -3.54845,-7.02037 z m -23.037145,5.687976 c 0,-0.366666 0.75,-0.666666 1.666667,-0.666666 2.33534,0 2.050847,-1.474757 -0.514427,-2.666667 -4.05912,-1.885999 -2.982266,-6.524163 1.95226,-8.408677 2.77524,-1.059872 3.98382,-2.924656 1.8955,-2.924656 -0.55,0 -1,-0.3 -1,-0.666667 0,-0.37037 1.77778,-0.666666 4,-0.666666 2.222225,0 4.000005,0.296296 4.000005,0.666666 0,0.366667 -0.75,0.666667 -1.66667,0.666667 -1.941041,0 -2.310321,1.813584 -0.5,2.455589 2.02671,0.718749 3.5,2.365079 3.5,3.911096 0,1.865649 -2.52499,4.354421 -5.399828,5.322369 -2.52994,0.851824 -3.3649,2.310946 -1.322393,2.310946 0.763886,0 1.388886,0.3 1.388886,0.666666 0,0.370371 -1.77778,0.666667 -4,0.666667 -2.22222,0 -4,-0.296296 -4,-0.666667 z m 4.619967,-7.051724 c 0.457673,-2.045116 0.681107,-3.869422 0.49652,-4.054014 -0.708527,-0.708521 -2.971293,1.145731 -3.779647,3.097274 -0.735353,1.775296 -0.690193,2.214691 0.345227,3.358812 0.655187,0.723975 1.397013,1.316319 1.648507,1.316319 0.251486,0 0.831713,-1.673276 1.289393,-3.718391 z m 5.138078,1.339166 c 1.28067,-1.954549 0.95246,-5.204549 -0.554438,-5.490176 -0.838153,-0.15887 -1.321553,0.527886 -1.873013,2.660966 -0.408807,1.581306 -0.887754,3.375239 -1.064327,3.986518 -0.479907,1.661388 2.23434,0.761783 3.491778,-1.157308 z m 31.90862,5.712558 c 0.22661,-0.366666 0.99432,-0.666666 1.70601,-0.666666 1.76493,0 1.62602,-1.213603 -0.31356,-2.73927 -1.31804,-1.03677 -1.64821,-1.984751 -1.83333,-5.263829 -0.19482,-3.450808 -0.0658,-3.999164 0.94088,-3.998116 1.30565,0.0013 1.39827,0.369788 1.19687,4.760699 -0.12657,2.759389 0.76595,4.666582 1.73184,3.700697 0.25824,-0.258239 2.83331,-9.419921 2.8932,-10.293514 0.006,-0.09167 -0.58858,-0.166667 -1.32191,-0.166667 -0.73333,0 -1.33333,-0.3 -1.33333,-0.666667 0,-0.37037 1.77778,-0.666666 4,-0.666666 3.8477896,0 5.5928796,1.014188 2.5012196,1.453632 -1.2086,0.17179 -1.71455,0.987456 -2.6133196,4.213034 -0.613,2.2 -1.13854,4.591667 -1.16789,5.314815 -0.0511,1.258632 0.009,1.252128 1.41367,-0.152199 0.8068596,-0.806858 1.9386596,-2.748525 2.5151196,-4.314815 0.87348,-2.373296 1.37884,-2.884332 3.03299,-3.067042 l 1.98487,-0.219242 -1.44057,1.356514 c -0.79231,0.746083 -1.63937,2.261632 -1.88235,3.367887 -0.45124,2.054519 -3.74213,5.380749 -5.3235696,5.380749 -0.48263,0 -1.0502,0.45 -1.26126,1 -0.26101,0.680192 0.036,1 0.92867,1 0.72183,0 1.31242,0.3 1.31242,0.666666 0,0.371092 -1.7909,0.666667 -4.03935,0.666667 -2.52313,0 -3.88469,-0.250241 -3.62732,-0.666667 z m -54.999998,-4 v -2.666666 h -6 c -3.555553,0 -6,-0.271605 -6,-0.666667 0,-0.4 2.666667,-0.666667 6.666667,-0.666667 h 6.666666 v 3.333334 c 0,1.833333 -0.3,3.333333 -0.666666,3.333333 -0.366667,0 -0.666667,-1.2 -0.666667,-2.666667 z"
       id="path74" />
  </g>
</svg>
