<?xml version="1.0" encoding="UTF-8" standalone="no"?>
<svg
   xmlns:dc="http://purl.org/dc/elements/1.1/"
   xmlns:cc="http://creativecommons.org/ns#"
   xmlns:rdf="http://www.w3.org/1999/02/22-rdf-syntax-ns#"
   xmlns:svg="http://www.w3.org/2000/svg"
   xmlns="http://www.w3.org/2000/svg"
   xmlns:sodipodi="http://sodipodi.sourceforge.net/DTD/sodipodi-0.dtd"
   xmlns:inkscape="http://www.inkscape.org/namespaces/inkscape"
   version="1.1"
   id="svg248"
   width="58.339142"
   height="110.50143"
   viewBox="0 0 58.339142 110.50143"
   sodipodi:docname="resRuleCon.svg"
   inkscape:version="1.0.1 (c497b03c, 2020-09-10)">
  <metadata
     id="metadata254">
    <rdf:RDF>
      <cc:Work
         rdf:about="">
        <dc:format>image/svg+xml</dc:format>
        <dc:type
           rdf:resource="http://purl.org/dc/dcmitype/StillImage" />
        <dc:title></dc:title>
      </cc:Work>
    </rdf:RDF>
  </metadata>
  <defs
     id="defs252" />
  <sodipodi:namedview
     pagecolor="#ffffff"
     bordercolor="#666666"
     borderopacity="1"
     objecttolerance="10"
     gridtolerance="10"
     guidetolerance="10"
     inkscape:pageopacity="0"
     inkscape:pageshadow="2"
     inkscape:window-width="1072"
     inkscape:window-height="731"
     id="namedview250"
     showgrid="false"
     inkscape:pagecheckerboard="true"
     fit-margin-top="0"
     fit-margin-left="0"
     fit-margin-right="0"
     fit-margin-bottom="0"
     inkscape:zoom="1.262867"
     inkscape:cx="32.342315"
     inkscape:cy="100.92961"
     inkscape:window-x="0"
     inkscape:window-y="25"
     inkscape:window-maximized="0"
     inkscape:current-layer="g256" />
  <g
     inkscape:groupmode="layer"
     inkscape:label="Image"
     id="g256"
     transform="translate(-49.994189,-18.165233)">
    <path
       style="fill:#202020;stroke-width:0.666667"
       d="m 72.333333,128 c 0.226614,-0.36667 0.99432,-0.66667 1.706014,-0.66667 1.764926,0 1.626013,-1.2136 -0.31356,-2.73927 -1.320467,-1.03868 -1.647874,-1.98309 -1.833334,-5.28831 C 71.68454,115.60043 71.772207,115.29716 73,115.4743 c 1.184707,0.17092 1.308173,0.61121 1.10762,3.94986 -0.141233,2.3512 0.06247,3.93562 0.54436,4.23342 0.423533,0.26176 0.92306,0.32293 1.11006,0.13593 0.25824,-0.25824 2.833313,-9.41992 2.8932,-10.29351 0.0063,-0.0917 -0.588573,-0.16667 -1.321907,-0.16667 C 76.6,113.33333 76,113.03333 76,112.66666 76,112.29629 77.77778,112 80,112 c 3.847793,0 5.59288,1.01418 2.501227,1.45363 -1.2086,0.17179 -1.714554,0.98745 -2.61332,4.21303 -0.613,2.2 -1.138547,4.59167 -1.167894,5.31482 -0.05107,1.25863 0.0093,1.25212 1.413667,-0.1522 0.80686,-0.80686 1.938667,-2.74852 2.515127,-4.31482 0.873473,-2.37329 1.378833,-2.88433 3.032986,-3.06704 l 1.984874,-0.21924 -1.440574,1.35652 c -0.792313,0.74608 -1.639373,2.26162 -1.882346,3.36788 -0.451247,2.05452 -3.742134,5.38075 -5.323574,5.38075 -0.482633,0 -1.0502,0.45 -1.26126,1 -0.261013,0.68019 0.036,1 0.928674,1 0.721826,0 1.312413,0.3 1.312413,0.66667 0,0.37109 -1.790893,0.66666 -4.039347,0.66666 -2.523133,0 -3.884686,-0.25024 -3.62732,-0.66666 z m 1,-28.000002 c 0,-0.366667 0.75,-0.666667 1.666667,-0.666667 2.33534,0 2.050847,-1.47476 -0.514427,-2.666666 -4.05912,-1.886 -2.982266,-6.52416 1.95226,-8.40868 2.77524,-1.059867 3.98382,-2.924653 1.8955,-2.924653 -0.55,0 -1,-0.3 -1,-0.666667 0,-0.370373 1.77778,-0.666667 4,-0.666667 2.22222,0 4,0.296294 4,0.666667 0,0.366667 -0.75,0.666667 -1.666666,0.666667 -1.94104,0 -2.31032,1.813586 -0.5,2.455586 2.026713,0.718753 3.5,2.36508 3.5,3.9111 0,1.865647 -2.524994,4.35442 -5.399827,5.322367 -2.52994,0.851826 -3.3649,2.310946 -1.322393,2.310946 0.763886,0 1.388886,0.3 1.388886,0.666667 0,0.370372 -1.77778,0.666662 -4,0.666662 -2.22222,0 -4,-0.29629 -4,-0.666662 z M 77.9533,92.948271 c 0.457673,-2.045113 0.681107,-3.86942 0.49652,-4.054013 -0.708527,-0.70852 -2.971293,1.145733 -3.779647,3.097273 -0.735353,1.7753 -0.690193,2.214694 0.345227,3.358814 0.655187,0.723973 1.397013,1.31632 1.648507,1.31632 0.251486,0 0.831713,-1.673274 1.289393,-3.718394 z m 5.138073,1.339167 c 1.280674,-1.954547 0.952467,-5.204547 -0.554433,-5.490173 -0.838153,-0.158874 -1.321553,0.527886 -1.873013,2.660966 -0.408807,1.581307 -0.887754,3.37524 -1.064327,3.986514 -0.479907,1.661393 2.23434,0.761786 3.491773,-1.157307 z M 78.666667,59.70601 c 0,-10.470674 0.24032,-16.372678 0.666666,-16.372678 0.42588,0 0.666667,5.764663 0.666667,15.960655 0,9.921312 -0.25226,16.116558 -0.666667,16.372678 -0.437533,0.270407 -0.666666,-5.2153 -0.666666,-15.960655 z M 72.225293,35.359475 c -2.785686,-1.172098 -2.64814,-4.230168 0.310694,-6.90788 1.03776,-0.93916 1.25074,-1.7624 0.979373,-3.785606 -0.469287,-3.498796 0.2088,-5.821924 1.851513,-6.343301 3.087887,-0.980058 4.36142,2.814529 1.96646,5.859225 -1.69472,2.15449 -1.681833,2.329041 0.397934,5.38969 l 1.73126,2.547784 1.602073,-2.357658 c 1.707567,-2.512914 2.0181,-3.76173 0.9354,-3.76173 -0.366667,0 -0.666667,-0.3 -0.666667,-0.666666 0,-0.366667 1.2,-0.666667 2.666667,-0.666667 2.73116,0 3.62972,0.925981 1.45134,1.495639 -0.668427,0.174798 -2.04104,1.726798 -3.050253,3.44889 -1.465927,2.501411 -1.67434,3.324576 -1.03638,4.093274 1.16954,1.40921 2.99074,1.175212 4.18568,-0.537803 0.575486,-0.825 1.06208,-1.125 1.081313,-0.666667 0.01927,0.458334 -0.591033,1.459331 -1.35614,2.224439 -1.064127,1.064131 -1.808447,1.272779 -3.166667,0.887689 -2.10498,-0.596817 -3.730133,-0.61085 -6.442226,-0.05563 -1.1,0.225193 -2.64862,0.136532 -3.441374,-0.197025 z m 5.007974,-1.283522 c 0.711586,-0.45094 0.487933,-1.139037 -1.06864,-3.287822 -2.142687,-2.957899 -3.49796,-2.746663 -3.49796,0.545202 0,2.829756 2.273986,4.195473 4.5666,2.74262 z m 0.100066,-12.82425 c 0,-1.220668 -0.347353,-1.91837 -0.955073,-1.91837 -1.192153,0 -1.94374,2.21833 -1.36712,4.0351 0.62088,1.956212 2.322193,0.405427 2.322193,-2.11673 z m -26,13.414963 c 0,-0.366667 0.75,-0.666667 1.666667,-0.666667 2.335342,0 2.050845,-1.474756 -0.514428,-2.666666 -4.05912,-1.885999 -2.982265,-6.524163 1.952265,-8.408677 C 57.213071,21.864784 58.421655,20 56.333333,20 c -0.55,0 -1,-0.3 -1,-0.666667 0,-0.370371 1.777778,-0.666667 4,-0.666667 2.222222,0 4,0.296296 4,0.666667 0,0.366667 -0.75,0.666667 -1.666666,0.666667 -1.94104,0 -2.310317,1.813584 -0.5,2.455589 2.026716,0.718749 3.5,2.365078 3.5,3.911096 0,1.865648 -2.524992,4.354421 -5.399826,5.322369 -2.529943,0.851824 -3.364898,2.310945 -1.322396,2.310945 0.763888,0 1.388888,0.3 1.388888,0.666667 0,0.370371 -1.777778,0.666667 -4,0.666667 -2.222222,0 -4,-0.296296 -4,-0.666667 z M 55.9533,27.614941 c 0.457677,-2.045115 0.681109,-3.869421 0.496517,-4.054013 -0.708521,-0.708521 -2.971288,1.145731 -3.779644,3.097274 -0.735352,1.775296 -0.69019,2.214691 0.345224,3.358811 0.65519,0.723976 1.397018,1.31632 1.648508,1.31632 0.25149,0 0.831718,-1.673276 1.289395,-3.718392 z m 5.138074,1.339166 c 1.28067,-1.954548 0.952465,-5.204548 -0.554431,-5.490175 -0.838158,-0.15887 -1.321556,0.527886 -1.873014,2.660966 -0.408809,1.581305 -0.887759,3.375239 -1.064332,3.986517 -0.479906,1.661388 2.23434,0.761784 3.491777,-1.157308 z M 93,34.666666 c 0.226613,-0.366667 0.99432,-0.666667 1.706013,-0.666667 1.764927,0 1.626014,-1.213602 -0.31356,-2.73927 -1.320466,-1.038677 -1.647873,-1.98309 -1.833333,-5.288312 -0.207913,-3.705319 -0.120247,-4.008589 1.107547,-3.83145 1.184706,0.170923 1.308173,0.611211 1.10762,3.949863 -0.141234,2.351199 0.06247,3.93562 0.54436,4.233424 0.423533,0.261759 0.92306,0.322927 1.11006,0.135927 0.25824,-0.258239 2.833313,-9.419921 2.8932,-10.293515 C 99.328193,20.075 98.733333,20 98,20 c -0.733333,0 -1.333333,-0.3 -1.333333,-0.666667 0,-0.370371 1.77778,-0.666667 4.000003,-0.666667 3.84779,0 5.59288,1.014189 2.50122,1.453633 -1.2086,0.171789 -1.71455,0.987456 -2.61332,4.213034 -0.612997,2.2 -1.138543,4.591666 -1.16789,5.314814 -0.05107,1.258632 0.0093,1.252129 1.41367,-0.152198 0.80686,-0.806858 1.93866,-2.748525 2.51512,-4.314816 0.87348,-2.373295 1.37884,-2.884331 3.03299,-3.067041 l 1.98487,-0.219242 -1.44057,1.356514 c -0.79231,0.746083 -1.63937,2.261632 -1.88235,3.367887 -0.45124,2.054519 -3.74213,5.380748 -5.32357,5.380748 -0.482633,0 -1.0502,0.45 -1.26126,1 -0.261013,0.680193 0.036,1 0.928673,1 0.721827,0 1.312417,0.3 1.312417,0.666667 0,0.371092 -1.790897,0.666667 -4.03935,0.666667 -2.523133,0 -3.884687,-0.250241 -3.62732,-0.666667 z"
       id="path266" />
  </g>
</svg>
