<?xml version="1.0" encoding="UTF-8" standalone="no"?>
<svg
   xmlns:dc="http://purl.org/dc/elements/1.1/"
   xmlns:cc="http://creativecommons.org/ns#"
   xmlns:rdf="http://www.w3.org/1999/02/22-rdf-syntax-ns#"
   xmlns:svg="http://www.w3.org/2000/svg"
   xmlns="http://www.w3.org/2000/svg"
   xmlns:sodipodi="http://sodipodi.sourceforge.net/DTD/sodipodi-0.dtd"
   xmlns:inkscape="http://www.inkscape.org/namespaces/inkscape"
   version="1.1"
   id="svg874"
   width="64.339149"
   height="82.501434"
   viewBox="0 0 64.339149 82.501433"
   sodipodi:docname="resRuleConjAlt.svg"
   inkscape:version="1.0.1 (c497b03c, 2020-09-10)">
  <metadata
     id="metadata880">
    <rdf:RDF>
      <cc:Work
         rdf:about="">
        <dc:format>image/svg+xml</dc:format>
        <dc:type
           rdf:resource="http://purl.org/dc/dcmitype/StillImage" />
        <dc:title></dc:title>
      </cc:Work>
    </rdf:RDF>
  </metadata>
  <defs
     id="defs878" />
  <sodipodi:namedview
     pagecolor="#ffffff"
     bordercolor="#666666"
     borderopacity="1"
     objecttolerance="10"
     gridtolerance="10"
     guidetolerance="10"
     inkscape:pageopacity="0"
     inkscape:pageshadow="2"
     inkscape:window-width="731"
     inkscape:window-height="480"
     id="namedview876"
     showgrid="false"
     inkscape:pagecheckerboard="true"
     fit-margin-top="0"
     fit-margin-left="0"
     fit-margin-right="0"
     fit-margin-bottom="0"
     inkscape:zoom="2.6672222"
     inkscape:cx="97.745412"
     inkscape:cy="36.29957"
     inkscape:window-x="0"
     inkscape:window-y="25"
     inkscape:window-maximized="0"
     inkscape:current-layer="g882" />
  <g
     inkscape:groupmode="layer"
     inkscape:label="Image"
     id="g882"
     transform="translate(5.4073261,-52.495443)">
    <path
       style="fill:#1e1e1e;stroke-width:0.666667"
       d="m -4.0681815,134.33022 c 0,-0.36667 0.75,-0.66667 1.666666,-0.66667 2.33534002,0 2.05084702,-1.47476 -0.514426,-2.66667 -4.059122,-1.886 -2.982267,-6.52416 1.95226002,-8.40868 2.77523998,-1.05986 3.98381998,-2.92465 1.8955,-2.92465 -0.55,0 -1,-0.3 -1,-0.66667 0,-0.37037 1.77777998,-0.66666 3.99999998,-0.66666 2.22222,0 4.000001,0.29629 4.000001,0.66666 0,0.36667 -0.750001,0.66667 -1.666668,0.66667 -1.94104,0 -2.31032,1.81359 -0.5,2.45559 2.026713,0.71875 3.500001,2.36508 3.500001,3.9111 0,1.86564 -2.524994,4.35442 -5.399828,5.32236 -2.52994,0.85183 -3.36489998,2.31095 -1.322393,2.31095 0.763887,0 1.388887,0.3 1.388887,0.66667 0,0.37037 -1.77778,0.66666 -3.99999998,0.66666 -2.22222002,0 -4.00000002,-0.29629 -4.00000002,-0.66666 z m 4.61996602,-7.05173 c 0.45767398,-2.04511 0.68110698,-3.86942 0.49651998,-4.05401 -0.70852598,-0.70852 -2.971293,1.14573 -3.779646,3.09727 -0.735354,1.7753 -0.690194,2.21469 0.345226,3.35881 0.655187,0.72398 1.39701402,1.31632 1.64850702,1.31632 0.251487,0 0.831713,-1.67327 1.289393,-3.71839 z m 5.13807398,1.33917 c 1.280673,-1.95455 0.952466,-5.20455 -0.554434,-5.49018 -0.838153,-0.15887 -1.321553,0.52789 -1.873013,2.66097 -0.408807,1.58131 -0.887753,3.37524 -1.064327,3.98651 -0.479906,1.6614 2.23434,0.76179 3.491774,-1.1573 z m 38.5752935,5.71256 c 0.22661,-0.36667 0.99432,-0.66667 1.70601,-0.66667 1.76493,0 1.62602,-1.2136 -0.31356,-2.73927 -1.31804,-1.03677 -1.64821,-1.98475 -1.83333,-5.26383 -0.19482,-3.45081 -0.0658,-3.99916 0.94088,-3.99811 1.30565,0.001 1.39827,0.36978 1.19687,4.7607 -0.0808,1.7613 0.18828,3.29685 0.62499,3.56675 1.15576,0.7143 1.52149,0.0163 2.05623,-3.92422 0.26846,-1.97829 0.68843,-4.22804 0.93327,-4.99945 0.32323,-1.01843 0.15897,-1.40257 -0.59977,-1.40257 -0.57471,0 -1.04492,-0.3 -1.04492,-0.66667 0,-0.36666 1.65,-0.66666 3.66666,-0.66666 3.59026,0 5.1302,1.03257 2.1679,1.45363 -1.2086,0.17179 -1.71456,0.98745 -2.61332,4.21303 -0.613,2.2 -1.13855,4.59167 -1.1679,5.31482 -0.0511,1.25863 0.009,1.25212 1.41367,-0.1522 0.80686,-0.80686 1.93867,-2.74852 2.51513,-4.31482 0.87347,-2.37329 1.37883,-2.88433 3.03298,-3.06704 l 1.98488,-0.21924 -1.44058,1.35652 c -0.79231,0.74608 -1.63937,2.26162 -1.88234,3.36788 -0.45125,2.05452 -3.74214,5.38075 -5.32358,5.38075 -0.48263,0 -1.0502,0.45 -1.26126,1 -0.26101,0.68019 0.036,1 0.92868,1 0.72182,0 1.31241,0.3 1.31241,0.66667 0,0.36666 -1.66771,0.66666 -3.70601,0.66666 -2.30091,0 -3.5498,-0.25276 -3.29399,-0.66666 z M 14.093793,94.025904 c 6.694246,-8.967367 12.37834,-16.317369 12.63132,-16.333333 0.486947,-0.03073 17.079789,21.546707 21.741499,28.272789 1.51276,2.18266 2.57611,4.13266 2.36299,4.33333 -0.21312,0.20067 -0.72731,-0.18874 -1.14264,-0.86535 -0.88055,-1.4345 -21.58141,-29.18619 -22.34454,-29.955216 -0.283129,-0.285314 -5.858337,6.539687 -12.38935,15.166667 -6.5310135,8.626979 -12.1346875,15.685419 -12.4526075,15.685419 -0.31792,0 4.899081,-7.33694 11.5933285,-16.304306 z m 5.396653,-24.336218 c -2.785686,-1.172098 -2.648141,-4.230168 0.310694,-6.90788 1.03776,-0.93916 1.250739,-1.7624 0.979373,-3.785606 -0.469287,-3.498796 0.2088,-5.821925 1.851513,-6.343302 3.087887,-0.980057 4.36142,2.81453 1.96646,5.859226 -1.69472,2.15449 -1.681833,2.329041 0.397934,5.38969 l 1.73126,2.547784 1.602072,-2.357658 c 1.70757,-2.512914 2.0181,-3.76173 0.9354,-3.76173 -0.36667,0 -0.66667,-0.3 -0.66667,-0.666666 0,-0.366667 1.2,-0.666667 2.66667,-0.666667 2.73116,0 3.62972,0.925981 1.45134,1.495639 -0.66843,0.174798 -2.04104,1.726798 -3.05025,3.44889 -1.46593,2.501411 -1.67434,3.324576 -1.03638,4.093274 1.16954,1.40921 2.99074,1.175212 4.18568,-0.537803 0.57548,-0.825 1.06208,-1.125 1.08131,-0.666667 0.0193,0.458334 -0.59103,1.459331 -1.35614,2.224439 -1.06413,1.064131 -1.80845,1.272779 -3.16667,0.887689 -2.10498,-0.596817 -3.730129,-0.61085 -6.442222,-0.05563 -1.1,0.225193 -2.64862,0.136532 -3.441374,-0.197026 z m 5.007974,-1.283522 c 0.711586,-0.45094 0.487933,-1.139037 -1.06864,-3.287822 -2.142688,-2.957899 -3.49796,-2.746663 -3.49796,0.545202 0,2.829756 2.273986,4.195473 4.5666,2.74262 z m 0.100066,-12.82425 c 0,-1.220669 -0.347353,-1.918371 -0.955073,-1.918371 -1.192153,0 -1.94374,2.218331 -1.36712,4.035101 0.62088,1.956212 2.322193,0.405427 2.322193,-2.11673 z M -0.73484848,68.996877 c 0,-0.366667 0.75,-0.666667 1.666667,-0.666667 2.33533998,0 2.05084598,-1.474756 -0.514427,-2.666666 -4.05912002,-1.885999 -2.98226702,-6.524163 1.95225998,-8.408677 2.77524,-1.059872 3.98382,-2.924657 1.8955,-2.924657 -0.55,0 -1,-0.3 -1,-0.666667 0,-0.37037 1.777781,-0.666666 4,-0.666666 2.22222,0 4.0000005,0.296296 4.0000005,0.666666 0,0.366667 -0.75,0.666667 -1.6666675,0.666667 -1.94104,0 -2.310319,1.813584 -0.5,2.45559 2.0267145,0.718748 3.5000005,2.365078 3.5000005,3.911096 0,1.865648 -2.524993,4.354421 -5.3998255,5.322369 -2.529941,0.851824 -3.364901,2.310945 -1.322395,2.310945 0.763888,0 1.388887,0.3 1.388887,0.666667 0,0.370371 -1.777779,0.666667 -4,0.666667 -2.22222,0 -3.99999998,-0.296296 -3.99999998,-0.666667 z M 3.8851185,61.945152 c 0.457673,-2.045115 0.681106,-3.869421 0.49652,-4.054013 -0.708527,-0.708521 -2.971294,1.145731 -3.77964698,3.097274 -0.735353,1.775296 -0.690193,2.214691 0.345227,3.358811 0.65518598,0.723976 1.39701298,1.31632 1.64850598,1.31632 0.251487,0 0.831715,-1.673276 1.289394,-3.718392 z m 5.138073,1.339166 c 1.2806745,-1.954548 0.952467,-5.204548 -0.554433,-5.490176 -0.838153,-0.15887 -1.321553,0.527887 -1.873014,2.660967 -0.408806,1.581305 -0.887753,3.375239 -1.064326,3.986517 -0.479907,1.661388 2.234341,0.761784 3.491773,-1.157308 z m 31.9086305,5.712559 c 0.22661,-0.366667 0.99432,-0.666667 1.70601,-0.666667 1.76493,0 1.62601,-1.213602 -0.31356,-2.73927 -1.31804,-1.03677 -1.64821,-1.98475 -1.83333,-5.263828 -0.19482,-3.450808 -0.0658,-3.999164 0.94088,-3.998116 1.30564,0.0013 1.39826,0.369788 1.19686,4.760698 -0.12656,2.75939 0.76596,4.666583 1.73184,3.700698 0.25824,-0.258239 2.83332,-9.419922 2.8932,-10.293515 0.006,-0.09167 -0.58857,-0.166667 -1.3219,-0.166667 -0.73334,0 -1.33334,-0.3 -1.33334,-0.666667 0,-0.366666 1.65,-0.666666 3.66667,-0.666666 3.59089,0 5.13021,1.032742 2.16667,1.453632 -1.18671,0.16854 -1.5829,0.770003 -1.89692,2.879701 -0.2183,1.466667 -0.60486,3.866667 -0.85902,5.333334 l -0.4621,2.666666 1.19235,-1.613408 c 0.65579,-0.887374 1.64916,-2.837374 2.20748,-4.333333 0.84285,-2.258325 1.35198,-2.750772 3,-2.901686 1.79916,-0.164754 1.87544,-0.0953 0.81525,0.742321 -0.64328,0.508244 -1.5091,1.940036 -1.92404,3.18176 -0.83372,2.494964 -3.70472,5.924346 -4.95974,5.924346 -0.44217,0 -0.97662,0.45 -1.18768,1 -0.26102,0.680193 0.036,1 0.92867,1 0.72183,0 1.31241,0.3 1.31241,0.666667 0,0.371092 -1.79089,0.666667 -4.03934,0.666667 -2.52314,0 -3.88469,-0.250241 -3.62732,-0.666667 z"
       id="path886" />
  </g>
</svg>
