<?xml version="1.0" encoding="UTF-8" standalone="no"?>
<svg
   xmlns:dc="http://purl.org/dc/elements/1.1/"
   xmlns:cc="http://creativecommons.org/ns#"
   xmlns:rdf="http://www.w3.org/1999/02/22-rdf-syntax-ns#"
   xmlns:svg="http://www.w3.org/2000/svg"
   xmlns="http://www.w3.org/2000/svg"
   xmlns:sodipodi="http://sodipodi.sourceforge.net/DTD/sodipodi-0.dtd"
   xmlns:inkscape="http://www.inkscape.org/namespaces/inkscape"
   version="1.1"
   id="svg140"
   width="304.1449"
   height="191.99306"
   viewBox="0 0 304.1449 191.99306"
   sodipodi:docname="treeExampleDisAlt.svg"
   inkscape:version="1.0.1 (c497b03c, 2020-09-10)">
  <metadata
     id="metadata146">
    <rdf:RDF>
      <cc:Work
         rdf:about="">
        <dc:format>image/svg+xml</dc:format>
        <dc:type
           rdf:resource="http://purl.org/dc/dcmitype/StillImage" />
        <dc:title></dc:title>
      </cc:Work>
    </rdf:RDF>
  </metadata>
  <defs
     id="defs144" />
  <sodipodi:namedview
     pagecolor="#ffffff"
     bordercolor="#666666"
     borderopacity="1"
     objecttolerance="10"
     gridtolerance="10"
     guidetolerance="10"
     inkscape:pageopacity="0"
     inkscape:pageshadow="2"
     inkscape:window-width="950"
     inkscape:window-height="811"
     id="namedview142"
     showgrid="false"
     inkscape:pagecheckerboard="true"
     fit-margin-top="0"
     fit-margin-left="0"
     fit-margin-right="0"
     fit-margin-bottom="0"
     inkscape:zoom="1.7791678"
     inkscape:cx="139.16142"
     inkscape:cy="73.282459"
     inkscape:window-x="0"
     inkscape:window-y="25"
     inkscape:window-maximized="0"
     inkscape:current-layer="g148" />
  <g
     inkscape:groupmode="layer"
     inkscape:label="Image"
     id="g148"
     transform="translate(-33.328246,-21.448824)">
    <path
       style="fill:#1c1c1c;stroke-width:0.666667"
       d="m 156.01611,213.22199 c -0.0117,-0.29911 0.27331,-1.09412 0.63326,-1.76669 0.49752,-0.92962 0.39085,-1.32402 -0.44481,-1.6447 -0.78719,-0.30207 -0.89485,-0.62625 -0.37921,-1.14188 0.92774,-0.92775 2.16956,-0.1594 2.16956,1.34236 0,1.14094 -1.93696,4.28397 -1.9788,3.21091 z m 9.20175,-3.38633 c -1.67582,-0.83548 -2.07822,-2.45142 -0.72295,-2.90318 0.48889,-0.16296 0.83334,0.2963 0.83334,1.11112 0,1.83474 3.06203,1.96058 3.63686,0.14947 0.58796,-1.85253 -0.26506,-3.42725 -1.85653,-3.42725 -1.40547,0 -1.40522,-0.003 0.0713,-1.0378 1.49986,-1.05054 1.9875,-3.23756 0.87516,-3.92502 -1.01844,-0.62943 -2.66556,0.34676 -2.28007,1.35132 0.22018,0.57378 -0.0582,0.94483 -0.70876,0.94483 -1.67238,0 -1.25729,-1.94385 0.59534,-2.78797 3.21288,-1.46388 6.54944,1.63853 4.24286,3.94511 -0.56508,0.56508 -0.48053,1.03377 0.33333,1.84762 1.30596,1.30596 1.37894,2.3796 0.25714,3.78271 -1.16478,1.45689 -3.43829,1.86576 -5.27705,0.94904 z m -17.72295,-0.19606 c 0.95846,-0.25047 1.16667,-1.0695 1.16667,-4.58933 0,-3.62699 -0.17903,-4.28808 -1.16667,-4.30808 -0.88611,-0.0179 -0.76788,-0.24435 0.49164,-0.94151 0.91206,-0.50484 1.88706,-0.7765 2.16666,-0.6037 0.2796,0.17281 0.50837,2.52449 0.50837,5.22596 0,4.1173 0.18871,4.96109 1.16667,5.21666 0.64166,0.16768 -0.33334,0.30488 -2.16667,0.30488 -1.83333,0 -2.80833,-0.1372 -2.16667,-0.30488 z m 5.16667,-21.34568 c 0,-0.25954 1.11089,-1.60954 2.46863,-3 l 2.46864,-2.5281 -2.59199,-2.65443 c -3.38165,-3.46313 -2.46283,-4.38194 1.00029,-1.00029 l 2.65443,2.59198 2.66667,-2.60393 c 3.16234,-3.08794 3.65189,-1.74663 0.53588,1.46826 l -2.13077,2.19841 2.13077,2.1984 c 3.11601,3.2149 2.62646,4.5562 -0.53588,1.46826 l -2.66667,-2.60393 -2.52811,2.46863 c -2.44671,2.38915 -3.47189,2.97875 -3.47189,1.99674 z m 5.77778,-23.97255 c -0.24445,-0.24444 -0.44445,-1.1061 -0.44445,-1.91479 0,-1.19787 -0.49012,-1.54873 -2.64477,-1.89327 -3.62683,-0.57995 -5.35523,-2.59379 -5.35523,-6.23964 0,-5.63295 3.93081,-10.17142 9.25243,-10.68276 2.90089,-0.27874 3.52907,-0.1042 5.03117,1.39789 2.53002,2.53002 2.42328,7.26781 -0.24677,10.95371 -1.07974,1.49054 -2.5968,2.91119 -3.37125,3.15699 -0.80349,0.25502 -1.32023,0.89965 -1.20349,1.50136 0.32359,1.66787 1.63224,1.69908 3.14527,0.075 1.90203,-2.0416 1.9112,-0.0825 0.0109,2.33334 -1.31626,1.67336 -3.21554,2.27044 -4.17384,1.31213 z m -0.44445,-5.93777 c 0,-0.62082 -0.45358,-0.96092 -1.11142,-0.83333 -1.67251,0.32437 -1.90216,1.88221 -0.27746,1.88221 0.81888,0 1.38888,-0.43046 1.38888,-1.04888 z m -1.35498,-2.28445 c 0.3262,0 1.10324,0.51017 1.72678,1.1337 1.06715,1.06715 1.22513,1.0274 2.69145,-0.6773 1.83538,-2.13376 3.19615,-6.66548 2.65222,-8.83264 -0.48887,-1.94784 -2.15401,-3.62448 -3.59642,-3.62127 -4.66496,0.0104 -9.74122,9.05411 -7.46714,13.30326 l 0.79668,1.48862 1.30168,-1.39718 c 0.71592,-0.76846 1.56856,-1.39719 1.89475,-1.39719 z m -119.311684,3.33333 c 0,-0.36666 0.45,-0.66666 1,-0.66666 0.55555,0 1,-0.5926 1,-1.33334 0,-1.1358 -0.44445,-1.33333 -3,-1.33333 -1.65,0 -3,-0.30249 -3,-0.67219 0,-0.92067 6.87722,-11.2941 7.5,-11.3128 0.275,-0.008 0.5,2.39466 0.5,5.3398 0,4.89054 0.12579,5.40136 1.45084,5.89152 l 1.45084,0.5367 -1.45084,0.37941 c -1.60515,0.41975 -2.01317,2.50423 -0.49019,2.50423 0.52836,0 1.14607,0.3 1.37268,0.66666 0.25394,0.41089 -0.88197,0.66667 -2.96066,0.66667 -1.85497,0 -3.37267,-0.3 -3.37267,-0.66667 z m 2,-7.66666 c 0,-2.01667 -0.10516,-3.66667 -0.23369,-3.66667 -0.27133,0 -4.43298,6.61314 -4.43298,7.0443 0,0.15897 1.05,0.28903 2.33333,0.28903 h 2.33334 z m 7.79166,7.90278 c -0.94367,-0.94368 -0.40969,-2.23612 0.92388,-2.23612 0.93198,0 1.31201,0.36204 1.16667,1.11142 -0.23796,1.22699 -1.376,1.83924 -2.09055,1.1247 z m -11.48863,-28.53915 c -1.89258,-1.89257 -2.06544,-2.90749 -0.59156,-3.47308 1.50468,-0.5774 2.71054,0.79767 1.73272,1.97587 -0.93547,1.12716 -0.36209,1.80024 1.53358,1.80024 1.99155,0 3.02223,-1.25044 3.02223,-3.66666 0,-2.38846 -1.0216,-3.65809 -2.96667,-3.68694 -1.35771,-0.0201 -1.35793,-0.0251 -0.0333,-0.74955 2.90874,-1.59096 3.70838,-3.7599 2.01173,-5.45655 -1.54228,-1.54228 -3.54128,-0.69024 -3.15247,1.34369 0.25769,1.34803 0.0829,1.63568 -0.88029,1.44897 -1.77082,-0.34325 -1.91372,-1.63155 -0.35397,-3.19129 1.49213,-1.49213 4.04111,-1.779 6.08549,-0.68488 1.60651,0.85978 1.72224,4.11525 0.2004,5.63708 -1.0077,1.0077 -0.98278,1.16358 0.33334,2.08542 2.10928,1.47741 1.93371,5.08843 -0.33414,6.87233 -2.33017,1.83291 -4.60727,1.74515 -6.60706,-0.25465 z m 292.082184,-5.35194 c -1.73183,-3.87987 -3.01299,-7.41972 -2.84701,-7.86634 0.29909,-0.80483 5.79513,10.31125 5.79513,11.72103 0,1.50218 1.24228,-0.65336 3.69093,-6.40431 1.4146,-3.32235 2.75129,-5.61986 3.07899,-5.29216 0.55455,0.55456 -4.58785,12.91469 -5.93262,14.25945 -0.40441,0.40441 -1.78525,-1.93661 -3.78542,-6.41767 z M 47.119906,131.6686 c -0.94367,-0.94368 -0.40969,-2.23612 0.92388,-2.23612 0.93198,0 1.31201,0.36204 1.16667,1.11142 -0.23796,1.22699 -1.376,1.83924 -2.09055,1.1247 z m 110.541674,-0.23612 c 0.22661,-0.36666 0.83275,-0.66666 1.34698,-0.66666 0.52005,0 1.22431,-1.10946 1.58696,-2.5 1.63681,-6.2761 2.73273,-10.7261 2.73273,-11.09623 0,-0.22208 -0.45,-0.40378 -1,-0.40378 -0.55,0 -1,-0.3 -1,-0.66666 0,-0.90227 7.93531,-0.85226 10.5712,0.0666 5.81426,2.02686 1.59209,8.60005 -5.5241,8.60005 -2.16194,0 -2.38176,0.19578 -3.06384,2.72881 -0.64108,2.38079 -0.58059,2.84572 0.4743,3.64547 1.07086,0.81184 0.76634,0.91907 -2.66358,0.93785 -2.41686,0.0132 -3.71778,-0.22941 -3.46065,-0.64547 z m 13.29553,-9.48167 c 1.57896,-2.25428 1.33076,-4.4194 -0.56106,-4.89422 -3.4158,-0.85731 -4.60185,-0.15995 -5.45816,3.20922 l -0.80483,3.16667 h 2.89313 c 2.23392,0 3.12958,-0.3376 3.93092,-1.48167 z m 99.70447,9.52047 c 0,-0.34533 1.5,-2.34201 3.33333,-4.43706 2.48567,-2.84052 3.33334,-4.34227 3.33334,-5.90546 0,-2.4702 -1.0263,-3.69628 -3.09399,-3.69628 -1.86442,0 -2.60153,1.09364 -1.57268,2.33333 0.90601,1.09167 0.35293,2.33334 -1.03935,2.33334 -0.61883,0 -0.96065,-0.69819 -0.96065,-1.9622 0,-3.78154 5.14534,-5.40978 7.88379,-2.49484 2.37715,2.53036 1.87958,4.74881 -1.9805,8.83028 l -3.43003,3.62676 h 2.66149 c 2.10128,0 2.81377,-0.31573 3.38492,-1.5 l 0.72342,-1.5 0.0451,1.44547 c 0.0972,3.11422 -0.52542,3.55453 -5.02622,3.55453 -2.3441,0 -4.26201,-0.28254 -4.26201,-0.62787 z m 19.46667,-0.17213 c -1.98428,-1.98427 -0.12709,-4.50147 4.03333,-5.46672 1.94437,-0.45111 2.35366,-1.61295 1.03333,-2.93328 -1.3597,-1.35971 -3.20407,-0.97778 -3.02547,0.62651 0.19013,1.70784 -1.3347,2.46712 -1.91543,0.95377 -0.61778,-1.60991 0.97912,-3.04695 3.38588,-3.04695 3.07591,0 4.35502,1.72872 4.35502,5.88583 0,3.48863 0.97348,4.70441 1.55939,1.94751 0.21412,-1.0075 0.28407,-0.84333 0.21303,0.5 -0.0807,1.52661 -0.46079,2.05042 -1.60575,2.21303 -0.87975,0.12495 -1.5,-0.13694 -1.5,-0.63333 0,-0.65829 -0.17778,-0.66859 -0.8,-0.0463 -0.44,0.44 -1.73,0.8 -2.86667,0.8 -1.13666,0 -2.42666,-0.36 -2.86666,-0.8 z m 5.06666,-0.66667 c 1.28512,-1.28512 0.99803,-3.86666 -0.43,-3.86666 -1.6315,0 -3.70048,2.3509 -3.20511,3.64183 0.46854,1.22099 2.51253,1.34741 3.63511,0.22483 z m 6.13334,0.8 c 0,-0.36666 0.45,-0.66666 1,-0.66666 0.82243,0 1,-1.18751 1,-6.68759 0,-5.32954 -0.20308,-6.76552 -1,-7.07133 -1.69372,-0.64994 -1.10536,-1.67511 0.83333,-1.45203 l 1.83333,0.21094 0.1885,7.50001 c 0.10698,4.25633 0.46739,7.5 0.83334,7.5 0.35466,0 0.64483,0.3 0.64483,0.66666 0,0.36667 -1.2,0.66667 -2.66667,0.66667 -1.46666,0 -2.66666,-0.3 -2.66666,-0.66667 z m 8.65016,-1.0434 c -0.35759,-0.94053 -0.65016,-3.01553 -0.65016,-4.61111 0,-1.70978 -0.3422,-3.02932 -0.83334,-3.21343 -0.60268,-0.22593 -0.51743,-0.5642 0.30803,-1.22222 0.62775,-0.50041 1.43373,-1.65984 1.79108,-2.57651 0.63343,-1.62489 0.65077,-1.61236 0.69197,0.5 0.0362,1.85541 0.2817,2.16667 1.70892,2.16667 0.91667,0 1.66667,0.3 1.66667,0.66667 0,0.36667 -0.75,0.66667 -1.66667,0.66667 -1.51776,0 -1.66585,0.25312 -1.65756,2.83333 0.0187,5.82855 1.34962,7.45683 2.99698,3.66667 0.75702,-1.7417 0.94684,-1.88316 0.96782,-0.7212 0.0465,2.57768 -0.70328,3.55453 -2.7284,3.55453 -1.47459,0 -2.10246,-0.4137 -2.59534,-1.71007 z m 9.1415,1.27952 c -0.94368,-0.94368 -0.40968,-2.23612 0.92388,-2.23612 0.93198,0 1.31201,0.36204 1.16667,1.11142 -0.23796,1.22699 -1.376,1.83924 -2.09055,1.1247 z m -164.45833,-4.23612 v -2.66666 h -6 c -3.55555,0 -6,-0.27161 -6,-0.66667 0,-0.4 2.66667,-0.66667 6.66667,-0.66667 h 6.66666 v 3.33334 c 0,1.83333 -0.3,3.33333 -0.66666,3.33333 -0.36667,0 -0.66667,-1.2 -0.66667,-2.66667 z m 3.33333,-34.333333 c 0,-8.66667 0.2439,-13.66667 0.66667,-13.66667 0.42277,0 0.66667,5 0.66667,13.66667 0,8.666663 -0.2439,13.666663 -0.66667,13.666663 -0.42277,0 -0.66667,-5 -0.66667,-13.666663 z m 17.11112,-22.11112 c -0.24445,-0.24444 -0.44445,-1.1061 -0.44445,-1.91479 0,-1.19786 -0.49013,-1.54872 -2.64477,-1.89326 -3.62683,-0.57996 -5.35523,-2.5938 -5.35523,-6.23965 0,-5.63295 3.93081,-10.171417 9.25243,-10.682758 2.90088,-0.278738 3.52907,-0.104198 5.03116,1.397898 2.53002,2.530018 2.42329,7.2678 -0.24676,10.9537 -1.07974,1.49055 -2.5968,2.91119 -3.37125,3.15699 -0.80349,0.25502 -1.32023,0.89966 -1.20349,1.50137 0.32358,1.66786 1.63224,1.69908 3.14527,0.075 1.90203,-2.04159 1.9112,-0.0825 0.0109,2.33335 -1.31626,1.67335 -3.21553,2.27043 -4.17383,1.31212 z m -0.44445,-5.93777 c 0,-0.62082 -0.45358,-0.96091 -1.11142,-0.83333 -1.67251,0.32437 -1.90217,1.88222 -0.27747,1.88222 0.81889,0 1.38889,-0.43046 1.38889,-1.04889 z m -1.35498,-2.28445 c 0.32619,0 1.10324,0.51017 1.72677,1.1337 1.06716,1.06716 1.22514,1.0274 2.69146,-0.67729 1.83538,-2.13376 3.19614,-6.665485 2.65222,-8.832647 -0.48888,-1.947843 -2.15401,-3.62448 -3.59642,-3.621268 -4.66496,0.01039 -9.74122,9.054105 -7.46714,13.303255 l 0.79668,1.48862 1.30168,-1.39718 c 0.71592,-0.76845 1.56856,-1.39719 1.89475,-1.39719 z m -24.92647,-2.32164 c -1.73184,-3.879868 -3.01299,-7.41972 -2.84702,-7.866333 0.2991,-0.804832 5.79514,10.311253 5.79514,11.721023 0,1.50219 1.24228,-0.65335 3.69093,-6.404308 1.41459,-3.322344 2.75129,-5.619851 3.07899,-5.292155 0.55455,0.554559 -4.58786,12.914683 -5.93262,14.259453 -0.40441,0.40441 -1.78525,-1.93662 -3.78542,-6.41768 z m 47.28053,4.04689 c -0.97299,-1.66029 -1.57812,-3.32768 -1.34473,-3.70531 0.76576,-1.23903 2.11641,-0.72001 2.9633,1.13872 l 0.83168,1.82533 1.61961,-3.4077 c 1.72399,-3.62731 7.80863,-10.242954 9.42081,-10.242954 0.53128,0 -0.43088,1.357571 -2.13813,3.016824 -1.92745,1.873266 -3.86419,4.716214 -5.10934,7.5 -3.57104,7.98382 -3.76483,8.10411 -6.2432,3.87509 z m -160.999084,1.64688 c 0,-0.34533 1.5,-2.34201 3.33333,-4.43706 2.48567,-2.84051 3.33334,-4.342268 3.33334,-5.90546 0,-2.470194 -1.0263,-3.696274 -3.09399,-3.696274 -1.86442,0 -2.60154,1.09364 -1.57268,2.333334 0.906,1.091669 0.35293,2.333333 -1.03935,2.333333 -0.61883,0 -0.96065,-0.698183 -0.96065,-1.962197 0,-3.781536 5.14534,-5.409785 7.88379,-2.494836 2.37715,2.530359 1.87958,4.748808 -1.9805,8.83027 l -3.43003,3.62676 h 2.66149 c 2.10128,0 2.81377,-0.31573 3.38492,-1.5 l 0.72342,-1.5 0.0451,1.44548 c 0.0972,3.11421 -0.5254,3.55452 -5.0262,3.55452 -2.34411,0 -4.26201,-0.28254 -4.26201,-0.62787 z m 12.45833,0.19732 c -0.94367,-0.94368 -0.40969,-2.23611 0.92388,-2.23611 0.93198,0 1.31201,0.36203 1.16667,1.11142 -0.23796,1.22699 -1.376,1.83924 -2.09055,1.12469 z m 74.541674,-0.23611 c 0.22661,-0.36667 0.83275,-0.66667 1.34698,-0.66667 0.52005,0 1.22431,-1.10945 1.58696,-2.5 1.63681,-6.276102 2.73273,-10.726094 2.73273,-11.09623 0,-0.222074 -0.45,-0.40377 -1,-0.40377 -0.55,0 -1,-0.3 -1,-0.666667 0,-0.902266 7.93531,-0.852259 10.5712,0.06662 5.81426,2.026861 1.59209,8.600047 -5.5241,8.600047 -2.16194,0 -2.38176,0.19579 -3.06384,2.72881 -0.64108,2.3808 -0.58059,2.84572 0.4743,3.64547 1.07086,0.81185 0.76634,0.91907 -2.66358,0.93785 -2.41686,0.0132 -3.71778,-0.22941 -3.46065,-0.64546 z m 13.29553,-9.481674 c 1.57896,-2.254277 1.33076,-4.419401 -0.56106,-4.894215 -3.4158,-0.857313 -4.60185,-0.159957 -5.45816,3.209219 l -0.80483,3.166666 h 2.89313 c 2.23392,0 3.12958,-0.337598 3.93092,-1.48167 z m -16.9622,5.481674 v -2.66667 h -6 c -3.55555,0 -6,-0.2716 -6,-0.66667 0,-0.399997 2.66667,-0.666664 6.66667,-0.666664 h 6.66667 v 3.333334 c 0,1.83333 -0.3,3.33333 -0.66667,3.33333 -0.36667,0 -0.66667,-1.2 -0.66667,-2.66666 z M 34.661576,37.749309 c 0,-0.192408 0.75,-0.634983 1.66667,-0.983499 1.6082,-0.61144 1.66666,-0.845141 1.66666,-6.662868 V 24.07374 l -1.66666,0.418307 c -0.93869,0.235595 -1.66667,0.129492 -1.66667,-0.242914 0,-0.363671 0.675,-0.807615 1.5,-0.986541 0.825,-0.178926 2.025,-0.545996 2.66667,-0.815711 1.07051,-0.449976 1.16666,0.119842 1.16666,6.914269 0,6.960215 0.08,7.40466 1.33334,7.40466 0.73333,0 1.33333,0.3 1.33333,0.666667 0,0.37037 -1.77778,0.666666 -4,0.666666 -2.2,0 -4,-0.157425 -4,-0.349834 z m 12.45833,-0.08072 c -0.94367,-0.943679 -0.40969,-2.236113 0.92388,-2.236113 0.93198,0 1.31201,0.362034 1.16667,1.111423 -0.23796,1.226986 -1.376,1.839237 -2.09055,1.12469 z M 149.66158,37.432477 c 0.22661,-0.366667 0.83275,-0.666667 1.34698,-0.666667 0.52005,0 1.22431,-1.109453 1.58696,-2.5 1.63681,-6.276102 2.73273,-10.726094 2.73273,-11.09623 0,-0.222074 -0.45,-0.40377 -1,-0.40377 -0.55,0 -1,-0.3 -1,-0.666667 0,-0.902266 7.93531,-0.852259 10.5712,0.06662 5.81426,2.026861 1.59209,8.600047 -5.5241,8.600047 -2.16194,0 -2.38176,0.195788 -3.06384,2.728812 -0.64108,2.380792 -0.58059,2.845718 0.4743,3.645464 1.07086,0.811851 0.76634,0.919077 -2.66358,0.937855 -2.41686,0.01323 -3.71778,-0.22941 -3.46065,-0.645464 z m 13.29553,-9.481671 c 1.57896,-2.254277 1.33076,-4.419401 -0.56106,-4.894215 -3.4158,-0.857313 -4.60185,-0.159957 -5.45816,3.209219 l -0.80483,3.166666 h 2.89313 c 2.23392,0 3.12958,-0.337598 3.93092,-1.48167 z"
       id="path152" />
  </g>
</svg>
