<?xml version="1.0" encoding="UTF-8" standalone="no"?>
<svg
   xmlns:dc="http://purl.org/dc/elements/1.1/"
   xmlns:cc="http://creativecommons.org/ns#"
   xmlns:rdf="http://www.w3.org/1999/02/22-rdf-syntax-ns#"
   xmlns:svg="http://www.w3.org/2000/svg"
   xmlns="http://www.w3.org/2000/svg"
   xmlns:sodipodi="http://sodipodi.sourceforge.net/DTD/sodipodi-0.dtd"
   xmlns:inkscape="http://www.inkscape.org/namespaces/inkscape"
   version="1.1"
   id="svg790"
   width="261.33682"
   height="191.90964"
   viewBox="0 0 261.33682 191.90964"
   sodipodi:docname="treeExampleConj.svg"
   inkscape:version="1.0.1 (c497b03c, 2020-09-10)">
  <metadata
     id="metadata796">
    <rdf:RDF>
      <cc:Work
         rdf:about="">
        <dc:format>image/svg+xml</dc:format>
        <dc:type
           rdf:resource="http://purl.org/dc/dcmitype/StillImage" />
        <dc:title></dc:title>
      </cc:Work>
    </rdf:RDF>
  </metadata>
  <defs
     id="defs794" />
  <sodipodi:namedview
     pagecolor="#ffffff"
     bordercolor="#666666"
     borderopacity="1"
     objecttolerance="10"
     gridtolerance="10"
     guidetolerance="10"
     inkscape:pageopacity="0"
     inkscape:pageshadow="2"
     inkscape:window-width="741"
     inkscape:window-height="480"
     id="namedview792"
     showgrid="false"
     inkscape:pagecheckerboard="true"
     fit-margin-top="0"
     fit-margin-left="0"
     fit-margin-right="0"
     fit-margin-bottom="0"
     inkscape:zoom="1.0949338"
     inkscape:cx="160.60466"
     inkscape:cy="91.261168"
     inkscape:window-x="0"
     inkscape:window-y="25"
     inkscape:window-maximized="0"
     inkscape:current-layer="g798" />
  <g
     inkscape:groupmode="layer"
     inkscape:label="Image"
     id="g798"
     transform="translate(-38.000001,-20.048015)">
    <path
       style="fill:#1b1b1b;stroke-width:0.666666"
       d="m 153.31979,210.69853 c 0.63459,-1.19053 0.66426,-1.70385 0.10915,-1.88889 -1.12382,-0.3746 -0.92765,-2.14298 0.23773,-2.14298 1.38964,0 1.30733,3.58322 -0.10915,4.75171 -1.01422,0.83665 -1.03456,0.77505 -0.23773,-0.71984 z M 144.5,207.97922 c 1.32315,-0.53184 1.5,-1.07707 1.5,-4.62441 0,-3.71898 -0.11283,-4.02326 -1.5,-4.04511 -1.48108,-0.0233 -1.47898,-0.0356 0.16667,-0.97637 0.91667,-0.52401 1.89167,-0.96339 2.16667,-0.97637 0.275,-0.013 0.5,2.35437 0.5,5.26082 0,4.47222 0.17932,5.33131 1.16666,5.58933 0.64167,0.16769 -0.33333,0.32067 -2.16666,0.33996 -2.62684,0.0277 -3.01542,-0.0927 -1.83334,-0.56785 z m 19,0.22789 C 165.72538,207.62556 164.81358,206 162.26201,206 c -1.78827,0 -2.31277,-0.23946 -2.04618,-0.93418 0.64031,-1.66861 5.22534,-7.73249 5.84671,-7.73249 0.33227,0 0.60413,1.775 0.60413,3.94445 0,2.53177 0.29845,4.06487 0.83333,4.2807 0.66667,0.269 0.66667,0.34678 0,0.38888 -0.45833,0.0289 -0.83333,0.47764 -0.83333,0.99708 0,0.51944 0.375,1.09576 0.83333,1.2807 0.45834,0.18494 -0.51666,0.32514 -2.16666,0.31156 -1.65,-0.0136 -2.475,-0.1619 -1.83334,-0.32959 z m 1.1427,-5.37378 -0.024,-2.5 -1.63938,2 c -2.06228,2.51593 -2.05894,3 0.0207,3 1.48575,0 1.66407,-0.27139 1.6427,-2.5 z m -15.30936,-15.97189 c 0,-0.25954 1.11088,-1.60954 2.46863,-3 l 2.46863,-2.52811 -2.59198,-2.65443 c -3.38165,-3.46312 -2.46284,-4.38194 1.00029,-1.00029 l 2.65443,2.59199 L 158,177.66666 c 3.16234,-3.08794 3.6519,-1.74663 0.53589,1.46826 l -2.13077,2.19841 2.13077,2.19841 C 161.6519,186.74663 161.16234,188.08794 158,185 l -2.66666,-2.60394 -2.52811,2.46864 c -2.44671,2.38914 -3.47189,2.97874 -3.47189,1.99674 z m 6.44444,-23.97256 c -0.24444,-0.24444 -0.44444,-1.1061 -0.44444,-1.91479 0,-1.19787 -0.49013,-1.54873 -2.64478,-1.89327 -3.62682,-0.57995 -5.35522,-2.59379 -5.35522,-6.23964 0,-5.63295 3.9308,-10.17142 9.25242,-10.68276 2.90089,-0.27874 3.52908,-0.1042 5.03117,1.3979 2.53002,2.53002 2.42329,7.2678 -0.24677,10.9537 -1.07974,1.49054 -2.5968,2.91119 -3.37124,3.15699 -0.8035,0.25502 -1.32024,0.89965 -1.2035,1.50137 0.32359,1.66786 1.63224,1.69908 3.14528,0.075 1.90202,-2.04159 1.9112,-0.0825 0.0109,2.33335 -1.31626,1.67335 -3.21553,2.27043 -4.17383,1.31212 z m -0.44444,-5.93776 c 0,-0.62083 -0.45358,-0.96092 -1.11142,-0.83334 -1.67252,0.32437 -1.90217,1.88222 -0.27747,1.88222 0.81889,0 1.38889,-0.43046 1.38889,-1.04888 z m -1.35498,-2.28446 c 0.32619,0 1.10324,0.51017 1.72677,1.1337 1.06715,1.06716 1.22513,1.0274 2.69145,-0.6773 1.83538,-2.13376 3.19615,-6.66548 2.65222,-8.83264 -0.48887,-1.94784 -2.154,-3.62448 -3.59642,-3.62126 -4.66496,0.0104 -9.74122,9.0541 -7.46714,13.30325 l 0.79668,1.48862 1.30168,-1.39718 c 0.71592,-0.76845 1.56856,-1.39719 1.89476,-1.39719 z M 42.000001,158 c 0,-0.36667 0.45,-0.66667 1,-0.66667 0.555555,0 1,-0.59259 1,-1.33333 0,-1.1358 -0.444445,-1.33334 -3,-1.33334 -1.65,0 -3,-0.30248 -3,-0.67218 0,-0.92068 6.877224,-11.2941 7.5,-11.3128 0.275,-0.008 0.5,2.39465 0.5,5.3398 0,4.89053 0.125795,5.40135 1.450841,5.89152 l 1.45084,0.5367 -1.45084,0.3794 c -1.60515,0.41976 -2.013171,2.50423 -0.490186,2.50423 0.528361,0 1.146066,0.3 1.372678,0.66667 0.253943,0.41088 -0.881966,0.66666 -2.960655,0.66666 -1.854973,0 -3.372678,-0.3 -3.372678,-0.66666 z m 2,-7.66667 c 0,-2.01667 -0.105157,-3.66667 -0.233683,-3.66667 -0.271328,0 -4.432984,6.61314 -4.432984,7.0443 0,0.15897 1.05,0.28904 2.333333,0.28904 h 2.333334 z m 7.791667,7.90278 C 50.847991,157.29243 51.38198,156 52.71555,156 c 0.931975,0 1.312004,0.36203 1.166667,1.11142 -0.237962,1.22698 -1.376001,1.83924 -2.090549,1.12469 z M 40.303031,129.69696 c -1.892572,-1.89256 -2.06544,-2.90749 -0.591552,-3.47308 1.50468,-0.5774 2.710534,0.79767 1.732718,1.97587 C 40.508728,129.32692 41.082104,130 42.977779,130 c 1.991549,0 3.022222,-1.25045 3.022222,-3.66667 0,-2.38846 -1.021595,-3.65809 -2.966667,-3.68694 -1.357707,-0.0201 -1.357925,-0.0251 -0.03333,-0.74955 2.908739,-1.59095 3.708384,-3.75989 2.011727,-5.45654 -1.542278,-1.54228 -3.541277,-0.69024 -3.152468,1.34369 0.257694,1.34803 0.08294,1.63568 -0.880291,1.44897 -1.770819,-0.34325 -1.913713,-1.63155 -0.353968,-3.19129 1.492127,-1.49213 4.041113,-1.779 6.085494,-0.68488 1.606504,0.85978 1.722237,4.11524 0.2004,5.63707 -1.007697,1.0077 -0.982781,1.16358 0.333333,2.08542 2.109285,1.47741 1.933716,5.08844 -0.334133,6.87233 -2.330171,1.83291 -4.60727,1.74515 -6.607064,-0.25465 z m 244.588939,0.99584 c -2.78569,-1.17209 -2.64814,-4.23016 0.31069,-6.90788 1.03776,-0.93916 1.25074,-1.7624 0.97937,-3.7856 -0.46928,-3.49879 0.2088,-5.82192 1.85152,-6.3433 3.08788,-0.98005 4.36142,2.81453 1.96646,5.85923 -1.69472,2.15449 -1.68184,2.32903 0.39793,5.38969 l 1.73126,2.54778 1.60207,-2.35766 c 1.70757,-2.51292 2.0181,-3.76173 0.9354,-3.76173 -0.36666,0 -0.66666,-0.3 -0.66666,-0.66667 0,-0.36666 1.2,-0.66666 2.66666,-0.66666 2.73115,0 3.62973,0.92598 1.45134,1.49564 -0.66842,0.1748 -2.04104,1.7268 -3.05025,3.44888 -1.46593,2.50142 -1.67434,3.32458 -1.03638,4.09328 1.16954,1.40921 2.99074,1.17521 4.18568,-0.5378 0.57549,-0.825 1.06208,-1.125 1.08131,-0.66667 0.0193,0.45833 -0.59103,1.45933 -1.35614,2.22444 -1.06412,1.06413 -1.80844,1.27278 -3.16666,0.88769 -2.10498,-0.59682 -3.73014,-0.61085 -6.44223,-0.0556 -1.1,0.22519 -2.64862,0.13653 -3.44137,-0.19703 z m 5.00797,-1.28352 c 0.71159,-0.45094 0.48793,-1.13903 -1.06864,-3.28782 -2.14269,-2.9579 -3.49796,-2.74666 -3.49796,0.5452 0,2.82976 2.27399,4.19548 4.5666,2.74262 z m 0.10007,-12.82424 c 0,-1.22067 -0.34736,-1.91837 -0.95508,-1.91837 -1.19215,0 -1.94374,2.21832 -1.36712,4.0351 0.62088,1.95621 2.3222,0.40542 2.3222,-2.11673 z M 51.791668,130.23611 C 50.847991,129.29243 51.38198,128 52.71555,128 c 0.931975,0 1.312004,0.36203 1.166667,1.11142 -0.237962,1.22698 -1.376001,1.83924 -2.090549,1.12469 z M 147,130 c 0.22662,-0.36667 0.83276,-0.66667 1.34698,-0.66667 0.52005,0 1.22431,-1.10945 1.58696,-2.5 1.63681,-6.2761 2.73273,-10.72609 2.73273,-11.09622 0,-0.22208 -0.45,-0.40378 -1,-0.40378 -0.55,0 -1,-0.3 -1,-0.66666 0,-0.90227 7.93531,-0.85226 10.5712,0.0666 5.81427,2.02686 1.59209,8.60004 -5.52409,8.60004 -2.16194,0 -2.38177,0.19579 -3.06384,2.72881 -0.64108,2.3808 -0.5806,2.84572 0.4743,3.64547 1.07086,0.81185 0.76633,0.91907 -2.66358,0.93785 -2.41686,0.0132 -3.71779,-0.22941 -3.46066,-0.64546 z m 13.29554,-9.48167 c 1.57895,-2.25428 1.33075,-4.4194 -0.56106,-4.89422 -3.41581,-0.85731 -4.60186,-0.15995 -5.45816,3.20922 L 153.47148,122 h 2.89313 c 2.23393,0 3.12959,-0.3376 3.93093,-1.48167 z m 99.0378,9.52046 c 0,-0.34533 1.5,-2.34201 3.33333,-4.43706 2.48567,-2.84051 3.33334,-4.34227 3.33334,-5.90546 0,-2.47019 -1.0263,-3.69627 -3.09399,-3.69627 -1.86442,0 -2.60153,1.09364 -1.57268,2.33333 0.90601,1.09167 0.35293,2.33333 -1.03935,2.33333 -0.61883,0 -0.96065,-0.69818 -0.96065,-1.96219 0,-3.78154 5.14534,-5.40978 7.88379,-2.49484 2.37715,2.53036 1.87958,4.74881 -1.9805,8.83027 l -3.43003,3.62676 h 2.66149 c 2.10128,0 2.81377,-0.31573 3.38492,-1.5 l 0.72342,-1.5 0.0451,1.44548 c 0.0972,3.11421 -0.52542,3.55452 -5.02622,3.55452 -2.3441,0 -4.26201,-0.28254 -4.26201,-0.62787 z M 154.66667,91.666665 c 0,-8.666666 0.2439,-13.666666 0.66667,-13.666666 0.42276,0 0.66666,5 0.66666,13.666666 0,8.666665 -0.2439,13.666665 -0.66666,13.666665 -0.42277,0 -0.66667,-5 -0.66667,-13.666665 z m 9.11111,-22.111113 c -0.24444,-0.24444 -0.44444,-1.1061 -0.44444,-1.914793 0,-1.197865 -0.49013,-1.548723 -2.64478,-1.893265 -3.62682,-0.579954 -5.35522,-2.593796 -5.35522,-6.239642 0,-5.632953 3.9308,-10.171419 9.25242,-10.68276 2.90089,-0.278738 3.52908,-0.104198 5.03117,1.397897 2.53002,2.530019 2.42329,7.267804 -0.24677,10.953703 -1.07974,1.490543 -2.5968,2.911186 -3.37124,3.156984 -0.8035,0.25502 -1.32024,0.899658 -1.2035,1.50137 0.32359,1.667866 1.63224,1.69908 3.14528,0.07503 1.90202,-2.041589 1.9112,-0.08246 0.0109,2.333349 -1.31626,1.673353 -3.21553,2.270433 -4.17383,1.312126 z m -0.44444,-5.937769 c 0,-0.620826 -0.45358,-0.960915 -1.11142,-0.833333 -1.67252,0.324367 -1.90217,1.882216 -0.27747,1.882216 0.81889,0 1.38889,-0.43046 1.38889,-1.048883 z m -1.35498,-2.284451 c 0.32619,0 1.10324,0.510165 1.72677,1.1337 1.06715,1.067154 1.22513,1.027398 2.69145,-0.677298 1.83538,-2.133759 3.19615,-6.665479 2.65222,-8.832641 -0.48887,-1.947844 -2.154,-3.62448 -3.59642,-3.621268 -4.66496,0.01039 -9.74122,9.054108 -7.46714,13.303257 l 0.79668,1.48862 1.30168,-1.397185 c 0.71592,-0.768451 1.56856,-1.397185 1.89476,-1.397185 z m -27.0864,4.026142 c -2.78568,-1.172097 -2.64814,-4.230168 0.3107,-6.907879 1.03776,-0.93916 1.25074,-1.7624 0.97937,-3.785606 -0.46929,-3.498796 0.2088,-5.821924 1.85151,-6.343302 3.08789,-0.980057 4.36142,2.81453 1.96646,5.859226 -1.69472,2.15449 -1.68183,2.329041 0.39794,5.38969 l 1.73126,2.547783 1.60207,-2.357657 c 1.70757,-2.512914 2.0181,-3.76173 0.9354,-3.76173 -0.36667,0 -0.66667,-0.3 -0.66667,-0.666666 0,-0.366667 1.2,-0.666667 2.66667,-0.666667 2.73116,0 3.62972,0.925981 1.45134,1.495639 -0.66843,0.174798 -2.04104,1.726798 -3.05025,3.44889 -1.46593,2.501411 -1.67434,3.324576 -1.03638,4.093273 1.16954,1.409211 2.99074,1.175212 4.18568,-0.537802 0.57548,-0.825 1.06208,-1.125 1.08131,-0.666667 0.0193,0.458333 -0.59103,1.459331 -1.35614,2.224439 -1.06413,1.06413 -1.80845,1.272778 -3.16667,0.887688 -2.10498,-0.596816 -3.73013,-0.610849 -6.44222,-0.05563 -1.1,0.225193 -2.64862,0.136532 -3.44138,-0.197026 z m 5.00798,-1.283521 c 0.71158,-0.450941 0.48793,-1.139037 -1.06864,-3.287823 -2.14269,-2.957898 -3.49796,-2.746662 -3.49796,0.545202 0,2.829757 2.27398,4.195474 4.5666,2.742621 z M 140,51.251703 c 0,-1.220668 -0.34735,-1.91837 -0.95507,-1.91837 -1.19215,0 -1.94374,2.21833 -1.36712,4.0351 C 138.29869,55.324645 140,53.77386 140,51.251703 Z m 44.33242,11.806871 c -0.973,-1.660288 -1.57812,-3.327675 -1.34474,-3.705306 0.76576,-1.239027 2.11642,-0.720005 2.96331,1.138724 l 0.83167,1.825325 1.61962,-3.407694 c 1.72398,-3.627314 7.80863,-10.242957 9.42081,-10.242957 0.53127,0 -0.43089,1.357571 -2.13813,3.016823 -1.92746,1.873267 -3.8642,4.716215 -5.10934,7.5 -3.57104,7.983823 -3.76483,8.10411 -6.2432,3.875085 z M 39.333334,64.70546 c 0,-0.34533 1.5,-2.342007 3.333333,-4.437059 2.485669,-2.840513 3.333334,-4.342269 3.333334,-5.905461 0,-2.470195 -1.026297,-3.696274 -3.093989,-3.696274 -1.864415,0 -2.601533,1.093639 -1.572678,2.333333 0.906005,1.09167 0.352927,2.333334 -1.039345,2.333334 -0.618837,0 -0.960655,-0.698184 -0.960655,-1.962198 0,-3.781536 5.145338,-5.409784 7.883791,-2.494835 2.377148,2.530359 1.879584,4.748808 -1.980495,8.830273 l -3.430039,3.626759 h 2.661495 c 2.101278,0 2.813769,-0.315734 3.384918,-1.5 l 0.723423,-1.5 0.04512,1.445476 c 0.09721,3.114214 -0.525403,3.554524 -5.026205,3.554524 -2.344105,0 -4.262008,-0.282542 -4.262008,-0.627872 z m 12.458334,0.197317 C 50.847991,63.9591 51.38198,62.666666 52.71555,62.666666 c 0.931975,0 1.312004,0.362033 1.166667,1.111422 -0.237962,1.226986 -1.376001,1.839237 -2.090549,1.124689 z m 58.541672,-0.236111 c 0.22661,-0.366667 0.83275,-0.666667 1.34698,-0.666667 0.52004,0 1.2243,-1.109453 1.58696,-2.5 C 114.90408,55.223897 116,50.773905 116,50.403769 c 0,-0.222073 -0.45,-0.40377 -1,-0.40377 -0.55,0 -1,-0.3 -1,-0.666666 0,-0.902266 7.93532,-0.85226 10.5712,0.06662 5.81427,2.026861 1.5921,8.600046 -5.52409,8.600046 -2.16194,0 -2.38177,0.195788 -3.06384,2.728813 -0.64108,2.380792 -0.58059,2.845718 0.4743,3.645464 1.07086,0.81185 0.76633,0.919076 -2.66358,0.937854 -2.41686,0.01323 -3.71779,-0.22941 -3.46065,-0.645464 z m 13.29553,-9.481671 c 1.57895,-2.254276 1.33075,-4.4194 -0.56106,-4.894214 -3.41581,-0.857314 -4.60185,-0.159957 -5.45816,3.209218 l -0.80483,3.166667 h 2.89312 c 2.23393,0 3.12959,-0.337598 3.93093,-1.481671 z m 39.48225,-14.296107 c -0.24445,-0.244444 -0.44445,-1.106102 -0.44445,-1.914794 0,-1.197866 -0.49013,-1.548725 -2.64477,-1.893267 -3.62683,-0.579953 -5.35523,-2.593795 -5.35523,-6.239641 0,-5.632953 3.93081,-10.17142 9.25243,-10.68276 2.90088,-0.278738 3.52907,-0.104198 5.03116,1.397897 2.53002,2.530019 2.42329,7.267804 -0.24676,10.953703 -1.07974,1.490543 -2.5968,2.911186 -3.37125,3.156984 -0.80349,0.25502 -1.32023,0.899657 -1.20349,1.50137 0.32358,1.667864 1.63224,1.699082 3.14527,0.07503 1.90203,-2.041589 1.9112,-0.08246 0.0109,2.333349 -1.31626,1.673355 -3.21553,2.270429 -4.17383,1.312128 z m -0.44445,-5.937771 c 0,-0.620826 -0.45358,-0.960915 -1.11142,-0.833333 C 159.88274,34.442151 159.65308,36 161.27778,36 c 0.81889,0 1.38889,-0.43046 1.38889,-1.048883 z m -1.35498,-2.284451 c 0.32619,0 1.10324,0.510165 1.72677,1.1337 1.06716,1.067154 1.22514,1.027398 2.69146,-0.677298 1.83538,-2.133759 3.19614,-6.66548 2.65222,-8.832642 -0.48888,-1.947843 -2.15401,-3.62448 -3.59642,-3.621268 -4.66496,0.01039 -9.74122,9.054109 -7.46714,13.303258 l 0.79668,1.48862 1.30168,-1.397185 c 0.71592,-0.768451 1.56856,-1.397185 1.89475,-1.397185 z M 39.333334,36.316832 c 0,-0.192408 0.75,-0.634983 1.666667,-0.983499 1.608208,-0.611439 1.666666,-0.845141 1.666666,-6.662867 v -6.029202 l -1.666666,0.418306 c -0.938684,0.235595 -1.666667,0.129492 -1.666667,-0.242914 0,-0.363671 0.675,-0.807614 1.5,-0.986541 0.825,-0.178926 2.025,-0.545996 2.666667,-0.815711 1.070519,-0.449976 1.166667,0.119842 1.166667,6.91427 0,6.960214 0.08003,7.404659 1.333333,7.404659 0.733333,0 1.333333,0.3 1.333333,0.666667 0,0.37037 -1.777778,0.666666 -4,0.666666 -2.2,0 -4,-0.157425 -4,-0.349834 z m 12.458334,-0.08072 C 50.847991,35.292434 51.38198,34 52.71555,34 c 0.931975,0 1.312004,0.362033 1.166667,1.111422 -0.237962,1.226986 -1.376001,1.839237 -2.090549,1.124689 z M 151.33334,32 v -2.666667 h -6 c -3.55556,0 -6,-0.271605 -6,-0.666667 C 139.33334,28.266666 142,28 146,28 h 6.66667 v 3.333333 c 0,1.833333 -0.3,3.333333 -0.66667,3.333333 -0.36666,0 -0.66666,-1.2 -0.66666,-2.666666 z"
       id="path802" />
  </g>
</svg>
