<?xml version="1.0" encoding="UTF-8" standalone="no"?>
<svg
   xmlns:dc="http://purl.org/dc/elements/1.1/"
   xmlns:cc="http://creativecommons.org/ns#"
   xmlns:rdf="http://www.w3.org/1999/02/22-rdf-syntax-ns#"
   xmlns:svg="http://www.w3.org/2000/svg"
   xmlns="http://www.w3.org/2000/svg"
   xmlns:sodipodi="http://sodipodi.sourceforge.net/DTD/sodipodi-0.dtd"
   xmlns:inkscape="http://www.inkscape.org/namespaces/inkscape"
   version="1.1"
   id="svg1366"
   width="87.668098"
   height="167.14969"
   viewBox="0 0 87.668098 167.14969"
   sodipodi:docname="treeExampleConjAlt3.svg"
   inkscape:version="1.0.1 (c497b03c, 2020-09-10)">
  <metadata
     id="metadata1372">
    <rdf:RDF>
      <cc:Work
         rdf:about="">
        <dc:format>image/svg+xml</dc:format>
        <dc:type
           rdf:resource="http://purl.org/dc/dcmitype/StillImage" />
        <dc:title></dc:title>
      </cc:Work>
    </rdf:RDF>
  </metadata>
  <defs
     id="defs1370" />
  <sodipodi:namedview
     pagecolor="#ffffff"
     bordercolor="#666666"
     borderopacity="1"
     objecttolerance="10"
     gridtolerance="10"
     guidetolerance="10"
     inkscape:pageopacity="0"
     inkscape:pageshadow="2"
     inkscape:window-width="731"
     inkscape:window-height="480"
     id="namedview1368"
     showgrid="false"
     fit-margin-top="0"
     fit-margin-left="0"
     fit-margin-right="0"
     fit-margin-bottom="0"
     inkscape:pagecheckerboard="true"
     inkscape:zoom="0.56701683"
     inkscape:cx="211.44248"
     inkscape:cy="216.95012"
     inkscape:window-x="0"
     inkscape:window-y="25"
     inkscape:window-maximized="0"
     inkscape:current-layer="g1374" />
  <g
     inkscape:groupmode="layer"
     inkscape:label="Image"
     id="g1374"
     transform="translate(239.70738,126.45129)">
    <path
       style="fill:#1b1b1b;stroke-width:0.666667"
       d="m -226.6753,40.24492 c 0,-0.25954 1.11089,-1.60954 2.46863,-3 l 2.46864,-2.52811 -2.59199,-2.65442 c -3.38165,-3.46313 -2.46283,-4.38194 1.00029,-1.0003 l 2.65443,2.59199 2.66667,-2.60393 c 3.16234,-3.08794 3.65189,-1.74664 0.53588,1.46826 l -2.13077,2.1984 2.13077,2.19841 c 3.11601,3.21489 2.62646,4.5562 -0.53588,1.46826 l -2.66667,-2.60393 -2.52811,2.46863 c -2.44671,2.38915 -3.47189,2.97875 -3.47189,1.99674 z m 6.44445,-23.30589 c -0.24445,-0.24444 -0.44445,-1.1061 -0.44445,-1.91479 0,-1.19787 -0.49013,-1.54873 -2.64477,-1.89327 -3.62683,-0.57995 -5.35523,-2.59379 -5.35523,-6.2396395 0,-5.63295 3.93081,-10.17142 9.25243,-10.68276 2.90088,-0.27874 3.52907,-0.1042 5.03116,1.3979 2.53002,2.53001999 2.42329,7.2678 -0.24676,10.9537 -1.07974,1.4905395 -2.5968,2.9111895 -3.37125,3.1569895 -0.80349,0.25502 -1.32023,0.89965 -1.20349,1.50137 0.32358,1.66786 1.63224,1.69908 3.14527,0.075 1.90203,-2.04159 1.9112,-0.0825 0.0109,2.33335 -1.31626,1.67335 -3.21553,2.27043 -4.17383,1.31212 z m -0.44445,-5.93776 c 0,-0.62083 -0.45358,-0.96092 -1.11142,-0.83334 -1.67251,0.32437 -1.90217,1.88222 -0.27747,1.88222 0.81889,0 1.38889,-0.43046 1.38889,-1.04888 z m -1.35498,-2.2844595 c 0.32619,0 1.10324,0.51017 1.72677,1.1337 1.06716,1.0671595 1.22514,1.0273995 2.69146,-0.6773 1.83538,-2.13376 3.19614,-6.66548 2.65222,-8.83264001 -0.48888,-1.94783999 -2.15401,-3.62447999 -3.59642,-3.62125999 -4.66496,0.0104 -9.74122,9.0541 -7.46714,13.3032495 l 0.79668,1.48862 1.30168,-1.39718 c 0.71592,-0.7684495 1.56856,-1.3971895 1.89475,-1.3971895 z m 52.02164,0.25666 V 0.56347049 l -1.7062,1.11794001 c -0.9384,0.61487 -2.2134,1.00928 -2.83333,0.87647 -0.84091,-0.18015 -0.59284,-0.52534 0.97689,-1.35933 1.15722,-0.61482001 2.50546,-2.02473001 2.99608,-3.13313 1.09057,-2.46378 1.62416,-2.53799 2.18489,-0.30387 0.23625,0.94128 1.31687,2.21627999 2.40139,2.83333999 1.08452,0.61706001 1.97375,1.34692001 1.97607,1.62192001 0.007,0.83496 -1.61164,0.56127 -3.18078,-0.5378 L -168.6753,0.64121049 V 9.0123505 c 0,5.1363095 -0.25762,8.3711295 -0.66667,8.3711295 -0.40921,0 -0.66667,-3.24778 -0.66667,-8.4100095 z m 1.11112,-20.7011005 c -0.24445,-0.24444 -0.44445,-1.1061 -0.44445,-1.9148 0,-1.19786 -0.49013,-1.54872 -2.64477,-1.89326 -3.62683,-0.57996 -5.35523,-2.5938 -5.35523,-6.23964 0,-5.63296 3.93081,-10.17142 9.25243,-10.68276 2.90088,-0.27874 3.52907,-0.1042 5.03116,1.39789 2.53002,2.53002 2.42329,7.26781 -0.24676,10.95371 -1.07974,1.49054 -2.5968,2.91118 -3.37125,3.15698 -0.80349,0.25502 -1.32023,0.89966 -1.20349,1.50137 0.32358,1.66787 1.63224,1.69908 3.14527,0.075 1.90203,-2.04159 1.9112,-0.0825 0.0109,2.33335 -1.31626,1.67335 -3.21553,2.27043 -4.17383,1.31213 z m -0.44445,-5.93777 c 0,-0.62083 -0.45358,-0.96092 -1.11142,-0.83333 -1.67251,0.32436 -1.90217,1.88221 -0.27747,1.88221 0.81889,0 1.38889,-0.43046 1.38889,-1.04888 z m -1.35498,-2.28445 c 0.32619,0 1.10324,0.51016 1.72677,1.1337 1.06716,1.06715 1.22514,1.0274 2.69146,-0.6773 1.83538,-2.13376 3.19614,-6.66548 2.65222,-8.83264 -0.48888,-1.94784 -2.15401,-3.62448 -3.59642,-3.62127 -4.66496,0.0104 -9.74122,9.05411 -7.46714,13.30325 l 0.79668,1.48862 1.30168,-1.39718 c 0.71592,-0.76845 1.56856,-1.39718 1.89475,-1.39718 z m -58.31168,3.33333 c 0.22661,-0.36667 0.83275,-0.66667 1.34698,-0.66667 0.52004,0 1.2243,-1.10945 1.58696,-2.5 1.6368,-6.2761 2.73272,-10.72609 2.73272,-11.09622 0,-0.22208 -0.45,-0.40378 -1,-0.40378 -0.55,0 -1,-0.3 -1,-0.66666 0,-0.90227 7.93532,-0.85226 10.5712,0.0666 5.81427,2.02686 1.5921,8.60004 -5.52409,8.60004 -2.16194,0 -2.38177,0.19579 -3.06384,2.72882 -0.64108,2.38079 -0.58059,2.84572 0.4743,3.64546 1.07086,0.81185 0.76633,0.91908 -2.66358,0.93786 -2.41686,0.0132 -3.71779,-0.22942 -3.46065,-0.64547 z m 13.29553,-9.48167 c 1.57895,-2.25428 1.33075,-4.4194 -0.56106,-4.89422 -3.41581,-0.85731 -4.60185,-0.15995 -5.45816,3.20922 l -0.80483,3.16667 h 2.89312 c 2.23393,0 3.12959,-0.3376 3.93093,-1.48167 z m -1.79603,-18.684997 c 15.99489,-20.312673 22.34235,-28.166666 22.76382,-28.166666 0.51095,0 4.49197,4.837673 15.36122,18.666666 3.45829,4.4 7.31867,9.275 8.57861,10.833337 1.25993,1.55833 1.98084,2.83333 1.602,2.83333 -0.37883,0 -6.1136,-6.881447 -12.74393,-15.292107 -6.63033,-8.41066 -12.28151,-15.419846 -12.55819,-15.575973 -0.27667,-0.15612 -6.0139,6.725327 -12.74939,15.292107 -6.73549,8.566786 -12.53632,15.575973 -12.89073,15.575973 -0.35441,0 0.83205,-1.875 2.63659,-4.166667 z m 21.83383,-36.5 c 0.22661,-0.366666 0.83275,-0.666666 1.34698,-0.666666 0.52004,0 1.2243,-1.109453 1.58696,-2.5 1.6368,-6.276102 2.73272,-10.726094 2.73272,-11.09623 0,-0.222074 -0.45,-0.40377 -1,-0.40377 -0.55,0 -1,-0.3 -1,-0.666667 0,-0.902266 7.93532,-0.852259 10.5712,0.06662 5.81427,2.026861 1.5921,8.600047 -5.52409,8.600047 -2.16194,0 -2.38177,0.195788 -3.06384,2.728812 -0.64108,2.380792 -0.58059,2.845718 0.4743,3.645464 1.07086,0.811851 0.76633,0.919076 -2.66358,0.937855 -2.41686,0.01323 -3.71779,-0.229411 -3.46065,-0.645465 z m 13.29553,-9.48167 c 1.57895,-2.254277 1.33075,-4.419401 -0.56106,-4.894215 -3.41581,-0.857313 -4.60185,-0.159957 -5.45816,3.209219 l -0.80483,3.166666 h 2.89312 c 2.23393,0 3.12959,-0.337598 3.93093,-1.48167 z m -16.29553,5.48167 v -2.666666 h -6 c -3.55555,0 -6,-0.271605 -6,-0.666667 0,-0.4 2.66667,-0.666667 6.66667,-0.666667 h 6.66666 v 3.333334 c 0,1.833333 -0.3,3.333333 -0.66667,3.333333 -0.36666,0 -0.66666,-1.2 -0.66666,-2.666667 z m 12.44444,-19.777773 c -0.24444,-0.24445 -0.44444,-1.10611 -0.44444,-1.9148 0,-1.19786 -0.49013,-1.54872 -2.64478,-1.89326 -3.62682,-0.57996 -5.35522,-2.5938 -5.35522,-6.23965 0,-5.63295 3.9308,-10.17142 9.25242,-10.68276 2.90089,-0.27873 3.52908,-0.10419 5.03117,1.3979 2.53002,2.53002 2.42329,7.2678 -0.24677,10.9537 -1.07974,1.49055 -2.5968,2.91119 -3.37124,3.15699 -0.8035,0.25502 -1.32024,0.89966 -1.2035,1.50137 0.32359,1.66786 1.63224,1.69908 3.14528,0.075 1.90202,-2.04159 1.9112,-0.0825 0.0109,2.33335 -1.31626,1.67335 -3.21553,2.27043 -4.17383,1.31212 z m -0.44444,-5.93778 c 0,-0.62082 -0.45358,-0.96091 -1.11142,-0.83333 -1.67252,0.32437 -1.90217,1.88222 -0.27747,1.88222 0.81889,0 1.38889,-0.43046 1.38889,-1.04889 z m -1.35498,-2.28445 c 0.32619,0 1.10324,0.51017 1.72677,1.1337 1.06715,1.06716 1.22513,1.0274 2.69145,-0.67729 1.83538,-2.13376 3.19615,-6.66548 2.65222,-8.83265 -0.48887,-1.94784 -2.154,-3.62448 -3.59642,-3.62126 -4.66496,0.0104 -9.74122,9.0541 -7.46714,13.30325 l 0.79668,1.48862 1.30168,-1.39718 c 0.71592,-0.76845 1.56856,-1.39719 1.89476,-1.39719 z m -27.08639,4.02615 c -2.78569,-1.1721 -2.64814,-4.23017 0.31069,-6.90788 1.03776,-0.93916 1.25074,-1.7624 0.97937,-3.78561 -0.46928,-3.4988 0.2088,-5.82192 1.85152,-6.3433 3.08788,-0.98006 4.36142,2.81453 1.96646,5.85922 -1.69472,2.15449 -1.68184,2.32905 0.39793,5.38969 l 1.73126,2.54779 1.60207,-2.35766 c 1.70757,-2.51291 2.0181,-3.76173 0.9354,-3.76173 -0.36666,0 -0.66666,-0.3 -0.66666,-0.66667 0,-0.36666 1.2,-0.66666 2.66666,-0.66666 2.73116,0 3.62972,0.92598 1.45134,1.49564 -0.66843,0.17479 -2.04104,1.72679 -3.05025,3.44889 -1.46593,2.50141 -1.67434,3.32457 -1.03638,4.09327 1.16954,1.40921 2.99074,1.17521 4.18568,-0.5378 0.57548,-0.825 1.06208,-1.125 1.08131,-0.66667 0.0193,0.45833 -0.59103,1.45933 -1.35614,2.22444 -1.06413,1.06413 -1.80844,1.27278 -3.16666,0.88769 -2.10498,-0.59682 -3.73014,-0.61085 -6.44223,-0.0556 -1.1,0.22519 -2.64862,0.13653 -3.44137,-0.19703 z m 5.00797,-1.28353 c 0.71159,-0.45094 0.48793,-1.13903 -1.06864,-3.28782 -2.14269,-2.9579 -3.49796,-2.74666 -3.49796,0.5452 0,2.82976 2.27399,4.19548 4.5666,2.74262 z m 0.10007,-12.82425 c 0,-1.22066 -0.34736,-1.91837 -0.95508,-1.91837 -1.19215,0 -1.94374,2.21833 -1.36712,4.0351 0.62088,1.95622 2.3222,0.40543 2.3222,-2.11673 z m 44.33241,11.80688 c -0.973,-1.66029 -1.57812,-3.32768 -1.34474,-3.70531 0.76576,-1.23903 2.11642,-0.72001 2.96331,1.13872 l 0.83167,1.82533 1.61962,-3.4077 c 1.72398,-3.62731 7.80863,-10.24295 9.42081,-10.24295 0.53127,0 -0.43089,1.35757 -2.13813,3.01682 -1.92746,1.87327 -3.8642,4.71622 -5.10934,7.5 -3.57104,7.98383 -3.76483,8.10411 -6.2432,3.87509 z m -73.99908,1.60809 c 0.22661,-0.36667 0.83275,-0.66667 1.34698,-0.66667 0.52004,0 1.22431,-1.10945 1.58696,-2.5 1.63681,-6.2761 2.73273,-10.72609 2.73273,-11.09623 0,-0.22207 -0.45,-0.40377 -1,-0.40377 -0.55,0 -1,-0.3 -1,-0.66667 0,-0.90226 7.93531,-0.85226 10.5712,0.0666 5.81426,2.02687 1.59209,8.60005 -5.5241,8.60005 -2.16194,0 -2.38176,0.19579 -3.06384,2.72881 -0.64108,2.3808 -0.58059,2.84572 0.4743,3.64547 1.07086,0.81185 0.76634,0.91907 -2.66358,0.93785 -2.41686,0.0132 -3.71779,-0.22941 -3.46065,-0.64546 z m 13.29553,-9.48167 c 1.57896,-2.25428 1.33076,-4.4194 -0.56106,-4.89422 -3.4158,-0.85731 -4.60185,-0.15995 -5.45816,3.20922 l -0.80483,3.16667 h 2.89313 c 2.23392,0 3.12958,-0.3376 3.93092,-1.48167 z"
       id="path1378" />
  </g>
</svg>
