<?xml version="1.0" encoding="UTF-8" standalone="no"?>
<svg
   xmlns:dc="http://purl.org/dc/elements/1.1/"
   xmlns:cc="http://creativecommons.org/ns#"
   xmlns:rdf="http://www.w3.org/1999/02/22-rdf-syntax-ns#"
   xmlns:svg="http://www.w3.org/2000/svg"
   xmlns="http://www.w3.org/2000/svg"
   xmlns:sodipodi="http://sodipodi.sourceforge.net/DTD/sodipodi-0.dtd"
   xmlns:inkscape="http://www.inkscape.org/namespaces/inkscape"
   version="1.1"
   id="svg1258"
   width="201.01971"
   height="236.58121"
   viewBox="0 0 201.01972 236.58121"
   sodipodi:docname="treeExampleConjAlt2.svg"
   inkscape:version="1.0.1 (c497b03c, 2020-09-10)">
  <metadata
     id="metadata1264">
    <rdf:RDF>
      <cc:Work
         rdf:about="">
        <dc:format>image/svg+xml</dc:format>
        <dc:type
           rdf:resource="http://purl.org/dc/dcmitype/StillImage" />
        <dc:title></dc:title>
      </cc:Work>
    </rdf:RDF>
  </metadata>
  <defs
     id="defs1262" />
  <sodipodi:namedview
     pagecolor="#ffffff"
     bordercolor="#666666"
     borderopacity="1"
     objecttolerance="10"
     gridtolerance="10"
     guidetolerance="10"
     inkscape:pageopacity="0"
     inkscape:pageshadow="2"
     inkscape:window-width="731"
     inkscape:window-height="480"
     id="namedview1260"
     showgrid="false"
     fit-margin-top="0"
     fit-margin-left="0"
     fit-margin-right="0"
     fit-margin-bottom="0"
     inkscape:pagecheckerboard="true"
     inkscape:zoom="0.88421247"
     inkscape:cx="142.60055"
     inkscape:cy="119.48465"
     inkscape:window-x="0"
     inkscape:window-y="25"
     inkscape:window-maximized="0"
     inkscape:current-layer="g1266" />
  <g
     inkscape:groupmode="layer"
     inkscape:label="Image"
     id="g1266"
     transform="translate(-75.616296,-21.400372)">
    <path
       style="fill:#1c1c1c;stroke-width:0.666668"
       d="m 95.333331,257.5281 c 0,-0.25954 1.110886,-1.60954 2.468634,-3 l 2.468635,-2.52811 -2.591989,-2.65442 c -3.381646,-3.46313 -2.462833,-4.38194 1.000294,-1.0003 l 2.654425,2.59199 L 104,248.33333 c 3.16234,-3.08794 3.65189,-1.74664 0.53588,1.46826 l -2.13077,2.1984 2.13077,2.19841 c 3.11601,3.21489 2.62646,4.5562 -0.53588,1.46826 l -2.66667,-2.60393 -2.528106,2.46863 c -2.446714,2.38915 -3.471893,2.97875 -3.471893,1.99674 z m 74.666669,0 c 0,-0.25954 1.11088,-1.60954 2.46863,-3 l 2.46863,-2.52811 -2.59198,-2.65442 c -3.38165,-3.46313 -2.46284,-4.38194 1.00029,-1.0003 l 2.65443,2.59199 2.66666,-2.60393 c 3.16234,-3.08794 3.6519,-1.74664 0.53589,1.46826 l -2.13077,2.1984 2.13077,2.19841 c 3.11601,3.21489 2.62645,4.5562 -0.53589,1.46826 L 176,253.06273 l -2.52811,2.46863 C 171.02518,257.92051 170,258.51011 170,257.5281 Z m -69,-28.86144 c 0.22661,-0.36667 0.83275,-0.66667 1.34698,-0.66667 0.52004,0 1.2243,-1.10945 1.58696,-2.49999 1.6368,-6.2761 2.73272,-10.7261 2.73272,-11.09623 0,-0.22208 -0.45,-0.40377 -1,-0.40377 -0.55,0 -1,-0.3 -1,-0.66667 0,-0.90227 7.93532,-0.85226 10.5712,0.0666 5.81427,2.02686 1.5921,8.60005 -5.52409,8.60005 -2.16194,0 -2.38177,0.19578 -3.06384,2.72881 -0.64108,2.38079 -0.58059,2.84572 0.4743,3.64546 1.07086,0.81185 0.76633,0.91908 -2.66358,0.93786 -2.41686,0.0132 -3.71779,-0.22942 -3.46065,-0.64547 z m 13.29553,-9.48167 c 1.57895,-2.25427 1.33075,-4.4194 -0.56106,-4.89421 -3.41581,-0.85732 -4.60185,-0.15996 -5.45816,3.20922 l -0.80483,3.16666 h 2.89312 c 2.23393,0 3.12959,-0.3376 3.93093,-1.48167 z M 183,228.66666 c 0.22661,-0.36667 0.83275,-0.66667 1.34698,-0.66667 0.52004,0 1.2243,-1.10945 1.58696,-2.49999 1.6368,-6.2761 2.73272,-10.7261 2.73272,-11.09623 0,-0.22208 -0.45,-0.40377 -1,-0.40377 -0.55,0 -1,-0.3 -1,-0.66667 0,-0.90227 7.93532,-0.85226 10.5712,0.0666 5.81427,2.02686 1.5921,8.60005 -5.52409,8.60005 -2.16194,0 -2.38177,0.19578 -3.06384,2.72881 -0.64108,2.38079 -0.58059,2.84572 0.4743,3.64546 1.07086,0.81185 0.76633,0.91908 -2.66358,0.93786 -2.41686,0.0132 -3.71779,-0.22942 -3.46065,-0.64547 z m 13.29553,-9.48167 c 1.57895,-2.25427 1.33075,-4.4194 -0.56106,-4.89421 -3.41581,-0.85732 -4.60185,-0.15996 -5.45816,3.20922 l -0.80483,3.16666 h 2.89312 c 2.23393,0 3.12959,-0.3376 3.93093,-1.48167 z m -98.962199,5.48167 V 222 h -5.999999 c -3.555554,0 -6,-0.27161 -6,-0.66667 0,-0.4 2.666666,-0.66667 6.666666,-0.66667 h 6.666667 V 224 c 0,1.83333 -0.3,3.33333 -0.666668,3.33333 -0.366666,0 -0.666666,-1.2 -0.666666,-2.66667 z m 66.666669,0 V 222 h -6 c -3.55556,0 -6,-0.27161 -6,-0.66667 0,-0.4 2.66666,-0.66667 6.66666,-0.66667 h 6.66667 V 224 c 0,1.83333 -0.3,3.33333 -0.66667,3.33333 -0.36666,0 -0.66666,-1.2 -0.66666,-2.66667 z m 16,0 V 222 h -6 c -3.55556,0 -6,-0.27161 -6,-0.66667 0,-0.4 2.66666,-0.66667 6.66666,-0.66667 h 6.66667 V 224 c 0,1.83333 -0.3,3.33333 -0.66667,3.33333 -0.36666,0 -0.66666,-1.2 -0.66666,-2.66667 z m -87.000002,-24 C 93.226611,200.3 93.832751,200 94.346978,200 c 0.520047,0 1.224307,-1.10946 1.586961,-2.5 1.636805,-6.2761 2.732726,-10.7261 2.732726,-11.09623 0,-0.22208 -0.450001,-0.40377 -1.000001,-0.40377 -0.55,0 -0.999998,-0.3 -0.999998,-0.66667 0,-0.90227 7.935314,-0.85226 10.571194,0.0666 5.81427,2.02686 1.5921,8.60005 -5.52409,8.60005 -2.161939,0 -2.381766,0.19578 -3.06384,2.72881 -0.64108,2.38079 -0.580593,2.84572 0.4743,3.64547 1.07086,0.81184 0.766336,0.91907 -2.663579,0.93785 -2.41686,0.0132 -3.717786,-0.22941 -3.460653,-0.64547 z m 13.295532,-9.48167 c 1.57895,-2.25427 1.33075,-4.4194 -0.56106,-4.89421 -3.41581,-0.85732 -4.60185,-0.15996 -5.45816,3.20922 l -0.804832,3.16666 h 2.893122 c 2.23393,0 3.12959,-0.3376 3.93093,-1.48167 z M 175,200.66666 C 175.22661,200.3 175.83275,200 176.34698,200 c 0.52004,0 1.2243,-1.10946 1.58696,-2.5 1.6368,-6.2761 2.73272,-10.7261 2.73272,-11.09623 0,-0.22208 -0.45,-0.40377 -1,-0.40377 -0.55,0 -1,-0.3 -1,-0.66667 0,-0.90227 7.93532,-0.85226 10.5712,0.0666 5.81427,2.02686 1.5921,8.60005 -5.52409,8.60005 -2.16194,0 -2.38177,0.19578 -3.06384,2.72881 -0.64108,2.38079 -0.58059,2.84572 0.4743,3.64547 1.07086,0.81184 0.76633,0.91907 -2.66358,0.93785 -2.41686,0.0132 -3.71779,-0.22941 -3.46065,-0.64547 z m 13.29553,-9.48167 c 1.57895,-2.25427 1.33075,-4.4194 -0.56106,-4.89421 -3.41581,-0.85732 -4.60185,-0.15996 -5.45816,3.20922 l -0.80483,3.16666 h 2.89312 c 2.23393,0 3.12959,-0.3376 3.93093,-1.48167 z M 172,196.66666 V 194 h -6 c -3.55556,0 -6,-0.27161 -6,-0.66667 0,-0.4 2.66666,-0.66667 6.66666,-0.66667 h 6.66667 V 196 c 0,1.83333 -0.3,3.33333 -0.66667,3.33333 -0.36666,0 -0.66666,-1.2 -0.66666,-2.66667 z M 101.33333,176.1768 c 0,-0.31271 8.40086,-6.80558 18.66859,-14.42859 l 18.66858,-13.86003 8.83142,6.52114 c 12.7894,9.44372 27.39918,20.35828 28.1203,21.00792 0.34222,0.30829 0.46746,0.71529 0.27831,0.90444 -0.18915,0.18915 -8.55591,-5.81424 -18.5928,-13.34088 -10.03689,-7.52664 -18.6235,-13.54104 -19.08136,-13.36534 -0.45786,0.1757 -8.5711,6.12572 -18.02942,13.22229 -18.88874,14.17218 -18.86362,14.15442 -18.86362,13.33905 z m 37.77778,-35.95458 c -0.24445,-0.24444 -0.44445,-1.1061 -0.44445,-1.9148 0,-1.19786 -0.49012,-1.54872 -2.64477,-1.89326 -3.62683,-0.57996 -5.35523,-2.5938 -5.35523,-6.23964 0,-5.63296 3.93081,-10.17142 9.25243,-10.68276 2.90089,-0.27874 3.52907,-0.1042 5.03117,1.39789 2.53002,2.53002 2.42328,7.26781 -0.24677,10.95371 -1.07974,1.49054 -2.5968,2.91118 -3.37125,3.15698 -0.80349,0.25502 -1.32023,0.89966 -1.20349,1.50137 0.32359,1.66787 1.63224,1.69908 3.14527,0.075 1.90203,-2.04159 1.9112,-0.0825 0.0109,2.33335 -1.31626,1.67335 -3.21554,2.27043 -4.17384,1.31213 z m -0.44445,-5.93777 c 0,-0.62083 -0.45358,-0.96092 -1.11142,-0.83333 -1.67251,0.32436 -1.90216,1.88221 -0.27746,1.88221 0.81888,0 1.38888,-0.43046 1.38888,-1.04888 z M 137.31168,132 c 0.3262,0 1.10324,0.51016 1.72678,1.1337 1.06715,1.06715 1.22513,1.0274 2.69145,-0.6773 1.83538,-2.13376 3.19615,-6.66548 2.65222,-8.83264 -0.48887,-1.94784 -2.15401,-3.62448 -3.59642,-3.62127 -4.66496,0.0104 -9.74122,9.05411 -7.46714,13.30325 l 0.79668,1.48862 1.30168,-1.39718 C 136.13285,132.62873 136.98549,132 137.31168,132 Z m 107.35498,0.25666 v -8.41001 l -1.7062,1.11794 c -0.9384,0.61487 -2.2134,1.00929 -2.83333,0.87647 -0.84091,-0.18015 -0.59284,-0.52534 0.97689,-1.35933 1.15722,-0.61482 2.50546,-2.02473 2.99608,-3.13313 1.09057,-2.46378 1.62416,-2.53798 2.18489,-0.30386 0.23625,0.94127 1.31687,2.21627 2.40139,2.83333 1.08452,0.61706 1.97375,1.34693 1.97607,1.62193 0.007,0.83495 -1.61164,0.56126 -3.18078,-0.5378 L 246,123.92439 v 8.37114 c 0,5.13631 -0.25762,8.37113 -0.66667,8.37113 -0.40921,0 -0.66667,-3.24778 -0.66667,-8.41 z M 79.022825,111.62829 c -4.12132,-4.44697 -4.577166,-13.582979 -0.962153,-19.283259 2.4589,-3.877293 3.87742,-3.94774 1.610773,-0.08 -3.081673,5.25848 -3.053087,13.512939 0.06267,18.104309 2.04718,3.0167 1.619393,3.77383 -0.71132,1.25895 z M 168,113.03957 c 0,-0.27523 0.61392,-1.36259 1.36427,-2.41636 2.17374,-3.05274 3.06071,-8.57531 2.10769,-13.123212 -0.4418,-2.108333 -1.40373,-4.646187 -2.13762,-5.639673 -1.57066,-2.126254 -1.66618,-2.612487 -0.4192,-2.133974 0.50333,0.193147 1.70333,1.799327 2.66667,3.569294 3.20693,5.892193 2.15529,15.055835 -2.17754,18.974345 C 168.63192,112.96848 168,113.3148 168,113.03957 Z m 77.77778,-1.48402 c -0.24445,-0.24444 -0.44445,-1.1061 -0.44445,-1.91479 0,-1.19787 -0.49013,-1.54873 -2.64477,-1.89327 -3.62683,-0.57995 -5.35523,-2.59379 -5.35523,-6.23964 0,-5.632952 3.93081,-10.171419 9.25243,-10.682759 2.90088,-0.27874 3.52907,-0.1042 5.03116,1.397894 2.53002,2.53002 2.42329,7.267806 -0.24676,10.953705 -1.07974,1.49054 -2.5968,2.91119 -3.37125,3.15699 -0.80349,0.25502 -1.32023,0.89965 -1.20349,1.50136 0.32358,1.66787 1.63224,1.69908 3.14527,0.075 1.90203,-2.0416 1.9112,-0.0825 0.0109,2.33334 -1.31626,1.67336 -3.21553,2.27044 -4.17383,1.31213 z m -0.44445,-5.93777 c 0,-0.62082 -0.45358,-0.96092 -1.11142,-0.83333 -1.67251,0.32437 -1.90217,1.88221 -0.27747,1.88221 0.81889,0 1.38889,-0.43046 1.38889,-1.04888 z m -1.35498,-2.28445 c 0.32619,0 1.10324,0.51017 1.72677,1.1337 1.06716,1.06715 1.22514,1.0274 2.69146,-0.6773 1.83538,-2.13376 3.19614,-6.665479 2.65222,-8.832639 -0.48888,-1.94784 -2.15401,-3.62448 -3.59642,-3.621266 -4.66496,0.0104 -9.74122,9.054105 -7.46714,13.303255 l 0.79668,1.48862 1.30168,-1.39718 c 0.71592,-0.76846 1.56856,-1.39719 1.89475,-1.39719 z m -56.31261,1.72524 c -0.97299,-1.66029 -1.57812,-3.32767 -1.34473,-3.70531 0.76576,-1.23902 2.11641,-0.72 2.96331,1.13873 l 0.83167,1.82533 1.61961,-3.4077 c 1.72399,-3.627309 7.80864,-10.242955 9.42082,-10.242955 0.53127,0 -0.43089,1.357573 -2.13814,3.01682 -1.92745,1.873273 -3.86419,4.716219 -5.10934,7.499995 -3.57104,7.98383 -3.76482,8.10412 -6.2432,3.87509 z M 83.666665,106.66666 C 83.893278,106.3 84.499418,106 85.013645,106 c 0.520047,0 1.224307,-1.10946 1.58696,-2.5 1.636807,-6.276102 2.732727,-10.726095 2.732727,-11.096229 0,-0.22208 -0.45,-0.403773 -1,-0.403773 -0.55,0 -1,-0.3 -1,-0.666667 0,-0.902266 7.935313,-0.85226 10.571199,0.0666 5.814269,2.02686 1.592094,8.600047 -5.524093,8.600047 -2.16194,0 -2.381766,0.195782 -3.06384,2.728812 -0.64108,2.38079 -0.580593,2.84572 0.4743,3.64547 1.07086,0.81184 0.766334,0.91907 -2.66358,0.93785 -2.41686,0.0132 -3.717786,-0.22941 -3.460653,-0.64547 z m 13.295532,-9.481669 c 1.578953,-2.254273 1.330754,-4.4194 -0.561058,-4.894213 -3.415807,-0.857313 -4.601854,-0.159953 -5.458161,3.20922 l -0.804833,3.166666 h 2.893127 c 2.233926,0 3.129586,-0.337599 3.930925,-1.481673 z M 149,106.66666 C 149.22661,106.3 149.83275,106 150.34698,106 c 0.52004,0 1.2243,-1.10946 1.58696,-2.5 1.6368,-6.276102 2.73272,-10.726095 2.73272,-11.096229 0,-0.22208 -0.45,-0.403773 -1,-0.403773 -0.55,0 -1,-0.3 -1,-0.666667 0,-0.902266 7.93532,-0.85226 10.5712,0.0666 5.81427,2.02686 1.5921,8.600047 -5.52409,8.600047 -2.16194,0 -2.38177,0.195782 -3.06384,2.728812 -0.64108,2.38079 -0.58059,2.84572 0.4743,3.64547 1.07086,0.81184 0.76633,0.91907 -2.66358,0.93785 -2.41686,0.0132 -3.71779,-0.22941 -3.46065,-0.64547 z m 13.29553,-9.481669 c 1.57895,-2.254273 1.33075,-4.4194 -0.56106,-4.894213 -3.41581,-0.857313 -4.60185,-0.159953 -5.45816,3.20922 l -0.80483,3.166666 h 2.89312 c 2.23393,0 3.12959,-0.337599 3.93093,-1.481673 z M 108.66666,106 c 0,-0.40759 3.12423,-0.66667 8.03935,-0.66667 5.1898,0 7.8933,0.2363 7.62732,0.66667 -0.23583,0.38158 -3.67359,0.66666 -8.03935,0.66666 -4.64043,0 -7.62732,-0.26106 -7.62732,-0.66666 z M 146,102.66666 v -2.666662 h -6 c -3.55556,0 -6,-0.271607 -6,-0.666667 0,-0.4 2.66666,-0.666667 6.66666,-0.666667 h 6.66667 V 102 c 0,1.83333 -0.3,3.33333 -0.66667,3.33333 -0.36666,0 -0.66666,-1.2 -0.66666,-2.66667 z m -37.33334,-1.33333 c 0,-0.40741 3.11112,-0.66667 8,-0.66667 4.88889,0 8,0.25926 8,0.66667 0,0.40741 -3.11111,0.66667 -8,0.66667 -4.88888,0 -8,-0.25926 -8,-0.66667 z m 0,-4.666665 c 0,-0.407407 3.11112,-0.666667 8,-0.666667 4.88889,0 8,0.25926 8,0.666667 0,0.407406 -3.11111,0.666666 -8,0.666666 -4.88888,0 -8,-0.25926 -8,-0.666666 z m 126,-19.412367 C 229.35,74.313478 217.59048,67.851739 208.5344,62.89488 l -16.46559,-9.012467 -26.44975,13.754566 c -14.54735,7.565013 -26.61284,13.591473 -26.81218,13.392126 -0.19934,-0.19934 -0.23744,-0.46664 -0.0847,-0.593993 1.25753,-1.04826 52.61567,-27.10178 53.42454,-27.10178 0.85698,0 52.77147,28.029346 53.77714,29.03502 0.16408,0.164073 -0.12668,0.283593 -0.64612,0.265606 -0.51945,-0.01799 -5.29445,-2.438833 -10.61112,-5.37966 z M 109.68949,43.628292 c -4.12132,-4.446974 -4.57717,-13.582977 -0.96215,-19.283259 2.4589,-3.87729 3.87742,-3.947743 1.61077,-0.08 -3.08167,5.258481 -3.05309,13.512944 0.0627,18.10431 2.04718,3.016696 1.6194,3.773834 -0.71132,1.258951 z m 88.97717,1.411279 c 0,-0.275226 0.61392,-1.362587 1.36428,-2.416357 2.17374,-3.052739 3.06071,-8.575313 2.10769,-13.123215 -0.44181,-2.108333 -1.40373,-4.646185 -2.13763,-5.639671 -1.57066,-2.126253 -1.66618,-2.612486 -0.41919,-2.133974 0.50333,0.193146 1.70333,1.799328 2.66667,3.569295 3.20692,5.892188 2.15528,15.055833 -2.17754,18.974342 -0.77236,0.698495 -1.40428,1.044806 -1.40428,0.76958 z m 44.44445,-1.484017 c -0.24445,-0.244444 -0.44445,-1.106102 -0.44445,-1.914794 0,-1.197866 -0.49012,-1.548724 -2.64477,-1.893266 -3.62683,-0.579954 -5.35523,-2.593796 -5.35523,-6.239642 0,-5.632953 3.93081,-10.171419 9.25243,-10.68276 2.90089,-0.278738 3.52907,-0.104198 5.03117,1.397897 2.53002,2.530019 2.42328,7.267804 -0.24677,10.953704 -1.07974,1.490542 -2.5968,2.911185 -3.37125,3.156983 -0.80349,0.25502 -1.32023,0.899658 -1.20349,1.50137 0.32359,1.667864 1.63224,1.699082 3.14527,0.07503 1.90203,-2.041589 1.9112,-0.08246 0.0109,2.333349 -1.31626,1.673356 -3.21554,2.27043 -4.17384,1.312128 z m -0.44445,-5.937771 c 0,-0.620826 -0.45358,-0.960915 -1.11142,-0.833333 -1.67251,0.324367 -1.90216,1.882216 -0.27746,1.882216 0.81888,0 1.38888,-0.43046 1.38888,-1.048883 z m -1.35498,-2.28445 c 0.3262,0 1.10324,0.510164 1.72678,1.133699 1.06715,1.067154 1.22513,1.027399 2.69145,-0.677297 1.83538,-2.13376 3.19615,-6.66548 2.65222,-8.832642 -0.48887,-1.947844 -2.15401,-3.62448 -3.59642,-3.621268 -4.66496,0.01039 -9.74122,9.054108 -7.46714,13.303257 l 0.79668,1.48862 1.30168,-1.397185 c 0.71592,-0.768451 1.56856,-1.397184 1.89475,-1.397184 z m -27.75306,4.026141 c -2.78568,-1.172097 -2.64814,-4.230167 0.3107,-6.907879 1.03776,-0.93916 1.25074,-1.7624 0.97937,-3.785606 -0.46929,-3.498796 0.2088,-5.821924 1.85151,-6.343301 3.08789,-0.980058 4.36142,2.814529 1.96646,5.859225 -1.69472,2.15449 -1.68183,2.329041 0.39794,5.38969 l 1.73126,2.547784 1.60207,-2.357658 c 1.70757,-2.512914 2.0181,-3.76173 0.9354,-3.76173 -0.36667,0 -0.66667,-0.3 -0.66667,-0.666666 0,-0.366667 1.2,-0.666667 2.66667,-0.666667 2.73116,0 3.62972,0.925981 1.45134,1.495639 -0.66843,0.174798 -2.04104,1.726798 -3.05025,3.44889 -1.46593,2.501411 -1.67434,3.324576 -1.03638,4.093274 1.16954,1.40921 2.99074,1.175211 4.18568,-0.537803 0.57548,-0.825 1.06208,-1.125 1.08131,-0.666667 0.0193,0.458334 -0.59103,1.459331 -1.35614,2.224439 -1.06413,1.06413 -1.80845,1.272778 -3.16667,0.887688 -2.10498,-0.596816 -3.73013,-0.610849 -6.44222,-0.05563 -1.1,0.225193 -2.64862,0.136532 -3.44138,-0.197026 z m 5.00798,-1.283521 c 0.71158,-0.45094 0.48793,-1.139037 -1.06864,-3.287822 C 215.35527,31.830232 214,32.041468 214,35.333333 c 0,2.829756 2.27398,4.195473 4.5666,2.74262 z m 0.10006,-12.82425 c 0,-1.220668 -0.34735,-1.91837 -0.95507,-1.91837 -1.19215,0 -1.94374,2.21833 -1.36712,4.0351 0.62088,1.956212 2.32219,0.405427 2.32219,-2.11673 z m 44.33241,11.806871 c -0.97299,-1.660287 -1.57812,-3.327675 -1.34473,-3.705306 0.76576,-1.239027 2.11641,-0.720005 2.96331,1.138724 l 0.83167,1.825325 1.61961,-3.407694 c 1.72399,-3.627314 7.80864,-10.242957 9.42082,-10.242957 0.53127,0 -0.43089,1.357571 -2.13814,3.016823 -1.92745,1.873267 -3.86419,4.716215 -5.10934,7.5 -3.57104,7.983825 -3.76482,8.104107 -6.2432,3.875085 z m -148.66574,1.608092 c 0.22661,-0.366667 0.83275,-0.666667 1.34698,-0.666667 0.52005,0 1.22431,-1.109452 1.58696,-2.5 C 118.90408,29.223897 120,24.773905 120,24.403769 c 0,-0.222073 -0.45,-0.40377 -1,-0.40377 -0.55,0 -1,-0.3 -1,-0.666666 0,-0.902266 7.93531,-0.852259 10.5712,0.06662 5.81426,2.026861 1.59209,8.600046 -5.5241,8.600046 -2.16194,0 -2.38176,0.195788 -3.06384,2.728813 -0.64108,2.380792 -0.58059,2.845718 0.4743,3.645464 1.07086,0.81185 0.76634,0.919076 -2.66358,0.937854 -2.41686,0.01323 -3.71778,-0.22941 -3.46065,-0.645464 z m 13.29553,-9.481671 c 1.57896,-2.254276 1.33076,-4.4194 -0.56106,-4.894214 -3.4158,-0.857314 -4.60185,-0.159957 -5.45816,3.209218 l -0.80483,3.166667 h 2.89313 c 2.23392,0 3.12958,-0.337598 3.93092,-1.481671 z m 52.70447,9.481671 c 0.22661,-0.366667 0.83275,-0.666667 1.34698,-0.666667 0.52005,0 1.22431,-1.109452 1.58696,-2.5 C 184.90408,29.223897 186,24.773905 186,24.403769 c 0,-0.222073 -0.45,-0.40377 -1,-0.40377 -0.55,0 -1,-0.3 -1,-0.666666 0,-0.902266 7.93531,-0.852259 10.5712,0.06662 5.81426,2.026861 1.59209,8.600046 -5.5241,8.600046 -2.16194,0 -2.38176,0.195788 -3.06384,2.728813 -0.64108,2.380792 -0.58059,2.845718 0.4743,3.645464 1.07086,0.81185 0.76634,0.919076 -2.66358,0.937854 -2.41686,0.01323 -3.71778,-0.22941 -3.46065,-0.645464 z m 13.29553,-9.481671 c 1.57896,-2.254276 1.33076,-4.4194 -0.56106,-4.894214 -3.4158,-0.857314 -4.60185,-0.159957 -5.45816,3.209218 l -0.80483,3.166667 h 2.89313 c 2.23392,0 3.12958,-0.337598 3.93092,-1.481671 z M 140,37.999999 c 0,-0.407588 3.12422,-0.666666 8.03934,-0.666666 5.1898,0 7.8933,0.2363 7.62732,0.666666 -0.23583,0.381589 -3.67358,0.666667 -8.03934,0.666667 -4.64044,0 -7.62732,-0.261069 -7.62732,-0.666667 z m 36.66666,-3.333333 v -2.666667 h -6 c -3.55555,0 -6,-0.271604 -6,-0.666666 0,-0.4 2.66667,-0.666667 6.66667,-0.666667 H 178 v 3.333333 c 0,1.833334 -0.3,3.333334 -0.66667,3.333334 -0.36667,0 -0.66667,-1.2 -0.66667,-2.666667 z M 140,33.333333 c 0,-0.407408 3.11111,-0.666667 8,-0.666667 4.88888,0 8,0.259259 8,0.666667 0,0.407407 -3.11112,0.666666 -8,0.666666 -4.88889,0 -8,-0.259259 -8,-0.666666 z m 0,-4.666667 c 0,-0.407407 3.11111,-0.666667 8,-0.666667 4.88888,0 8,0.25926 8,0.666667 0,0.407407 -3.11112,0.666667 -8,0.666667 -4.88889,0 -8,-0.25926 -8,-0.666667 z"
       id="path1270" />
  </g>
</svg>
