<?xml version="1.0" encoding="UTF-8" standalone="no"?>
<svg
   xmlns:dc="http://purl.org/dc/elements/1.1/"
   xmlns:cc="http://creativecommons.org/ns#"
   xmlns:rdf="http://www.w3.org/1999/02/22-rdf-syntax-ns#"
   xmlns:svg="http://www.w3.org/2000/svg"
   xmlns="http://www.w3.org/2000/svg"
   xmlns:sodipodi="http://sodipodi.sourceforge.net/DTD/sodipodi-0.dtd"
   xmlns:inkscape="http://www.inkscape.org/namespaces/inkscape"
   version="1.1"
   id="svg958"
   width="302.60828"
   height="163.24298"
   viewBox="0 0 302.60828 163.24298"
   sodipodi:docname="treeExampleConjAlt.svg"
   inkscape:version="1.0.1 (c497b03c, 2020-09-10)">
  <metadata
     id="metadata964">
    <rdf:RDF>
      <cc:Work
         rdf:about="">
        <dc:format>image/svg+xml</dc:format>
        <dc:type
           rdf:resource="http://purl.org/dc/dcmitype/StillImage" />
        <dc:title></dc:title>
      </cc:Work>
    </rdf:RDF>
  </metadata>
  <defs
     id="defs962" />
  <sodipodi:namedview
     pagecolor="#ffffff"
     bordercolor="#666666"
     borderopacity="1"
     objecttolerance="10"
     gridtolerance="10"
     guidetolerance="10"
     inkscape:pageopacity="0"
     inkscape:pageshadow="2"
     inkscape:window-width="731"
     inkscape:window-height="480"
     id="namedview960"
     showgrid="false"
     inkscape:pagecheckerboard="true"
     fit-margin-top="0"
     fit-margin-left="0"
     fit-margin-right="0"
     fit-margin-bottom="0"
     inkscape:zoom="1.147927"
     inkscape:cx="142.85566"
     inkscape:cy="110.83665"
     inkscape:window-x="0"
     inkscape:window-y="25"
     inkscape:window-maximized="0"
     inkscape:current-layer="g966" />
  <g
     inkscape:groupmode="layer"
     inkscape:label="Image"
     id="g966"
     transform="translate(-87.422759,10.797407)">
    <path
       style="fill:#1a1a1a;stroke-width:0.666667"
       d="m 227.34733,151.18645 c 0.6346,-1.19053 0.66426,-1.70385 0.10915,-1.88889 -1.12382,-0.3746 -0.92765,-2.14298 0.23773,-2.14298 1.38964,0 1.30734,3.58322 -0.10914,4.75171 -1.01422,0.83665 -1.03457,0.77505 -0.23774,-0.71984 z m 9.34688,-2.00435 c -1.07434,-0.26784 -1.74583,-0.96528 -1.88943,-1.96244 -0.15281,-1.06111 0.0565,-1.44954 0.66667,-1.23684 0.48918,0.17055 0.7963,0.82564 0.68248,1.45576 -0.16228,0.89838 0.19748,1.0993 1.66666,0.93084 1.58254,-0.18146 1.87362,-0.52089 1.87362,-2.18478 0,-1.54684 -0.35796,-2.05852 -1.66666,-2.38238 -1.62573,-0.4023 -1.63134,-0.42414 -0.22826,-0.88877 1.87777,-0.62182 2.52818,-2.41136 1.31673,-3.62282 -1.07267,-1.07267 -2.42181,-0.56949 -2.42181,0.90326 0,1.07199 -1.04795,1.29509 -1.63344,0.34773 -0.58946,-0.95375 1.55366,-2.72041 3.30011,-2.72041 1.54404,0 3.66667,1.54373 3.66667,2.66667 0,0.31428 -0.50418,1.07561 -1.1204,1.69183 -1.04943,1.04943 -1.04943,1.16012 0,1.74741 0.61622,0.34486 1.1204,1.32537 1.1204,2.17892 0,2.42806 -2.39402,3.80881 -5.33334,3.07602 z m -18.16666,-0.71496 c 1.32314,-0.53184 1.5,-1.07707 1.5,-4.62441 0,-3.71898 -0.11284,-4.02326 -1.5,-4.04511 -1.48109,-0.0233 -1.47898,-0.0356 0.16666,-0.97637 0.91667,-0.52401 1.89167,-0.96339 2.16667,-0.97637 0.275,-0.013 0.5,2.35437 0.5,5.26082 0,4.47222 0.17932,5.33131 1.16667,5.58933 0.64166,0.16769 -0.33334,0.32067 -2.16667,0.33996 -2.62684,0.0277 -3.01541,-0.0927 -1.83333,-0.56785 z m -41.16667,-24.38923 v -8.41001 l -1.7062,1.11794 c -0.93841,0.61488 -2.21341,1.00929 -2.83333,0.87648 -0.84092,-0.18016 -0.59284,-0.52534 0.97689,-1.35934 1.15722,-0.61482 2.50545,-2.02472 2.99607,-3.13312 1.09058,-2.46378 1.62416,-2.53799 2.1849,-0.30387 0.23624,0.94127 1.31686,2.21627 2.40138,2.83333 1.08452,0.61706 1.97376,1.34693 1.97608,1.62193 0.007,0.83495 -1.61164,0.56127 -3.18078,-0.5378 l -1.48168,-1.03781 v 8.37114 c 0,5.13632 -0.25762,8.37114 -0.66666,8.37114 -0.40922,0 -0.66667,-3.24778 -0.66667,-8.41001 z m 46,3.27145 c 0,-0.25954 1.11089,-1.60954 2.46863,-3 l 2.46864,-2.52811 -2.59199,-2.65443 c -3.38165,-3.46312 -2.46283,-4.38194 1.00029,-1.00029 l 2.65443,2.59199 2.66667,-2.60394 c 3.16234,-3.08794 3.65189,-1.74663 0.53588,1.46826 l -2.13077,2.19841 2.13077,2.19841 c 3.11601,3.21489 2.62646,4.5562 -0.53588,1.46826 l -2.66667,-2.60394 -2.52811,2.46864 c -2.44671,2.38914 -3.47189,2.97874 -3.47189,1.99674 z m 6.44445,-23.97256 c -0.24445,-0.24444 -0.44445,-1.1061 -0.44445,-1.91479 0,-1.19787 -0.49013,-1.548732 -2.64477,-1.893272 -3.62683,-0.57995 -5.35523,-2.59379 -5.35523,-6.23964 0,-5.63295 3.93081,-10.17142 9.25243,-10.68276 2.90088,-0.27874 3.52907,-0.1042 5.03116,1.3979 2.53002,2.53002 2.42329,7.2678 -0.24676,10.9537 -1.07974,1.49054 -2.5968,2.91119 -3.37125,3.15699 -0.80349,0.25502 -1.32023,0.89965 -1.20349,1.50137 0.32358,1.667862 1.63224,1.699082 3.14527,0.075 1.90203,-2.04159 1.9112,-0.0825 0.0109,2.333352 -1.31626,1.67335 -3.21553,2.27043 -4.17383,1.31212 z m -0.44445,-5.937762 c 0,-0.62083 -0.45358,-0.96092 -1.11142,-0.83334 -1.67251,0.32437 -1.90217,1.88222 -0.27747,1.88222 0.81889,0 1.38889,-0.43046 1.38889,-1.04888 z m -1.17132,-2.28446 c 0.22518,0 0.91958,0.51017 1.54311,1.1337 1.06716,1.06716 1.22514,1.0274 2.69146,-0.6773 1.83538,-2.13376 3.19614,-6.66548 2.65222,-8.83264 -0.48888,-1.94784 -2.15401,-3.62448 -3.59642,-3.62126 -4.66419,0.0104 -9.74128,9.054 -7.46778,13.30207 l 0.79605,1.48743 1.48597,-1.396 c 0.81729,-0.7678 1.67022,-1.396 1.89539,-1.396 z m -139.192317,3.0303 c -1.892572,-1.89256 -2.065439,-2.90749 -0.591552,-3.47308 1.50468,-0.5774 2.710534,0.79767 1.732718,1.97587 -0.935468,1.12717 -0.362092,1.80025 1.533582,1.80025 1.991549,0 3.022222,-1.25045 3.022222,-3.66667 0,-2.38846 -1.021594,-3.65809 -2.966666,-3.68694 -1.357707,-0.0201 -1.357925,-0.0251 -0.03333,-0.74955 2.908739,-1.59096 3.708384,-3.75989 2.011728,-5.45654 -1.542279,-1.54228 -3.541278,-0.69024 -3.152468,1.34368 0.257694,1.34804 0.08294,1.63568 -0.880292,1.44898 -1.770818,-0.34326 -1.913712,-1.63155 -0.353968,-3.1913 1.492128,-1.49212 4.041114,-1.779 6.085494,-0.68488 1.606504,0.85978 1.722237,4.11525 0.2004,5.63708 -1.007697,1.0077 -0.982781,1.16358 0.333334,2.08542 2.109286,1.47741 1.933716,5.08844 -0.334134,6.87233 -2.33017,1.832912 -4.607269,1.745152 -6.607064,-0.25465 z m 287.030307,1.16699 c -1.23531,-0.51091 -2.61708,-2.25584 -2.64547,-3.34075 -0.0117,-0.44558 0.8334,-1.79558 1.87791,-3 1.55252,-1.79022 1.84342,-2.64578 1.59394,-4.68806 -0.42012,-3.43922 0.25494,-5.66531 1.87382,-6.17912 3.08789,-0.98006 4.36142,2.81453 1.96647,5.85922 -1.69473,2.1545 -1.68184,2.32904 0.39793,5.3897 l 1.73126,2.54778 1.60207,-2.35766 c 1.70757,-2.51292 2.0181,-3.76173 0.9354,-3.76173 -0.36666,0 -0.66667,-0.3 -0.66667,-0.66667 0,-0.36666 1.2,-0.66666 2.66667,-0.66666 2.73117,0 3.62971,0.92598 1.45134,1.49564 -0.66843,0.1748 -2.04104,1.7268 -3.05025,3.44888 -1.46593,2.50142 -1.67434,3.32458 -1.03638,4.09328 1.16954,1.40921 2.99074,1.17521 4.18568,-0.5378 0.57548,-0.825 1.06208,-1.125 1.08131,-0.66667 0.0193,0.45833 -0.59103,1.45933 -1.35614,2.22444 -1.06413,1.06413 -1.80845,1.27278 -3.16667,0.88769 -2.09416,-0.59375 -3.71269,-0.61046 -6.44222,-0.0665 -1.1,0.21921 -2.45,0.21246 -3,-0.015 z m 4.5666,-1.45467 c 0.71158,-0.45094 0.48793,-1.13903 -1.06864,-3.28782 -2.14269,-2.9579 -3.49796,-2.74666 -3.49796,0.5452 0,2.82976 2.27398,4.19548 4.5666,2.74262 z m 0.10007,-12.82424 c 0,-1.22068 -0.34736,-1.91838 -0.95508,-1.91838 -1.19215,0 -1.94374,2.21833 -1.36712,4.0351 0.62088,1.95622 2.3222,0.40543 2.3222,-2.11672 z m -280.20834,13.65107 c -0.94368,-0.94368 -0.40969,-2.23611 0.92388,-2.23611 0.93198,0 1.31201,0.36203 1.16667,1.11142 -0.23796,1.22698 -1.376,1.83924 -2.09055,1.12469 z m 69.20833,-0.23611 c 0.22662,-0.36667 0.83276,-0.66667 1.34698,-0.66667 0.52005,0 1.22431,-1.10945 1.58696,-2.5 1.63681,-6.2761 2.73273,-10.72609 2.73273,-11.09623 0,-0.22208 -0.45,-0.40377 -1,-0.40377 -0.55,0 -1,-0.3 -1,-0.66667 0,-0.90226 7.93531,-0.85226 10.5712,0.0666 5.81427,2.02686 1.59209,8.60005 -5.52409,8.60005 -2.16194,0 -2.38177,0.19579 -3.06384,2.72881 -0.64108,2.3808 -0.5806,2.84572 0.4743,3.64547 1.07086,0.81185 0.76633,0.91907 -2.66358,0.93785 -2.41686,0.0132 -3.71779,-0.22941 -3.46066,-0.64546 z m 13.29554,-9.48168 c 1.57895,-2.25427 1.33075,-4.4194 -0.56106,-4.89421 -3.41581,-0.85731 -4.60186,-0.15995 -5.45816,3.20922 l -0.80484,3.16667 h 2.89313 c 2.23393,0 3.12959,-0.3376 3.93093,-1.48168 z m 125.0378,9.61949 c 0,-0.29087 1.5,-2.30289 3.33333,-4.47115 2.43195,-2.87624 3.33333,-4.49994 3.33333,-6.00448 0,-2.43801 -1.03424,-3.66218 -3.09398,-3.66218 -1.86442,0 -2.60154,1.09364 -1.57268,2.33333 0.906,1.09167 0.35292,2.33333 -1.03935,2.33333 -0.61883,0 -0.96065,-0.69818 -0.96065,-1.9622 0,-3.78153 5.14534,-5.40978 7.88379,-2.49483 2.37715,2.53036 1.87958,4.74881 -1.9805,8.83027 l -3.43003,3.62676 h 2.66149 c 2.10127,0 2.81377,-0.31573 3.38492,-1.5 l 0.72342,-1.5 0.0451,1.44548 c 0.0972,3.11421 -0.52541,3.55452 -5.02622,3.55452 -2.3441,0 -4.262,-0.23798 -4.262,-0.52885 z m 20.13333,-0.27115 c -1.98427,-1.98427 -0.12709,-4.50147 4.03333,-5.46672 1.94438,-0.45111 2.35366,-1.61295 1.03334,-2.93328 -1.35971,-1.3597 -3.20408,-0.97778 -3.02548,0.62652 0.19013,1.70784 -1.3347,2.46711 -1.91542,0.95376 -0.61778,-1.6099 0.97911,-3.04694 3.38587,-3.04694 3.07591,0 4.35503,1.72872 4.35503,5.88582 0,3.48864 0.97348,4.70441 1.55938,1.94751 0.21412,-1.00749 0.28407,-0.84333 0.21304,0.5 -0.0807,1.52661 -0.4608,2.05043 -1.60576,2.21303 -0.87974,0.12495 -1.5,-0.13694 -1.5,-0.63333 0,-0.65829 -0.17778,-0.66859 -0.8,-0.0463 -0.44,0.44 -1.73,0.8 -2.86666,0.8 -1.13667,0 -2.42667,-0.36 -2.86667,-0.8 z m 5.06667,-0.66666 c 1.28512,-1.28512 0.99802,-3.86667 -0.43001,-3.86667 -1.6315,0 -3.70048,2.35091 -3.20511,3.64183 0.46854,1.221 2.51254,1.34742 3.63512,0.22484 z m 5.46666,0.8 c 0,-0.36667 0.45,-0.66667 1,-0.66667 0.82244,0 1,-1.18751 1,-6.68759 0,-5.32953 -0.20307,-6.76552 -1,-7.07132 -1.69371,-0.64994 -1.10536,-1.67511 0.83334,-1.45204 l 1.83333,0.21095 0.1885,7.5 c 0.10698,4.25633 0.46739,7.5 0.83333,7.5 0.35466,0 0.64484,0.3 0.64484,0.66667 0,0.36666 -1.2,0.66666 -2.66667,0.66666 -1.46667,0 -2.66667,-0.3 -2.66667,-0.66666 z m 8.65017,-1.0434 c -0.35759,-0.94054 -0.65017,-3.01554 -0.65017,-4.61112 0,-1.70978 -0.34219,-3.02932 -0.83333,-3.21342 -0.60269,-0.22594 -0.51743,-0.56421 0.30803,-1.22223 0.62775,-0.50041 1.43373,-1.65983 1.79108,-2.5765 0.63342,-1.62489 0.65077,-1.61236 0.69196,0.5 0.0362,1.8554 0.2817,2.16667 1.70893,2.16667 0.91667,0 1.66667,0.3 1.66667,0.66666 0,0.36667 -0.75,0.66667 -1.66667,0.66667 -1.51777,0 -1.66585,0.25313 -1.65757,2.83333 0.0186,5.78473 1.81249,7.866432 3.15974,3.66667 0.52876,-1.6483 0.71133,-1.82084 0.7631,-0.72119 0.11953,2.53862 -0.64827,3.55452 -2.68643,3.55452 -1.47459,0 -2.10247,-0.4137 -2.59534,-1.71006 z m 9.1415,1.27951 c -0.94368,-0.94368 -0.40969,-2.23611 0.92388,-2.23611 0.93198,0 1.31201,0.36203 1.16667,1.11142 -0.23796,1.22698 -1.376,1.83924 -2.09055,1.12469 z M 181.10651,70.987918 c 1.79981,-1.92501 7.59076,-8.225005 12.86877,-14.000005 5.27801,-5.775 9.80287,-10.5 10.05523,-10.5 0.25236,0 3.2829,3.075 6.73454,6.833333 3.45165,3.758333 9.23475,10.058334 12.85134,14.000002 3.61659,3.94167 6.26084,7.16667 5.8761,7.16667 -0.38473,0 -6.18872,-6.00001 -12.89775,-13.333338 -6.70903,-7.333334 -12.36427,-13.333334 -12.56719,-13.333334 -0.20293,0 -5.85816,6 -12.5672,13.333334 -6.70903,7.333328 -12.51953,13.333338 -12.91222,13.333338 -0.3927,0 0.75858,-1.575 2.55838,-3.5 z m 31.36548,-32.944452 c -0.24444,-0.24444 -0.44444,-1.1061 -0.44444,-1.914794 0,-1.197866 -0.49013,-1.548726 -2.64478,-1.893266 -3.62682,-0.579954 -5.35522,-2.593795 -5.35522,-6.239641 0,-5.632953 3.9308,-10.171419 9.25242,-10.68276 2.90089,-0.278738 3.52908,-0.104198 5.03117,1.397897 2.53002,2.530019 2.42329,7.267804 -0.24677,10.953704 -1.07974,1.490542 -2.5968,2.911186 -3.37124,3.156986 -0.8035,0.25502 -1.32024,0.899654 -1.2035,1.501367 0.32359,1.667867 1.63224,1.69908 3.14528,0.07503 1.90202,-2.041593 1.9112,-0.08247 0.0109,2.333347 -1.31626,1.673353 -3.21553,2.270434 -4.17383,1.312127 z m -0.44444,-5.937767 c 0,-0.620829 -0.45358,-0.960918 -1.11142,-0.833336 -1.67252,0.324367 -1.90217,1.882216 -0.27747,1.882216 0.81889,0 1.38889,-0.43046 1.38889,-1.04888 z m -1.17132,-2.284453 c 0.22518,0 0.91958,0.510164 1.54311,1.133699 1.06715,1.067154 1.22513,1.027401 2.69145,-0.677297 1.83538,-2.13376 3.19615,-6.66548 2.65222,-8.832642 -0.48887,-1.947844 -2.154,-3.624481 -3.59642,-3.621268 -4.66418,0.01039 -9.74127,9.05401 -7.46777,13.302072 l 0.79605,1.487436 1.48597,-1.396 c 0.81729,-0.7678 1.67021,-1.396 1.89539,-1.396 z m -26.82868,4.197286 c -1.23531,-0.510913 -2.61708,-2.25584 -2.64547,-3.340756 -0.0117,-0.445574 0.8334,-1.795574 1.87791,-3 1.55252,-1.790216 1.84342,-2.64578 1.59394,-4.688054 -0.42012,-3.439218 0.25494,-5.665309 1.87382,-6.179122 3.08789,-0.980057 4.36142,2.81453 1.96646,5.859226 -1.69472,2.15449 -1.68183,2.329041 0.39794,5.38969 l 1.73126,2.547784 1.60207,-2.357658 c 1.70757,-2.512914 2.0181,-3.76173 0.9354,-3.76173 -0.36667,0 -0.66667,-0.3 -0.66667,-0.666666 0,-0.366667 1.2,-0.666667 2.66667,-0.666667 2.73116,0 3.62972,0.925981 1.45134,1.495639 -0.66843,0.174798 -2.04104,1.726798 -3.05025,3.44889 -1.46593,2.501411 -1.67434,3.324576 -1.03638,4.093271 1.16954,1.409213 2.99074,1.175213 4.18568,-0.5378 0.57548,-0.825 1.06208,-1.125 1.08131,-0.666667 0.0193,0.458334 -0.59103,1.459334 -1.35614,2.22444 -1.06413,1.064127 -1.80845,1.27278 -3.16667,0.887687 -2.09416,-0.593747 -3.7127,-0.610453 -6.44222,-0.06647 -1.1,0.219214 -2.45,0.21246 -3,-0.015 z m 4.5666,-1.454666 c 0.71158,-0.45094 0.48793,-1.139037 -1.06864,-3.287822 -2.14269,-2.957899 -3.49796,-2.746663 -3.49796,0.545202 0,2.82976 2.27398,4.195473 4.5666,2.74262 z m 0.10006,-12.82425 c 0,-1.220668 -0.34735,-1.91837 -0.95507,-1.91837 -1.19215,0 -1.94374,2.21833 -1.36712,4.0351 0.62088,1.956212 2.32219,0.405427 2.32219,-2.11673 z m 44.33242,11.806871 c -0.973,-1.660287 -1.57812,-3.327675 -1.34474,-3.705306 0.76576,-1.239027 2.11642,-0.720005 2.96331,1.138724 l 0.83167,1.825325 1.61962,-3.407694 c 1.72398,-3.627314 7.80863,-10.242957 9.42081,-10.242957 0.53127,0 -0.43089,1.357571 -2.13813,3.016823 -1.92746,1.873267 -3.8642,4.716215 -5.10934,7.5 -3.57104,7.983824 -3.76483,8.10411 -6.2432,3.875085 z M 88.027547,33.292392 c 0,-0.290873 1.5,-2.302886 3.333333,-4.471146 2.431951,-2.876238 3.333333,-4.499939 3.333333,-6.00448 0,-2.43801 -1.034242,-3.662187 -3.093988,-3.662187 -1.864415,0 -2.601533,1.093639 -1.572678,2.333333 0.906005,1.09167 0.352926,2.333334 -1.039345,2.333334 -0.618837,0 -0.960655,-0.698184 -0.960655,-1.962198 0,-3.781536 5.145338,-5.409785 7.88379,-2.494835 2.37715,2.530359 1.879584,4.748808 -1.980495,8.830273 l -3.430038,3.62676 h 2.661495 c 2.101277,0 2.813768,-0.315735 3.384918,-1.5 l 0.723422,-1.5 0.04512,1.445475 c 0.09721,3.114211 -0.525402,3.554525 -5.026205,3.554525 -2.344104,0 -4.262007,-0.237987 -4.262007,-0.528854 z m 12.458333,0.0983 c -0.94368,-0.94368 -0.40969,-2.236113 0.92388,-2.236113 0.93198,0 1.31201,0.362033 1.16667,1.11142 -0.23796,1.226987 -1.376,1.83924 -2.09055,1.124693 z m 58.54167,-0.236113 c 0.22661,-0.366667 0.83275,-0.666667 1.34698,-0.666667 0.52004,0 1.2243,-1.109452 1.58696,-2.5 1.6368,-6.276102 2.73272,-10.726094 2.73272,-11.09623 0,-0.222073 -0.45,-0.40377 -1,-0.40377 -0.55,0 -1,-0.3 -1,-0.666666 0,-0.902267 7.93532,-0.85226 10.5712,0.06662 5.81427,2.026861 1.5921,8.600046 -5.52409,8.600046 -2.16194,0 -2.38177,0.195788 -3.06384,2.728813 -0.64108,2.380792 -0.58059,2.845721 0.4743,3.645467 1.07086,0.811847 0.76633,0.919074 -2.66358,0.937854 -2.41686,0.0132 -3.71779,-0.229414 -3.46065,-0.645467 z m 13.29553,-9.481671 c 1.57895,-2.254276 1.33075,-4.4194 -0.56106,-4.894214 -3.41581,-0.857314 -4.60185,-0.159957 -5.45816,3.209218 l -0.80483,3.166667 h 2.89312 c 2.23393,0 3.12959,-0.337598 3.93093,-1.481671 z m 39.48225,-13.629441 c -0.24445,-0.244444 -0.44445,-1.106102 -0.44445,-1.914794 0,-1.197866 -0.49013,-1.548724 -2.64477,-1.893266 -3.62683,-0.579954 -5.35523,-2.593796 -5.35523,-6.23964198 0,-5.63295302 3.93081,-10.17142002 9.25243,-10.68276102 2.90088,-0.278738 3.52907,-0.104198 5.03116,1.397898 2.53002,2.530018 2.42329,7.267804 -0.24676,10.953703 -1.07974,1.490543 -2.5968,2.911186 -3.37125,3.156984 -0.80349,0.25502 -1.32023,0.899658 -1.20349,1.50137 0.32358,1.667864 1.63224,1.699082 3.14527,0.07503 1.90203,-2.041589 1.9112,-0.08246 0.0109,2.333349 -1.31626,1.673356 -3.21553,2.27043 -4.17383,1.312128 z m -0.44445,-5.937771 c 0,-0.620826 -0.45358,-0.960915 -1.11142,-0.833333 -1.67251,0.324367 -1.90217,1.882216 -0.27747,1.882216 0.81889,0 1.38889,-0.43046 1.38889,-1.048883 z m -1.17132,-2.284451 c 0.22518,0 0.91958,0.510165 1.54311,1.1337 1.06716,1.067154 1.22514,1.027398 2.69146,-0.677298 1.83538,-2.13375898 3.19614,-6.66548 2.65222,-8.832642 -0.48888,-1.947843 -2.15401,-3.62448 -3.59642,-3.621268 -4.66419,0.01039 -9.74128,9.05401 -7.46778,13.302073 l 0.79605,1.487435 1.48597,-1.396 c 0.81729,-0.7678 1.67022,-1.396 1.89539,-1.396 z M 88.027547,5.471411 c 0,-0.192408 0.75,-0.634983 1.666666,-0.983499 1.608208,-0.611439 1.666667,-0.845141 1.666667,-6.662867 v -6.029203 l -1.666667,0.418307 c -0.938683,0.235595 -1.666666,0.129492 -1.666666,-0.242914 0,-0.363671 0.675,-0.807615 1.5,-0.986541 0.825,-0.178926 2.025,-0.545996 2.666666,-0.815711 1.07052,-0.449976 1.166667,0.119842 1.166667,6.91427 0,6.960214 0.08003,7.404659 1.333333,7.404659 0.733334,0 1.333334,0.3 1.333334,0.666667 0,0.37037 -1.777778,0.666666 -4,0.666666 -2.2,0 -4,-0.157425 -4,-0.349834 z M 100.48588,5.390691 C 99.5422,4.447014 100.07619,3.15458 101.40976,3.15458 c 0.93198,0 1.31201,0.362033 1.16667,1.111422 -0.23796,1.226986 -1.376,1.839237 -2.09055,1.124689 z m 99.54167,-4.236112 v -2.666667 h -6 c -3.55556,0 -6,-0.271605 -6,-0.666667 0,-0.4 2.66666,-0.666666 6.66666,-0.666666 h 6.66667 v 3.33333302 c 0,1.83333298 -0.3,3.33333298 -0.66667,3.33333298 -0.36666,0 -0.66666,-1.2 -0.66666,-2.666666 z"
       id="path970" />
  </g>
</svg>
