<?xml version="1.0" encoding="UTF-8" standalone="no"?>
<svg
   xmlns:dc="http://purl.org/dc/elements/1.1/"
   xmlns:cc="http://creativecommons.org/ns#"
   xmlns:rdf="http://www.w3.org/1999/02/22-rdf-syntax-ns#"
   xmlns:svg="http://www.w3.org/2000/svg"
   xmlns="http://www.w3.org/2000/svg"
   xmlns:sodipodi="http://sodipodi.sourceforge.net/DTD/sodipodi-0.dtd"
   xmlns:inkscape="http://www.inkscape.org/namespaces/inkscape"
   version="1.1"
   id="svg1042"
   width="88.302681"
   height="166.91646"
   viewBox="0 0 88.302682 166.91646"
   sodipodi:docname="treeExampleDisAlt2.svg"
   inkscape:version="1.0.1 (c497b03c, 2020-09-10)">
  <metadata
     id="metadata1048">
    <rdf:RDF>
      <cc:Work
         rdf:about="">
        <dc:format>image/svg+xml</dc:format>
        <dc:type
           rdf:resource="http://purl.org/dc/dcmitype/StillImage" />
        <dc:title></dc:title>
      </cc:Work>
    </rdf:RDF>
  </metadata>
  <defs
     id="defs1046" />
  <sodipodi:namedview
     pagecolor="#ffffff"
     bordercolor="#666666"
     borderopacity="1"
     objecttolerance="10"
     gridtolerance="10"
     guidetolerance="10"
     inkscape:pageopacity="0"
     inkscape:pageshadow="2"
     inkscape:window-width="731"
     inkscape:window-height="480"
     id="namedview1044"
     showgrid="false"
     inkscape:pagecheckerboard="true"
     fit-margin-top="0"
     fit-margin-left="0"
     fit-margin-right="0"
     fit-margin-bottom="0"
     inkscape:zoom="0.84684562"
     inkscape:cx="124.10941"
     inkscape:cy="150.24844"
     inkscape:window-x="0"
     inkscape:window-y="25"
     inkscape:window-maximized="0"
     inkscape:current-layer="g1050" />
  <g
     inkscape:groupmode="layer"
     inkscape:label="Image"
     id="g1050"
     transform="translate(120.11016,-6.0190035)">
    <path
       style="fill:#1f1f1f;stroke-width:0.666667"
       d="m -80.443498,172.48199 c 0,-0.25954 1.110886,-1.60954 2.468633,-3 l 2.468633,-2.52811 -2.591986,-2.65443 c -3.381647,-3.46312 -2.462833,-4.38194 1.000292,-1.00029 l 2.654428,2.59199 2.541993,-2.4822 c 3.3168,-3.23876 4.2417,-2.31386 1.002933,1.00294 l -2.482193,2.54199 2.482193,2.54199 c 3.238767,3.3168 2.313867,4.2417 -1.002933,1.00294 l -2.541993,-2.4822 -2.528107,2.46864 c -2.446713,2.38914 -3.471893,2.97874 -3.471893,1.99674 z m -3.041473,-28.12767 c 0.24942,-0.40357 0.874226,-0.73377 1.388453,-0.73377 0.520047,0 1.224307,-1.10946 1.58696,-2.5 1.636806,-6.2761 2.732726,-10.7261 2.732726,-11.09623 0,-0.22208 -0.45,-0.40377 -1,-0.40377 -0.55,0 -1,-0.3 -1,-0.66667 0,-0.96724 9.344907,-0.80898 11.333334,0.19194 2.540646,1.27889 2.566026,4.01633 0.05447,5.87322 -1.967453,1.4546 -1.987394,1.52294 -0.7062,2.42032 1.819734,1.27459 1.649594,3.63743 -0.40072,5.56498 -1.524193,1.43293 -2.440567,1.64272 -8.08082,1.84998 -4.510627,0.16575 -6.229726,0.0203 -5.908179,-0.5 z m 11.748526,-2.10749 c 0.86866,-0.86866 1.297593,-2.03291 1.166667,-3.16667 -0.18794,-1.62743 -0.495594,-1.81155 -3.33276,-1.99447 -3.106047,-0.20025 -3.130135,-0.18558 -3.829615,2.33334 -1.095492,3.94497 -0.976099,4.20152 1.955321,4.20152 1.803907,0 3.111114,-0.44445 4.040387,-1.37372 z m 1.491167,-7.81458 c 0.70444,-0.63227 1.11654,-1.77663 1,-2.77692 -0.169354,-1.45368 -0.575067,-1.73234 -2.786074,-1.9136 -3.163253,-0.25932 -3.552486,0.098 -4.14476,3.80512 l -0.467526,2.9263 2.600066,-0.48271 c 1.43004,-0.26549 3.139273,-0.96667 3.798294,-1.55819 z M -81.594785,114.7839 c 1.016787,-0.82318 3.716786,-4.61725 6,-8.43126 2.283207,-3.81402 4.451287,-6.964022 4.817953,-7.000002 0.37064,-0.0364 0.99118,3.272932 1.397486,7.452792 0.589408,6.06338 0.976421,7.70409 2.000001,8.4788 1.157513,0.87606 0.961233,0.96244 -2.23082,0.98178 -1.925001,0.0117 -3.5,-0.2788 -3.5,-0.64546 0,-0.36667 0.449999,-0.66667 1,-0.66667 0.666666,0 1,-0.66667 1,-2 0,-1.91815 -0.119633,-2 -2.923327,-2 -2.440006,0 -3.11824,0.29747 -4.10224,1.79925 -0.805486,1.22933 -0.93536,1.88044 -0.410006,2.05556 1.78938,0.59646 0.55536,1.47828 -2.064427,1.47521 l -2.833333,-0.003 1.848713,-1.4967 z m 9.817953,-8.16335 c 0,-1.65 -0.225,-2.99769 -0.5,-2.99487 -0.478253,0.005 -3.5,4.86297 -3.5,5.62695 0,0.20235 0.9,0.36792 2,0.36792 1.925927,0 2,-0.11112 2,-3 z m -3.333333,-31.333341 c 0,-10.444446 0.24036,-16.333333 0.666667,-16.333333 0.426306,0 0.666666,5.888887 0.666666,16.333333 0,10.444449 -0.24036,16.333329 -0.666666,16.333329 -0.426307,0 -0.666667,-5.88888 -0.666667,-16.333329 z m 1.51538,-25.836647 c 1.016787,-0.823176 3.716787,-4.617245 6,-8.431262 2.283207,-3.814016 4.451287,-6.964016 4.817953,-7 0.37064,-0.03637 0.99118,3.272936 1.397482,7.45279 0.58941,6.063376 0.97642,7.704092 2,8.478799 1.15752,0.876067 0.96124,0.962447 -2.23082,0.981787 -1.924995,0.01166 -3.499995,-0.2788 -3.499995,-0.645467 0,-0.366667 0.45,-0.666667 0.999999,-0.666667 0.666668,0 1.000001,-0.666666 1.000001,-2 0,-1.918154 -0.119633,-2 -2.923327,-2 -2.440006,0 -3.11824,0.297476 -4.10224,1.799253 -0.805486,1.229327 -0.935361,1.880441 -0.410006,2.055554 1.78938,0.59646 0.55536,1.47828 -2.064427,1.475213 l -2.833333,-0.0033 1.848713,-1.496693 z m 9.817952,-8.163353 c 0,-1.65 -0.224999,-2.99769 -0.499999,-2.994866 -0.478253,0.0049 -3.5,4.86297 -3.5,5.626945 0,0.202356 0.899999,0.367921 2,0.367921 1.925927,0 1.999999,-0.111111 1.999999,-3 z m -14.666665,5 v -2.666667 h -6 c -3.555553,0 -6,-0.271604 -6,-0.666666 0,-0.4 2.666667,-0.666667 6.666666,-0.666667 h 6.666667 v 3.333333 c 0,1.833334 -0.3,3.333334 -0.666667,3.333334 -0.366666,0 -0.666666,-1.2 -0.666666,-2.666667 z M -92.739685,16.599233 c -1.723726,-3.861721 -2.998255,-7.3867206 -2.832282,-7.8333336 0.299097,-0.804832 5.795136,10.3112476 5.795136,11.7210216 0,1.39937 1.100453,-0.516475 3.6679,-6.385663 1.408106,-3.21894 2.807606,-5.6052096 3.109993,-5.3028236 0.550387,0.550386 -5.41122,14.8193956 -6.192294,14.8211676 -0.227926,5.17e-4 -1.824726,-3.158649 -3.548453,-7.020369 z m 47.295265,4.079884 c -0.97299,-1.660288 -1.57812,-3.327676 -1.34473,-3.705306 0.76576,-1.239027 2.11641,-0.720005 2.9633,1.138724 l 0.83168,1.825325 1.61961,-3.407694 c 1.72399,-3.627314 7.80863,-10.2429576 9.42081,-10.2429576 0.53128,0 -0.43088,1.357571 -2.13813,3.016824 -1.92745,1.8732656 -3.86419,4.7162136 -5.10934,7.4999996 -3.57104,7.983825 -3.76483,8.104107 -6.2432,3.875085 z m -72.81703,0.771447 c 1.01679,-0.823179 3.71679,-4.617247 6,-8.431264 2.28321,-3.8140156 4.45129,-6.9640156 4.81795,-6.9999996 0.37065,-0.03637 0.99118,3.272936 1.39749,7.4527886 0.5894,6.063377 0.97642,7.704096 2,8.478798 1.15751,0.876068 0.96123,0.962449 -2.23082,0.981786 -1.925,0.01166 -3.5,-0.278798 -3.5,-0.645464 0,-0.366667 0.45,-0.666667 1,-0.666667 0.66667,0 1,-0.666667 1,-2 0,-1.918155 -0.11963,-2 -2.92333,-2 -2.44,0 -3.11824,0.297476 -4.10224,1.799253 -0.80549,1.229327 -0.93536,1.880438 -0.41001,2.055555 1.78939,0.596461 0.55537,1.478276 -2.06442,1.475214 l -2.83333,-0.0033 1.84871,-1.496689 z m 9.81795,-8.163356 c 0,-1.65 -0.225,-2.997689 -0.5,-2.994865 -0.47825,0.0049 -3.5,4.862969 -3.5,5.626944 0,0.202357 0.9,0.367922 2,0.367922 1.92593,0 2,-0.111112 2,-3.000001 z m 32.958528,9.067108 c 0.24942,-0.403576 0.874227,-0.733774 1.388454,-0.733774 0.520046,0 1.224306,-1.109453 1.58696,-2.5 1.636806,-6.276102 2.732726,-10.7260936 2.732726,-11.0962296 0,-0.222074 -0.45,-0.40377 -1,-0.40377 -0.55,0 -1,-0.3 -1,-0.666667 0,-0.967243 9.344907,-0.808977 11.333332,0.191942 2.54065,1.27889 2.56603,4.0163266 0.0545,5.8732156 -1.967455,1.454601 -1.987395,1.522943 -0.7062,2.420324 1.81973,1.274592 1.64959,3.637424 -0.40072,5.564976 -1.524195,1.43293 -2.440568,1.642719 -8.080822,1.849983 -4.510626,0.165753 -6.229726,0.02027 -5.908181,-0.5 z m 11.748526,-2.107492 c 0.86866,-0.868661 1.297594,-2.032908 1.166668,-3.166667 -0.18794,-1.627437 -0.495595,-1.811551 -3.33276,-1.99447 -3.106048,-0.200253 -3.130134,-0.185576 -3.829614,2.333334 -1.095494,3.944977 -0.9761,4.201521 1.95532,4.201521 1.803907,0 3.111114,-0.444445 4.040386,-1.373718 z m 1.491168,-7.814574 c 0.704438,-0.632274 1.116538,-1.776636 0.999998,-2.7769236 -0.16935,-1.453684 -0.575065,-1.732344 -2.786072,-1.913598 -3.163253,-0.259319 -3.552487,0.09802 -4.14476,3.8051136 l -0.467527,2.926301 2.600067,-0.482709 c 1.43004,-0.265491 3.139274,-0.966674 3.798294,-1.558184 z"
       id="path1054" />
  </g>
</svg>
